<svg id="圖層_1" data-name="圖層 1" xmlns="http://www.w3.org/2000/svg" viewBox="0 0 163 138"><defs><style>.cls-1{fill:#094d72;}.cls-2{isolation:isolate;}.cls-3{fill:#fff;}</style></defs><title>色塊</title><path id="Path_91" data-name="Path 91" class="cls-1" d="M1.12,57.48v73a6.91,6.91,0,0,0,6.93,6.9,4.35,4.35,0,0,0,.51,0,202.78,202.78,0,0,0,152.11-87.8,6.92,6.92,0,0,0-1.79-9.61l-.45-.28L95.23,3.16A19.27,19.27,0,0,0,71.39,7,106.24,106.24,0,0,1,16.27,38.79,19.2,19.2,0,0,0,1.12,57.48Z"/><g id="A" class="cls-2"><g class="cls-2"><path class="cls-3" d="M96.42,93.21H85.23L80.79,81.64H60.43L56.22,93.21H45.31L65.15,42.28H76ZM77.49,73.06l-7-18.9-6.88,18.9Z"/></g></g></svg>