<svg width="340" height="380" viewBox="0 0 340 380" fill="none" xmlns="http://www.w3.org/2000/svg">
<path d="M36.881 266.489V105.259L175.833 24.6341L314.759 105.259V266.489L175.833 347.115L36.881 266.489Z" stroke="#103C5F"/>
<path d="M37.0178 266.149V266.414L37.2461 266.546L175.605 346.821L175.833 346.953L176.061 346.821L314.394 266.546L314.622 266.414V266.149V105.6V105.334L314.394 105.202L176.061 24.9275L175.833 24.7952L175.605 24.9274L37.2461 105.202L37.0178 105.334V105.6V266.149ZM36.881 266.489V105.259L175.833 24.6341L314.759 105.259V266.489L175.833 347.115L36.881 266.489Z" stroke="#103C5F"/>
<path d="M56.936 255.311V117.502L175.834 48.5961L294.667 117.502V255.311L175.834 324.217L56.936 255.311Z" stroke="#103C5F"/>
<path d="M57.0728 254.971V255.236L57.3012 255.368L175.606 323.933L175.834 324.065L176.062 323.933L294.302 255.368L294.53 255.236V254.971V117.842V117.577L294.302 117.445L176.062 48.8896L175.834 48.7576L175.606 48.8895L57.3012 117.445L57.0728 117.577V117.842V254.971ZM56.936 255.311V117.502L175.834 48.5961L294.667 117.502V255.311L175.834 324.217L56.936 255.311Z" stroke="#103C5F"/>
<path d="M76.17 244.491V129.139L175.833 71.4935L275.433 129.139V244.491L175.833 302.173L76.17 244.491Z" stroke="#103C5F"/>
<path d="M76.3068 244.151V244.416L76.5358 244.548L175.606 301.879L175.833 302.011L176.061 301.879L275.104 244.548L275.333 244.416V244.151V129.488V129.223L275.104 129.091L176.061 71.7502L175.833 71.6186L175.606 71.7502L76.5358 129.091L76.3068 129.223V129.488V244.151ZM76.17 244.491V129.139L175.833 71.4935L275.433 129.139V244.491L175.833 302.173L76.17 244.491Z" stroke="#103C5F"/>
<path d="M95.5227 232.422L95.4953 139.63L175.833 93.2442L256.135 139.63V232.423L175.833 278.807L95.5227 232.422Z" stroke="#103C5F"/>
<path d="M95.6321 232.073V232.339L95.861 232.472L175.606 278.515L175.833 278.646L176.061 278.515L255.769 232.472L255.998 232.339V232.073V139.978V139.713L255.769 139.58L176.061 93.5094L175.833 93.3782L175.606 93.5094L95.861 139.58L95.6321 139.713V139.978V232.073ZM95.4953 232.413V139.63L175.833 93.2442L256.135 139.63V232.414L175.833 278.807L95.4953 232.413Z" stroke="#103C5F"/>
<path d="M115.733 221.411L115.696 151.209L175.833 116.106L235.943 151.209V221.411L175.833 256.515L115.733 221.411Z" stroke="#103C5F"/>
<path d="M115.869 220.611H115.733V151.209L175.833 116.106L235.943 151.209V221.411L175.833 256.515L115.733 221.411V221.275L116.06 221.466L175.605 256.221L175.833 256.355L176.062 256.221L235.58 221.466L235.807 221.334V221.07V151.551V151.287L235.58 151.154L176.062 116.4L175.833 116.266L175.605 116.4L116.097 151.154L115.869 151.287V151.551V220.611Z" stroke="#103C5F"/>
<path d="M136.627 208.765L136.59 163.002L175.833 140.059L215.013 163.002V208.81L175.833 231.671L136.627 208.765Z" stroke="#103C5F"/>
<path d="M136.754 163.27V208.233L136.617 208.417V163.002L175.833 140.059L215.013 163.002V208.801L175.833 231.671L136.617 208.728V208.623L136.954 208.821L175.605 231.379L175.833 231.512L176.062 231.378L214.677 208.82L214.904 208.687V208.423V163.307V163.043L214.677 162.911L176.062 140.316L175.833 140.182L175.605 140.316L136.981 162.874L136.754 163.006V163.27Z" stroke="#103C5F"/>
<path d="M156.225 197.348V174.382L175.833 162.938L195.442 174.382V197.348L175.833 208.801L156.225 197.348Z" stroke="#103C5F"/>
<path d="M156.353 196.988H156.628L156.417 197.227L156.444 197.263L156.724 197.64L156.225 197.348V174.382L175.833 162.929L195.442 174.382V197.348L175.833 208.801L157.265 197.955V197.764L175.605 208.463L175.833 208.596L176.062 208.462L195.078 197.348L195.305 197.216V196.951V174.733V174.469L195.078 174.336L176.062 163.258L175.833 163.125L175.605 163.259L156.58 174.373L156.353 174.505V174.77V196.988Z" stroke="#103C5F"/>
<path d="M176.62 6.21622H174.183V10.4393H172.807V0H176.242C177.41 0 178.309 0.267705 178.935 0.803022C179.567 1.33834 179.883 2.1175 179.883 3.14041C179.883 3.79045 179.708 4.35688 179.356 4.83961C179.009 5.32243 178.525 5.68328 177.902 5.92226L180.339 10.3532V10.4393H178.871L176.62 6.21622ZM174.183 5.09061H176.285C176.964 5.09061 177.503 4.91376 177.902 4.55997C178.306 4.20627 178.507 3.73309 178.507 3.14041C178.507 2.49506 178.316 2.0004 177.931 1.65624C177.551 1.31209 177 1.13763 176.278 1.13286H174.183V5.09061Z" fill="#103C5F"/>
<path d="M171.923 375.204C170.749 374.864 169.895 374.449 169.357 373.956C168.826 373.459 168.559 372.847 168.559 372.12C168.559 371.298 168.885 370.62 169.536 370.085C170.191 369.544 171.042 369.274 172.087 369.274C172.799 369.274 173.433 369.413 173.988 369.69C174.549 369.967 174.982 370.35 175.285 370.837C175.594 371.325 175.749 371.858 175.749 372.436H174.373C174.373 371.805 174.175 371.31 173.775 370.952C173.377 370.589 172.813 370.407 172.087 370.407C171.412 370.407 170.885 370.557 170.505 370.858C170.13 371.155 169.942 371.569 169.942 372.099C169.942 372.524 170.12 372.886 170.476 373.182C170.838 373.473 171.448 373.741 172.308 373.985C173.172 374.228 173.846 374.498 174.33 374.795C174.82 375.086 175.181 375.428 175.414 375.821C175.651 376.212 175.771 376.673 175.771 377.204C175.771 378.05 175.442 378.729 174.786 379.24C174.132 379.747 173.255 380 172.158 380C171.445 380 170.78 379.864 170.163 379.592C169.545 379.314 169.068 378.936 168.731 378.459C168.398 377.981 168.232 377.439 168.232 376.831H169.607C169.607 377.462 169.837 377.962 170.299 378.33C170.764 378.693 171.384 378.875 172.158 378.875C172.879 378.875 173.433 378.726 173.818 378.43C174.203 378.133 174.395 377.729 174.395 377.218C174.395 376.707 174.216 376.313 173.861 376.035C173.504 375.754 172.859 375.476 171.923 375.204Z" fill="#103C5F"/>
<path d="M9.10831 105.288C8.98008 106.393 8.57397 107.245 7.88997 107.848C7.21071 108.445 6.30582 108.744 5.1753 108.744C3.94976 108.744 2.96653 108.301 2.22553 107.418C1.48927 106.533 1.12119 105.35 1.12119 103.869V102.865C1.12119 101.895 1.29219 101.041 1.63419 100.305C1.98093 99.5691 2.47022 99.0047 3.10196 98.6129C3.7337 98.2164 4.46522 98.0182 5.29642 98.0182C6.39839 98.0182 7.28193 98.3284 7.94697 98.9497C8.61191 99.5664 8.99905 100.423 9.10831 101.517H7.73319C7.61445 100.685 7.35553 100.083 6.95653 99.7096C6.56227 99.3369 6.00896 99.1506 5.29642 99.1506C4.42245 99.1506 3.73607 99.4755 3.2373 100.126C2.74327 100.776 2.4963 101.701 2.4963 102.901V103.912C2.4963 105.044 2.73141 105.946 3.20164 106.615C3.67196 107.284 4.32979 107.619 5.1753 107.619C5.93527 107.619 6.51722 107.446 6.92096 107.102C7.32945 106.753 7.60022 106.148 7.73319 105.288H9.10831Z" fill="#103C5F"/>
<path d="M5.86389 268.427H1.368V272.126H6.59067V273.252H0V262.813H6.51944V263.945H1.368V267.302H5.86389V268.427Z" fill="#103C5F"/>
<path d="M336.583 107.545H335.215V97.106H336.583V107.545Z" fill="#103C5F"/>
<path d="M337.606 271.583H333.259L332.284 274.308H330.873L334.834 263.868H336.031L340 274.308H338.596L337.606 271.583ZM333.673 270.45H337.199L335.433 265.568L333.673 270.45Z" fill="#103C5F"/>
</svg>
