<svg width="132" height="200" viewBox="0 0 132 200" fill="none" xmlns="http://www.w3.org/2000/svg">
<path d="M126.563 140.97C121.266 128.083 118.938 114.169 119.752 100.259C120.565 86.3496 124.5 72.8017 131.263 60.62L95.013 1.46L28.113 0C10.8193 30.2071 1.20229 64.1964 0.105623 98.9863C-0.991041 133.776 6.46613 168.304 21.823 199.54L56.223 142.85L126.563 140.97Z" fill="#596D79"/>
<path d="M28.7949 86.25H25.3359L23.9609 82.6729H17.666L16.3662 86.25H12.9932L19.127 70.502H22.4893L28.7949 86.25ZM22.9404 80.0195L20.7705 74.1758L18.6436 80.0195H22.9404ZM40.418 78.2148L37.4424 78.752C37.3421 78.1576 37.113 77.71 36.7549 77.4092C36.404 77.1084 35.9456 76.958 35.3799 76.958C34.6279 76.958 34.0264 77.2194 33.5752 77.7422C33.1312 78.2578 32.9092 79.1243 32.9092 80.3418C32.9092 81.6953 33.1348 82.6514 33.5859 83.21C34.0443 83.7686 34.6566 84.0479 35.4229 84.0479C35.9958 84.0479 36.4648 83.8867 36.8301 83.5645C37.1953 83.235 37.4531 82.6729 37.6035 81.8779L40.5684 82.3828C40.2604 83.7435 39.6696 84.7712 38.7959 85.4658C37.9222 86.1605 36.7513 86.5078 35.2832 86.5078C33.6146 86.5078 32.2826 85.9814 31.2871 84.9287C30.2988 83.876 29.8047 82.4186 29.8047 80.5566C29.8047 78.6732 30.3024 77.2087 31.2979 76.1631C32.2933 75.1104 33.6396 74.584 35.3369 74.584C36.7262 74.584 37.8291 74.8848 38.6455 75.4863C39.4691 76.0807 40.0599 76.9902 40.418 78.2148ZM45.7246 70.502V76.292C46.6986 75.1533 47.8623 74.584 49.2158 74.584C49.9105 74.584 50.5371 74.7129 51.0957 74.9707C51.6543 75.2285 52.0732 75.5579 52.3525 75.959C52.639 76.36 52.8324 76.804 52.9326 77.291C53.04 77.778 53.0938 78.5335 53.0938 79.5576V86.25H50.0752V80.2236C50.0752 79.0277 50.0179 78.2686 49.9033 77.9463C49.7887 77.624 49.5846 77.3698 49.291 77.1836C49.0046 76.9902 48.6429 76.8936 48.2061 76.8936C47.7048 76.8936 47.2572 77.0153 46.8633 77.2588C46.4694 77.5023 46.1794 77.8711 45.9932 78.3652C45.8141 78.8522 45.7246 79.5755 45.7246 80.5352V86.25H42.7061V70.502H45.7246ZM56.166 73.2949V70.502H59.1846V73.2949H56.166ZM56.166 86.25V74.8418H59.1846V86.25H56.166ZM68.8955 82.6191L71.9033 83.124C71.5166 84.2269 70.9043 85.0684 70.0664 85.6484C69.2357 86.2214 68.1937 86.5078 66.9404 86.5078C64.9567 86.5078 63.4886 85.8597 62.5361 84.5635C61.7842 83.5251 61.4082 82.2145 61.4082 80.6318C61.4082 78.7412 61.9023 77.2624 62.8906 76.1953C63.8789 75.1211 65.1286 74.584 66.6396 74.584C68.3369 74.584 69.6761 75.1462 70.6572 76.2705C71.6383 77.3877 72.1074 79.1029 72.0645 81.416H64.502C64.5234 82.3112 64.7669 83.0094 65.2324 83.5107C65.6979 84.0049 66.278 84.252 66.9727 84.252C67.4453 84.252 67.8428 84.123 68.165 83.8652C68.4873 83.6074 68.7308 83.1921 68.8955 82.6191ZM69.0674 79.5684C69.0459 78.6947 68.8203 78.0322 68.3906 77.5811C67.9609 77.1227 67.4382 76.8936 66.8223 76.8936C66.1634 76.8936 65.6191 77.1335 65.1895 77.6133C64.7598 78.0931 64.5485 78.7448 64.5557 79.5684H69.0674ZM77.6719 86.25L73.0742 74.8418H76.2432L78.3916 80.6641L79.0146 82.6084C79.1794 82.1143 79.2832 81.7884 79.3262 81.6309C79.4264 81.3086 79.5339 80.9863 79.6484 80.6641L81.8184 74.8418H84.9229L80.3896 86.25H77.6719ZM93.3877 82.6191L96.3955 83.124C96.0088 84.2269 95.3965 85.0684 94.5586 85.6484C93.7279 86.2214 92.6859 86.5078 91.4326 86.5078C89.4489 86.5078 87.9808 85.8597 87.0283 84.5635C86.2764 83.5251 85.9004 82.2145 85.9004 80.6318C85.9004 78.7412 86.3945 77.2624 87.3828 76.1953C88.3711 75.1211 89.6208 74.584 91.1318 74.584C92.8291 74.584 94.1683 75.1462 95.1494 76.2705C96.1305 77.3877 96.5996 79.1029 96.5566 81.416H88.9941C89.0156 82.3112 89.2591 83.0094 89.7246 83.5107C90.1901 84.0049 90.7702 84.252 91.4648 84.252C91.9375 84.252 92.335 84.123 92.6572 83.8652C92.9795 83.6074 93.223 83.1921 93.3877 82.6191ZM93.5596 79.5684C93.5381 78.6947 93.3125 78.0322 92.8828 77.5811C92.4531 77.1227 91.9303 76.8936 91.3145 76.8936C90.6556 76.8936 90.1113 77.1335 89.6816 77.6133C89.252 78.0931 89.0407 78.7448 89.0479 79.5684H93.5596Z" fill="white"/>
<path d="M14.3467 96.8418H17.1289V98.3994C18.1243 97.1891 19.3096 96.584 20.6846 96.584C21.415 96.584 22.0488 96.7344 22.5859 97.0352C23.123 97.3359 23.5635 97.7907 23.9072 98.3994C24.4085 97.7907 24.9492 97.3359 25.5293 97.0352C26.1094 96.7344 26.7288 96.584 27.3877 96.584C28.2256 96.584 28.9346 96.7559 29.5146 97.0996C30.0947 97.4362 30.528 97.9339 30.8145 98.5928C31.0221 99.0798 31.126 99.8675 31.126 100.956V108.25H28.1074V101.729C28.1074 100.598 28.0036 99.8675 27.7959 99.5381C27.5166 99.1084 27.0869 98.8936 26.5068 98.8936C26.0843 98.8936 25.6868 99.0225 25.3145 99.2803C24.9421 99.5381 24.6735 99.9176 24.5088 100.419C24.3441 100.913 24.2617 101.697 24.2617 102.771V108.25H21.2432V101.998C21.2432 100.888 21.1895 100.172 21.082 99.8496C20.9746 99.5273 20.8063 99.2874 20.5771 99.1299C20.3551 98.9723 20.0508 98.8936 19.6641 98.8936C19.1986 98.8936 18.7796 99.0189 18.4072 99.2695C18.0348 99.5202 17.7663 99.8818 17.6016 100.354C17.444 100.827 17.3652 101.611 17.3652 102.707V108.25H14.3467V96.8418ZM40.751 104.619L43.7588 105.124C43.3721 106.227 42.7598 107.068 41.9219 107.648C41.0911 108.221 40.0492 108.508 38.7959 108.508C36.8122 108.508 35.3441 107.86 34.3916 106.563C33.6396 105.525 33.2637 104.215 33.2637 102.632C33.2637 100.741 33.7578 99.2624 34.7461 98.1953C35.7344 97.1211 36.984 96.584 38.4951 96.584C40.1924 96.584 41.5316 97.1462 42.5127 98.2705C43.4938 99.3877 43.9629 101.103 43.9199 103.416H36.3574C36.3789 104.311 36.6224 105.009 37.0879 105.511C37.5534 106.005 38.1335 106.252 38.8281 106.252C39.3008 106.252 39.6982 106.123 40.0205 105.865C40.3428 105.607 40.5863 105.192 40.751 104.619ZM40.9229 101.568C40.9014 100.695 40.6758 100.032 40.2461 99.5811C39.8164 99.1227 39.2936 98.8936 38.6777 98.8936C38.0189 98.8936 37.4746 99.1335 37.0449 99.6133C36.6152 100.093 36.404 100.745 36.4111 101.568H40.9229ZM56.7676 108.25H53.749V102.428C53.749 101.196 53.6846 100.401 53.5557 100.043C53.4268 99.6777 53.2155 99.3949 52.9219 99.1943C52.6354 98.9938 52.2881 98.8936 51.8799 98.8936C51.3571 98.8936 50.888 99.0368 50.4727 99.3232C50.0573 99.6097 49.7708 99.9893 49.6133 100.462C49.4629 100.935 49.3877 101.808 49.3877 103.083V108.25H46.3691V96.8418H49.1729V98.5176C50.1683 97.2285 51.4215 96.584 52.9326 96.584C53.5986 96.584 54.2074 96.7057 54.7588 96.9492C55.3102 97.1855 55.7256 97.4899 56.0049 97.8623C56.2913 98.2347 56.4883 98.6572 56.5957 99.1299C56.7103 99.6025 56.7676 100.279 56.7676 101.16V108.25ZM65.0713 96.8418V99.248H63.0088V103.846C63.0088 104.777 63.0267 105.321 63.0625 105.479C63.1055 105.629 63.195 105.754 63.3311 105.854C63.4743 105.955 63.6462 106.005 63.8467 106.005C64.126 106.005 64.5306 105.908 65.0605 105.715L65.3184 108.057C64.6165 108.357 63.8216 108.508 62.9336 108.508C62.3893 108.508 61.8988 108.418 61.4619 108.239C61.0251 108.053 60.7028 107.817 60.4951 107.53C60.2946 107.237 60.1549 106.843 60.0762 106.349C60.0117 105.998 59.9795 105.289 59.9795 104.222V99.248H58.5938V96.8418H59.9795V94.5752L63.0088 92.8135V96.8418H65.0713Z" fill="white"/>
</svg>
