<svg width="366" height="347" viewBox="0 0 366 347" fill="none" xmlns="http://www.w3.org/2000/svg">
<path d="M280.413 325.12L280.823 328.5L271.592 328.81L271.062 325.43L280.413 325.12Z" fill="#5874CB"/>
<path d="M300.423 328.17L299.963 331.77L292.023 332.64L290.643 327.55L300.423 328.17Z" fill="#5874CB"/>
<path d="M303.573 201.37C304.773 207.89 304.103 246 303.413 254.88C302.723 263.76 302.493 266.4 303.913 269.64C305.333 272.88 306.023 281.71 305.433 294.2C304.843 306.69 304.243 326.06 303.643 327.72C303.043 329.38 292.283 331.33 288.413 328.38C288.357 328.342 288.311 328.291 288.278 328.232C288.245 328.173 288.226 328.107 288.223 328.04C288.103 324.57 286.473 278.16 286.223 271.22C286.003 264.01 280.133 225.81 280.133 225.81L272.333 275.18C272.333 275.18 278.433 279.08 280.333 296.55C282.053 312.35 283.043 322.96 283.223 324.83C283.232 324.921 283.215 325.012 283.174 325.093C283.134 325.175 283.071 325.243 282.993 325.29C281.833 325.99 276.883 328.62 269.113 327.58C268.993 327.565 268.881 327.513 268.793 327.43C268.704 327.347 268.645 327.239 268.623 327.12C268.043 323.75 263.893 300.06 261.733 292.51C259.413 284.39 256.593 278.33 256.243 273.68C255.893 269.03 256.883 232.07 257.533 223.84C258.183 215.61 261.363 199.27 261.363 199.27L303.573 201.37Z" fill="#755640"/>
<path d="M296.322 329.81C299.132 329.81 300.842 330.06 301.092 331.94C301.342 333.82 302.952 335.3 303.802 336.22C304.652 337.14 306.942 338.47 306.582 340.84C306.222 343.21 304.792 343.44 300.302 343.59C295.812 343.74 293.362 341.7 292.612 339.9C291.862 338.1 291.702 337.04 291.112 336.41C290.522 335.78 291.242 330.92 291.912 330.54C293.307 329.96 294.816 329.71 296.322 329.81V329.81Z" fill="#4A3E36"/>
<path d="M281.382 328.17C282.592 329.11 282.582 335.64 282.122 336.53C281.662 337.42 277.242 337.41 276.452 337.36C275.175 337.065 273.849 337.045 272.562 337.3C270.177 338.27 267.645 338.828 265.072 338.95C260.582 339.22 256.372 338.53 255.372 337.85C254.372 337.17 254.622 334.64 255.232 333.92C255.842 333.2 259.432 333.19 262.842 332.32C266.252 331.45 269.152 330.41 269.772 329.75C270.392 329.09 269.942 327.97 273.452 327.92C276.962 327.87 280.262 327.31 281.382 328.17Z" fill="#4A3E36"/>
<path d="M270.862 199.74C269.762 211.86 264.372 272.33 265.862 275.22C267.352 278.11 277.052 305.16 279.192 326.88C280.523 326.504 281.802 325.966 283.002 325.28C283.081 325.234 283.145 325.166 283.186 325.084C283.227 325.003 283.243 324.911 283.232 324.82C283.062 322.95 282.062 312.35 280.352 296.54C278.452 279.07 272.352 275.18 272.352 275.18L280.132 225.81C279.942 219.81 280.082 204.18 280.132 200.21L270.862 199.74Z" fill="#64452D"/>
<path d="M303.412 254.88C304.102 246 304.772 207.88 303.572 201.37L294.492 200.92C296.282 220.68 293.912 263.74 295.492 272.41C296.882 279.84 298.492 312.41 298.732 329.57C301.302 329.15 303.352 328.4 303.602 327.72C304.202 326.06 304.802 306.72 305.392 294.21C305.982 281.7 305.302 272.87 303.872 269.64C302.442 266.41 302.732 263.81 303.412 254.88Z" fill="#64452D"/>
<path d="M321.132 149.55C321.132 149.55 322.852 141.99 321.352 139.31C319.852 136.63 315.902 139.31 315.902 139.31L321.132 149.55Z" fill="#B0B35E"/>
<path d="M249.482 140.38C249.835 138.243 250.387 136.144 251.132 134.11C252.132 131.74 253.712 137.24 253.712 137.24L249.482 140.38Z" fill="#B0B35E"/>
<path d="M312.712 130.81L310.652 132.48C309.652 133.28 304.532 133.17 300.822 131.6C297.112 130.03 297.622 127.6 299.622 120.08L284.862 121.32C284.862 121.32 284.192 131.44 280.622 132.01C279.222 132.23 270.622 131.13 268.552 130.08C267.742 129.67 264.552 126.53 260.842 122.72L252.742 140.45C256.252 145.28 259.442 149.54 259.442 149.54L260.992 199.27C271.872 204.81 303.922 203.72 303.922 203.72C303.922 203.72 304.172 190.24 306.202 183.72C308.232 177.2 313.392 155.33 313.392 155.33C315.922 152.8 318.392 150.15 320.722 147.49L320.352 147.54L312.712 130.81Z" fill="#C8C762"/>
<path d="M312.712 130.81L310.652 132.48C309.652 133.28 304.532 133.17 300.822 131.6C297.112 130.03 297.622 127.6 299.622 120.08L284.862 121.32C284.862 121.32 284.192 131.44 280.622 132.01C279.222 132.23 270.622 131.13 268.552 130.08C267.742 129.67 264.552 126.53 260.842 122.72L252.742 140.45C256.252 145.28 259.442 149.54 259.442 149.54L260.992 199.27C271.872 204.81 303.922 203.72 303.922 203.72C303.922 203.72 304.172 190.24 306.202 183.72C308.232 177.2 313.392 155.33 313.392 155.33C315.922 152.8 318.392 150.15 320.722 147.49L320.352 147.54L312.712 130.81Z" fill="#C8C762"/>
<path d="M364.842 66.1601C363.682 65.3601 359.462 65.2201 357.842 66.4001C356.222 67.5801 353.282 74.4801 352.572 75.2001C351.862 75.9201 351.282 71.0001 350.352 69.8801C349.422 68.7601 348.652 69.0201 348.952 69.8801C349.392 71.0501 349.572 76.7801 350.302 80.7801C350.461 82.1651 350.314 83.568 349.872 84.8901C349.352 86.3101 344.522 93.2301 340.472 98.1501C336.422 103.07 335.022 111.85 332.022 114.76C329.542 117.18 317.692 126.84 312.742 130.86L320.382 147.57H320.752C327.322 140.2 333.36 132.374 338.822 124.15C340.682 120.99 347.192 113.73 350.822 104.04C354.452 94.3501 356.162 87.2501 356.672 85.5501C357.182 83.8501 360.982 80.0601 362.872 77.7401C364.762 75.4201 365.992 66.9701 364.842 66.1601Z" fill="#E7BC94"/>
<path d="M247.132 107.69C245.562 105.32 243.502 99.61 239.792 94.69C236.082 89.77 229.682 82.53 228.662 79.96C227.642 77.39 228.282 74.38 228.022 72.15C227.762 69.92 229.122 64.36 227.752 64.15C226.972 64.02 226.062 69.29 225.752 69.87C225.442 70.45 222.752 64.13 221.962 62.87C221.172 61.61 216.062 59.53 215.732 60.47C215.402 61.41 214.312 68.17 216.112 71.65C217.544 74.4831 219.259 77.1636 221.232 79.65C222.592 81.28 223.782 83.48 226.282 91.23C228.782 98.98 233.982 110.15 236.912 113.71C239.842 117.27 241.752 123.4 244.152 127.83C245.362 130.06 249.252 135.55 252.822 140.45L260.922 122.72C255.052 116.81 248.052 109.14 247.132 107.69Z" fill="#E7BC94"/>
<path d="M298.192 128.81C297.862 127.05 298.472 124.44 299.622 120.14L284.862 121.38C284.862 121.38 284.372 128.69 282.022 131.22C282.022 131.22 282.282 136.87 286.872 135.87C291.462 134.87 298.172 128.87 298.172 128.87L298.192 128.81Z" fill="#E7BC94"/>
<path opacity="0.5" d="M299.622 120.09L284.863 121.33C284.655 124.098 284.052 126.823 283.073 129.42V129.42C284.393 130.98 294.533 131.09 298.073 127.51C298.327 124.989 298.846 122.502 299.622 120.09Z" fill="#DEAC80"/>
<path d="M281.202 100.63C281.202 100.63 277.652 96.3501 280.952 90.0001C280.952 90.0001 283.642 92.0001 289.552 90.0001C295.462 88.0001 302.682 94.8101 302.682 94.8101L297.852 103.36C297.852 103.36 285.852 96.17 284.142 97.29C282.918 98.1622 281.912 99.3052 281.202 100.63Z" fill="#4A3E36"/>
<path d="M281.862 99.5699C279.102 102.43 278.862 106.46 278.402 108.23C277.942 110 276.122 113.83 276.512 117.23C276.902 120.63 278.382 127.52 281.782 128.58C285.182 129.64 292.082 127.1 293.782 126.7C295.482 126.3 298.532 123.77 299.462 120.77C300.066 120.534 300.624 120.196 301.112 119.77C302.529 118.592 303.739 117.186 304.692 115.61C305.272 114.43 305.472 112.89 303.792 113C302.112 113.11 300.562 115.17 300.562 115.17C300.562 115.17 300.432 106.17 295.932 103.04C291.432 99.9099 283.792 97.5699 281.862 99.5699Z" fill="#E7BC94"/>
<path d="M281.202 100.63C280.667 99.4824 280.492 98.1998 280.699 96.9506C280.906 95.7014 281.486 94.5439 282.362 93.6301C285.542 90.2801 291.292 89.6301 295.952 90.7301C302.152 92.2401 308.332 99.3701 308.152 104.31C307.972 109.25 306.412 110.09 304.602 113.31C304.602 113.31 302.602 111.61 299.382 116.67H298.232C298.232 116.67 298.762 106.11 291.712 102.05C284.662 97.9901 282.302 99.1701 281.202 100.63Z" fill="#4A3E36"/>
<path d="M256.942 118.66C256.942 118.66 253.732 137.08 249.482 140.38L259.482 149.55L268.592 130.09L256.942 118.66Z" fill="#C8C762"/>
<path d="M317.282 127.09C317.088 134.756 318.396 142.386 321.132 149.55L313.402 155.32L310.662 132.49L317.282 127.09Z" fill="#C8C762"/>
<path opacity="0.5" d="M313.393 155.32L321.122 149.55C320.882 148.96 320.663 148.37 320.453 147.78C320.543 147.68 320.643 147.58 320.723 147.48L320.353 147.53C319.671 145.565 319.107 143.562 318.663 141.53C311.093 147.53 305.663 149.53 305.663 149.53C305.663 149.53 297.902 184.67 297.902 188.78C297.902 192.68 273.333 194.3 260.812 193.12L261.003 199.26C271.893 204.8 303.932 203.71 303.932 203.71C303.932 203.71 304.182 190.23 306.212 183.71C308.242 177.19 313.393 155.32 313.393 155.32Z" fill="#B0B35E"/>
<path d="M89.3423 96.8101C89.8123 95.2101 88.6023 92.4601 89.5023 90.3501C90.4023 88.2401 90.8223 83.9001 91.2723 83.9101C91.7223 83.9201 92.5323 84.4201 92.6323 85.9101C92.7323 87.4001 92.1623 91.0601 92.4523 91.1301C92.7423 91.2001 95.3423 87.2101 96.4523 85.5601C97.5623 83.9101 99.7823 80.4701 100.602 80.5601C101.422 80.6501 101.412 81.1501 101.182 81.9401C100.952 82.7301 98.6723 86.5501 98.3823 87.1901C98.0923 87.8301 97.5323 88.6101 98.1923 88.4601C98.8523 88.3101 101.702 83.4601 102.972 82.1401C104.242 80.8201 105.402 84.1401 105.632 84.7501C105.862 85.3601 105.962 85.7501 106.092 86.3001C106.222 86.8501 106.022 87.3001 106.332 87.6001C106.852 88.1401 106.392 88.6001 106.272 88.9601C105.872 90.0501 101.602 94.1601 101.162 95.1301C100.722 96.1001 97.8523 99.8301 95.4223 100.91C92.9923 101.99 91.5323 104.77 90.9223 105.97C90.9223 105.97 86.7223 105.67 84.9223 102.97C84.8723 102.93 88.8723 98.4201 89.3423 96.8101Z" fill="#E7BC94"/>
<path d="M104.572 82.53C104.523 82.863 104.4 83.1807 104.212 83.46C103.032 85.46 100.152 89.32 100.362 89.58C100.572 89.84 105.702 83 105.702 83L104.572 82.53Z" fill="white"/>
<path d="M104.042 85.2101C104.642 84.6201 105.242 84.1101 105.602 84.7101C105.772 85.0101 106.132 84.3401 106.092 84.1001C106.052 83.8601 105.972 82.9801 105.702 83.0001C105.453 83.0387 105.209 83.1023 104.972 83.1901L104.042 85.2101Z" fill="white"/>
<path d="M10.1323 235.28C11.5423 250.28 14.2523 262.14 14.0123 265.9C13.7723 269.66 11.2323 279.2 14.0123 292.19C15.9523 301.11 19.3923 313.33 19.1523 320.38C18.9123 327.43 17.0723 331.65 17.0723 336.81C17.0723 341.97 17.5323 343.38 23.8823 343.38C30.5423 343.38 28.7623 335.65 28.0823 332.13C27.4023 328.61 25.9823 322.46 25.7523 319.42C25.2123 311.91 27.3623 294.69 27.6123 289.85C28.0823 280.85 26.9323 273.85 25.7523 267.05C25.2623 264.22 26.8123 257.48 27.6923 251.46C28.9123 243.02 29.6923 235.25 29.6923 235.25L10.1323 235.28Z" fill="#E7BC94"/>
<path d="M50.1824 233.15C55.3524 246.31 57.1824 260.2 57.6124 262.54C58.0424 264.88 61.8624 272.93 64.9224 281.38C67.9824 289.83 73.3524 316.15 75.2324 321.32C77.1124 326.49 79.4624 332.32 81.8124 334.48C84.1624 336.64 89.5624 337.53 90.0324 340.34C90.5024 343.15 75.4724 342.7 75.0324 341.52C74.5924 340.34 73.8524 334.52 70.8024 332.83C67.7524 331.14 64.4524 328.37 65.8724 325.55C67.2924 322.73 68.6824 321.79 67.0424 318.26C65.4024 314.73 59.5524 299.26 54.8524 293.94C50.1524 288.62 48.2524 273.11 45.4324 269.12C42.6124 265.13 33.3324 245.63 31.6924 240.23C30.0524 234.83 50.1824 233.15 50.1824 233.15Z" fill="#E7BC94"/>
<path d="M11.6723 191.48C9.3523 196.72 3.3123 205.79 4.2523 217.07C5.1923 228.35 9.8623 246.33 9.3923 249.62C8.9223 252.91 49.1423 251.14 55.5423 245.44C55.5423 245.44 50.4023 222.44 48.0523 216.31C45.7023 210.18 45.5823 208.26 45.4523 202.42C45.4407 198.534 44.7643 194.678 43.4523 191.02C42.7523 189.37 11.6723 191.48 11.6723 191.48Z" fill="#5E5046"/>
<path d="M65.7224 327.71C66.7334 332.373 67.3423 337.113 67.5424 341.88H69.5424C69.2455 338.405 69.3293 334.907 69.7924 331.45C70.6124 327.22 65.7224 327.71 65.7224 327.71Z" fill="#DB4B51"/>
<path d="M23.8823 343.4C17.5323 343.4 17.0723 341.99 17.0723 336.83C17.0834 335.273 17.2307 333.721 17.5123 332.19C17.4435 332.718 17.4795 333.254 17.6183 333.768C17.757 334.282 17.9958 334.764 18.3209 335.186C18.6459 335.607 19.051 335.961 19.5128 336.226C19.9746 336.491 20.4842 336.662 21.0123 336.73C21.3149 336.76 21.6197 336.76 21.9223 336.73C26.7823 336.65 28.5023 334.41 28.0823 332.14C28.7623 335.67 30.5423 343.41 23.8823 343.4Z" fill="#DB4B51"/>
<path d="M70.7723 332.81C67.7123 331.16 64.4223 328.35 65.8323 325.53C66.3523 324.53 66.8323 323.71 67.2323 322.96C67.2323 322.96 73.1323 326.88 74.8623 330.96C76.5923 335.04 79.8023 339.02 85.5323 336.63C87.6623 337.63 89.7523 338.63 90.0323 340.35C90.5123 343.17 75.4723 342.71 75.0323 341.53C74.5923 340.35 73.8223 334.47 70.7723 332.81Z" fill="#DB4B51"/>
<path d="M13.5023 197.62C14.4023 197.48 38.1423 199.06 46.9623 199.62C47.0623 201.062 47.0623 202.508 46.9623 203.95C43.8823 205.72 23.6823 208.16 12.9623 206.05C12.9623 206.05 8.52231 215.81 9.85231 226.13C10.9423 234.55 12.8523 246.86 12.8523 250.88C10.6323 250.58 9.32231 250.14 9.40231 249.58C9.87231 246.29 5.20231 228.3 4.26231 217.03C3.62231 209.36 6.20231 202.76 8.65231 197.64C10.7023 197.71 12.9423 197.71 13.5023 197.62Z" fill="#4A3E36"/>
<path d="M32.8323 116.48C32.7423 123.18 33.2723 124.22 35.4923 126.37C37.7123 128.52 40.1523 132.29 38.9423 134.45C37.7323 136.61 28.6123 134.45 28.6123 134.45L26.8323 120.31L32.8323 116.48Z" fill="#372115"/>
<path d="M9.63245 100.52C10.4571 99.3043 11.4697 98.2275 12.6324 97.3299C13.0524 96.9899 13.4024 96.7299 13.6324 96.5799V96.6399C14.7271 95.9167 15.9145 95.3448 17.1624 94.9399C25.2924 92.3799 30.0725 97.4999 32.8525 103.03C32.8525 103.03 19.8525 126.98 18.1925 124.27C17.9259 123.869 17.6101 123.502 17.2524 123.18C17.6424 124.77 17.9724 126.58 17.9724 126.58L13.1324 127.2C9.60245 122 7.22245 117.01 6.73245 113.55C6.32596 111.294 6.37305 108.98 6.87097 106.743C7.3689 104.506 8.30767 102.39 9.63245 100.52V100.52Z" fill="#372115"/>
<path d="M11.7924 125.54C11.4324 127.82 4.92236 130.75 7.79236 137.46C10.6624 144.17 20.5224 135.46 20.5224 135.46L20.3024 124.36L16.0324 122.46L11.7924 125.54Z" fill="#372115"/>
<path d="M28.9823 120.31C27.9823 123.91 28.5023 127.38 29.6823 129.31C30.8623 131.24 35.3323 132.72 33.9723 136.39C32.6123 140.06 19.8323 139.55 19.8323 139.55L28.9823 120.31Z" fill="#372115"/>
<path d="M50.3723 167.24L50.5323 173.39C52.9423 172.85 60.1323 172.1 61.8923 172.34C63.6523 172.58 68.1923 170.73 69.4423 170.29C70.6923 169.85 73.4423 167.13 73.8323 165.68C74.2223 164.23 74.9523 162.68 74.4223 161.19C73.8923 159.7 73.4823 159.97 72.9623 158.42C72.4423 156.87 71.3423 157.11 70.9623 157.98C70.7523 158.46 70.0323 161.54 69.7023 161.77C69.0851 162.318 68.4152 162.804 67.7023 163.22C67.4423 163.22 64.2823 163.43 63.4623 163.52C62.6423 163.61 63.9023 162.47 64.5623 162.01C65.4834 161.51 66.4513 161.101 67.4523 160.79C68.3523 160.46 68.9423 159.49 68.6123 159.13C68.2823 158.77 65.0623 159.57 64.3723 159.69C63.0099 160.315 61.6874 161.023 60.4123 161.81C59.2537 162.676 58.3207 163.808 57.6923 165.11C57.4323 165.7 56.9023 166.28 55.4223 166.49L50.3723 167.24Z" fill="#E7BC94"/>
<path d="M15.9422 120.29C20.9422 120.45 24.2722 125.99 29.2922 125.37C29.3518 126.175 29.4721 126.974 29.6522 127.76C30.7522 133.03 36.7622 133.68 40.6522 133.4V147.28H14.2822V132.28C19.0422 130.41 16.7322 122.63 15.9422 120.29Z" fill="#E7BC94"/>
<path d="M87.8722 98.3401C87.8722 98.3401 75.5022 111.81 73.1322 120.7C73.1322 120.7 59.1322 127.48 54.2822 128.04C49.4322 128.6 45.5822 128.78 42.2822 130.44C38.9822 132.1 36.2822 133.28 35.8722 133.15L31.5723 145.57L14.2822 132.29C13.2822 131.67 10.5322 131.69 9.28225 131.5C5.76225 133.66 4.21225 135.99 2.68225 140.18C1.82973 142.647 1.28233 145.21 1.05225 147.81C2.40567 148.46 3.68058 149.262 4.85225 150.2C6.70225 152.2 6.58225 161.48 9.36225 166.48C12.1422 171.48 14.5322 184.81 11.5522 188.18C7.55225 192.66 5.45225 199.64 5.45225 199.64C8.37225 203.36 22.4522 206.42 29.3322 206.36C36.1299 206.424 42.9049 205.566 49.4722 203.81C48.7119 199.469 47.4118 195.239 45.6022 191.22C44.0122 187.75 45.6022 170.48 47.2322 164.37C48.8622 158.26 47.0723 150.37 47.4323 148.55C47.7923 146.73 55.3522 145.28 63.4922 139.91C71.6322 134.54 79.7623 133.31 81.7923 129.24C83.8223 125.17 92.4822 106.72 93.2122 103.57C93.2122 103.53 89.9022 100.56 87.8722 98.3401Z" fill="#DB4B51"/>
<g opacity="0.3">
<path opacity="0.3" d="M29.6524 127.81C29.7539 128.238 29.9014 128.654 30.0924 129.05C27.7324 129.28 21.0924 129.62 17.1824 126.69C17.0802 124.524 16.6625 122.385 15.9424 120.34C20.9424 120.5 24.2724 126.04 29.2924 125.42C29.352 126.225 29.4723 127.024 29.6524 127.81V127.81Z" fill="#E7BC94"/>
</g>
<path d="M34.6323 110.95C34.6323 110.95 36.8823 105.95 34.1223 102.05C31.9823 99.05 27.6823 92.96 21.5923 94.13C14.2223 95.56 34.6323 110.95 34.6323 110.95Z" fill="#372115"/>
<path d="M15.9424 120.29C17.0524 121.78 18.0723 123.97 21.4823 125.29C24.8923 126.61 30.1923 128.12 31.5923 127.68C32.9923 127.24 34.1923 127.3 35.2023 123.09C36.2123 118.88 37.2623 116.74 36.2723 113.09C35.2823 109.44 34.3723 101.59 29.0123 100.27C25.0123 99.27 19.9124 101.95 18.0124 105.77C16.1124 109.59 16.3324 110.77 16.7824 115.7C16.7824 115.7 13.3724 113.24 12.3724 113.41C11.3724 113.58 10.7523 114.41 11.9323 116.26C13.1123 118.11 13.4724 117.59 13.8524 118.58C14.2324 119.57 14.6624 120.58 15.2824 120.76C16.0224 120.97 15.9424 120.29 15.9424 120.29Z" fill="#E7BC94"/>
<path d="M27.1923 99.98C27.1923 99.98 24.6423 112.24 17.0423 116.48L10.9023 107.96L16.6423 99.96L27.1923 99.98Z" fill="#372115"/>
<path d="M25.7124 100.81C25.7124 100.81 30.9724 105.55 34.9124 106.22C34.9124 106.22 33.0924 97.87 27.2324 95.55L25.7124 100.81Z" fill="#372115"/>
<path opacity="0.5" d="M63.5024 139.88C71.6424 134.52 79.7624 133.28 81.8024 129.21C83.8424 125.14 92.4724 106.68 93.2124 103.53C93.2124 103.53 92.5924 102.98 91.7424 102.18C87.2624 111.91 80.1624 127.06 78.3624 129.18C76.3624 131.51 43.5824 143.77 41.9724 144.37C41.9724 144.37 41.6924 155.25 35.7524 158.37C29.8124 161.49 21.7524 158.55 21.7524 158.55C21.7524 158.55 22.1524 169.68 23.9024 168.14C25.6524 166.6 39.1424 168.89 40.3324 168.31C41.0524 167.97 43.8424 168.41 46.3324 168.38C46.5924 166.82 46.8724 165.45 47.1524 164.38C48.8224 158.27 46.9824 150.38 47.3524 148.56C47.7224 146.74 55.3524 145.24 63.5024 139.88Z" fill="#C73D42"/>
<path d="M45.0022 182.27C45.1022 179.79 45.3022 177.1 45.5822 174.5L19.0422 179.93C25.4222 181.25 45.0022 182.27 45.0022 182.27Z" fill="#C73D42"/>
<path d="M45.1323 188.53C45.1323 188.53 21.9323 190.73 13.0723 184.95C13.0723 184.95 10.7423 187.87 10.5723 189.45C10.5723 189.45 25.0123 197.6 46.5723 192.86C46.5923 192.81 46.6123 189.45 45.1323 188.53Z" fill="#5E5046"/>
<path d="M7.67234 132.01C1.67234 134.57 -1.32766 139.95 0.562335 149.01C2.45234 158.07 12.1323 180.24 19.0423 179.92C25.9523 179.6 43.7623 179.12 57.3823 172.81C57.3823 172.81 58.3223 163.92 55.0023 164.9C52.8023 165.55 46.2423 165 39.7823 164.9C35.0494 164.959 30.3348 165.502 25.7123 166.52C25.7123 166.52 22.0223 157.52 19.0423 148.1C16.1323 138.9 13.9723 129.33 7.67234 132.01Z" fill="#DB4B51"/>
<path d="M22.4823 72.67C23.5881 72.7111 24.6852 72.4592 25.6623 71.94C26.1563 71.6479 26.5817 71.2529 26.9095 70.7818C27.2374 70.3108 27.46 69.7747 27.5623 69.21L26.5023 68.99C26.4335 69.4056 26.273 69.8006 26.0326 70.1466C25.7922 70.4925 25.4778 70.7806 25.1123 70.99C22.9523 72.25 19.2423 71.09 19.2023 71.08L18.8823 72.08C20.0496 72.4409 21.2609 72.6395 22.4823 72.67V72.67Z" fill="#5874CB"/>
<path d="M105.602 84.71C106.362 86.04 102.232 90.44 102.282 90.62C102.332 90.8 105.082 87.84 105.362 87.62C105.51 87.5531 105.67 87.5186 105.832 87.5186C105.995 87.5186 106.155 87.5531 106.302 87.62C106.461 87.7095 106.585 87.8506 106.652 88.02L106.812 86.41L105.602 84.71Z" fill="white"/>
<path opacity="0.5" d="M57.4923 169.5C57.4923 169.5 23.7623 176.39 21.5823 174.71C19.4023 173.03 0.102298 144.94 4.5823 133.87C0.742298 136.87 -0.957702 141.71 0.582298 149.01C2.5223 158.07 12.1423 180.24 19.0623 179.92C25.9823 179.6 43.7823 179.12 57.4023 172.8C57.4972 171.703 57.5272 170.601 57.4923 169.5Z" fill="#C73D42"/>
<path d="M144.362 13.42C138.862 10.63 134.102 7.69996 134.102 5.49996C134.102 3.29996 137.222 3.80996 144.362 3.80996V13.42Z" fill="#F6C951"/>
<path d="M179.712 13.42C185.212 10.63 189.982 7.69996 189.982 5.49996C189.982 3.29996 186.852 3.80996 179.712 3.80996V13.42Z" fill="#F6C951"/>
<path d="M189.982 5.5C187.522 7.55 180.852 8.6 180.852 8.6L179.712 13.42C185.212 10.63 189.982 7.7 189.982 5.5Z" fill="#F1A63A"/>
<path d="M134.132 5.5C136.582 7.55 143.252 8.6 143.252 8.6L144.402 13.42C138.862 10.63 134.132 7.7 134.132 5.5Z" fill="#F1A63A"/>
<path d="M165.332 37.65C165.332 32.88 171.432 25.2 177.772 18.14C184.112 11.08 182.332 0 182.332 0H141.742C141.742 0 139.972 11.08 146.302 18.14C152.632 25.2 158.752 32.88 158.752 37.65C158.752 42.42 141.542 45.81 141.542 53.08H182.542C182.532 45.81 165.332 42.43 165.332 37.65Z" fill="#F6C951"/>
<path d="M169.052 41.73C176.712 48.56 176.812 50.93 176.812 50.93H142.072C141.727 51.5943 141.546 52.3314 141.542 53.08H182.542C182.532 48 174.132 44.81 169.052 41.73Z" fill="#F1A63A"/>
<path d="M205.212 92.74C204.282 88.74 196.362 75.97 193.372 67.46C190.932 68.31 191.572 68.94 189.032 69.46C189.458 71.7992 189.726 74.1646 189.832 76.54C190.022 83.08 193.482 94.62 193.482 94.62C193.482 94.62 181.332 112.62 179.292 113.62C177.252 114.62 174.712 113.62 171.442 114.77L173.492 150.96L187.762 139.04C187.762 139.04 192.762 132.43 198.482 119.16C204.202 105.89 206.552 98.51 205.212 92.74Z" fill="#5E5046"/>
<path d="M145.352 114.08C143.352 113.08 130.432 94.67 130.432 94.67C130.432 94.67 133.892 83.13 134.082 76.59C134.205 73.9715 134.512 71.365 135.002 68.79C132.592 68 133.302 67.29 130.902 66.45C127.902 74.92 119.672 88.5999 118.702 92.7399C117.362 98.5099 120.452 103.11 126.212 116.38C131.972 129.65 138.642 146.11 138.642 146.11L150.422 150.99L153.202 115.23C149.932 114.08 147.392 115.04 145.352 114.08Z" fill="#5E5046"/>
<path d="M170.903 319.56C174.903 327.14 179.363 332.49 176.763 335.88C174.163 339.27 161.763 335.5 162.483 327.72C162.483 327.72 162.313 330.18 161.583 329.65C160.074 328.078 158.671 326.408 157.383 324.65C156.233 323.19 158.333 317.22 158.333 317.22L170.903 319.56Z" fill="#4A3E36"/>
<path d="M188.512 201.24C188.232 204.3 185.302 238.99 184.062 254.24C182.822 269.49 173.062 322.92 173.062 322.92C173.062 322.92 166.462 327.27 156.142 319.33C156.142 319.33 166.402 249.23 164.052 228.45V199.66L188.512 201.24Z" fill="#5874CB"/>
<path d="M164.042 199.66L177.292 204C175.852 220.46 170.402 300.33 166.682 324C162.818 323.419 159.177 321.821 156.132 319.37C156.132 319.37 166.392 245.68 164.042 224.89V199.66Z" fill="#758FE3"/>
<path d="M156.132 331.43C155.612 335.05 159.882 342.29 158.622 343.81C157.362 345.33 156.842 346.81 150.272 346.59C143.702 346.37 140.172 345.33 140.432 343.59C140.692 341.85 141.692 331.46 141.692 331.46L156.132 331.43Z" fill="#4A3E36"/>
<path d="M164.042 224.89C164.042 224.89 158.282 245.44 158.852 261.89C159.422 278.34 156.442 333.39 156.442 333.39C156.442 333.39 150.442 338.89 136.512 333.39C136.512 333.39 137.322 268.05 137.592 257.66C137.862 247.27 137.592 202.66 137.592 202.66L164.042 199.6V224.89Z" fill="#5874CB"/>
<path d="M136.512 333.44C136.512 333.44 137.322 268.09 137.592 257.7C137.862 247.31 137.592 202.7 137.592 202.7L150.312 201.23C150.672 221.56 149.122 321.59 149.572 335.84C145.101 335.933 140.658 335.117 136.512 333.44V333.44Z" fill="#758FE3"/>
<path d="M150.802 114.23C150.802 114.23 134.222 119.01 134.062 120.38C133.902 121.75 136.792 144.81 137.302 151.99C137.812 159.17 136.572 185.99 136.052 191.3C135.532 196.61 137.592 202.71 137.592 202.71C137.592 202.71 142.802 204.87 163.252 205.21L169.072 117.88L150.802 114.23Z" fill="#5E5046"/>
<path d="M174.672 114.38C174.672 114.38 191.252 119.16 191.422 120.53C191.592 121.9 188.292 139.22 188.172 152.13C188.112 159.33 189.882 185.82 190.392 191.13C190.617 194.61 189.971 198.092 188.512 201.26C188.512 201.26 183.692 204.89 163.252 205.26L162.992 116.76L174.672 114.38Z" fill="#5E5046"/>
<path d="M172.452 115.03L152.802 114.66L162.472 141.11L172.452 115.03Z" fill="#F6F2E1"/>
<path d="M177.212 87.09C177.382 80.26 171.732 74.19 162.442 74.6C152.672 75.02 149.262 82.17 149.272 87.5C149.277 90.8384 149.957 94.1415 151.272 97.21C151.692 98.27 154.942 101.16 155.982 104.43C157.022 107.7 177.212 87.09 177.212 87.09Z" fill="#372115"/>
<path d="M153.353 114.81L162.473 116.53L172.473 114.99C172.133 113.8 167.473 112.99 168.563 109.25L154.993 99.25C155.863 102.9 157.393 108.92 154.063 112.99C153.893 113.19 153.503 114.68 153.353 114.81Z" fill="#E7BC94"/>
<g opacity="0.3">
<path opacity="0.3" d="M156.052 106.81C156.03 104.305 155.694 101.812 155.052 99.3899H155.122L167.462 109.39C167.76 109.757 168.095 110.092 168.462 110.39C168.517 110.926 168.741 111.43 169.102 111.83C165.173 111.617 161.351 110.472 157.952 108.49C157.062 107.99 156.702 107.25 156.052 106.81Z" fill="#E7BC94"/>
</g>
<path d="M154.632 99.4699C155.392 101.29 155.842 103.81 159.042 106.11C162.242 108.41 167.342 111.38 168.932 111.31C170.522 111.24 171.752 111.64 173.932 107.59C176.112 103.54 177.812 101.65 177.782 97.5899C177.752 93.5299 178.962 85.2899 173.782 82.4699C169.912 80.3499 163.832 81.6899 160.782 85.0899C157.732 88.4899 157.682 89.7099 156.782 94.9299C156.782 94.9299 153.912 91.4799 152.782 91.3799C151.652 91.2799 150.782 91.9899 151.522 94.1699C152.262 96.3499 152.772 95.9599 152.902 97.0899C153.032 98.2199 153.212 99.3199 153.802 99.7099C154.532 100.19 154.632 99.4699 154.632 99.4699Z" fill="#E7BC94"/>
<path d="M172.182 81.7C172.182 81.7 159.132 79.81 156.902 96.03L152.782 85.49L162.782 76.49L172.182 81.7Z" fill="#372115"/>
<path d="M152.132 91.5801C153.632 91.0801 156.902 96.0301 156.902 96.0301C157.862 92.627 159.173 89.3327 160.812 86.2001C151.352 79.3301 149.482 85.4201 149.452 85.4701C149.334 86.1302 149.274 86.7994 149.272 87.4701C149.277 90.8118 149.957 94.1181 151.272 97.1901C151.682 98.1901 154.712 100.97 155.862 104.12C155.769 102.505 155.497 100.905 155.052 99.3501C155.052 99.3501 154.592 99.7601 154.192 99.6101C153.629 99.2063 153.222 98.6197 153.042 97.9501C152.932 97.5801 153.042 97.3601 152.912 97.0101C152.737 96.6666 152.543 96.3328 152.332 96.0101C151.662 94.6801 150.622 92.0601 152.132 91.5801Z" fill="#372115"/>
<path d="M173.492 81.8098C172.032 83.551 170.258 85.0028 168.262 86.0898C165.262 87.5198 160.322 86.3098 159.642 89.5598C158.962 92.8098 158.172 96.1299 158.172 96.1299L156.902 95.9898L156.522 84.8298L163.042 78.3398L173.492 81.8098Z" fill="#372115"/>
<path d="M172.353 82.51C173.764 84.2435 175.398 85.7835 177.213 87.09L175.893 81.4L172.353 78.47V82.51Z" fill="#372115"/>
<path d="M162.472 116.38C162.472 116.38 167.342 114.97 169.912 112.18L174.142 114.18C174.142 114.18 169.702 122.26 165.432 124.65L162.472 116.38Z" fill="#F6F2E1"/>
<path d="M162.472 116.38C162.472 116.38 157.402 114.52 154.842 111.73L149.272 114.81C149.272 114.81 155.272 122.31 159.512 124.7L162.472 116.38Z" fill="#F6F2E1"/>
<path d="M162.472 116.38C162.472 116.38 167.342 114.97 169.912 112.18L174.142 114.18C174.142 114.18 169.702 122.26 165.432 124.65L162.472 116.38Z" fill="#F5EAE0"/>
<path d="M162.472 116.38C162.472 116.38 157.402 114.52 154.842 111.73L149.272 114.81C149.272 114.81 155.272 122.31 159.512 124.7L162.472 116.38Z" fill="#F5EAE0"/>
<path d="M137.132 75.32C134.484 74.3297 131.893 73.1913 129.372 71.91C131.372 68.11 135.372 59.41 135.372 58.01C135.372 56.01 134.172 52.45 135.822 50.01C137.202 48.01 139.072 46.43 143.052 45.59C144.672 45.25 154.112 43.31 146.532 47.86C144.372 49.16 142.382 50.2 142.112 51.51C141.842 52.82 143.552 54.11 143.992 56.2C144.532 58.81 142.332 61.28 140.992 64.28C140.252 65.81 138.822 70.25 137.132 75.32Z" fill="#E7BC94"/>
<path d="M187.132 75.32C189.781 74.3297 192.372 73.1913 194.892 71.91C192.892 68.11 188.892 59.41 188.892 58.01C188.892 56.01 190.082 52.45 188.442 50.01C187.062 48.01 185.182 46.43 181.212 45.59C179.592 45.25 170.152 43.31 177.722 47.86C179.892 49.16 181.882 50.2 182.142 51.51C182.402 52.82 180.712 54.11 180.272 56.2C179.732 58.81 181.932 61.28 183.272 64.28C183.972 65.81 185.402 70.25 187.132 75.32Z" fill="#E7BC94"/>
<path d="M132.432 131C123.022 111.44 117.502 100.24 117.172 97.3201C116.842 94.4001 131.742 60.5901 131.742 60.5901C131.742 60.5901 138.052 62.2501 141.962 64.6901L131.482 96.1701L135.802 107.71L132.432 131Z" fill="#5E5046"/>
<path d="M192.562 96.0299C192.562 96.0299 183.302 70.5699 182.372 64.6699C182.372 64.6699 188.492 62.1599 193.272 62.2499C193.272 62.2499 206.172 91.9999 206.942 96.0299C207.712 100.06 199.942 115.85 199.942 115.85L192.562 96.0299Z" fill="#5E5046"/>
<path d="M145.042 3.18994C145.042 3.18994 143.452 12.9799 155.042 22.7099C155.042 22.7099 148.802 12.8699 149.442 3.18994H145.042Z" fill="#F8D777"/>
<path d="M148.032 48.8099C148.132 48.6099 155.602 43.6999 158.352 41.3799L152.282 48.8099H148.032Z" fill="#F8D777"/>
<path d="M165.832 36.1399H158.232C158.105 36.1399 158.002 36.2429 158.002 36.3699V38.3399C158.002 38.4669 158.105 38.5699 158.232 38.5699H165.832C165.959 38.5699 166.062 38.4669 166.062 38.3399V36.3699C166.062 36.2429 165.959 36.1399 165.832 36.1399Z" fill="#F1A63A"/>
<path d="M206.942 96.0301C206.162 92.0301 193.262 62.2501 193.262 62.2501C192.49 62.245 191.718 62.2951 190.952 62.4001C197.002 76.0201 206.412 92.7901 203.302 98.8401C200.062 105.15 188.432 134.54 182.362 135.53C182.362 135.53 185.472 141.41 184.802 151.53C184.132 161.65 188.902 177.96 184.802 182.08C180.702 186.2 169.072 186.19 169.072 186.19C169.072 186.19 172.002 188.19 184.802 186.19C184.802 186.19 186.202 186.27 184.802 189.66C183.402 193.05 153.192 196.23 143.442 192.8C143.442 192.8 154.352 196.73 172.182 196.73C160.243 199.304 147.848 198.843 136.132 195.39C136.38 197.875 136.883 200.328 137.632 202.71C137.632 202.71 142.842 204.87 163.292 205.21C183.732 204.87 188.552 201.21 188.552 201.21C190.013 198.039 190.663 194.555 190.442 191.07C189.922 185.78 188.152 159.29 188.222 152.07C188.32 146.968 188.681 141.875 189.302 136.81C192.831 131.2 195.901 125.314 198.482 119.21C199.002 118.03 199.482 116.95 199.912 115.86C199.912 115.86 207.722 100.06 206.942 96.0301Z" fill="#4A3E36"/>
<path d="M228.602 187.08C228.015 186.622 227.544 186.032 227.228 185.358C226.911 184.684 226.759 183.944 226.782 183.2H226.602C224.602 182.79 223.422 180.2 223.362 177.97C223.362 177.8 223.362 177.63 223.362 177.46C222.937 177.143 222.58 176.744 222.31 176.288C222.041 175.831 221.865 175.325 221.792 174.8C221.322 171.8 223.462 167.91 226.572 166.16L226.932 166.79C224.122 168.38 222.092 171.99 222.522 174.68C222.61 175.405 222.941 176.078 223.462 176.59C223.591 175.732 223.968 174.931 224.548 174.286C225.127 173.64 225.883 173.179 226.722 172.96C227.268 172.732 227.872 172.68 228.449 172.811C229.026 172.942 229.548 173.249 229.942 173.69C230.229 174.141 230.375 174.667 230.362 175.201C230.35 175.735 230.179 176.253 229.872 176.69C229.363 177.393 228.647 177.92 227.825 178.198C227.002 178.475 226.114 178.49 225.282 178.24C224.883 178.143 224.497 177.999 224.132 177.81V177.88C224.192 180.08 225.392 182.12 226.802 182.42H226.902C227.017 181.848 227.238 181.302 227.552 180.81C228.432 179.42 229.812 178.81 230.992 179.4C232.172 179.99 232.062 180.8 231.992 181.13C231.602 182.27 229.622 183.32 227.572 183.23C227.563 183.855 227.699 184.474 227.972 185.037C228.245 185.599 228.646 186.09 229.142 186.47L228.602 187.08ZM227.602 182.55C229.362 182.61 230.972 181.73 231.242 180.95C231.242 180.83 231.402 180.46 230.662 180.11C230.175 179.962 229.652 179.997 229.188 180.206C228.725 180.416 228.353 180.787 228.142 181.25C227.885 181.647 227.702 182.087 227.602 182.55V182.55ZM224.142 177.05C224.553 177.271 224.995 177.43 225.452 177.52C226.139 177.735 226.875 177.731 227.56 177.509C228.244 177.287 228.843 176.857 229.272 176.28C229.502 175.963 229.635 175.586 229.652 175.195C229.67 174.804 229.573 174.416 229.372 174.08C228.932 173.48 228.062 173.33 226.932 173.63C226.169 173.839 225.49 174.28 224.99 174.893C224.49 175.506 224.193 176.26 224.142 177.05V177.05Z" fill="#5874CB"/>
<path d="M85.4223 58.41C84.9131 57.6876 84.2507 57.0866 83.4823 56.65C83.1976 57.0416 82.8363 57.3712 82.4203 57.6187C82.0043 57.8663 81.5422 58.0266 81.0623 58.09C80.6903 58.1033 80.3245 57.9926 80.0222 57.7754C79.72 57.5582 79.4984 57.2468 79.3923 56.89C79.3316 56.7661 79.2971 56.631 79.2912 56.4932C79.2852 56.3553 79.3078 56.2178 79.3576 56.0891C79.4074 55.9604 79.4832 55.8434 79.5804 55.7455C79.6776 55.6475 79.794 55.5708 79.9223 55.52C80.4608 55.3184 81.0359 55.2329 81.6097 55.2691C82.1836 55.3052 82.7434 55.4623 83.2523 55.73C83.4737 55.3774 83.6485 54.9976 83.7723 54.6C84.0482 53.7236 84.0217 52.78 83.6971 51.9204C83.3725 51.0609 82.7686 50.3353 81.9823 49.86C81.5987 49.5141 81.1387 49.264 80.6398 49.1302C80.141 48.9964 79.6175 48.9826 79.1123 49.09C79.1123 49.22 79.1823 49.35 79.2123 49.46C79.7323 51.7 78.7023 54.29 77.0523 54.9C76.794 55.0392 76.4925 55.0754 76.2086 55.0012C75.9247 54.9269 75.6794 54.7479 75.5223 54.5C74.8423 53.37 75.7323 50.71 77.2623 49.33C77.532 49.077 77.8347 48.8617 78.1623 48.69C77.3223 47.03 75.3923 46.25 72.6923 46.54L72.6123 45.81C76.6123 45.4 78.1723 47.06 78.8423 48.41C79.4643 48.2562 80.1141 48.254 80.7371 48.4036C81.3601 48.5533 81.9381 48.8504 82.4223 49.27C83.3145 49.8512 83.9925 50.7077 84.3535 51.7095C84.7145 52.7112 84.7386 53.8033 84.4223 54.82C84.2826 55.2498 84.0947 55.6624 83.8623 56.05C84.6934 56.5386 85.4096 57.2002 85.9623 57.99L85.4223 58.41ZM81.1323 55.98C80.8255 55.968 80.5203 56.0297 80.2423 56.16C79.9623 56.31 79.9823 56.47 80.0423 56.63C80.0978 56.8366 80.2181 57.02 80.3854 57.1532C80.5528 57.2864 80.7585 57.3624 80.9723 57.37C81.6641 57.2707 82.2928 56.9135 82.7323 56.37C82.2266 56.1452 81.6847 56.0131 81.1323 55.98V55.98ZM78.4023 49.37C78.1497 49.503 77.9173 49.6714 77.7123 49.87C76.2823 51.17 75.7123 53.44 76.1123 54.12C76.1123 54.2 76.2923 54.39 76.7623 54.22C78.0723 53.73 78.9023 51.5 78.4723 49.62C78.4823 49.53 78.4523 49.45 78.4323 49.37H78.4023Z" fill="#DB4B51"/>
<path d="M219.862 142.25C219.265 142.004 218.768 141.564 218.452 141C217.825 141.366 217.095 141.518 216.374 141.433C215.652 141.348 214.978 141.031 214.452 140.53C213.693 139.95 213.162 139.122 212.952 138.19C210.712 138.41 208.232 137.91 206.952 136.19L207.532 135.75C208.612 137.21 210.822 137.66 212.852 137.45C212.844 136.991 212.901 136.533 213.022 136.09C213.154 135.441 213.46 134.84 213.907 134.352C214.355 133.864 214.927 133.507 215.562 133.32C215.915 133.288 216.268 133.367 216.573 133.546C216.878 133.726 217.119 133.996 217.262 134.32C217.822 135.32 217.452 136.32 216.262 137.12C215.467 137.622 214.58 137.962 213.652 138.12C213.83 138.869 214.261 139.533 214.872 140C215.292 140.417 215.841 140.68 216.43 140.745C217.018 140.811 217.611 140.675 218.112 140.36C217.981 139.905 217.954 139.427 218.032 138.96C218.056 138.57 218.216 138.201 218.485 137.917C218.754 137.634 219.114 137.454 219.502 137.41C219.663 137.402 219.822 137.445 219.957 137.533C220.092 137.621 220.195 137.749 220.252 137.9C220.502 138.6 219.912 139.81 219.002 140.61C219.233 141.064 219.62 141.419 220.092 141.61L219.862 142.25ZM219.612 138.08C219.122 138.08 218.882 138.59 218.802 139.08C218.762 139.332 218.762 139.588 218.802 139.84C219.056 139.63 219.26 139.367 219.402 139.07C219.543 138.773 219.619 138.449 219.622 138.12L219.612 138.08ZM215.802 134.08H215.692C215.206 134.256 214.774 134.555 214.438 134.948C214.102 135.34 213.872 135.813 213.772 136.32C213.672 136.664 213.622 137.021 213.622 137.38C214.433 137.241 215.21 136.949 215.912 136.52C216.512 136.13 217.132 135.52 216.662 134.69C216.59 134.518 216.471 134.37 216.319 134.262C216.167 134.155 215.988 134.092 215.802 134.08V134.08Z" fill="#F6C951"/>
<path d="M331.872 92.1399C331.779 92.1502 331.685 92.1502 331.592 92.1399L331.732 91.4199C332.462 91.5599 333.672 90.4199 334.392 89.2899C334.259 89.0771 334.145 88.8529 334.052 88.6199C333.792 87.9799 333.662 87.1199 334.102 86.7199C334.236 86.5962 334.407 86.521 334.588 86.5065C334.77 86.492 334.951 86.539 335.102 86.6399C335.382 86.7699 336.012 87.2199 335.582 88.5299C335.503 88.7716 335.403 89.0058 335.282 89.2299C335.437 89.4293 335.634 89.5924 335.858 89.7081C336.083 89.8238 336.33 89.8893 336.582 89.8999C337.252 89.8999 337.692 89.6799 337.832 89.2799C337.871 89.1864 337.887 89.0848 337.878 88.9838C337.87 88.8828 337.837 88.7854 337.782 88.6999C337.801 88.7096 337.821 88.7146 337.842 88.7146C337.863 88.7146 337.884 88.7096 337.902 88.6999L337.622 88.0299C337.737 87.9811 337.864 87.9693 337.986 87.9962C338.108 88.0231 338.219 88.0873 338.302 88.1799C338.463 88.3755 338.566 88.612 338.599 88.8629C338.633 89.1137 338.596 89.369 338.492 89.5999C338.319 89.9435 338.043 90.2245 337.702 90.4038C337.362 90.583 336.974 90.6516 336.592 90.5999V90.5999C336.276 90.5942 335.963 90.5258 335.673 90.3988C335.383 90.2718 335.121 90.0887 334.902 89.8599C334.132 91.0399 332.912 92.1399 331.872 92.1399ZM334.602 87.2199C334.505 87.5898 334.551 87.983 334.732 88.3199C334.732 88.3699 334.782 88.4199 334.802 88.4799C334.83 88.4149 334.853 88.3481 334.872 88.2799C334.982 87.9599 335.102 87.4099 334.782 87.2799C334.731 87.2485 334.672 87.2313 334.612 87.2299L334.602 87.2199Z" fill="#F6C951"/>
<path d="M69.1323 106.03L68.8523 105.03C68.8523 105.03 74.4323 103.38 75.5023 99.9301C76.0123 98.3101 75.5023 96.4901 73.8523 94.5301L74.6623 93.8701C76.5023 96.1201 77.1223 98.2601 76.5023 100.24C75.2323 104.23 69.3623 105.96 69.1323 106.03Z" fill="#919A5F"/>
<path d="M111.232 163.64C110.405 163.695 109.578 163.541 108.826 163.191C108.075 162.841 107.423 162.308 106.932 161.64C105.622 161.9 103.562 161.51 101.182 158.29L102.022 157.67C103.532 159.67 105.082 160.73 106.432 160.67C106.195 160.037 106.1 159.361 106.151 158.687C106.203 158.013 106.401 157.359 106.732 156.77C106.954 156.386 107.274 156.067 107.658 155.846C108.043 155.624 108.479 155.509 108.922 155.51C109.286 155.522 109.633 155.666 109.9 155.914C110.166 156.162 110.334 156.498 110.372 156.86C110.435 157.752 110.242 158.642 109.817 159.429C109.392 160.215 108.752 160.864 107.972 161.3C108.401 161.792 108.946 162.169 109.557 162.398C110.168 162.626 110.826 162.699 111.472 162.61V163.66L111.232 163.64ZM108.792 156.54C108.548 156.554 108.312 156.632 108.107 156.765C107.902 156.898 107.735 157.083 107.622 157.3C107.369 157.769 107.222 158.288 107.191 158.82C107.16 159.352 107.246 159.885 107.442 160.38C108.032 160.045 108.519 159.556 108.854 158.967C109.188 158.377 109.357 157.708 109.342 157.03C109.262 156.62 109.052 156.55 108.862 156.55L108.792 156.54Z" fill="#AECCF2"/>
<path d="M248.342 221.3C247.433 221.836 246.398 222.122 245.342 222.13C244.783 222.111 244.234 221.969 243.735 221.715C243.235 221.461 242.798 221.101 242.452 220.66L243.252 219.99C243.503 220.318 243.823 220.586 244.19 220.776C244.556 220.967 244.96 221.074 245.372 221.09C247.792 221.18 250.442 218.48 250.472 218.45L251.222 219.18C250.364 220.015 249.395 220.729 248.342 221.3V221.3Z" fill="#DB4B51"/>
<path d="M301.292 45.1701C301.806 44.7748 302.22 44.2654 302.503 43.6823C302.786 43.0991 302.93 42.4582 302.922 41.8101C300.802 41.9101 298.762 40.8101 298.372 39.6501C298.252 39.3001 298.122 38.4401 299.372 37.8701C300.622 37.3001 302.002 37.8701 302.912 39.3201C303.232 39.8283 303.456 40.391 303.572 40.9801H303.682C305.132 40.6701 306.362 38.5701 306.422 36.3001V36.2301C306.033 36.4126 305.624 36.5469 305.202 36.6301C304.345 36.8904 303.429 36.8761 302.58 36.5892C301.732 36.3023 300.995 35.7571 300.472 35.0301C300.15 34.5768 299.971 34.0371 299.958 33.4809C299.946 32.9246 300.1 32.3775 300.402 31.9101C301.042 31.0401 302.252 30.7701 303.722 31.1701C304.584 31.3966 305.361 31.8705 305.956 32.5334C306.551 33.1963 306.939 34.0191 307.072 34.9001C307.622 34.3657 307.975 33.6607 308.072 32.9001C308.512 30.1401 306.422 26.4101 303.522 24.7701L303.892 24.1201C307.092 25.9301 309.302 29.9201 308.812 33.0201C308.74 33.5759 308.553 34.1108 308.264 34.591C307.975 35.0711 307.59 35.4862 307.132 35.8101C307.132 35.9801 307.132 36.1601 307.132 36.3401C307.072 38.6501 305.802 41.3401 303.792 41.7301H303.612C303.635 42.4967 303.478 43.258 303.153 43.9527C302.829 44.6474 302.345 45.2562 301.742 45.7301L301.292 45.1701ZM302.292 39.7401C302.077 39.2634 301.695 38.8815 301.218 38.6662C300.741 38.4508 300.202 38.4166 299.702 38.5701C298.932 38.9201 299.062 39.3001 299.102 39.4301C299.372 40.2301 301.032 41.1401 302.842 41.0801C302.742 40.6037 302.556 40.1496 302.292 39.7401V39.7401ZM303.532 31.8901C302.372 31.5701 301.482 31.7401 301.022 32.3601C300.809 32.7029 300.704 33.1022 300.722 33.5056C300.74 33.909 300.879 34.2975 301.122 34.6201C301.566 35.2144 302.183 35.6566 302.889 35.8858C303.595 36.115 304.354 36.12 305.062 35.9001C305.53 35.803 305.982 35.638 306.402 35.4101C306.351 34.5972 306.047 33.8205 305.532 33.1892C305.018 32.5579 304.318 32.1037 303.532 31.8901V31.8901Z" fill="#F2C05C"/>
<path d="M252.912 72.8099L253.812 72.2099C254.119 72.8094 254.573 73.3217 255.13 73.6993C255.688 74.0769 256.332 74.3076 257.002 74.3699C256.902 73.4548 257.065 72.5299 257.472 71.7043C257.88 70.8786 258.515 70.1867 259.302 69.7099C259.629 69.5244 260.012 69.4637 260.379 69.5391C260.747 69.6146 261.075 69.8209 261.302 70.1199C261.566 70.4925 261.728 70.9274 261.772 71.3817C261.815 71.836 261.74 72.2939 261.552 72.7099C261.253 73.3373 260.82 73.892 260.285 74.3357C259.75 74.7795 259.124 75.1016 258.452 75.2799C259.192 76.4599 260.962 77.1499 263.582 77.1999V78.2799C259.462 78.1999 257.902 76.7099 257.342 75.4499C256.491 75.4343 255.656 75.2056 254.916 74.7846C254.175 74.3636 253.552 73.7638 253.102 73.0399L252.912 72.8099ZM260.452 70.8099C260.322 70.6599 260.152 70.5199 259.752 70.6999C259.173 71.0898 258.711 71.6298 258.415 72.2621C258.119 72.8945 258.001 73.5955 258.072 74.2899C258.605 74.1571 259.102 73.9093 259.529 73.5637C259.956 73.2182 260.302 72.7834 260.542 72.2899C260.661 72.0661 260.718 71.8148 260.707 71.5618C260.696 71.3088 260.619 71.0632 260.482 70.8499L260.452 70.8099Z" fill="#AECCF2"/>
</svg>
