<svg width="203" height="200" viewBox="0 0 203 200" fill="none" xmlns="http://www.w3.org/2000/svg">
<path d="M24.0801 21.22C24.2904 23.8184 25.018 26.3486 26.2201 28.6618C27.4222 30.975 29.0746 33.0245 31.0801 34.69C31.7456 35.272 32.2449 36.0201 32.527 36.858C32.8091 37.6959 32.8641 38.5936 32.6862 39.4596C32.5083 40.3256 32.104 41.129 31.5144 41.7878C30.9249 42.4467 30.1711 42.9374 29.3301 43.21L0.370117 52.6C29.4901 142.24 112.65 199.21 202.07 199.19V168.79C202.072 167.904 201.839 167.034 201.394 166.269C200.95 165.503 200.31 164.869 199.54 164.431C198.77 163.994 197.897 163.769 197.012 163.779C196.127 163.79 195.26 164.035 194.5 164.49C191.539 166.346 188.135 167.376 184.641 167.472C181.148 167.569 177.692 166.73 174.632 165.041C171.572 163.352 169.02 160.876 167.24 157.868C165.46 154.861 164.516 151.432 164.508 147.937C164.5 144.442 165.426 141.009 167.192 137.993C168.958 134.977 171.498 132.488 174.55 130.784C177.601 129.081 181.053 128.225 184.547 128.305C188.041 128.385 191.45 129.398 194.42 131.24C195.178 131.713 196.048 131.975 196.941 131.998C197.834 132.021 198.717 131.805 199.498 131.371C200.279 130.937 200.93 130.302 201.382 129.531C201.834 128.761 202.072 127.883 202.07 126.99V98.43C178.553 98.3989 155.648 90.9358 136.627 77.1068C117.606 63.2779 103.442 43.7908 96.1601 21.43L69.0001 30.3C68.1477 30.5796 67.2357 30.6248 66.3598 30.4307C65.4839 30.2366 64.6764 29.8104 64.0219 29.1968C63.3674 28.5832 62.89 27.8048 62.6399 26.9433C62.3897 26.0817 62.376 25.1687 62.6001 24.3C63.2679 21.5491 63.3312 18.6861 62.7857 15.9083C62.2402 13.1305 61.0989 10.5041 59.4404 8.20995C57.7819 5.91584 55.6457 4.00863 53.179 2.61977C50.7123 1.23091 47.9738 0.393436 45.1522 0.165074C42.3306 -0.0632887 39.493 0.322886 36.8351 1.29699C34.1771 2.27109 31.762 3.80995 29.7562 5.8075C27.7504 7.80505 26.2015 10.2138 25.2164 12.8677C24.2313 15.5216 23.8334 18.3575 24.0501 21.18L24.0801 21.22Z" fill="url(#paint0_linear)"/>
<path d="M87.2917 117.98H83.8328L82.4578 114.403H76.1628L74.863 117.98H71.49L77.6238 102.232H80.9861L87.2917 117.98ZM81.4373 111.75L79.2673 105.906L77.1404 111.75H81.4373ZM99.4304 117.98H96.6267V116.304C96.1612 116.956 95.6098 117.443 94.9724 117.765C94.3422 118.08 93.7048 118.238 93.0603 118.238C91.7498 118.238 90.6254 117.711 89.6873 116.659C88.7563 115.599 88.2908 114.124 88.2908 112.233C88.2908 110.299 88.7455 108.831 89.655 107.829C90.5645 106.819 91.7139 106.314 93.1033 106.314C94.378 106.314 95.4809 106.844 96.4119 107.904V102.232H99.4304V117.98ZM91.3738 112.029C91.3738 113.246 91.5421 114.127 91.8787 114.671C92.3656 115.459 93.046 115.853 93.9197 115.853C94.6143 115.853 95.2052 115.559 95.6921 114.972C96.1791 114.378 96.4226 113.493 96.4226 112.319C96.4226 111.008 96.1863 110.067 95.7136 109.494C95.241 108.914 94.6358 108.624 93.8982 108.624C93.182 108.624 92.5805 108.91 92.0935 109.483C91.6137 110.049 91.3738 110.897 91.3738 112.029ZM102.352 105.025V102.232H105.371V105.025H102.352ZM105.371 106.572V117.626C105.371 119.079 105.274 120.103 105.081 120.698C104.895 121.299 104.529 121.768 103.985 122.105C103.448 122.442 102.76 122.61 101.923 122.61C101.622 122.61 101.296 122.581 100.945 122.524C100.601 122.474 100.229 122.395 99.8279 122.288L100.354 119.71C100.497 119.738 100.634 119.76 100.762 119.774C100.884 119.795 100.999 119.806 101.106 119.806C101.414 119.806 101.665 119.738 101.858 119.602C102.059 119.473 102.191 119.316 102.256 119.129C102.32 118.943 102.352 118.385 102.352 117.454V106.572H105.371ZM116.049 117.98V116.272C115.633 116.881 115.085 117.361 114.405 117.711C113.732 118.062 113.019 118.238 112.267 118.238C111.501 118.238 110.814 118.07 110.205 117.733C109.596 117.396 109.156 116.924 108.884 116.315C108.611 115.706 108.475 114.865 108.475 113.791V106.572H111.494V111.814C111.494 113.418 111.548 114.403 111.655 114.768C111.77 115.126 111.974 115.413 112.267 115.627C112.561 115.835 112.933 115.939 113.385 115.939C113.9 115.939 114.362 115.799 114.77 115.52C115.178 115.234 115.458 114.883 115.608 114.467C115.759 114.045 115.834 113.017 115.834 111.384V106.572H118.852V117.98H116.049ZM120.926 114.725L123.955 114.263C124.084 114.85 124.345 115.298 124.739 115.606C125.133 115.907 125.684 116.057 126.393 116.057C127.174 116.057 127.761 115.914 128.155 115.627C128.42 115.427 128.552 115.158 128.552 114.822C128.552 114.593 128.481 114.403 128.338 114.252C128.187 114.109 127.851 113.977 127.328 113.855C124.893 113.318 123.35 112.827 122.698 112.383C121.796 111.767 121.344 110.912 121.344 109.816C121.344 108.828 121.735 107.997 122.515 107.324C123.296 106.651 124.506 106.314 126.146 106.314C127.707 106.314 128.868 106.568 129.627 107.077C130.386 107.585 130.909 108.337 131.195 109.333L128.348 109.859C128.227 109.415 127.994 109.075 127.65 108.838C127.314 108.602 126.83 108.484 126.2 108.484C125.405 108.484 124.836 108.595 124.492 108.817C124.263 108.974 124.148 109.179 124.148 109.429C124.148 109.644 124.248 109.827 124.449 109.977C124.721 110.178 125.659 110.46 127.263 110.826C128.875 111.191 129.999 111.639 130.636 112.168C131.267 112.706 131.582 113.454 131.582 114.414C131.582 115.459 131.145 116.358 130.271 117.11C129.398 117.862 128.105 118.238 126.393 118.238C124.839 118.238 123.608 117.923 122.698 117.293C121.796 116.662 121.205 115.807 120.926 114.725ZM139.467 106.572V108.978H137.404V113.576C137.404 114.507 137.422 115.051 137.458 115.209C137.501 115.359 137.59 115.484 137.726 115.585C137.87 115.685 138.041 115.735 138.242 115.735C138.521 115.735 138.926 115.638 139.456 115.445L139.714 117.787C139.012 118.087 138.217 118.238 137.329 118.238C136.785 118.238 136.294 118.148 135.857 117.969C135.42 117.783 135.098 117.547 134.89 117.26C134.69 116.967 134.55 116.573 134.471 116.079C134.407 115.728 134.375 115.019 134.375 113.952V108.978H132.989V106.572H134.375V104.305L137.404 102.543V106.572H139.467ZM141.218 113.78V110.761H147.147V113.78H141.218Z" fill="white"/>
<path d="M80.7834 128.572H83.5657V130.129C84.5611 128.919 85.7463 128.314 87.1213 128.314C87.8518 128.314 88.4856 128.464 89.0227 128.765C89.5598 129.066 90.0002 129.521 90.344 130.129C90.8453 129.521 91.386 129.066 91.9661 128.765C92.5461 128.464 93.1656 128.314 93.8245 128.314C94.6624 128.314 95.3713 128.486 95.9514 128.83C96.5315 129.166 96.9648 129.664 97.2512 130.323C97.4589 130.81 97.5627 131.598 97.5627 132.686V139.98H94.5442V133.46C94.5442 132.328 94.4403 131.598 94.2327 131.268C93.9534 130.838 93.5237 130.624 92.9436 130.624C92.5211 130.624 92.1236 130.752 91.7512 131.01C91.3788 131.268 91.1103 131.648 90.9456 132.149C90.7808 132.643 90.6985 133.427 90.6985 134.501V139.98H87.6799V133.728C87.6799 132.618 87.6262 131.902 87.5188 131.58C87.4114 131.257 87.2431 131.017 87.0139 130.86C86.7919 130.702 86.4875 130.624 86.1008 130.624C85.6353 130.624 85.2164 130.749 84.844 131C84.4716 131.25 84.203 131.612 84.0383 132.085C83.8808 132.557 83.802 133.341 83.802 134.437V139.98H80.7834V128.572ZM107.188 136.349L110.196 136.854C109.809 137.957 109.197 138.798 108.359 139.378C107.528 139.951 106.486 140.238 105.233 140.238C103.249 140.238 101.781 139.59 100.828 138.293C100.076 137.255 99.7004 135.945 99.7004 134.362C99.7004 132.471 100.195 130.992 101.183 129.925C102.171 128.851 103.421 128.314 104.932 128.314C106.629 128.314 107.968 128.876 108.949 130.001C109.931 131.118 110.4 132.833 110.357 135.146H102.794C102.816 136.041 103.059 136.739 103.525 137.241C103.99 137.735 104.57 137.982 105.265 137.982C105.738 137.982 106.135 137.853 106.457 137.595C106.78 137.337 107.023 136.922 107.188 136.349ZM107.36 133.298C107.338 132.425 107.113 131.762 106.683 131.311C106.253 130.853 105.73 130.624 105.115 130.624C104.456 130.624 103.911 130.863 103.482 131.343C103.052 131.823 102.841 132.475 102.848 133.298H107.36ZM123.204 139.98H120.186V134.158C120.186 132.926 120.121 132.131 119.992 131.773C119.864 131.408 119.652 131.125 119.359 130.924C119.072 130.724 118.725 130.624 118.317 130.624C117.794 130.624 117.325 130.767 116.909 131.053C116.494 131.34 116.208 131.719 116.05 132.192C115.9 132.665 115.824 133.538 115.824 134.813V139.98H112.806V128.572H115.61V130.248C116.605 128.959 117.858 128.314 119.369 128.314C120.035 128.314 120.644 128.436 121.196 128.679C121.747 128.916 122.162 129.22 122.442 129.592C122.728 129.965 122.925 130.387 123.032 130.86C123.147 131.333 123.204 132.009 123.204 132.89V139.98ZM131.508 128.572V130.978H129.446V135.576C129.446 136.507 129.463 137.051 129.499 137.209C129.542 137.359 129.632 137.484 129.768 137.585C129.911 137.685 130.083 137.735 130.283 137.735C130.563 137.735 130.967 137.638 131.497 137.445L131.755 139.787C131.053 140.087 130.258 140.238 129.37 140.238C128.826 140.238 128.336 140.148 127.899 139.969C127.462 139.783 127.14 139.547 126.932 139.26C126.731 138.967 126.592 138.573 126.513 138.079C126.448 137.728 126.416 137.019 126.416 135.952V130.978H125.031V128.572H126.416V126.305L129.446 124.543V128.572H131.508Z" fill="white"/>
<defs>
<linearGradient id="paint0_linear" x1="85.3321" y1="91.44" x2="337.457" y2="91.44" gradientUnits="userSpaceOnUse">
<stop stop-color="#E5803F"/>
<stop offset="1" stop-color="#EDA345"/>
</linearGradient>
</defs>
</svg>
