<svg width="280" height="348" viewBox="0 0 280 348" fill="none" xmlns="http://www.w3.org/2000/svg">
<g clip-path="url(#clip0)">
<path d="M75.2 76.3822C88.06 77.3822 101.11 78.2422 113.76 75.7122C123.756 73.6843 133.22 69.5976 141.55 63.7122V49.8622C127.49 58.2022 112.55 65.4622 96.43 65.5122C85.17 65.5122 74.22 62.0322 63.63 58.2022C53.04 54.3722 42.45 50.2022 31.28 48.7522C24.423 47.7926 17.442 48.2521 10.77 50.1022V86.3022C18.22 80.8322 27.39 77.6022 36.6 76.1822C49.35 74.2222 62.34 75.3722 75.2 76.3822Z" fill="#0F8949"/>
<path d="M31.28 48.7523C42.45 50.1723 53.05 54.3823 63.64 58.2023C74.23 62.0223 85.17 65.5423 96.44 65.5123C112.58 65.4523 127.44 58.2023 141.55 49.8623V33.3123H10.77V50.1023C17.442 48.2518 24.423 47.7923 31.28 48.7523V48.7523Z" fill="#40B56A"/>
<path d="M61.26 91.0822C72.44 92.5022 83.53 94.7222 94.78 95.5222C110.543 96.6281 126.377 94.9353 141.55 90.5222V63.7522C133.215 69.6296 123.753 73.7156 113.76 75.7522C101.11 78.2822 88.06 77.4222 75.2 76.4122C62.34 75.4022 49.35 74.2522 36.6 76.2122C27.39 77.6322 18.21 80.8722 10.76 86.3322V98.2022C15.9474 95.0035 21.6476 92.7234 27.61 91.4622C38.63 89.0422 50.11 89.6622 61.26 91.0822Z" fill="#7DDF9E"/>
<path d="M32.5 137.912C40.5 133.142 47.75 126.792 56.58 123.742C57.51 123.422 58.47 123.132 59.43 122.892V113.752H54.11L66.95 100.212L79.76 113.752H74.4V122.392C76.2516 122.719 78.0742 123.194 79.85 123.812C87.54 126.502 94.05 131.722 101.24 135.542C113.614 142.031 127.774 144.283 141.55 141.952V90.5223C126.377 94.9358 110.543 96.6286 94.78 95.5223C83.53 94.7223 72.44 92.5223 61.26 91.0823C50.08 89.6423 38.63 89.0823 27.61 91.4323C21.652 92.6924 15.9554 94.969 10.77 98.1623V143.402C18.05 144.612 25.96 141.752 32.5 137.912Z" fill="#40B56A"/>
<path d="M10.77 145.892V162.812C20.91 161.082 31.69 162.812 41.77 165.372C54.69 168.612 67.56 173.072 80.88 172.882C94.74 172.682 107.95 167.482 121.24 163.522C127.84 161.454 134.631 160.05 141.51 159.332V145.892H10.77Z" fill="#7DDF9E"/>
<path d="M80.92 172.882C67.6 173.072 54.73 168.612 41.81 165.372C31.69 162.832 20.91 161.082 10.81 162.812V192.662H141.55V159.332C134.667 160.05 127.874 161.454 121.27 163.522C107.99 167.482 94.78 172.682 80.92 172.882Z" fill="#0F8949"/>
<path d="M101.24 135.522C94.04 131.702 87.54 126.522 79.85 123.792C78.0742 123.174 76.2517 122.699 74.4 122.372C69.419 121.49 64.3079 121.667 59.4 122.892C58.4 123.132 57.48 123.422 56.55 123.742C47.72 126.742 40.5 133.142 32.47 137.912C25.93 141.782 18.02 144.612 10.74 143.402V145.892H141.55V141.892C127.778 144.236 113.618 141.998 101.24 135.522Z" fill="#5E5E99"/>
<path d="M79.76 113.752L66.92 100.212L54.11 113.752H59.47V122.912C64.3779 121.687 69.489 121.51 74.47 122.392V113.752H79.76Z" fill="#343462"/>
<path d="M146.07 192.662H6.23999V201.412H146.07V192.662Z" fill="#F29580"/>
<path d="M0 314.532H12.48L29.41 218.362H16.93L0 314.532Z" fill="#F29580"/>
<path d="M19.92 201.412L16.92 218.362H29.41L32.41 201.412H19.92Z" fill="#DF5740"/>
<path d="M132.4 201.412H119.92L122.92 218.362H135.4L132.4 201.412Z" fill="#DF5740"/>
<path d="M122.9 218.362L139.83 314.532H152.31L135.38 218.362H122.9Z" fill="#F29580"/>
<path d="M82.39 201.412H69.92L70.3 212.922H82.02L82.39 201.412Z" fill="#B93317"/>
<path d="M70.3 212.912L73.02 295.752H79.29L82.02 212.882L70.3 212.912Z" fill="#DF5740"/>
<path d="M211.653 10.9146C212.026 7.12729 211.117 3.32432 209.073 0.114584C208.33 -0.0448222 207.561 -0.0378262 206.821 0.135065C206.081 0.307957 205.388 0.642458 204.793 1.11458C206.38 2.39391 207.655 4.01771 208.521 5.86292C209.387 7.70814 209.822 9.72635 209.793 11.7646C210.343 11.4246 211.063 11.2546 211.653 10.9146Z" fill="#1B1B25"/>
<path d="M239.933 32.9545C236.063 37.8245 229.183 38.8045 222.993 39.4245L202.693 41.4245C199.193 41.7745 195.523 42.1045 192.293 40.7245C187.383 38.6245 184.723 32.7245 185.453 27.4645C186.183 22.2045 189.753 17.5645 194.203 14.5845C198.653 11.6045 203.903 10.0845 209.133 9.01454C214.703 7.87454 220.463 7.21454 226.053 8.25454C231.643 9.29454 237.053 12.1945 240.143 16.9745C243.233 21.7545 243.473 28.5145 239.933 32.9545Z" fill="#1B1B25"/>
<path d="M180.243 125.304L179.593 129.804L189.593 137.664V130.194L180.243 125.304Z" fill="#FF896B"/>
<path d="M189.573 124.294L181.043 119.844L180.243 125.314L189.573 130.194V124.294Z" fill="#FF896B"/>
<path d="M170.433 83.3645C169.346 82.3906 168.567 81.1202 168.192 79.7096C167.817 78.299 167.863 76.8096 168.323 75.4245C169.003 73.5045 170.433 71.9645 171.613 70.3045C172.793 68.6445 173.773 66.6245 173.343 64.6345C174.635 66.799 175.625 69.1308 176.283 71.5645C176.879 73.9808 176.736 76.5204 175.873 78.8545C175.372 79.9726 174.621 80.9608 173.678 81.7427C172.734 82.5247 171.624 83.0795 170.433 83.3645Z" fill="#1B1B25"/>
<path d="M170.603 81.7346C169.782 81.6387 168.957 81.8723 168.308 82.3841C167.66 82.8959 167.24 83.6441 167.143 84.4646C167.143 84.5146 167.143 84.5646 167.143 84.6146L166.943 86.8546C166.463 92.1764 165.601 97.4567 164.363 102.655L154.863 142.175C154.817 142.361 154.808 142.555 154.838 142.745C154.867 142.935 154.934 143.117 155.035 143.28C155.135 143.444 155.267 143.586 155.423 143.699C155.579 143.811 155.756 143.891 155.943 143.935V143.935C156.129 143.979 156.321 143.987 156.51 143.956C156.699 143.926 156.88 143.859 157.042 143.758C157.205 143.658 157.346 143.527 157.458 143.371C157.569 143.216 157.649 143.041 157.693 142.855V142.855L167.153 103.335C168.4 98.1366 170.024 93.0364 172.013 88.0746L172.913 85.8246C173.061 85.4583 173.135 85.0664 173.131 84.6713C173.127 84.2763 173.045 83.886 172.89 83.5227C172.735 83.1594 172.509 82.8303 172.227 82.5543C171.944 82.2784 171.61 82.061 171.243 81.9146C171.038 81.8273 170.823 81.7668 170.603 81.7346V81.7346Z" fill="#FF2C39"/>
<path d="M164.303 125.424L177.533 147.674C178.1 148.637 178.852 149.478 179.744 150.15C180.637 150.822 181.654 151.311 182.736 151.59C183.818 151.869 184.944 151.931 186.05 151.774C187.157 151.617 188.221 151.243 189.183 150.674L189.363 150.564C191.271 149.364 192.624 147.455 193.125 145.257C193.626 143.06 193.233 140.753 192.033 138.844C191.725 138.336 191.366 137.861 190.963 137.424L172.523 118.234L164.303 125.424Z" fill="#FFC5A5"/>
<path d="M175.173 106.724L176.433 114.154C176.689 115.673 176.504 117.234 175.902 118.651C175.299 120.069 174.304 121.285 173.033 122.154V122.154L171.833 123.754C170.92 124.964 169.687 125.893 168.273 126.436C166.858 126.978 165.32 127.113 163.833 126.824L160.563 126.174L165.683 110.864L175.173 106.724Z" fill="#FF896B"/>
<path d="M152.353 121.595L155.753 105.785C155.916 105.029 156.371 104.37 157.02 103.95C157.668 103.53 158.457 103.384 159.213 103.545C159.412 103.587 159.607 103.65 159.793 103.735L167.083 107.025C167.681 107.295 168.17 107.761 168.468 108.347C168.766 108.932 168.856 109.601 168.723 110.245L165.723 124.885C165.6 125.475 165.25 125.993 164.749 126.327C164.247 126.662 163.635 126.787 163.043 126.675L154.673 125.065C154.297 124.994 153.94 124.85 153.62 124.64C153.301 124.431 153.026 124.16 152.811 123.844C152.597 123.529 152.446 123.173 152.37 122.799C152.293 122.425 152.29 122.04 152.363 121.665L152.353 121.595Z" fill="#FFC5A5"/>
<path d="M168.073 113.045L169.223 105.445C169.309 104.909 169.603 104.429 170.041 104.108C170.479 103.788 171.026 103.654 171.563 103.735C171.706 103.757 171.847 103.794 171.983 103.845L174.473 104.845C174.765 104.956 175.033 105.125 175.26 105.34C175.487 105.556 175.67 105.814 175.797 106.1C175.924 106.386 175.994 106.695 176.002 107.008C176.009 107.321 175.955 107.632 175.843 107.925L175.773 108.105L172.643 114.615C172.439 115.033 172.084 115.358 171.65 115.525C171.216 115.692 170.734 115.688 170.303 115.515L169.173 115.045C168.789 114.887 168.47 114.602 168.27 114.238C168.07 113.875 168 113.453 168.073 113.045Z" fill="#FFC5A5"/>
<path d="M263.183 116.425L268.803 127.725L249.653 137.485L250.063 125.045L263.183 116.425Z" fill="#FF896B"/>
<path d="M264.433 115.615L253.973 92.0846C253.164 90.2578 251.921 88.6563 250.353 87.4189C248.784 86.1816 246.937 85.3459 244.973 84.9846L227.523 81.8046H213.073L197.393 83.4746C195.056 83.7201 192.839 84.6306 191.005 86.0983C189.17 87.5659 187.795 89.529 187.043 91.7546L178.043 118.265L189.583 124.265V162.535H248.863L250.093 125.015L264.433 115.615Z" fill="#4D64FF"/>
<path d="M240.993 64.8846C240.607 66.6355 239.804 68.2677 238.654 69.6428C237.503 71.018 236.038 72.0956 234.383 72.7846C231.063 74.1146 226.713 74.1046 223.763 72.0846C222.457 73.2279 220.774 73.8456 219.039 73.8179C217.304 73.7902 215.641 73.119 214.373 71.9346C212.646 73.321 210.507 74.0948 208.293 74.1346C206.044 74.1339 203.857 73.4002 202.063 72.0446C200.785 72.7868 199.315 73.1323 197.84 73.037C196.366 72.9417 194.953 72.41 193.781 71.5095C192.609 70.6091 191.732 69.3805 191.26 67.98C190.789 66.5795 190.744 65.0704 191.133 63.6446C190.15 63.3026 189.259 62.7385 188.53 61.9963C187.8 61.2541 187.251 60.3538 186.926 59.3651C186.601 58.3765 186.509 57.3263 186.655 56.296C186.802 55.2657 187.185 54.2831 187.773 53.4246C188.684 52.3121 189.662 51.2567 190.703 50.2646C192.532 48.0453 193.679 45.3427 194.003 42.4846C194.469 39.5993 194.656 36.6758 194.563 33.7546C203.393 27.4946 214.923 24.4346 225.563 26.5046C230.013 27.3746 234.513 29.1346 237.423 32.6046C237.11 34.6424 237.377 36.727 238.192 38.6207C239.007 40.5143 240.338 42.1408 242.033 43.3146C243.663 44.3846 245.663 45.0746 246.723 46.7046C247.118 47.3715 247.357 48.1189 247.423 48.8912C247.488 49.6634 247.379 50.4405 247.103 51.1646C246.527 52.6156 245.549 53.8717 244.283 54.7846C245.059 55.5401 245.62 56.4881 245.91 57.5317C246.2 58.5752 246.208 59.6771 245.933 60.7246C245.527 61.7786 244.862 62.7128 243.998 63.4402C243.134 64.1676 242.1 64.6645 240.993 64.8846Z" fill="#FF2C39"/>
<path d="M219.793 76.0846C222.722 75.6125 225.422 74.21 227.493 72.0846V62.4246H213.073V75.4246C215.223 76.2005 217.533 76.4274 219.793 76.0846V76.0846Z" fill="#FF896B"/>
<path d="M219.793 76.0846C217.529 76.4147 215.219 76.174 213.073 75.3846V81.8046C213.769 83.1118 214.808 84.2049 216.078 84.9672C217.348 85.7294 218.801 86.1321 220.283 86.1321C221.764 86.1321 223.217 85.7294 224.487 84.9672C225.757 84.2049 226.796 83.1118 227.493 81.8046V72.0946C225.421 74.2163 222.721 75.6152 219.793 76.0846V76.0846Z" fill="#FFC5A5"/>
<path d="M229.493 39.6545C227.542 40.8663 225.251 41.4136 222.963 41.2145C220.74 41.005 218.65 40.0622 217.023 38.5345C215.501 39.8633 213.519 40.542 211.503 40.4245C210.518 40.3874 209.558 40.1019 208.713 39.5945C207.848 39.0569 207.194 38.2375 206.863 37.2745C206.24 38.995 205.155 40.51 203.725 41.6518C202.296 42.7936 200.578 43.5179 198.763 43.7445C199.505 45.4788 199.781 47.3774 199.561 49.2512C199.342 51.125 198.636 52.9086 197.513 54.4245C200.273 63.6345 207.653 70.2345 216.343 70.2345C224.343 70.2345 231.203 64.6645 234.413 56.6245C232.299 54.3933 230.749 51.6888 229.893 48.7367C229.037 45.7845 228.9 42.6705 229.493 39.6545V39.6545Z" fill="#FFC5A5"/>
<path d="M189.573 103.715L185.113 121.975L189.573 124.295V103.715Z" fill="#3651D8"/>
<path d="M250.793 102.575L255.553 121.425L250.063 125.025L250.793 102.575Z" fill="#3651D8"/>
<path d="M189.573 162.565L174.573 229.635C173.634 233.818 173.501 238.142 174.183 242.375L184.583 307.505H208.703L197.473 238.875L202.373 226.875C206.581 216.59 209.855 205.947 212.153 195.075L214.933 181.885H221.223L211.993 229.975C210.924 235.521 211.391 241.254 213.343 246.555L235.783 307.495L258.663 295.425L234.073 237.615C242.885 217.837 247.769 196.536 248.453 174.895L248.833 162.545L189.573 162.565Z" fill="#1B1B25"/>
<path d="M183.033 307.505H209.653L211.423 315.955H184.803L183.033 307.505Z" fill="#383849"/>
<path d="M260.173 294.645L234.273 308.295L238.413 315.955L264.313 302.305L260.173 294.645Z" fill="#383849"/>
<path d="M205.483 315.955H187.913L188.283 318.475C188.706 321.37 188.122 324.323 186.63 326.841C185.137 329.358 182.826 331.287 180.083 332.305L169.183 336.305C168.588 336.525 168.052 336.88 167.617 337.342C167.182 337.803 166.859 338.358 166.673 338.965H210.863L205.483 315.955Z" fill="#2C4DF6"/>
<path d="M166.673 339.005C166.553 339.397 166.492 339.805 166.493 340.215V341.505H211.423L210.843 339.005H166.673Z" fill="#96C9FF"/>
<path d="M201.593 331.205C200.725 331.205 199.884 330.907 199.211 330.361C198.537 329.814 198.072 329.053 197.893 328.205L195.393 315.965H203.093L205.283 326.695C205.484 327.673 205.288 328.691 204.738 329.526C204.189 330.36 203.331 330.942 202.353 331.145C202.102 331.189 201.847 331.209 201.593 331.205Z" fill="#96C9FF"/>
<path d="M260.213 304.425L244.313 312.805L246.953 320.715C247.394 322.043 247.555 323.449 247.426 324.843C247.296 326.237 246.88 327.589 246.203 328.815L239.463 340.965C238.686 342.357 238.398 343.969 238.643 345.545L273.123 323.065L260.213 304.425Z" fill="#2C4DF6"/>
<path d="M238.643 345.585C238.724 346.108 238.861 346.621 239.053 347.115L239.343 347.845L274.413 324.965L273.123 323.104L238.643 345.585Z" fill="#96C9FF"/>
<path d="M257.633 305.825L262.273 313.145C262.817 314.005 263.002 315.045 262.787 316.04C262.572 317.035 261.974 317.906 261.123 318.465V318.465C260.696 318.743 260.218 318.935 259.718 319.029C259.217 319.123 258.702 319.117 258.204 319.012C257.705 318.907 257.232 318.705 256.811 318.417C256.391 318.129 256.031 317.761 255.753 317.335C255.7 317.262 255.653 317.185 255.613 317.105L251.223 309.205L257.633 305.825Z" fill="#96C9FF"/>
<path d="M208.083 82.3346V97.1346C208.083 100.011 209.158 102.785 211.097 104.91C213.035 107.036 215.698 108.36 218.563 108.625C221.549 108.902 224.527 108.004 226.862 106.122C229.198 104.24 230.708 101.522 231.073 98.5446L233.013 82.8046L239.073 83.9046L236.863 106.335C236.535 109.589 236.99 112.875 238.188 115.919C239.387 118.963 241.294 121.677 243.753 123.835L247.453 127.085L245.393 172.085C245.076 178.913 244.17 185.702 242.683 192.375L238.053 213.125H176.553L188.323 162.595L188.883 122.945L192.083 120.845C194.784 119.073 197.031 116.691 198.641 113.891C200.251 111.09 201.18 107.95 201.353 104.725L202.493 82.9646L208.083 82.3346Z" fill="#96C9FF"/>
<path d="M274.653 127.865C274.28 124.282 273.203 120.809 271.483 117.645C270.611 116.069 269.433 114.684 268.018 113.572C266.603 112.459 264.979 111.64 263.243 111.165C259.743 110.365 255.693 111.635 253.773 114.675C251.853 117.715 252.283 122.275 249.873 125.175C248.023 127.395 244.983 128.085 242.253 129.045C238.238 130.376 234.651 132.754 231.863 135.935C229.072 139.15 227.638 143.323 227.863 147.575C228.183 151.435 230.063 154.985 232.113 158.275C234.333 161.835 236.943 165.385 240.693 167.275C243.421 168.554 246.443 169.075 249.443 168.785C258.443 168.105 266.443 161.985 270.703 154.085C274.963 146.185 275.913 136.765 274.653 127.865ZM262.243 127.745C259.423 127.745 257.143 125.015 257.143 121.645C257.143 118.275 259.423 115.545 262.243 115.545C265.063 115.545 267.333 118.285 267.333 121.645C267.333 125.005 265.053 127.745 262.243 127.745Z" fill="white"/>
<path d="M246.103 133.345C245.823 134.145 246.523 134.965 247.283 135.345C248.085 135.615 248.838 136.013 249.513 136.525C250.163 137.195 250.513 138.355 251.453 138.405C252.113 138.405 252.603 137.835 252.983 137.305L254.683 134.915C255.039 134.479 255.31 133.98 255.483 133.445C255.57 133.176 255.584 132.888 255.522 132.612C255.461 132.336 255.326 132.081 255.133 131.875C254.643 131.425 253.873 131.465 253.313 131.105C252.797 130.64 252.402 130.056 252.163 129.405C251.833 128.795 251.223 128.185 250.553 128.355C249.883 128.525 249.653 129.155 249.553 129.755C249.517 130.365 249.328 130.957 249.003 131.475C248.243 132.425 246.503 132.235 246.103 133.345Z" fill="#96CBFF"/>
<path d="M238.103 143.025C237.783 144.025 236.463 144.305 235.963 145.205C235.78 145.649 235.764 146.144 235.916 146.599C236.069 147.054 236.38 147.44 236.793 147.685C237.222 147.906 237.695 148.029 238.178 148.044C238.66 148.06 239.14 147.968 239.583 147.775C240.466 147.389 241.296 146.892 242.053 146.295C242.817 145.704 243.69 145.269 244.623 145.015C245.373 144.974 246.107 144.773 246.773 144.425C247.094 144.123 247.312 143.728 247.397 143.296C247.481 142.863 247.427 142.415 247.243 142.015C246.856 141.231 246.295 140.547 245.603 140.015C244.773 139.209 243.826 138.534 242.793 138.015C242.274 137.755 241.709 137.601 241.13 137.563C240.551 137.526 239.971 137.604 239.423 137.795C238.879 137.998 238.414 138.369 238.096 138.855C237.778 139.341 237.622 139.915 237.653 140.495C237.753 141.325 238.373 142.175 238.103 143.025Z" fill="#4D64FF"/>
<path d="M248.223 149.725C247.541 150.792 246.724 151.767 245.793 152.625C244.854 153.483 244.204 154.612 243.933 155.855C243.811 156.484 243.924 157.137 244.25 157.69C244.576 158.242 245.093 158.656 245.703 158.855C246.873 159.095 248.033 158.245 249.233 158.335C249.999 158.485 250.737 158.751 251.423 159.125C251.769 159.306 252.159 159.388 252.549 159.361C252.939 159.335 253.314 159.201 253.633 158.975C254.503 158.145 253.833 156.645 254.263 155.525C254.581 154.887 255.051 154.337 255.633 153.925C255.92 153.713 256.159 153.442 256.331 153.129C256.504 152.817 256.607 152.471 256.633 152.115C256.573 151.115 255.563 150.555 254.633 150.115C253.473 149.565 252.313 149.025 251.143 148.495C250.888 148.33 250.602 148.219 250.303 148.168C250.004 148.116 249.698 148.125 249.403 148.195C248.863 148.425 248.543 149.135 248.223 149.725Z" fill="#FF2C39"/>
<path d="M261.093 147.225C261.519 146.491 261.792 145.678 261.895 144.836C261.998 143.994 261.929 143.139 261.693 142.325C261.558 141.748 261.288 141.212 260.906 140.76C260.523 140.308 260.039 139.953 259.493 139.725C259.229 139.629 258.949 139.587 258.668 139.601C258.388 139.614 258.113 139.682 257.86 139.802C257.606 139.922 257.378 140.091 257.19 140.299C257.002 140.507 256.857 140.75 256.763 141.015C256.763 141.015 256.763 141.105 256.763 141.145C256.623 142.035 257.193 142.985 256.843 143.815C256.563 144.475 255.773 144.815 255.513 145.495C255.193 146.315 255.783 147.195 256.403 147.805C256.964 148.443 257.739 148.856 258.583 148.965C259.115 148.915 259.626 148.729 260.066 148.424C260.506 148.119 260.859 147.706 261.093 147.225V147.225Z" fill="#E5F1FF"/>
<path d="M265.233 136.125C265.423 135.535 265.233 134.885 265.313 134.275C265.547 133.662 265.886 133.093 266.313 132.595C266.512 132.337 266.62 132.02 266.62 131.695C266.62 131.369 266.512 131.052 266.313 130.795C266.077 130.634 265.798 130.548 265.513 130.548C265.227 130.548 264.948 130.634 264.713 130.795C264.242 131.116 263.731 131.375 263.193 131.565C262.862 131.616 262.528 131.646 262.193 131.655C261.836 131.691 261.491 131.797 261.176 131.968C260.861 132.139 260.584 132.371 260.359 132.65C260.135 132.929 259.969 133.25 259.87 133.594C259.771 133.939 259.741 134.299 259.783 134.655C259.847 135.217 260.081 135.747 260.453 136.175C261.055 136.792 261.855 137.178 262.713 137.265C263.208 137.344 263.715 137.306 264.193 137.155C264.432 137.072 264.65 136.936 264.83 136.758C265.01 136.58 265.148 136.363 265.233 136.125Z" fill="#F20009"/>
<path d="M270.473 124.565C269.853 125.955 270.643 127.565 270.953 129.005C271.232 131.017 271.061 133.066 270.453 135.005C269.844 136.943 269.613 138.98 269.773 141.005C270.073 143.005 271.413 145.005 273.403 145.415C275.393 145.825 277.403 144.415 278.463 142.675C279.366 140.804 279.831 138.752 279.823 136.675C280.083 132.625 280.143 128.435 278.713 124.675C278.457 123.742 277.861 122.94 277.043 122.425C276.102 122.09 275.074 122.09 274.133 122.425C272.703 122.765 271.083 123.235 270.473 124.565Z" fill="#FFC5A5"/>
<path d="M272.943 116.835C273.197 117.345 273.313 117.913 273.278 118.481C273.243 119.05 273.058 119.6 272.743 120.075C272.098 121.023 271.191 121.763 270.133 122.205C269.142 122.694 268.047 122.934 266.943 122.905C266.39 122.887 265.847 122.756 265.348 122.518C264.849 122.281 264.404 121.943 264.043 121.525C263.691 121.098 263.467 120.58 263.398 120.031C263.329 119.482 263.417 118.925 263.653 118.425C264.202 117.602 264.986 116.965 265.903 116.595C267.029 115.925 268.276 115.483 269.573 115.295C270.222 115.213 270.881 115.313 271.477 115.585C272.072 115.857 272.58 116.29 272.943 116.835Z" fill="#FFC5A5"/>
</g>
<defs>
<clipPath id="clip0">
<rect width="279.969" height="347.845" fill="white"/>
</clipPath>
</defs>
</svg>
