<svg id="圖層_1" data-name="圖層 1" xmlns="http://www.w3.org/2000/svg" viewBox="0 0 1200 660"><defs><style>.cls-1{fill:#e6b980;}.cls-2{fill:#9bb63c;}.cls-3{fill:#69bdb9;}.cls-4{fill:#2f6e35;}</style></defs><path id="Path_140" data-name="Path 140" class="cls-1" d="M686.77,141.74l72.9,6.38,6.38-72.9Z"/><path id="Path_137" data-name="Path 137" class="cls-2" d="M842.86,498.65,992.12,334.44H842.86Z"/><path id="Path_1040" data-name="Path 1040" class="cls-3" d="M278.76,459.73l20.18-108-97.47-50.66Z"/><path id="Path_626" data-name="Path 626" class="cls-4" d="M864.64,289.2a34.14,34.14,0,0,0-6.39-4.25q-3.42-1.76-6.39-3.26c-2-1-3.68-1.9-5.11-2.66a15.12,15.12,0,0,1-3.23-2.34,7.28,7.28,0,0,1-1.7-2.54,8.66,8.66,0,0,1-.53-3.23c0-5.58,3.53-8.28,10.81-8.28a29.24,29.24,0,0,1,7.68,1,32.49,32.49,0,0,1,6.75,2.6l.66.34,1.88-8-.39-.22a32.66,32.66,0,0,0-7.62-2.78,35.5,35.5,0,0,0-17.2,0,18.58,18.58,0,0,0-6.55,3.23,14.84,14.84,0,0,0-4.26,5.39,17,17,0,0,0-1.54,7.4,14.23,14.23,0,0,0,1.54,6.53,17.72,17.72,0,0,0,3.7,4.94,27.64,27.64,0,0,0,5.32,3.85c2,1.11,4.09,2.13,6.21,3.17s3.64,1.73,5.3,2.54a20.33,20.33,0,0,1,4.26,2.7,12.09,12.09,0,0,1,2.87,3.34,8.68,8.68,0,0,1,1,4.38,7.94,7.94,0,0,1-3.51,7,16.74,16.74,0,0,1-9.55,2.49,34.61,34.61,0,0,1-8.3-1,42.93,42.93,0,0,1-7.58-2.6l-.64-.34-2,8,.42.19a36.57,36.57,0,0,0,8.86,2.93,48,48,0,0,0,9.41,1,29.91,29.91,0,0,0,8.77-1.26,22.22,22.22,0,0,0,7.15-3.57,17.78,17.78,0,0,0,4.88-5.65,15.71,15.71,0,0,0,1.72-7.53,15,15,0,0,0-2-7.73A23.07,23.07,0,0,0,864.64,289.2Z"/></svg>