<svg id="圖層_1" data-name="圖層 1" xmlns="http://www.w3.org/2000/svg" viewBox="0 0 1200 660"><defs><style>.cls-1{fill:#2f6e35;}.cls-2{fill:#74cf64;}</style></defs><g id="Group_684" data-name="Group 684"><path id="Path_623" data-name="Path 623" class="cls-1" d="M657.53,367.91l-22.67-20.77a29,29,0,0,1-15.5,14l20.48,23.43a12.64,12.64,0,0,0,17.84,1h0a3.2,3.2,0,0,0,.27-.25,12.16,12.16,0,0,0-.42-17.4Z"/><path id="Path_624" data-name="Path 624" class="cls-1" d="M641.43,314.15h-1.68a16.22,16.22,0,0,1-13.32-4.21L625,308.55l-.46,2a45.55,45.55,0,1,1-2-26.38v.42l3.75,2,.59-.51a16,16,0,0,1,11.42-3.79H640l-.55-1.56A62.73,62.73,0,1,0,599.74,360a64.23,64.23,0,0,0,8.41-3.49h0s4.59,3.75,13.19-1.9a33.18,33.18,0,0,0,8.89-8.43,8.81,8.81,0,0,0,1.43-10.7,61.28,61.28,0,0,0,9.06-20.27Z"/><path id="Path_625" data-name="Path 625" class="cls-2" d="M660.14,251.49A12.64,12.64,0,0,0,650,272.05l-8.68,11.89v.21a14.88,14.88,0,0,0-14.49,4.21l-16.56-8.64v-1.56a16.48,16.48,0,0,0-32.91,0,16.22,16.22,0,0,0,3.37,9.9l-5.35,8.43,1,.63a10.6,10.6,0,0,1,2.32,1.9,19.64,19.64,0,0,0-3.2-1.13,22.44,22.44,0,1,0,16.85,21.74,22.2,22.2,0,0,0-6.24-15.51l5.48-9.82a16,16,0,0,0,13.9-4.63l17.19,9.22a14.75,14.75,0,0,0,29.5-.37h0a14.53,14.53,0,0,0-1.31-6.75L660.14,277h0a12.77,12.77,0,0,0,0-25.54Z"/></g></svg>