<svg width="162" height="138" viewBox="0 0 162 138" fill="none" xmlns="http://www.w3.org/2000/svg">
<path d="M161.15 80.59V7.59C161.149 6.68219 160.968 5.78356 160.619 4.94561C160.27 4.10766 159.759 3.34685 159.115 2.7068C158.471 2.06674 157.707 1.56001 156.867 1.21564C156.027 0.871281 155.128 0.696053 154.22 0.700001C154.05 0.690027 153.88 0.690027 153.71 0.700001C123.392 3.00114 93.9804 12.0905 67.6505 27.2954C41.3206 42.5003 18.7469 63.4315 1.60002 88.54C0.56509 90.0524 0.172331 91.9135 0.507904 93.7151C0.843478 95.5167 1.87998 97.1117 3.39002 98.15C3.54002 98.24 3.69002 98.34 3.84002 98.42L67 134.91C70.8155 137.083 75.2588 137.888 79.5943 137.192C83.9297 136.495 87.8973 134.339 90.84 131.08C105.544 115.091 124.795 103.993 146 99.28C150.279 98.3605 154.114 96.0055 156.87 92.6058C159.626 89.2061 161.136 84.9663 161.15 80.59V80.59Z" fill="#64CACF"/>
<path d="M105.36 76.1301L115.36 79.2901C113.827 84.8501 111.287 88.9801 107.74 91.6801C104.193 94.3801 99.6834 95.7135 94.21 95.6801C91.0968 95.7776 87.9986 95.2099 85.1223 94.0148C82.2459 92.8198 79.6576 91.025 77.53 88.7501C73.17 84.1301 70.9933 77.7968 71 69.7501C71 61.2701 73.1867 54.6868 77.56 50.0001C81.9334 45.3135 87.69 42.9801 94.83 43.0001C101.057 43.0001 106.117 44.8435 110.01 48.5301C112.559 51.1302 114.35 54.3769 115.19 57.9201L105.01 60.3501C104.537 57.8788 103.195 55.6584 101.227 54.0902C99.2587 52.5221 96.7947 51.7098 94.28 51.8001C92.5369 51.7513 90.8053 52.0964 89.2141 52.8097C87.6229 53.5231 86.2132 54.5863 85.09 55.9201C82.7367 58.6268 81.56 63.0168 81.56 69.0901C81.56 75.5235 82.72 80.1068 85.04 82.8401C86.1287 84.164 87.5055 85.2216 89.0653 85.9321C90.6251 86.6427 92.3266 86.9875 94.04 86.9401C96.6159 86.9766 99.1125 86.0493 101.04 84.3401C103.067 82.5935 104.507 79.8568 105.36 76.1301Z" fill="white"/>
</svg>
