<svg id="圖層_1" data-name="圖層 1" 
    xmlns="http://www.w3.org/2000/svg" viewBox="0 0 443 443">
  
    <g id="Group_1101" data-name="Group 1101">
        <g id="Group_918" data-name="Group 918">
            <g id="Path_1781" data-name="Path 1781">
                <path class="cls-1" d="M72.14,132.08,225,43.94l152.83,88.14V308.34L225,396.48,72.14,308.34Z"/>
                <path class="cls-2" d="M73.29,307.68,225,395.15l151.68-87.47V132.74L225,45.27,73.29,132.74V307.68m-1.15.66V132.08L225,43.94l152.83,88.14V308.34L225,396.48Z"/>
            </g>
            <g id="Path_1782" data-name="Path 1782">
                <path class="cls-1" d="M94.13,145.42,225,70.05,355.8,145.42V296.16L225,371.53,94.13,296.16Z"/>
                <path class="cls-2" d="M95.28,295.5,225,370.21,354.65,295.5V146.08L225,71.38,95.28,146.08V295.5m-1.15.66V145.42L225,70.05,355.8,145.42V296.16L225,371.53Z"/>
            </g>
            <g id="Path_1783" data-name="Path 1783">
                <path class="cls-1" d="M115.22,158.1,225,95,334.71,158.1V284.37L225,347.51,115.22,284.37Z"/>
                <path class="cls-2" d="M116.37,283.71,225,346.18l108.6-62.47V158.77L225,96.29,116.37,158.77V283.71m-1.15.66V158.1L225,95,334.71,158.1V284.37L225,347.51Z"/>
            </g>
            <g id="Path_1784" data-name="Path 1784">
                <path class="cls-1" d="M136.41,169.53,225,118.7l88.55,50.83V271.22L225,322.05l-88.56-50.83Z"/>
                <path class="cls-2" d="M137.56,270.55,225,320.72l87.4-50.17V170.2L225,120,137.56,170.2V270.55m-1.15.66V169.53L225,118.7l88.55,50.83V271.21L225,322.05Z"/>
            </g>
            <g id="Path_1785" data-name="Path 1785">
                <path class="cls-1" d="M158.56,182.15,225,143.61l66.41,38.54v77.07L225,297.76l-66.4-38.54Z"/>
                <path class="cls-2" d="M159.71,258.56,225,296.43l65.26-37.87V182.81L225,144.94l-65.25,37.87v75.75m-1.15.66V182.15L225,143.61l66.41,38.54v77.07L225,297.76Z"/>
            </g>
            <g id="Path_1786" data-name="Path 1786">
                <path class="cls-1" d="M181.47,195,225,169.71,268.46,195v50.49L225,270.69l-43.49-25.25Z"/>
                <path class="cls-2" d="M182.62,244.78,225,269.36l42.34-24.58V195.62L225,171l-42.35,24.58v49.16m-1.15.66V195L225,169.71,268.46,195v50.48L225,270.69Z"/>
            </g>
            <g id="Path_1787" data-name="Path 1787">
                <path class="cls-1" d="M203,207.4l22-12.76,22,12.76V233l-22,12.77L203,233Z"/>
                <path class="cls-2" d="M204.11,232.28,225,244.39l20.85-12.11V208.07L225,196l-20.86,12.11v24.21M203,233V207.4l22-12.77,22,12.77V233l-22,12.77Z"/>
            </g>
        </g>
        <g id="R" class="cls-3">
            <text class="cls-4" transform="translate(215.37 26.05)">R</text>
        </g>
        <g id="S" class="cls-3">
            <text class="cls-4" transform="translate(216.04 428.58)">S</text>
        </g>
        <g id="C" class="cls-3">
            <text class="cls-4" transform="translate(32.5 133.01)">C</text>
        </g>
        <g id="E" class="cls-3">
            <text class="cls-4" transform="translate(30.88 312.42)">E</text>
        </g>
        <g id="I" class="cls-3">
            <text class="cls-4" transform="translate(398.33 131.86)">I</text>
        </g>
        <g id="A" class="cls-3">
            <text class="cls-5" transform="translate(394.78 313.57)">A</text>
        </g>
    </g>
</svg>