<svg width="291" height="311" viewBox="0 0 291 311" fill="none" xmlns="http://www.w3.org/2000/svg">
<g filter="url(#filter0_d)">
<path d="M88.2897 105.142C88.8175 105.392 89.2262 105.839 89.4282 106.387C89.6301 106.935 89.6091 107.54 89.3697 108.072C87.7396 112.585 86.5605 117.247 85.8497 121.992C85.7867 122.543 85.5111 123.048 85.0815 123.399C84.652 123.75 84.1024 123.92 83.5497 123.872C83.2763 123.823 83.0153 123.72 82.7818 123.57C82.5482 123.419 82.3467 123.224 82.1887 122.995C82.0308 122.767 81.9195 122.509 81.8613 122.238C81.8032 121.966 81.7992 121.685 81.8497 121.412C81.8497 121.412 81.8497 121.412 81.8497 121.342C82.5795 116.384 83.7885 111.507 85.4597 106.782C85.6215 106.192 86.009 105.689 86.5386 105.382C87.0681 105.075 87.6972 104.989 88.2897 105.142Z" fill="#EAC79E"/>
<path d="M61.5197 113.052C61.3884 113.242 61.1872 113.371 60.9603 113.413C60.7334 113.454 60.4994 113.403 60.3097 113.272L60.2397 113.222C60.088 113.011 60.0175 112.752 60.0414 112.493C60.0653 112.234 60.1819 111.992 60.3698 111.812L64.6297 107.042C64.7628 106.855 64.9638 106.727 65.1899 106.686C65.4161 106.645 65.6493 106.694 65.8398 106.822L65.9097 106.882C66.0608 107.092 66.1309 107.349 66.107 107.607C66.0831 107.864 65.9668 108.104 65.7797 108.282L61.5197 113.052Z" fill="#2F2E29"/>
<path d="M79.5198 132.472C79.4557 132.566 79.3737 132.646 79.2786 132.707C79.1835 132.769 79.0771 132.811 78.9656 132.832C78.854 132.852 78.7396 132.851 78.6287 132.827C78.5179 132.803 78.4129 132.757 78.3198 132.692L78.2398 132.632C78.0908 132.422 78.0219 132.165 78.0458 131.908C78.0696 131.651 78.1846 131.412 78.3698 131.232L82.6398 126.462C82.7022 126.368 82.7827 126.288 82.8766 126.225C82.9704 126.163 83.0758 126.119 83.1866 126.098C83.2974 126.077 83.4113 126.077 83.5217 126.1C83.6321 126.124 83.7369 126.168 83.8298 126.232L83.9098 126.292C84.0636 126.503 84.1353 126.762 84.1114 127.022C84.0875 127.282 83.9695 127.523 83.7798 127.702L79.5198 132.472Z" fill="#2F2E29"/>
<path d="M97.4498 155.782L86.1398 168.432L81.0698 174.092L63.8198 193.402C63.049 194.301 61.9535 194.859 60.7729 194.952C59.5924 195.046 58.4227 194.669 57.5198 193.902C57.3598 193.762 57.2098 193.612 57.0597 193.452L5.42976 137.612C4.59657 136.678 4.09814 135.492 4.01304 134.243C3.92795 132.993 4.26102 131.751 4.95976 130.712C5.08976 130.542 5.21976 130.372 5.36976 130.202L27.6298 105.312L27.6898 105.242L39.0198 92.5923C39.3991 92.1455 39.8628 91.7779 40.3843 91.5105C40.9058 91.243 41.4749 91.081 42.0591 91.0336C42.6432 90.9863 43.231 91.0545 43.7888 91.2344C44.3465 91.4144 44.8634 91.7025 45.3098 92.0823C45.4694 92.2152 45.6197 92.3589 45.7598 92.5123L61.9598 110.042L63.1098 111.282L79.9098 129.452L81.0698 130.692L97.3898 148.352C98.3002 149.372 98.8084 150.689 98.8195 152.056C98.8305 153.423 98.3437 154.748 97.4498 155.782Z" fill="#523530"/>
<path d="M97.4597 155.782L86.1397 168.432C85.3955 169.309 84.4858 170.03 83.4626 170.554C82.4395 171.079 81.323 171.397 80.177 171.49C79.031 171.583 77.8779 171.449 76.7836 171.096C75.6894 170.743 74.6754 170.177 73.7997 169.432C73.4905 169.173 73.1997 168.892 72.9297 168.592L27.7997 119.782C26.0237 117.789 25.0332 115.218 25.013 112.548C24.9927 109.878 25.9441 107.292 27.6897 105.272L39.0097 92.6223C39.3908 92.1745 39.8564 91.8063 40.38 91.5387C40.9036 91.2711 41.4748 91.1095 42.061 91.063C42.6471 91.0166 43.2367 91.0862 43.7959 91.268C44.3551 91.4498 44.8729 91.7401 45.3197 92.1223C45.4808 92.2502 45.6282 92.3943 45.7597 92.5523L97.3997 148.392C98.2974 149.411 98.7977 150.719 98.8087 152.076C98.8198 153.434 98.3408 154.75 97.4597 155.782Z" fill="#6B453F"/>
<path d="M45.7797 151.972L43.3397 149.332C42.9284 148.863 42.7015 148.261 42.7015 147.637C42.7015 147.014 42.9284 146.411 43.3397 145.942L52.6397 135.542L58.1897 141.542L48.8797 151.942C48.7084 152.151 48.4967 152.323 48.2573 152.447C48.0179 152.572 47.7558 152.646 47.4867 152.667C47.2176 152.687 46.9472 152.653 46.6916 152.567C46.4361 152.48 46.2007 152.342 45.9997 152.162L45.7797 151.972Z" fill="#F7EFEF"/>
<path d="M45.5197 142.612L46.9097 141.052L53.2897 147.952L51.8997 149.512L45.5197 142.612Z" fill="#E3DBDB"/>
<path d="M46.7097 137.052L49.9197 133.462C49.9623 133.41 50.0147 133.367 50.074 133.335C50.1333 133.304 50.1982 133.284 50.2651 133.278C50.3321 133.271 50.3996 133.278 50.4639 133.298C50.5282 133.317 50.5879 133.349 50.6397 133.392L50.6997 133.452L60.0997 143.622C60.2037 143.739 60.2612 143.891 60.2612 144.047C60.2612 144.204 60.2037 144.355 60.0997 144.472L56.8897 148.062C56.8471 148.114 56.7947 148.157 56.7354 148.189C56.6762 148.221 56.6112 148.241 56.5443 148.247C56.4773 148.254 56.4098 148.247 56.3455 148.227C56.2812 148.207 56.2215 148.175 56.1697 148.132L56.1097 148.072L46.7097 137.902C46.6057 137.785 46.5482 137.634 46.5482 137.477C46.5482 137.321 46.6057 137.169 46.7097 137.052Z" fill="#E3DBDB"/>
<path d="M48.2097 151.262C48.012 151.494 47.7304 151.638 47.4266 151.662C47.1229 151.687 46.8219 151.59 46.5897 151.392C46.5452 151.361 46.5048 151.324 46.4697 151.282L43.9597 148.562C43.7284 148.298 43.6008 147.959 43.6008 147.607C43.6008 147.256 43.7284 146.917 43.9597 146.652L46.5197 143.782L50.7897 148.392L48.2097 151.262Z" fill="white"/>
<path d="M57.4198 145.252C57.2633 145.432 57.0426 145.543 56.8052 145.562C56.5677 145.58 56.3324 145.505 56.1498 145.352L56.0598 145.262C55.881 145.055 55.7827 144.791 55.7827 144.517C55.7827 144.244 55.881 143.979 56.0598 143.772C56.1365 143.682 56.2303 143.608 56.3357 143.554C56.4411 143.501 56.5561 143.468 56.674 143.459C56.792 143.45 56.9106 143.464 57.0231 143.5C57.1357 143.537 57.2398 143.595 57.3298 143.672L57.4098 143.762C57.5919 143.967 57.6933 144.231 57.6951 144.505C57.697 144.779 57.5991 145.045 57.4198 145.252Z" fill="#3C3C3B"/>
<path d="M50.6297 137.902C50.553 137.992 50.4592 138.066 50.3538 138.12C50.2484 138.174 50.1334 138.206 50.0155 138.216C49.8975 138.225 49.7789 138.211 49.6664 138.174C49.5538 138.138 49.4497 138.079 49.3597 138.002L49.2697 137.922C49.089 137.716 48.9894 137.451 48.9894 137.177C48.9894 136.903 49.089 136.638 49.2697 136.432C49.3449 136.342 49.4373 136.267 49.5415 136.213C49.6457 136.158 49.7596 136.125 49.8768 136.115C49.994 136.104 50.112 136.117 50.2241 136.153C50.3361 136.189 50.44 136.246 50.5297 136.322L50.6297 136.412C50.8085 136.619 50.9069 136.884 50.9069 137.157C50.9069 137.431 50.8085 137.695 50.6297 137.902Z" fill="#3C3C3B"/>
<path d="M49.5797 148.532C49.5093 148.598 49.4163 148.635 49.3197 148.635C49.2231 148.635 49.1302 148.598 49.0597 148.532L46.4397 145.712C46.3672 145.627 46.3273 145.519 46.3273 145.407C46.3273 145.295 46.3672 145.187 46.4397 145.102C46.4733 145.067 46.5137 145.039 46.5584 145.02C46.6031 145.001 46.6512 144.991 46.6997 144.991C46.7483 144.991 46.7964 145.001 46.8411 145.02C46.8858 145.039 46.9261 145.067 46.9597 145.102L49.5697 147.922C49.6423 148.007 49.6821 148.115 49.6821 148.227C49.6821 148.339 49.6423 148.447 49.5697 148.532H49.5797Z" fill="#B1B1B1"/>
<path d="M48.5197 149.702C48.4493 149.768 48.3563 149.805 48.2597 149.805C48.1631 149.805 48.0702 149.768 47.9997 149.702L45.3997 146.882C45.3252 146.798 45.2841 146.69 45.2841 146.577C45.2841 146.465 45.3252 146.356 45.3997 146.272C45.4331 146.239 45.4729 146.212 45.5167 146.194C45.5604 146.176 45.6073 146.166 45.6547 146.166C45.7021 146.166 45.749 146.176 45.7928 146.194C45.8365 146.212 45.8763 146.239 45.9097 146.272L48.5197 149.092C48.5923 149.177 48.6321 149.285 48.6321 149.397C48.6321 149.509 48.5923 149.617 48.5197 149.702Z" fill="#B1B1B1"/>
<path d="M47.5197 150.882C47.4504 150.951 47.357 150.989 47.2597 150.989C47.1624 150.989 47.069 150.951 46.9997 150.882L44.3897 148.062C44.3152 147.978 44.274 147.87 44.274 147.757C44.274 147.645 44.3152 147.536 44.3897 147.452C44.459 147.384 44.5524 147.346 44.6497 147.346C44.747 147.346 44.8404 147.384 44.9097 147.452L47.5197 150.272C47.5922 150.357 47.6321 150.465 47.6321 150.577C47.6321 150.689 47.5922 150.797 47.5197 150.882Z" fill="#B1B1B1"/>
<path d="M84.0198 128.442C83.4572 128.447 82.9122 128.247 82.4868 127.879C82.0615 127.511 81.7852 127 81.7098 126.442C79.8498 117.952 73.7098 111.342 65.9798 109.442C65.4224 109.31 64.929 108.986 64.5856 108.527C64.2421 108.069 64.0702 107.504 64.0998 106.932C64.141 106.657 64.2367 106.393 64.3814 106.156C64.526 105.918 64.7166 105.712 64.942 105.549C65.1673 105.386 65.423 105.269 65.6939 105.206C65.9649 105.143 66.2456 105.135 66.5198 105.182C66.6256 105.198 66.7294 105.225 66.8298 105.262C76.0298 107.512 83.2698 115.352 85.4798 125.422C85.8098 126.932 85.0898 128.312 84.0298 128.422L84.0198 128.442Z" fill="#523530"/>
<path d="M79.0198 100.952L85.0998 92.3023L93.7198 99.6223L87.6398 108.272L79.0198 100.952Z" fill="#F7D2A6"/>
<path d="M86.6298 109.372C87.0218 109.73 87.2712 110.218 87.3318 110.746C87.3925 111.273 87.2603 111.805 86.9598 112.242L78.9598 123.882C78.8351 124.076 78.6734 124.242 78.484 124.373C78.2946 124.503 78.0812 124.595 77.8561 124.642C77.6311 124.69 77.3989 124.692 77.1729 124.649C76.947 124.606 76.7318 124.519 76.5398 124.392L76.3597 124.252C75.9639 123.897 75.7119 123.408 75.6511 122.88C75.5903 122.351 75.725 121.819 76.0297 121.382L84.0297 109.742C84.2832 109.354 84.6805 109.082 85.1342 108.987C85.588 108.891 86.0611 108.979 86.4497 109.232C86.5139 109.273 86.5742 109.32 86.6298 109.372Z" fill="#EAC79E"/>
<path d="M80.3998 111.522C80.7948 111.876 81.0466 112.363 81.1074 112.89C81.1682 113.417 81.0338 113.948 80.7298 114.382L76.4998 120.382C76.2447 120.769 75.8467 121.039 75.3931 121.132C74.9395 121.226 74.4672 121.136 74.0798 120.882C74.0156 120.841 73.9554 120.794 73.8998 120.742C73.5077 120.384 73.2583 119.896 73.1977 119.369C73.137 118.842 73.2692 118.31 73.5698 117.872L77.8098 111.872C77.9344 111.679 78.0961 111.512 78.2855 111.382C78.475 111.251 78.6884 111.16 78.9134 111.112C79.1384 111.065 79.3706 111.063 79.5966 111.106C79.8225 111.148 80.0378 111.236 80.2298 111.362L80.3998 111.522Z" fill="#EAC79E"/>
<path d="M77.7397 108.612C78.1352 108.968 78.3878 109.455 78.4504 109.983C78.5129 110.511 78.3812 111.044 78.0797 111.482L74.5197 116.552C74.2662 116.941 73.869 117.212 73.4153 117.308C72.9615 117.404 72.4884 117.315 72.0997 117.062L71.9097 116.922C71.5166 116.567 71.2662 116.081 71.2055 115.555C71.1447 115.028 71.2778 114.498 71.5797 114.062L75.1297 109.012C75.3832 108.624 75.7805 108.352 76.2342 108.257C76.688 108.161 77.1611 108.249 77.5497 108.502C77.616 108.534 77.6796 108.57 77.7397 108.612Z" fill="#EAC79E"/>
<path d="M74.9298 106.232C75.2793 106.547 75.5024 106.979 75.5576 107.446C75.6128 107.913 75.4963 108.385 75.2298 108.772L72.0798 113.262C71.8547 113.607 71.5024 113.849 71.0996 113.935C70.6968 114.022 70.2763 113.945 69.9298 113.722L69.7598 113.592C69.4076 113.277 69.1828 112.844 69.1275 112.374C69.0723 111.904 69.1904 111.431 69.4598 111.042L72.6098 106.562C72.7203 106.39 72.8637 106.242 73.0318 106.126C73.1999 106.01 73.3893 105.928 73.5891 105.885C73.7889 105.842 73.9952 105.84 74.1961 105.877C74.397 105.914 74.5886 105.991 74.7598 106.102L74.9298 106.232Z" fill="#EAC79E"/>
<path d="M74.5997 103.782L72.5997 106.672C72.3426 107.065 72.2317 107.536 72.2865 108.002C72.3414 108.468 72.5584 108.9 72.8998 109.222C73.0531 109.356 73.2313 109.457 73.424 109.521C73.6168 109.586 73.8204 109.611 74.0231 109.596C74.2257 109.581 74.4234 109.526 74.6048 109.435C74.7861 109.343 74.9475 109.217 75.0797 109.062L75.2097 108.892L74.8398 109.422C74.539 109.859 74.4076 110.39 74.4702 110.916C74.5328 111.443 74.785 111.928 75.1797 112.282C75.3529 112.433 75.5539 112.547 75.7714 112.619C75.9889 112.692 76.2186 112.72 76.4471 112.703C76.6757 112.687 76.8988 112.625 77.1034 112.522C77.3081 112.419 77.4903 112.276 77.6397 112.102L77.7797 111.912L77.4397 112.392C77.1371 112.829 77.0037 113.361 77.0644 113.889C77.1251 114.417 77.3758 114.905 77.7697 115.262C77.9437 115.413 78.1456 115.528 78.3639 115.6C78.5822 115.672 78.8126 115.701 79.0421 115.684C79.2715 115.668 79.4953 115.606 79.7008 115.503C79.9063 115.399 80.0895 115.256 80.2397 115.082L80.3797 114.892C80.0757 115.327 79.9414 115.858 80.0022 116.385C80.063 116.912 80.3147 117.398 80.7097 117.752C80.8829 117.903 81.0839 118.017 81.3014 118.089C81.5189 118.162 81.7486 118.19 81.9771 118.173C82.2057 118.157 82.4288 118.095 82.6334 117.992C82.8381 117.889 83.0203 117.746 83.1697 117.572C83.2252 117.513 83.2754 117.45 83.3197 117.382L86.0597 113.472L74.5997 103.782Z" fill="#F7D2A6"/>
<path d="M84.5897 99.3523L87.5197 101.782C88.6847 102.827 89.4289 104.26 89.613 105.814C89.7971 107.367 89.4084 108.935 88.5197 110.222L85.7797 114.112L74.2297 104.302L76.9697 100.402C77.7174 99.2619 78.8869 98.4646 80.2217 98.1853C81.5564 97.9059 82.9475 98.1674 84.0897 98.9123C84.2297 99.0723 84.4097 99.2023 84.5897 99.3523Z" fill="#F7D2A6"/>
<path opacity="0.1" d="M81.0398 174.142L63.8198 193.402C63.049 194.301 61.9535 194.859 60.7729 194.952C59.5924 195.046 58.4227 194.669 57.5198 193.902C57.3598 193.762 57.2098 193.612 57.0597 193.452L5.42976 137.612C4.59657 136.678 4.09814 135.492 4.01304 134.243C3.92795 132.993 4.26102 131.751 4.95976 130.712C18.6298 150.302 46.4198 172.182 81.0398 174.142Z" fill="black"/>
<path d="M25.0597 209.952L24.7097 209.852L23.6097 209.552L21.5197 208.962L20.5197 208.702C20.5197 208.212 20.5897 207.702 20.6197 207.222C20.8797 203.812 21.2597 200.342 22.8197 197.932L25.1097 198.262V204.482V205.552V209.812L25.0597 209.952Z" fill="#2F2E29"/>
<path d="M20.1197 242.712L17.2297 242.032C15.7797 235.082 16.9197 224.282 21.0197 210.442C21.1597 209.952 21.3097 209.442 21.4597 208.962C21.7097 208.142 21.9697 207.312 22.2297 206.482C23.0797 203.822 24.0397 201.092 25.0897 198.252H25.2097L27.5497 198.802C27.6341 198.818 27.7176 198.838 27.7997 198.862L28.6497 199.062L27.7797 203.492L27.4897 204.952L26.5997 209.512L20.1197 242.712Z" fill="#2F2E29"/>
<path d="M27.5197 198.832C26.4349 200.588 25.6002 202.486 25.0397 204.472C24.5397 205.992 24.0397 207.702 23.5697 209.562C23.5697 209.722 23.4797 209.882 23.4397 210.042C20.3197 222.292 17.9397 239.822 20.0797 242.712C22.0797 243.182 24.6497 239.932 27.7597 233.832C28.0497 233.232 28.3597 232.612 28.6797 231.942C28.8997 231.482 29.1297 231.002 29.3597 230.502C29.5897 230.002 29.9597 229.212 30.2597 228.502C30.4697 228.052 30.6797 227.562 30.8897 227.082C31.1897 226.412 31.4697 225.722 31.7797 225.002C32.0897 224.282 32.4897 223.322 32.8497 222.452L33.9897 219.592C35.8397 214.922 36.3897 211.282 36.1497 208.462C36.076 206.891 35.6327 205.36 34.8561 203.993C34.0794 202.625 32.9912 201.46 31.6797 200.592C30.7309 199.962 29.6972 199.471 28.6097 199.132C28.3097 199.022 28.0297 198.952 27.7797 198.882L27.5197 198.832Z" fill="#6B453F"/>
<path d="M193.13 154.842L152.27 151.922L156.27 84.6323L200.04 70.9723L193.13 154.842Z" fill="#F7EFEF"/>
<path d="M165.59 158.612L166.33 146.082L190.59 147.782L189.85 160.312L165.59 158.612Z" fill="#2F2E29"/>
<path d="M178.42 169.502L169.18 181.592L168.27 182.792L166.63 184.932L165.3 186.662L164.01 188.342L160.87 192.442L148.94 207.162L124.73 237.022L34.2997 232.702L33.4597 221.032L31.9897 200.782V200.332C48.2197 194.212 95.7697 200.672 116.6 207.652L136.06 166.422L137.87 162.632L138.43 161.422L142.43 152.952L142.73 152.312C143.412 150.67 144.186 149.067 145.05 147.512C145.561 146.587 146.125 145.692 146.74 144.832L147.21 144.202C147.28 144.122 147.32 144.042 147.39 143.962C147.46 143.882 147.59 143.692 147.7 143.572C148.906 142.073 150.356 140.788 151.99 139.772C152.313 139.559 152.647 139.362 152.99 139.182L153.32 139.022C153.871 138.75 154.442 138.523 155.03 138.342C158.445 137.342 162.064 137.263 165.52 138.112C165.87 138.192 166.23 138.202 166.6 138.272L166.96 139.102L168.32 142.202L168.38 142.332L169.13 144.052L170.13 146.412L170.43 147.092L170.7 147.712L171.19 148.842L172.19 151.062L173 153.452L173.22 154.102L174.95 159.302L175.01 159.502L176.82 164.852L178.42 169.502Z" fill="#2F2E29"/>
<path d="M254.86 296.322C254.53 296.662 254.2 296.992 253.86 297.322C253.52 297.652 253.09 298.102 252.68 298.482C250.76 300.382 248.68 302.022 246.53 302.552L245.03 300.552L248.87 295.982L249.22 295.572L249.54 295.192L252.17 292.062L252.26 291.942L252.45 292.282L253.09 293.332L254.29 295.332L254.86 296.322Z" fill="#2F2E29"/>
<path d="M277.74 274.162C274.52 280.382 267.07 287.482 255.52 294.642C255.11 294.912 254.7 295.172 254.28 295.422L252.19 296.672L251.11 297.302C249.18 298.412 247.11 299.502 245.02 300.612L244.96 300.502L243.58 298.362L243.42 298.132L242.91 297.352L246.27 294.722L247.35 293.902L250.8 291.202L275.92 271.582L277.74 274.162Z" fill="#2F2E29"/>
<path d="M276.03 271.522C275.81 275.262 263.31 286.402 253.5 293.112L253.11 293.382C251.8 294.272 250.55 295.062 249.39 295.752L248.9 296.032C247.271 297.082 245.485 297.865 243.61 298.352L243.45 298.122C243.31 297.872 243.15 297.612 242.99 297.322C242.396 296.263 241.935 295.135 241.62 293.962C241.499 293.526 241.412 293.082 241.36 292.632C241.048 290.831 241.231 288.978 241.89 287.272C242.212 286.408 242.642 285.588 243.17 284.832C244.72 282.572 247.35 280.302 251.58 278.232L254.18 276.962C254.98 276.592 255.77 276.222 256.54 275.882L257.54 275.452L258.54 275.012C259 274.802 259.45 274.602 259.89 274.432C260.53 274.162 261.16 273.912 261.77 273.642L263.15 273.092L264.99 272.382C270.96 270.192 274.86 269.722 276.03 271.522Z" fill="#6B453F"/>
<path d="M203.95 64.8323C211.5 80.0423 197.4 181.052 180.05 180.282L165.64 182.032C203.64 134.252 195.64 57.2123 195.64 57.2123L196.64 57.5823L203.95 64.8323Z" fill="#21201D"/>
<path d="M257.64 275.322L257.5 275.482L243.9 289.932L241.35 292.642L237.73 296.492C226.1 277.332 214.91 232.362 206 201.192L172.18 190.842L164.01 188.342L152.14 184.722C150.396 183.901 148.763 182.863 147.28 181.632C143.441 178.356 140.683 173.995 139.37 169.122C138.944 167.584 138.656 166.011 138.51 164.422C138.51 164.232 138.51 164.032 138.46 163.832C138.4 163.022 138.38 162.212 138.4 161.392C138.4 160.572 138.47 159.752 138.55 158.932L139.12 153.802L140.33 143.012L144.18 143.292L147.66 143.542L152.58 143.892H152.74L166.58 144.892L168.65 146.262L170.75 147.672L173 149.172L179.27 153.332L180.16 153.922L181.52 154.782L181.65 154.872L181.89 155.032L188.09 159.132L189.87 160.312L193.02 162.422L195.79 164.252L228.34 185.892L257.64 275.322Z" fill="#2F2E29"/>
<path d="M272.88 56.6722L269.01 60.4022C266.81 57.7422 264.68 55.0123 262.46 52.4023L266.22 48.7822L265.94 47.7822C265.548 46.0773 265.827 44.2869 266.72 42.7822C266.95 42.4122 270.3 37.9822 270.46 37.7822L272.07 39.9122L276.33 35.8022C280.01 40.0622 282.33 43.2322 285.4 47.4122L280.91 52.5322C277.52 56.2922 275.45 57.0622 272.88 56.6722Z" fill="#EAC79E"/>
<path d="M278.71 43.3923C278.528 43.5855 278.31 43.7407 278.068 43.8488C277.826 43.957 277.565 44.0159 277.3 44.0223C277.052 44.0271 276.806 43.9756 276.581 43.8716C276.356 43.7677 276.157 43.6141 276 43.4223L275.78 43.1523C275.461 42.7229 275.308 42.1924 275.35 41.6591C275.393 41.1258 275.627 40.6259 276.01 40.2523L279.72 36.4623C280.062 36.1017 280.533 35.8899 281.03 35.8723C281.263 35.8701 281.493 35.9202 281.704 36.0188C281.916 36.1175 282.102 36.2622 282.25 36.4423L282.71 36.9923C282.985 37.3688 283.115 37.8318 283.076 38.2964C283.037 38.761 282.833 39.1961 282.5 39.5223L278.71 43.3923Z" fill="#F7D2A6"/>
<path d="M275.68 40.6723C275.499 40.8643 275.283 41.0188 275.043 41.1269C274.802 41.2351 274.543 41.2946 274.28 41.3023C274.031 41.3057 273.784 41.2536 273.557 41.1498C273.331 41.0461 273.13 40.8932 272.97 40.7023L272.75 40.4323C272.431 40.0029 272.278 39.4724 272.32 38.9391C272.363 38.4058 272.597 37.9059 272.98 37.5323L276.7 33.7423C276.867 33.5602 277.069 33.414 277.294 33.3125C277.519 33.2111 277.763 33.1566 278.01 33.1523C278.241 33.1483 278.469 33.1965 278.679 33.2935C278.889 33.3905 279.073 33.5337 279.22 33.7123L279.68 34.2623C279.962 34.6307 280.102 35.089 280.072 35.5523C280.043 36.0156 279.847 36.4526 279.52 36.7823L275.68 40.6723Z" fill="#F7D2A6"/>
<path d="M280.96 46.8422C280.804 47.0184 280.614 47.1621 280.403 47.2651C280.191 47.368 279.961 47.4282 279.726 47.4421C279.491 47.456 279.255 47.4235 279.033 47.3463C278.811 47.2691 278.606 47.1488 278.43 46.9922C278.372 46.9475 278.318 46.8973 278.27 46.8422L278.05 46.5722C277.722 46.1562 277.568 45.6294 277.62 45.1022C277.669 44.5511 277.91 44.0346 278.3 43.6422L281.3 40.6422C281.594 40.3083 282.009 40.1048 282.454 40.0767C282.898 40.0486 283.335 40.198 283.67 40.4922L283.82 40.6422L284.28 41.1922C284.423 41.3708 284.529 41.5758 284.592 41.7954C284.656 42.015 284.675 42.245 284.65 42.4722C284.613 42.9528 284.403 43.4038 284.06 43.7422L280.96 46.8422Z" fill="#F7D2A6"/>
<path d="M283.26 49.5322C283.125 49.6683 282.965 49.7763 282.788 49.85C282.611 49.9237 282.421 49.9617 282.23 49.9617C282.038 49.9617 281.849 49.9237 281.672 49.85C281.495 49.7763 281.335 49.6683 281.2 49.5322L281.07 49.3922L280.88 49.1522C280.598 48.8132 280.451 48.3826 280.466 47.942C280.48 47.5015 280.656 47.0817 280.96 46.7622L283.24 44.4822C283.495 44.2282 283.84 44.0856 284.2 44.0856C284.56 44.0856 284.905 44.2282 285.16 44.4822L285.28 44.6122L285.68 45.0922C285.925 45.3893 286.053 45.7656 286.04 46.1505C286.027 46.5353 285.874 46.9022 285.61 47.1822L283.26 49.5322Z" fill="#F7D2A6"/>
<path d="M275.52 42.1723H273.52C273.349 42.1777 273.182 42.2219 273.032 42.3016C272.881 42.3813 272.75 42.4944 272.65 42.6323L272.22 43.2323C273.033 44.8031 273.263 46.6114 272.87 48.336C272.476 50.0606 271.484 51.5899 270.07 52.6523L272.91 56.6523L269.52 60.9923C267.11 58.1123 264.8 55.1223 262.38 52.2523L264.65 50.2523L266.22 48.7823L265.94 47.7823C265.536 46.0789 265.813 44.2854 266.71 42.7823C266.94 42.4023 270.3 37.9823 270.45 37.7823C270.573 37.6548 270.721 37.5537 270.884 37.4849C271.047 37.4162 271.223 37.3813 271.4 37.3823H276.91C277.261 37.3953 277.592 37.5467 277.832 37.8034C278.072 38.0601 278.201 38.4012 278.19 38.7523V39.2123C278.201 39.9834 277.927 40.7315 277.42 41.3123C277.182 41.5814 276.889 41.7972 276.562 41.9454C276.234 42.0936 275.879 42.1709 275.52 42.1723Z" fill="#F7D2A6"/>
<path d="M264.92 46.4623L259.49 51.9623L268.49 65.0223L273.75 59.2923L264.92 46.4623Z" fill="#E3DBDB"/>
<path d="M261.57 48.4223L271.57 62.9323C271.31 63.2123 271.05 63.4923 270.8 63.7923C259.54 76.1123 242.8 95.8923 236.45 94.6623C236.23 94.6623 227.03 91.6623 216.45 87.8823C215.26 87.4623 214.06 87.0123 212.85 86.5723C208.28 84.9123 203.62 83.1523 199.45 81.4723C196.01 80.1023 192.92 78.7723 190.45 77.6123C187.28 76.1023 183.45 74.3323 181.33 71.4723C178.54 67.7223 179.59 63.2923 182.88 60.0023C183.748 59.1362 184.696 58.3528 185.71 57.6623C188.52 55.7923 195.71 53.5923 198.86 54.7623C203.48 56.4723 234.19 73.3123 234.19 73.3123C238.08 70.7823 252.15 57.5823 261.57 48.4223Z" fill="#21201D"/>
<path d="M141.46 142.722C141.97 139.662 142.07 138.502 142.46 136.982L192.39 147.152C192.5 148.292 192.01 150.042 191.39 152.892L141.46 142.722Z" fill="#21201D"/>
<path d="M173.24 148.512L174.02 143.922L179.87 145.122L179.1 149.712L173.24 148.512Z" fill="#E3DBDB"/>
<path opacity="0.07" d="M143.52 165.072C144.202 165.703 144.92 166.294 145.67 166.842C144.98 166.232 144.28 165.652 143.52 165.072Z" fill="black"/>
<path d="M135.02 135.092L183.24 145.292C183.84 138.582 196.05 107.482 198.03 83.8523C198.744 75.0716 198.266 66.2348 196.61 57.5823L189.91 54.9623L169.76 47.0623C169.76 47.0623 136.52 125.342 135.02 135.092Z" fill="#F7EFEF"/>
<path d="M174.66 44.5423L179.57 25.8723C186.8 28.3323 196.51 31.4423 198.29 31.6623C198.29 31.6623 194.81 45.2723 193.78 51.2523C192.43 62.7823 180.34 60.9923 174.66 44.5423Z" fill="#EAC79E"/>
<path d="M188.06 58.6123L193.35 66.5223C195.09 61.9923 196.54 59.5223 196.53 56.5223L193.69 51.5223C193.52 54.8923 191.39 58.1723 188.06 58.6123Z" fill="#E3DBDB"/>
<path d="M188.06 58.6123L179.43 68.0923C175.18 61.4223 170.21 52.7423 169.76 47.0923L175.19 42.5723C174.36 47.4123 182.13 57.6723 188.06 58.6123Z" fill="#E3DBDB"/>
<path d="M193.52 111.202C199.83 97.0723 201.65 67.5423 201.65 67.5423C201.65 67.5423 197.48 64.5423 197.99 64.0823L201.77 64.0023L198.94 54.7823L193.78 51.2723C196.35 57.4723 198.06 87.0323 193.52 111.202Z" fill="#4A4842"/>
<path d="M176.25 26.9423C175.34 22.8723 175.58 21.1923 176.01 16.9423C179.01 -2.11771 188.67 2.11228 195.13 3.12228C202.62 4.66228 209.03 11.3823 207.79 24.1923C207.452 24.9271 207.071 25.6417 206.65 26.3323L208.22 33.8423C208.287 34.1036 208.303 34.3757 208.265 34.643C208.227 34.9103 208.137 35.1674 207.999 35.3997C207.861 35.632 207.679 35.8348 207.463 35.9966C207.247 36.1583 207.001 36.2758 206.74 36.3423H206.52L204.79 36.5823C204.59 37.8723 204.03 43.3923 204.03 43.3923C203.5 46.6223 201.57 51.4723 197.69 50.4723C186.52 47.5523 182.97 41.0623 185.18 30.2323C182.52 29.5123 176.92 29.9323 176.25 26.9423Z" fill="#F7D2A6"/>
<path d="M177.05 35.8823C185.67 39.9523 183.52 22.7823 183.52 22.7823C186.058 22.2444 188.631 21.8902 191.22 21.7223C189.63 10.3823 192.04 8.56228 205.62 10.9323C210.73 2.93228 198.69 -0.367724 190.79 0.0322762C181.99 0.472276 175.35 4.14228 172.98 13.4723C171.52 19.3423 169.44 30.7823 177.05 35.8823Z" fill="#21201D"/>
<path d="M181.73 24.6023C181.35 27.6023 183.22 31.4223 185 31.6923C186.78 31.9623 187.25 29.4623 187.66 26.4723C187.93 24.4723 188.38 21.7723 186.5 20.8423C184.86 20.0323 182.29 20.2023 181.73 24.6023Z" fill="#F7D2A6"/>
<path d="M84.0398 90.4022L96.8398 99.3522L92.1898 106.352L79.6398 97.5822L84.0398 90.4022Z" fill="#E3DBDB"/>
<path d="M153.67 67.1223C152.629 67.7827 151.506 68.3038 150.33 68.6723C146.363 69.4215 142.356 69.9423 138.33 70.2323L133.78 70.6623C123.53 71.5723 112.45 72.3523 112.45 72.3523C112.45 72.3523 112.23 70.0423 111.6 66.9123C110.66 62.1323 114.6 54.5723 111.22 51.1323C111.6 50.9123 135.91 47.3523 147.83 45.6523C151.167 45.2733 154.539 45.9407 157.48 47.5623C157.762 47.7134 158.036 47.8803 158.3 48.0623C162.09 50.5623 162.44 55.0623 160.36 59.4223C158.898 62.5666 156.579 65.2353 153.67 67.1223Z" fill="#21201D"/>
<path d="M126.13 65.4823C124.22 67.5323 106.67 88.5723 97.9598 100.092C96.7998 101.612 95.7498 103.092 94.8098 104.372L93.8998 103.772L92.2598 102.682L82.9098 96.5523L81.0298 95.3123L80.2198 94.7723C89.78 79.6916 100.128 65.1248 111.22 51.1323C116 50.7223 121.86 54.4923 124.6 59.5623C125.602 61.3744 126.129 63.4113 126.13 65.4823Z" fill="#21201D"/>
<path d="M83.8298 93.3722C83.6394 93.1329 83.5426 92.8326 83.5573 92.5272C83.572 92.2218 83.6973 91.9321 83.9098 91.7122C84.0027 91.6185 84.1134 91.5441 84.2352 91.4933C84.3571 91.4426 84.4878 91.4164 84.6198 91.4164C84.7518 91.4164 84.8825 91.4426 85.0044 91.4933C85.1262 91.5441 85.2368 91.6185 85.3298 91.7122C85.3651 91.7404 85.3955 91.7742 85.4198 91.8122C85.6122 92.0507 85.7104 92.3514 85.6956 92.6575C85.6809 92.9635 85.5542 93.2534 85.3398 93.4722C85.2468 93.566 85.1362 93.6404 85.0144 93.6911C84.8925 93.7419 84.7618 93.768 84.6298 93.768C84.4978 93.768 84.3671 93.7419 84.2452 93.6911C84.1233 93.6404 84.0127 93.566 83.9198 93.4722L83.8298 93.3722Z" fill="white"/>
<path d="M85.7798 89.8722C85.5907 89.6318 85.4956 89.3307 85.5122 89.0253C85.5287 88.7199 85.6558 88.4309 85.8698 88.2122C85.9627 88.1185 86.0733 88.0441 86.1952 87.9933C86.3171 87.9426 86.4478 87.9164 86.5798 87.9164C86.7118 87.9164 86.8425 87.9426 86.9644 87.9933C87.0862 88.0441 87.1968 88.1185 87.2898 88.2122L87.3798 88.3222C87.5722 88.5607 87.6703 88.8614 87.6556 89.1675C87.6408 89.4735 87.5142 89.7634 87.2998 89.9822C87.2066 90.0775 87.0954 90.1532 86.9726 90.2048C86.8499 90.2565 86.718 90.2831 86.5848 90.2831C86.4516 90.2831 86.3197 90.2565 86.1969 90.2048C86.0741 90.1532 85.9629 90.0775 85.8698 89.9822L85.7798 89.8722Z" fill="white"/>
<path opacity="0.1" d="M184.52 147.352C186.562 141.931 188.298 136.399 189.72 130.782C183.16 123.542 175.16 104.942 172.93 95.5323C170.58 85.6323 170.14 75.3123 169.7 65.1023C165.77 91.7623 154.78 113.382 151.89 140.202L184.52 147.352Z" fill="#1D1D1B"/>
<path opacity="0.2" d="M252.7 298.502C251.043 300.374 248.922 301.774 246.55 302.562L245.05 300.622L244.99 300.512L243.61 298.362C243.551 298.29 243.497 298.213 243.45 298.132L242.95 297.362C242.351 296.305 241.891 295.176 241.58 294.002C241.46 293.562 241.37 293.115 241.31 292.662L237.69 296.512C226.06 277.342 214.87 232.382 205.96 201.202L172.14 190.862L163.97 188.362L160.84 192.462L148.91 207.182L124.69 237.042L34.2598 232.722C82.3198 228.022 104.88 231.642 119.45 231.132C125.45 216.522 118.51 207.902 116.53 207.662L135.99 166.432C134.517 167.439 132.903 168.221 131.2 168.752C132.74 164.672 133.93 161.612 134.39 160.492C135.516 157.984 137.112 155.713 139.09 153.802C141.161 151.795 143.127 149.682 144.98 147.472C145.618 146.632 146.184 145.739 146.67 144.802C146.79 144.582 146.9 144.362 147 144.132C147 144.132 147.09 144.132 147.14 144.132C147.99 144.282 149.79 144.642 151.95 145.042C152.17 145.042 152.4 145.132 152.63 145.172C157.06 146.012 162.56 147.062 163.97 147.342L166.19 147.792C167.92 148.122 169.62 148.482 171.19 148.792L171.89 148.922L172.89 149.122C173.56 149.252 174.23 149.382 174.89 149.522L176.78 149.902L180.66 150.692L181.25 150.812L182.62 151.092L182.94 151.162H183.03C183.03 151.162 182.98 151.262 182.91 151.452C182.914 151.475 182.914 151.499 182.91 151.522C182.85 151.652 182.8 151.812 182.72 151.982C182.64 152.152 182.56 152.362 182.48 152.562C182.428 152.669 182.384 152.779 182.35 152.892C182.25 153.102 182.16 153.322 182.08 153.522C182 153.722 181.93 153.902 181.89 154.002C181.881 154.028 181.881 154.056 181.89 154.082C181.81 154.262 181.76 154.402 181.72 154.502C181.689 154.564 181.662 154.627 181.64 154.692L181.44 154.742C179.83 155.102 176.79 154.652 173.2 154.012C171.3 153.682 169.2 153.302 167.2 152.952H167.09L165.93 152.782C162.633 152.18 159.276 151.972 155.93 152.162C155.307 152.221 154.689 152.321 154.08 152.462C149.67 153.522 144.65 159.162 143.7 165.152C143.231 167.662 143.67 170.257 144.94 172.472C147.3 176.922 156.05 181.162 166.65 184.882C182.77 190.542 203.2 195.022 211.93 197.272C216.03 216.012 221.16 235.812 226.93 253.992C230.14 263.992 233.62 273.992 238.93 282.842C239.84 284.352 240.79 285.842 241.82 287.232C242.47 288.142 243.15 289.032 243.82 289.872C244.92 291.268 246.095 292.604 247.34 293.872C247.93 294.462 248.54 295.062 249.17 295.612C249.2 295.667 249.245 295.712 249.3 295.742C249.87 296.272 250.45 296.742 251.06 297.282C251.583 297.72 252.13 298.127 252.7 298.502Z" fill="black"/>
<path d="M138.39 172.462C134.59 173.632 130.02 173.542 124.46 171.292C115.57 167.702 101.76 160.472 101.76 160.472C131.02 124.702 136.24 111.112 143.14 88.9723C145.162 82.4521 146.808 75.8212 148.07 69.1123C149.7 60.4723 150.24 54.4123 150.65 52.7623C150.65 52.6423 151.3 45.7623 151.31 45.7623H151.94L167.4 44.9323L169.97 46.9323L170.65 47.4522C171.148 49.3868 171.41 51.3747 171.43 53.3722C171.52 60.3942 171.092 67.4132 170.15 74.3722C169.93 76.2922 169.68 78.2423 169.39 80.2423L169.34 80.6222C168.79 84.3922 168.16 88.3223 167.45 92.3323C166.56 97.2223 165.55 102.192 164.45 107.122V107.182C159.9 126.932 156.28 166.942 138.39 172.462Z" fill="#21201D"/>
<path d="M164.42 107.122C166.72 92.5123 166.36 61.3123 164.58 60.9123C164.58 60.9123 171.13 58.7123 170.8 58.1123L164.19 57.0323L167.39 44.8723L173.91 43.6023C175.75 61.8323 172.07 83.5023 164.42 107.122Z" fill="#4A4842"/>
<path d="M189.73 67.7823L185.62 67.4823L184.8 62.2323L188.06 58.6423L190.57 62.4023L189.73 67.7823Z" fill="#B35532"/>
<path d="M189.72 67.7823L185.62 67.4823C180.95 80.7223 161.81 82.7223 151.09 81.1023L145.68 90.1523L152.92 94.4323C170.79 95.0023 187.39 83.9323 189.72 67.7823Z" fill="#E46C41"/>
<path d="M166.52 30.1523L169.84 30.6623L168.37 32.9423L172.37 33.5223L171.42 34.3223C173.89 35.3223 175.42 36.2423 178.06 36.6623C178.553 36.807 179.077 36.807 179.57 36.6623C179.923 36.4618 180.217 36.1709 180.421 35.8194C180.625 35.468 180.731 35.0686 180.73 34.6623C180.738 33.8213 180.6 32.9854 180.32 32.1923C179.17 28.1223 178.16 23.8323 178.82 19.6223C179.56 15.8748 181.189 12.3597 183.57 9.37229C185.79 6.37229 188.33 3.62229 190.43 0.502293C186.03 -0.00770712 181.64 1.98229 178.13 4.93229C174.62 7.88229 172.85 11.5523 170.13 15.3823L171.13 15.1623L168.73 19.1623L170.52 18.5223C169.269 22.1823 167.149 25.4836 164.34 28.1423H168.05L166.52 30.1523Z" fill="#21201D"/>
</g>
<defs>
<filter id="filter0_d" x="0" y="0" width="290.041" height="310.562" filterUnits="userSpaceOnUse" color-interpolation-filters="sRGB">
<feFlood flood-opacity="0" result="BackgroundImageFix"/>
<feColorMatrix in="SourceAlpha" type="matrix" values="0 0 0 0 0 0 0 0 0 0 0 0 0 0 0 0 0 0 127 0"/>
<feOffset dy="4"/>
<feGaussianBlur stdDeviation="2"/>
<feColorMatrix type="matrix" values="0 0 0 0 0 0 0 0 0 0 0 0 0 0 0 0 0 0 0.25 0"/>
<feBlend mode="normal" in2="BackgroundImageFix" result="effect1_dropShadow"/>
<feBlend mode="normal" in="SourceGraphic" in2="effect1_dropShadow" result="shape"/>
</filter>
</defs>
</svg>
