<svg width="148" height="259" viewBox="0 0 148 259" fill="none" xmlns="http://www.w3.org/2000/svg">
<path d="M99.13 249.07C100.493 246.849 101.398 244.378 101.793 241.802C102.188 239.226 102.065 236.597 101.43 234.07C101.232 233.207 101.267 232.307 101.531 231.461C101.794 230.616 102.278 229.856 102.932 229.259C103.586 228.662 104.387 228.249 105.253 228.063C106.119 227.877 107.018 227.924 107.86 228.2L136.77 237.6C165.89 147.96 132.1 53 59.77 0.449997L41.86 25.09C41.3431 25.804 41.0241 26.6419 40.9354 27.5189C40.8467 28.3959 40.9914 29.2807 41.3549 30.0838C41.7183 30.8868 42.2876 31.5795 43.005 32.0916C43.7224 32.6038 44.5625 32.9171 45.44 33C48.9253 33.2361 52.284 34.3998 55.1682 36.3706C58.0525 38.3413 60.3573 41.0475 61.8438 44.2087C63.3304 47.3698 63.9446 50.871 63.6229 54.3494C63.3012 57.8278 62.0552 61.1569 60.0141 63.9917C57.973 66.8266 55.211 69.0642 52.0142 70.4725C48.8175 71.8809 45.3023 72.4089 41.8328 72.0017C38.3634 71.5945 35.0659 70.2671 32.2821 68.1569C29.4983 66.0466 27.3293 63.2304 26 60C25.6586 59.1771 25.1035 58.4603 24.3922 57.9238C23.6808 57.3874 22.839 57.0508 21.9539 56.9488C21.0689 56.8469 20.1726 56.9832 19.3579 57.3439C18.5432 57.7045 17.8396 58.2762 17.32 59L0.52002 82C19.5213 95.8383 33.666 115.325 40.9354 137.679C48.2048 160.033 48.2274 184.112 41 206.48L68.12 215.29C68.9706 215.564 69.7322 216.061 70.3256 216.729C70.9189 217.397 71.3224 218.212 71.4939 219.089C71.6654 219.966 71.5988 220.873 71.3009 221.716C71.003 222.558 70.4847 223.306 69.8 223.88C67.7855 225.526 66.119 227.556 64.8977 229.853C63.6764 232.15 62.9248 234.667 62.6867 237.257C62.4486 239.848 62.7288 242.46 63.5109 244.941C64.293 247.422 65.5615 249.722 67.2422 251.708C68.9229 253.693 70.9822 255.324 73.2999 256.505C75.6176 257.686 78.1474 258.394 80.7416 258.587C83.3357 258.78 85.9424 258.454 88.4093 257.629C90.8763 256.803 93.1541 255.495 95.11 253.78C96.689 252.431 98.0456 250.841 99.13 249.07V249.07Z" fill="url(#paint0_linear)"/>
<path d="M63.7244 131.8H70.0642C71.4939 131.8 72.5837 131.91 73.3337 132.128C74.3416 132.425 75.2048 132.953 75.9236 133.71C76.6423 134.468 77.1892 135.398 77.5642 136.5C77.9392 137.593 78.1267 138.945 78.1267 140.554C78.1267 141.968 77.9509 143.187 77.5994 144.21C77.1697 145.46 76.5564 146.472 75.7595 147.246C75.158 147.832 74.3455 148.289 73.322 148.617C72.5564 148.859 71.533 148.98 70.2517 148.98H63.7244V131.8ZM67.1931 134.707V146.085H69.783C70.7517 146.085 71.4509 146.031 71.8806 145.921C72.4431 145.781 72.908 145.542 73.2751 145.207C73.6501 144.871 73.9548 144.32 74.1892 143.554C74.4236 142.781 74.5408 141.73 74.5408 140.402C74.5408 139.074 74.4236 138.054 74.1892 137.343C73.9548 136.632 73.6267 136.078 73.2048 135.679C72.783 135.281 72.2478 135.011 71.5994 134.871C71.115 134.761 70.1658 134.707 68.7517 134.707H67.1931ZM84.2087 148.98H80.9158V136.535H83.9744V138.304C84.4978 137.468 84.9666 136.917 85.3806 136.652C85.8025 136.386 86.2791 136.253 86.8103 136.253C87.5603 136.253 88.283 136.46 88.9783 136.875L87.9587 139.746C87.4041 139.386 86.8884 139.207 86.4119 139.207C85.9509 139.207 85.5603 139.335 85.24 139.593C84.9197 139.843 84.6658 140.3 84.4783 140.964C84.2986 141.628 84.2087 143.019 84.2087 145.136V148.98ZM90.408 134.847V131.8H93.7009V134.847H90.408ZM90.408 148.98V136.535H93.7009V148.98H90.408ZM100.51 148.98L95.4939 136.535H98.9509L101.295 142.886L101.974 145.007C102.154 144.468 102.267 144.113 102.314 143.941C102.424 143.589 102.541 143.238 102.666 142.886L105.033 136.535H108.42L103.474 148.98H100.51ZM117.654 145.019L120.935 145.57C120.513 146.773 119.845 147.691 118.931 148.324C118.025 148.949 116.888 149.261 115.521 149.261C113.357 149.261 111.756 148.554 110.717 147.14C109.896 146.007 109.486 144.578 109.486 142.851C109.486 140.789 110.025 139.175 111.103 138.011C112.181 136.839 113.545 136.253 115.193 136.253C117.045 136.253 118.506 136.867 119.576 138.093C120.646 139.312 121.158 141.183 121.111 143.707H112.861C112.885 144.683 113.15 145.445 113.658 145.992C114.166 146.531 114.799 146.8 115.556 146.8C116.072 146.8 116.506 146.66 116.857 146.378C117.209 146.097 117.474 145.644 117.654 145.019ZM117.842 141.691C117.818 140.738 117.572 140.015 117.103 139.523C116.635 139.023 116.064 138.773 115.392 138.773C114.674 138.773 114.08 139.035 113.611 139.558C113.142 140.082 112.912 140.792 112.92 141.691H117.842Z" fill="white"/>
<defs>
<linearGradient id="paint0_linear" x1="-198.475" y1="119.973" x2="55.2812" y2="119.973" gradientUnits="userSpaceOnUse">
<stop stop-color="#469DAE"/>
<stop offset="1" stop-color="#80C0C3"/>
</linearGradient>
</defs>
</svg>
