<svg width="333" height="326" viewBox="0 0 333 326" fill="none" 
    xmlns="http://www.w3.org/2000/svg">
    <path d="M167.748 26.971C167.397 26.7164 166.923 26.7164 166.572 26.971L21.7823 132.171C21.4318 132.426 21.2852 132.877 21.4191 133.289L76.7191 303.499C76.8529 303.911 77.2369 304.19 77.6701 304.19H256.64C257.073 304.19 257.457 303.911 257.591 303.499L312.901 133.289C313.035 132.877 312.888 132.426 312.538 132.171L167.748 26.971Z" stroke="" stroke-width="2" stroke-miterlimit="10" stroke-linejoin="round"/>
    <path d="M167.748 49.551C167.397 49.2963 166.923 49.2963 166.572 49.551L42.6122 139.611C42.2617 139.866 42.115 140.317 42.2489 140.729L89.5989 286.459C89.7328 286.871 90.1167 287.15 90.55 287.15H243.77C244.203 287.15 244.587 286.871 244.721 286.459L292.071 140.729C292.205 140.317 292.058 139.866 291.708 139.611L167.748 49.551Z" stroke="" stroke-width="2" stroke-miterlimit="10" stroke-linejoin="round"/>
    <path d="M167.748 71.2709C167.397 71.0163 166.923 71.0163 166.572 71.2709L63.5721 146.101C63.2217 146.356 63.075 146.807 63.2088 147.219L102.549 268.309C102.683 268.721 103.067 269 103.5 269H230.82C231.253 269 231.637 268.721 231.771 268.309L271.111 147.219C271.245 146.807 271.098 146.356 270.748 146.101L167.748 71.2709Z" stroke="" stroke-width="2" stroke-miterlimit="10" stroke-linejoin="round"/>
    <path d="M167.748 91.7509C167.397 91.4963 166.923 91.4963 166.572 91.7509L83.6422 152.001C83.2917 152.256 83.145 152.707 83.2789 153.119L114.959 250.599C115.093 251.011 115.477 251.29 115.91 251.29H218.41C218.843 251.29 219.227 251.011 219.361 250.599L251.031 153.119C251.165 152.707 251.018 152.256 250.668 152.001L167.748 91.7509Z" stroke="" stroke-width="2" stroke-miterlimit="10" stroke-linejoin="round"/>
    <path d="M167.748 114.541C167.397 114.286 166.923 114.286 166.572 114.541L104.702 159.491C104.352 159.746 104.205 160.197 104.339 160.609L127.969 233.329C128.103 233.741 128.487 234.02 128.92 234.02H205.39C205.823 234.02 206.207 233.741 206.341 233.329L229.971 160.609C230.105 160.197 229.958 159.746 229.608 159.491L167.748 114.541Z" stroke="" stroke-width="2" stroke-miterlimit="10" stroke-linejoin="round"/>
    <path d="M167.748 136.081C167.397 135.826 166.923 135.826 166.572 136.081L125.342 166.031C124.992 166.286 124.845 166.737 124.979 167.149L140.729 215.629C140.863 216.041 141.247 216.32 141.68 216.32H192.64C193.073 216.32 193.457 216.041 193.591 215.629L209.341 167.149C209.475 166.737 209.328 166.286 208.978 166.031L167.748 136.081Z" stroke="" stroke-width="2" stroke-miterlimit="10" stroke-linejoin="round"/>
    <path d="M167.748 157.591C167.397 157.336 166.923 157.336 166.572 157.591L145.732 172.741C145.382 172.996 145.235 173.447 145.369 173.859L153.329 198.359C153.463 198.771 153.847 199.05 154.28 199.05H180.04C180.473 199.05 180.857 198.771 180.991 198.359L188.951 173.859C189.085 173.447 188.938 172.996 188.588 172.741L167.748 157.591Z" stroke="" stroke-width="2" stroke-miterlimit="10" stroke-linejoin="round"/>
    <path d="M161.576 4.17035H166.68C167.831 4.17035 168.708 4.2584 169.312 4.43449C170.123 4.67348 170.818 5.09799 171.396 5.70803C171.975 6.31807 172.415 7.06647 172.717 7.95322C173.019 8.83369 173.17 9.9217 173.17 11.2172C173.17 12.3556 173.028 13.3367 172.745 14.1605C172.4 15.1668 171.906 15.9812 171.264 16.6038C170.78 17.0755 170.126 17.4434 169.302 17.7076C168.686 17.9025 167.862 18 166.831 18H161.576V4.17035ZM164.368 6.50988V15.6699H166.453C167.233 15.6699 167.796 15.6259 168.142 15.5378C168.595 15.4246 168.969 15.2328 169.264 14.9624C169.566 14.692 169.812 14.2486 170 13.6322C170.189 13.0096 170.283 12.1638 170.283 11.0946C170.283 10.0255 170.189 9.20475 170 8.63244C169.812 8.06014 169.547 7.61361 169.208 7.29287C168.868 6.97213 168.437 6.75516 167.915 6.64195C167.526 6.55391 166.761 6.50988 165.623 6.50988H164.368Z" fill="#59B7B7" stroke="none"/>
    <path d="M62.575 320.88V307.05H68.4521C69.93 307.05 71.0023 307.176 71.6689 307.428C72.3419 307.673 72.8796 308.113 73.2821 308.748C73.6846 309.384 73.8858 310.11 73.8858 310.928C73.8858 311.965 73.5808 312.824 72.9708 313.503C72.3607 314.176 71.4488 314.6 70.235 314.776C70.8388 315.129 71.3356 315.515 71.7255 315.937C72.1217 316.358 72.6532 317.107 73.3198 318.182L75.0084 320.88H71.6689L69.6501 317.871C68.9332 316.795 68.4426 316.119 68.1785 315.842C67.9144 315.559 67.6345 315.368 67.3389 315.267C67.0433 315.16 66.5748 315.107 65.9333 315.107H65.3673V320.88H62.575ZM65.3673 312.899H67.4333C68.7728 312.899 69.6093 312.843 69.9426 312.729C70.2759 312.616 70.5369 312.421 70.7256 312.144C70.9142 311.868 71.0086 311.522 71.0086 311.107C71.0086 310.641 70.8828 310.267 70.6312 309.984C70.386 309.695 70.0369 309.513 69.5841 309.437C69.3577 309.406 68.6785 309.39 67.5465 309.39H65.3673V312.899Z" fill="#59B7B7" stroke="none"/>
    <path d="M1.40561 117.67V103.84H5.88656C7.58461 103.84 8.69148 103.91 9.20719 104.048C9.99961 104.255 10.6631 104.708 11.1977 105.406C11.7322 106.098 11.9995 106.994 11.9995 108.095C11.9995 108.944 11.8454 109.658 11.5373 110.236C11.2291 110.815 10.8361 111.271 10.3581 111.604C9.88641 111.931 9.40529 112.148 8.91475 112.255C8.24811 112.387 7.28273 112.453 6.01863 112.453H4.19795V117.67H1.40561ZM4.19795 106.18V110.104H5.72619C6.82678 110.104 7.5626 110.032 7.93365 109.887C8.30471 109.743 8.594 109.516 8.80154 109.208C9.01537 108.9 9.12229 108.541 9.12229 108.133C9.12229 107.63 8.97449 107.214 8.67891 106.887C8.38332 106.56 8.00912 106.356 7.55631 106.274C7.22299 106.211 6.5532 106.18 5.54695 106.18H4.19795ZM13.5844 113.17L16.3012 112.906C16.4648 113.818 16.7949 114.488 17.2918 114.915C17.7949 115.343 18.471 115.557 19.32 115.557C20.2193 115.557 20.8954 115.368 21.3482 114.991C21.8073 114.607 22.0369 114.161 22.0369 113.651C22.0369 113.324 21.9394 113.048 21.7444 112.821C21.5558 112.588 21.2224 112.387 20.7445 112.217C20.4174 112.104 19.6722 111.903 18.5087 111.614C17.0119 111.243 15.9616 110.787 15.3579 110.246C14.5089 109.485 14.0844 108.557 14.0844 107.463C14.0844 106.759 14.2825 106.101 14.6787 105.491C15.0812 104.875 15.6566 104.406 16.405 104.086C17.1597 103.765 18.0685 103.605 19.1313 103.605C20.8671 103.605 22.1721 103.985 23.0463 104.746C23.9267 105.507 24.389 106.523 24.433 107.793L21.6407 107.916C21.5212 107.205 21.2633 106.696 20.8671 106.387C20.4772 106.073 19.8892 105.916 19.103 105.916C18.2917 105.916 17.6565 106.082 17.1974 106.416C16.9019 106.63 16.7541 106.916 16.7541 107.274C16.7541 107.601 16.8924 107.881 17.1691 108.114C17.5213 108.409 18.3766 108.718 19.7351 109.038C21.0935 109.359 22.0966 109.692 22.7444 110.038C23.3985 110.378 23.9079 110.846 24.2726 111.444C24.6437 112.035 24.8292 112.768 24.8292 113.642C24.8292 114.434 24.6091 115.176 24.1689 115.868C23.7286 116.56 23.106 117.076 22.301 117.415C21.496 117.749 20.4929 117.915 19.2917 117.915C17.5433 117.915 16.2006 117.513 15.2636 116.708C14.3265 115.897 13.7668 114.717 13.5844 113.17ZM26.4707 113.17L29.1875 112.906C29.3511 113.818 29.6812 114.488 30.1781 114.915C30.6812 115.343 31.3573 115.557 32.2063 115.557C33.1056 115.557 33.7817 115.368 34.2345 114.991C34.6936 114.607 34.9232 114.161 34.9232 113.651C34.9232 113.324 34.8257 113.048 34.6307 112.821C34.442 112.588 34.1087 112.387 33.6308 112.217C33.3037 112.104 32.5585 111.903 31.395 111.614C29.8982 111.243 28.8479 110.787 28.2442 110.246C27.3952 109.485 26.9706 108.557 26.9706 107.463C26.9706 106.759 27.1687 106.101 27.565 105.491C27.9675 104.875 28.5429 104.406 29.2913 104.086C30.046 103.765 30.9548 103.605 32.0176 103.605C33.7534 103.605 35.0584 103.985 35.9326 104.746C36.813 105.507 37.2753 106.523 37.3193 107.793L34.527 107.916C34.4075 107.205 34.1496 106.696 33.7534 106.387C33.3635 106.073 32.7754 105.916 31.9893 105.916C31.178 105.916 30.5428 106.082 30.0837 106.416C29.7881 106.63 29.6404 106.916 29.6404 107.274C29.6404 107.601 29.7787 107.881 30.0554 108.114C30.4076 108.409 31.2629 108.718 32.6214 109.038C33.9798 109.359 34.9829 109.692 35.6307 110.038C36.2847 110.378 36.7942 110.846 37.1589 111.444C37.53 112.035 37.7155 112.768 37.7155 113.642C37.7155 114.434 37.4954 115.176 37.0552 115.868C36.6149 116.56 35.9923 117.076 35.1873 117.415C34.3823 117.749 33.3792 117.915 32.178 117.915C30.4296 117.915 29.0869 117.513 28.1498 116.708C27.2128 115.897 26.653 114.717 26.4707 113.17Z" fill="#59B7B7" stroke="none" />
    <path d="M314.561 117.67V103.84H317.353V117.67H314.561ZM319.315 113.17L322.032 112.906C322.196 113.818 322.526 114.488 323.023 114.915C323.526 115.343 324.202 115.557 325.051 115.557C325.95 115.557 326.626 115.368 327.079 114.991C327.538 114.607 327.768 114.161 327.768 113.651C327.768 113.324 327.67 113.048 327.475 112.821C327.287 112.588 326.953 112.387 326.475 112.217C326.148 112.104 325.403 111.903 324.24 111.614C322.743 111.243 321.692 110.787 321.089 110.246C320.24 109.485 319.815 108.557 319.815 107.463C319.815 106.759 320.013 106.101 320.41 105.491C320.812 104.875 321.387 104.406 322.136 104.086C322.891 103.765 323.799 103.605 324.862 103.605C326.598 103.605 327.903 103.985 328.777 104.746C329.658 105.507 330.12 106.523 330.164 107.793L327.372 107.916C327.252 107.205 326.994 106.696 326.598 106.387C326.208 106.073 325.62 105.916 324.834 105.916C324.023 105.916 323.387 106.082 322.928 106.416C322.633 106.63 322.485 106.916 322.485 107.274C322.485 107.601 322.623 107.881 322.9 108.114C323.252 108.409 324.107 108.718 325.466 109.038C326.824 109.359 327.827 109.692 328.475 110.038C329.129 110.378 329.639 110.846 330.003 111.444C330.375 112.035 330.56 112.768 330.56 113.642C330.56 114.434 330.34 115.176 329.9 115.868C329.459 116.56 328.837 117.076 328.032 117.415C327.227 117.749 326.224 117.915 325.023 117.915C323.274 117.915 321.931 117.513 320.994 116.708C320.057 115.897 319.498 114.717 319.315 113.17Z" fill="#59B7B7" stroke="none"/>
    <path d="M269.679 317.295H263.924L262.632 320.88H260.764L266.009 307.145H267.594L272.849 320.88H270.99L269.679 317.295ZM264.472 315.805H269.141L266.802 309.38L264.472 315.805Z" stroke="none" fill="#59B7B7"/>
</svg>
