<svg width="103" height="184" viewBox="0 0 103 184" fill="none" xmlns="http://www.w3.org/2000/svg">
<path d="M96.77 92.11C96.76 81.3364 98.3886 70.6239 101.6 60.34C102.953 56.1581 102.838 51.6397 101.274 47.5319C99.7106 43.4242 96.7915 39.9733 93 37.75L29.82 1.26999C28.2336 0.35666 26.3497 0.110092 24.5817 0.58443C22.8137 1.05877 21.3062 2.21525 20.39 3.79999C20.3002 3.94797 20.22 4.10162 20.15 4.25998C7.01239 31.6827 0.192505 61.7027 0.192505 92.11C0.192505 122.517 7.01239 152.537 20.15 179.96C20.9446 181.608 22.3611 182.873 24.0883 183.477C25.8154 184.081 27.7117 183.974 29.36 183.18C29.5184 183.11 29.672 183.03 29.82 182.94L93 146.47C96.7915 144.247 99.7106 140.796 101.274 136.688C102.838 132.58 102.953 128.062 101.6 123.88C98.39 113.596 96.7614 102.884 96.77 92.11V92.11Z" fill="#FFA000"/>
<path d="M32 117.93V67H69.76V75.62H42.28V86.91H67.85V95.49H42.28V109.38H70.74V117.96L32 117.93Z" fill="white"/>
</svg>
