<svg width="295" height="339" viewBox="0 0 295 339" fill="none" xmlns="http://www.w3.org/2000/svg">
<path d="M83 165.18C83.8267 165.957 84.5045 166.879 85 167.9C85.6545 169.063 86.4543 170.139 87.38 171.1C88.6519 172.824 89.7727 174.654 90.73 176.57C90.86 176.99 90.68 179.87 91.06 180.69C91.44 181.51 92.4 183.08 91.67 183.37C90.94 183.66 89.67 182.49 89.67 182.49C89.75 182.697 89.767 182.924 89.719 183.141C89.6709 183.358 89.56 183.556 89.4 183.71C89.1561 183.955 88.8529 184.133 88.5199 184.226C88.1869 184.318 87.8355 184.323 87.5 184.24C87.5 184.24 87.28 185.24 86.74 185.47C86.4382 185.639 86.1049 185.744 85.7608 185.778C85.4167 185.812 85.0693 185.776 84.74 185.67C84.4074 186.085 83.9407 186.371 83.42 186.48C83.0782 186.545 82.7257 186.522 82.3952 186.413C82.0647 186.305 81.7671 186.115 81.53 185.86C81.53 185.86 80.18 186.49 79.53 185.92C79.0754 185.356 78.7111 184.725 78.45 184.05C77.3414 180.678 76.9997 177.101 77.45 173.58C78.19 169.19 74.75 165.89 74.75 165.89L83 165.18Z" fill="#EEA886"/>
<path d="M95.13 199H76.13C75.2044 199 74.3167 198.632 73.6622 197.978C73.0077 197.323 72.64 196.436 72.64 195.51V183.51C72.64 182.584 73.0077 181.697 73.6622 181.042C74.3167 180.388 75.2044 180.02 76.13 180.02H95.13C96.0556 180.02 96.9433 180.388 97.5978 181.042C98.2523 181.697 98.62 182.584 98.62 183.51V195.51C98.62 196.436 98.2523 197.323 97.5978 197.978C96.9433 198.632 96.0556 199 95.13 199V199ZM76.13 182.4C75.8377 182.407 75.5589 182.524 75.3493 182.728C75.1398 182.932 75.0151 183.208 75 183.5V195.5C75 195.805 75.1212 196.097 75.3368 196.313C75.5525 196.529 75.845 196.65 76.15 196.65H95.15C95.455 196.65 95.7475 196.529 95.9632 196.313C96.1788 196.097 96.3 195.805 96.3 195.5V183.5C96.2974 183.196 96.1754 182.905 95.9603 182.69C95.7452 182.475 95.4542 182.353 95.15 182.35L76.13 182.4Z" fill="#0E1E2B"/>
<path d="M121.23 193.82H50.0699V244.8H121.23V193.82Z" fill="#54281A"/>
<path d="M55.4199 57.4C55.4199 57.4 51.7799 57.4 50.2199 68.35C48.6599 79.3 51.6099 83.8 51.9599 88.35C52.3099 92.9 57.6299 122.17 57.7799 123.47C57.9299 124.77 58.6399 140.35 60.7099 144.47C62.7799 148.59 78.0399 172.05 78.2399 173.22C78.4399 174.39 85.6399 169.14 85.6399 169.14C85.6399 169.14 73.6399 144.06 72.9599 141.2C72.2799 138.34 67.4499 123.72 68.2099 119.26C68.9699 114.8 66.0699 90.2 66.3499 87.46C66.6299 84.72 62.4099 59.06 55.4199 57.4Z" fill="#EEA886"/>
<path d="M55.42 57.4C55.42 57.4 51.78 57.4 50.22 68.35C48.66 79.3 50.07 83.17 51.01 87.89C51.9 92.36 54.92 119.65 55.07 120.94C55.22 122.23 58.83 138.69 60.71 144.48C62.14 148.88 75.71 171.92 75.94 173.09C76.17 174.26 86.51 167.71 86.51 167.71C86.51 167.71 73.21 141.77 72.51 138.91C71.81 136.05 69.57 126.14 69.51 121.62C69.42 116.3 66.08 90.21 66.36 87.47C66.64 84.73 65.59 61.12 55.42 57.4Z" fill="#285173"/>
<path d="M89.7099 181.92C89.7099 181.92 88.4399 176.97 86.8499 176.24C85.2599 175.51 85.6099 177.31 85.6099 177.31C85.6099 177.31 85.2899 175.51 83.8099 175.61C82.3299 175.71 82.8599 177.81 82.8599 177.81C82.7756 177.632 82.6565 177.472 82.5097 177.341C82.3629 177.21 82.1913 177.109 82.005 177.044C81.8187 176.98 81.6215 176.954 81.4248 176.967C81.2282 176.98 81.0361 177.032 80.8599 177.12V177.12C79.4499 177.75 80.2999 179.4 80.2999 179.4C80.2999 179.4 78.3999 178.04 77.9399 179.89C77.1699 183.01 79.4899 185.89 79.4899 185.89C79.7666 186.124 80.1128 186.259 80.4746 186.276C80.8364 186.292 81.1934 186.188 81.4899 185.98C81.6788 186.185 81.9063 186.351 82.1594 186.468C82.4126 186.585 82.6863 186.651 82.965 186.663C83.2437 186.674 83.5218 186.63 83.7835 186.533C84.0452 186.437 84.2852 186.289 84.4899 186.1C84.5909 186 84.6845 185.893 84.7699 185.78C84.7699 185.78 87.3299 186.45 87.5799 184.35C87.5899 184.37 90.4799 184.71 89.7099 181.92Z" fill="#DB9C7C"/>
<path d="M99.54 324.78C99.54 324.78 107.35 335.29 106.28 336.95C105.21 338.61 97 338.85 92 336.95C87 335.05 86.88 322.73 84.62 317.44C83.68 315.22 85.7 308.68 88.55 308.21C90.5794 308.002 92.6282 308.319 94.5 309.13C94.5 309.13 91.54 316.58 99.54 324.78Z" fill="#1D3B54"/>
<path d="M94.55 309.05C95.5594 311.89 96.3091 314.815 96.79 317.79C97.29 321.34 102.35 328.87 102.12 329.79C101.89 330.71 95.45 331.6 92.83 329.15C90.21 326.7 88.53 319.56 87.95 315.29C87.7272 313.277 87.3222 311.289 86.74 309.35C86.74 309.35 92.05 306.42 94.55 309.05Z" fill="#EEA886"/>
<path d="M31.58 325C31.58 325 39.11 335.34 38.04 337C36.97 338.66 28.75 338.9 23.76 337C18.77 335.1 18.64 322.78 16.38 317.49C15.43 315.27 17.46 308.73 20.3 308.25C22.414 308.073 24.5391 308.417 26.49 309.25C26.49 309.25 23.58 316.76 31.58 325Z" fill="#1D3B54"/>
<path d="M26.4899 309.23C26.8412 312.035 27.3588 314.816 28.0399 317.56C28.9899 321.01 34.1099 328.86 33.8699 329.81C33.6299 330.76 27.2099 331.63 24.5899 329.17C21.9699 326.71 19.9499 319.61 19.7099 315.31C19.5387 312.927 19.7412 310.531 20.3099 308.21C20.3099 308.21 23.9999 306.61 26.4899 309.23Z" fill="#EEA886"/>
<path d="M64.1001 138.1C64.1001 138.1 70.8 169.27 72.34 177.1C73.88 184.93 78.19 222.95 78.65 229.42C79.11 235.89 85.65 260.23 85.34 262.54C85.03 264.85 95.0001 311.23 95.0001 311.23C94.0064 312 92.7963 312.438 91.5403 312.482C90.2844 312.527 89.046 312.177 88.0001 311.48C86.1501 310.2 66.0801 268.07 66.0801 256.48C66.0801 240.53 54.0801 220.22 52.5301 216.65C38.3901 183.49 41.4101 172.84 39.5301 170.65C37.6501 168.46 37.53 171.98 36.45 176.75C35.37 181.52 33.0601 222.75 31.6801 227.99C30.3001 233.23 31.37 250.92 30.6 259.84C29.83 268.76 26.45 309.14 26.45 309.14C26.45 309.14 23.8301 313.24 20.1601 309.25C19.3701 308.39 13.8301 264.25 13.6701 253.66C13.5101 243.07 13.36 228.4 13.06 223.81C10.21 179.81 3.20005 173.52 14.24 142.39C34.9401 84.16 64.1001 138.1 64.1001 138.1Z" fill="#EEA886"/>
<path d="M19.11 129.38C19.11 129.38 2.45571e-05 156.1 8.24002 212.93C8.24002 212.93 53.51 219.09 77.77 205.8C77.77 205.8 67.77 147.21 64.1 138.09C60.43 128.97 19.11 129.38 19.11 129.38Z" fill="#1D3B54"/>
<path d="M84.4099 316.51V327.51H85.8399V319L84.4099 316.51Z" fill="#1D3B54"/>
<path d="M16.1699 316.51V327.51H17.5999V319L16.1699 316.51Z" fill="#1D3B54"/>
<path d="M44.72 53.47C44.72 53.47 51.72 56.79 54.2 57.28C56.68 57.77 66.12 70.07 67.78 74.57C69.44 79.07 67.78 85.8 64.36 93.71C60.94 101.62 64.16 104.26 62.6 112.17C61.04 120.08 59.67 136.83 59.96 141.23C60.25 145.63 20.46 146.45 11.37 138.44C11.37 138.44 20.5 124.77 21.67 122.82C22.84 120.87 21.87 110.22 20.79 107.48C19.71 104.74 12.57 81.48 12.57 81.48C12.57 81.48 6.71997 63.62 12 59.48C16.59 55.91 29.1 54.64 31.35 53.86C33.6 53.08 40.13 52.79 44.72 53.47Z" fill="#EDDAD3"/>
<path d="M47 69.15L51.27 64.15L47.54 51C46.7274 57.0146 46.5464 63.0977 47 69.15V69.15Z" fill="#D6C5BE"/>
<path d="M35.8499 3.56C39.9999 2.09 55.3799 -1.52 58.9999 18.11C62.6199 37.74 51.7699 51.71 41.8099 48C31.8499 44.29 25.6899 30.71 25.1099 20.36C24.5299 10.01 30.5699 5.41 35.8499 3.56Z" fill="#EEA886"/>
<path d="M59 18.11C59 18.11 59.75 1.31 43 0.729998C26.25 0.149998 21.85 13.89 23.22 23.91C24.0158 29.8539 26.9614 35.3004 31.5 39.22C31.5 39.22 30.9 31.11 34.14 29.01C37.38 26.91 50.37 22.71 56.04 12.94C56 12.94 58.66 16 59 18.11Z" fill="#252E3B"/>
<path d="M35.4499 17.69C35.7599 24.69 31.0299 30.69 24.8799 30.91C18.7299 31.13 13.4899 25.7 13.1799 18.66C12.8699 11.62 17.6099 5.71 23.7599 5.44C29.9099 5.17 35.1499 10.65 35.4499 17.69Z" fill="#252E3B"/>
<path d="M48.08 45.35C48.08 45.35 46.68 58.25 46.97 62.45C46.97 62.45 39.67 69.78 31.35 53.91C33.5202 49.0363 33.8297 43.5364 32.22 38.45C29.59 29.54 48.08 45.35 48.08 45.35Z" fill="#EEA886"/>
<path d="M47 62.45V69.15L38.59 62.86L47 62.45Z" fill="#EEA886"/>
<path d="M46.9999 69.15L43.5099 64.82L31.7199 53.1L27.9199 56.77L46.9999 69.15Z" fill="#D6C5BE"/>
<path d="M30.0899 54.22C30.0899 54.22 39.9599 69.22 40.4299 75.79C40.8999 82.36 36.7599 131.71 33.4299 147.56C30.0999 163.41 6.15991 145.77 6.15991 145.77C6.15991 145.77 22.2599 119.72 16.0799 98.85C9.89991 77.98 7.65991 69.65 7.65991 69.65C7.65991 69.65 9.78991 58 17.3299 56.4C23.9299 55 30.0899 54.22 30.0899 54.22Z" fill="#285173"/>
<path d="M68.4299 76.57C68.4299 76.57 70.2099 82.87 63.2699 96.79C63.2699 96.79 63.3799 114.61 63.5799 120.18C63.7799 125.75 67.7099 145.77 67.7099 145.77L58.2299 150.77C57.9193 150.954 57.5632 151.048 57.2021 151.04C56.841 151.032 56.4894 150.923 56.1872 150.725C55.8851 150.527 55.6446 150.248 55.493 149.92C55.3415 149.592 55.285 149.228 55.3299 148.87C57.2699 132.87 63.5899 72.08 49.9399 55.75L55.4199 57.36C55.4199 57.36 65.1499 65.36 68.4299 76.57Z" fill="#285173"/>
<path d="M35.8199 25.46C35.6852 25.1496 35.4905 24.869 35.247 24.634C35.0035 24.3991 34.7161 24.2145 34.4011 24.091C34.0862 23.9674 33.7499 23.9073 33.4116 23.9139C33.0734 23.9206 32.7397 23.9941 32.4299 24.13C32.2817 24.1906 32.1408 24.2678 32.0099 24.36C30.8399 25.24 30.1599 27.88 32.0099 31.3C33.8599 34.72 40.4099 37.1 35.8199 25.46Z" fill="#EEA886"/>
<path d="M51.2399 64.14L56.6299 65.63L47.5299 51L51.2399 64.14Z" fill="#FAE6DE"/>
<path d="M43.4799 64.82L38.5599 71.27L28.5599 54.43L31.7599 53.1L43.4799 64.82Z" fill="#FAE6DE"/>
<path d="M47.79 48.19L47.54 50.74C47.54 50.74 41.74 51.87 34.14 42.6C34.14 42.6 39.53 49.17 47.79 48.19Z" fill="#A77860"/>
<path d="M64.8999 93.3C64.8999 93.3 65.2299 115.54 63.8999 126.3L63.2999 96.82L64.8999 93.3Z" fill="#1D3B54"/>
<path d="M53.08 117.55C53.08 117.55 54.3 111.98 54.08 110.69C53.86 109.4 55.61 108.49 55.84 111.69C56.07 114.89 56.17 116.87 56.17 116.87L53.08 117.55Z" fill="#EEA886"/>
<path d="M64.6499 131.94H52.9999L51.1899 106.22H66.2499L64.6499 131.94Z" fill="#8E4F3A"/>
<path d="M49.35 120.62C49.35 120.62 49.25 118.62 53.09 117.01C58.19 114.83 64.96 112.67 66.09 113.35C67.69 114.35 66.8 115.53 63.6 116.44C60.4 117.35 59.34 117.64 59.34 117.64C59.34 117.64 65.54 117.3 66.9 118.1C68.26 118.9 68.26 120.61 67.24 120.85C66.108 121.028 64.9656 121.132 63.82 121.16C63.82 121.16 66.43 121.36 66.65 122.43C66.82 123.22 66.87 124.34 64.37 124.7C64.37 124.7 65.98 126.63 63.37 127.7C60.2971 128.808 57.1111 129.573 53.87 129.98C49.07 130.57 40.01 128.98 40.01 128.98L43.01 122.21C44.4121 122.629 45.9016 122.66 47.32 122.3C49.62 121.47 49.35 120.62 49.35 120.62Z" fill="#EEA886"/>
<path d="M18.65 57.4C16.18 56.6 8.98997 58.4 7.75997 65.89C6.52997 73.38 5.99997 81.59 4.89997 85.6C3.79997 89.61 -1.69004 110 0.769961 111.46C3.22996 112.92 8.23997 114.52 14.01 117.55C19.54 120.45 46.41 131.73 46.41 131.73L48.5 119.87C45.1214 119.018 41.8328 117.843 38.68 116.36C34.02 114.07 22.75 107.55 14.16 102.23C14.16 102.23 19.54 87.81 20.69 84.7C21.84 81.59 29.77 61 18.65 57.4Z" fill="#285173"/>
<path d="M66.78 104.68H50.72V107.75H66.78V104.68Z" fill="#AD9F9A"/>
<path d="M41.82 22.09C41.82 22.09 38.15 27.81 39.33 31.46C40.65 35.54 36.33 41.77 36.33 41.77C36.33 41.77 38.33 34.25 36.91 31.55C35.49 28.85 37.14 24.62 37.14 24.62L41.82 22.09Z" fill="#252E3B"/>
<path d="M258.31 315.9C259.513 318.17 260.89 320.344 262.43 322.4C264.06 324.24 270.3 327.54 270.33 333.03C270.33 338.97 259.81 337.33 255.69 337.11C251.57 336.89 251.25 333.71 249.51 330.35C247.77 326.99 246.02 327.55 245.69 324.83C245.36 322.11 247.38 315.9 247.38 315.9H258.31Z" fill="#202338"/>
<path d="M195.48 315.36C195.48 315.36 190.39 321.03 185.23 322.22C180.07 323.41 176.45 324.93 176.41 328.22C176.37 331.51 191.27 333.62 197.18 330.34C206 325.44 206.9 326.91 207.87 324.46C208.84 322.01 206.7 315.46 206.76 314.68C206.84 313.69 195.48 315.36 195.48 315.36Z" fill="#202338"/>
<path d="M196.05 312.64C195.8 313.533 195.609 314.442 195.48 315.36C195.58 315.41 207.11 316.79 206.76 314.65C206.48 312.92 206.08 311.04 206.08 311.04L196.05 312.64Z" fill="#81807E"/>
<path d="M247.52 314.1C247.341 314.959 247.21 315.827 247.13 316.7C247.22 316.76 258.83 318.84 258.76 316.7C258.632 315.434 258.27 314.203 257.69 313.07L247.52 314.1Z" fill="#81807E"/>
<path d="M206.54 153.39C206.54 153.39 202.34 194.13 200.16 208.08C197.61 224.39 196.74 237.86 196.03 246.3C195.14 256.92 194.96 309.14 194.34 312.24C193.72 315.34 208.24 313.1 208.24 313.1C208.24 313.1 215.38 244.87 218.05 233.56C220.53 223.03 229.74 177.71 232 180.56C234.26 183.41 237.08 233.45 238.76 241.76C240.44 250.07 245.53 315.07 245.53 315.07C245.53 315.07 257.09 317.37 260.17 314.77C260.17 314.77 261.57 258.77 260.5 243.18C260.09 237.25 267.45 172.05 258.01 145.8C253 131.94 206.54 153.39 206.54 153.39Z" fill="#292C47"/>
<path d="M244.2 144.35C244.2 144.35 241.4 140.12 238.44 139.58C235.48 139.04 279.27 117.86 279.15 110.3C279.06 104.16 263.38 93.98 263.38 93.98V94.06C263.05 95.27 258.52 112.06 258.38 120.16C258.22 128.54 258.88 157.37 258.88 157.37L247.66 160.37L211.8 160.7L203.62 157.36C203.62 157.36 204.51 148.09 204.84 141.58C205.05 137.44 205.84 130.03 205.64 122.81C205.64 122.81 205.77 115.2 205.02 111.93C204.94 97.46 204.02 83.14 204.02 83.14C203.54 76.58 203.207 70.4433 203.02 64.73C204.6 63.89 206.5 62.92 208.02 62.19C212.73 59.95 219.29 56.93 223.51 55C225.97 53.86 228.39 53 228.39 53C228.39 53 245.22 51.38 246.59 51.47C248.391 51.9575 250.158 52.5621 251.88 53.28C257.88 55.54 269.35 60.16 271.19 61.47C273.87 63.4 291.47 109.94 291.72 113.14C292.18 119 244.2 144.35 244.2 144.35Z" fill="#DBD8E3"/>
<path d="M204.66 154.31C204.66 154.31 229.29 156.41 250.86 154.31V161.39C250.86 161.39 218.73 164.46 203.57 160.04L204.66 154.31Z" fill="#1D2033"/>
<path d="M202.62 64.63C202.81 70.45 203.09 76.69 203.62 83.37C203.62 83.37 204.09 99.68 205.02 115.15C205.369 117.399 205.47 119.679 205.32 121.95C205.09 124.95 204.76 128.27 204.37 131.72C204.376 131.763 204.376 131.807 204.37 131.85C204.28 132.67 204.18 133.49 204.08 134.32C201.99 151.56 198.44 171.32 196.59 177.32C196.2 178.57 197.59 179.73 198.51 180.62L205.25 184.86C205.25 184.86 208.02 159.3 208.95 150.62C209.84 142.24 212.64 131.01 213.86 120.06C215.42 106.18 217.56 92.58 218.71 84.5C221.71 63.5 225.71 54.04 225.71 54.04C223.75 54.65 202.62 64.63 202.62 64.63Z" fill="#323657"/>
<path d="M274.12 108.16C277 114.57 247.31 126 248 127.56C249.61 131.36 256.17 139.08 256.17 139.08C256.17 139.08 295.32 119.72 294.88 115.33C294.56 112.13 276.22 63.81 273.54 61.89C271.99 60.77 260.54 56.7 254.85 54.47L249.37 52.39C248.17 53.72 239.93 62.82 237.01 97.22C236.52 103.02 238.07 115.29 239.11 125.3C240.22 135.99 241.44 144.3 242.34 153.3C244.11 170.91 245.34 184.93 245.34 184.93L262.86 177.13C265.7 175.71 270.6 172 269.54 169.02C265.54 157.67 259.41 136.16 259.4 126.2C259.4 126.2 262.27 98.72 263.82 93.37C263.79 93.33 270.86 101 274.12 108.16Z" fill="#323657"/>
<path d="M245 53.31C245 53.31 245.12 47.53 247.35 35.84C247.95 32.71 229.18 44.07 229.18 44.07C229.18 44.07 229.24 45.17 229.28 46.65C229.28 47.43 229.28 48.32 229.28 49.21C229.28 49.52 229.28 49.83 229.28 50.14C229.28 50.97 229.22 51.76 229.15 52.44C229.02 53.2101 228.809 53.9643 228.52 54.69C227.78 56.47 238.71 57.83 245 53.31Z" fill="#EEA987"/>
<path d="M233.31 59.37L230.2 63.54C230.2 63.54 232.03 65.98 235.26 64.18L233.31 59.37Z" fill="#E8734D"/>
<path d="M231 63.71C231 63.71 219.2 109.12 221.63 144.47L225.63 151.47L229.35 144.14C229.35 144.14 230.35 80.91 233.6 63.6L231 63.71Z" fill="#E8734D"/>
<path d="M230 55.47L233.33 59.37C233.33 59.37 238.68 58.37 240.25 55.54C241.82 52.71 230 55.47 230 55.47Z" fill="#EEA987"/>
<path d="M229.22 52.06C229.22 52.06 229.61 55.06 233.31 59.36L229.31 64.8L227.12 53.52L229.22 52.06Z" fill="#C4C1CC"/>
<path d="M245.38 48.75C245.38 48.75 238.72 57.23 233.31 59.36L235.83 65.58L247.31 51.7L245.38 48.75Z" fill="#C4C1CC"/>
<path d="M134.05 111.58C134.05 111.58 121.7 113 121 113.81C120.3 114.62 120.47 115.27 121.64 115.18C122.81 115.09 133.64 114.18 133.64 114.18C133.64 114.18 119.47 118.36 118.75 118.88C118.33 119.18 118.57 120.49 119.21 120.5C119.85 120.51 134.21 117.19 134.21 117.19C134.21 117.19 120.99 121.12 120.53 121.74C120.464 121.858 120.423 121.987 120.408 122.121C120.394 122.255 120.407 122.391 120.446 122.519C120.485 122.648 120.55 122.768 120.637 122.871C120.723 122.974 120.83 123.059 120.95 123.12C121.166 123.24 121.419 123.276 121.66 123.22C122.66 123 135.18 120.06 135.18 120.06C135.18 120.06 125.78 123.54 125.72 124.31C125.72 124.78 125.84 125.93 128.23 124.95C130.62 123.97 136.55 122.28 136.55 122.28L134.05 111.58Z" fill="#EEA886"/>
<path d="M148.66 112.16C148.66 112.16 144.55 112.37 143.29 110.29C142.22 108.52 139.61 106.92 138.81 106.42C137.73 105.76 135.11 102.55 134.35 103.84C133.59 105.13 138.44 109.32 139.29 110.39C140.14 111.46 134.21 111.07 133.13 111.85C132.05 112.63 132.64 122.44 136.7 122.24C140.76 122.04 144.8 119.13 145.53 119.24C146.529 119.301 147.531 119.301 148.53 119.24L148.66 112.16Z" fill="#EEA886"/>
<path d="M147 121.86C147 121.86 177.31 117.61 184 115.96C187.11 115.19 191.2 110.9 195.1 105.85C196.38 104.19 197.64 102.45 198.84 100.72C203.61 93.82 207.35 87.22 207.35 87.22C207.35 87.22 221.47 70.68 210.14 63.31C210.14 63.31 205.29 63.2 202.62 64.65C199.95 66.1 194 78.31 193 80.47C192 82.63 181.29 102.67 180.57 103.13C179.85 103.59 169.14 105.9 164.37 106.9L144.51 111L147 121.86Z" fill="#323657"/>
<path d="M234.34 154.69H222.82V163.43H234.34V154.69Z" fill="#3A4066"/>
<path d="M242.06 144.88C242.76 144.861 243.452 144.729 244.11 144.49C244.11 144.49 245.18 143.8 245.97 143.36C246.173 143.24 246.383 143.133 246.6 143.04C247.814 142.679 248.962 142.125 250 141.4C251.35 140.4 255.75 136.26 255.75 136.26L253 131.89L251.69 127.56C251.69 127.56 241.44 128.56 240.07 129.4C239.937 129.474 239.81 129.557 239.69 129.65C238.911 130.352 238.21 131.137 237.6 131.99C237.41 132.17 235.6 134.08 235.72 134.85C235.732 135.288 235.855 135.716 236.079 136.092C236.304 136.468 236.621 136.781 237 137C237.197 138.113 237.695 139.15 238.44 140C238.535 140.572 238.76 141.115 239.099 141.587C239.437 142.058 239.879 142.446 240.39 142.72C240.39 142.72 240.9 144.65 242.06 144.88Z" fill="#EFAA88"/>
<path d="M256.15 139.08C252.468 135.877 249.477 131.957 247.36 127.56L264.86 117.98L271.36 131.2L256.15 139.08Z" fill="#323657"/>
<path d="M219.32 15.31C219.32 15.31 215.2 22.95 217.24 24.14C218.93 25.14 215.24 32.62 214.78 33.84C214.32 35.06 217.84 35.96 218.59 36.74C219.34 37.52 221.59 47.24 224.48 47.53C227.37 47.82 240.48 43.26 244.1 39.53C247.72 35.8 250.61 19 248.22 12C245.83 5 226.59 1.99999 219.32 15.31Z" fill="#EEA886"/>
<path d="M218.5 17C218.5 17 214.29 8.75 221.93 2.63C229.57 -3.49 243.67 7.25 245.26 7.63C246.85 8.01 255.86 8.63 251.31 24.49C247.4 38.07 246.85 38.64 246.85 38.64C246.85 38.64 243.93 30.77 242.28 29.57C239.7 27.7 234.04 28.15 234.04 28.15C234.04 28.15 236.74 20.99 232.53 19.98C228.32 18.97 222.76 15.38 218.5 17Z" fill="#16202E"/>
<path d="M238.53 24C238.91 23 240.11 18.8 243.73 21.28C247.35 23.76 241.47 31.71 240.84 31.81C240.21 31.91 235.41 32.3 238.53 24Z" fill="#EEA886"/>
<path d="M229.32 49.2C229.32 49.52 229.32 49.83 229.32 50.14C240.05 46.54 242.13 41.14 242.13 41.14C238.78 43.5 229.3 46.67 229.3 46.67C229.32 47.43 229.33 48.32 229.32 49.2Z" fill="#A77860"/>
</svg>
