<svg id="圖層_1" data-name="圖層 1" xmlns="http://www.w3.org/2000/svg" viewBox="0 0 104 186"><defs><style>.cls-1{fill:#8e24aa;}.cls-2{isolation:isolate;}.cls-3{fill:#fff;}</style></defs><title>色塊</title><path id="Path_94" data-name="Path 94" class="cls-1" d="M6.59,93a106.65,106.65,0,0,1-4.82,31.77,19.3,19.3,0,0,0,8.59,22.59l63.18,36.48A6.9,6.9,0,0,0,83,181.3a4.92,4.92,0,0,0,.24-.45,203.26,203.26,0,0,0,0-175.7A6.89,6.89,0,0,0,74,1.93l-.46.23L10.36,38.64A19.3,19.3,0,0,0,1.77,61.23,106.65,106.65,0,0,1,6.59,93Z"/><g id="I" class="cls-2"><g class="cls-2"><path class="cls-3" d="M49.17,117.83V66.9H59.46v50.93Z"/></g></g></svg>