<svg width="235" height="324" viewBox="0 0 235 324" fill="none" xmlns="http://www.w3.org/2000/svg">
<path d="M99.882 155.39L111.722 148.83L120.332 149.31L124.882 157.2L121.732 162.14C119.912 162.14 119.352 160.84 120.302 159.27L114.532 158.53C112.162 161.37 107.812 160.91 104.412 161.33L99.882 155.39Z" fill="#F7D2A6"/>
<path d="M111.712 148.83L122.852 147.64L129.182 151.64C130.692 152.54 129.332 153.97 128.012 153.11L122.632 150.23L112.542 152.5L111.712 148.83Z" fill="#F7D2A6"/>
<path d="M40.122 161.89L91.812 165.77C91.812 165.77 92.812 172.93 92.442 173C79.792 175.68 44.872 178 37.602 176.43C28.932 174.92 30.162 160.48 40.122 161.89Z" fill="#E1DCC5"/>
<path d="M91.532 165.23L100.312 163.4C100.959 163.261 101.632 163.309 102.252 163.54L107.252 165.4C107.799 165.601 108.287 165.936 108.671 166.375C109.056 166.813 109.324 167.341 109.452 167.91L110.452 172.47C110.595 173.095 110.563 173.748 110.36 174.356C110.157 174.964 109.791 175.505 109.302 175.92L106.662 178.16C105.742 177.85 105.282 177.32 105.282 176.7C105.229 176.038 104.989 175.405 104.591 174.874C104.193 174.343 103.652 173.936 103.032 173.7H102.962C102.497 173.47 101.987 173.345 101.469 173.334C100.95 173.324 100.436 173.428 99.962 173.64C98.042 174.64 95.072 174.43 91.822 174.07C90.9858 173.976 90.2117 173.584 89.642 172.964C89.0724 172.345 88.7457 171.541 88.722 170.7L88.662 168.79C88.636 167.952 88.9112 167.132 89.4377 166.478C89.9642 165.825 90.7071 165.383 91.532 165.23V165.23Z" fill="#E4C29A"/>
<path d="M51.542 123.09L46.542 169.34C46.152 179.05 31.072 179.98 31.782 167.72L34.152 121.23C36.032 105.86 52.702 110.39 51.542 123.09Z" fill="#E1DCC5"/>
<path d="M178.512 121.92L176.762 120.99L175.812 123.71L178.892 125.71L178.512 121.92Z" fill="#3C3C3B"/>
<path d="M130.372 166.44L136.632 125.32C136.932 123.32 138.302 121.72 139.632 121.72H177.632C179.022 121.72 179.892 123.33 179.632 125.32L173.382 166.44C173.082 168.44 171.712 170.05 170.382 170.05H132.382C130.942 170.05 130.072 168.43 130.372 166.44Z" fill="#1D1D1B"/>
<path d="M130.632 169.12H168.632C170.022 169.12 171.382 167.5 171.632 165.51L177.892 124.39C178.192 122.39 177.312 120.79 175.892 120.79H137.892C136.512 120.79 135.142 122.4 134.842 124.39L128.632 165.51C128.322 167.51 129.202 169.12 130.632 169.12Z" fill="#575756"/>
<path d="M168.632 166.42C169.142 166.42 169.742 165.69 169.862 164.94L176.112 123.82C176.132 123.714 176.132 123.606 176.112 123.5H175.982H137.982C137.482 123.5 136.872 124.24 136.762 124.99L130.512 166.11C130.492 166.212 130.492 166.318 130.512 166.42V166.42H130.642H168.632Z" fill="#9CA79A"/>
<path d="M106.532 172.7H169.322V169.12H106.532V172.7Z" fill="#3C3C3B"/>
<path d="M169.322 169.12H145.842V172.7H169.322V169.12Z" fill="#1D1D1B"/>
<path d="M68.042 58.8301C67.042 56.0901 66.592 52.8301 64.202 51.0901C67.3292 51.0841 70.3812 52.0486 72.9371 53.8504C75.493 55.6523 77.4269 58.2028 78.472 61.1501C79.292 63.6101 79.472 66.3401 80.922 68.5001C78.0921 68.233 75.3913 67.1883 73.1181 65.4817C70.845 63.7751 69.0882 61.473 68.042 58.8301V58.8301Z" fill="#21201D"/>
<path d="M125.292 216.23C124.988 218.104 124.395 219.919 123.532 221.61V221.67C123.532 221.67 122.712 223.03 121.272 225.39C120.922 225.98 120.532 226.6 120.102 227.31C118.352 230.25 115.992 234.17 113.352 238.64C111.172 242.34 108.792 246.42 106.352 250.64C102.252 257.74 98.082 265.21 94.552 271.86C90.812 278.98 87.822 285.16 86.552 288.96C84.952 293.78 88.932 304.64 89.942 307.28C90.102 307.65 90.172 307.86 90.172 307.86C91.788 310.059 93.5842 312.119 95.542 314.02C98.602 317.19 100.722 319.42 97.432 319.64L94.972 318.69L90.472 316.91L78.782 312.31C77.819 311.941 76.9557 311.352 76.2612 310.59C75.5666 309.827 75.0601 308.913 74.782 307.92L73.052 301.52L70.202 308.93L65.912 307.25C69.562 297.83 65.852 294.18 75.412 284.59C78.122 281.86 81.612 261.13 85.812 245.23C87.372 239.3 89.032 234.03 90.812 230.62C92.3936 227.525 94.1949 224.547 96.202 221.71C96.532 221.24 96.842 220.78 97.202 220.33C99.4125 217.28 101.839 214.393 104.462 211.69C105.354 210.763 106.299 209.888 107.292 209.07C116.532 205.98 126.542 207.38 125.292 216.23Z" fill="#E4C29A"/>
<path d="M75.4719 284.67C75.5519 284.59 75.8819 284.75 76.3419 285.04C77.5246 285.813 78.5156 286.845 79.2399 288.057C79.9642 289.27 80.4026 290.632 80.5219 292.04L81.1619 299.37C81.2908 300.929 81.8656 302.418 82.8178 303.659C83.7701 304.901 85.0594 305.842 86.5319 306.37L90.0819 307.65L90.1819 307.93C94.3619 313.99 102.652 319.39 97.4419 319.74L78.8219 312.42C77.8554 312.043 76.9904 311.445 76.296 310.674C75.6015 309.903 75.0967 308.98 74.8219 307.98L73.0719 301.62L70.2219 309.04L65.9719 307.37C69.6319 297.91 65.9119 294.28 75.4719 284.67Z" fill="#C45C38"/>
<path d="M39.762 244.81C28.762 244.81 19.622 239.56 11.442 231.38C-8.76801 211.17 3.442 152.71 5.892 153.15C8.562 153.63 9.362 177.09 8.892 179.75C5.892 196.58 9.802 214.35 18.892 225.02C24.602 231.71 32.052 235.19 40.332 235.02C41.6316 234.995 42.8879 235.487 43.8246 236.388C44.7614 237.289 45.3018 238.525 45.327 239.825C45.3522 241.124 44.8601 242.381 43.959 243.318C43.0579 244.254 41.8216 244.795 40.522 244.82L39.762 244.81Z" fill="#1D1D1B"/>
<path d="M13.932 302.35H10.452V311.96H13.932V302.35Z" fill="#575756"/>
<path d="M21.692 316.42C21.6216 317.716 21.1729 318.963 20.4015 320.007C19.63 321.051 18.5695 321.846 17.3511 322.293C16.1328 322.741 14.81 322.821 13.5463 322.525C12.2826 322.229 11.1334 321.569 10.2409 320.626C9.34834 319.684 8.75156 318.501 8.52432 317.223C8.29707 315.945 8.44934 314.628 8.96229 313.436C9.47524 312.244 10.3264 311.228 11.4105 310.514C12.4945 309.8 13.764 309.42 15.062 309.42C16.8675 309.475 18.5779 310.242 19.82 311.553C21.0621 312.865 21.7351 314.614 21.692 316.42Z" fill="#1D1D1B"/>
<path d="M61.532 302.35H58.052V311.96H61.532V302.35Z" fill="#575756"/>
<path d="M69.292 316.42C69.2216 317.716 68.7729 318.963 68.0014 320.007C67.2299 321.051 66.1694 321.846 64.9511 322.293C63.7327 322.741 62.4099 322.821 61.1462 322.525C59.8826 322.229 58.7334 321.569 57.8409 320.626C56.9483 319.684 56.3515 318.501 56.1243 317.223C55.897 315.945 56.0493 314.628 56.5623 313.436C57.0752 312.244 57.9263 311.228 59.0104 310.514C60.0945 309.8 61.364 309.42 62.662 309.42C64.4674 309.475 66.1779 310.242 67.42 311.553C68.6621 312.865 69.3351 314.614 69.292 316.42Z" fill="#1D1D1B"/>
<path d="M110.012 302.35H106.532V311.96H110.012V302.35Z" fill="#575756"/>
<path d="M98.762 316.42C98.8304 317.719 99.2781 318.969 100.05 320.016C100.821 321.062 101.883 321.86 103.103 322.31C104.323 322.759 105.648 322.842 106.914 322.546C108.181 322.251 109.333 321.59 110.227 320.647C111.122 319.703 111.721 318.518 111.949 317.238C112.178 315.958 112.026 314.639 111.512 313.444C110.999 312.249 110.146 311.232 109.06 310.516C107.974 309.801 106.702 309.42 105.402 309.42C103.596 309.475 101.884 310.242 100.64 311.553C99.3968 312.864 98.7216 314.613 98.762 316.42V316.42Z" fill="#1D1D1B"/>
<path d="M66.412 241.93H54.452V270.07H66.412V241.93Z" fill="#9C9C9B"/>
<path d="M69.302 264.43H51.572V297.01H69.302V264.43Z" fill="#17191E"/>
<path d="M8.03198 305.82H112.752V299.34L60.272 292.85L8.03198 299.34V305.82Z" fill="#1D1D1B"/>
<path d="M21.632 223.67H103.632C105.035 223.67 106.381 224.227 107.373 225.219C108.365 226.211 108.922 227.557 108.922 228.96V240.56C108.919 241.962 108.361 243.306 107.37 244.298C106.378 245.289 105.034 245.847 103.632 245.85H21.632C20.1972 245.85 18.8212 245.28 17.8066 244.265C16.792 243.251 16.222 241.875 16.222 240.44V229.07C16.222 227.638 16.791 226.264 17.8037 225.252C18.8164 224.239 20.1899 223.67 21.622 223.67H21.632Z" fill="#1D1D1B"/>
<path d="M66.132 86.23L65.322 89.98L64.492 93.93L63.492 98.63L62.492 103.49L61.112 110.1L43.322 97.32L49.822 71.73L66.132 86.23Z" fill="#F7D2A6"/>
<path d="M61.002 103.29C66.832 126.93 78.282 126.13 79.622 139.47C80.622 149.16 70.432 152.88 70.432 152.88C67.492 166.51 65.282 178.52 66.122 187.65C66.122 187.65 36.912 182.19 34.922 181.65C39.762 167.87 31.282 152.97 31.282 127.88C31.282 114.35 43.692 95.74 43.692 95.74C43.692 95.74 60.062 99.5 61.002 103.29Z" fill="#F7D2A6"/>
<path d="M80.272 139.49C80.3321 140.069 80.3321 140.652 80.272 141.23C79.922 149.6 70.412 152.87 70.412 152.87C70.412 153.53 70.4121 154.18 70.3521 154.8C70.2921 155.42 70.352 156.03 70.272 156.64C70.172 158.64 70.022 160.64 69.882 162.57C69.512 166.4 69.042 169.99 68.552 173.34C67.972 177.45 67.4221 181.28 67.0721 184.75C67.0121 185.3 66.9521 185.82 66.8721 186.31L64.7921 186C61.9221 185.61 56.4421 184.85 50.9821 184.05L49.9821 183.91C42.8021 182.91 35.8821 181.91 34.9321 181.65C35.2865 180.677 35.5477 179.673 35.7121 178.65L35.772 178.59C35.862 178.14 35.942 177.71 36.022 177.26C36.3667 175.011 36.4773 172.732 36.3521 170.46C36.3521 169.7 36.2921 168.97 36.2321 168.19C35.8821 164.19 35.0421 159.77 34.2321 154.99C33.0727 149.191 32.2049 143.337 31.632 137.45C31.512 136.45 31.452 135.45 31.392 134.35C31.282 132.26 31.222 130.18 31.222 127.95C31.222 114.8 39.512 102.61 40.032 101.87C40.032 101.87 42.7821 102.95 45.6521 104.02C45.6521 104.02 58.8221 107.41 71.6521 124.65C75.9121 129.39 79.552 132.49 80.272 139.49Z" fill="#F7F1D8"/>
<path opacity="0.1" d="M64.4921 93.9201L63.4921 98.6201L62.4921 103.48C60.2221 101.95 56.8621 99.2601 55.7921 97.6701C52.8521 93.1701 51.7921 88.4501 51.6021 83.0601C54.1821 87.3901 58.962 90.7301 63.332 93.2801C63.712 93.5001 64.1021 93.7201 64.4921 93.9201Z" fill="#1D1D1B"/>
<path d="M78.552 77.6C76.452 74.97 75.342 73.45 74.752 71.22C81.212 39.29 15.952 49.82 40.512 83.43L46.812 82.75C50.012 90.81 55.392 95.67 65.492 97.39C68.922 97.16 72.102 97.33 74.392 94.95C75.932 92.77 76.532 89.15 76.392 83.95C76.374 83.4346 76.4966 82.924 76.7468 82.4729C76.9969 82.0219 77.3652 81.6476 77.812 81.39V81.39C78.0939 81.2543 78.3462 81.0643 78.5545 80.831C78.7629 80.5976 78.9232 80.3255 79.0263 80.0301C79.1294 79.7348 79.1732 79.422 79.1553 79.1097C79.1375 78.7974 79.0582 78.4917 78.922 78.21C78.8298 77.9894 78.7051 77.7838 78.552 77.6V77.6Z" fill="#F7D2A6"/>
<path d="M44.632 93.23C42.242 90.03 37.892 85.93 36.032 82.4C34.0622 78.9112 32.9324 75.0115 32.732 71.01C32.6334 67.8278 33.2864 64.6672 34.6382 61.7847C35.99 58.9022 38.0024 56.379 40.512 54.42C52.992 45.25 65.882 49.87 68.462 54.55C68.462 54.55 72.282 56.26 65.792 66.77C61.992 72.92 55.662 73.7 53.582 82.21C49.852 97.45 44.632 93.23 44.632 93.23Z" fill="#21201D"/>
<path d="M123.892 323.45L104.032 320.95C103 320.837 102.01 320.481 101.141 319.913C100.272 319.345 99.5495 318.58 99.032 317.68L95.772 311.91L95.522 314.11L94.952 318.77L94.832 319.77L90.272 319.21C90.37 318.464 90.4267 317.713 90.442 316.96C90.642 313.05 90.002 310.31 89.922 307.35C89.862 304.09 90.522 300.56 93.862 294.9C95.152 292.74 94.862 283 94.502 271.9C94.312 265.23 94.112 258.05 94.232 251.75C94.2286 247.389 94.6269 243.038 95.422 238.75C95.832 236.9 96.322 235.13 96.842 233.45C97.532 231.21 98.292 229.12 99.042 227.23C99.572 225.9 100.042 224.68 100.622 223.55C101.832 220.86 103.002 218.69 103.922 217.05C104.568 215.94 105.272 214.865 106.032 213.83C114.202 208.53 124.182 207.38 125.232 216.21V216.27C125.42 218.173 125.305 220.093 124.892 221.96V222.04L123.992 225.04C123.692 225.95 123.342 227.04 122.992 228.36C122.092 231.36 120.932 235.3 119.622 239.78C118.722 242.88 117.742 246.26 116.752 249.78C111.822 267.22 106.352 287.97 105.752 296.39C105.342 302.19 113.942 313.81 113.942 313.81C119.502 318.68 128.862 321.83 123.892 323.45Z" fill="#F7D2A6"/>
<path d="M93.932 294.92C93.992 294.82 94.352 294.92 94.862 295.07C96.2002 295.525 97.4163 296.281 98.4166 297.279C99.4169 298.278 100.175 299.493 100.632 300.83L103.062 307.77C103.582 309.245 104.513 310.54 105.744 311.503C106.975 312.467 108.456 313.059 110.012 313.21L113.752 313.57L113.922 313.81C119.472 318.66 128.842 321.81 123.922 323.46L104.062 320.97C103.028 320.847 102.037 320.483 101.169 319.909C100.301 319.334 99.5792 318.564 99.062 317.66L95.792 311.93L94.862 319.82L90.332 319.25C91.512 309.23 87.042 306.6 93.932 294.92Z" fill="#C45C38"/>
<path d="M125.522 224.8C124.421 229.961 123.052 235.061 121.422 240.08C120.822 240 120.222 239.92 119.612 239.82C117.502 239.53 115.422 239.16 113.332 238.71C107.702 237.48 102.198 235.729 96.892 233.48C94.892 232.63 92.832 231.71 90.822 230.71C88.032 229.33 85.282 227.81 82.532 226.17C82.532 226.17 50.122 226.77 36.532 223.36C33.8788 222.696 31.473 221.282 29.6021 219.287C27.7312 217.292 26.4745 214.8 25.982 212.11C24.982 206.57 24.582 202.26 26.432 196.11C27.1553 193.798 28.0305 191.537 29.052 189.34C30.7944 185.518 33.0301 181.941 35.702 178.7L35.762 178.64L36.642 178.81L49.762 181.43L64.822 184.35L67.042 184.78L67.222 184.84C67.222 185.05 111.942 195.19 123.132 207.58C124.139 208.618 124.907 209.864 125.382 211.23C126.632 215.14 126.522 219.52 125.522 224.8Z" fill="#C45C38"/>
<path d="M234.272 172.7H77.032V180.43H234.272V172.7Z" fill="#84735D"/>
<path d="M234.272 172.7H77.032V180.43H234.272V172.7Z" fill="#988E87"/>
<path d="M224.332 180.43H120.322V323.45H224.332V180.43Z" fill="#988E87"/>
<path opacity="0.2" d="M224.342 180.43H120.312V207.6H224.342V180.43Z" fill="#1D1D1B"/>
<path d="M39.702 66.65C40.162 72.5 36.162 77.65 30.782 78.02C25.402 78.39 20.642 74.02 20.192 68.18C19.742 62.34 23.722 57.18 29.112 56.81C34.502 56.44 39.242 60.79 39.702 66.65Z" fill="#21201D"/>
<path d="M56.992 78.82C57.832 82.08 58.322 84.1 56.142 84.66C53.962 85.22 50.202 82.9 49.362 79.66C49.1675 79.0796 49.0892 78.4665 49.1317 77.8558C49.1742 77.2451 49.3366 76.6488 49.6096 76.1009C49.8827 75.553 50.261 75.0642 50.7229 74.6626C51.1849 74.2609 51.7215 73.9542 52.302 73.76L52.632 73.66C54.802 73.09 56.142 75.56 56.992 78.82Z" fill="#F7D2A6"/>
<path d="M56.192 83.7399C56.2688 84.0424 56.2543 84.3608 56.1503 84.6551C56.0464 84.9493 55.8577 85.2062 55.6079 85.3933C55.3581 85.5804 55.0586 85.6894 54.747 85.7065C54.4354 85.7235 54.1257 85.6479 53.857 85.4892C53.5883 85.3305 53.3726 85.0958 53.2372 84.8147C53.1017 84.5335 53.0525 84.2186 53.0959 83.9095C53.1392 83.6005 53.273 83.3112 53.4806 83.0781C53.6881 82.8451 53.96 82.6787 54.262 82.5999C54.4636 82.5474 54.6736 82.5352 54.8799 82.5641C55.0862 82.593 55.2848 82.6625 55.4641 82.7684C55.6435 82.8744 55.8002 83.0148 55.9251 83.1815C56.05 83.3482 56.1407 83.538 56.192 83.7399V83.7399Z" fill="white"/>
<path opacity="0.1" d="M120.322 205.03V207.76C108.262 206.86 72.652 192.48 50.982 184.1C44.782 181.7 39.712 179.79 36.662 178.83C36.462 178.38 36.252 177.9 36.032 177.33C36.3819 175.078 36.4925 172.795 36.362 170.52C36.362 169.76 36.362 169.04 36.252 168.26C35.892 164.2 35.062 159.83 34.252 155.06C33.1253 149.24 32.2854 143.373 31.732 137.46C31.622 136.46 31.562 135.46 31.502 134.36C31.382 132.28 31.322 130.19 31.322 127.96C31.322 114.82 39.612 102.63 40.142 101.89C31.622 124.89 43.712 129.72 56.542 133.89L65.022 150.02C68.0184 149.634 70.9087 148.659 73.5261 147.15C76.1436 145.641 78.4363 143.629 80.272 141.23C79.922 149.59 70.402 152.87 70.402 152.87C70.402 153.53 70.402 154.18 70.352 154.8C70.302 155.42 70.292 156.03 70.252 156.64C70.152 158.64 69.992 160.64 69.862 162.56V162.62C69.482 166.45 69.022 170.03 68.532 173.39C67.942 177.5 67.402 181.33 67.052 184.8L67.222 184.86C67.252 185.05 105.882 193.83 120.322 205.03Z" fill="#1D1D1B"/>
<path d="M58.752 162.78L99.872 155.38C99.872 155.38 104.742 161.15 104.412 161.33C92.592 167.92 69.662 177.81 61.912 178.51C52.782 179.69 49.542 164.86 58.752 162.78Z" fill="#F7F1D8"/>
<path d="M54.322 121.23L67.762 168.03C71.212 177.6 56.952 184.44 52.812 172.28L36.752 126.33C32.492 110.65 50.452 108.47 54.322 121.23Z" fill="#F7F1D8"/>
<path d="M13.862 209.4C13.862 209.4 22.662 210.59 22.642 196.69L23.642 130.19C24.542 124.7 19.102 120.08 12.862 120.48L10.522 120.63C8.94722 120.731 7.47405 121.442 6.41667 122.614C5.3593 123.785 4.80142 125.323 4.86201 126.9L7.77201 203.58C7.83174 205.151 8.5009 206.638 9.6377 207.724C10.7745 208.81 12.2896 209.412 13.862 209.4V209.4Z" fill="#3C3C3B"/>
<path opacity="0.15" d="M120.322 225.57V239.92C120.082 239.92 119.852 239.86 119.622 239.82C118.722 242.92 117.742 246.3 116.752 249.82L106.352 250.74L94.282 251.81L92.522 251.96C92.522 251.96 89.622 249.04 85.852 245.33C87.412 239.41 89.072 234.13 90.852 230.72C88.062 229.34 85.312 227.82 82.562 226.18C82.562 226.18 50.142 226.78 36.562 223.37C33.9072 222.71 31.4994 221.297 29.628 219.301C27.7566 217.305 26.501 214.812 26.012 212.12C25.012 206.58 24.612 202.27 26.452 196.12C31.662 213.24 35.452 229.35 87.072 215.95C89.8899 218.25 92.9757 220.201 96.262 221.76C97.7041 222.456 99.1868 223.063 100.702 223.58C107.019 225.666 113.715 226.345 120.322 225.57V225.57Z" fill="#1D1D1B"/>
<g opacity="0.75">
<path opacity="0.75" d="M169.182 130.83H139.952L140.092 129.91H169.322L169.182 130.83Z" fill="white"/>
<path opacity="0.75" d="M168.832 133.23H139.632L139.772 132.31H168.992L168.832 133.23Z" fill="white"/>
<path opacity="0.75" d="M155.242 135.54H139.242L139.372 134.63H155.372L155.242 135.54Z" fill="white"/>
<path opacity="0.75" d="M167.762 140.23H138.542L138.682 139.31H167.902L167.762 140.23Z" fill="white"/>
<path opacity="0.75" d="M162.162 142.61H138.162L138.292 141.7H162.292L162.162 142.61Z" fill="white"/>
<path opacity="0.75" d="M167.062 144.97H137.832L137.972 144.06H167.202L167.062 144.97Z" fill="white"/>
<path opacity="0.75" d="M153.472 147.33H137.472L137.612 146.41H153.612L153.472 147.33Z" fill="white"/>
<path opacity="0.75" d="M166.352 149.69H137.132L137.262 148.77H166.492L166.352 149.69Z" fill="white"/>
<path opacity="0.75" d="M162.392 152.05H136.772L136.912 151.13H162.522L162.392 152.05Z" fill="white"/>
<path opacity="0.75" d="M165.632 154.4H136.422L136.562 153.49H165.782L165.632 154.4Z" fill="white"/>
<path opacity="0.75" d="M165.292 156.76H136.062L136.202 155.84H165.432L165.292 156.76Z" fill="white"/>
<path opacity="0.75" d="M164.942 159.12H135.712L135.852 158.2H165.072L164.942 159.12Z" fill="white"/>
</g>
<path d="M193.122 38.84C193.122 46.5218 190.844 54.0311 186.576 60.4183C182.309 66.8056 176.243 71.7838 169.145 74.7235C162.048 77.6632 154.239 78.4324 146.705 76.9337C139.17 75.4351 132.25 71.7359 126.818 66.304C121.386 60.8722 117.687 53.9515 116.188 46.4173C114.69 38.8831 115.459 31.0737 118.399 23.9766C121.338 16.8795 126.316 10.8135 132.704 6.54572C139.091 2.27793 146.6 1.28812e-06 154.282 1.28812e-06C159.383 -0.00131253 164.434 1.00242 169.147 2.95384C173.86 4.90527 178.142 7.76616 181.749 11.373C185.356 14.9799 188.217 19.2621 190.168 23.975C192.12 28.6879 193.123 33.7391 193.122 38.84V38.84Z" fill="#9CA79A"/>
<path d="M154.262 76.38C175 76.38 191.812 59.5683 191.812 38.83C191.812 18.0917 175 1.28003 154.262 1.28003C133.524 1.28003 116.712 18.0917 116.712 38.83C116.712 59.5683 133.524 76.38 154.262 76.38Z" fill="#2F2E29"/>
<path d="M184.762 38.8401C184.762 44.8685 182.974 50.7615 179.625 55.7739C176.276 60.7863 171.516 64.693 165.946 67C160.377 69.3069 154.248 69.9105 148.336 68.7344C142.423 67.5584 136.992 64.6554 132.729 60.3927C128.467 56.13 125.564 50.699 124.388 44.7865C123.212 38.8739 123.815 32.7454 126.122 27.1759C128.429 21.6064 132.336 16.8461 137.348 13.4969C142.361 10.1477 148.254 8.36011 154.282 8.36011C162.366 8.36011 170.119 11.5714 175.835 17.2875C181.551 23.0036 184.762 30.7563 184.762 38.8401V38.8401Z" fill="#B1B1B1"/>
<path d="M182.872 38.84C182.87 44.4961 181.191 50.0246 178.047 54.7266C174.903 59.4285 170.436 63.0927 165.21 65.2558C159.984 67.4189 154.234 67.9839 148.686 66.8792C143.139 65.7746 138.044 63.0499 134.045 59.0497C130.046 55.0495 127.324 49.9535 126.221 44.4059C125.118 38.8583 125.685 33.1083 127.85 27.8829C130.015 22.6576 133.681 18.1914 138.384 15.0493C143.087 11.9071 148.616 10.23 154.272 10.23V10.23C158.026 10.2274 161.745 10.9647 165.214 12.4C168.683 13.8352 171.835 15.9401 174.491 18.5944C177.146 21.2487 179.252 24.4003 180.688 27.869C182.125 31.3378 182.863 35.0556 182.862 38.81L182.872 38.84Z" fill="white"/>
<path d="M154.282 38.84L138.952 14.71C143.527 11.7864 148.843 10.232 154.272 10.23L154.282 38.84Z" fill="#E46C41"/>
<path d="M166.542 16.74L166.262 17.1799C166.248 17.2045 166.227 17.2248 166.203 17.2389C166.178 17.2529 166.15 17.2602 166.122 17.2599C166.097 17.2607 166.073 17.2557 166.05 17.2453C166.027 17.2349 166.008 17.2194 165.992 17.1999C165.975 17.183 165.962 17.1627 165.953 17.1403C165.944 17.1179 165.941 17.0939 165.942 17.0699C165.932 17.034 165.932 16.9959 165.942 16.96C165.96 16.9229 165.983 16.8891 166.012 16.8599L166.602 16.0799L166.672 16.0099C166.708 15.9997 166.746 15.9997 166.782 16.0099C166.828 15.996 166.876 15.996 166.922 16.0099C166.942 16.0226 166.958 16.0405 166.969 16.0616C166.979 16.0828 166.984 16.1064 166.982 16.1299V20.7299C166.987 20.7563 166.982 20.7834 166.969 20.807C166.957 20.8305 166.937 20.8492 166.912 20.8599C166.862 20.8889 166.805 20.9042 166.747 20.9042C166.689 20.9042 166.632 20.8889 166.582 20.8599C166.561 20.8449 166.544 20.8255 166.532 20.8029C166.52 20.7804 166.513 20.7555 166.512 20.7299L166.542 16.74Z" fill="black"/>
<path d="M174.072 25.8001C174.07 25.6443 174.104 25.4902 174.172 25.3501C174.246 25.2161 174.344 25.0974 174.462 25.0001C174.587 24.8984 174.729 24.8205 174.882 24.7701C175.235 24.645 175.619 24.645 175.972 24.7701C176.139 24.8283 176.292 24.9202 176.422 25.0401C176.549 25.1552 176.65 25.2957 176.719 25.4525C176.788 25.6093 176.823 25.7788 176.822 25.9501C176.829 26.1799 176.766 26.4065 176.642 26.6001C176.523 26.7982 176.375 26.9769 176.202 27.1301C176.019 27.2901 175.825 27.4372 175.622 27.5701C175.412 27.7001 175.222 27.8301 175.052 27.9501C174.891 28.0663 174.74 28.1968 174.602 28.3401C174.495 28.4506 174.431 28.5962 174.422 28.7501V29.2301H176.702C176.725 29.2292 176.749 29.2343 176.77 29.2448C176.791 29.2552 176.809 29.2708 176.822 29.2901C176.853 29.3303 176.871 29.3793 176.872 29.4301C176.876 29.4847 176.858 29.5385 176.822 29.5801C176.809 29.5993 176.791 29.6149 176.77 29.6254C176.749 29.6359 176.725 29.6409 176.702 29.6401H174.162C174.111 29.6387 174.062 29.6211 174.022 29.5901C173.998 29.5802 173.978 29.5635 173.964 29.5422C173.95 29.5208 173.942 29.4957 173.942 29.4701V28.8101C173.942 28.6245 174.005 28.4444 174.122 28.3001C174.253 28.1388 174.401 27.9914 174.562 27.8601C174.752 27.7101 174.942 27.5701 175.142 27.4401C175.347 27.3116 175.544 27.1713 175.732 27.0201C175.898 26.8906 176.046 26.7392 176.172 26.5701C176.264 26.4489 176.323 26.3063 176.344 26.1557C176.365 26.0052 176.347 25.8517 176.292 25.7101C176.253 25.6069 176.196 25.5119 176.122 25.4301C176.036 25.3422 175.934 25.271 175.822 25.2201C175.684 25.1685 175.539 25.1415 175.392 25.1401C175.168 25.1307 174.948 25.2016 174.772 25.3401C174.687 25.414 174.622 25.5069 174.58 25.6112C174.538 25.7155 174.522 25.8282 174.532 25.9401C174.529 25.9639 174.522 25.9869 174.51 26.0076C174.498 26.0282 174.481 26.0461 174.462 26.0601C174.411 26.1004 174.347 26.1216 174.282 26.1201C174.223 26.1214 174.166 26.0999 174.122 26.0601C174.097 26.0223 174.079 25.9798 174.071 25.9352C174.062 25.8905 174.063 25.8446 174.072 25.8001V25.8001Z" fill="black"/>
<path d="M178.922 40.9401C179.199 40.9575 179.474 40.8721 179.692 40.7001C179.787 40.5971 179.859 40.4753 179.904 40.3427C179.949 40.21 179.965 40.0695 179.952 39.9301V39.8001C179.964 39.6734 179.946 39.5457 179.899 39.4274C179.852 39.3091 179.778 39.2038 179.682 39.1201C179.466 38.9679 179.205 38.8939 178.942 38.9101C178.916 38.9109 178.89 38.906 178.865 38.8956C178.841 38.8852 178.82 38.8697 178.802 38.8501C178.773 38.8126 178.755 38.7674 178.752 38.7201C178.742 38.6739 178.742 38.6262 178.752 38.5801C178.768 38.5592 178.79 38.5428 178.814 38.5323C178.839 38.5219 178.866 38.5177 178.892 38.5201C179.126 38.5332 179.357 38.47 179.552 38.3401C179.641 38.2525 179.709 38.1457 179.751 38.0279C179.792 37.91 179.806 37.7842 179.792 37.6601C179.803 37.4221 179.728 37.188 179.582 37.0001C179.398 36.8468 179.161 36.7714 178.922 36.7901C178.769 36.7881 178.617 36.8118 178.472 36.8601C178.363 36.8982 178.264 36.9597 178.182 37.0401C178.12 37.1102 178.073 37.1917 178.042 37.2801C178.032 37.3564 178.032 37.4338 178.042 37.5101C178.042 37.6601 177.962 37.7301 177.812 37.7301C177.778 37.7357 177.743 37.7332 177.71 37.7228C177.677 37.7124 177.647 37.6943 177.622 37.6701C177.581 37.6118 177.564 37.5406 177.572 37.4701C177.572 37.3606 177.592 37.252 177.632 37.1501C177.682 37.0196 177.753 36.8981 177.842 36.7901C177.964 36.6675 178.111 36.5721 178.272 36.5101C178.494 36.4203 178.733 36.3794 178.972 36.3901C179.147 36.3897 179.322 36.4098 179.492 36.4501C179.647 36.4858 179.791 36.5577 179.912 36.6601C180.032 36.7584 180.125 36.8857 180.182 37.0301C180.326 37.4538 180.297 37.9174 180.102 38.3201C180.01 38.4903 179.867 38.627 179.692 38.7101C179.896 38.7883 180.075 38.9195 180.212 39.0901C180.361 39.2956 180.432 39.5472 180.412 39.8001V39.9301C180.422 40.1563 180.381 40.3818 180.292 40.5901C180.22 40.7566 180.115 40.9065 179.982 41.0301C179.84 41.1414 179.676 41.223 179.502 41.2701C179.313 41.3219 179.118 41.3488 178.922 41.3501C178.701 41.3569 178.481 41.323 178.272 41.2501C178.102 41.1921 177.945 41.1002 177.812 40.9801C177.697 40.8825 177.602 40.7637 177.532 40.6301C177.479 40.5068 177.452 40.3741 177.452 40.2401C177.444 40.1727 177.462 40.1049 177.502 40.0501C177.557 40.0293 177.617 40.0293 177.672 40.0501C177.733 40.0271 177.801 40.0271 177.862 40.0501C177.895 40.0855 177.912 40.132 177.912 40.1801C177.92 40.3636 177.994 40.538 178.122 40.6701C178.212 40.7509 178.317 40.8122 178.432 40.8501C178.588 40.9111 178.754 40.9417 178.922 40.9401V40.9401Z" fill="black"/>
<path d="M175.892 52.37H174.082C174.029 52.3692 173.979 52.3477 173.942 52.31C173.911 52.2776 173.893 52.2348 173.892 52.19C173.883 52.1505 173.883 52.1095 173.892 52.07L175.682 48.74C175.705 48.6974 175.739 48.6625 175.782 48.64C175.825 48.6298 175.869 48.6298 175.912 48.64C175.965 48.6474 176.015 48.6644 176.062 48.69C176.083 48.705 176.1 48.7245 176.112 48.747C176.124 48.7695 176.131 48.7944 176.132 48.82C176.137 48.8498 176.137 48.8802 176.132 48.91L174.482 51.98H175.882V50.68C175.883 50.6544 175.89 50.6295 175.902 50.607C175.914 50.5845 175.931 50.565 175.952 50.55C176.008 50.536 176.066 50.536 176.122 50.55C176.174 50.535 176.23 50.535 176.282 50.55C176.306 50.5616 176.327 50.58 176.341 50.6031C176.355 50.6262 176.363 50.6529 176.362 50.68V51.98H176.752C176.778 51.9794 176.803 51.9856 176.826 51.9979C176.849 52.0101 176.868 52.0281 176.882 52.05C176.897 52.0955 176.897 52.1444 176.882 52.19C176.884 52.2443 176.866 52.2975 176.832 52.34C176.819 52.3599 176.801 52.3761 176.78 52.3866C176.759 52.3972 176.736 52.4018 176.712 52.4H176.322V53.4C176.322 53.4283 176.315 53.4562 176.301 53.4808C176.287 53.5054 176.267 53.5258 176.242 53.54C176.19 53.555 176.134 53.555 176.082 53.54C176.026 53.5548 175.968 53.5548 175.912 53.54C175.89 53.5239 175.872 53.5029 175.86 53.4785C175.848 53.4541 175.842 53.4272 175.842 53.4L175.892 52.37Z" fill="black"/>
<path d="M167.022 58.7699C167.218 58.7685 167.412 58.792 167.602 58.8399C167.773 58.8894 167.932 58.9708 168.072 59.0799C168.208 59.1966 168.314 59.344 168.382 59.5099C168.463 59.7098 168.5 59.9245 168.492 60.1399V60.2799C168.5 60.5018 168.463 60.7231 168.382 60.9299C168.312 61.0999 168.202 61.2507 168.062 61.3699C167.931 61.4942 167.768 61.5806 167.592 61.6199C167.407 61.6758 167.215 61.7028 167.022 61.6999C166.805 61.7016 166.589 61.6678 166.382 61.5999C166.215 61.5504 166.058 61.4689 165.922 61.3599C165.801 61.2577 165.702 61.1317 165.632 60.9899C165.564 60.857 165.53 60.7093 165.532 60.5599C165.527 60.5279 165.531 60.4952 165.544 60.4653C165.556 60.4354 165.576 60.4093 165.602 60.3899C165.646 60.3501 165.703 60.3286 165.762 60.3299C165.922 60.3299 166.002 60.3999 166.002 60.5199C166.002 60.6347 166.03 60.7477 166.082 60.8499C166.133 60.9475 166.209 61.0302 166.302 61.0899C166.395 61.1596 166.5 61.2106 166.612 61.2399C166.745 61.2545 166.879 61.2545 167.012 61.2399C167.148 61.2514 167.284 61.2351 167.413 61.1922C167.542 61.1492 167.661 61.0804 167.762 60.9899C167.859 60.8877 167.933 60.7664 167.979 60.6337C168.026 60.501 168.044 60.36 168.032 60.2199V60.0899C168.039 59.9547 168.019 59.8194 167.973 59.6922C167.927 59.565 167.855 59.4485 167.762 59.3499C167.662 59.2607 167.545 59.1926 167.417 59.1497C167.29 59.1067 167.156 59.0898 167.022 59.0999H166.022C165.958 59.1236 165.887 59.1236 165.822 59.0999C165.79 59.0681 165.772 59.0249 165.772 58.9799V58.8499L165.922 56.9099C165.922 56.7999 165.982 56.7399 166.062 56.7399H168.062C168.086 56.738 168.109 56.7427 168.13 56.7532C168.152 56.7638 168.169 56.7799 168.182 56.7999C168.207 56.8443 168.219 56.8942 168.219 56.9449C168.219 56.9956 168.207 57.0455 168.182 57.0899C168.169 57.1099 168.152 57.126 168.13 57.1366C168.109 57.1472 168.086 57.1518 168.062 57.1499H166.342L166.232 58.7699H167.022Z" fill="black"/>
<path d="M154.522 61.6499C154.711 61.6535 154.898 61.6769 155.082 61.7199C155.249 61.7569 155.404 61.8334 155.534 61.9431C155.665 62.0528 155.767 62.1923 155.832 62.3499C155.912 62.5535 155.95 62.7713 155.942 62.9899V63.1499C155.953 63.3794 155.912 63.6084 155.822 63.8199C155.759 63.9942 155.653 64.1493 155.512 64.2699C155.374 64.3827 155.214 64.4646 155.042 64.5099C154.66 64.6197 154.254 64.6197 153.872 64.5099C153.7 64.4646 153.54 64.3827 153.402 64.2699C153.265 64.1465 153.158 63.9923 153.092 63.8199C153.012 63.6057 152.971 63.3787 152.972 63.1499V61.0699C152.971 60.8444 153.012 60.6207 153.092 60.4099C153.158 60.2376 153.265 60.0834 153.402 59.9599C153.545 59.8476 153.708 59.7628 153.882 59.7099C154.074 59.6573 154.273 59.6338 154.472 59.6399C154.687 59.6325 154.9 59.6664 155.102 59.7399C155.263 59.7868 155.412 59.866 155.541 59.9726C155.67 60.0792 155.776 60.211 155.852 60.3599C155.911 60.4955 155.942 60.6419 155.942 60.7899C155.947 60.8195 155.944 60.8499 155.934 60.878C155.923 60.9061 155.905 60.9309 155.882 60.9499C155.83 60.9649 155.774 60.9649 155.722 60.9499C155.666 60.9648 155.608 60.9648 155.552 60.9499C155.528 60.9358 155.507 60.9153 155.493 60.8907C155.479 60.8661 155.472 60.8383 155.472 60.8099C155.475 60.6979 155.448 60.5872 155.392 60.4899C155.341 60.3976 155.269 60.3187 155.182 60.2599C155.08 60.1908 154.969 60.1369 154.852 60.0999C154.724 60.0686 154.594 60.0518 154.462 60.0499C154.327 60.0358 154.191 60.0519 154.063 60.0972C153.935 60.1424 153.819 60.2156 153.724 60.3115C153.628 60.4073 153.555 60.5234 153.509 60.6511C153.464 60.7789 153.448 60.9151 153.462 61.0499V62.0499C153.587 61.898 153.749 61.7808 153.932 61.7099C154.124 61.6571 154.323 61.6368 154.522 61.6499V61.6499ZM153.442 63.2299C153.43 63.37 153.448 63.511 153.495 63.6437C153.541 63.7764 153.615 63.8978 153.712 63.9999C153.927 64.1614 154.188 64.2487 154.457 64.2487C154.726 64.2487 154.987 64.1614 155.202 63.9999C155.297 63.8969 155.369 63.7752 155.414 63.6425C155.459 63.5099 155.475 63.3693 155.462 63.2299V63.0599C155.477 62.9234 155.462 62.7852 155.417 62.6554C155.372 62.5257 155.299 62.4076 155.202 62.3099C154.986 62.1497 154.72 62.0717 154.452 62.0899C154.189 62.079 153.93 62.1526 153.712 62.2999C153.614 62.3882 153.538 62.4987 153.491 62.6222C153.444 62.7457 153.427 62.8786 153.442 63.0099V63.2299Z" fill="black"/>
<path d="M144.032 57.5001C144.033 57.5729 144.008 57.6437 143.962 57.7001L141.842 61.6001C141.828 61.6281 141.807 61.6515 141.78 61.6674C141.754 61.6834 141.723 61.6913 141.692 61.6901C141.621 61.6903 141.551 61.6694 141.492 61.6301C141.463 61.6149 141.44 61.5917 141.424 61.5633C141.408 61.5349 141.4 61.5026 141.402 61.4701C141.393 61.4407 141.393 61.4095 141.402 61.3801L143.532 57.5301V57.1701H141.532V57.9401C141.534 57.9649 141.529 57.9898 141.516 58.0113C141.504 58.0328 141.485 58.0498 141.462 58.0601C141.41 58.0746 141.354 58.0746 141.302 58.0601C141.247 58.0792 141.187 58.0792 141.132 58.0601C141.111 58.0479 141.093 58.0305 141.081 58.0094C141.069 57.9884 141.062 57.9645 141.062 57.9401V56.9401C141.072 56.8963 141.096 56.8574 141.132 56.8301C141.181 56.8148 141.233 56.8148 141.282 56.8301H143.812C143.861 56.8174 143.913 56.8174 143.962 56.8301C143.981 56.8425 143.997 56.8587 144.009 56.8777C144.021 56.8966 144.029 56.9179 144.032 56.9401V57.5001Z" fill="black"/>
<path d="M132.852 48.1201C133.03 48.1198 133.208 48.1399 133.382 48.1801C133.539 48.2113 133.687 48.2799 133.812 48.3801C133.94 48.4691 134.037 48.5946 134.092 48.7401C134.165 48.9176 134.199 49.1085 134.192 49.3001C134.211 49.5424 134.151 49.7844 134.022 49.9901C133.908 50.1532 133.748 50.2786 133.562 50.3501C133.791 50.4372 133.99 50.5903 134.132 50.7901C134.281 51.0367 134.354 51.322 134.342 51.6101V51.6901C134.343 51.9091 134.302 52.1263 134.222 52.3301C134.151 52.4944 134.046 52.6412 133.912 52.7601C133.774 52.8729 133.614 52.9548 133.442 53.0001C133.058 53.1001 132.656 53.1001 132.272 53.0001C132.098 52.9591 131.937 52.8767 131.802 52.7601C131.662 52.6445 131.553 52.497 131.482 52.3301C131.405 52.1257 131.368 51.9085 131.372 51.6901V51.6101C131.359 51.322 131.433 51.0367 131.582 50.7901C131.724 50.5903 131.923 50.4372 132.152 50.3501C131.966 50.2786 131.806 50.1532 131.692 49.9901C131.564 49.7834 131.501 49.543 131.512 49.3001C131.51 49.1089 131.544 48.919 131.612 48.7401C131.671 48.5939 131.772 48.4685 131.902 48.3801C132.024 48.2814 132.168 48.2128 132.322 48.1801C132.496 48.1404 132.674 48.1203 132.852 48.1201V48.1201ZM133.852 51.5601C133.865 51.4207 133.849 51.2802 133.804 51.1475C133.759 51.0149 133.687 50.8931 133.592 50.7901C133.373 50.6387 133.113 50.5577 132.847 50.5577C132.581 50.5577 132.321 50.6387 132.102 50.7901C132.005 50.8923 131.931 51.0137 131.885 51.1463C131.838 51.279 131.82 51.42 131.832 51.5601V51.6501C131.819 51.7919 131.836 51.9348 131.883 52.0693C131.929 52.2038 132.004 52.3268 132.102 52.4301C132.203 52.5206 132.322 52.5894 132.451 52.6324C132.58 52.6754 132.717 52.6916 132.852 52.6801C132.97 52.6941 133.089 52.6847 133.203 52.6525C133.317 52.6203 133.423 52.566 133.516 52.4926C133.609 52.4192 133.686 52.3282 133.744 52.2248C133.802 52.1215 133.838 52.0077 133.852 51.8901C133.867 51.8108 133.867 51.7294 133.852 51.6501V51.5601ZM132.852 48.5001C132.621 48.4921 132.393 48.5587 132.202 48.6901C132.055 48.8691 131.974 49.0935 131.974 49.3251C131.974 49.5567 132.055 49.7812 132.202 49.9601C132.393 50.0926 132.62 50.1636 132.852 50.1636C133.084 50.1636 133.311 50.0926 133.502 49.9601C133.649 49.7812 133.729 49.5567 133.729 49.3251C133.729 49.0935 133.649 48.8691 133.502 48.6901C133.313 48.5567 133.083 48.493 132.852 48.5101V48.5001Z" fill="black"/>
<path d="M129.742 39.33C129.557 39.3303 129.373 39.3102 129.192 39.27C129.024 39.2284 128.866 39.1498 128.732 39.04C128.602 38.9281 128.499 38.7878 128.432 38.63C128.361 38.4241 128.324 38.2079 128.322 37.99V37.82C128.322 37.5946 128.363 37.371 128.442 37.16C128.506 36.992 128.61 36.8418 128.743 36.7218C128.877 36.6017 129.038 36.5154 129.212 36.47C129.596 36.37 129.998 36.37 130.382 36.47C130.559 36.5166 130.723 36.602 130.862 36.72C131.002 36.8392 131.112 36.99 131.182 37.16C131.263 37.3703 131.3 37.5948 131.292 37.82V39.91C131.301 40.1385 131.264 40.3664 131.182 40.58C131.112 40.7499 131.002 40.9008 130.862 41.02C130.723 41.1379 130.559 41.2233 130.382 41.27C130.19 41.3259 129.992 41.3529 129.792 41.35C129.578 41.3518 129.365 41.318 129.162 41.25C128.992 41.1894 128.834 41.1016 128.692 40.99C128.577 40.8868 128.485 40.7608 128.422 40.62C128.355 40.4902 128.321 40.346 128.322 40.2C128.319 40.1707 128.322 40.141 128.332 40.1132C128.342 40.0854 128.358 40.0603 128.379 40.0399C128.401 40.0196 128.427 40.0044 128.455 39.9958C128.483 39.9871 128.513 39.9851 128.542 39.99C128.598 39.9751 128.656 39.9751 128.712 39.99C128.737 40.0065 128.757 40.0288 128.771 40.0549C128.785 40.0811 128.792 40.1103 128.792 40.14C128.784 40.248 128.809 40.3558 128.862 40.45C128.916 40.5455 128.992 40.6276 129.082 40.69C129.182 40.7597 129.294 40.8105 129.412 40.84C129.538 40.8802 129.67 40.9004 129.802 40.9C130.074 40.9097 130.34 40.8209 130.552 40.65C130.65 40.5467 130.725 40.4237 130.771 40.2891C130.818 40.1546 130.835 40.0117 130.822 39.87V38.87C130.701 39.0216 130.542 39.1388 130.362 39.21C130.165 39.2893 129.954 39.33 129.742 39.33V39.33ZM130.822 37.81C130.834 37.6675 130.815 37.5242 130.767 37.3896C130.718 37.2551 130.642 37.1324 130.542 37.03C130.329 36.8678 130.069 36.7799 129.802 36.7799C129.535 36.7799 129.275 36.8678 129.062 37.03C128.964 37.1333 128.889 37.2563 128.843 37.3908C128.796 37.5253 128.779 37.6683 128.792 37.81V37.97C128.776 38.1073 128.793 38.2464 128.839 38.3765C128.886 38.5066 128.962 38.6241 129.062 38.72C129.275 38.8792 129.536 38.9604 129.802 38.95C129.942 38.9653 130.082 38.9653 130.222 38.95C130.339 38.9191 130.447 38.8647 130.542 38.79C130.631 38.7126 130.703 38.6172 130.752 38.51C130.8 38.3719 130.824 38.2263 130.822 38.08V37.81Z" fill="black"/>
<path d="M131.892 25.4201L131.612 25.8601C131.598 25.8846 131.577 25.905 131.553 25.919C131.528 25.9331 131.5 25.9403 131.472 25.9401C131.447 25.9409 131.422 25.9359 131.4 25.9254C131.377 25.915 131.357 25.8995 131.342 25.8801C131.311 25.8399 131.293 25.7909 131.292 25.7401C131.283 25.7074 131.283 25.6728 131.292 25.6401C131.313 25.6051 131.336 25.5717 131.362 25.5401L131.952 24.7601L132.022 24.6901C132.058 24.6798 132.096 24.6798 132.132 24.6901C132.178 24.6801 132.226 24.6801 132.272 24.6901C132.293 24.7051 132.31 24.7246 132.322 24.7471C132.334 24.7696 132.341 24.7945 132.342 24.8201V29.4001C132.344 29.4274 132.337 29.4547 132.323 29.4781C132.309 29.5014 132.287 29.5196 132.262 29.5301C132.21 29.5451 132.154 29.5451 132.102 29.5301C132.05 29.5492 131.994 29.5492 131.942 29.5301C131.917 29.5193 131.897 29.5007 131.885 29.4771C131.872 29.4536 131.867 29.4265 131.872 29.4001L131.892 25.4201Z" fill="black"/>
<path d="M136.122 25.44C136.055 25.2717 135.95 25.1216 135.815 25.0017C135.679 24.8818 135.517 24.7955 135.342 24.75C134.958 24.6501 134.556 24.6501 134.172 24.75C133.995 24.7949 133.832 24.8807 133.694 25.0006C133.557 25.1205 133.45 25.271 133.382 25.44C133.305 25.6514 133.268 25.8751 133.272 26.1V28.23C133.268 28.4581 133.306 28.685 133.382 28.9C133.45 29.069 133.557 29.2195 133.694 29.3394C133.832 29.4593 133.995 29.5451 134.172 29.59C134.556 29.69 134.958 29.69 135.342 29.59C135.518 29.546 135.68 29.4603 135.816 29.3402C135.952 29.2201 136.057 29.0692 136.122 28.9C136.201 28.6856 136.242 28.4587 136.242 28.23V26.1C136.243 25.8745 136.202 25.6508 136.122 25.44V25.44ZM135.772 28.23C135.781 28.3714 135.762 28.5132 135.715 28.6471C135.669 28.781 135.596 28.9044 135.502 29.01C135.29 29.1809 135.024 29.2697 134.752 29.26C134.482 29.2739 134.218 29.1845 134.012 29.01C133.914 28.9067 133.839 28.7837 133.793 28.6492C133.746 28.5147 133.729 28.3718 133.742 28.23V26.1C133.728 25.9652 133.744 25.829 133.789 25.7012C133.834 25.5735 133.908 25.4574 134.003 25.3616C134.099 25.2657 134.215 25.1925 134.343 25.1473C134.471 25.102 134.607 25.0859 134.742 25.1C134.877 25.0885 135.014 25.1048 135.143 25.1478C135.272 25.1907 135.39 25.2596 135.492 25.35C135.589 25.4522 135.663 25.5736 135.709 25.7062C135.756 25.8389 135.774 25.9799 135.762 26.12L135.772 28.23Z" fill="black"/>
<path d="M141.022 16.7399L140.742 17.1799C140.713 17.2103 140.674 17.2283 140.632 17.2299C140.607 17.2307 140.583 17.2257 140.56 17.2153C140.537 17.2049 140.518 17.1893 140.502 17.1699C140.485 17.153 140.472 17.1327 140.463 17.1103C140.454 17.0879 140.451 17.0639 140.452 17.0399C140.442 17.004 140.442 16.9659 140.452 16.9299C140.473 16.895 140.496 16.8615 140.522 16.8299L141.112 16.0499L141.182 15.9799C141.215 15.9699 141.249 15.9699 141.282 15.9799C141.328 15.966 141.376 15.966 141.422 15.9799C141.445 15.9902 141.464 16.0073 141.476 16.0288C141.489 16.0503 141.494 16.0751 141.492 16.0999V20.7299C141.493 20.757 141.486 20.7837 141.471 20.8068C141.457 20.8299 141.437 20.8483 141.412 20.8599C141.36 20.8761 141.304 20.8761 141.252 20.8599C141.2 20.8735 141.145 20.8735 141.092 20.8599C141.07 20.8461 141.052 20.8269 141.04 20.8041C141.028 20.7813 141.022 20.7558 141.022 20.7299V16.7399Z" fill="black"/>
<path d="M143.272 16.74L142.992 17.1799C142.978 17.2045 142.957 17.2248 142.933 17.2389C142.908 17.2529 142.88 17.2602 142.852 17.2599C142.827 17.2607 142.803 17.2557 142.78 17.2453C142.757 17.2349 142.738 17.2194 142.722 17.1999C142.691 17.1636 142.673 17.1177 142.672 17.0699C142.662 17.034 142.662 16.9959 142.672 16.96C142.693 16.925 142.716 16.8916 142.742 16.8599L143.332 16.0799L143.402 16.0099C143.438 15.9997 143.476 15.9997 143.512 16.0099C143.558 15.996 143.606 15.996 143.652 16.0099C143.674 16.0205 143.692 16.038 143.702 16.0597C143.713 16.0814 143.717 16.1061 143.712 16.1299V20.7299C143.717 20.7563 143.712 20.7834 143.699 20.807C143.687 20.8305 143.667 20.8492 143.642 20.8599C143.594 20.889 143.538 20.9044 143.482 20.9044C143.426 20.9044 143.37 20.889 143.322 20.8599C143.299 20.8467 143.279 20.8278 143.266 20.8051C143.252 20.7824 143.243 20.7566 143.242 20.7299L143.272 16.74Z" fill="black"/>
<path d="M152.332 13.13L152.042 13.56C152.029 13.5839 152.01 13.6044 151.988 13.62C151.965 13.6356 151.939 13.6458 151.912 13.65C151.887 13.6488 151.862 13.6419 151.839 13.6298C151.817 13.6177 151.797 13.6007 151.782 13.58C151.763 13.5644 151.747 13.5446 151.737 13.522C151.726 13.4995 151.721 13.4748 151.722 13.45C151.718 13.4134 151.718 13.3765 151.722 13.34L151.792 13.25L152.372 12.47L152.452 12.4C152.485 12.391 152.519 12.391 152.552 12.4C152.601 12.3839 152.653 12.3839 152.702 12.4C152.721 12.4133 152.737 12.4313 152.747 12.4523C152.758 12.4733 152.763 12.4965 152.762 12.52V17.1C152.763 17.1272 152.756 17.1541 152.744 17.1785C152.732 17.2029 152.714 17.2239 152.692 17.24C152.641 17.2663 152.584 17.28 152.527 17.28C152.47 17.28 152.413 17.2663 152.362 17.24C152.34 17.2239 152.322 17.2029 152.31 17.1785C152.298 17.1541 152.292 17.1272 152.292 17.1L152.332 13.13Z" fill="black"/>
<path d="M153.632 13.49C153.624 13.3337 153.659 13.1783 153.732 13.04C153.798 12.9037 153.893 12.784 154.012 12.69C154.138 12.5904 154.28 12.5127 154.432 12.46C154.602 12.4003 154.782 12.3699 154.962 12.37C155.157 12.3675 155.35 12.4014 155.532 12.47C155.696 12.5345 155.848 12.6257 155.982 12.74C156.193 12.9369 156.33 13.2003 156.37 13.4861C156.41 13.7718 156.351 14.0627 156.202 14.31C156.083 14.505 155.935 14.6804 155.762 14.83C155.582 14.9931 155.388 15.1404 155.182 15.27C154.972 15.4 154.782 15.53 154.602 15.66C154.444 15.7729 154.297 15.9001 154.162 16.04C154.054 16.153 153.993 16.3034 153.992 16.46V16.88H156.262C156.285 16.8792 156.309 16.8842 156.33 16.8947C156.351 16.9052 156.369 16.9208 156.382 16.94C156.413 16.9802 156.431 17.0292 156.432 17.08C156.429 17.1336 156.412 17.1854 156.382 17.23C156.369 17.2493 156.351 17.2648 156.33 17.2753C156.309 17.2858 156.285 17.2908 156.262 17.29H153.722C153.673 17.3027 153.621 17.3027 153.572 17.29C153.551 17.275 153.534 17.2555 153.522 17.233C153.51 17.2105 153.503 17.1855 153.502 17.16V16.51C153.499 16.324 153.563 16.1431 153.682 16C153.811 15.8332 153.958 15.6822 154.122 15.55C154.302 15.41 154.502 15.27 154.702 15.14C154.907 15.0115 155.104 14.8713 155.292 14.72C155.456 14.5842 155.604 14.4299 155.732 14.26C155.852 14.1057 155.915 13.9152 155.912 13.72C155.91 13.6108 155.889 13.5027 155.852 13.4C155.815 13.2937 155.753 13.1978 155.672 13.12C155.586 13.0344 155.484 12.9665 155.372 12.92C155.241 12.858 155.097 12.8304 154.952 12.84C154.728 12.8306 154.508 12.9016 154.332 13.04C154.247 13.1139 154.182 13.2068 154.14 13.3111C154.098 13.4154 154.082 13.5281 154.092 13.64C154.086 13.6857 154.065 13.7281 154.032 13.76C153.976 13.7991 153.91 13.8201 153.842 13.82C153.783 13.8213 153.726 13.7998 153.682 13.76C153.655 13.7209 153.637 13.6768 153.629 13.6303C153.62 13.5838 153.621 13.536 153.632 13.49Z" fill="black"/>
<path d="M150.561 23.9299L148.147 24.7517L154.058 42.1133L156.472 41.2915L150.561 23.9299Z" fill="#3C3C3B"/>
<path d="M156.48 36.288L137.162 48.5854L138.075 50.0195L157.393 37.7221L156.48 36.288Z" fill="#3C3C3B"/>
<path d="M152.242 41.3601L168.702 16.8601L153.022 41.8601L152.242 41.3601Z" fill="#3C3C3B"/>
<path d="M155.412 37.2299C155.74 37.4554 155.993 37.7736 156.139 38.1437C156.285 38.5138 156.317 38.9191 156.232 39.3076C156.146 39.6962 155.947 40.0504 155.659 40.325C155.371 40.5996 155.008 40.7821 154.615 40.8491C154.223 40.9161 153.82 40.8647 153.457 40.7013C153.094 40.5379 152.789 40.27 152.579 39.9319C152.369 39.5938 152.265 39.2008 152.28 38.8033C152.295 38.4057 152.428 38.0215 152.662 37.6999C152.969 37.2788 153.428 36.9941 153.942 36.9063C154.455 36.8185 154.983 36.9346 155.412 37.2299Z" fill="#3C3C3B"/>
</svg>
