<svg width="172" height="166" viewBox="0 0 172 166"  xmlns="http://www.w3.org/2000/svg">
<path d="M0 119.98C14.1318 121.732 27.671 126.711 39.57 134.534C51.469 142.356 61.4088 152.811 68.62 165.09L136.14 163.29L171.79 104.54C154.084 74.3669 129.197 49.0357 99.3419 30.7979C69.487 12.5601 35.5887 1.98067 0.660004 0L33.05 59L0 119.98Z" fill="#8C6FAA"/>
<path d="M48.6338 96.6699V80.9219H51.8135V96.6699H48.6338ZM65.209 96.6699H62.1904V90.8477C62.1904 89.6159 62.126 88.821 61.9971 88.4629C61.8682 88.0977 61.6569 87.8148 61.3633 87.6143C61.0768 87.4137 60.7295 87.3135 60.3213 87.3135C59.7985 87.3135 59.3294 87.4567 58.9141 87.7432C58.4987 88.0296 58.2122 88.4092 58.0547 88.8818C57.9043 89.3545 57.8291 90.2282 57.8291 91.5029V96.6699H54.8105V85.2617H57.6143V86.9375C58.6097 85.6484 59.863 85.0039 61.374 85.0039C62.04 85.0039 62.6488 85.1257 63.2002 85.3691C63.7516 85.6055 64.167 85.9098 64.4463 86.2822C64.7327 86.6546 64.9297 87.0771 65.0371 87.5498C65.1517 88.0225 65.209 88.6992 65.209 89.5801V96.6699ZM78.7441 96.6699H75.9404V94.9941C75.4749 95.6458 74.9235 96.1328 74.2861 96.4551C73.6559 96.7702 73.0186 96.9277 72.374 96.9277C71.0635 96.9277 69.9391 96.4014 69.001 95.3486C68.07 94.2887 67.6045 92.8135 67.6045 90.9229C67.6045 88.9893 68.0592 87.5212 68.9688 86.5186C69.8783 85.5088 71.0277 85.0039 72.417 85.0039C73.6917 85.0039 74.7946 85.5339 75.7256 86.5938V80.9219H78.7441V96.6699ZM70.6875 90.7188C70.6875 91.9362 70.8558 92.8171 71.1924 93.3613C71.6794 94.1491 72.3597 94.543 73.2334 94.543C73.9281 94.543 74.5189 94.2493 75.0059 93.6621C75.4928 93.0677 75.7363 92.1833 75.7363 91.0088C75.7363 89.6982 75.5 88.7565 75.0273 88.1836C74.5547 87.6035 73.9495 87.3135 73.2119 87.3135C72.4958 87.3135 71.8942 87.5999 71.4072 88.1729C70.9274 88.7386 70.6875 89.5872 70.6875 90.7188ZM88.3369 93.0391L91.3447 93.5439C90.958 94.6468 90.3457 95.4883 89.5078 96.0684C88.6771 96.6413 87.6351 96.9277 86.3818 96.9277C84.3981 96.9277 82.93 96.2796 81.9775 94.9834C81.2256 93.945 80.8496 92.6344 80.8496 91.0518C80.8496 89.1611 81.3438 87.6823 82.332 86.6152C83.3203 85.541 84.57 85.0039 86.0811 85.0039C87.7783 85.0039 89.1175 85.5661 90.0986 86.6904C91.0798 87.8076 91.5488 89.5228 91.5059 91.8359H83.9434C83.9648 92.7311 84.2083 93.4294 84.6738 93.9307C85.1393 94.4248 85.7194 94.6719 86.4141 94.6719C86.8867 94.6719 87.2842 94.543 87.6064 94.2852C87.9287 94.0273 88.1722 93.612 88.3369 93.0391ZM88.5088 89.9883C88.4873 89.1146 88.2617 88.4521 87.832 88.001C87.4023 87.5426 86.8796 87.3135 86.2637 87.3135C85.6048 87.3135 85.0605 87.5534 84.6309 88.0332C84.2012 88.513 83.9899 89.1647 83.9971 89.9883H88.5088ZM93.8906 85.2617H96.7051V86.9375C97.0703 86.3646 97.5645 85.8991 98.1875 85.541C98.8105 85.1829 99.5016 85.0039 100.261 85.0039C101.586 85.0039 102.71 85.5231 103.634 86.5615C104.558 87.5999 105.02 89.0465 105.02 90.9014C105.02 92.8063 104.554 94.2887 103.623 95.3486C102.692 96.4014 101.564 96.9277 100.239 96.9277C99.609 96.9277 99.0361 96.8024 98.5205 96.5518C98.012 96.3011 97.4749 95.8714 96.9092 95.2627V101.01H93.8906V85.2617ZM96.877 90.7725C96.877 92.0544 97.1312 93.0033 97.6396 93.6191C98.1481 94.2279 98.7676 94.5322 99.498 94.5322C100.2 94.5322 100.784 94.2529 101.249 93.6943C101.715 93.1286 101.947 92.2048 101.947 90.9229C101.947 89.7269 101.707 88.8389 101.228 88.2588C100.748 87.6787 100.153 87.3887 99.4443 87.3887C98.7067 87.3887 98.0944 87.6751 97.6074 88.248C97.1204 88.8138 96.877 89.6553 96.877 90.7725ZM114.032 93.0391L117.04 93.5439C116.653 94.6468 116.041 95.4883 115.203 96.0684C114.372 96.6413 113.33 96.9277 112.077 96.9277C110.093 96.9277 108.625 96.2796 107.673 94.9834C106.921 93.945 106.545 92.6344 106.545 91.0518C106.545 89.1611 107.039 87.6823 108.027 86.6152C109.016 85.541 110.265 85.0039 111.776 85.0039C113.474 85.0039 114.813 85.5661 115.794 86.6904C116.775 87.8076 117.244 89.5228 117.201 91.8359H109.639C109.66 92.7311 109.904 93.4294 110.369 93.9307C110.835 94.4248 111.415 94.6719 112.109 94.6719C112.582 94.6719 112.979 94.543 113.302 94.2852C113.624 94.0273 113.868 93.612 114.032 93.0391ZM114.204 89.9883C114.183 89.1146 113.957 88.4521 113.527 88.001C113.098 87.5426 112.575 87.3135 111.959 87.3135C111.3 87.3135 110.756 87.5534 110.326 88.0332C109.896 88.513 109.685 89.1647 109.692 89.9883H114.204ZM130.049 96.6699H127.03V90.8477C127.03 89.6159 126.966 88.821 126.837 88.4629C126.708 88.0977 126.497 87.8148 126.203 87.6143C125.917 87.4137 125.569 87.3135 125.161 87.3135C124.638 87.3135 124.169 87.4567 123.754 87.7432C123.339 88.0296 123.052 88.4092 122.895 88.8818C122.744 89.3545 122.669 90.2282 122.669 91.5029V96.6699H119.65V85.2617H122.454V86.9375C123.45 85.6484 124.703 85.0039 126.214 85.0039C126.88 85.0039 127.489 85.1257 128.04 85.3691C128.591 85.6055 129.007 85.9098 129.286 86.2822C129.573 86.6546 129.77 87.0771 129.877 87.5498C129.992 88.0225 130.049 88.6992 130.049 89.5801V96.6699Z" fill="white"/>
<path d="M59.1719 118.67H56.3682V116.994C55.9027 117.646 55.3512 118.133 54.7139 118.455C54.0837 118.77 53.4463 118.928 52.8018 118.928C51.4912 118.928 50.3669 118.401 49.4287 117.349C48.4977 116.289 48.0322 114.813 48.0322 112.923C48.0322 110.989 48.487 109.521 49.3965 108.519C50.306 107.509 51.4554 107.004 52.8447 107.004C54.1195 107.004 55.2223 107.534 56.1533 108.594V102.922H59.1719V118.67ZM51.1152 112.719C51.1152 113.936 51.2835 114.817 51.6201 115.361C52.1071 116.149 52.7874 116.543 53.6611 116.543C54.3558 116.543 54.9466 116.249 55.4336 115.662C55.9206 115.068 56.1641 114.183 56.1641 113.009C56.1641 111.698 55.9277 110.757 55.4551 110.184C54.9824 109.604 54.3773 109.313 53.6396 109.313C52.9235 109.313 52.3219 109.6 51.835 110.173C51.3551 110.739 51.1152 111.587 51.1152 112.719ZM68.7646 115.039L71.7725 115.544C71.3857 116.647 70.7734 117.488 69.9355 118.068C69.1048 118.641 68.0628 118.928 66.8096 118.928C64.8258 118.928 63.3577 118.28 62.4053 116.983C61.6533 115.945 61.2773 114.634 61.2773 113.052C61.2773 111.161 61.7715 109.682 62.7598 108.615C63.748 107.541 64.9977 107.004 66.5088 107.004C68.2061 107.004 69.5452 107.566 70.5264 108.69C71.5075 109.808 71.9766 111.523 71.9336 113.836H64.3711C64.3926 114.731 64.6361 115.429 65.1016 115.931C65.5671 116.425 66.1471 116.672 66.8418 116.672C67.3145 116.672 67.7119 116.543 68.0342 116.285C68.3564 116.027 68.5999 115.612 68.7646 115.039ZM68.9365 111.988C68.915 111.115 68.6895 110.452 68.2598 110.001C67.8301 109.543 67.3073 109.313 66.6914 109.313C66.0326 109.313 65.4883 109.553 65.0586 110.033C64.6289 110.513 64.4176 111.165 64.4248 111.988H68.9365ZM84.7812 118.67H81.7627V112.848C81.7627 111.616 81.6982 110.821 81.5693 110.463C81.4404 110.098 81.2292 109.815 80.9355 109.614C80.6491 109.414 80.3018 109.313 79.8936 109.313C79.3708 109.313 78.9017 109.457 78.4863 109.743C78.071 110.03 77.7845 110.409 77.627 110.882C77.4766 111.354 77.4014 112.228 77.4014 113.503V118.67H74.3828V107.262H77.1865V108.938C78.182 107.648 79.4352 107.004 80.9463 107.004C81.6123 107.004 82.221 107.126 82.7725 107.369C83.3239 107.605 83.7393 107.91 84.0186 108.282C84.305 108.655 84.502 109.077 84.6094 109.55C84.724 110.022 84.7812 110.699 84.7812 111.58V118.67ZM97.8008 110.635L94.8252 111.172C94.7249 110.577 94.4958 110.13 94.1377 109.829C93.7868 109.528 93.3285 109.378 92.7627 109.378C92.0107 109.378 91.4092 109.639 90.958 110.162C90.514 110.678 90.292 111.544 90.292 112.762C90.292 114.115 90.5176 115.071 90.9688 115.63C91.4271 116.188 92.0394 116.468 92.8057 116.468C93.3786 116.468 93.8477 116.307 94.2129 115.984C94.5781 115.655 94.8359 115.093 94.9863 114.298L97.9512 114.803C97.6432 116.163 97.0524 117.191 96.1787 117.886C95.305 118.58 94.1341 118.928 92.666 118.928C90.9974 118.928 89.6654 118.401 88.6699 117.349C87.6816 116.296 87.1875 114.839 87.1875 112.977C87.1875 111.093 87.6852 109.629 88.6807 108.583C89.6761 107.53 91.0225 107.004 92.7197 107.004C94.109 107.004 95.2119 107.305 96.0283 107.906C96.8519 108.501 97.4427 109.41 97.8008 110.635ZM106.706 115.039L109.714 115.544C109.327 116.647 108.715 117.488 107.877 118.068C107.046 118.641 106.004 118.928 104.751 118.928C102.767 118.928 101.299 118.28 100.347 116.983C99.5947 115.945 99.2188 114.634 99.2188 113.052C99.2188 111.161 99.7129 109.682 100.701 108.615C101.689 107.541 102.939 107.004 104.45 107.004C106.147 107.004 107.487 107.566 108.468 108.69C109.449 109.808 109.918 111.523 109.875 113.836H102.312C102.334 114.731 102.577 115.429 103.043 115.931C103.508 116.425 104.089 116.672 104.783 116.672C105.256 116.672 105.653 116.543 105.976 116.285C106.298 116.027 106.541 115.612 106.706 115.039ZM106.878 111.988C106.856 111.115 106.631 110.452 106.201 110.001C105.771 109.543 105.249 109.313 104.633 109.313C103.974 109.313 103.43 109.553 103 110.033C102.57 110.513 102.359 111.165 102.366 111.988H106.878Z" fill="white"/>
</svg>
