<svg width="350" height="380" viewBox="0 0 350 380" fill="none" xmlns="http://www.w3.org/2000/svg">
<path d="M331.57 116.28H329.266V98.8052H331.57V116.28Z" fill="#7F559F"/>
<path d="M175.851 18.4393H168.53L166.885 23H164.509L171.182 5.52516H173.198L179.883 23H177.519L175.851 18.4393ZM169.226 16.5429H175.167L172.19 8.36962L169.226 16.5429Z" fill="#7F559F"/>
<path d="M172.61 370.813H168.506V377.883H166.189V360.408H171.974C173.942 360.408 175.455 360.856 176.511 361.752C177.575 362.648 178.107 363.952 178.107 365.665C178.107 366.753 177.811 367.701 177.219 368.509C176.635 369.317 175.819 369.921 174.771 370.321L178.875 377.739V377.883H176.403L172.61 370.813ZM168.506 368.929H172.046C173.19 368.929 174.098 368.633 174.771 368.041C175.451 367.449 175.791 366.657 175.791 365.665C175.791 364.584 175.467 363.756 174.819 363.18C174.178 362.604 173.25 362.312 172.034 362.304H168.506V368.929Z" fill="#7F559F"/>
<path d="M5.79694 111.784L6.133 114.089L6.62508 112.012L10.0816 99.8184H12.026L15.3985 112.012L15.8786 114.125L16.2506 111.772L18.9631 99.8184H21.2795L17.0428 117.293H14.9424L11.3418 104.559L11.0658 103.227L10.7898 104.559L7.05715 117.293H4.95681L0.732119 99.8184H3.03649L5.79694 111.784Z" fill="#7F559F"/>
<path d="M10.1465 267.683C8.17021 267.115 6.72997 266.419 5.82583 265.595C4.92968 264.763 4.48161 263.739 4.48161 262.522C4.48161 261.146 5.0297 260.01 6.12587 259.114C7.23005 258.21 8.66229 257.758 10.4226 257.758C11.6228 257.758 12.6909 257.99 13.6271 258.454C14.5712 258.918 15.2994 259.558 15.8115 260.374C16.3315 261.19 16.5916 262.082 16.5916 263.05H14.2752C14.2752 261.994 13.9391 261.166 13.267 260.566C12.5949 259.958 11.6468 259.654 10.4226 259.654C9.28639 259.654 8.39824 259.906 7.75814 260.41C7.12604 260.906 6.80999 261.598 6.80999 262.486C6.80999 263.198 7.11003 263.803 7.71013 264.299C8.31823 264.787 9.3464 265.235 10.7946 265.643C12.2509 266.051 13.3871 266.503 14.2032 266.999C15.0273 267.487 15.6354 268.059 16.0275 268.715C16.4276 269.371 16.6276 270.144 16.6276 271.032C16.6276 272.448 16.0755 273.584 14.9713 274.44C13.8671 275.288 12.3909 275.712 10.5426 275.712C9.3424 275.712 8.22222 275.484 7.18205 275.028C6.14188 274.564 5.33775 273.932 4.76965 273.132C4.20956 272.332 3.92952 271.424 3.92952 270.408H6.24589C6.24589 271.464 6.63396 272.3 7.41008 272.916C8.19421 273.524 9.23838 273.828 10.5426 273.828C11.7588 273.828 12.6909 273.58 13.339 273.084C13.9872 272.588 14.3112 271.912 14.3112 271.056C14.3112 270.2 14.0112 269.539 13.4111 269.075C12.811 268.603 11.7228 268.139 10.1465 267.683Z" fill="#7F559F"/>
<path d="M324.226 269.417H320.121V276.486H317.805V259.011H323.59C325.558 259.011 327.07 259.46 328.127 260.356C329.191 261.252 329.723 262.556 329.723 264.268C329.723 265.357 329.427 266.305 328.835 267.113C328.251 267.921 327.434 268.525 326.386 268.925L330.491 276.342V276.486H328.019L324.226 269.417ZM320.121 267.533H323.662C324.806 267.533 325.714 267.237 326.386 266.645C327.066 266.053 327.406 265.261 327.406 264.268C327.406 263.188 327.082 262.36 326.434 261.784C325.794 261.208 324.866 260.916 323.65 260.908H320.121V267.533ZM337.824 274.914C338.616 274.914 339.308 274.674 339.9 274.194C340.493 273.714 340.821 273.114 340.885 272.394H342.985C342.945 273.138 342.689 273.846 342.217 274.518C341.745 275.19 341.113 275.726 340.321 276.126C339.536 276.526 338.704 276.726 337.824 276.726C336.056 276.726 334.648 276.138 333.599 274.962C332.559 273.778 332.039 272.162 332.039 270.113V269.741C332.039 268.477 332.271 267.353 332.735 266.369C333.199 265.385 333.864 264.62 334.728 264.076C335.6 263.532 336.628 263.26 337.812 263.26C339.268 263.26 340.477 263.696 341.437 264.568C342.405 265.441 342.921 266.573 342.985 267.965H340.885C340.821 267.125 340.501 266.437 339.925 265.901C339.356 265.357 338.652 265.084 337.812 265.084C336.684 265.084 335.808 265.493 335.184 266.309C334.568 267.117 334.26 268.289 334.26 269.825V270.245C334.26 271.742 334.568 272.894 335.184 273.702C335.8 274.51 336.68 274.914 337.824 274.914Z" fill="#7F559F"/>
<path d="M38.4495 269.808V115.67L172.572 38.5887L306.703 115.67V269.808L172.572 346.889L38.4495 269.808Z" stroke="#7F559F" stroke-width="2" stroke-linejoin="round"/>
<path d="M57.8888 259.074V127.421L172.566 61.5901L287.252 127.421V259.074L172.566 324.905L57.8888 259.074Z" stroke="#7F559F" stroke-width="2" stroke-linejoin="round"/>
<path d="M76.4956 248.68V138.595L172.563 83.5376L268.604 138.595V248.681L172.563 303.747L76.4956 248.68Z" stroke="#7F559F" stroke-width="2" stroke-linejoin="round"/>
<path d="M95.2689 237.101V148.713L172.569 104.498L249.879 148.713V237.101L172.569 281.316L95.2689 237.101Z" stroke="#7F559F" stroke-width="2" stroke-linejoin="round"/>
<path d="M114.847 226.536V159.778L172.564 126.404L230.289 159.778V226.536L172.564 259.91L114.847 226.536Z" stroke="#7F559F" stroke-width="2" stroke-linejoin="round"/>
<path d="M135.105 214.394V171.064L172.569 149.4L210.032 171.064V214.394L172.569 236.049L135.105 214.394Z" stroke="#7F559F" stroke-width="2" stroke-linejoin="round"/>
<path d="M154.114 203.393V182.028L172.568 171.347L191.03 182.028V203.393L172.568 214.074L154.114 203.393Z" stroke="#7F559F" stroke-width="2" stroke-linejoin="round"/>
</svg>
