<svg width="255" height="330" viewBox="0 0 255 330" fill="none" xmlns="http://www.w3.org/2000/svg">
<path d="M115.385 25.8342C114.865 23.5542 113.055 21.8342 111.015 20.1142C108.694 18.0028 106.503 15.7519 104.455 13.3742C103.775 12.4642 105.935 11.9442 107.455 13.3742C108.975 14.8042 110.965 16.5442 111.455 16.2042C111.945 15.8642 106.255 4.77422 106.925 3.64422C107.595 2.51422 109.075 3.10422 109.845 5.48422C110.477 7.32088 111.205 9.12332 112.025 10.8842C112.025 10.8842 108.805 0.464215 109.875 0.134215C110.945 -0.195785 111.995 -0.085784 114.395 2.44422C116.795 4.97422 118.805 4.90421 119.635 7.94421C120.465 10.9842 122.575 16.2042 122.125 18.0142C121.675 19.8242 123.255 23.8942 123.255 23.8942L115.385 25.8342Z" fill="#D7AA80"/>
<path d="M63.0751 152.934C60.3411 154.001 57.6701 155.223 55.0751 156.594C57.2151 160.524 61.4951 169.524 61.5151 170.984C61.8449 174.048 62.9082 176.988 64.6151 179.554C66.0751 181.654 65.5551 182.984 69.7051 183.804C71.3951 184.134 81.2551 186.014 73.3051 181.394C71.0351 180.074 68.9451 179.024 68.6451 177.654C68.3451 176.284 70.1051 174.924 70.5251 172.744C71.0551 170.014 68.7251 167.474 67.2551 164.364C66.4651 162.764 64.8751 158.174 63.0751 152.934Z" fill="#E7BC94"/>
<path d="M137.495 50.4242C136.495 46.2842 128.955 38.3742 125.835 29.5142C123.295 30.3942 123.285 25.6242 120.635 26.2242C121.085 28.6585 121.365 31.1211 121.475 33.5942C121.675 40.4142 125.275 52.4242 125.275 52.4242C125.275 52.4242 112.615 71.2042 110.495 72.2042C108.375 73.2042 105.715 72.2042 102.315 73.4042L104.455 111.114L119.325 98.6942C119.325 98.6942 124.485 91.8042 130.485 77.9742C136.485 64.1442 138.875 56.4342 137.495 50.4242Z" fill="#C8C762"/>
<path d="M68.2551 108.424C66.1451 109.424 55.8051 132.864 55.8051 132.864C55.8051 132.864 59.5751 144.864 59.8751 151.634C60.0364 154.363 60.394 157.077 60.9451 159.754C58.4451 160.614 59.1951 161.344 56.7051 162.254C53.4951 153.464 43.0251 134.584 41.9551 130.254C40.4651 124.254 41.9551 123.824 47.7451 109.914C53.5351 96.0042 56.2651 82.8642 63.3551 76.9142C64.4051 76.0342 68.9151 75.7942 72.0651 75.1942C74.4896 74.7435 76.8816 74.1321 79.2251 73.3642V111.064C75.8751 112.354 70.3651 107.394 68.2551 108.424Z" fill="#C8C762"/>
<path d="M101.755 286.734C105.935 294.634 110.565 300.214 107.855 303.734C105.145 307.254 92.2551 303.334 92.9751 295.234C92.9751 295.234 92.8051 297.784 92.0451 297.234C90.4754 295.585 89.0156 293.835 87.6751 291.994C86.4751 290.464 88.6751 284.244 88.6751 284.244L101.755 286.734Z" fill="#4A3E36"/>
<path d="M120.105 163.464C119.815 166.654 116.765 202.804 115.465 218.724C114.165 234.644 103.995 290.284 103.995 290.284C103.995 290.284 97.115 294.824 86.355 286.544C86.355 286.544 97.055 213.544 94.605 191.854V161.854L120.105 163.464Z" fill="#93887C"/>
<path d="M94.605 161.814L108.405 166.344C106.905 183.494 101.225 266.704 97.405 291.344C93.3746 290.727 89.5794 289.053 86.405 286.494C86.405 286.494 97.105 209.714 94.655 188.054L94.605 161.814Z" fill="#A09385"/>
<path d="M86.355 299.104C85.815 302.874 90.275 310.424 88.955 312.004C87.635 313.584 87.105 315.164 80.275 314.904C73.445 314.644 69.745 313.584 70.005 311.744C70.265 309.904 71.325 299.104 71.325 299.104H86.355Z" fill="#4A3E36"/>
<path d="M94.6051 188.104C94.6051 188.104 88.6051 209.514 89.2051 226.684C89.8051 243.854 86.6951 301.184 86.6951 301.184C86.6951 301.184 80.4551 306.924 65.9351 301.184C65.9351 301.184 66.7751 233.114 67.0551 222.274C67.3351 211.434 67.0551 164.994 67.0551 164.994L94.6151 161.814L94.6051 188.104Z" fill="#93887C"/>
<path d="M65.925 301.194C65.925 301.194 66.775 233.114 67.045 222.284C67.315 211.454 67.045 164.994 67.045 164.994L80.305 163.464C80.685 184.654 79.065 288.874 79.545 303.714C74.8814 303.804 70.248 302.946 65.925 301.194Z" fill="#A09385"/>
<path d="M80.8051 72.8042C80.8051 72.8042 63.5351 77.8042 63.3651 79.2142C63.1951 80.6242 66.2051 104.664 66.7451 112.144C67.2851 119.624 65.9851 147.594 65.4451 153.144C64.9051 158.694 67.0451 165.024 67.0451 165.024C67.0451 165.024 72.4751 167.264 93.7851 167.634L99.8451 76.6342L80.8051 72.8042Z" fill="#C8C762"/>
<path d="M105.685 72.9942C105.685 72.9942 122.955 77.9942 123.135 79.4042C123.315 80.8142 119.875 98.8742 119.745 112.334C119.685 119.834 121.535 147.424 122.065 152.944C122.285 156.572 121.597 160.198 120.065 163.494C120.065 163.494 115.065 167.264 93.7451 167.634L93.4851 75.4242L105.685 72.9942Z" fill="#C8C762"/>
<path d="M103.365 73.6442L82.8751 73.2542L92.9551 100.814L103.365 73.6442Z" fill="#F6F2E1"/>
<path d="M108.335 44.5342C108.505 37.4242 102.615 31.0942 92.945 31.5342C82.755 31.9742 79.205 39.4242 79.225 44.9742C79.1998 48.4482 79.8802 51.8911 81.225 55.0942C81.665 56.1942 85.035 59.2042 86.135 62.6142C87.235 66.0242 108.335 44.5342 108.335 44.5342Z" fill="#372115"/>
<path d="M83.4651 73.4642L92.9751 75.2442L103.375 73.6442C103.025 72.4042 98.1151 71.5542 99.3051 67.6442L85.1651 57.2042C86.0651 61.0042 87.6551 67.2742 84.1651 71.5142C84.0351 71.7242 83.6251 73.2742 83.4651 73.4642Z" fill="#E7BC94"/>
<g opacity="0.3">
<path opacity="0.3" d="M86.2851 65.0942C86.2537 62.4816 85.8874 59.8837 85.1951 57.3642L85.2751 57.3142L98.1351 67.7342C98.4439 68.1083 98.7964 68.444 99.1851 68.7342C99.2397 69.2918 99.4709 69.8173 99.8451 70.2342C95.7532 70.0153 91.7727 68.8222 88.2351 66.7542C87.3351 66.3142 86.9651 65.5242 86.2851 65.0942Z" fill="#E7BC94"/>
</g>
<path d="M84.805 57.4342C85.595 59.3342 86.065 61.9542 89.405 64.3542C92.745 66.7542 98.055 69.8442 99.705 69.7642C101.355 69.6842 102.645 70.1142 104.935 65.8942C107.225 61.6742 108.985 59.7042 108.935 55.4942C108.885 51.2842 110.165 42.6742 104.725 39.7342C100.725 37.5342 94.365 38.9242 91.155 42.4742C87.945 46.0242 87.925 47.2942 86.985 52.7242C86.985 52.7242 83.985 49.1242 82.855 49.0242C81.725 48.9242 80.795 49.6642 81.545 51.9342C82.295 54.2042 82.855 53.8042 82.985 54.9342C83.115 56.0642 83.305 57.2542 83.925 57.6642C84.705 58.1742 84.805 57.4342 84.805 57.4342Z" fill="#E7BC94"/>
<path d="M103.085 38.9142C103.085 38.9142 89.475 36.9142 87.175 53.8542L82.875 42.8542L93.315 33.4542L103.085 38.9142Z" fill="#372115"/>
<path d="M82.205 49.2042C83.765 48.6842 87.205 53.8542 87.205 53.8542C88.1973 50.3071 89.5615 46.8747 91.275 43.6142C81.415 36.4442 79.465 42.7942 79.425 42.8442C79.3138 43.5421 79.257 44.2476 79.255 44.9542C79.2306 48.4313 79.911 51.8773 81.255 55.0842C81.675 56.1442 84.835 59.0142 86.035 62.3042C85.9345 60.6116 85.6495 58.935 85.185 57.3042C85.185 57.3042 84.705 57.7342 84.295 57.5742C83.6992 57.1615 83.2729 56.5469 83.095 55.8442C82.975 55.4642 83.095 55.2442 82.955 54.8442C82.815 54.4442 82.475 54.0342 82.355 53.7842C81.705 52.4442 80.625 49.7142 82.205 49.2042Z" fill="#372115"/>
<path d="M104.455 39.0742C102.93 40.8858 101.082 42.3982 99.005 43.5342C95.845 45.0242 90.735 43.7642 90.005 47.1442C89.275 50.5242 88.475 53.9942 88.475 53.9942L87.155 53.8542L86.745 42.2242L93.545 35.4542L104.455 39.0742Z" fill="#372115"/>
<path d="M103.265 39.7642C104.737 41.5713 106.442 43.1753 108.335 44.5342L106.955 38.5942L103.265 35.5942V39.7642Z" fill="#372115"/>
<path d="M92.9751 75.0442C92.9751 75.0442 98.0551 73.5742 100.725 70.6742L105.135 72.8042C105.135 72.8042 100.505 81.2142 96.0551 83.7042L92.9751 75.0442Z" fill="#F6F2E1"/>
<path d="M92.9751 75.0442C92.9751 75.0442 87.6851 73.1142 84.9751 70.2042L79.1851 73.4042C79.1851 73.4042 85.3951 81.2142 89.8551 83.7042L92.9751 75.0442Z" fill="#F6F2E1"/>
<path d="M92.9751 75.0442C92.9751 75.0442 98.0551 73.5742 100.725 70.6742L105.135 72.8042C105.135 72.8042 100.505 81.2142 96.0551 83.7042L92.9751 75.0442Z" fill="#F5EAE0"/>
<path d="M92.9751 75.0442C92.9751 75.0442 87.6851 73.1142 84.9751 70.2042L79.1851 73.4042C79.1851 73.4042 85.3951 81.2142 89.8551 83.7042L92.9751 75.0442Z" fill="#F5EAE0"/>
<path d="M124.325 53.8542C124.325 53.8542 115.325 32.7542 114.375 26.6042C114.375 26.6042 119.375 22.3442 124.375 22.4342C124.375 22.4342 138.525 49.6442 139.375 53.8542C140.225 58.0642 132.055 74.4942 132.055 74.4942L124.325 53.8542Z" fill="#C8C762"/>
<path d="M139.305 53.8542C138.495 49.6542 124.305 22.4342 124.305 22.4342C123.496 22.4327 122.687 22.4862 121.885 22.5942C128.205 36.7842 138.715 50.4642 135.475 56.7742C132.095 63.3542 119.975 93.9742 113.665 95.0042C113.665 95.0042 116.895 101.124 116.205 111.714C115.515 122.304 120.475 139.254 116.205 143.544C111.935 147.834 99.8051 147.824 99.8051 147.824C99.8051 147.824 102.865 149.824 116.205 147.824C116.205 147.824 117.665 147.914 116.205 151.444C114.745 154.974 83.2651 158.294 73.1051 154.724C73.1051 154.724 84.4851 158.814 103.055 158.804C90.5965 161.485 77.6641 160.993 65.4451 157.374C65.7067 159.961 66.2328 162.515 67.0151 164.994C67.0151 164.994 72.4451 167.244 93.7451 167.594C115.045 167.234 120.065 163.464 120.065 163.464C121.597 160.168 122.285 156.542 122.065 152.914C121.525 147.394 119.675 119.794 119.745 112.304C119.858 106.954 120.252 101.613 120.925 96.3042C124.6 90.4671 127.801 84.3441 130.495 77.9942C131.035 76.7642 131.495 75.6442 131.985 74.4942C131.985 74.4942 140.105 58.0442 139.305 53.8542Z" fill="#B0B35E"/>
<path d="M57.3451 94.9942C47.8351 115.504 42.2451 127.254 41.9551 130.304C41.6651 133.354 57.6651 168.304 57.6651 168.304C57.6651 168.304 64.2151 166.484 68.2551 163.884L56.8751 131.284L61.1951 119.194L57.3451 94.9942Z" fill="#C8C762"/>
<path d="M143.525 38.0842C142.925 36.0842 144.465 32.5442 143.315 29.8542C142.165 27.1642 141.635 21.6442 141.055 21.6542C140.475 21.6642 139.455 22.3042 139.325 24.1742C139.195 26.0442 139.925 30.7442 139.565 30.8242C139.205 30.9042 135.875 25.8242 134.505 23.7242C133.135 21.6242 130.265 17.2342 129.225 17.2942C128.185 17.3542 128.225 18.0542 128.495 19.0642C128.765 20.0742 131.685 24.9342 132.055 25.7542C132.425 26.5742 133.135 27.5642 132.295 27.3742C131.455 27.1842 127.815 21.0542 126.195 19.3142C125.445 18.4942 124.715 19.0142 124.115 19.8742C124.176 20.2975 124.334 20.7012 124.575 21.0542C126.085 23.5942 129.745 28.5242 129.485 28.8542C129.225 29.1842 126.705 25.8542 124.785 23.2942C124.025 22.5342 123.255 21.8842 122.785 22.6442C121.785 24.3442 127.075 29.9442 127.015 30.1942C126.955 30.4442 123.435 26.6442 123.085 26.4042C122.897 26.3179 122.692 26.2733 122.485 26.2733C122.278 26.2733 122.073 26.3179 121.885 26.4042C121.812 26.4494 121.745 26.5031 121.685 26.5642C121.395 27.1242 121.845 27.6342 121.975 27.9942C122.485 29.3842 127.915 34.6242 128.475 35.8442C129.035 37.0642 132.695 41.8442 135.795 43.2242C138.895 44.6042 140.795 48.1342 141.545 49.6742C141.545 49.6742 146.885 49.2942 149.195 45.8442C149.215 45.8642 144.125 40.1142 143.525 38.0842Z" fill="#E7BC94"/>
<path opacity="0.5" d="M139.365 39.3042C137.675 36.6642 130.805 33.0842 124.555 23.0642C123.865 22.4142 123.215 21.9642 122.805 22.6442C121.805 24.3442 127.095 29.9442 127.035 30.1842C126.975 30.4242 123.455 26.6442 123.105 26.4042C122.917 26.3179 122.712 26.2733 122.505 26.2733C122.298 26.2733 122.093 26.3179 121.905 26.4042C121.834 26.452 121.767 26.5055 121.705 26.5642C121.415 27.1242 121.865 27.6342 121.995 27.9942C122.505 29.3842 127.945 34.6242 128.495 35.8442C129.045 37.0642 132.715 41.8442 135.815 43.2242C137.952 44.3432 139.696 46.0875 140.815 48.2242L143.245 47.2242C142.148 44.4924 140.851 41.8452 139.365 39.3042Z" fill="#D7AA80"/>
<path d="M240.135 191.694C238.635 207.754 235.735 220.384 235.995 224.394C236.255 228.404 238.995 238.604 235.995 252.464C233.925 262.004 230.255 275.054 230.505 282.574C230.755 290.094 232.765 294.574 232.765 300.134C232.765 305.694 232.275 307.134 225.495 307.134C218.375 307.134 220.275 298.884 221.005 295.134C221.735 291.384 223.245 284.814 223.485 281.554C224.065 273.554 221.765 255.144 221.485 249.984C220.985 240.404 222.215 232.924 223.485 225.644C224.005 222.644 222.355 215.434 221.425 208.994C220.125 199.994 219.265 191.684 219.265 191.684L240.135 191.694Z" fill="#E7BC94"/>
<path d="M197.365 189.424C191.845 203.474 189.935 218.304 189.435 220.814C188.935 223.324 184.895 231.904 181.635 240.934C178.375 249.964 172.635 278.064 170.635 283.584C168.635 289.104 166.125 295.374 163.635 297.584C161.145 299.794 155.355 300.854 154.855 303.854C154.355 306.854 170.405 306.364 170.905 305.114C171.405 303.864 172.165 297.594 175.425 295.834C178.685 294.074 182.205 291.064 180.695 288.054C179.185 285.044 177.695 284.054 179.435 280.284C181.175 276.514 187.435 259.944 192.435 254.284C197.435 248.624 199.435 232.044 202.485 227.774C205.535 223.504 215.405 202.694 217.155 196.924C218.905 191.154 197.365 189.424 197.365 189.424Z" fill="#E7BC94"/>
<path d="M238.495 144.924C240.965 150.524 247.415 160.214 246.405 172.244C245.395 184.274 240.405 203.504 240.925 207.014C241.445 210.524 198.485 208.634 191.635 202.544C191.635 202.544 197.125 177.964 199.635 171.444C202.145 164.924 202.275 162.844 202.415 156.604C202.424 152.456 203.145 148.339 204.545 144.434C205.295 142.674 238.495 144.924 238.495 144.924Z" fill="#DB4B51"/>
<path d="M180.775 290.404C179.708 295.384 179.073 300.446 178.875 305.534H176.695C177.014 301.822 176.927 298.087 176.435 294.394C175.545 289.884 180.775 290.404 180.775 290.404Z" fill="#DB4B51"/>
<path d="M225.455 307.154C232.235 307.154 232.725 305.654 232.725 300.154C232.703 298.494 232.546 296.839 232.255 295.204C232.4 296.343 232.087 297.492 231.386 298.401C230.686 299.31 229.653 299.905 228.515 300.054C228.183 300.091 227.847 300.091 227.515 300.054C222.335 299.964 220.515 297.584 220.945 295.154C220.235 298.904 218.335 307.164 225.455 307.154Z" fill="#5E5046"/>
<path d="M175.385 295.864C178.645 294.114 182.155 291.104 180.645 288.094C180.095 286.984 179.545 286.154 179.155 285.354C179.155 285.354 172.865 289.534 171.005 293.864C169.145 298.194 165.735 302.464 159.605 299.914C157.345 300.994 155.105 302.074 154.805 303.914C154.305 306.914 170.365 306.424 170.865 305.174C171.365 303.924 172.115 297.624 175.385 295.864Z" fill="#5E5046"/>
<path d="M236.525 151.484C235.525 151.324 210.225 153.014 200.795 153.664C200.69 155.202 200.69 156.746 200.795 158.284C204.095 160.174 225.665 162.784 237.155 160.534C237.155 160.534 241.895 170.954 240.475 181.974C239.315 190.974 237.225 204.114 237.275 208.404C239.645 208.074 241.045 207.614 240.955 207.004C240.455 203.494 245.435 184.294 246.435 172.244C247.115 164.064 244.365 157.014 241.755 151.544C239.525 151.574 237.135 151.574 236.525 151.484Z" fill="#C73D42"/>
<path d="M215.875 64.8342C215.975 71.9942 215.405 73.0942 213.035 75.4042C210.665 77.7142 208.035 81.7142 209.355 84.0242C210.675 86.3342 220.355 84.0242 220.355 84.0242L222.265 68.9242L215.875 64.8342Z" fill="#372115"/>
<path d="M240.665 47.8042C239.783 46.4978 238.692 45.3456 237.435 44.3942C236.985 44.0242 236.615 43.7442 236.435 43.5842V43.6542C235.268 42.8773 233.999 42.2648 232.665 41.8342C223.985 39.1042 218.865 44.5642 215.915 50.4742C215.915 50.4742 229.745 76.0542 231.565 73.1542C231.851 72.7293 232.187 72.3399 232.565 71.9942C232.145 73.6842 231.795 75.6242 231.795 75.6242L236.965 76.2742C240.735 70.7342 243.285 65.4042 243.805 61.7042C244.234 59.295 244.177 56.8243 243.638 54.4374C243.099 52.0504 242.088 49.7952 240.665 47.8042Z" fill="#372115"/>
<path d="M238.355 74.5142C238.745 76.9442 245.695 80.0742 242.625 87.2442C239.555 94.4142 229.035 85.0942 229.035 85.0942L229.275 73.2442L233.835 71.2442L238.355 74.5142Z" fill="#372115"/>
<path d="M220.005 68.9242C221.085 72.7642 220.525 76.4742 219.255 78.5042C217.985 80.5342 213.255 82.1442 214.665 86.0642C216.075 89.9842 229.765 89.4342 229.765 89.4342L220.005 68.9242Z" fill="#372115"/>
<path d="M233.925 68.9142C228.525 69.0742 225.025 74.9942 219.675 74.3342C219.603 75.1915 219.476 76.0432 219.295 76.8842C218.105 82.5142 211.695 83.2042 207.545 82.8842V97.6942H235.695V81.6942C230.615 79.7142 233.085 71.4042 233.925 68.9142Z" fill="#E7BC94"/>
<path d="M146.595 41.5842C146.595 41.5842 166.005 60.9942 172.875 69.3442C172.875 69.3442 187.875 76.5842 193.005 77.1842C198.135 77.7842 202.295 77.9642 205.855 79.7442C209.415 81.5242 212.215 82.7442 212.695 82.6442L217.295 95.9042L235.685 81.7242C235.685 81.7242 239.945 82.9342 241.245 83.3742C245.715 84.8742 247.085 86.6742 248.715 91.1442C249.715 93.8042 249.505 95.9442 250.435 99.3342C248.375 100.454 246.235 100.334 245.765 100.884C243.765 103.064 243.085 108.654 240.125 113.984C237.165 119.314 235.425 137.844 238.605 141.444C242.835 146.234 245.115 153.684 245.115 153.684C241.995 157.684 226.955 160.924 219.615 160.864C212.354 160.903 205.122 159.958 198.115 158.054C198.916 153.417 200.304 148.901 202.245 144.614C203.945 140.914 202.245 122.454 200.495 115.944C198.745 109.434 200.675 101.024 200.275 99.0442C199.875 97.0642 191.825 95.5542 183.135 89.8242C174.445 84.0942 165.755 82.7742 163.585 78.4342C161.415 74.0942 140.395 51.5842 139.585 48.2242C139.615 48.2242 144.415 43.9942 146.595 41.5842Z" fill="#758FE3"/>
<g opacity="0.3">
<path opacity="0.3" d="M219.295 76.8842C219.182 77.3385 219.024 77.7806 218.825 78.2042C221.345 78.4542 228.455 78.8142 232.595 75.6942C232.711 73.3789 233.159 71.0922 233.925 68.9042C228.525 69.0742 225.025 74.9942 219.665 74.3342C219.602 75.1919 219.478 76.044 219.295 76.8842Z" fill="#E7BC94"/>
</g>
<path d="M213.975 58.9342C213.975 58.9342 211.575 53.5942 214.515 49.4142C216.795 46.1842 221.395 39.7142 227.895 40.9642C235.765 42.4942 213.975 58.9342 213.975 58.9342Z" fill="#372115"/>
<path d="M233.925 68.9142C232.745 70.5042 231.655 72.8442 228.005 74.2442C224.355 75.6442 218.705 77.2442 217.205 76.7942C215.705 76.3442 214.425 76.3842 213.355 71.8842C212.285 67.3842 211.155 65.1042 212.215 61.1842C213.275 57.2642 214.215 48.9042 219.975 47.4942C224.205 46.4342 229.685 49.2842 231.755 53.3742C233.825 57.4642 233.545 58.6742 233.065 63.9742C233.065 63.9742 236.705 61.3542 237.775 61.5342C238.845 61.7142 239.505 62.6342 238.255 64.5342C237.005 66.4342 236.605 65.9742 236.205 67.0242C235.805 68.0742 235.335 69.1242 234.665 69.3442C233.875 69.6342 233.925 68.9142 233.925 68.9142Z" fill="#E7BC94"/>
<path d="M221.925 47.2242C221.925 47.2242 224.635 60.3042 232.755 64.8342L239.315 55.7442L233.175 47.2542L221.925 47.2242Z" fill="#372115"/>
<path d="M223.495 48.1442C223.495 48.1442 217.885 53.2042 213.665 53.9242C213.665 53.9242 215.615 45.0142 221.865 42.5242L223.495 48.1442Z" fill="#372115"/>
<path opacity="0.5" d="M183.145 89.8242C174.445 84.0942 165.775 82.7742 163.595 78.4342C161.415 74.0942 140.405 51.5842 139.595 48.2242C139.595 48.2242 141.515 46.5442 142.425 45.6942C147.215 56.0842 167.755 74.6342 169.685 76.8542C171.835 79.3342 204.385 93.9342 206.105 94.5742C206.105 94.5742 204.055 120.204 201.365 120.174C201.143 118.75 200.849 117.339 200.485 115.944C198.705 109.414 200.675 101.024 200.275 99.0442C199.875 97.0642 191.875 95.5542 183.145 89.8242Z" fill="#5874CB"/>
<path d="M202.765 141.774C202.765 141.774 227.535 144.134 237.005 137.954C237.005 137.954 239.495 141.074 239.675 142.754C239.675 142.754 224.255 151.454 201.195 146.384C201.195 146.384 201.185 142.754 202.765 141.774Z" fill="#5874CB"/>
<path d="M240.675 86.8742C248.275 90.9642 249.945 101.444 251.415 118.044C252.885 134.644 253.075 134.434 251.285 142.254C249.495 150.074 244.795 165.374 245.285 167.984C245.775 170.594 243.545 179.314 240.525 180.774C239.155 181.434 236.855 182.504 235.895 182.234C234.005 181.724 234.135 178.994 234.715 178.424C236.09 176.694 237.11 174.71 237.715 172.584C237.805 171.854 234.185 176.244 233.575 174.974C233.879 174.31 234.248 173.677 234.675 173.084C235.327 171.782 236.147 170.572 237.115 169.484C237.982 168.938 238.727 168.221 239.307 167.377C239.886 166.533 240.287 165.579 240.485 164.574C241.155 162.104 242.185 139.814 243.125 134.674L234.495 101.994C234.495 101.994 229.875 93.5342 240.675 86.8742Z" fill="#E7BC94"/>
<path d="M248.015 166.724C248.015 166.724 241.505 167.594 238.685 163.724C238.685 163.724 241.045 138.194 242.735 132.944C242.735 132.944 233.955 104.014 233.355 97.8742C232.755 91.7342 236.355 85.8042 239.675 84.5842C239.675 84.5842 247.605 84.5842 250.935 101.454C254.265 118.324 254.935 130.164 254.705 132.034C254.475 133.904 248.015 166.724 248.015 166.724Z" fill="#758FE3"/>
<path d="M248.015 166.724C248.015 166.724 241.505 167.594 238.685 163.724C238.685 163.724 241.045 138.194 242.735 132.944C242.735 132.944 233.955 104.014 233.355 97.8742C232.755 91.7342 236.355 85.8042 239.675 84.5842C239.675 84.5842 247.605 84.5842 250.935 101.454C254.265 118.324 254.935 130.164 254.705 132.034C254.475 133.904 248.015 166.724 248.015 166.724Z" fill="#758FE3"/>
<path opacity="0.5" d="M247.605 130.994C245.285 123.404 237.395 102.174 237.395 102.174C237.395 102.174 230.625 127.834 237.005 137.914C237.172 138.173 237.325 138.44 237.465 138.714C236.355 133.844 237.035 124.714 238.515 118.554C240.695 126.184 242.735 132.894 242.735 132.894C241.834 136.657 241.186 140.475 240.795 144.324L239.345 157.074C238.945 160.934 238.685 163.674 238.685 163.674C239.535 164.797 240.707 165.635 242.045 166.074C243.715 156.754 249.875 138.444 247.605 130.994Z" fill="#5874CB"/>
<path d="M166.025 308.644C167.745 310.274 183.305 307.644 184.025 309.564C184.745 311.484 185.885 316.924 184.685 319.884C184.685 319.884 185.415 320.554 184.845 322.084C184.275 323.614 180.375 324.164 175.335 324.294C170.295 324.424 141.785 327.964 140.065 322.674C139.485 320.854 138.595 316.954 142.315 317.354C146.035 317.754 152.985 315.674 154.965 314.574C156.945 313.474 161.185 311.574 162.965 310.024C164.745 308.474 165.315 307.994 166.025 308.644Z" fill="#4A3E36"/>
<path d="M194.295 311.464C196.035 313.204 211.295 310.924 212.005 312.954C212.715 314.984 214.055 320.624 212.955 323.664C213.2 323.986 213.352 324.369 213.392 324.772C213.433 325.174 213.361 325.58 213.185 325.944C212.685 327.504 208.845 327.944 203.885 327.944C198.925 327.944 169.105 330.304 167.465 325.194C166.865 323.304 165.845 319.244 169.525 319.764C173.205 320.284 181.645 318.354 183.525 317.264C185.405 316.174 189.525 314.374 191.235 312.804C192.945 311.234 193.585 310.774 194.295 311.464Z" fill="#5E5046"/>
<g opacity="0.5">
<g opacity="0.5">
<path opacity="0.5" d="M194.295 311.464C196.035 313.204 211.295 310.924 212.005 312.954C212.715 314.984 214.055 320.624 212.955 323.664C213.2 323.986 213.352 324.369 213.392 324.772C213.433 325.174 213.361 325.58 213.185 325.944C212.685 327.504 208.845 327.944 203.885 327.944C198.925 327.944 169.105 330.304 167.465 325.194C166.865 323.304 165.845 319.244 169.525 319.764C173.205 320.284 181.645 318.354 183.525 317.264C185.405 316.174 189.525 314.374 191.235 312.804C192.945 311.234 193.585 310.774 194.295 311.464Z" fill="#4A3E36"/>
</g>
</g>
<path d="M191.805 160.494C191.905 170.744 187.905 189.254 187.575 191.714C187.245 194.174 186.515 207.614 187.365 226.054C188.215 244.494 187.015 293.754 185.695 311.054C185.695 311.054 177.905 314.164 162.745 309.544C162.745 309.544 166.745 258.544 163.905 242.974C161.065 227.404 157.625 174.854 157.205 159.714L191.805 160.494Z" fill="#4B4A7D"/>
<path d="M197.785 163.994C202.785 179.434 198.785 188.074 198.785 190.544C198.785 193.014 200.915 210.824 204.175 228.944C207.435 247.064 211.985 296.044 212.955 313.364C212.955 313.364 205.755 315.484 190.135 313.364C190.135 313.364 187.985 264.364 183.135 249.464C178.285 234.564 164.075 174.634 161.685 159.714L197.785 163.994Z" fill="#5D6094"/>
<path opacity="0.5" d="M212.925 313.364C211.925 296.044 207.405 247.064 204.145 228.944C200.885 210.824 198.755 193.034 198.755 190.544C198.755 188.054 202.755 179.434 197.755 163.994L193.525 163.494L178.145 164.994C180.475 173.694 192.785 232.074 193.675 233.904C194.565 235.734 201.965 303.114 203.135 314.314C206.425 314.394 209.712 314.075 212.925 313.364Z" fill="#4B4A7D"/>
<path opacity="0.5" d="M165.875 163.494L157.225 159.714C158.135 180.714 161.415 229.054 163.925 242.974C166.725 258.514 162.755 309.544 162.755 309.544C166.583 310.744 170.529 311.525 174.525 311.874V254.994C174.525 254.994 172.795 210.784 168.915 192.854L165.875 163.494Z" fill="#5D6094"/>
<path d="M116.695 20.5242C116.315 20.0642 114.335 13.3942 112.575 13.6842C110.815 13.9742 111.755 15.6842 112.575 18.6042C113.395 21.5242 114.475 27.6042 116.065 29.4242C117.655 31.2442 121.065 32.4242 122.595 37.5442C124.125 42.6642 126.875 51.6342 126.875 51.6342L136.615 47.6342C136.615 47.6342 134.275 42.6342 132.105 39.1242C129.525 34.9242 126.605 30.1242 126.295 29.3842C125.491 26.5091 124.949 23.5671 124.675 20.5942C124.285 17.2542 122.675 8.87422 121.495 7.48422C120.315 6.09422 119.845 3.56422 118.645 3.20422C117.445 2.84422 116.995 6.08422 116.995 6.08422C116.995 6.08422 116.605 3.39422 115.495 3.87422C114.385 4.35422 114.575 6.99422 114.955 9.99422C115.335 12.9942 116.695 20.5242 116.695 20.5242Z" fill="#E7BC94"/>
<path d="M170.575 84.9242C172.375 83.8642 174.905 78.0142 176.015 76.3542C176.616 75.65 177.112 74.8616 177.485 74.0142C178.585 71.5442 172.775 70.4442 169.485 68.4142C166.985 66.8542 168.035 65.2342 169.305 64.0542C170.575 62.8742 168.965 61.9342 169.105 61.3942C169.355 60.3942 172.165 62.2042 172.165 62.2042C172.165 62.2042 169.765 60.7842 169.715 59.8342C169.665 58.8842 171.665 58.4342 171.665 57.5342C171.665 56.6342 169.595 55.0942 169.895 54.1442C170.195 53.1942 175.115 51.3242 176.245 50.2242C177.375 49.1242 175.555 46.5942 176.785 45.4742C179.374 43.2248 182.232 41.3067 185.295 39.7642C188.295 38.5042 198.075 37.5742 204.925 43.4542C211.775 49.3342 209.645 61.3342 207.285 64.4542C204.925 67.5742 196.655 73.7142 195.485 77.0442C194.315 80.3742 193.975 86.8942 193.975 86.8942C193.975 86.8942 180.115 91.7642 173.555 91.3342C168.235 90.9942 169.875 85.3642 170.575 84.9242Z" fill="#E7BC94"/>
<path d="M191.275 45.4642C191.805 47.3542 189.205 48.9442 190.565 51.6742C191.925 54.4042 189.465 58.2942 190.215 59.1442C190.965 59.9942 194.995 56.6242 197.065 58.2442C199.135 59.8642 198.555 62.8242 196.525 64.7542C194.495 66.6842 196.335 75.5542 196.255 75.6642C198.655 72.2242 205.255 67.1642 207.315 64.4442C209.675 61.3442 211.795 49.3342 204.955 43.4442C198.115 37.5542 188.275 38.4442 185.325 39.7542C186.715 42.9942 190.755 43.5742 191.275 45.4642Z" fill="#4A3E36"/>
<path d="M185.425 40.8342C185.105 39.6842 185.365 38.2642 186.585 38.2842C188.485 38.2842 190.455 36.6442 194.885 37.4042C199.315 38.1642 202.395 40.5642 204.055 41.0642C205.715 41.5642 208.355 44.1642 208.465 45.3342C208.575 46.5042 210.795 48.7142 209.335 50.5542C209.976 50.9124 210.496 51.4519 210.83 52.1049C211.165 52.7579 211.299 53.4953 211.215 54.2242C210.925 56.7942 210.215 58.3542 210.335 59.0742C210.455 59.7942 208.855 61.6542 208.735 62.9042C208.615 64.1542 205.045 68.9042 203.495 69.3042C201.945 69.7042 201.295 71.7542 200.435 71.8642C199.575 71.9742 196.255 75.6642 196.255 75.6642L200.875 53.2242L199.725 43.8542L185.425 40.8342Z" fill="#4A3E36"/>
<path d="M190.735 47.9942C191.275 46.5942 188.125 45.1242 185.615 43.9942C182.495 42.5342 181.205 40.9142 182.035 40.7142C182.635 40.5642 182.835 39.7742 183.985 39.4842C185.135 39.1942 185.825 38.4842 187.325 38.1042C188.825 37.7242 192.155 39.1042 192.325 39.1042C192.763 41.689 193.007 44.303 193.055 46.9242C192.925 46.9942 190.735 47.9942 190.735 47.9942Z" fill="#4A3E36"/>
<path opacity="0.3" d="M195.655 70.2242C195.576 69.2988 195.624 68.367 195.795 67.4542C195.992 66.5422 196.235 65.641 196.525 64.7542C196.165 65.1242 195.525 66.2242 194.835 67.0642C194.145 67.9042 193.295 66.9342 193.155 67.2342C192.015 69.7342 191.825 70.0642 189.495 71.6242C186.235 73.8242 180.495 73.0442 176.145 71.6242C176.995 72.1442 177.535 72.7142 177.575 73.3742C177.627 73.6001 177.599 73.8369 177.495 74.0442C177.325 74.4142 177.195 74.8042 177.055 75.1942C186.355 78.7742 195.695 71.2242 195.655 70.2242Z" fill="#E7BC94"/>
<path d="M159.435 81.6342C158.645 89.0942 154.525 116.534 154.735 126.634C154.945 136.734 157.075 159.724 157.075 159.724C157.075 159.724 173.445 168.304 197.785 163.974C197.785 163.974 200.565 136.624 202.625 123.414C204.685 110.204 207.565 91.9942 205.875 87.4942C204.185 82.9942 199.705 80.7242 196.225 75.6642L174.285 85.5042L177.015 75.1642L173.015 76.1642L164.065 71.4142L159.435 81.6342Z" fill="#CBE0FB"/>
<path d="M186.975 104.124C186.535 115.584 183.815 154.784 183.815 154.784C183.815 154.784 167.475 153.654 156.405 152.094C156.785 156.584 157.075 159.734 157.075 159.734C157.075 159.734 173.445 168.324 197.795 163.994C197.795 163.994 199.355 148.574 201.005 135.304C193.755 118.884 186.975 104.124 186.975 104.124Z" fill="#AECCF2"/>
<path d="M204.595 117.674C202.845 117.254 203.065 119.354 201.325 118.874C199.238 118.315 197.19 117.616 195.195 116.784C194.195 116.334 193.195 115.844 192.195 115.294C191.805 119.734 192.815 124.294 192.655 129.084C192.426 132.215 191.894 135.316 191.065 138.344C190.635 140.624 191.275 154.824 192.425 160.964C192.865 163.834 193.565 168.214 194.195 171.444C195.195 176.654 192.695 176.054 192.135 178.444C191.575 180.834 193.425 186.634 194.035 189.654C194.645 192.674 194.585 194.584 196.275 194.024C197.965 193.464 196.655 186.644 196.775 186.024C196.775 186.024 199.085 193.384 200.115 196.184C201.145 198.984 202.195 201.474 203.395 201.374C204.595 201.274 203.695 198.724 203.695 198.724C203.695 198.724 205.595 201.394 206.495 200.524C207.395 199.654 206.605 197.194 207.055 195.404C207.505 193.614 205.055 185.404 203.825 182.314C202.693 179.546 201.816 176.681 201.205 173.754C201.105 172.644 201.855 165.754 202.205 160.754C202.205 160.754 203.475 152.984 204.305 148.324C204.977 144.084 204.933 139.76 204.175 135.534C203.635 133.334 204.045 128.724 205.225 124.184C205.525 123.054 204.035 119.154 204.595 117.674Z" fill="#E7BC94"/>
<path d="M205.875 127.994C205.525 133.774 190.215 129.874 190.545 128.374C190.875 126.874 188.175 110.034 186.995 104.144C186.055 99.4442 185.995 87.2442 193.365 83.2542C195.215 82.2542 197.695 81.0442 200.365 82.0542C203.173 82.9606 205.527 84.9071 206.945 87.4942C210.645 93.6942 205.795 124.434 205.875 127.994Z" fill="#CBE0FB"/>
<path d="M123.875 41.6042C126.965 52.9342 132.445 68.6742 134.345 72.0142C136.245 75.3542 159.555 91.3542 159.555 91.3542C159.555 91.3542 168.405 73.5042 167.355 72.0142C166.305 70.5242 144.065 61.1442 143.575 60.4642C143.085 59.7842 131.725 38.5242 131.725 38.5242L123.875 41.6042Z" fill="#E7BC94"/>
<path d="M177.485 73.9942C177.485 73.9942 170.575 70.1842 168.485 69.7542C163.543 68.3592 158.682 66.69 153.925 64.7542C152.305 64.0742 146.925 61.6342 146.925 61.6342C146.925 61.6342 139.405 74.5042 139.405 78.4342C145.105 84.4342 157.955 90.2342 159.605 91.3642C161.965 92.9642 167.605 92.2642 167.955 92.6742C168.305 93.0842 177.485 73.9942 177.485 73.9942Z" fill="#CBE0FB"/>
<path d="M5.46511 108.904C3.13511 118.984 1.15512 145.484 3.20512 154.224C5.25512 162.964 11.0751 185.934 11.0751 185.934L28.1551 172.494L5.46511 108.904Z" fill="#F6C951"/>
<path d="M111.095 49.4142C112.297 47.3442 113.7 45.3981 115.285 43.6042C117.425 41.3342 118.105 39.6042 118.705 34.6042C119.305 29.6042 119.645 28.4242 119.845 26.4042C120.045 24.3842 121.925 20.0942 120.845 19.5542C119.765 19.0142 118.965 19.5542 118.425 22.1042C117.885 24.6542 116.425 29.0242 116.425 29.0242C116.425 29.0242 116.625 26.2742 116.795 23.2542C116.965 20.2342 117.965 17.1442 116.795 16.8042C115.625 16.4642 115.255 18.5542 114.795 21.6442C114.335 24.7342 114.025 28.1542 113.565 28.2142C113.105 28.2742 114.245 21.7742 114.185 19.0142C114.125 16.2542 114.295 15.7942 113.565 15.7342C112.835 15.6742 112.025 15.5942 111.895 18.1442C111.765 20.6942 110.685 28.4942 110.685 28.4942C110.685 28.4942 110.955 18.8842 110.415 18.4142C109.875 17.9442 108.415 17.6742 108.465 22.6442C108.515 27.6142 108.365 34.0142 107.965 33.8242C107.565 33.6342 107.125 28.4242 105.385 28.0242C104.125 27.7342 104.215 28.3242 104.515 30.0242C104.552 30.9084 104.639 31.7898 104.775 32.6642C105.447 35.2579 105.723 37.9381 105.595 40.6142C105.455 41.4942 105.115 45.6142 105.115 45.6142L111.095 49.4142Z" fill="#E7BC94"/>
<path d="M1.87506 319.844C2.08506 322.674 1.99506 324.974 2.54506 325.994C3.09506 327.014 13.6151 327.354 15.6451 325.994C17.6751 324.634 17.5851 322.334 20.8151 321.234C24.0451 320.134 25.8951 320.814 28.4751 316.984C31.0551 313.154 30.4751 310.984 27.7851 309.934C25.0951 308.884 18.9351 310.404 18.1051 311.074C17.2751 311.744 1.87506 319.844 1.87506 319.844Z" fill="#4A3E36"/>
<path d="M35.1851 321.994C35.3951 324.824 35.2951 327.124 35.8551 328.144C36.4151 329.164 46.9251 329.494 48.9551 328.144C50.9851 326.794 50.8851 324.484 54.1251 323.374C57.3651 322.264 59.1951 322.954 61.7751 319.134C64.3551 315.314 63.3551 313.264 60.6751 312.244C57.9951 311.224 51.8851 312.844 51.0551 313.524C50.2251 314.204 35.1851 321.994 35.1851 321.994Z" fill="#4A3E36"/>
<path d="M10.4451 185.774C8.03509 194.774 8.9451 213.474 9.2451 221.304C9.5451 229.134 8.12509 255.304 7.40509 258.004C4.73475 268.476 2.63499 279.085 1.11509 289.784C-0.0849094 297.614 -0.724907 317.584 1.37509 319.684C3.47509 321.784 16.4351 320.284 18.8451 315.764C21.2551 311.244 20.6451 287.334 23.6551 275.884C26.6651 264.434 27.9151 261.154 28.5151 254.814C29.1151 248.474 32.8451 221.814 32.8451 221.814C32.8451 221.814 36.6451 251.814 36.0451 258.444C35.4451 265.074 33.3551 272.934 33.3551 287.094C33.3551 301.254 33.8951 320.934 33.8951 322.094C33.8951 323.254 38.0751 325.844 44.5551 323.734C51.0351 321.624 52.2651 319.994 52.2651 318.484C52.2651 316.974 52.3251 282.234 53.8351 274.404C55.3451 266.574 56.5151 262.044 56.5151 254.804C56.5151 247.564 59.0351 198.354 59.0051 189.184C58.9751 181.564 10.4451 185.774 10.4451 185.774Z" fill="#5874CB"/>
<path d="M1.37508 319.674C-0.724917 317.574 -0.0949194 297.604 1.11508 289.774C2.63558 279.075 4.73534 268.466 7.40508 257.994C8.12508 255.304 9.54509 229.124 9.24509 221.294C8.94509 213.464 8.04508 194.794 10.4451 185.754H10.8151L44.3151 195.994C42.6851 203.664 45.4151 253.424 44.3151 265.124C43.3651 275.304 39.6951 311.004 39.9551 324.504C36.1751 324.504 33.9051 322.964 33.9051 322.074C33.9051 320.874 33.3551 301.174 33.3551 287.074C33.3551 272.974 35.4451 265.074 36.0451 258.424C36.6451 251.774 32.8451 221.794 32.8451 221.794C28.5605 223.345 24.0668 224.242 19.5151 224.454C19.5151 224.454 16.8851 256.374 14.5151 261.704C12.1451 267.034 3.35508 310.374 5.87508 320.614C3.74508 320.634 2.03508 320.334 1.37508 319.674Z" fill="#758FE3"/>
<path d="M32.8751 221.784C32.8751 221.784 29.8751 205.454 30.5051 195.664L20.6951 193.994L19.3951 225.994L22.2951 235.114L32.8751 221.784Z" fill="#5874CB"/>
<path d="M22.7951 94.2242C20.0851 96.9342 8.98507 96.4842 6.27507 105.064C3.56507 113.644 6.53506 124.944 10.1451 135.324C13.7551 145.704 14.6651 158.814 11.9451 169.204C9.22507 179.594 7.88506 188.204 8.33506 189.534C8.78506 190.864 22.7851 199.474 40.4051 196.764C58.0251 194.054 61.1851 186.374 61.1851 186.374C61.1851 186.374 58.0251 166.044 56.6651 159.274C55.3051 152.504 56.2151 135.784 56.2151 135.784C56.2151 135.784 49.7951 117.974 47.3051 111.194C44.8151 104.414 64.7951 103.034 56.8951 101.194C48.9951 99.3542 44.8351 96.9042 44.3151 95.5542C43.7951 94.2042 41.3151 91.2642 32.7251 91.2642C24.1351 91.2642 22.7951 94.2242 22.7951 94.2242Z" fill="#F8D777"/>
<path d="M93.4551 79.7042C98.4051 74.9242 112.405 52.3542 112.405 52.3542C111.255 46.0842 103.505 42.7942 103.505 42.7942C103.505 42.7942 87.2151 59.4842 82.2651 65.0842C77.3151 70.6842 73.4451 77.6042 64.5451 83.6942C55.6451 89.7842 53.3351 96.0142 46.5451 96.1742C45.9781 96.1852 45.4129 96.2421 44.8551 96.3442C44.6075 96.1357 44.4123 95.8719 44.2851 95.5742C43.7651 94.2242 41.2851 91.2842 32.6951 91.2842C24.1051 91.2842 22.7551 94.2242 22.7551 94.2242C20.0551 96.9342 8.94509 96.4842 6.23509 105.064C3.52509 113.644 6.49509 124.944 10.1051 135.324C13.7151 145.704 14.6251 158.814 11.9151 169.204C9.20509 179.594 7.85509 188.204 8.30509 189.534C8.75509 190.864 22.7551 199.474 40.3751 196.754C57.9951 194.034 61.1451 186.374 61.1451 186.374C61.1451 186.374 59.1451 169.934 58.9351 154.024C58.8527 144.333 59.3938 134.646 60.5551 125.024C61.2451 119.994 88.5051 84.4842 93.4551 79.7042Z" fill="#F8D777"/>
<path d="M38.0751 51.4242C28.8351 50.4242 20.9051 55.4242 18.2851 67.1742C15.6651 78.9242 15.8551 88.5742 13.2851 94.4242C13.2851 94.4242 18.1251 102.504 33.6851 102.094C49.2451 101.684 54.2751 96.2442 54.2751 96.2442C54.2751 96.2442 52.4651 81.8942 52.6551 76.3542C52.8451 70.8142 55.4351 53.2342 38.0751 51.4242Z" fill="#755640"/>
<g opacity="0.5">
<path opacity="0.5" d="M13.2351 94.4242C15.8651 88.5742 15.6551 78.8742 18.2351 67.1742C19.5151 61.4742 22.0551 57.3842 25.3951 54.7742C12.6951 69.6042 38.8751 91.6642 52.5551 76.3542C52.3551 81.8942 54.1751 96.2442 54.1751 96.2442C54.1751 96.2442 49.1751 101.704 33.5751 102.094C17.9751 102.484 13.2351 94.4242 13.2351 94.4242Z" fill="#64452D"/>
</g>
<path d="M93.4551 79.7042C98.4051 74.9242 112.405 52.3542 112.405 52.3542C112.128 50.9525 111.548 49.6283 110.705 48.4742C96.8751 63.5342 77.7651 86.9942 71.5851 94.6242C64.6851 103.114 50.0451 118.684 51.1551 121.764C52.2651 124.844 52.1551 183.594 49.7351 186.374C47.5351 188.904 28.1051 196.314 8.29509 187.704C8.20999 188.311 8.20999 188.927 8.29509 189.534C8.75509 190.884 22.7551 199.474 40.3751 196.764C57.9951 194.054 61.1451 186.374 61.1451 186.374C61.1451 186.374 59.1451 169.934 58.9351 154.024C58.8545 144.333 59.3922 134.647 60.5451 125.024C61.2451 119.994 88.5151 84.4842 93.4551 79.7042Z" fill="#F6C951"/>
</svg>
