<svg width="240" height="179" viewBox="0 0 240 179" fill="none" xmlns="http://www.w3.org/2000/svg">
<path d="M15.54 145.9C18.0773 146.513 20.7115 146.611 23.2875 146.191C25.8636 145.77 28.3295 144.838 30.54 143.45C31.2993 142.997 32.1651 142.754 33.0491 142.745C33.933 142.736 34.8036 142.962 35.572 143.399C36.3404 143.836 36.9792 144.469 37.4233 145.233C37.8674 145.998 38.1009 146.866 38.1 147.75V178.15C132.35 178.15 212.23 116.66 239.84 31.62L210.93 22.23C210.089 21.9551 209.191 21.908 208.326 22.0937C207.461 22.2793 206.661 22.691 206.008 23.2868C205.354 23.8825 204.87 24.641 204.605 25.4848C204.34 26.3286 204.304 27.2276 204.5 28.09C205.347 31.4779 205.273 35.0308 204.284 38.3803C203.296 41.7298 201.43 44.7541 198.88 47.1396C196.329 49.5251 193.187 51.185 189.779 51.9473C186.371 52.7096 182.821 52.5466 179.497 51.475C176.173 50.4035 173.197 48.4625 170.875 45.8533C168.554 43.244 166.973 40.0615 166.296 36.6355C165.619 33.2095 165.871 29.6647 167.025 26.3687C168.179 23.0727 170.194 20.1453 172.86 17.89C173.542 17.3153 174.058 16.5686 174.354 15.7273C174.651 14.8861 174.716 13.9809 174.545 13.1056C174.374 12.2303 173.971 11.4168 173.38 10.7494C172.788 10.082 172.028 9.58502 171.18 9.31L144 0.479996C136.718 22.8392 122.556 42.3251 103.537 56.1539C84.5181 69.9827 61.6151 77.4468 38.1 77.48V106C38.1 107.326 37.5732 108.598 36.6355 109.536C35.6978 110.473 34.4261 111 33.1 111C32.1636 110.995 31.2466 110.732 30.45 110.24C28.0391 108.744 25.332 107.79 22.5159 107.443C19.6999 107.096 16.8422 107.365 14.1404 108.232C11.4385 109.098 8.95716 110.541 6.86781 112.46C4.77846 114.38 3.13102 116.73 2.03944 119.349C0.94786 121.968 0.438189 124.793 0.545681 127.628C0.653173 130.464 1.37526 133.242 2.662 135.77C3.94874 138.299 5.76942 140.518 7.99812 142.274C10.2268 144.03 12.8103 145.281 15.57 145.94L15.54 145.9Z" fill="url(#paint0_linear)"/>
<path d="M88.7739 105.98V90.232H91.9536V105.98H88.7739ZM105.349 105.98H102.331V100.158C102.331 98.926 102.266 98.1311 102.137 97.773C102.008 97.4077 101.797 97.1249 101.503 96.9243C101.217 96.7238 100.87 96.6236 100.461 96.6236C99.9386 96.6236 99.4696 96.7668 99.0542 97.0533C98.6388 97.3397 98.3524 97.7193 98.1948 98.1919C98.0444 98.6646 97.9692 99.5383 97.9692 100.813V105.98H94.9507V94.5718H97.7544V96.2476C98.7498 94.9585 100.003 94.314 101.514 94.314C102.18 94.314 102.789 94.4357 103.34 94.6792C103.892 94.9156 104.307 95.2199 104.586 95.5923C104.873 95.9647 105.07 96.3872 105.177 96.8599C105.292 97.3326 105.349 98.0093 105.349 98.8902V105.98ZM113.653 94.5718V96.9781H111.59V101.576C111.59 102.507 111.608 103.051 111.644 103.209C111.687 103.359 111.777 103.484 111.913 103.585C112.056 103.685 112.228 103.735 112.428 103.735C112.708 103.735 113.112 103.638 113.642 103.445L113.9 105.787C113.198 106.087 112.403 106.238 111.515 106.238C110.971 106.238 110.48 106.148 110.043 105.969C109.607 105.783 109.284 105.547 109.077 105.26C108.876 104.967 108.736 104.573 108.658 104.079C108.593 103.728 108.561 103.019 108.561 101.952V96.9781H107.175V94.5718H108.561V92.3052L111.59 90.5435V94.5718H113.653ZM122.354 102.349L125.362 102.854C124.975 103.957 124.363 104.798 123.525 105.378C122.694 105.951 121.652 106.238 120.399 106.238C118.415 106.238 116.947 105.59 115.995 104.293C115.243 103.255 114.867 101.945 114.867 100.362C114.867 98.4712 115.361 96.9924 116.349 95.9253C117.337 94.8511 118.587 94.314 120.098 94.314C121.795 94.314 123.135 94.8762 124.116 96.0005C125.097 97.1177 125.566 98.8329 125.523 101.146H117.96C117.982 102.041 118.225 102.739 118.691 103.241C119.156 103.735 119.736 103.982 120.431 103.982C120.904 103.982 121.301 103.853 121.624 103.595C121.946 103.337 122.189 102.922 122.354 102.349ZM122.526 99.2984C122.504 98.4247 122.279 97.7622 121.849 97.3111C121.419 96.8527 120.897 96.6236 120.281 96.6236C119.622 96.6236 119.078 96.8635 118.648 97.3433C118.218 97.8231 118.007 98.4748 118.014 99.2984H122.526ZM130.883 105.98H127.865V94.5718H130.668V96.1939C131.148 95.4276 131.578 94.9227 131.958 94.6792C132.344 94.4357 132.781 94.314 133.268 94.314C133.956 94.314 134.618 94.5038 135.255 94.8833L134.321 97.5152C133.812 97.1857 133.34 97.021 132.903 97.021C132.48 97.021 132.122 97.1392 131.829 97.3755C131.535 97.6047 131.302 98.0236 131.13 98.6324C130.966 99.2411 130.883 100.516 130.883 102.457V105.98ZM136.222 101.78V98.7613H142.152V101.78H136.222Z" fill="white"/>
<path d="M65.2532 116.572H68.0676V118.248C68.4329 117.675 68.927 117.209 69.55 116.851C70.1731 116.493 70.8642 116.314 71.6233 116.314C72.9482 116.314 74.0725 116.833 74.9963 117.872C75.9202 118.91 76.3821 120.357 76.3821 122.211C76.3821 124.116 75.9166 125.599 74.9856 126.659C74.0546 127.711 72.9267 128.238 71.6018 128.238C70.9716 128.238 70.3987 128.112 69.8831 127.862C69.3746 127.611 68.8375 127.182 68.2717 126.573V132.32H65.2532V116.572ZM68.2395 122.083C68.2395 123.364 68.4937 124.313 69.0022 124.929C69.5107 125.538 70.1301 125.842 70.8606 125.842C71.5624 125.842 72.1461 125.563 72.6116 125.004C73.0771 124.439 73.3098 123.515 73.3098 122.233C73.3098 121.037 73.0699 120.149 72.5901 119.569C72.1103 118.989 71.5159 118.699 70.8069 118.699C70.0693 118.699 69.4569 118.985 68.97 119.558C68.483 120.124 68.2395 120.965 68.2395 122.083ZM85.3948 124.349L88.4026 124.854C88.0159 125.957 87.4036 126.798 86.5657 127.378C85.7349 127.951 84.693 128.238 83.4397 128.238C81.456 128.238 79.9879 127.59 79.0354 126.293C78.2834 125.255 77.9075 123.945 77.9075 122.362C77.9075 120.471 78.4016 118.992 79.3899 117.925C80.3782 116.851 81.6278 116.314 83.1389 116.314C84.8362 116.314 86.1754 116.876 87.1565 118.001C88.1376 119.118 88.6067 120.833 88.5637 123.146H81.0012C81.0227 124.041 81.2662 124.739 81.7317 125.241C82.1972 125.735 82.7773 125.982 83.4719 125.982C83.9446 125.982 84.342 125.853 84.6643 125.595C84.9866 125.337 85.2301 124.922 85.3948 124.349ZM85.5667 121.298C85.5452 120.425 85.3196 119.762 84.8899 119.311C84.4602 118.853 83.9374 118.624 83.3215 118.624C82.6627 118.624 82.1184 118.863 81.6887 119.343C81.259 119.823 81.0478 120.475 81.0549 121.298H85.5667ZM93.9241 127.98H90.9055V116.572H93.7092V118.194C94.189 117.428 94.6187 116.923 94.9983 116.679C95.385 116.436 95.8219 116.314 96.3088 116.314C96.9963 116.314 97.6588 116.504 98.2961 116.883L97.3616 119.515C96.8531 119.186 96.3805 119.021 95.9436 119.021C95.5211 119.021 95.163 119.139 94.8694 119.376C94.5758 119.605 94.343 120.024 94.1711 120.632C94.0064 121.241 93.9241 122.516 93.9241 124.457V127.98ZM98.5432 124.725L101.573 124.263C101.701 124.85 101.963 125.298 102.357 125.606C102.751 125.907 103.302 126.057 104.011 126.057C104.792 126.057 105.379 125.914 105.773 125.627C106.038 125.427 106.17 125.158 106.17 124.822C106.17 124.593 106.099 124.403 105.955 124.252C105.805 124.109 105.468 123.977 104.946 123.855C102.511 123.318 100.967 122.827 100.316 122.383C99.4133 121.767 98.9622 120.912 98.9622 119.816C98.9622 118.828 99.3525 117.997 100.133 117.324C100.914 116.651 102.124 116.314 103.764 116.314C105.325 116.314 106.485 116.568 107.244 117.077C108.003 117.585 108.526 118.337 108.813 119.333L105.966 119.859C105.844 119.415 105.612 119.075 105.268 118.838C104.931 118.602 104.448 118.484 103.818 118.484C103.023 118.484 102.453 118.595 102.11 118.817C101.88 118.974 101.766 119.179 101.766 119.429C101.766 119.644 101.866 119.827 102.067 119.977C102.339 120.178 103.277 120.46 104.881 120.826C106.492 121.191 107.617 121.639 108.254 122.168C108.884 122.706 109.199 123.454 109.199 124.414C109.199 125.459 108.763 126.358 107.889 127.11C107.015 127.862 105.723 128.238 104.011 128.238C102.457 128.238 101.225 127.923 100.316 127.293C99.4133 126.662 98.8225 125.807 98.5432 124.725ZM111.155 122.115C111.155 121.112 111.402 120.142 111.896 119.204C112.39 118.265 113.088 117.549 113.99 117.055C114.9 116.561 115.913 116.314 117.031 116.314C118.756 116.314 120.171 116.876 121.274 118.001C122.377 119.118 122.928 120.532 122.928 122.244C122.928 123.97 122.369 125.402 121.252 126.541C120.142 127.672 118.742 128.238 117.052 128.238C116.006 128.238 115.007 128.001 114.055 127.529C113.11 127.056 112.39 126.365 111.896 125.456C111.402 124.539 111.155 123.425 111.155 122.115ZM114.248 122.276C114.248 123.407 114.517 124.274 115.054 124.876C115.591 125.477 116.253 125.778 117.041 125.778C117.829 125.778 118.488 125.477 119.018 124.876C119.555 124.274 119.823 123.4 119.823 122.254C119.823 121.137 119.555 120.278 119.018 119.676C118.488 119.075 117.829 118.774 117.041 118.774C116.253 118.774 115.591 119.075 115.054 119.676C114.517 120.278 114.248 121.144 114.248 122.276ZM135.679 127.98H132.66V122.158C132.66 120.926 132.596 120.131 132.467 119.773C132.338 119.408 132.127 119.125 131.833 118.924C131.547 118.724 131.199 118.624 130.791 118.624C130.268 118.624 129.799 118.767 129.384 119.053C128.969 119.34 128.682 119.719 128.525 120.192C128.374 120.665 128.299 121.538 128.299 122.813V127.98H125.281V116.572H128.084V118.248C129.08 116.959 130.333 116.314 131.844 116.314C132.51 116.314 133.119 116.436 133.67 116.679C134.222 116.916 134.637 117.22 134.916 117.592C135.203 117.965 135.4 118.387 135.507 118.86C135.622 119.333 135.679 120.009 135.679 120.89V127.98ZM141.007 120.052L138.268 119.558C138.576 118.455 139.106 117.639 139.858 117.109C140.61 116.579 141.727 116.314 143.209 116.314C144.556 116.314 145.558 116.475 146.217 116.797C146.876 117.112 147.338 117.517 147.603 118.011C147.875 118.498 148.011 119.397 148.011 120.708L147.979 124.231C147.979 125.234 148.025 125.975 148.118 126.455C148.219 126.927 148.401 127.436 148.666 127.98H145.68C145.601 127.779 145.504 127.482 145.39 127.088C145.34 126.909 145.304 126.791 145.282 126.734C144.767 127.235 144.215 127.611 143.628 127.862C143.041 128.112 142.414 128.238 141.748 128.238C140.574 128.238 139.646 127.919 138.966 127.282C138.293 126.644 137.956 125.839 137.956 124.865C137.956 124.22 138.11 123.647 138.418 123.146C138.726 122.638 139.156 122.251 139.707 121.986C140.266 121.714 141.068 121.477 142.114 121.277C143.524 121.012 144.502 120.765 145.046 120.536V120.235C145.046 119.655 144.903 119.243 144.616 119C144.33 118.749 143.789 118.624 142.994 118.624C142.457 118.624 142.038 118.731 141.738 118.946C141.437 119.154 141.193 119.522 141.007 120.052ZM145.046 122.501C144.659 122.63 144.047 122.784 143.209 122.963C142.371 123.142 141.823 123.318 141.566 123.49C141.172 123.769 140.975 124.124 140.975 124.553C140.975 124.976 141.132 125.341 141.448 125.649C141.763 125.957 142.164 126.111 142.651 126.111C143.195 126.111 143.714 125.932 144.208 125.574C144.573 125.302 144.813 124.969 144.928 124.575C145.007 124.317 145.046 123.826 145.046 123.103V122.501ZM150.997 127.98V112.232H154.016V127.98H150.997Z" fill="white"/>
<defs>
<linearGradient id="paint0_linear" x1="-105.366" y1="94.3433" x2="148.271" y2="94.3433" gradientUnits="userSpaceOnUse">
<stop stop-color="#80346D"/>
<stop offset="1" stop-color="#C368A8"/>
</linearGradient>
</defs>
</svg>
