<svg id="Logo" xmlns="http://www.w3.org/2000/svg" width="347.148" height="40.758" viewBox="0 0 347.148 40.758">
  <defs>
    <style>
      .cls-1 {
        fill: #2f6e35;
      }

      .cls-2 {
        fill: #74cf64;
      }
    </style>
  </defs>
  <path id="Path_622" data-name="Path 622" class="cls-1" d="M21.84,9.519V5.13H2.35V39.254H7.592v-14.5H21.237V20.378H7.592V9.519Z" transform="translate(-2.35 -1.614)"/>
  <path id="Path_623" data-name="Path 623" class="cls-1" d="M57.622,33.606,51.5,28a7.824,7.824,0,0,1-4.184,3.775L52.846,38.1a3.411,3.411,0,0,0,4.817.272c.025-.022.049-.044.073-.067a3.194,3.194,0,0,0,.932-2.342A3.16,3.16,0,0,0,57.622,33.606Z" transform="translate(3.814 1.521)"/>
  <path id="Path_624" data-name="Path 624" class="cls-1" d="M56.6,22.656h-.455a4.367,4.367,0,0,1-3.593-1.137l-.387-.375-.125.534a12.292,12.292,0,1,1-.534-7.118v.114l1.012.534.159-.136a4.319,4.319,0,0,1,3.081-1.023h.455l-.148-.421A16.931,16.931,0,1,0,47.62,34.095h0s1.239,1.012,3.559-.512a8.923,8.923,0,0,0,2.4-2.274,2.376,2.376,0,0,0,.387-2.888,16.551,16.551,0,0,0,2.445-5.469Z" transform="translate(0.49 -2.037)"/>
  <path id="Path_625" data-name="Path 625" class="cls-2" d="M60.667,5.3a3.411,3.411,0,0,0-2.729,5.549L55.6,14.056v.057a4.026,4.026,0,0,0-3.912,1.137l-4.469-2.331V12.5a4.446,4.446,0,0,0-8.881,0,4.393,4.393,0,0,0,.91,2.672L37.8,17.444l.262.171a2.656,2.656,0,0,1,.625.512,5.276,5.276,0,0,0-.864-.307,6.058,6.058,0,1,0,4.548,5.867A5.989,5.989,0,0,0,40.689,19.5l1.478-2.649A4.321,4.321,0,0,0,45.919,15.6l4.639,2.49a3.98,3.98,0,0,0,7.96-.1,3.918,3.918,0,0,0-.352-1.819l2.5-3.98h0a3.445,3.445,0,1,0,0-6.891Z" transform="translate(1.474 -1.59)"/>
  <rect id="Rectangle_186" data-name="Rectangle 186" class="cls-1" width="5.242" height="34.124" transform="translate(70.988 3.516)"/>
  <path id="Path_626" data-name="Path 626" class="cls-1" d="M96.061,23.114a17.985,17.985,0,0,0-3.411-2.274q-1.825-.938-3.411-1.74c-1.057-.534-1.967-1.012-2.729-1.421a7.968,7.968,0,0,1-1.728-1.251,3.892,3.892,0,0,1-.91-1.353,4.639,4.639,0,0,1-.284-1.728c0-2.979,1.888-4.423,5.776-4.423a15.74,15.74,0,0,1,4.1.546,17.407,17.407,0,0,1,3.6,1.387l.352.182,1-4.287-.2-.114a17.549,17.549,0,0,0-4.071-1.49,19,19,0,0,0-9.188,0,10.044,10.044,0,0,0-3.5,1.728,7.963,7.963,0,0,0-2.274,2.877,9.093,9.093,0,0,0-.819,3.957,7.6,7.6,0,0,0,.819,3.491,9.531,9.531,0,0,0,1.979,2.638A14.934,14.934,0,0,0,84.008,21.9c1.069.591,2.183,1.137,3.32,1.694s1.944.921,2.831,1.353a11.2,11.2,0,0,1,2.274,1.444,6.49,6.49,0,0,1,1.535,1.785,4.713,4.713,0,0,1,.534,2.342,4.251,4.251,0,0,1-1.876,3.752,8.953,8.953,0,0,1-5.105,1.33,18.391,18.391,0,0,1-4.435-.546,23.111,23.111,0,0,1-4.048-1.387l-.341-.182L77.64,37.759l.227.1A19.466,19.466,0,0,0,82.6,39.42a25.821,25.821,0,0,0,5.026.512,15.977,15.977,0,0,0,4.685-.671,11.915,11.915,0,0,0,3.821-1.91,9.435,9.435,0,0,0,2.6-3.013,8.388,8.388,0,0,0,.921-4.025,8.044,8.044,0,0,0-1.046-4.128A12.406,12.406,0,0,0,96.061,23.114Z" transform="translate(7.971 -1.688)"/>
  <path id="Path_627" data-name="Path 627" class="cls-1" d="M105.221,26.576h1.751a.83.83,0,0,0,.927-.72.876.876,0,0,0,.006-.144l.284-3.207h26.153l-.273,3.138a.91.91,0,0,0,.182.694.854.854,0,0,0,.671.239h1.706a.842.842,0,0,0,.968-.694.857.857,0,0,0,.01-.171,1.031,1.031,0,0,0,0-.2c0-.262,0-.887.182-2.934l.091-1a7.769,7.769,0,0,1,.136-.944.726.726,0,0,1,.057-.375.821.821,0,0,0-.182-.66.9.9,0,0,0-.716-.239h-1.387l1.137-8.187c.2-1.4.4-2.831.739-4.355a.831.831,0,0,0-.678-.959.843.843,0,0,0-.221-.008h-.284c-.318,0-.989.068-2.513.068h-2.206a17.68,17.68,0,0,1-2.5-.068h-.3a.841.841,0,0,0-.957.707A.887.887,0,0,0,128,6.7l-.125,1.4a.854.854,0,0,0,.182.694.9.9,0,0,0,.7.239h.273c.307,0,.967-.068,2.49-.068h2.467l-.239,1.512h-2.593a12.037,12.037,0,0,1-2.024-.068h-.25a.852.852,0,0,0-.94.755,1.008,1.008,0,0,0,0,.143l-.114,1.274a.816.816,0,0,0,.171.66.888.888,0,0,0,.682.239h.273c.284,0,.819-.057,2.024-.057h2.354l-.25,1.5h-2.354a12.038,12.038,0,0,1-2.024-.068h-.25a.841.841,0,0,0-.944.864l-.1,1.274a.816.816,0,0,0,.171.66.888.888,0,0,0,.682.239h.262c.284,0,.83-.068,2.035-.068h2.092l-.239,1.66h-6.822l.227-.216.762-.739a1,1,0,0,0,.364-.728.828.828,0,0,0-.387-.614c-.489-.364-1.057-.762-1.728-1.228.284-.216.6-.466.9-.716a1.987,1.987,0,0,1,.614-.318.978.978,0,0,0,.762-.864,1.134,1.134,0,0,0-.432-.876,7.078,7.078,0,0,0-.864-.625,1.531,1.531,0,0,0,.694-.489l.625-.6a1.14,1.14,0,0,0,.432-.773.784.784,0,0,0-.375-.637c-.523-.4-1.137-.807-1.694-1.228l.887-.671a2.151,2.151,0,0,1,.591-.352.978.978,0,0,0,.75-.841,1.035,1.035,0,0,0-.421-.876,8.593,8.593,0,0,0-1.433-1.035L125.4,4.8l-.318.432A6.926,6.926,0,0,1,123.8,6.609l-.8.6c-.841-.523-1.762-1.046-2.831-1.6a1,1,0,0,0-1.217.25l-.682.6a1.013,1.013,0,0,0-.443.841.763.763,0,0,0,.5.6l.557.307c.432.227.876.466,1.308.716a24.377,24.377,0,0,1-3.684,1.467l-.4.125h-.125l-.171-.114v.1H115.5c-.262,0-.8.068-2.035.068h-2.354v-.9c1.285-.33,2.558-.728,4.093-1.262a3.857,3.857,0,0,1,1.251-.33,1,1,0,0,0,1.046-.864,1.134,1.134,0,0,0-.341-.864,11.8,11.8,0,0,0-1.592-1.478l-.364-.25-.352.284a5.1,5.1,0,0,1-1.444.841c-1.012.421-1.922.739-3.116,1.137a6.189,6.189,0,0,0-1.8-.591l-.853-.114.171.853a18.089,18.089,0,0,1,0,3.968l-.387,8.437h-1.706a.829.829,0,0,0-.926.721.707.707,0,0,0-.007.1v1.524l-.08.853c-.171,2-.273,2.6-.318,2.911v.227a.91.91,0,0,0,.182.694A.853.853,0,0,0,105.221,26.576Zm11.371-13.929.091-1.023a3.455,3.455,0,0,1,.455.466v.08a1.137,1.137,0,0,0,.932.6,2.279,2.279,0,0,0,.83-.239,28.164,28.164,0,0,0,3.934-1.967c.648.443,1.274.921,1.876,1.41l-.25.352a5.318,5.318,0,0,1-1.183,1.353c-.262.216-.534.443-.841.671-.932-.591-1.9-1.137-2.877-1.649a.989.989,0,0,0-1.251.307l-.659.637a.99.99,0,0,0-.33.8.751.751,0,0,0,.523.591c.591.33,1.137.66,1.774,1a24.428,24.428,0,0,1-3.536,1.41,1.037,1.037,0,0,0,.159-.489l.114-1.285a.765.765,0,0,0-.853-.932h-.3c-.273,0-.8.057-1.967.057h-2.274l.091-1.421h2.274a14.842,14.842,0,0,1,2.035.057h.284a.819.819,0,0,0,.915-.71c0-.025,0-.05.006-.075Zm-5.856,6.822.091-1.74H113.1a11.506,11.506,0,0,1,1.944.068h.068l-.387.114,1.137.671a2.532,2.532,0,0,1,.773.7v.068l.091.114Zm8.221,0a22.117,22.117,0,0,0,3.3-1.694c.682.478,1.5,1.069,2.274,1.66h0Z" transform="translate(11.636 -1.682)"/>
  <path id="Path_628" data-name="Path 628" class="cls-1" d="M137.467,27.527h-.25c-.5,0-1.831.068-4.753.068h-8.63a37.632,37.632,0,0,0,4.764-2.274l.091-.057a7.1,7.1,0,0,1,1.364-.671,1.137,1.137,0,0,0,.864-.989c0-.478-.216-.841-.807-1.581s-.887-.944-1.376-.944a1.617,1.617,0,0,0-.6.136,6.748,6.748,0,0,1-.773,0H111.542a.829.829,0,0,0-.926.721.709.709,0,0,0-.007.1l-.114,1.4a.842.842,0,0,0,.171.694.866.866,0,0,0,.682.239h.25c.489,0,1.8-.068,4.753-.068h8.085c-.921.432-1.888.841-2.854,1.205l-2.536-.466.08.8a12,12,0,0,1,0,1.785h-10.12c-2.911,0-4.253-.057-4.764-.068H104a.841.841,0,0,0-.932.864L103,29.972a.774.774,0,0,0,.575.93.786.786,0,0,0,.277.014h.284c.5,0,1.831-.068,4.742-.068h10.04l-.262,3.013c-.057.716-.193.887-1.228.887a32.7,32.7,0,0,1-3.877-.182l-1.137-.125.557,1a4.54,4.54,0,0,1,.534,1.41c.182,1.012.409,1.205,1.467,1.205,3.548,0,4.639-.136,5.572-.716a3.319,3.319,0,0,0,1.546-2.968c0-.409.08-.967.114-1.535v-.387a11.555,11.555,0,0,1,.1-1.262v-.341h9.915c2.9,0,4.253,0,4.753.068h.239a.83.83,0,0,0,.927-.72.878.878,0,0,0,.006-.144l.136-1.592a.751.751,0,0,0-.853-.932Z" transform="translate(11.445 0.573)"/>
  <path id="Path_629" data-name="Path 629" class="cls-1" d="M166.782,9.144a14.526,14.526,0,0,1,2.092,4.548h0a.806.806,0,0,0,.762.671,1.877,1.877,0,0,0,.739-.25l.989-.478a.9.9,0,0,0,.611-1.114.947.947,0,0,0-.076-.182,17.668,17.668,0,0,0-2.433-4.776.841.841,0,0,0-1.308-.227l-.807.421a1.24,1.24,0,0,0-.728.7A.794.794,0,0,0,166.782,9.144Z" transform="translate(20.166 -1.341)"/>
  <path id="Path_630" data-name="Path 630" class="cls-1" d="M175.587,16.868H169.4c.091-2.035.25-4.287.489-7.061a10.44,10.44,0,0,1,.455-3.138.989.989,0,0,1,.08-.193,1.925,1.925,0,0,0,.2-.694,1.054,1.054,0,0,0-1-.967,21.692,21.692,0,0,0-2.365-.239h-.671l.057.671a29.809,29.809,0,0,1-.068,4.639c-.182,2.433-.318,4.787-.443,7h-3.184a25.257,25.257,0,0,0,1.137-2.638,1.983,1.983,0,0,1,.3-.546l.08-.08a1.136,1.136,0,0,0,.352-.728.939.939,0,0,0-.75-.944h1.364a.83.83,0,0,0,.927-.72.875.875,0,0,0,.006-.144l.125-1.353a.922.922,0,0,0-.182-.7.886.886,0,0,0-.671-.227h-.25c-.387,0-1.3.068-3.479.068h-.353l.08-.876a5.183,5.183,0,0,1,.307-1.728l.091-.182a1.334,1.334,0,0,0,.2-.534.968.968,0,0,0-.92-1.012h-.138c-.625-.08-1.285-.148-2.274-.182h-.728l.114.728a11.912,11.912,0,0,1,0,2.831l-.091,1h-3.593l.591-.887-.773.6.114-1.194a.9.9,0,0,0-.182-.694.816.816,0,0,0-.637-.239h-.262c-.409,0-1.376.068-3.548.068H145.9c-2.217,0-3.15,0-3.616-.068h-.216a.832.832,0,0,0-.9.864l-.136,1.546a.922.922,0,0,0,.182.7.794.794,0,0,0,.637.227h1.126l-1.922,21.866c-.625.114-1.194.193-1.956.262l-.648.057.1.637c.148.91.284,1.581.432,2.149s.466.921.91.921a1.515,1.515,0,0,0,.876-.341,4.98,4.98,0,0,1,1.376-.489c1.364-.375,3.252-.967,5.128-1.592L147.08,35.6c-.182,2.126-.33,3.309-.4,3.832a2.183,2.183,0,0,0,0,.273.876.876,0,0,0,.171.7.9.9,0,0,0,.682.239h1.546a.853.853,0,0,0,.969-.719.887.887,0,0,0,.009-.146v-.307c0-.443.08-1.637.273-3.8L151.7,19.756a.554.554,0,0,0,.1.148.783.783,0,0,0,.625.239h.3c.591,0,1.979-.068,4.81-.068h8.483a51.127,51.127,0,0,0,.5,10.586,28.2,28.2,0,0,1-3.468,3.514c0-.443.08-1.74.432-5.685l.239-2.831c.148-1.694.273-2.627.341-3.161v-.33a.863.863,0,0,0-.182-.694.876.876,0,0,0-.671-.239h-.25c-.375,0-1.137.068-2.877.068h-2.752a25,25,0,0,1-2.888-.068h-.284a.842.842,0,0,0-.938.732.859.859,0,0,0-.006.121v.307c0,.432-.068,1.569-.284,4.048l-.284,3.172c-.387,4.469-.557,5.822-.614,6.277v.159a.854.854,0,0,0,.182.694.84.84,0,0,0,.671.239h1.353a.842.842,0,0,0,.938-.732.859.859,0,0,0,.006-.121l.171-1.933H159.9v.148a1,1,0,0,0,.193.8.866.866,0,0,0,.648.262h.819a31.83,31.83,0,0,1-3.673,2.388l-.967.523.955.512a2.146,2.146,0,0,1,.75.716c.25.421.5.819,1.023.819a1.351,1.351,0,0,0,.671-.25l.2-.114a32.553,32.553,0,0,0,6.822-5.685c1.023,3.5,2.456,5.208,4.389,5.208s3.252-1.853,4.116-6.39c.2-.807.262-1.217-.557-1.683a3.32,3.32,0,0,1-1.012-.83l-.819-1.524-.273,1.706c-.637,3.923-1.137,4.753-1.274,4.912-.478-.08-1.137-1-1.944-4.673a37.809,37.809,0,0,0,3.275-5.481,10.35,10.35,0,0,1,.773-1.433,1.935,1.935,0,0,0,.659-1.137,1.047,1.047,0,0,0-.637-1.023,12.737,12.737,0,0,0-1.967-.9l-.637-.216-.136.671a13.478,13.478,0,0,1-1.057,3.059,20.231,20.231,0,0,1-.91,1.876,60.937,60.937,0,0,1-.08-6.413h.705c3.207,0,4.639,0,5.174.068h.25a.841.841,0,0,0,.929-.743.791.791,0,0,0,0-.156l.136-1.478a.906.906,0,0,0-.171-.671A.889.889,0,0,0,175.587,16.868Zm-14.839,7.38-.171,1.933h-4.548l.171-1.933Zm-.421,4.81-.193,2.183h-4.548l.193-2.195ZM161.4,12a8.322,8.322,0,0,1-.341,1.478c-.4,1.137-.841,2.274-1.353,3.411h-1.376a.864.864,0,0,0,.148-.739,16.234,16.234,0,0,0-1.035-4.071l-.1-.182h4.071ZM147.979,25.373l-.4,4.48c-1.262.409-2.274.716-3.207.978l.478-5.458Zm.682-7.834-.409,4.685h-3.127l.409-4.685Zm.682-7.834-.409,4.685h-3.127l.409-4.685Zm3.229,0h.728l-.364.591.489-.352-.091,1.035a.774.774,0,0,0,.575.93.786.786,0,0,0,.277.014h.648a.812.812,0,0,0-.352.352.91.91,0,0,0,0,.739,17.435,17.435,0,0,1,.91,3.718v.125h-2.786a.807.807,0,0,0-.716.33Z" transform="translate(16.307 -1.719)"/>
  <path id="Path_631" data-name="Path 631" class="cls-1" d="M211.4,7.543h-.262c-.534,0-1.944.08-4.9.08h-9.7a4.579,4.579,0,0,1,.25-1.3l.091-.159a1.755,1.755,0,0,0,.262-.75.931.931,0,0,0-.91-.978h-.318c-.694,0-1.353-.125-2.172-.159h-.728l.114.716a14.037,14.037,0,0,1,0,2.695h-8.812c-2.9,0-4.253,0-4.855-.08h-.3a.818.818,0,0,0-.926.7.905.905,0,0,0-.007.157l-.136,1.478a.9.9,0,0,0,.182.694.853.853,0,0,0,.671.239h.3c.58,0,1.922-.068,4.867-.068h8.756l-.114,1.114h-4.173c-3.161,0-4.7,0-5.2-.068h-.3a.818.818,0,0,0-.926.7.905.905,0,0,0-.007.157v.307a25.728,25.728,0,0,1-.182,2.877l-.3,3.411c-.148,1.672-.262,2.479-.318,2.843v.307a.863.863,0,0,0,.182.694.876.876,0,0,0,.671.239h.33c.58,0,2.1-.068,5.185-.068h4.1l-.148,1.637c-3.081.125-6.515.2-10.234.25h-4.457v.682c.068.785.2,1.637.3,2.126a1.113,1.113,0,0,0,.978,1,2.269,2.269,0,0,0,.83-.227h.1a9.218,9.218,0,0,1,2.706-.227c5.367-.171,10.916-.432,16.556-.8h0a13.53,13.53,0,0,1,0,1.944h-16.9c-2.934,0-4.253-.057-4.742-.068h-.25a.83.83,0,0,0-.927.721.848.848,0,0,0-.006.132l-.136,1.524a.808.808,0,0,0,.171.66.86.86,0,0,0,.682.227H184.7l-.966.569a1,1,0,0,0-.591.785.878.878,0,0,0,.443.785,16.524,16.524,0,0,1,3.548,3.479.877.877,0,0,0,.694.4,1.377,1.377,0,0,0,.773-.318l1.217-.853a1.228,1.228,0,0,0,.6-.785.828.828,0,0,0-.25-.694,20.947,20.947,0,0,0-3.7-3.411H198.22l-.262,2.979c-.057.671-.193.921-1.387.921-.455,0-1.671,0-3.275-.148l-1.137-.1.58.989a5.538,5.538,0,0,1,.523,1.5c.193.887.466,1.137,1.41,1.137h.591c2.82,0,3.866-.284,4.548-.716a3.286,3.286,0,0,0,1.637-2.945c0-.569.091-1.137.136-1.819s.091-1.137.136-1.774h8.164a.774.774,0,0,0,.89-.636.823.823,0,0,0,.008-.183l.125-1.512a.726.726,0,0,0-.482-.909.716.716,0,0,0-.325-.024h-.3c-.489,0-1.808.068-4.753.068h-3.036a1.88,1.88,0,0,1,.171-.523L202.28,29a1.766,1.766,0,0,0,.273-.75.863.863,0,0,0-.455-.807l2.99-.216a18.1,18.1,0,0,1,1.353,1.581.873.873,0,0,0,.694.421,1.355,1.355,0,0,0,.773-.33l.989-.625a1.137,1.137,0,0,0,.6-.716.877.877,0,0,0-.262-.75,21.517,21.517,0,0,0-3.6-3.434h0a.842.842,0,0,0,.932-.864v-.273a24.33,24.33,0,0,1,.182-2.865l.3-3.411c.148-1.706.273-2.524.33-2.911a2.01,2.01,0,0,1,0-.262.886.886,0,0,0-.182-.694.854.854,0,0,0-.671-.239H206.2c-.569.068-2.047.068-5.117.068h-4.912l.1-1.228h9.8c3.013,0,4.435.057,4.9.068h.25a.83.83,0,0,0,.927-.72.88.88,0,0,0,.006-.144l.1-1.387a.886.886,0,0,0-.182-.694A.865.865,0,0,0,211.4,7.543Zm-15.635,8.642.114-1.353h7.96l-.114,1.353Zm6.152,8.244c-2.422.159-4.73.284-6.9.364l.136-1.512h6.822a.854.854,0,0,0-.262.512A.761.761,0,0,0,201.916,24.429Zm-6.515-3.98.136-1.467h7.891l-.125,1.467Zm-3.252-1.467-.159,1.467H184.86L185,18.982Zm.364-4.15-.125,1.353h-7.118l.125-1.353Z" transform="translate(21.384 -1.73)"/>
  <path id="Path_632" data-name="Path 632" class="cls-1" d="M245.176,7.9h-.3c-.557,0-2.035.068-5.049.068h-8.6a6.209,6.209,0,0,1,.3-1.717,1.714,1.714,0,0,1,.1-.2,1.953,1.953,0,0,0,.25-.728.955.955,0,0,0-.932-.932c-.6-.091-1.66-.159-2.593-.193h-.739l.114.728a13.056,13.056,0,0,1,0,3.138h-8.142c-3.025,0-4.491,0-5.037-.068h-.307a.83.83,0,0,0-.927.721.85.85,0,0,0-.006.132,2.773,2.773,0,0,0,0,.364,14.3,14.3,0,0,1-.091,1.66l-.125,1.069c-.227,2.627-.352,3.468-.4,3.786v.239a.821.821,0,0,0,.182.66.874.874,0,0,0,.682.239h1.751a.818.818,0,0,0,.924-.7.865.865,0,0,0,.008-.122l.432-4.878h25.573l-.421,4.81a.821.821,0,0,0,.182.66.9.9,0,0,0,.671.227h1.785a.818.818,0,0,0,.924-.7.755.755,0,0,0,.008-.133v-.239A33.865,33.865,0,0,1,245.677,12l.125-1.467c.057-.682.136-1.137.171-1.364a1.264,1.264,0,0,0,0-.375.774.774,0,0,0-.575-.93.786.786,0,0,0-.277-.014Z" transform="translate(26.483 -1.742)"/>
  <path id="Path_633" data-name="Path 633" class="cls-1" d="M236.9,24.9a45.949,45.949,0,0,0,4.435-3.627,8.839,8.839,0,0,1,1.751-1.4,1.321,1.321,0,0,0,.773-.978,1.135,1.135,0,0,0-.432-.955,13.511,13.511,0,0,0-1.808-1.478l-.489-.341-.341.512a12.211,12.211,0,0,1-1.3,1.672,33.716,33.716,0,0,1-3.98,3.684,30.884,30.884,0,0,1-1.524-6.083h1.137c3.2,0,4.628.057,5.094.068h.25a.852.852,0,0,0,.94-.755,1,1,0,0,0,0-.143l.125-1.444a.968.968,0,0,0-.182-.728.854.854,0,0,0-.671-.239h-.25c-.534,0-1.967.068-5.105.068H224.082c-3.047,0-4.548-.057-5.06-.068h-.284a.841.841,0,0,0-.929.743.8.8,0,0,0,0,.156l-.136,1.433a1,1,0,0,0,.182.739.9.9,0,0,0,.671.239h.3c.546,0,1.978-.068,5.06-.068h1.433a41.15,41.15,0,0,1-11.371,4.23l-1.137.284.9.739a3.22,3.22,0,0,1,.9,1.137c.478.932.876.91,1.74.637a50.476,50.476,0,0,0,8.528-3.411,19.235,19.235,0,0,1,1.251,1.717,45.062,45.062,0,0,1-13.952,5.856l-1.239.318,1.035.728a2.583,2.583,0,0,1,.841,1.035c.193.375.432.853,1,.853a1.817,1.817,0,0,0,.66-.159l.159-.068a51.241,51.241,0,0,0,12.838-5.879,16.44,16.44,0,0,1,.614,1.933c-5.026,3.991-10.234,6.459-17.784,8.528l-1.069.284.807.716a3.994,3.994,0,0,1,.955,1.137c.182.4.409.91,1.012.91a2.258,2.258,0,0,0,.785-.227,52.543,52.543,0,0,0,15.737-7.8,15.012,15.012,0,0,1-.057,1.865c-.387,4.332-1.672,4.332-2.615,4.332a27.975,27.975,0,0,1-3.889-.262l-1.228-.182.614,1.057a4.312,4.312,0,0,1,.489,1.455c.125.978.341,1.137,1.285,1.228a19.243,19.243,0,0,0,2.274.125c4.321,0,5.947-1.922,6.447-7.607a18.4,18.4,0,0,0-4.082-13.554c.819-.523,1.694-1.137,2.774-1.933,1.592,9.449,5.06,15.385,11.905,20.467l.136.1a1.137,1.137,0,0,0,.728.318c.466,0,.716-.353,1.057-.841a5.089,5.089,0,0,1,1.342-1.364l.7-.523-.728-.455A23.644,23.644,0,0,1,236.9,24.9Z" transform="translate(26.008 -0.582)"/>
  <path id="Path_634" data-name="Path 634" class="cls-1" d="M279.043,22.733h-.3c-.557,0-1.876.068-4.787.068h-9.881l1.137-13.02h8.1c3.138,0,4.548.057,5.049.068v-.3h0l.068.318h.171a.841.841,0,0,0,.938-.732.85.85,0,0,0,.006-.132l.148-1.774a.919.919,0,0,0-.171-.7.9.9,0,0,0-.671-.239h-.25c-.466,0-1.876.068-5.071.068H254.345c-3.229,0-4.628,0-5.094-.068H249a.83.83,0,0,0-.927.72.876.876,0,0,0-.006.144l-.159,1.785a.9.9,0,0,0,.182.694.853.853,0,0,0,.671.239h.182V9.566h0l.091.3c.523,0,1.933-.068,5.094-.068h7.4l-1.137,13.02h-9.654c-2.979,0-4.344-.057-4.787-.068h-.25a.83.83,0,0,0-.927.72.88.88,0,0,0-.006.144l-.159,1.819a.829.829,0,0,0,.182.694.84.84,0,0,0,.671.239h.273c.443,0,1.831-.068,4.776-.068h9.563l-.762,8.721c-.193,2.195-.341,3.354-.4,3.786v.352a.876.876,0,0,0,.171.7.919.919,0,0,0,.682.239h2.058a.841.841,0,0,0,.932-.864v-.318c0-.5.08-1.672.273-3.786l.762-8.8h9.961c2.911,0,4.219,0,4.776.068h.3a.83.83,0,0,0,.927-.72.88.88,0,0,0,.006-.144l.159-1.819a.751.751,0,0,0-.853-.932Z" transform="translate(30.857 -1.455)"/>
  <path id="Path_635" data-name="Path 635" class="cls-1" d="M271.222,10.026l-.614-.216-.159.637a8.863,8.863,0,0,1-.7,1.819,38.985,38.985,0,0,1-5.151,7.436l-.6.694.853.25a3.432,3.432,0,0,1,1.137.58l.159.1a1.254,1.254,0,0,0,.716.307c.432,0,.671-.284,1.057-.728a52.351,52.351,0,0,0,4.9-7.141,2.575,2.575,0,0,1,.625-.864,1.293,1.293,0,0,0,.625-.887.979.979,0,0,0-.6-.978A17.229,17.229,0,0,0,271.222,10.026Z" transform="translate(33.516 -0.972)"/>
  <path id="Path_636" data-name="Path 636" class="cls-1" d="M253.483,21.217h0a.684.684,0,0,0,.307.068,2.049,2.049,0,0,0,.716-.2l1.353-.546a.932.932,0,0,0,.724-1.1l-.008-.035a34.138,34.138,0,0,0-3.843-8.7.841.841,0,0,0-1.118-.408.909.909,0,0,0-.178.113l-1.137.58c-.33.159-.682.318-.8.694a.74.74,0,0,0,.136.671,33.214,33.214,0,0,1,3.411,8.278A.864.864,0,0,0,253.483,21.217Z" transform="translate(31.526 -0.917)"/>
  <path id="Path_637" data-name="Path 637" class="cls-1" d="M311.439,19.377h0a54.811,54.811,0,0,0-8.755-9.711,1.059,1.059,0,0,0-1.421.1l-.921.591a1.226,1.226,0,0,0-.637.807.841.841,0,0,0,.318.728,50.312,50.312,0,0,1,3.8,3.832c-4.219.432-9.324.853-13.918,1.137,1.831-2.729,3.411-5.572,4.946-8.267a8.363,8.363,0,0,1,1.035-1.546,1.587,1.587,0,0,0,.557-.967c0-.273-.057-.785-.887-1.137a16.459,16.459,0,0,0-2.524-.694l-.591-.114-.114.591a11.335,11.335,0,0,1-.876,2.479,87.973,87.973,0,0,1-5.685,9.836l-2.456.1H278.68l.057.694c.091.91.239,1.967.375,2.615a1.023,1.023,0,0,0,.978.921,1.865,1.865,0,0,0,.966-.307,4.561,4.561,0,0,1,1.672-.239c6.766-.341,16.192-1.137,23.515-2.092.694.932,1.353,1.888,1.933,2.843a.887.887,0,0,0,.728.466,1.657,1.657,0,0,0,.819-.33l1.205-.75C311.3,20.582,311.928,20.161,311.439,19.377Z" transform="translate(35.529 -1.749)"/>
  <path id="Path_638" data-name="Path 638" class="cls-1" d="M305.273,21.161h-.262c-.534,0-1.967.068-5.049.068H288.91c-3.036,0-4.491-.057-5.049-.068h-.3a.83.83,0,0,0-.927.721.85.85,0,0,0-.006.132.205.205,0,0,0,0,.091h0v.2c0,.5-.08,1.672-.307,4.275l-.3,3.411c-.432,4.946-.6,6.311-.66,6.822V37a.863.863,0,0,0,.182.694.875.875,0,0,0,.671.239h1.819a.841.841,0,0,0,.938-.732.853.853,0,0,0,.006-.132l.125-1.421h16.272l-.114,1.137a.922.922,0,0,0,.182.7.81.81,0,0,0,.637.227h1.865a.841.841,0,0,0,.957-.706.818.818,0,0,0,.009-.158v-.182c.057-1.137.227-3.411.523-6.709l.33-3.764c.2-2.274.352-3.411.4-3.809v-.262a.91.91,0,0,0-.182-.694A.921.921,0,0,0,305.273,21.161Zm-2.979,3.411-.671,7.63H285.351l.671-7.63Z" transform="translate(35.896 0.583)"/>
</svg>
