<svg width="112" height="130" viewBox="0 0 112 130" fill="none" xmlns="http://www.w3.org/2000/svg">
<path d="M14.0122 90.3206V41.986L55.6682 17.8157L97.3161 41.986V90.3206L55.6682 114.491L14.0122 90.3206Z" stroke="#138675"/>
<path d="M14.0532 90.2185V90.298L14.1217 90.3376L55.5999 114.403L55.6682 114.442L55.7366 114.403L97.2067 90.3376L97.2751 90.298V90.2185V42.088V42.0085L97.2067 41.9689L55.7366 17.9036L55.6682 17.864L55.5999 17.9036L14.1217 41.9689L14.0532 42.0085V42.088V90.2185ZM14.0122 90.3206V41.986L55.6682 17.8157L97.3161 41.986V90.3206L55.6682 114.491L14.0122 90.3206Z" stroke="#138675"/>
<path d="M20.0244 86.9697V45.6563L55.6683 24.9993L91.293 45.6563V86.9697L55.6683 107.627L20.0244 86.9697Z" stroke="#138675"/>
<path d="M20.0654 86.8676V86.9471L20.1339 86.9867L55.5999 107.541L55.6683 107.581L55.7366 107.541L91.1836 86.9867L91.252 86.9471V86.8676V45.7583V45.6788L91.1836 45.6392L55.7366 25.0873L55.6683 25.0477L55.5999 25.0872L20.1339 45.6392L20.0654 45.6788V45.7583V86.8676ZM20.0244 86.9697V45.6563L55.6683 24.9993L91.293 45.6563V86.9697L55.6683 107.627L20.0244 86.9697Z" stroke="#138675"/>
<path d="M25.7905 83.7259V49.1448L55.6683 31.8635L85.5269 49.1448V83.7259L55.6683 101.018L25.7905 83.7259Z" stroke="#138675"/>
<path d="M25.8315 83.6238V83.7033L25.9002 83.7429L55.6002 100.93L55.6683 100.97L55.7363 100.93L85.4282 83.7429L85.4968 83.7033V83.6238V49.2496V49.1701L85.4282 49.1305L55.7363 31.9405L55.6683 31.9011L55.6002 31.9405L25.9002 49.1305L25.8315 49.1701V49.2496V83.6238ZM25.7905 83.7259V49.1448L55.6683 31.8635L85.5269 49.1448V83.7259L55.6683 101.018L25.7905 83.7259Z" stroke="#138675"/>
<path d="M31.5927 80.1076L31.5845 52.2897L55.6688 38.384L79.7421 52.2897V80.1079L55.6688 94.0133L31.5927 80.1076Z" stroke="#138675"/>
<path d="M31.6255 80.0031V80.0829L31.6941 80.1225L55.6007 93.9256L55.6688 93.9649L55.7368 93.9256L79.6325 80.1225L79.7011 80.0829V80.0031V52.3943V52.3147L79.6325 52.2748L55.7368 38.4635L55.6688 38.4242L55.6007 38.4635L31.6941 52.2748L31.6255 52.3147V52.3943V80.0031ZM31.5845 80.1049V52.2897L55.6688 38.384L79.7421 52.2897V80.1052L55.6688 94.0133L31.5845 80.1049Z" stroke="#138675"/>
<path d="M37.6506 76.8068L37.6396 55.7613L55.668 45.2378L73.6881 55.7613V76.8068L55.668 87.3304L37.6506 76.8068Z" stroke="#138675"/>
<path d="M37.6919 76.5669H37.6509V55.7613L55.6683 45.2378L73.6884 55.7613V76.8068L55.6683 87.3304L37.6509 76.8068V76.7661L37.749 76.8233L55.5997 87.2423L55.6683 87.2825L55.7369 87.2423L73.5794 76.8233L73.6474 76.7837V76.7045V55.8637V55.7845L73.5794 55.7448L55.7369 45.3258L55.6683 45.2857L55.5997 45.3258L37.76 55.7448L37.6919 55.7845V55.8637V76.5669Z" stroke="#138675"/>
<path d="M43.9147 73.0155L43.9038 59.2966L55.6684 52.4185L67.4139 59.2966V73.0292L55.6684 79.8826L43.9147 73.0155Z" stroke="#138675"/>
<path d="M43.9531 59.3769V72.8562L43.9121 72.9112V59.2966L55.6685 52.4185L67.414 59.2966V73.0265L55.6685 79.8826L43.9121 73.0045V72.9731L44.013 73.0322L55.5999 79.7948L55.6685 79.8347L55.7372 79.7946L67.3132 73.032L67.3812 72.9924V72.9131V59.3879V59.3087L67.3132 59.2691L55.7372 52.4955L55.6685 52.4553L55.5999 52.4955L44.0212 59.2581L43.9531 59.2977V59.3769Z" stroke="#138675"/>
<path d="M49.7896 69.5929V62.7082L55.6678 59.2773L61.546 62.7082V69.5929L55.6678 73.0265L49.7896 69.5929Z" stroke="#138675"/>
<path d="M49.8278 69.4851H49.9101L49.847 69.5567L49.8552 69.5677L49.9391 69.6805L49.7896 69.593V62.7082L55.6678 59.2747L61.546 62.7082V69.593L55.6678 73.0265L50.1012 69.7751V69.7176L55.5991 72.925L55.6678 72.9649L55.7364 72.9247L61.4369 69.593L61.505 69.5534V69.4741V62.8133V62.7341L61.4369 62.6942L55.7364 59.3734L55.6678 59.3335L55.5991 59.3737L49.8959 62.7055L49.8278 62.7451V62.8243V69.4851Z" stroke="#138675"/>
<path d="M32.1753 51.8809L56.2212 17.2256L90.6136 46.105L56.2212 66.4905L32.1753 51.8809Z" fill="#138675" fill-opacity="0.7" stroke="#138675" stroke-miterlimit="10"/>
<path d="M52.6803 11H54.3603V7.64H55.9923L58.1283 11H60.1323L57.6963 7.328C58.8843 6.968 59.6763 6.104 59.6763 4.784C59.6763 2.744 58.0803 2.084 55.9443 2.084H52.6803V11ZM54.3603 6.236V3.488H55.8003C57.1803 3.488 57.9363 3.812 57.9363 4.784C57.9363 5.756 57.1803 6.236 55.8003 6.236H54.3603Z" fill="#138675"/>
<path d="M7.45898 42.1204C7.39258 43.0383 7.05273 43.761 6.43945 44.2883C5.83008 44.8157 5.02539 45.0793 4.02539 45.0793C2.93164 45.0793 2.07031 44.7122 1.44141 43.9778C0.816406 43.2395 0.503906 42.2278 0.503906 40.9426V40.4211C0.503906 39.6008 0.648438 38.8782 0.9375 38.2532C1.22656 37.6282 1.63867 37.1497 2.17383 36.8176C2.71289 36.4817 3.33789 36.3137 4.04883 36.3137C5.0332 36.3137 5.82617 36.5774 6.42773 37.1047C7.0293 37.6321 7.37695 38.3723 7.4707 39.3254H5.71289C5.66992 38.7747 5.51562 38.3762 5.25 38.1301C4.98828 37.8801 4.58789 37.7551 4.04883 37.7551C3.46289 37.7551 3.02344 37.9661 2.73047 38.3879C2.44141 38.8059 2.29297 39.4563 2.28516 40.3391V40.9836C2.28516 41.9055 2.42383 42.5793 2.70117 43.0051C2.98242 43.4309 3.42383 43.6438 4.02539 43.6438C4.56836 43.6438 4.97266 43.5208 5.23828 43.2747C5.50781 43.0247 5.66211 42.6399 5.70117 42.1204H7.45898Z" fill="#138675"/>
<path d="M5.89453 97.2026H2.51953V99.4878H6.48047V100.9H0.761719V92.3687H6.46875V93.7925H2.51953V95.8257H5.89453V97.2026Z" fill="#138675"/>
<path d="M58.1265 127.629C58.1265 127.297 58.0093 127.043 57.7749 126.868C57.5405 126.688 57.1187 126.5 56.5093 126.305C55.8999 126.106 55.4175 125.911 55.062 125.719C54.0933 125.196 53.6089 124.491 53.6089 123.604C53.6089 123.143 53.7378 122.733 53.9956 122.374C54.2573 122.01 54.6304 121.727 55.1147 121.524C55.603 121.321 56.1499 121.219 56.7554 121.219C57.3647 121.219 57.9077 121.331 58.3843 121.553C58.8608 121.772 59.23 122.083 59.4917 122.485C59.7573 122.887 59.8901 123.344 59.8901 123.856H58.1323C58.1323 123.465 58.0093 123.163 57.7632 122.948C57.5171 122.729 57.1714 122.62 56.7261 122.62C56.2964 122.62 55.9624 122.711 55.7241 122.895C55.4858 123.075 55.3667 123.313 55.3667 123.61C55.3667 123.887 55.5054 124.12 55.7827 124.307C56.064 124.495 56.4761 124.67 57.019 124.834C58.019 125.135 58.7476 125.508 59.2046 125.954C59.6616 126.399 59.8901 126.954 59.8901 127.618C59.8901 128.356 59.6108 128.936 59.0522 129.358C58.4937 129.776 57.7417 129.985 56.7964 129.985C56.1401 129.985 55.5425 129.866 55.0034 129.627C54.4644 129.385 54.0522 129.055 53.7671 128.637C53.4858 128.219 53.3452 127.735 53.3452 127.184H55.1089C55.1089 128.125 55.6714 128.596 56.7964 128.596C57.2144 128.596 57.5405 128.512 57.7749 128.344C58.0093 128.172 58.1265 127.934 58.1265 127.629Z" fill="#138675"/>
<path d="M109.462 99.1421H106.38L105.794 100.9H103.925L107.101 92.3687H108.73L111.923 100.9H110.054L109.462 99.1421ZM106.855 97.7183H108.988L107.916 94.5249L106.855 97.7183Z" fill="#138675"/>
<path d="M107.514 43.9634H105.756V35.4321H107.514V43.9634Z" fill="#138675"/>
</svg>
