<svg width="100" height="87" viewBox="0 0 100 87" fill="none" xmlns="http://www.w3.org/2000/svg">
<path d="M50.951 77.522C50.7453 77.522 50.548 77.4447 50.4025 77.307C50.2571 77.1694 50.1753 76.9827 50.1753 76.7881V48.9628L62.656 74.9549C62.7038 75.0432 62.7322 75.1398 62.7394 75.2389C62.7466 75.3379 62.7325 75.4373 62.698 75.531C62.6635 75.6247 62.6092 75.7109 62.5384 75.7842C62.4677 75.8575 62.382 75.9164 62.2865 75.9575C62.1909 75.9986 62.0876 76.0209 61.9827 76.023C61.8778 76.0252 61.7736 76.0073 61.6762 75.9702C61.5789 75.9332 61.4905 75.8779 61.4164 75.8076C61.3423 75.7373 61.2841 75.6535 61.2452 75.5613V75.5613L51.7266 55.7392V76.7853C51.7274 76.8821 51.7079 76.9779 51.6692 77.0675C51.6306 77.157 51.5735 77.2384 51.5014 77.3069C51.4292 77.3754 51.3434 77.4297 51.249 77.4666C51.1545 77.5035 51.0532 77.5223 50.951 77.522V77.522Z" fill="#64452D"/>
<path d="M41.8276 75.9906C41.726 75.9913 41.6253 75.973 41.5312 75.9367C41.4371 75.9004 41.3516 75.8469 41.2795 75.7792C41.2074 75.7115 41.1501 75.631 41.1111 75.5423C41.072 75.4535 41.0519 75.3584 41.0519 75.2623C41.0525 75.1725 41.0694 75.0835 41.1017 74.9992L50.2251 52.0921C50.2977 51.9085 50.4444 51.7596 50.6329 51.6784C50.8215 51.5971 51.0364 51.59 51.2305 51.6587C51.4246 51.7274 51.5819 51.8661 51.6678 52.0445C51.7537 52.2229 51.7612 52.4263 51.6886 52.6099L42.5535 75.517C42.498 75.6566 42.3987 75.7767 42.2689 75.8614C42.1392 75.946 41.9852 75.9911 41.8276 75.9906V75.9906Z" fill="#64452D"/>
<path d="M50.9451 66.7857L43.8911 64.501L44.3916 63.1164L50.9568 65.2432L57.7767 63.1109L58.2626 64.4955L50.9451 66.7857Z" fill="#64452D"/>
<path d="M86.5372 56.1518H15.3677L12.3177 1.92462L89.5901 0L86.5372 56.1518Z" fill="#755640"/>
<path d="M18.2595 53.2662L15.5316 4.73261L86.3646 2.96861L83.6337 53.2662H18.2595Z" fill="#F6F2E1"/>
<path d="M33.5498 11.6927L25.8846 12.7972L27.1473 20.6406L34.8124 19.5361L33.5498 11.6927Z" fill="#F6F2E1"/>
<path d="M33.0672 11.3664L25.402 12.471L26.6646 20.3144L34.3298 19.2098L33.0672 11.3664Z" fill="#9F8ED7"/>
<path d="M33.0647 11.3663L25.3995 12.4708L25.6115 13.7877L33.2767 12.6831L33.0647 11.3663Z" fill="#867AB9"/>
<path d="M69.573 39.003L68.0197 45.5613L74.4289 46.92L75.9822 40.3617L69.573 39.003Z" fill="#F6F2E1"/>
<path d="M69.309 38.615L67.7526 45.1755L74.1642 46.537L75.7205 39.9765L69.309 38.615Z" fill="#9F8ED7"/>
<path d="M69.3113 38.6161L69.0506 39.7159L75.4596 41.0757L75.7202 39.9759L69.3113 38.6161Z" fill="#867AB9"/>
<path d="M23.853 37.9496L23.7915 39.2788L23.4813 45.8751L31.2261 46.2019L31.6007 38.2736L23.853 37.9496Z" fill="#F6F2E1"/>
<path d="M79.53 10.5286L72.6224 7.20555L71.9843 8.39078L68.8114 14.2726L75.7191 17.5957L78.892 11.7139L79.53 10.5286Z" fill="#F6F2E1"/>
<path d="M72.6208 6.87066L68.8137 13.9398L75.7222 17.2701L79.5293 10.201L72.6208 6.87066Z" fill="#93B0E5"/>
<path d="M72.6238 6.86682L71.9841 8.05344L78.8914 11.3861L79.531 10.1994L72.6238 6.86682Z" fill="#7D9DDA"/>
<path d="M77.8513 14.9373L71.7321 17.1099L74.2167 23.3738L80.3359 21.2012L77.8513 14.9373Z" fill="#F6F2E1"/>
<path d="M77.5776 14.8072L71.4584 16.9799L73.943 23.2438L80.0622 21.0711L77.5776 14.8072Z" fill="#C8C762"/>
<path d="M77.5748 14.808L71.4556 16.9807L71.8721 18.0307L77.9913 15.8581L77.5748 14.808Z" fill="#B0B35E"/>
<path d="M23.5075 37.5874L23.1359 45.5135L30.8819 45.8386L31.2535 37.9125L23.5075 37.5874Z" fill="#F8D777"/>
<path d="M23.5101 37.588L23.4482 38.9188L31.1943 39.2413L31.2562 37.9106L23.5101 37.588Z" fill="#F6C951"/>
<path d="M97.5749 78.6574C97.5302 78.877 97.5431 79.1038 97.6125 79.3176C97.6819 79.5315 97.8057 79.726 97.973 79.8841C97.973 79.8841 96.2753 81.6343 94.2762 81.7755C93.143 81.8845 92.0067 81.599 91.0799 80.9724C91.0799 80.9724 93.4771 79.8371 93.8254 78.8927C94.1737 77.9484 97.5749 78.6574 97.5749 78.6574Z" fill="#E7BC94"/>
<path d="M97.973 79.8841C98.4618 80.161 98.2305 82.1854 98.2305 82.1854C98.2305 82.1854 93.2722 84.3703 90.7111 84.0103C88.15 83.6503 87.9773 82.4484 88.7618 81.9666C89.5462 81.4847 91.6097 80.701 91.6097 80.701L92.4029 79.7623C92.571 79.7565 92.7385 79.783 92.8954 79.8401C93.0524 79.8972 93.1955 79.9838 93.3161 80.0946C93.7815 80.4823 93.2078 81.1054 93.2078 81.1054C93.9632 81.1296 94.7187 81.0616 95.4558 80.9032C96.3365 80.6641 97.1821 80.3218 97.973 79.8841V79.8841Z" fill="#4A3E36"/>
<path d="M88.2086 76.9377C88.1673 77.146 88.1802 77.3606 88.2459 77.5632C88.3117 77.7658 88.4284 77.9502 88.5861 78.1007C88.5861 78.1007 86.9792 79.7623 85.0884 79.8869C84.0175 79.9899 82.9436 79.7202 82.0677 79.1281C82.0677 79.1281 84.3362 78.0564 84.664 77.162C84.9918 76.2675 88.2086 76.9377 88.2086 76.9377Z" fill="#E7BC94"/>
<path d="M88.5861 78.098C89.0486 78.3749 88.8291 80.2746 88.8291 80.2746C88.8291 80.2746 84.1459 82.3404 81.7165 81.9998C79.2871 81.6592 79.132 80.5238 79.8725 80.0614C80.7416 79.6066 81.6411 79.2061 82.5653 78.8623L83.3176 77.9761C83.479 77.9685 83.6404 77.9927 83.7916 78.047C83.9427 78.1013 84.0803 78.1847 84.1957 78.2918C84.6347 78.6574 84.0932 79.2444 84.0932 79.2444C84.8062 79.2693 85.5196 79.206 86.2153 79.0561C87.0445 78.8309 87.8409 78.509 88.5861 78.098Z" fill="#4A3E36"/>
<path d="M97.1944 60.3555C96.3163 57.553 96.1641 48.5447 96.0763 45.4432C95.9885 42.3416 95.9007 41.2422 95.5933 39.6693L87.7227 36.6785L81.7341 40.7936C81.7341 40.7936 81.5584 48.0989 81.6111 49.9044C81.6638 51.7099 81.6872 60.1838 82.258 61.7484C82.8288 63.313 82.8288 64.1521 82.7673 66.0158C82.7087 67.705 83.0161 75.3287 83.0746 76.7327C83.0779 76.8024 83.1007 76.8699 83.1409 76.9283C83.181 76.9868 83.237 77.034 83.3029 77.0651C85.2816 77.9761 87.7783 77.5524 88.5715 77.3807C88.6493 77.3623 88.7192 77.3215 88.7716 77.264C88.824 77.2065 88.8563 77.1351 88.8642 77.0595C89.1042 75.2623 89.4847 68.8515 89.5462 66.8576C89.6076 64.753 88.911 63.7921 88.4661 62.3493C88.1734 61.369 88.5891 53.4878 88.6125 49.6109C89.4379 53.9309 91.1472 62.8146 91.3902 63.4958C91.7063 64.3986 92.2127 65.6004 92.4673 69.145C92.6927 72.2881 92.8683 77.6023 92.9064 78.7709C92.9066 78.8419 92.9281 78.9114 92.9686 78.9712C93.009 79.0311 93.0666 79.0788 93.1347 79.1087C94.5835 79.7014 97.0451 79.2555 97.891 79.0727C97.976 79.0553 98.0527 79.0121 98.1092 78.9496C98.1658 78.8871 98.1991 78.8087 98.2042 78.7266C98.2657 77.6189 98.4969 73.4263 98.6813 69.469C98.9154 64.861 98.0696 63.158 97.1944 60.3555Z" fill="#758FE3"/>
<g opacity="0.5">
<path opacity="0.5" d="M86.0631 60.3555C86.6953 62.1499 86.7158 77.6134 86.7158 77.6134C87.344 77.5835 87.9686 77.5048 88.5832 77.378C88.6608 77.36 88.7306 77.3198 88.783 77.2627C88.8355 77.2057 88.8679 77.1347 88.8759 77.0595C89.1159 75.2623 89.4964 68.8487 89.5579 66.8576C89.6194 64.753 88.9227 63.7921 88.4778 62.3466C88.1851 61.369 88.6008 53.485 88.6242 49.6081L88.4603 40.5056L86.3616 41.2588C86.3616 41.2588 85.4309 58.561 86.0631 60.3555Z" fill="#5874CB"/>
</g>
<g opacity="0.5">
<path opacity="0.5" d="M94.9611 60.3555C96.1699 63.5152 96.2724 76.694 95.9446 79.358C96.6063 79.3026 97.2634 79.2054 97.9115 79.0672C97.9967 79.0502 98.0736 79.0071 98.1303 78.9445C98.1869 78.8819 98.2201 78.8033 98.2247 78.721C98.2861 77.6134 98.5174 73.4207 98.7018 69.4635C98.9154 64.861 98.0696 63.1579 97.1944 60.3555C96.3192 57.553 96.1641 48.5447 96.0763 45.4431C95.9885 42.3416 95.8275 42.1838 95.8216 40.4807L89.113 36.997C88.2094 37.1767 87.2942 37.2988 86.3733 37.3625L85.583 37.4401L83.5107 40.1539C87.0495 41.9428 92.5844 41.0124 92.5844 41.0124C92.5844 41.0124 93.6703 56.9715 94.9611 60.3555Z" fill="#5874CB"/>
</g>
<path d="M83.9117 11.0354C83.431 14.2252 83.3329 17.4562 83.619 20.6668L91.0682 20.0077L88.6681 11.0354H83.9117Z" fill="#80432B"/>
<path d="M87.067 18.6231C86.4816 18.7006 84.8952 18.9 83.9264 19.2628C82.9576 19.6256 82.1117 20.545 81.2628 23.112C80.7682 24.6102 80.3847 26.0668 80.1594 27.0194C79.9954 27.6979 79.1876 31.8434 79.1876 31.8434L88.633 32.1204V20.2127L87.067 18.6231Z" fill="#DB4B51"/>
<path d="M87.067 18.6231C86.4816 18.7006 84.8952 18.9 83.9264 19.2628C83.0483 19.5951 82.2492 20.4148 81.4706 22.5333L81.5584 22.669C82.3956 21.3342 83.5927 20.4342 84.2279 20.1766C85.0925 19.9165 85.972 19.7029 86.8621 19.537L87.3802 18.936L87.067 18.6231Z" fill="#C73D42"/>
<path d="M87.108 17.2606C87.3656 17.8145 87.067 18.8225 86.8153 19.1825C86.5636 19.5425 86.7304 20.8662 88.3842 21.1459C90.0379 21.4256 91.1355 20.869 91.6887 20.2237C92.2419 19.5785 91.6887 15.2945 91.6887 15.2945L90.2048 14.4416L87.108 17.2606Z" fill="#E7BC94"/>
<path d="M82.46 27.7339C82.2609 26.0724 83.5517 23.148 83.5517 23.148C83.5517 23.148 82.9663 26.5819 83.5517 27.8862L82.46 27.7339Z" fill="#C73D42"/>
<g opacity="0.5">
<path opacity="0.5" d="M91.9141 17.9668C91.8848 17.2967 91.8263 16.6154 91.7736 16.1059C91.3855 15.9015 90.9814 15.7256 90.5648 15.5797C90.5648 15.5797 89.7423 15.5963 88.8876 15.6351L87.108 17.2579C87.2248 17.5896 87.24 17.9457 87.1519 18.2853C87.1753 18.2908 89.9501 18.817 91.9141 17.9668Z" fill="#DEAC80"/>
</g>
<path d="M91.1502 13.5222C91.6653 14.7379 90.9804 16.0311 89.7833 16.8453C88.5861 17.6594 87.2192 18.2299 86.4465 17.4933C85.6738 16.7567 84.7108 15.5327 84.7108 14.724C84.7108 13.9154 83.7127 13.8545 83.9674 12.157C84.222 10.4594 85.4309 9.3268 86.107 9.16341C86.7831 9.00003 90.8926 10.7806 90.8926 10.7806L91.1502 13.5222Z" fill="#E7BC94"/>
<path d="M85.706 9.33785C85.7733 9.70616 85.2874 10.9994 84.4825 11.9271C83.6776 12.8548 84.5147 13.8656 83.9264 14.7739C83.3381 15.6822 84.9801 18.54 83.9264 19.6228C82.8727 20.7056 81.8541 20.7471 81.5584 22.669C81.5584 22.669 80.6804 20.8662 81.3067 19.5037C81.9331 18.1413 82.659 17.4213 82.0238 16.1806C81.3887 14.94 81.2189 12.9351 81.939 12.2123C82.659 11.4895 83.4493 9.80862 83.4024 8.80616C83.3556 7.8037 85.5479 5.56062 86.8212 6.40246L85.706 9.33785Z" fill="#965C44"/>
<path d="M95.3709 28.7613C94.5894 31.4474 94.6421 32.9151 95.2011 34.6127C95.6811 36.0859 95.9446 39.625 96.0792 40.6136C96.0984 40.7527 96.0722 40.8941 96.0042 41.0188C95.9362 41.1435 95.8296 41.2456 95.6987 41.3115C94.8499 41.7573 92.6576 42.6047 88.27 42.6047C83.6161 42.6047 82.1526 41.3447 81.737 40.7936C81.6348 40.6529 81.5929 40.4806 81.6199 40.3118C81.737 39.5253 82.1234 34.9782 82.2053 33.9619C82.3136 32.7573 84.1722 24.6628 84.1722 24.6628L86.9851 20.3705L93.2049 17.8228L95.7485 19.1022L95.3709 28.7613Z" fill="#DB4B51"/>
<path d="M84.863 28.0053C84.7576 27.6591 84.3127 26.8782 83.7215 26.8976C83.1518 26.9284 82.589 27.0299 82.0473 27.1994C81.7926 27.2991 81.3477 27.9222 81.3477 27.9222L84.863 28.0053Z" fill="#E7BC94"/>
<path d="M81.5819 33.3721C81.2628 33.7099 80.6687 33.7321 80.0569 33.5714C79.4452 33.4108 79.1232 32.137 79.1788 31.8407C79.2344 31.5444 80.3057 29.7028 80.3057 29.7028L81.5819 33.3721Z" fill="#E7BC94"/>
<path d="M87.4768 28.0413L90.076 35.377C90.0851 35.4015 90.0889 35.4275 90.0872 35.4534C90.0855 35.4794 90.0782 35.5047 90.066 35.528C90.0537 35.5512 90.0366 35.5719 90.0157 35.5888C89.9947 35.6057 89.9705 35.6184 89.9443 35.6262C89.9201 35.6304 89.8953 35.6304 89.8711 35.6262L82.5887 35.3354C82.5461 35.3344 82.5048 35.3211 82.4703 35.2974C82.4358 35.2736 82.4098 35.2406 82.3956 35.2025L79.9018 28.0025C79.8931 27.9779 79.8896 27.952 79.8915 27.9262C79.8934 27.9004 79.9007 27.8751 79.9129 27.852C79.9252 27.8288 79.9421 27.8082 79.9628 27.7912C79.9835 27.7743 80.0075 27.7614 80.0335 27.7533C80.0577 27.7493 80.0825 27.7493 80.1067 27.7533L87.2836 27.9277C87.3239 27.9272 87.3636 27.9376 87.3978 27.9577C87.432 27.9778 87.4595 28.0068 87.4768 28.0413V28.0413Z" fill="#C2C5D3"/>
<path d="M96.0763 40.6136C95.9446 39.625 95.6811 36.0859 95.1982 34.6127C94.6391 32.9013 94.5864 31.4474 95.368 28.7613C94.8382 27.1634 94.3933 23.7905 94.3933 23.7905C94.3933 23.7905 92.8654 29.9493 93.0703 31.8379C93.2752 33.7265 93.4976 42.0342 93.4976 42.0841C94.2605 41.9179 94.9981 41.6611 95.6928 41.3198C95.8253 41.2532 95.9331 41.1498 96.0016 41.0236C96.0701 40.8973 96.0962 40.7543 96.0763 40.6136V40.6136Z" fill="#C73D42"/>
<path d="M87.3451 28.1964L89.9501 35.5293C89.9588 35.554 89.9621 35.5801 89.96 35.6061C89.9579 35.6321 89.9504 35.6574 89.9379 35.6805C89.9253 35.7037 89.9081 35.7243 89.8871 35.7412C89.866 35.758 89.8417 35.7707 89.8155 35.7785C89.7913 35.7825 89.7665 35.7825 89.7423 35.7785L82.457 35.4795C82.4151 35.4771 82.3748 35.4629 82.3414 35.4387C82.308 35.4146 82.2831 35.3815 82.2697 35.3438L79.773 28.1438C79.7565 28.0934 79.7617 28.039 79.7874 27.9923C79.8132 27.9456 79.8575 27.9104 79.9106 27.8945C79.9328 27.8903 79.9557 27.8903 79.9779 27.8945L87.1548 28.069C87.1965 28.0694 87.237 28.0818 87.271 28.1046C87.305 28.1273 87.3308 28.1594 87.3451 28.1964Z" fill="#D9DEEB"/>
<g opacity="0.5">
<path opacity="0.5" d="M89.9501 35.5293L87.3451 28.1963C87.3317 28.1576 87.306 28.1237 87.2714 28.0994C87.2367 28.075 87.195 28.0615 87.1519 28.0607H86.8592C87.4856 30.3951 89.0662 34.9588 88.9813 35.0557C88.8964 35.1527 83.42 35.0751 82.1614 35.0557L82.2668 35.3548C82.2798 35.3927 82.3047 35.426 82.3381 35.4503C82.3716 35.4745 82.412 35.4885 82.4541 35.4905L89.7364 35.7896C89.789 35.7906 89.8401 35.773 89.8796 35.7402C89.9191 35.7074 89.9443 35.6618 89.9501 35.6124C89.9545 35.5848 89.9545 35.5568 89.9501 35.5293Z" fill="#C2C5D3"/>
</g>
<path d="M94.3962 32.1287C93.5474 32.1508 91.8205 32.5357 91.2087 32.5745C90.597 32.6133 89.7979 32.1563 89.3998 31.7133C89.1516 31.4135 88.7912 31.2152 88.393 31.1594L88.7413 32.137C88.7413 32.137 88.4866 32.137 87.5324 32.137C86.5782 32.137 85.8875 31.392 85.744 31.5637C85.6006 31.7354 85.8875 32.8708 86.0689 33.1228C86.2504 33.3748 87.2397 33.6213 87.6524 33.7376C88.0651 33.8539 89.5198 33.6988 90.0496 33.7376C90.5794 33.7764 93.7025 34.488 95.2011 34.6237C96.6997 34.7594 96.4363 32.893 96.4363 32.893L94.3962 32.1287Z" fill="#E7BC94"/>
<path d="M95.7514 19.1022C97.6159 19.825 98.21 20.5865 98.8013 22.309C99.3925 24.0314 99.817 30.0047 99.9458 31.6468C100.075 33.289 99.9458 34.0533 99.5652 34.2111C99.1847 34.369 97.7856 34.7345 95.204 34.6127C95.204 34.6127 95.7894 32.6105 94.3962 32.1204C94.3962 32.1204 96.006 31.9597 96.6002 32.1204C96.0268 30.7754 95.5381 29.3994 95.1367 27.9997L95.7514 19.1022Z" fill="#DB4B51"/>
<path d="M85.706 9.33786C85.5421 10.5286 88.7881 11.5809 90.0672 12.3619C91.1326 13.0126 89.8184 16.1751 91.3258 17.0973C92.8332 18.0194 90.3306 19.2628 91.3258 20.8274C92.321 22.392 91.0067 23.7905 91.0067 23.7905C91.0067 23.7905 93.2927 23.0705 93.3483 21.7468C93.4039 20.4231 93.8986 18.3794 95.7602 19.1022C95.7602 19.1022 96.2285 16.8563 95.2977 16.0145C94.3669 15.1726 93.8137 13.0486 94.323 12.4145C94.8323 11.7803 93.8137 8.72863 92.5844 8.81448C91.3551 8.90033 90.635 5.04832 86.8241 6.41078L85.706 9.33786Z" fill="#965C44"/>
<path d="M84.945 31.2314C85.0138 31.3912 85.013 31.5703 84.9428 31.7296C84.8727 31.8888 84.7387 32.0154 84.5703 32.0816L84.5352 32.0954C84.3252 32.1517 84.1004 32.1282 83.9085 32.0299C83.7166 31.9317 83.5728 31.7664 83.5078 31.5693C83.4723 31.4802 83.4579 31.3849 83.4655 31.29C83.4732 31.1951 83.5028 31.1029 83.5522 31.02C83.6016 30.9371 83.6696 30.8655 83.7515 30.8101C83.8333 30.7548 83.927 30.7171 84.0259 30.6997C84.2202 30.6762 84.4171 30.716 84.5842 30.8127C84.7514 30.9094 84.8786 31.0571 84.945 31.2314V31.2314Z" fill="white"/>
<g opacity="0.3">
<path opacity="0.3" d="M84.863 28.0053L81.5848 33.3693L81.9594 34.4548L85.5216 28.0219L84.863 28.0053Z" fill="white"/>
</g>
<g opacity="0.3">
<path opacity="0.3" d="M86.3704 28.0413L83.3029 35.5182L84.4737 35.5681L86.8504 28.0496L86.3704 28.0413Z" fill="white"/>
</g>
<path d="M99.0238 23.1508C99.0238 23.1702 99.4716 32.6604 99.2667 33.12C99.0618 33.5797 96.5709 34.3441 95.324 33.8428C95.3096 34.0975 95.2714 34.3505 95.2099 34.5988C97.7944 34.7207 99.1906 34.3579 99.5711 34.1973C99.9516 34.0367 100.08 33.2751 99.9516 31.633C99.8345 30.2124 99.495 25.4714 99.0238 23.1508Z" fill="#C73D42"/>
<g opacity="0.5">
<g opacity="0.5">
<path opacity="0.5" d="M84.4825 11.9271L84.6201 11.7582C84.5661 11.8081 84.5198 11.865 84.4825 11.9271V11.9271Z" fill="#80432B"/>
</g>
</g>
<g opacity="0.5">
<path opacity="0.5" d="M94.3113 12.409C93.0849 13.0542 94.6713 16.4437 92.6751 16.1834C90.1111 15.8511 91.1092 13.9376 90.3921 12.7911C90.8077 13.8988 90.0379 16.308 91.3258 17.0973C92.8273 18.0194 90.3306 19.2628 91.3258 20.8274C92.321 22.392 91.0067 23.7905 91.0067 23.7905C91.0067 23.7905 93.2927 23.0705 93.3483 21.7468C93.4039 20.4231 93.8986 18.3794 95.7631 19.1022C95.7631 19.1022 96.2314 16.8563 95.2977 16.0145C94.364 15.1726 93.802 13.0486 94.3113 12.409Z" fill="#80432B"/>
</g>
<g opacity="0.5">
<g opacity="0.5">
<path opacity="0.5" d="M83.8035 15.2723C83.1449 17.3437 81.5585 15.613 81.4794 13.8102C81.4841 14.627 81.6706 15.4338 82.0268 16.1779C82.6649 17.4213 81.9448 18.1413 81.3097 19.501C80.6745 20.8607 81.5614 22.6662 81.5614 22.6662C81.8541 20.7443 82.8756 20.7028 83.9293 19.62C84.8308 18.6951 83.7508 16.4686 83.8035 15.2723Z" fill="#80432B"/>
</g>
</g>
<path d="M36.5122 18.72C37.3903 18.6896 37.2995 19.0357 39.0616 18.216C40.8236 17.3963 41.3651 17.2689 41.8569 17.2883C42.3486 17.3077 43.5721 16.6403 43.9057 16.5019C44.2394 16.3634 45.4366 15.8788 45.5741 16.0145C45.7117 16.1502 45.9429 16.7012 45.2814 17.064C44.6199 17.4268 44.5497 17.2634 44.0814 17.6566C43.613 18.0499 43.0423 18.3545 43.0159 18.4874C42.9896 18.6203 43.894 19.4926 43.7682 19.7889C43.6423 20.0853 42.0295 21.3896 40.8207 21.3397C39.6119 21.2899 39.8226 21.168 38.6899 21.2289C37.8702 21.2916 37.0563 21.41 36.2546 21.5834L36.5122 18.72Z" fill="#E7BC94"/>
<path d="M37.5864 18.3656L28.9752 19.8443C26.8971 18.9942 21.2538 13.392 19.1757 13.2397C18.523 13.1899 16.6438 13.2785 15.7979 13.5443C16.4068 15.5714 16.9892 17.809 18.7249 19.1022L20.3318 20.3013C22.0412 20.7665 26.9439 24.66 28.7264 24.3C30.2543 23.9871 38.0928 22.0182 38.0928 22.0182C39.1787 20.1213 37.5864 18.3656 37.5864 18.3656Z" fill="#5E5046"/>
<path d="M7.44726 82.8693C4.43247 82.4983 4.892 81.1275 5.39837 80.582C5.90474 80.0364 7.22481 78.4053 7.44726 77.5358C7.66971 76.6663 13.108 77.0263 13.108 77.0263C13.108 77.0263 13.3627 79.0312 13.108 79.3164C12.8534 79.6016 12.2299 79.5656 12.1216 79.909C12.0133 80.2524 10.4064 83.2432 7.44726 82.8693Z" fill="#522F17"/>
<path d="M23.291 76.6136C24.9447 77.7352 26.8795 79.6183 28.0913 80.0198C29.303 80.4213 29.704 80.9807 29.3001 81.9029C28.8962 82.825 26.4785 82.9857 25.1467 82.8638C23.8149 82.742 22.6441 81.5013 21.9592 81.1026C21.2743 80.7038 20.1855 81.4626 19.4596 80.7786C18.7337 80.0946 18.8537 79.2167 18.7717 78.3776C18.6898 77.5386 23.291 76.6136 23.291 76.6136Z" fill="#522F17"/>
<path d="M12.827 46.6284C12.827 46.6284 18.28 78.4192 18.3883 78.8872C18.4966 79.3552 23.9496 77.7103 24.5525 77.0041C24.5525 77.0041 22.0646 58.1733 21.8275 56.8718C21.5904 55.5702 20.5221 38.5256 19.4567 34.441C19.4567 34.441 7.9624 35.5487 5.11445 35.3161C5.11445 35.3161 4.99737 47.797 5.94278 53.8007C6.8882 59.8044 7.01113 76.993 7.13114 77.4638C7.25114 77.9346 13.0553 78.1727 13.4124 77.5829C13.7695 76.993 12.827 46.6284 12.827 46.6284Z" fill="#C2C5D3"/>
<path d="M5.1203 43.4964L8.87269 43.9561C8.94001 44.3133 9.58102 74.2875 9.70688 77.9124C8.37803 77.8487 7.18968 77.6854 7.13699 77.4749C7.01991 77.0041 6.89991 59.8155 5.9662 53.8118C5.76424 52.6127 5.23445 45.0582 5.1203 43.4964Z" fill="#DBDEE6"/>
<path d="M15.4672 43.8398L21.9417 78.1783C20.2879 78.7321 18.4674 79.1531 18.4 78.8817C18.3093 78.5189 14.3198 55.5509 12.8388 46.6201L12.5695 43.9616L15.4672 43.8398Z" fill="#DBDEE6"/>
<path d="M14.1413 13.0985C15.5199 13.2286 18.9679 13.4114 19.6118 13.7742C20.2557 14.1369 21.4529 14.6714 20.6011 17.9945C20.2762 19.2683 20.203 27.4763 20.525 30.3674C20.847 33.2585 22.4949 43.0893 22.4949 43.0893C22.4949 43.0893 11.5567 44.8838 4.34758 43.3385C4.34758 43.3385 3.46948 28.7723 3.32899 27.756C3.18849 26.7397 2.67335 22.8739 2.67335 22.8739C2.67335 22.8739 1.52597 24.5354 0.697632 23.9816C0.697632 23.9816 2.41577 15.7403 2.91921 15.084C3.42265 14.4277 9.18295 12.1625 9.18295 12.1625L14.1413 13.0985Z" fill="#5E5046"/>
<g opacity="0.5">
<g opacity="0.5">
<path opacity="0.5" d="M1.57574 22.7991C1.57574 22.7991 3.08607 21.7911 3.44023 20.6336C5.8989 19.2739 6.65991 20.0797 6.65991 20.0797C6.55747 20.6336 6.13598 21.2483 6.54869 25.045C7.21604 31.1677 9.05418 38.9604 10.3128 43.9533C8.30224 43.9339 6.2985 43.7289 4.33004 43.3413C4.33004 43.3413 4.24515 41.8265 4.12222 39.7136C4.0988 39.2899 4.07246 38.8441 4.04612 38.3816C4.00514 37.6865 3.96124 36.9527 3.91733 36.2077C3.87343 35.4628 3.82952 34.704 3.78269 33.9591C3.76805 33.7099 3.75342 33.4607 3.73878 33.2197C3.5456 30.0351 3.36998 28.1714 3.31145 27.7588C3.17973 26.7508 2.67336 22.8739 2.67336 22.8739C2.55107 22.8886 2.42783 22.8951 2.30456 22.8933C2.23139 22.8933 2.14651 22.8933 2.05577 22.8933C1.7338 22.8656 1.7982 22.7603 2.18748 22.561C2.97484 22.1456 1.62258 22.8296 1.57574 22.7991Z" fill="#4A3E36"/>
</g>
</g>
<path d="M4.27442 28.7059C4.60828 30.743 4.80382 32.7983 4.85982 34.8591C4.99153 38.1434 5.12324 40.0016 6.29989 41.1785C7.47654 42.3555 7.28336 42.9148 8.00339 44.2801C8.72343 45.6453 8.79953 46.0468 8.53025 46.2628C8.26097 46.4788 7.55264 46.0468 7.30385 45.5567C7.05505 45.0665 6.46966 43.5795 6.46966 43.5795C6.46966 43.5795 6.89992 45.3407 6.93797 45.6841C6.97602 46.0275 8.22292 46.9358 8.26097 47.4232C8.29902 47.9105 7.03749 47.6059 6.46966 47.5533C5.90182 47.5007 4.28613 46.861 3.97001 46.3542C3.6539 45.8475 3.62463 44.4518 3.56609 43.2555C3.43868 41.9294 3.20779 40.6142 2.87532 39.3204C2.70263 38.6502 1.63135 33.3416 1.32402 31.3256C1.01669 29.3096 0.811798 27.709 0.811798 27.709L4.27442 28.7059Z" fill="#E7BC94"/>
<path d="M6.93211 41.6604C5.49869 42.0583 4.04009 42.37 2.56506 42.5936C2.56506 42.5936 0.346402 30.6277 0.0273613 28.9662C-0.29168 27.3047 2.27821 16.9394 2.59725 15.9508C2.91629 14.9622 4.28027 14.1009 5.96914 13.3865L7.11651 19.6422C7.11651 19.6422 5.18471 27.0111 5.10275 28.2905C5.02079 29.5699 6.93211 41.6604 6.93211 41.6604Z" fill="#5E5046"/>
<g opacity="0.5">
<g opacity="0.5">
<path opacity="0.5" d="M15.4672 24.0702L19.1962 43.5213L20.5806 43.3662L15.4672 24.0702Z" fill="#4A3E36"/>
</g>
</g>
<path d="M8.50977 11.8496C8.50977 11.8496 3.19437 13.9625 2.92216 15.084C2.64995 16.2056 2.7085 20.6031 3.07729 23.9317C3.44609 27.2604 4.2276 21.3868 6.67748 21.3674C9.12737 21.348 15.3121 25.1364 15.3121 25.1364L19.8752 21.8437C19.8752 21.8437 20.7855 14.6853 20.3845 13.9514C19.9835 13.2176 19.1757 13.2369 15.8975 12.3508C12.871 11.5394 14.8408 12.0739 14.8408 12.0739L8.50977 11.8496Z" fill="#5E5046"/>
<path d="M16.878 13.0985L14.5042 18.9637L9.11858 11.5837L13.8661 14.6299L16.878 13.0985Z" fill="#F6F2E1"/>
<path d="M15.8975 12.3508C15.8975 12.3508 14.4545 14.2892 14.0798 14.8597C14.0798 14.8597 11.1528 13.0292 10.5674 11.2874L11.3753 8.93355L15.8975 12.3508Z" fill="#E7BC94"/>
<path d="M14.0798 14.8708L12.7451 16.8785L8.50682 11.8496L10.3772 11.0188L14.0798 14.8708Z" fill="#F6F2E1"/>
<path d="M11.4075 8.56247L16.6087 11.5671C16.6087 11.5671 15.5169 12.7523 15.3004 13.0985C14.1296 12.7052 12.4143 11.3539 12.1129 11.0465C11.7409 10.5949 11.4601 10.0824 11.2845 9.53447L11.4075 8.56247Z" fill="#E7BC94"/>
<g opacity="0.3">
<g opacity="0.3">
<path opacity="0.3" d="M11.4075 8.56247L16.6087 11.5671C16.6087 11.5671 15.5169 12.7523 15.3004 13.0985C14.1296 12.7052 12.4143 11.3539 12.1129 11.0465C11.7409 10.5949 11.4601 10.0824 11.2845 9.53447L11.4075 8.56247Z" fill="#E7BC94"/>
</g>
</g>
<path d="M16.9629 3.40616C17.8146 4.27016 17.8761 5.46924 18.002 5.99816C18.1278 6.52708 18.6869 7.6597 18.5434 8.67047C18.4 9.68124 17.9024 11.7166 16.8282 12.0185C15.754 12.3203 13.6086 11.5228 13.0817 11.3954C12.5548 11.268 11.6182 10.4954 11.3255 9.60094C11.1399 9.5305 10.9686 9.43025 10.8191 9.30463C10.381 8.94559 10.0082 8.52085 9.71566 8.04739C9.54005 7.69293 9.48736 7.23601 10.0084 7.27478C10.5294 7.31355 11.0123 7.93662 11.0123 7.93662C11.0123 7.93662 11.1031 5.25877 12.5314 4.356C13.9598 3.45323 16.3687 2.80246 16.9629 3.40616Z" fill="#E7BC94"/>
<path d="M17.1649 3.72463C17.3368 3.38728 17.3974 3.00881 17.339 2.63841C17.2805 2.26801 17.1056 1.92282 16.837 1.6477C15.8565 0.634164 14.0564 0.40155 12.5812 0.714473C10.6289 1.12986 8.64734 3.21232 8.67661 4.68556C8.7088 6.19756 9.19175 6.41356 9.74203 7.37725C9.74203 7.37725 10.3772 6.88156 11.3636 8.40464H11.7265C11.7265 8.40464 11.6182 5.26986 13.8486 4.10125C16.0789 2.93263 16.8253 3.28709 17.1649 3.72463Z" fill="#4A3E36"/>
<path d="M17.1648 3.72462C17.1648 3.72462 18.3005 2.47015 17.2995 0.567688C17.2995 0.567688 16.4448 1.13815 14.5979 0.531688C12.751 -0.0747741 10.4474 1.87754 10.4474 1.87754L11.9109 4.44462C11.9109 4.44462 15.716 2.37046 16.2546 2.71108C16.6352 2.97937 16.9464 3.32593 17.1648 3.72462V3.72462Z" fill="#4A3E36"/>
<path d="M14.0798 14.868L15.7979 16.6791L17.7268 12.8271L15.9999 12.2234C15.9999 12.2234 14.6593 13.9736 14.0798 14.868Z" fill="#F6F2E1"/>
<path d="M14.0798 14.8708L12.7451 16.8785L8.50682 11.8496L10.3772 11.0188L14.0798 14.8708Z" fill="#F5EAE0"/>
<path d="M14.0798 14.868L15.7979 16.6791L17.7268 12.8271L15.9999 12.2234C15.9999 12.2234 14.6593 13.9736 14.0798 14.868Z" fill="#F5EAE0"/>
<path d="M28.7177 24.3C30.2455 23.9899 38.084 22.0182 38.084 22.0182C38.3707 21.5333 38.5028 20.9803 38.4645 20.4259C36.8752 20.7914 28.9342 22.5942 28.3898 22.4613C27.7839 22.309 20.3318 17.5708 20.3318 17.5708V20.3013C22.0441 20.7665 26.9351 24.66 28.7177 24.3Z" fill="#4A3E36"/>
<g opacity="0.5">
<g opacity="0.5">
<path opacity="0.5" d="M57.6345 15.0489L47.3159 16.6931L47.3908 17.1136L57.7094 15.4694L57.6345 15.0489Z" fill="#755640"/>
</g>
<g opacity="0.5">
<path opacity="0.5" d="M56.8273 14.2384L47.1494 15.7805L47.2243 16.201L56.9021 14.6589L56.8273 14.2384Z" fill="#755640"/>
</g>
<g opacity="0.5">
<path opacity="0.5" d="M57.3071 13.226L46.9884 14.8702L47.0633 15.2907L57.3819 13.6466L57.3071 13.226Z" fill="#755640"/>
</g>
<g opacity="0.5">
<path opacity="0.5" d="M57.1446 12.3101L47.4003 13.8628L47.4752 14.2833L57.2194 12.7307L57.1446 12.3101Z" fill="#755640"/>
</g>
<g opacity="0.5">
<path opacity="0.5" d="M55.8095 11.5817L46.6684 13.0382L46.7433 13.4588L55.8843 12.0022L55.8095 11.5817Z" fill="#755640"/>
</g>
</g>
<g opacity="0.5">
<g opacity="0.5">
<path opacity="0.5" d="M65.9288 34.0977L57.2908 35.501L57.3674 35.9232L66.0055 34.5199L65.9288 34.0977Z" fill="#755640"/>
</g>
<g opacity="0.5">
<path opacity="0.5" d="M65.8429 33.1804L58.2778 34.3858L58.3526 34.8064L65.9177 33.6009L65.8429 33.1804Z" fill="#755640"/>
</g>
<g opacity="0.5">
<path opacity="0.5" d="M64.4257 32.4705L56.4652 33.7389L56.5401 34.1594L64.5006 32.891L64.4257 32.4705Z" fill="#755640"/>
</g>
<g opacity="0.5">
<path opacity="0.5" d="M65.5209 31.3557L56.3048 32.8242L56.3797 33.2448L65.5957 31.7762L65.5209 31.3557Z" fill="#755640"/>
</g>
</g>
<path d="M70.9247 83.93C70.8662 84.7109 70.8925 85.345 70.7286 85.6247C70.5647 85.9044 67.5089 85.9986 66.9235 85.6247C66.3381 85.2509 66.3557 84.6167 65.4162 84.3121C64.4766 84.0075 63.9351 84.1958 63.1829 83.1407C62.4306 82.0857 62.5975 81.4792 63.3819 81.2023C64.1663 80.9253 65.9635 81.3324 66.2064 81.5207C66.4494 81.709 70.9247 83.93 70.9247 83.93Z" fill="#5874CB"/>
<path d="M61.2276 84.5115C61.1662 85.2924 61.1954 85.9238 61.0345 86.2063C60.8735 86.4887 57.8148 86.5829 57.2118 86.2063C56.6089 85.8297 56.6469 85.1983 55.7044 84.8937C54.7619 84.589 54.2263 84.7773 53.4711 83.7223C52.716 82.6672 53.0145 82.1023 53.7931 81.8226C54.5717 81.5429 56.3571 81.986 56.6001 82.1743C56.843 82.3626 61.2276 84.5115 61.2276 84.5115Z" fill="#5874CB"/>
<path d="M68.4426 46.9413C69.1451 49.4336 68.8788 54.5844 68.7939 56.7444C68.709 58.9044 69.1217 66.1266 69.3295 66.8687C70.1078 69.7578 70.7204 72.6845 71.1647 75.6361C71.516 77.7961 71.7004 83.3014 71.0857 83.8857C70.471 84.47 66.6952 84.0518 65.9928 82.8057C65.2903 81.5595 65.4688 74.9604 64.5937 71.8035C63.7185 68.6466 63.3497 67.7383 63.1741 65.9881C62.9985 64.2379 61.9126 56.8773 61.9126 56.8773C61.9126 56.8773 60.8032 65.1518 60.9788 66.9795C61.1545 68.8072 61.7604 70.9783 61.7604 74.8829C61.7604 78.7875 61.6023 84.218 61.6023 84.553C61.6023 84.8881 60.3847 85.5832 58.4938 85.0044C56.603 84.4257 56.2459 83.9687 56.2459 83.5534C56.2459 83.138 56.2284 73.5536 55.7893 71.3936C55.3503 69.2336 55.0078 67.9847 55.0078 65.9853C55.0078 63.9859 54.2761 50.4167 54.2819 47.8828C54.2907 45.7838 68.4426 46.9413 68.4426 46.9413Z" fill="#5E5046"/>
<path d="M71.0857 83.8857C71.7004 83.3014 71.5131 77.7933 71.1618 75.6361C70.7199 72.6843 70.1082 69.7575 69.3295 66.8687C69.1217 66.1266 68.7061 58.9044 68.791 56.7444C68.8758 54.5844 69.1422 49.4336 68.4397 46.9413H68.3314L58.5641 49.7798C59.0383 51.8955 58.2451 65.6226 58.5641 68.8515C58.8422 71.6623 59.9105 81.5097 59.8373 85.2343C60.9379 85.2343 61.5935 84.8078 61.5935 84.5641C61.5935 84.229 61.7516 78.7986 61.7516 74.894C61.7516 70.9893 61.1428 68.8183 60.9701 66.9906C60.7974 65.1629 61.9009 56.8856 61.9009 56.8856C63.1491 57.3141 64.4586 57.5615 65.785 57.6195C65.785 57.6195 66.5548 66.4284 67.2484 67.8933C67.9421 69.3583 70.4945 81.3241 69.7657 84.1487C70.395 84.1487 70.8955 84.074 71.0857 83.8857Z" fill="#4A3E36"/>
<path d="M51.2905 38.1933C52.7335 37.5619 55.681 35.4988 55.681 35.4988L55.0312 30.9905L51.2905 38.1933Z" fill="#B0B35E"/>
<path d="M61.9096 56.8773C61.9096 56.8773 62.7877 52.3718 62.6033 49.6773L65.4542 49.2204L65.8347 58.0515L64.9859 60.5687L61.9096 56.8773Z" fill="#5E5046"/>
<path d="M64.8425 21.6886C65.6327 22.4363 68.3958 22.309 69.189 24.6794C69.9822 27.0499 69.5812 30.1625 68.5275 33.0259C67.4738 35.8893 67.2104 39.5059 68.0007 42.3721C68.791 45.2382 69.1861 47.6059 69.0544 47.9798C68.9227 48.3536 64.8395 50.7213 59.688 49.9736C54.5366 49.2259 53.6555 47.1075 53.6555 47.1075C53.6555 47.1075 54.5775 41.5025 54.9727 39.6305C55.3678 37.7585 55.1044 33.1505 55.1044 33.1505C55.1044 33.1505 52.3003 37.465 51.2993 38.1933C50.0085 39.1321 47.9479 38.0548 47.6406 37.0164C47.3333 35.9779 47.7284 34.7317 48.4309 33.7348C49.1333 32.7379 50.8222 29.9742 51.5452 28.105C52.2681 26.2357 52.5989 24.1173 54.9054 23.6188C57.2118 23.1203 58.4177 22.4363 58.5729 22.0625C58.728 21.6886 59.451 20.8773 61.9535 20.8773C64.4561 20.8773 64.8425 21.6886 64.8425 21.6886Z" fill="#C8C762"/>
<g opacity="0.5">
<path opacity="0.5" d="M69.189 24.6794C68.3987 22.3117 65.6327 22.4363 64.8425 21.6886C64.8425 21.6886 64.4444 20.8773 61.9447 20.8773C61.3598 20.8697 60.776 20.9292 60.2061 21.0545C58.7836 22.1622 57.5396 23.2173 57.5396 23.2173C60.291 25.056 65.4425 25.5794 65.7937 25.4327L66.1479 25.2942C65.7937 25.4354 64.5146 34.9588 64.9771 37.2157C65.4396 39.4727 66.0542 46.5591 65.3635 46.9275C64.7254 47.2681 58.8978 48.0352 53.8633 45.7505C53.7258 46.5564 53.635 47.1019 53.635 47.1019C53.635 47.1019 54.56 49.2204 59.6939 49.9681C64.8278 50.7158 68.9139 48.3481 69.0602 47.9742C69.2066 47.6004 68.7968 45.2327 68.0065 42.3665C67.2162 39.5004 67.4797 35.8865 68.5334 33.0204C69.5871 30.1542 69.9764 27.0444 69.189 24.6794ZM66.2211 25.272H66.2533H66.2211Z" fill="#B0B35E"/>
</g>
<path d="M60.3876 9.87786C63.0804 9.60094 65.3927 10.9856 66.1567 14.2228C66.9206 17.46 66.8621 20.1268 67.6202 21.744C67.6202 21.744 66.2064 23.9594 61.6725 23.8597C57.1386 23.76 55.6693 22.2425 55.6693 22.2425C55.6693 22.2425 56.1991 18.2825 56.1405 16.7566C56.082 15.2308 55.3239 10.3791 60.3876 9.87786Z" fill="#DF803F"/>
<path d="M67.6289 21.744C66.8621 20.1268 66.9235 17.4545 66.1655 14.2228C65.7937 12.6499 65.0473 11.5228 64.0756 10.8056C67.7811 14.8957 60.1476 20.9797 56.1727 16.7566C56.2313 18.2853 55.7015 22.2453 55.7015 22.2453C55.7015 22.2453 57.165 23.749 61.7047 23.8597C66.2445 23.9705 67.6289 21.744 67.6289 21.744Z" fill="#D47637"/>
</svg>
