<svg width="113" height="129" viewBox="0 0 113 129" fill="none" xmlns="http://www.w3.org/2000/svg">
<path d="M15.7383 91.764V48.0083L53.6075 26.1278L91.4692 48.0083V91.764L53.6075 113.645L15.7383 91.764Z" stroke="#79C3D0" stroke-linejoin="round"/>
<path d="M15.7756 91.6716V91.7436L15.8378 91.7794L53.5454 113.565L53.6075 113.601L53.6696 113.565L91.3698 91.7794L91.4319 91.7436V91.6716V48.1007V48.0288L91.3698 47.9929L53.6696 26.2074L53.6075 26.1715L53.5454 26.2074L15.8378 47.9929L15.7756 48.0288V48.1007V91.6716ZM15.7383 91.764V48.0083L53.6075 26.1278L91.4692 48.0083V91.764L53.6075 113.645L15.7383 91.764Z" stroke="#79C3D0" stroke-linejoin="round"/>
<path d="M21.2043 88.7307V51.3311L53.6078 32.631L85.9939 51.3311V88.7307L53.6078 107.431L21.2043 88.7307Z" stroke="#79C3D0" stroke-linejoin="round"/>
<path d="M21.2416 88.6383V88.7103L21.3038 88.7461L53.5457 107.354L53.6078 107.389L53.67 107.354L85.8945 88.7461L85.9567 88.7103V88.6383V51.4235V51.3515L85.8945 51.3156L53.67 32.7107L53.6078 32.6748L53.5457 32.7106L21.3038 51.3156L21.2416 51.3515V51.4235V88.6383ZM21.2043 88.7307V51.3311L53.6078 32.631L85.9939 51.3311V88.7307L53.6078 107.431L21.2043 88.7307Z" stroke="#79C3D0" stroke-linejoin="round"/>
<path d="M26.4458 85.7942V54.4891L53.6074 38.845L80.7516 54.4891V85.7942L53.6074 101.448L26.4458 85.7942Z" stroke="#79C3D0" stroke-linejoin="round"/>
<path d="M26.4831 85.7018V85.7738L26.5455 85.8096L53.5455 101.369L53.6074 101.404L53.6693 101.369L80.6619 85.8096L80.7243 85.7738V85.7018V54.584V54.512L80.6619 54.4762L53.6693 38.9147L53.6074 38.879L53.5455 38.9147L26.5455 54.4762L26.4831 54.512V54.584V85.7018ZM26.4458 85.7942V54.4891L53.6074 38.845L80.7516 54.4891V85.7942L53.6074 101.448L26.4458 85.7942Z" stroke="#79C3D0" stroke-linejoin="round"/>
<path d="M31.7209 82.5188L31.7134 57.3362L53.6083 44.7479L75.4931 57.3362V82.5191L53.6083 95.1072L31.7209 82.5188Z" stroke="#79C3D0" stroke-linejoin="round"/>
<path d="M31.7507 82.4242V82.4964L31.8131 82.5323L53.5464 95.0277L53.6083 95.0633L53.6701 95.0277L75.3935 82.5323L75.4558 82.4964V82.4242V57.4309V57.3589L75.3935 57.3228L53.6701 44.8199L53.6083 44.7843L53.5464 44.8199L31.8131 57.3228L31.7507 57.3589V57.4309V82.4242ZM31.7134 82.5164V57.3362L53.6083 44.7479L75.4931 57.3362V82.5166L53.6083 95.1072L31.7134 82.5164Z" stroke="#79C3D0" stroke-linejoin="round"/>
<path d="M37.2279 79.5308L37.218 60.4791L53.6074 50.9525L69.9893 60.4791V79.5308L53.6074 89.0574L37.2279 79.5308Z" stroke="#79C3D0" stroke-linejoin="round"/>
<path d="M37.2654 79.3136H37.2281V60.4791L53.6076 50.9525L69.9896 60.4791V79.5308L53.6076 89.0574L37.2281 79.5308V79.4939L37.3174 79.5457L53.5452 88.9777L53.6076 89.0141L53.67 88.9777L69.8904 79.5457L69.9523 79.5099V79.4381V60.5717V60.5L69.8904 60.4641L53.67 51.0322L53.6076 50.9958L53.5452 51.0322L37.3273 60.4641L37.2654 60.5V60.5717V79.3136Z" stroke="#79C3D0" stroke-linejoin="round"/>
<path d="M42.9224 76.0984L42.9125 63.6792L53.6076 57.4526L64.2853 63.6792V76.1109L53.6076 82.315L42.9224 76.0984Z" stroke="#79C3D0" stroke-linejoin="round"/>
<path d="M42.9575 63.7519V75.9542L42.9202 76.004V63.6792L53.6079 57.4526L64.2856 63.6792V76.1084L53.6079 82.315L42.9202 76.0884V76.06L43.0119 76.1136L53.5455 82.2355L53.6079 82.2716L53.6703 82.2353L64.1939 76.1133L64.2558 76.0775V76.0057V63.7619V63.6901L64.1939 63.6543L53.6703 57.5224L53.6079 57.486L53.5455 57.5224L43.0194 63.6443L42.9575 63.6802V63.7519Z" stroke="#79C3D0" stroke-linejoin="round"/>
<path d="M48.2633 73.0001V66.7676L53.6071 63.6618L58.951 66.7676V73.0001L53.6071 76.1084L48.2633 73.0001Z" stroke="#79C3D0" stroke-linejoin="round"/>
<path d="M48.2981 72.9025H48.3729L48.3155 72.9673L48.323 72.9773L48.3993 73.0794L48.2633 73.0002V66.7677L53.6071 63.6594L58.951 66.7677V73.0002L53.6071 76.1085L48.5467 73.1651V73.113L53.5448 76.0166L53.6071 76.0527L53.6695 76.0163L58.8518 73.0002L58.9137 72.9643V72.8926V66.8628V66.7911L58.8518 66.755L53.6695 63.7488L53.6071 63.7127L53.5448 63.749L48.36 66.7652L48.2981 66.801V66.8728V72.9025Z" stroke="#79C3D0" stroke-linejoin="round"/>
<path d="M53.5 45L15.5 48.5L26.5 85.5L53.5 69V45Z" fill="#79C3D0" fill-opacity="0.7" stroke="#79C3D0" stroke-miterlimit="10" stroke-linejoin="round"/>
<path d="M53.9821 19.2422H50.9L50.3141 21H48.4449L51.6207 12.4688H53.2496L56.443 21H54.5739L53.9821 19.2422ZM51.3746 17.8184H53.5074L52.4352 14.625L51.3746 17.8184Z" fill="#79C3D0"/>
<path d="M7.40625 46.5391L8.55469 40.4688H10.3066L8.41406 49H6.64453L5.25586 43.293L3.86719 49H2.09766L0.205078 40.4688H1.95703L3.11133 46.5273L4.51758 40.4688H6.00586L7.40625 46.5391Z" fill="#79C3D0"/>
<path d="M8.18555 100.145C8.18555 99.8129 8.06836 99.559 7.83398 99.3832C7.59961 99.2036 7.17773 99.0161 6.56836 98.8207C5.95898 98.6215 5.47656 98.4262 5.12109 98.2348C4.15234 97.7114 3.66797 97.0063 3.66797 96.1196C3.66797 95.6586 3.79688 95.2485 4.05469 94.8891C4.31641 94.5258 4.68945 94.2426 5.17383 94.0395C5.66211 93.8364 6.20898 93.7348 6.81445 93.7348C7.42383 93.7348 7.9668 93.8461 8.44336 94.0688C8.91992 94.2875 9.28906 94.5981 9.55078 95.0004C9.81641 95.4028 9.94922 95.8598 9.94922 96.3715H8.19141C8.19141 95.9809 8.06836 95.6782 7.82227 95.4633C7.57617 95.2446 7.23047 95.1352 6.78516 95.1352C6.35547 95.1352 6.02148 95.227 5.7832 95.4106C5.54492 95.5903 5.42578 95.8286 5.42578 96.1254C5.42578 96.4028 5.56445 96.6352 5.8418 96.8227C6.12305 97.0102 6.53516 97.186 7.07812 97.35C8.07812 97.6508 8.80664 98.0239 9.26367 98.4692C9.7207 98.9145 9.94922 99.4692 9.94922 100.133C9.94922 100.872 9.66992 101.452 9.11133 101.873C8.55273 102.291 7.80078 102.5 6.85547 102.5C6.19922 102.5 5.60156 102.381 5.0625 102.143C4.52344 101.901 4.11133 101.571 3.82617 101.153C3.54492 100.735 3.4043 100.25 3.4043 99.6996H5.16797C5.16797 100.641 5.73047 101.112 6.85547 101.112C7.27344 101.112 7.59961 101.028 7.83398 100.86C8.06836 100.688 8.18555 100.45 8.18555 100.145Z" fill="#79C3D0"/>
<path d="M55.048 125.484H53.6476V128.607H51.8898V120.076H55.0598C56.0676 120.076 56.8449 120.3 57.3918 120.749C57.9387 121.199 58.2121 121.833 58.2121 122.654C58.2121 123.236 58.0851 123.722 57.8312 124.113C57.5812 124.499 57.2004 124.808 56.6887 125.039L58.5344 128.525V128.607H56.6476L55.048 125.484ZM53.6476 124.06H55.0656C55.507 124.06 55.8488 123.949 56.091 123.726C56.3332 123.499 56.4543 123.189 56.4543 122.794C56.4543 122.392 56.3391 122.076 56.1086 121.845C55.882 121.615 55.5324 121.499 55.0598 121.499H53.6476V124.06Z" fill="#79C3D0"/>
<path d="M100.92 98.877H99.5195V102H97.7617V93.4688H100.932C101.939 93.4688 102.717 93.6934 103.264 94.1426C103.811 94.5918 104.084 95.2266 104.084 96.0469C104.084 96.6289 103.957 97.1152 103.703 97.5059C103.453 97.8926 103.072 98.2012 102.561 98.4316L104.406 101.918V102H102.52L100.92 98.877ZM99.5195 97.4531H100.938C101.379 97.4531 101.721 97.3418 101.963 97.1191C102.205 96.8926 102.326 96.582 102.326 96.1875C102.326 95.7852 102.211 95.4688 101.98 95.2383C101.754 95.0078 101.404 94.8926 100.932 94.8926H99.5195V97.4531ZM107.951 100.752C108.264 100.752 108.518 100.666 108.713 100.494C108.908 100.322 109.01 100.094 109.018 99.8086H110.605C110.602 100.238 110.484 100.633 110.254 100.992C110.023 101.348 109.707 101.625 109.305 101.824C108.906 102.02 108.465 102.117 107.98 102.117C107.074 102.117 106.359 101.83 105.836 101.256C105.312 100.678 105.051 99.8809 105.051 98.8652V98.7539C105.051 97.7773 105.311 96.998 105.83 96.416C106.35 95.834 107.062 95.543 107.969 95.543C108.762 95.543 109.396 95.7695 109.873 96.2227C110.354 96.6719 110.598 97.2715 110.605 98.0215H109.018C109.01 97.6934 108.908 97.4277 108.713 97.2246C108.518 97.0176 108.26 96.9141 107.939 96.9141C107.545 96.9141 107.246 97.0586 107.043 97.3477C106.844 97.6328 106.744 98.0977 106.744 98.7422V98.918C106.744 99.5703 106.844 100.039 107.043 100.324C107.242 100.609 107.545 100.752 107.951 100.752Z" fill="#79C3D0"/>
<path d="M100.979 50.8405H99.2214V42.3093H100.979V50.8405Z" fill="#79C3D0"/>
</svg>
