<svg width="100" height="82" viewBox="0 0 100 82" fill="none" xmlns="http://www.w3.org/2000/svg">
<path d="M14.5029 16.9676C13.0287 16.1155 3.20735 27.7885 2.64419 31.0701C2.28153 33.2254 4.59607 36.5542 6.49488 36.8196C8.03987 37.0348 10.8557 34.7203 10.8557 34.7203C10.8557 34.7203 10.5608 33.4819 12.1117 30.9374L15.0602 27.2401L14.5029 16.9676Z" fill="#7F8F25"/>
<path d="M0 50.8311L3.833 48.4723H44.4304L47.084 50.8311V51.7539H0.318434L0 50.8311Z" fill="#7B3804"/>
<path d="M3.91552 77.8181L2.33514 77.765L6.21532 51.5414L9.75347 51.621L3.91552 77.8181Z" fill="#7B3804"/>
<path d="M44.477 75.8189L46.081 75.6037L43.7075 49.7958L40.1221 50.2292L44.477 75.8189Z" fill="#7B3804"/>
<path d="M47.0781 50.831H0V52.9421H47.0781V50.831Z" fill="#A55016"/>
<path d="M15.8127 39.7124C11.0421 43.4245 12.0888 47.4462 11.6436 50.2325C11.1983 53.0188 19.3597 52.3525 19.3597 52.3525L25.3362 51.1052C26.9756 51.1052 30.5668 52.2257 32.8017 52.2257C35.0366 52.2257 40.3586 52.6208 39.9134 50.2974C39.4682 47.974 36.334 40.3905 34.099 39.7714C31.8641 39.1522 15.8127 39.7124 15.8127 39.7124Z" fill="#151823"/>
<path d="M21.4351 17.9762L17.7997 14.3083C17.7997 14.3083 19.6779 14.3083 20.6508 12.9078C21.0843 11.9083 21.27 12.094 21.2405 10.549L27.6564 10.0714C27.7773 13.7864 29.6319 13.9663 29.6319 13.9663L28.7178 18.8431L21.4351 17.9762Z" fill="#CC9483"/>
<path d="M19.8436 8.44113C19.9261 10.334 19.991 12.3272 20.9286 13.4152C21.4888 14.0697 23.3965 15.3907 23.9419 15.4791C25.1213 15.6472 26.572 14.5946 27.828 13.4948C28.8393 12.5955 28.2113 11.5842 28.7538 9.38463C29.5263 6.27401 28.6565 2.76534 24.7026 2.60317C18.6554 2.36435 19.6962 5.26858 19.8436 8.44113Z" fill="#D8A798"/>
<path d="M20.1943 6.86344C19.696 6.79267 18.3751 6.545 18.3161 7.22315C18.2571 7.9013 19.7255 10.6021 20.2533 10.5638C20.781 10.5254 20.1943 6.86344 20.1943 6.86344Z" fill="#D8A798"/>
<path d="M28.9594 7.22909C29.6876 6.93425 30.3275 7.14654 29.9147 8.08415C29.5019 9.02176 28.4994 10.7378 28.3196 10.4429C28.1397 10.1481 28.9594 7.22909 28.9594 7.22909Z" fill="#D8A798"/>
<path d="M25.9427 5.2269C28.5964 4.02098 29.3865 6.05247 28.4873 8.22254C28.9135 7.88578 29.2993 7.50091 29.6372 7.07559C29.6372 7.07559 29.6725 6.8633 30.0529 5.17678C30.3124 4.05341 28.1335 -0.38992 25.6007 0.933939C23.068 2.2578 25.9427 5.2269 25.9427 5.2269Z" fill="#CCD0D6"/>
<path d="M27.4763 5.05328C26.8866 5.68425 24.6252 6.843 23.8556 6.27394C22.5583 5.31569 20.8275 4.71126 20.5209 5.1152C19.7779 6.09998 20.2261 8.43222 20.2261 8.43222L19.5302 7.25283C19.4918 7.11059 19.4038 6.98672 19.2822 6.9035C19.1606 6.82027 19.0133 6.78313 18.8668 6.79877C18.684 6.8253 19.0614 6.37124 18.9818 4.03311C18.8963 1.48269 23.6492 -0.625458 25.1736 0.170627C26.2999 0.76032 27.3083 0.76032 27.3436 1.99278C27.379 3.22523 27.4763 5.05328 27.4763 5.05328Z" fill="#BFBFCB"/>
<path d="M25.7605 5.49548C24.2185 5.59278 25.1059 5.08565 23.16 4.77311C21.9806 4.58146 21.3024 5.69008 21.3024 5.69008C21.3024 5.69008 22.4818 3.70871 24.0563 4.5107C25.6308 5.31268 25.9522 4.72004 25.9522 4.72004C25.9522 4.72004 23.042 3.41682 21.8892 4.64338C22.2168 4.07562 22.7563 3.66108 23.3893 3.49081C24.0223 3.32054 24.6969 3.40846 25.2652 3.73525C25.56 3.71461 23.9443 2.96275 23.6789 3.11607C24.0917 2.52638 26.5654 2.02514 27.3409 3.24581C28.1163 4.46647 27.5915 4.67286 27.1787 4.91759C26.7206 5.1444 26.2466 5.33754 25.7605 5.49548Z" fill="#CCD0D6"/>
<path d="M33.6711 16.0039C30.3895 14.7124 29.1865 14.1287 29.1865 14.1287C29.1865 14.1287 29.446 15.2933 27.4558 16.7823C26.6378 17.4154 25.6331 17.7596 24.5987 17.7612C20.176 17.5076 19.9844 14.0225 19.9844 14.0225C19.9844 14.0225 18.9524 14.4913 14.7273 16.0068C13.1263 16.5965 14.1641 17.9027 14.0344 19.7337C13.9371 21.143 13.9164 26.8277 14.2997 28.3727C14.683 29.9177 14.8452 33.9747 14.6565 36.7669C14.5533 38.3208 34.9242 38.3119 34.9626 37.9139C35.6378 30.4336 35.7498 16.8147 33.6711 16.0039Z" fill="#7F8F25"/>
<path d="M38.4972 69.5627C38.0667 71.5735 36.7989 70.2909 33.7796 70.0049C30.7604 69.7189 28.9058 69.6098 29.0474 67.1685C29.1889 64.7272 32.2022 62.1119 34.4961 62.8313C36.79 63.5507 38.4972 69.5627 38.4972 69.5627Z" fill="#151823"/>
<path d="M23.7463 77.7772C23.4073 77.9512 23.4515 79.8883 23.9321 80.3925C24.6544 81.162 27.7474 81.8844 30.5484 80.3306C33.0163 78.9595 32.6949 79.1188 35.2011 78.588C35.7908 78.4613 36.5721 75.6071 35.5431 75.1973C34.8797 74.929 24.2682 77.5207 23.7463 77.7772Z" fill="#151823"/>
<path d="M31.5387 62.1266C31.9161 64.9513 31.1672 68.8256 30.1117 71.7888C29.6311 73.1362 28.6699 74.2537 28.4605 75.0674C27.7765 77.668 29.4896 77.951 29.4896 77.951C29.4896 77.951 35.1801 77.0665 35.4042 76.4562C36.2121 74.2773 34.9707 74.1593 35.0297 73.4075C35.2509 70.5062 35.9143 65.7061 35.9143 64.7537C35.8995 63.2471 31.5387 62.1266 31.5387 62.1266Z" fill="#7D88A0"/>
<path d="M29.3188 72.3196C28.2279 73.6877 28.4343 73.6022 27.42 74.4248C27.42 74.4248 24.3743 76.6273 23.9674 77.3113C23.5605 77.9954 23.1742 79.9649 26.2996 80.018C27.8417 80.0504 29.997 79.2603 31.9489 78.3374C33.4378 77.6327 34.8236 77.0548 35.543 76.7983C35.9263 76.6597 33.8035 77.5973 32.742 75.8164C32.742 75.8164 34.915 73.9619 32.0403 72.2783C30.8815 71.5677 29.3188 72.3196 29.3188 72.3196Z" fill="#441800"/>
<path d="M32.0614 39.1584C29.9091 40.1667 28.8358 41.9594 28.8358 42.9619C28.8358 43.9643 29.2309 45.9103 29.3695 47.2077C29.5081 48.505 29.1926 66.2754 29.0511 67.7083C29.4108 65.1962 31.7047 65.4115 31.7047 65.4115C31.7047 65.4115 34.7888 45.757 33.9249 43.0326C33.061 40.3083 32.0614 39.1584 32.0614 39.1584Z" fill="#282A35"/>
<path d="M31.8489 39.8864C30.413 38.3797 38.303 38.023 39.8097 44.4801C40.7827 48.6522 39.3792 65.7798 38.306 70.0875C35.9472 65.7798 31.7073 65.423 30.413 66.1424C31.2002 55.9437 33.7831 41.909 31.8489 39.8864Z" fill="#151823"/>
<path d="M12.8283 69.7162C13.2706 71.7241 14.506 70.527 17.6019 70.241C20.6978 69.955 22.6143 69.8459 22.4639 67.4105C22.3135 64.9751 19.2206 62.3509 16.8618 63.0674C14.503 63.7839 12.8283 69.7162 12.8283 69.7162Z" fill="#151823"/>
<path d="M24.03 77.1997C24.7553 77.9692 24.2776 80.3015 23.6614 80.6052C23.0452 80.9089 20.6805 81.6224 18.0122 80.6995C15.3438 79.7767 16.0986 79.0631 13.6248 78.1314C13.0351 77.9132 12.5634 75.5397 13.5305 75.006C15.7241 73.7942 24.03 77.1997 24.03 77.1997Z" fill="#151823"/>
<path d="M18.867 61.4103C18.4985 64.1672 19.1059 68.1771 19.7516 71.3054C20.07 72.8386 22.187 76.1114 22.4052 76.9694C22.8652 78.7237 19.5422 80.9822 15.5589 77.0932C15.2375 76.7807 14.3235 76.8426 14.0021 76.4092C13.6483 75.9315 14.3677 73.2661 14.3146 72.5526C14.0905 69.6513 13.8488 66.066 13.8488 65.0369C13.8576 63.5303 18.867 61.4103 18.867 61.4103Z" fill="#7D88A0"/>
<path d="M20.4594 72.5351C21.5503 73.9032 21.0756 73.6113 21.7921 74.5401C21.7921 74.5401 23.3902 76.0939 23.803 76.7779C24.2157 77.462 25.8079 80.4694 20.5803 80.0478C18.935 79.9151 18.2215 79.2812 16.4259 78.0841C15.6001 77.5055 14.686 77.0644 13.7192 76.7779C13.33 76.6423 15.5974 77.8129 16.6677 76.032C16.6677 76.032 14.3679 74.1391 17.2397 72.4467C18.3925 71.7597 20.4594 72.5351 20.4594 72.5351Z" fill="#441800"/>
<path d="M18.9282 39.6856C21.0422 40.0542 22.54 42.2921 22.54 43.2916C22.54 44.2911 22.2157 46.0632 22.0683 47.3546C21.9209 48.646 22.254 66.4164 22.3985 67.8493C22.0329 65.3402 19.6741 65.5554 19.6741 65.5554C19.6741 65.5554 16.5045 45.9039 17.392 43.1766C18.2795 40.4493 18.9282 39.6856 18.9282 39.6856Z" fill="#282A35"/>
<path d="M19.3647 40.429C20.8389 38.9223 12.9459 38.8899 11.4039 45.344C10.4014 49.5191 11.7989 65.9155 12.9046 70.2202C15.3371 65.9155 19.6861 65.5587 21.007 66.2752C19.4296 56.6101 17.3774 42.4605 19.3647 40.429Z" fill="#151823"/>
<path d="M14.7658 21.2549C14.7422 22.5758 14.9604 26.4265 14.4946 27.5145C14.0287 28.6025 11.9176 31.2414 11.5697 31.1087C11.2218 30.976 8.23793 30.6104 6.87869 31.2384C5.51944 31.8664 8.35292 29.7878 9.65614 30.0059C8.21729 29.9411 7.56273 30.0561 7.27378 29.9883C6.80792 29.8851 8.47086 29.6344 9.37898 29.5077C10.2871 29.3809 11.2513 28.0098 12.7904 24.9257C14.3294 21.8417 14.7658 21.2549 14.7658 21.2549Z" fill="#91A842"/>
<path d="M32.5451 16.151C34.9953 14.8685 37.8052 21.7531 42.6288 26.5532C45.2235 29.142 44.7164 31.5951 42.5876 34.3814C42.0539 35.0861 37.1624 33.9568 37.1624 33.9568L35.868 29.5105L32.8252 25.763L32.5451 16.151Z" fill="#7F8F25"/>
<path d="M32.9579 16.1451C35.8474 15.8503 37.7256 20.5678 38.616 21.3904C39.5065 22.2131 41.1222 25.3768 42.0451 26.0195C42.8766 26.6092 43.593 27.3227 43.2245 27.3021C42.8559 27.2815 40.332 25.5743 39.0229 26.5856C37.5752 27.7031 36.959 27.8446 37.9969 26.963C38.6246 26.4371 39.2975 25.9675 40.0077 25.5596C40.0077 25.5596 36.6376 26.6181 37.1742 26.2053C37.8111 25.7335 38.2593 24.6809 38.0588 24.4539C37.8583 24.2269 33.7393 18.3063 33.011 18.4862C32.2827 18.6661 32.9579 16.1451 32.9579 16.1451Z" fill="#91A842"/>
<path d="M17.0238 15.5378C16.5963 16.8292 19.2499 26.3734 19.2499 26.3734L16.2395 25.2795C16.2395 25.2795 15.355 17.4218 15.6498 16.1393C15.9447 14.8567 17.0238 15.5378 17.0238 15.5378Z" fill="#2543BF"/>
<path d="M16.1633 24.1472C18.0297 25.4387 28.0043 28.0215 32.2383 23.5752C35.1868 33.6 34.9362 32.745 35.3932 35.1981C35.7322 37.0261 38.3416 37.9962 38.6925 39.1431C38.6925 39.1431 41.641 43.1973 41.3137 52.1164C40.9864 61.0355 42.2808 61.9112 42.2808 61.9112C42.2808 61.9112 29.2574 58.8978 27.108 59.974C26.4239 60.316 24.1271 61.0502 21.5472 61.5868C20.8572 61.7313 20.244 61.5102 19.501 61.5868C18.3039 61.7136 17.4636 61.6369 16.2576 61.7313C15.8213 61.7667 15.3731 62.1706 14.9662 62.1972C11.3514 62.4448 10.4285 61.3391 10.5435 60.9411C11.0831 59.2221 9.11058 45.2287 10.0777 43.4007C11.0448 41.5727 12.9111 38.9161 13.3416 37.6247C13.7721 36.3332 13.5244 36.2979 13.5244 36.2979C13.5244 36.2979 15.8832 28.9798 15.9982 27.1576C16.1132 25.3355 16.1633 24.1472 16.1633 24.1472Z" fill="#2543BF"/>
<path d="M12.3632 43.0882C12.3632 43.0882 17.8503 40.6115 22.6828 42.4425C27.5154 44.2734 29.14 42.3363 32.4747 41.7967C35.8094 41.2572 37.8556 42.1211 38.5013 42.7668C39.147 43.4125 36.9976 40.6144 35.3819 39.4291C33.7661 38.2438 29.0309 40.3992 25.8023 40.0748C22.5737 39.7505 19.7786 38.3529 15.1466 39.9687C13.976 40.3785 12.3632 43.0882 12.3632 43.0882Z" fill="#10228C"/>
<path d="M30.3926 14.9454C30.823 15.1076 32.0054 16.0776 32.0054 16.0776C32.0054 16.0776 32.5449 23.8262 31.7371 25.6012C30.9292 27.3761 29.9061 25.7633 29.9061 25.7633C30.3372 22.7667 30.6069 19.749 30.7139 16.7233C30.7109 16.1165 30.6022 15.5149 30.3926 14.9454Z" fill="#2543BF"/>
<path d="M16.3996 23.9884C16.2905 26.1408 16.9273 34.5557 17.7116 34.8977C18.4959 35.2397 19.6104 36.599 21.5446 37.3508C23.4788 38.1027 24.7467 36.8466 24.4135 37.7105C24.2336 38.1764 22.3702 39.4324 19.7874 39.002C17.2045 38.5715 16.3436 38.8575 15.2644 39.8275C14.1853 40.7976 14.4094 41.3607 13.8816 42.5401C13.3538 43.7195 13.5602 56.6367 14.3121 59.4348L15.0639 62.2358C15.0639 62.2358 12.3749 62.4481 11.8383 62.1268C11.3017 61.8054 9.79207 62.2359 9.14636 62.4511C8.50065 62.6663 8.07312 61.5901 8.07312 61.5901C8.07312 61.5901 9.3616 43.7225 10.0073 41.4639C10.653 39.2054 13.5602 37.8757 13.6664 36.4781C13.7725 35.0805 13.6664 33.6092 14.3121 32.8544C14.9578 32.0996 16.3996 23.9884 16.3996 23.9884Z" fill="#10228C"/>
<path d="M19.3247 47.1779C19.537 49.7637 19.251 61.6018 19.251 61.6018C19.251 61.6018 20.8284 62.0323 21.4741 61.6726C22.1198 61.3128 19.3247 47.1779 19.3247 47.1779Z" fill="#10228C"/>
<path d="M31.8439 44.9193C32.5958 45.7803 32.2744 60.0921 32.2744 60.0921C32.2744 60.0921 29.8036 59.3461 28.6242 59.5555C27.4448 59.7648 31.098 48.7936 30.6675 46.3198C30.237 43.8461 31.8439 44.9193 31.8439 44.9193Z" fill="#10228C"/>
<path d="M33.191 33.9008C32.8312 33.6855 30.8322 33.4673 30.4223 33.2639C29.9022 32.9833 29.4711 32.5624 29.1781 32.0491C29.0543 31.8014 28.5383 32.7066 28.9216 33.2786C29.216 33.656 29.5404 34.009 29.8916 34.3342C29.8916 34.3342 28.8538 35.2629 28.3555 35.4693C27.7928 35.722 27.2112 35.9301 26.6159 36.0915C26.2768 36.1858 26.5333 36.746 27.8778 36.4187C28.2761 36.3328 28.6637 36.2033 29.0336 36.0325C29.0926 36.006 28.7683 36.3273 28.0842 36.4983C27.4002 36.6694 26.3328 36.7077 26.2857 36.9966C26.209 37.4684 27.4827 37.5126 28.1963 37.4094C28.9098 37.3062 29.5083 37.2325 29.5083 37.2325C29.5083 37.2325 28.6238 37.4271 28.0341 37.5126C27.4444 37.5981 26.6188 37.548 26.8134 37.9814C27.008 38.4148 27.9545 38.35 28.4764 38.2763C28.9982 38.2026 29.9683 38.0964 29.9683 38.0964C29.5328 38.2536 29.0876 38.3826 28.6356 38.4827C28.2523 38.5416 27.0935 38.3293 27.409 38.6832C27.7245 39.037 28.7918 39.0989 29.6027 38.919C30.6405 38.6832 33.6627 37.8753 34.2996 37.2561C34.2996 37.2561 41.6383 36.9436 43.0034 34.1927C42.5317 29.9646 40.8511 30.5071 38.8549 31.3208C36.8588 32.1346 33.191 33.9008 33.191 33.9008Z" fill="#D8A798"/>
<path d="M23.4666 34.6827L23.9118 35.1132C23.9118 35.1132 23.3398 37.1388 22.5614 37.8936C21.9717 38.4567 19.7073 39.8012 19.3564 41.3905C19.1559 42.3074 19.321 42.8264 19.61 42.505C19.8989 42.1836 25.7782 35.9741 25.1324 34.1078C25.0381 33.8365 23.7526 33.8394 23.7526 33.8394L23.4666 34.6827Z" fill="#282A35"/>
<path d="M20.6183 43.0886C22.8444 40.945 24.6282 40.7622 24.6282 40.7622L26.6922 40.1519C26.889 38.8305 27.2413 37.537 27.7418 36.2983C28.1723 35.3282 29.5345 34.9331 29.903 34.9007C30.3836 34.8535 29.6347 33.1758 27.9541 32.2795C26.2735 31.3832 25.0056 33.164 24.587 34.9656C24.1683 36.7671 23.7879 37.9877 22.0719 38.9165C21.4327 39.2499 20.8876 39.7387 20.4867 40.3379C20.0859 40.9371 19.8422 41.6275 19.778 42.3456C19.6984 43.3038 20.6183 43.0886 20.6183 43.0886Z" fill="#AF6A3C"/>
<path d="M24.855 40.6118C25.9843 40.482 26.9543 40.9597 27.491 40.2756C28.0276 39.5916 27.3671 39.5916 27.1254 39.285C26.9408 39.1071 26.7097 38.985 26.4588 38.9329C26.2079 38.8807 25.9473 38.9005 25.7071 38.9901C25.2089 39.1877 24.855 40.6118 24.855 40.6118Z" fill="#AF6A3C"/>
<path d="M19.8185 42.3633C19.8952 41.4051 20.6205 39.7716 22.3365 38.8429C24.0525 37.9141 24.2383 36.9205 24.881 35.1868C25.1426 34.5166 25.5367 33.9061 26.0398 33.3919C26.5429 32.8776 27.1446 32.4702 27.8089 32.1941C27.514 32.0408 26.4231 31.2388 26.4231 31.2388C26.4231 31.2388 23.7695 33.3646 23.681 33.9838C24.1174 34.3877 24.3651 34.6737 24.3651 34.6737C24.3651 34.6737 23.6073 37.3834 22.8908 37.917C22.1744 38.4507 18.8367 40.8655 19.4529 42.6051C19.7301 43.3805 20.4466 43.0533 20.6677 43.1181C20.6618 43.1063 19.7448 43.3245 19.8185 42.3633Z" fill="#151823"/>
<path d="M14.8923 31.3653C14.3026 31.3653 11.0593 31.0941 8.70053 30.0208C7.75997 29.5903 4.54025 31.8842 5.83168 34.0366C7.12311 36.189 8.37915 35.8853 9.56148 35.617C10.7438 35.3487 13.2205 34.9683 13.7571 35.0273C14.2938 35.0863 14.8923 31.3653 14.8923 31.3653Z" fill="#DDAC9E"/>
<path d="M16.7497 31.0412C17.1301 31.0117 19.1468 32.2029 19.368 32.3149C19.5891 32.427 19.763 32.5331 19.1527 32.7277C18.5424 32.9223 16.4608 32.1056 16.393 31.793C16.3251 31.4805 16.7497 31.0412 16.7497 31.0412Z" fill="#D8A798"/>
<path d="M23.2012 30.2981C23.1491 30.0019 22.9857 29.7368 22.7446 29.557C22.5034 29.3772 22.2027 29.2964 21.9039 29.331C21.6899 29.3901 21.4955 29.5051 21.3407 29.6642C21.2139 29.7792 20.9987 30.0239 20.9132 30.0121C20.8775 30.0039 20.8439 29.9884 20.8144 29.9666C20.785 29.9448 20.7604 29.9171 20.7422 29.8853C20.9793 29.6286 21.2345 29.3891 21.5058 29.1688C21.7725 29.0728 22.0632 29.0657 22.3342 29.1486C22.6053 29.2315 22.8422 29.4 23.0096 29.6288C23.1388 29.8083 23.2384 30.0074 23.3044 30.2185L23.2012 30.2981Z" fill="#7D88A0"/>
<path d="M19.681 28.9772C19.6473 28.9509 19.6184 28.919 19.5955 28.8829C19.5748 28.8239 19.619 28.7944 19.7901 28.6087C19.9611 28.4229 20.3208 27.9246 20.3208 27.9246C20.4711 27.73 20.3797 27.5649 20.2412 27.4293C19.969 27.1934 19.6224 27.0608 19.2623 27.0549C18.6634 27.0567 18.0657 27.109 17.4755 27.2111C17.4165 27.2111 17.104 27.1934 17.104 27.1934L17.0863 27.1227C17.0863 27.0784 17.1453 27.0961 17.1718 27.0784C17.1984 27.0607 17.045 27.0784 17.0922 26.9635C17.0922 26.9222 17.163 26.987 17.4077 26.9635C17.5728 26.9635 17.7763 26.8838 18.1802 26.8603C19.5394 26.7924 20.0407 26.9074 20.3797 27.2023C20.7188 27.4971 20.6746 27.6681 19.9876 28.5114C19.8994 28.6032 19.8185 28.7018 19.7458 28.8062C19.7075 28.8682 19.7163 28.8917 19.7458 28.9065C19.7753 28.9212 19.681 28.9772 19.681 28.9772Z" fill="#7D88A0"/>
<path d="M10.695 38.4919C10.7776 38.4448 11.4292 37.9701 11.4292 37.9701C11.783 37.7224 12.1044 37.2831 13.1452 36.0329C14.2745 34.6737 16.1792 32.8132 17.2996 31.6102C18.9212 29.8883 18.9684 29.6701 19.1424 29.4608C19.328 29.2341 19.5455 29.0355 19.7881 28.8711H19.8087L20.8908 29.8294V29.8529C20.7552 30.112 20.5846 30.3511 20.3837 30.5635C20.1979 30.7581 19.9591 30.8082 18.4613 32.6275C17.4264 33.8864 15.8313 36.0211 14.6283 37.3155C13.5226 38.5126 13.1246 38.89 12.93 39.2703C12.93 39.2703 12.5437 39.978 12.5083 40.0664C12.4684 40.1649 12.3911 40.2437 12.2934 40.2857C12.1957 40.3276 12.0854 40.3293 11.9865 40.2905C11.9394 40.2711 11.8965 40.2431 11.8597 40.2079L10.639 39.1494C10.5983 39.1166 10.5645 39.076 10.5395 39.03C10.5146 38.984 10.4989 38.9336 10.4934 38.8816C10.4879 38.8295 10.4928 38.7769 10.5076 38.7268C10.5225 38.6766 10.5471 38.6299 10.58 38.5892C10.6121 38.55 10.6511 38.517 10.695 38.4919Z" fill="#FF8C03"/>
<path d="M11.964 37.9763C13.6829 35.8453 15.5104 33.8042 17.4392 31.8612C19.2083 30.0744 19.6624 29.4847 19.6624 29.4847L19.854 28.9835L20.7946 29.812L20.3228 30.0626C20.3228 30.0626 19.6889 30.5314 18.1469 32.5098C16.4728 34.6767 14.6896 36.7571 12.8043 38.7429C12.2706 39.2677 12.3384 39.8043 12.02 39.7011C11.6578 39.4953 11.3417 39.2173 11.0912 38.8844C11.0175 38.6839 11.5217 38.5748 11.964 37.9763Z" fill="#F8B306"/>
<path d="M19.674 29.4936L19.8627 28.9924L20.8033 29.8209L20.3315 30.0715L19.674 29.4936Z" fill="#FFBC8A"/>
<path d="M16.0982 35.601C15.5852 36.2379 15.0751 36.8423 14.624 37.3318C13.5153 38.5112 13.1202 38.9033 12.9256 39.2836C12.9256 39.2836 12.5394 39.9913 12.504 40.0797C12.4845 40.1288 12.4556 40.1735 12.4188 40.2113C12.382 40.2491 12.3381 40.2793 12.2896 40.3001C12.2411 40.3209 12.189 40.332 12.1362 40.3326C12.0835 40.3332 12.0311 40.3235 11.9821 40.3038C11.9351 40.2844 11.8921 40.2564 11.8554 40.2213L10.6376 39.151C10.5968 39.1186 10.5628 39.0784 10.5376 39.0328C10.5124 38.9872 10.4965 38.937 10.4907 38.8852C10.4849 38.8334 10.4895 38.781 10.5041 38.731C10.5187 38.6809 10.543 38.6343 10.5757 38.5937C10.6079 38.5527 10.648 38.5186 10.6937 38.4935C10.7762 38.4463 11.4278 37.9716 11.4278 37.9716C11.7816 37.7239 12.103 37.2846 13.1438 36.0344C13.707 35.3563 14.4588 34.5602 15.2078 33.7789C15.2688 34.0309 15.3507 34.2775 15.4525 34.516C15.6165 34.9058 15.8338 35.271 16.0982 35.601Z" fill="#151823"/>
<path d="M16.0954 35.5967C16.0511 35.5672 16.0954 35.5967 16.0629 35.5613C15.5469 36.1952 15.0162 36.7878 14.568 37.2802C13.4624 38.4773 13.0938 38.8518 12.8756 39.2292C12.8756 39.2292 12.4776 39.9191 12.4334 40.0105C12.4108 40.0607 12.3785 40.1059 12.3383 40.1435C12.2981 40.181 12.2509 40.2103 12.1993 40.2295C12.1478 40.2487 12.0929 40.2575 12.0379 40.2553C11.9829 40.2531 11.9289 40.2401 11.8791 40.2169C11.8484 40.2042 11.8196 40.1873 11.7935 40.1668L11.8496 40.2169C11.9247 40.2918 12.0265 40.3339 12.1326 40.3339C12.2387 40.3339 12.3405 40.2918 12.4157 40.2169C12.4518 40.1809 12.4799 40.1377 12.4982 40.0901C12.5336 40.0017 12.9199 39.297 12.9199 39.297C13.1174 38.9137 13.5096 38.5363 14.6182 37.3392C15.0604 36.838 15.5823 36.2306 16.0954 35.5967ZM10.6377 39.1495L10.6967 39.2026C10.6578 39.164 10.627 39.118 10.606 39.0674C10.5849 39.0168 10.5741 38.9626 10.5741 38.9078C10.5741 38.853 10.5849 38.7987 10.606 38.7481C10.627 38.6975 10.6578 38.6516 10.6967 38.6129C10.7201 38.5889 10.7458 38.5672 10.7734 38.5481C10.8559 38.492 11.4928 38.0114 11.4928 38.0114C11.8378 37.7579 12.1739 37.3215 13.2177 36.0743C13.772 35.4109 14.5061 34.6237 15.2432 33.8541C15.2404 33.8276 15.2404 33.801 15.2432 33.7745C14.4855 34.5529 13.7336 35.3549 13.1793 36.033C12.1385 37.2832 11.8142 37.7225 11.4604 37.9672C11.4604 37.9672 10.8147 38.4419 10.7292 38.4891C10.683 38.5146 10.6424 38.549 10.6097 38.5903C10.5769 38.6316 10.5527 38.679 10.5385 38.7298C10.5242 38.7805 10.5202 38.8336 10.5266 38.8859C10.533 38.9382 10.5497 38.9888 10.5758 39.0346C10.5893 39.0763 10.6103 39.1153 10.6377 39.1495Z" fill="url(#paint0_linear)"/>
<path d="M16.3431 35.287C16.4581 35.1572 16.4434 35.169 16.6173 34.9479C16.3696 34.6293 16.1708 34.2755 16.0276 33.8982C15.9332 33.6666 15.8601 33.4268 15.8094 33.1818C15.5795 33.4206 15.5411 33.4501 15.5146 33.4766C15.5702 33.7294 15.6471 33.9769 15.7446 34.2167C15.8925 34.5999 16.094 34.9603 16.3431 35.287Z" fill="#151823"/>
<path d="M24.926 29.5669L23.8055 30.8436C23.8618 30.8569 23.9203 30.8569 23.9766 30.8436C24.3578 30.5425 24.6849 30.1785 24.9436 29.7674C24.9535 29.7001 24.9474 29.6314 24.926 29.5669Z" fill="#7D88A0"/>
<path opacity="0.54" d="M24.7903 29.7027C24.8205 29.7534 24.8326 29.8128 24.8246 29.8712C24.8165 29.9296 24.7888 29.9835 24.746 30.0241C24.7666 29.9843 24.7758 29.9396 24.7727 29.8948C24.7696 29.8501 24.7542 29.8071 24.7283 29.7705L24.7903 29.7027Z" fill="#363636"/>
<path opacity="0.54" d="M23.9324 30.6906C23.9501 30.6906 24.074 30.7849 24.2479 30.6021C24.2107 30.6281 24.167 30.6433 24.1218 30.6459C24.0765 30.6485 24.0313 30.6384 23.9914 30.6169L23.9324 30.6906Z" fill="#363636"/>
<path d="M23.2012 30.2981L23.8086 30.8318L24.929 29.5522L24.3246 29.0185L23.2012 30.2981Z" fill="#A7AEBC"/>
<path d="M23.2921 30.2272C23.2449 30.2272 23.1801 29.8291 22.9412 29.5785C22.7872 29.4126 22.5934 29.2888 22.3781 29.2188C22.1754 29.1595 21.9684 29.1161 21.7589 29.0891C21.7589 29.0891 22.4223 28.6969 22.5638 28.75C22.7054 28.8031 22.9 28.8945 23.5486 29.6109L23.7019 29.8114C23.7314 29.8409 23.5221 30.2183 23.2921 30.2272Z" fill="#7D88A0"/>
<path d="M24.3244 29.0185C24.2596 28.9595 23.9765 29.045 23.6728 28.8091C23.4803 28.6776 23.3298 28.4933 23.2394 28.2784C23.1627 28.0514 23.1332 27.8479 23.1126 27.8126C23.0944 27.7791 23.0715 27.7483 23.0448 27.7212C23.0448 27.7212 22.8178 28.3109 22.8856 28.4347C23.1241 28.7958 23.4563 29.0853 23.8468 29.2721C23.927 29.3076 24.0098 29.3372 24.0944 29.3605C24.1357 29.3517 24.4483 29.1305 24.3244 29.0185Z" fill="#7D88A0"/>
<path opacity="0.52" d="M23.021 27.9217C22.9744 28.1019 22.9497 28.287 22.9473 28.4731C23.1582 28.8348 23.4873 29.1128 23.879 29.2603C23.955 29.2948 24.034 29.3225 24.1149 29.3429C24.1385 29.3337 24.1604 29.3207 24.1798 29.3046C24.109 29.2898 23.9528 29.2368 23.9528 29.2368C23.6797 29.1421 23.4431 28.9644 23.2761 28.7286C23.109 28.4928 23.0198 28.2107 23.021 27.9217Z" fill="#363636"/>
<path d="M23.0216 27.9039C22.939 27.8125 22.2343 27.0193 21.5857 26.7953C20.6003 26.3648 19.5028 26.2615 18.4544 26.5004C17.9886 26.6185 17.5323 26.7713 17.0893 26.9574C17.0539 26.9309 17.4077 26.7422 18.1271 26.5299C19.2589 26.1674 20.4821 26.2144 21.5827 26.6626C22.1555 26.9028 22.6651 27.2721 23.0717 27.7417L23.0216 27.9039Z" fill="#7D88A0"/>
<path d="M22.9508 28.4527C23.1444 28.8133 23.457 29.0957 23.8354 29.2517C24.0241 29.3313 24.1302 29.3401 24.1302 29.3549C24.0856 29.463 24.0228 29.5628 23.9445 29.6497C23.8745 29.7301 23.793 29.7996 23.7027 29.8561C23.7027 29.8561 23.685 29.8561 23.5111 29.635C23.3366 29.4458 23.1515 29.2666 22.9567 29.0984C22.7898 28.9662 22.6052 28.858 22.4083 28.777C22.4083 28.777 22.7268 28.5853 22.9508 28.4527Z" fill="#A7AEBC"/>
<path d="M19.6422 28.9124C19.6599 28.9389 20.8216 29.9384 20.8511 29.9561C20.8806 29.9738 20.9366 30.0121 21.1165 29.8205C21.5135 29.388 21.9953 29.0418 22.5317 28.8033C23.0094 28.6264 23.0182 28.5792 23.0182 28.5792C22.9868 28.3267 22.9967 28.0707 23.0477 27.8214C22.3144 27.0043 21.3099 26.4806 20.2201 26.3472C19.7495 26.3206 19.2773 26.3413 18.8108 26.4091C18.4555 26.4672 18.1062 26.557 17.767 26.6774C17.6491 26.7275 17.2805 26.8455 17.2186 26.8838C17.1567 26.9221 17.136 26.931 17.0977 26.9575C17.2176 26.9844 17.341 26.9923 17.4633 26.9811C18.0467 26.8756 18.6404 26.838 19.2324 26.8691C20.0049 26.9516 20.1936 27.1108 20.2997 27.214C20.3978 27.2782 20.4677 27.3774 20.4951 27.4914C20.5225 27.6054 20.5054 27.7256 20.4472 27.8273C20.4472 27.8273 20.0934 28.3227 19.9902 28.4524C19.887 28.5821 19.6953 28.7944 19.6658 28.8121C19.6544 28.8258 19.6463 28.842 19.6422 28.8594C19.6381 28.8768 19.6381 28.895 19.6422 28.9124Z" fill="#C7C6CC"/>
<path d="M17.4431 26.9367C17.339 26.9426 17.2346 26.9426 17.1306 26.9367C17.1011 26.9367 17.0863 26.9662 17.0922 26.975C17.2122 27.0016 17.3358 27.0076 17.4578 26.9927C18.0482 26.8871 18.6488 26.8505 19.2475 26.8836C20.0289 26.9632 20.2176 27.1224 20.3237 27.2256C20.4136 27.3044 20.4799 27.4064 20.5154 27.5205C20.4887 27.3883 20.4155 27.2701 20.309 27.1873C20.2029 27.0841 20.0142 26.9249 19.2358 26.8453C18.6367 26.8048 18.0349 26.8355 17.4431 26.9367Z" fill="url(#paint1_linear)"/>
<path opacity="0.67" d="M20.6827 27.1286C20.4527 26.8514 19.9014 26.5094 18.4478 26.7924C17.6989 26.8956 17.4571 26.9399 17.4571 26.9399H17.121C17.121 26.9399 18.4094 26.3502 19.4385 26.3502C19.9693 26.3128 20.5025 26.3758 21.01 26.5359C21.2871 26.6421 21.4611 27.1256 21.4611 27.1256L20.6827 27.1286Z" fill="url(#paint2_linear)"/>
<path d="M12.1826 34.1779C12.6308 34.455 13.9812 35.3572 14.1728 35.4663C15.6205 36.2624 16.2574 36.174 16.7439 36.0383C17.2304 35.9027 17.1773 35.7258 17.3926 35.7052C18.0471 35.6403 18.1562 34.915 18.2476 34.8796C18.9169 34.6231 18.6751 33.8005 18.6751 33.8005C19.3828 32.9159 19.0083 32.798 19.0083 32.798C19.0083 32.798 17.4722 32.2083 16.8323 31.6835C16.452 31.365 17.2156 31.3591 16.8825 31.1291C16.7439 31.0348 14.3497 31.2618 13.589 31.5537L12.1826 34.1779Z" fill="#D8A798"/>
<path d="M55.917 42.8345H53.8472V74.1973H55.917V42.8345Z" fill="#7B3804"/>
<path d="M80.5042 42.9112H78.4314V74.274H80.5042V42.9112Z" fill="#7B3804"/>
<path d="M92.4988 64.8861L79.2926 61.9376H54.7643L67.1479 65.921L92.4988 64.8861Z" fill="#964711"/>
<path d="M53.773 46.644L66.6578 49.5158L67.1119 39.6797L53.7672 38.2881L53.773 46.644Z" fill="#A55016"/>
<path d="M92.4958 64.6418H66.7115V67.7848H92.4958V64.6418Z" fill="#7B3804"/>
<path d="M54.8639 64.8864L66.5339 67.7523V64.8038L54.8639 61.9526V64.8864Z" fill="#7B3804"/>
<path d="M87.0035 58.2286H85.1518V63.8248H87.0035V58.2286Z" fill="#A7AEBC"/>
<path d="M85.1518 58.2201C85.1518 58.2879 85.5676 58.341 86.0747 58.341C86.5818 58.341 87.0005 58.2879 87.0005 58.2201C87.0005 58.1523 86.5907 58.0992 86.0747 58.0992C85.5587 58.0992 85.1518 58.167 85.1518 58.2201Z" fill="#A7AEBC"/>
<path d="M86.3746 57.8547H85.7819V58.1908H86.3746V57.8547Z" fill="#A7AEBC"/>
<path d="M86.4365 57.5743H85.7171V57.9547H86.4365V57.5743Z" fill="#A7AEBC"/>
<path d="M80.637 57.6184L81.9255 56.5127C81.8956 56.5059 81.869 56.489 81.8502 56.4648C81.8314 56.4406 81.8215 56.4106 81.8223 56.38V55.9495C81.8215 55.932 81.8243 55.9145 81.8304 55.8981C81.8366 55.8816 81.846 55.8666 81.8581 55.854C81.8703 55.8413 81.8848 55.8312 81.901 55.8243C81.9171 55.8174 81.9345 55.8139 81.952 55.8139H82.1407L82.3383 55.3569C82.3427 55.3256 82.3589 55.2972 82.3835 55.2775C82.4082 55.2577 82.4395 55.2482 82.471 55.2507H82.6095C82.6415 55.2474 82.6735 55.2566 82.6988 55.2764C82.7241 55.2962 82.7407 55.3251 82.7452 55.3569L82.925 55.8139H83.1049C83.1228 55.8135 83.1406 55.8167 83.1572 55.8234C83.1739 55.8301 83.189 55.8401 83.2017 55.8527C83.2143 55.8654 83.2243 55.8805 83.231 55.8972C83.2377 55.9138 83.2409 55.9316 83.2405 55.9495V56.38C83.2405 56.4142 83.2274 56.4471 83.2037 56.4718C83.1801 56.4965 83.1479 56.5112 83.1137 56.5127L84.4022 57.6184C84.4415 57.6668 84.4633 57.727 84.4641 57.7894V63.7099C84.4633 63.7816 84.4345 63.8501 84.3838 63.9008C84.3331 63.9515 84.2646 63.9804 84.1929 63.9811H80.8729C80.8009 63.9811 80.7319 63.9526 80.6811 63.9017C80.6302 63.8508 80.6016 63.7818 80.6016 63.7099V57.7894C80.5986 57.7303 80.6107 57.6714 80.637 57.6184Z" fill="#A5957C"/>
<path d="M77.5505 63.8688C77.5505 63.9425 77.636 64.0044 77.7363 64.0044H79.5643C79.6675 64.0044 79.7471 63.9425 79.7471 63.8688V57.0874C79.7471 57.0136 79.6675 56.9547 79.5643 56.9547H77.7363C77.636 56.9547 77.5505 57.0136 77.5505 57.0874V63.8688Z" fill="#2543BF"/>
<path d="M77.583 57.049H79.7206C79.8061 57.049 79.4759 56.8308 79.4759 56.8308C79.4288 56.8073 79.3779 56.7923 79.3255 56.7866H77.9162C77.8639 56.7885 77.8126 56.8016 77.7658 56.825C77.7658 56.825 77.5004 57.049 77.583 57.049Z" fill="#A7AEBC"/>
<path d="M78.9366 56.524H78.3115V56.872H78.9366V56.524Z" fill="#A7AEBC"/>
<path d="M78.2461 55.9492H79.0422C79.0524 55.9492 79.0621 55.9532 79.0693 55.9604C79.0765 55.9676 79.0806 55.9773 79.0806 55.9875V56.6568C79.0806 56.667 79.0765 56.6767 79.0693 56.6839C79.0621 56.6911 79.0524 56.6951 79.0422 56.6951H78.2461C78.236 56.6951 78.2262 56.6911 78.219 56.6839C78.2119 56.6767 78.2078 56.667 78.2078 56.6568V55.9875C78.2078 55.9773 78.2119 55.9676 78.219 55.9604C78.2262 55.9532 78.236 55.9492 78.2461 55.9492Z" fill="#2543BF"/>
<path d="M74.9775 63.8693C74.9775 63.943 75.063 64.0049 75.1662 64.0049H76.9795C77.0827 64.0049 77.1682 63.943 77.1682 63.8693V57.0878C77.1682 57.0141 77.0827 56.9552 76.9795 56.9552H75.1544C75.0512 56.9552 74.9657 57.0141 74.9657 57.0878L74.9775 63.8693Z" fill="#10228C"/>
<path d="M75.0097 57.0497H77.1503C77.2299 57.0497 76.9056 56.8315 76.9056 56.8315C76.8578 56.8096 76.8072 56.7947 76.7552 56.7873H75.3458C75.2926 56.7895 75.2405 56.8025 75.1925 56.8256C75.1925 56.8256 74.9153 57.0497 75.0097 57.0497Z" fill="#A7AEBC"/>
<path d="M76.3605 56.5245H75.7383V56.8725H76.3605V56.5245Z" fill="#A7AEBC"/>
<path d="M75.676 55.9499H76.4839C76.4941 55.9499 76.5038 55.9539 76.511 55.9611C76.5182 55.9683 76.5222 55.978 76.5222 55.9882V56.6575C76.5222 56.6677 76.5182 56.6774 76.511 56.6846C76.5038 56.6918 76.4941 56.6958 76.4839 56.6958H75.676C75.6659 56.6958 75.6561 56.6918 75.6489 56.6846C75.6417 56.6774 75.6377 56.6677 75.6377 56.6575V55.9882C75.6377 55.978 75.6417 55.9683 75.6489 55.9611C75.6561 55.9539 75.6659 55.9499 75.676 55.9499Z" fill="#2543BF"/>
<path d="M69.9816 59.4432C71.0312 59.4432 71.8774 59.5464 71.8774 59.6702V64.0635H68.0857V59.6702C68.0857 59.5464 68.9348 59.4432 69.9816 59.4432Z" fill="#A7AEBC"/>
<path d="M71.4087 59.8882C70.9349 59.9408 70.4584 59.9655 69.9816 59.9619C69.5049 59.9653 69.0284 59.9407 68.5546 59.8882C68.189 59.8233 67.9649 59.8292 67.9089 59.6494C67.9678 59.4636 68.189 59.4725 68.5546 59.4047C69.0286 59.3556 69.5051 59.3329 69.9816 59.3368C70.4582 59.3329 70.9346 59.3555 71.4087 59.4047C71.7773 59.4725 71.9984 59.4636 72.0574 59.6494C72.0013 59.8322 71.7773 59.8233 71.4087 59.8882ZM71.8126 59.6759C71.843 59.6688 71.8726 59.6589 71.9011 59.6464C71.2722 59.5008 70.6265 59.4413 69.9816 59.4695C69.5109 59.4665 69.0404 59.4902 68.5723 59.5403C68.4298 59.5551 68.2888 59.5817 68.1507 59.6199C68.1196 59.6243 68.0897 59.6343 68.0622 59.6494C68.6908 59.7905 69.3349 59.85 69.9787 59.8263C70.4495 59.8284 70.92 59.8037 71.3881 59.7526C71.5307 59.7404 71.6719 59.7148 71.8097 59.6759H71.8126Z" fill="#A7AEBC"/>
<path d="M68.4286 62.3917V61.1357C68.8975 61.1769 69.4311 61.2064 70.0031 61.2064C70.5751 61.2064 71.0764 61.1799 71.5334 61.1357V62.3828C71.0014 62.4365 70.467 62.4621 69.9324 62.4595C69.3928 62.4595 68.8827 62.4359 68.4286 62.3917Z" fill="white"/>
<path d="M64.6563 57.3005H62.9492V62.4544H64.6563V57.3005Z" fill="#A7AEBC"/>
<path d="M62.9492 57.2828C62.9492 57.3417 63.3325 57.3918 63.8042 57.3918C64.276 57.3918 64.6534 57.3417 64.6534 57.2828C64.6534 57.2238 64.273 57.1707 63.8042 57.1707C63.3354 57.1707 62.9492 57.2326 62.9492 57.2828Z" fill="#A7AEBC"/>
<path d="M64.0755 56.9553H63.53V57.2678H64.0755V56.9553Z" fill="#A7AEBC"/>
<path d="M64.1339 56.699H63.4705V57.0498H64.1339V56.699Z" fill="#A7AEBC"/>
<path d="M58.7915 56.7397L59.9709 55.7196C59.9426 55.7135 59.9172 55.6979 59.8989 55.6754C59.8807 55.6528 59.8707 55.6247 59.8707 55.5957V55.2183C59.8699 55.2017 59.8725 55.1851 59.8784 55.1695C59.8843 55.154 59.8933 55.1398 59.9049 55.1279C59.9166 55.116 59.9305 55.1066 59.9459 55.1004C59.9613 55.0941 59.9779 55.0911 59.9945 55.0915H60.1714L60.3572 54.6699C60.3586 54.6555 60.3629 54.6416 60.3698 54.6289C60.3767 54.6163 60.386 54.6051 60.3973 54.596C60.4085 54.587 60.4215 54.5802 60.4353 54.5762C60.4492 54.5722 60.4637 54.571 60.4781 54.5726H60.6048C60.6192 54.571 60.6337 54.5722 60.6476 54.5762C60.6614 54.5802 60.6743 54.587 60.6856 54.596C60.6968 54.6051 60.7062 54.6163 60.7131 54.6289C60.72 54.6416 60.7243 54.6555 60.7257 54.6699L60.8908 55.0915H61.0559C61.0725 55.0915 61.0888 55.0948 61.104 55.1012C61.1193 55.1076 61.133 55.117 61.1446 55.1288C61.1561 55.1407 61.1652 55.1547 61.1712 55.17C61.1773 55.1854 61.1802 55.2018 61.1798 55.2183V55.6105C61.1791 55.6426 61.1662 55.6732 61.1438 55.6962C61.1213 55.7192 61.091 55.7328 61.0589 55.7343L62.2383 56.7515C62.274 56.7958 62.2937 56.8509 62.2943 56.9078V62.3624C62.2943 62.3952 62.2878 62.4277 62.2752 62.4579C62.2625 62.4881 62.244 62.5156 62.2207 62.5386C62.1974 62.5617 62.1698 62.5798 62.1394 62.5921C62.109 62.6044 62.0765 62.6105 62.0437 62.6101H59.0127C58.947 62.6101 58.884 62.584 58.8375 62.5376C58.7911 62.4911 58.765 62.4281 58.765 62.3624V56.9078C58.7571 56.8504 58.7664 56.7919 58.7915 56.7397Z" fill="#A7AEBC"/>
<path d="M65.774 49.9111L94.3446 49.4806V40.5792H65.774V49.9111Z" fill="#7B3804"/>
<path d="M94.3355 45.3175H91.8529V79.4224H94.3355V45.3175Z" fill="#7B3804"/>
<path d="M68.2439 45.3174H65.7642V79.4223H68.2439V45.3174Z" fill="#7B3804"/>
<path d="M51.3257 39.0992L65.5992 49.5633L94.3232 49.1328V41.7823H66.2862L51.3257 39.0992Z" fill="url(#paint3_linear)"/>
<path d="M63.8074 39.1522V40.0545L99.9997 39.5503V38.5331L78.6293 36.189H48.1451L63.8074 39.1522Z" fill="#964711"/>
<path d="M63.5942 43.1297L99.9988 42.6992V38.6451L63.5942 39.0756V43.1297Z" fill="#7B3804"/>
<path d="M48.2208 39.7537L63.8919 43.2123V38.9252L48.2208 36.1891V39.7537Z" fill="#A55016"/>
<path d="M78.3934 21.9276C77.562 21.4971 76.7511 21.8333 77.2642 21.3379C77.7772 20.8426 80.8849 20.7482 82.0672 20.7217C83.2495 20.6951 84.4614 20.2617 84.4879 20.6126C84.4787 20.8023 84.4311 20.9882 84.348 21.159C84.2649 21.3298 84.148 21.4819 84.0043 21.6062C83.8422 21.6711 78.3934 21.9276 78.3934 21.9276Z" fill="#282A35"/>
<path d="M71.9068 37.6015C71.9068 37.168 71.4764 36.0211 72.9093 35.8796C74.3423 35.738 76.3796 35.4019 77.5738 34.2284C79.2131 32.6156 79.0627 28.9359 78.417 25.4951C78.3197 25.1442 78.0426 23.9972 77.9305 23.6818C77.6711 22.9476 77.4264 22.0159 77.102 21.5382C78.9684 21.8331 83.6535 21.3289 84.5145 20.6095C84.3434 22.8002 84.4054 26.1909 84.1724 28.2371C83.8098 31.4156 83.3734 32.8456 83.8481 33.7979C84.2992 34.6825 83.795 37.6899 83.5267 37.9258C83.2112 38.197 81.05 38.0172 80.9085 37.9789C80.0239 37.7548 80.8849 36.6992 79.2574 37.4245C76.6745 38.5715 75.5275 38.3563 73.8056 38.2147C72.0837 38.0732 71.9068 37.6015 71.9068 37.6015Z" fill="#151823"/>
<path d="M72.7118 35.986C72.6057 36.7408 74.4809 36.5049 74.4809 36.5049C74.4809 36.5049 78.9891 35.986 79.7557 33.6921C80.9351 30.1392 78.6176 21.6919 77.9424 21.7803C77.7304 21.8197 77.5114 21.794 77.3144 21.7066C77.3144 21.7066 80.307 28.2551 78.3168 33.4739C77.4117 35.8799 72.7118 35.986 72.7118 35.986Z" fill="#282A35"/>
<path d="M85.3896 21.9272C84.5552 21.4968 83.7473 21.8329 84.2604 21.3376C84.7734 20.8422 87.887 20.7597 89.0664 20.7213C90.2457 20.683 91.4635 20.2614 91.49 20.6122C91.4808 20.8022 91.4329 20.9884 91.3493 21.1592C91.2656 21.3301 91.148 21.4821 91.0035 21.6059C90.8354 21.6707 85.3896 21.9272 85.3896 21.9272Z" fill="#282A35"/>
<path d="M78.9007 37.6009C78.9007 37.1675 78.4702 36.0205 79.9061 35.879C81.342 35.7375 83.3765 35.4014 84.5706 34.2279C86.2129 32.6151 86.0596 28.9354 85.4138 25.4945C85.3165 25.1437 85.0394 23.9967 84.9303 23.6812C84.6708 22.947 84.4261 22.0153 84.0988 21.5377C85.9623 21.8325 90.6503 21.3283 91.5113 20.6089C91.3432 22.7996 91.4022 26.1904 91.1692 28.2366C90.8095 31.415 90.3702 32.845 90.8479 33.7974C91.296 34.6819 90.7948 37.6894 90.5235 37.9252C90.2523 38.1611 88.0468 38.0166 87.9053 37.9783C87.0208 37.7542 87.8817 36.6987 86.2542 37.424C83.6713 38.5709 82.5214 38.3557 80.7995 38.2142C79.0776 38.0727 78.9007 37.6009 78.9007 37.6009Z" fill="#151823"/>
<path d="M79.7079 35.9854C79.5988 36.7402 81.477 36.5044 81.477 36.5044C81.477 36.5044 85.9852 35.9854 86.7518 33.6915C87.9312 30.1386 85.6137 21.6913 84.9414 21.7798C84.7285 21.819 84.5086 21.7934 84.3105 21.706C84.3105 21.706 87.3031 28.2546 85.3188 33.4734C84.4078 35.8793 79.7079 35.9854 79.7079 35.9854Z" fill="#282A35"/>
<path d="M68.5882 37.2062L68.3169 37.3507L66.2707 36.9202L67.8865 35.5934L68.5882 37.2062Z" fill="#151823"/>
<path d="M58.2842 35.6906C58.0336 36.2626 58.1839 36.6606 58.579 36.87C58.9741 37.0793 64.0514 37.9284 64.9831 37.8931C65.9148 37.8577 66.0947 37.5628 66.6696 37.1294C67.2446 36.696 68.1438 36.4306 68.2824 36.5751C68.421 36.7196 68.3178 37.3447 68.3178 37.3447L70.3257 37.0498C70.4146 36.6416 70.4757 36.2279 70.5085 35.8114C70.4702 34.809 59.2808 35.381 58.812 35.5608C58.3431 35.7407 58.2842 35.6906 58.2842 35.6906Z" fill="#282A35"/>
<path d="M69.7886 30.6757C69.2874 30.3189 66.9905 29.8914 65.6991 30.3189C64.4077 30.7464 64.5522 30.8201 64.3369 31.5366C64.1217 32.2531 63.187 33.0462 62.6858 33.9779C62.1845 34.9097 69.7886 30.6757 69.7886 30.6757Z" fill="#282A35"/>
<path d="M58.3818 36.2039C58.6766 36.9203 64.9834 37.7813 65.8414 37.2063C66.6419 36.6293 67.5851 36.2826 68.5687 36.2039C69.1346 36.1717 69.6919 36.0503 70.2199 35.8441C70.2199 35.8441 70.8656 33.6181 70.2906 32.6156C70.1246 32.2972 70.0263 31.9478 70.0019 31.5896C69.9776 31.2313 70.0277 30.8719 70.1491 30.534C70.1491 30.534 66.7023 30.1743 66.1303 30.8907C65.5583 31.6072 63.403 34.193 62.2561 34.3375C61.1091 34.4819 59.3843 34.479 58.8123 34.765C58.2403 35.051 58.3818 36.2039 58.3818 36.2039Z" fill="#151823"/>
<path d="M63.5294 34.1015C64.4295 33.5495 65.2703 32.9063 66.0386 32.182C66.0769 31.5363 65.3427 30.8198 64.697 31.61C63.7888 32.6647 62.8033 33.6503 61.7486 34.5585C61.5481 34.6882 62.4621 34.6971 63.5294 34.1015Z" fill="#151823"/>
<defs>
<linearGradient id="paint0_linear" x1="526.78" y1="28.3992" x2="529.809" y2="28.3512" gradientUnits="userSpaceOnUse">
<stop offset="0.18" stop-color="#545454"/>
<stop offset="0.2" stop-color="#454545"/>
<stop offset="0.26" stop-color="#212121"/>
<stop offset="0.3"/>
<stop offset="0.33"/>
<stop offset="0.55"/>
<stop offset="0.57" stop-color="#0B0B0B"/>
<stop offset="0.63" stop-color="#323232"/>
<stop offset="0.68" stop-color="#4B4B4B"/>
<stop offset="0.71" stop-color="#545454"/>
</linearGradient>
<linearGradient id="paint1_linear" x1="20.1153" y1="149.471" x2="20.1153" y2="151.423" gradientUnits="userSpaceOnUse">
<stop stop-color="#BDBDBD"/>
<stop offset="0.16" stop-color="#B8B8B8"/>
<stop offset="0.34" stop-color="#AAAAAA"/>
<stop offset="0.47" stop-color="#9C9C9C"/>
<stop offset="0.93" stop-color="#AFAFAF"/>
</linearGradient>
<linearGradient id="paint2_linear" x1="172.168" y1="168.188" x2="172.077" y2="165.864" gradientUnits="userSpaceOnUse">
<stop stop-color="#D6D6D6"/>
<stop offset="0.65" stop-color="#C7C7C7"/>
<stop offset="0.72" stop-color="#C2C2C2"/>
<stop offset="0.8" stop-color="#B3B3B3"/>
<stop offset="0.88" stop-color="#9B9B9B"/>
<stop offset="0.97" stop-color="#7A7A7A"/>
<stop offset="1" stop-color="#707070"/>
</linearGradient>
<linearGradient id="paint3_linear" x1="72.0542" y1="49.8704" x2="72.0287" y2="38.5714" gradientUnits="userSpaceOnUse">
<stop stop-color="white"/>
<stop offset="0.64" stop-color="#ABABAB"/>
</linearGradient>
</defs>
</svg>
