<svg width="100" height="94" viewBox="0 0 100 94" fill="none" xmlns="http://www.w3.org/2000/svg">
<g clip-path="url(#clip0)">
<path d="M26.869 39.8091L25.7436 0.131042L80.8148 0.524205L78.4245 39.8091H26.869Z" fill="#A39484"/>
<path d="M26.8262 1.19086L27.8917 38.7464H77.4359L79.6952 1.56123L26.8262 1.19086Z" fill="#F8F3E0"/>
<path d="M38.6553 22.376V28.9772L32.7123 26.1282C32.0952 27.4185 31.914 28.8743 32.1963 30.2766C32.4789 31.6789 33.2094 32.9513 34.2781 33.902C35.3467 34.8527 36.6954 35.4302 38.1208 35.5476C39.5464 35.6649 40.9715 35.3156 42.1812 34.5524C43.3909 33.7894 44.3197 32.6535 44.8276 31.3165C45.3356 29.9795 45.3949 28.5134 44.9971 27.1395C44.5991 25.7656 43.7655 24.5584 42.6217 23.6997C41.4775 22.841 40.0855 22.3774 38.6553 22.3789V22.376Z" fill="#B0B54F"/>
<path d="M38.0028 27.9203V21.322C36.7587 21.3228 35.5402 21.6752 34.4877 22.3386C33.4353 23.002 32.5917 23.9492 32.0541 25.0712L38.0028 27.9203Z" fill="#FFD765"/>
<path d="M31.6068 6.03131L32.4786 17.9629H34.49V6.03131H31.6068Z" fill="#EF384C"/>
<path d="M35.282 3.86041L35.9202 17.963H38.0256V3.86041H35.282Z" fill="#8F78D6"/>
<path d="M39.1026 9.89459L39.4388 17.963H41.2849L41.5698 9.89459H39.1026Z" fill="#FFD765"/>
<path d="M42.1653 7.08545L42.5071 17.9629H44.3761L44.661 7.08545H42.1653Z" fill="#A8CDF7"/>
<path d="M50.1652 3.71796H48.8091V5.07408H50.1652V3.71796Z" fill="#EF384C"/>
<path d="M50.1652 8.78064H48.8091V10.1368H50.1652V8.78064Z" fill="#8F78D6"/>
<path d="M50.1652 13.8433H48.8091V15.1994H50.1652V13.8433Z" fill="#FFC92E"/>
<path d="M50.1652 18.9088H48.8091V20.2649H50.1652V18.9088Z" fill="#A8CDF7"/>
<path d="M60.1994 6.41882H51.5128V6.98863H60.1994V6.41882Z" fill="#BBAFA3"/>
<path d="M65.5983 3.71796H51.5128V4.28776H65.5983V3.71796Z" fill="#BBAFA3"/>
<path d="M62.8974 5.06836H52.6325V5.63816H62.8974V5.06836Z" fill="#BBAFA3"/>
<path d="M65.6011 6.41882H62.2194V6.98863H65.6011V6.41882Z" fill="#BBAFA3"/>
<path d="M60.1994 11.4445H54.8746V12.0143H60.1994V11.4445Z" fill="#BBAFA3"/>
<path d="M65.5983 8.74072H51.5128V9.31052H65.5983V8.74072Z" fill="#BBAFA3"/>
<path d="M62.8974 10.0912H51.5128V10.661H62.8974V10.0912Z" fill="#BBAFA3"/>
<path d="M65.6011 11.4445H62.2194V12.0143H65.6011V11.4445Z" fill="#BBAFA3"/>
<path d="M60.1994 16.547H51.5128V17.1168H60.1994V16.547Z" fill="#BBAFA3"/>
<path d="M65.5983 13.8433H51.5128V14.4131H65.5983V13.8433Z" fill="#BBAFA3"/>
<path d="M62.8974 15.1966H52.6325V15.7664H62.8974V15.1966Z" fill="#BBAFA3"/>
<path d="M65.6011 16.547H62.2194V17.1168H65.6011V16.547Z" fill="#BBAFA3"/>
<path d="M57.9601 21.6097H51.5128V22.1795H57.9601V21.6097Z" fill="#BBAFA3"/>
<path d="M65.5983 20.2593H51.5128V20.8291H65.5983V20.2593Z" fill="#BBAFA3"/>
<path d="M65.5983 21.6097H59.9772V22.1795H65.5983V21.6097Z" fill="#BBAFA3"/>
<path d="M55.8547 18.9088H51.5128V19.4786H55.8547V18.9088Z" fill="#BBAFA3"/>
<path d="M65.5983 18.9088H56.9402V19.4786H65.5983V18.9088Z" fill="#BBAFA3"/>
<path d="M62.8974 25.5499H48.812V26.641H62.8974V25.5499Z" fill="#BBAFA3"/>
<path d="M57.5014 31.4901H48.8148V32.0599H57.5014V31.4901Z" fill="#BBAFA3"/>
<path d="M62.9003 28.7863H48.8148V29.3561H62.9003V28.7863Z" fill="#BBAFA3"/>
<path d="M60.1994 30.1368H49.9316V30.7066H60.1994V30.1368Z" fill="#BBAFA3"/>
<path d="M62.9003 31.4901H59.5185V32.0599H62.9003V31.4901Z" fill="#BBAFA3"/>
<path d="M62.8974 33.4188H50.9601V33.9886H62.8974V33.4188Z" fill="#BBAFA3"/>
<path d="M75.1652 3.71796H70.8091V9.31055H75.1652V3.71796Z" fill="#FFD765"/>
<path d="M75.1652 9.21649H70.8091V18.9088H75.1652V9.21649Z" fill="#C9C94F"/>
<path d="M75.1652 18.9088H70.8091V23.2649H75.1652V18.9088Z" fill="#8F78D6"/>
<path d="M75.1652 23.265H70.8091V33.9886H75.1652V23.265Z" fill="#A8CDF7"/>
<path d="M47.6068 25.2251C46.9857 24.8519 45.3419 24.4074 44.9259 23.8234C44.6094 23.3821 44.2484 22.9745 43.849 22.6068C43.3248 22.0769 43.1282 21.2108 42.6923 21.2222C42.2564 21.2336 42.4786 22.2051 42.7892 22.5556C43.0997 22.906 43.3875 23.4986 43.1909 23.5356C42.7157 23.5768 42.237 23.5576 41.7664 23.4786C41.3276 23.3704 39.3504 22.7863 39.1054 23.0256C38.8604 23.265 39.0769 23.51 39.4188 23.6838C39.7607 23.8575 41.3732 24.1795 41.4786 24.2536C41.0137 24.2029 40.5547 24.1075 40.1083 23.9687C39.5385 23.812 39.0342 23.7835 39.0598 24.1567C39.094 24.6011 40.453 24.8889 40.4843 25.0114C40.5157 25.1339 40.735 25.7236 41.1111 25.7692C41.1111 25.7692 41.4159 26.3248 41.792 26.3647C42.2652 26.37 42.7336 26.4617 43.1738 26.6353C43.5726 26.8148 44.2137 26.735 44.7265 26.6952C44.9145 26.6809 46.3533 27.5926 46.4872 27.604C47.1823 27.6809 47.6068 25.2251 47.6068 25.2251Z" fill="#F0BB8F"/>
<path d="M75.6695 75.9943C75.7009 76.641 76.5043 77.2934 77.0627 77.8803C77.6211 78.4672 77.7749 78.8404 77.1852 79.5897C76.5954 80.339 74.0513 80.4786 73.0456 80.0684C72.3647 79.7835 71.7094 77.2706 71.1852 77.114C70.661 76.9573 70.5157 77.0313 70.416 76.5157C70.3647 75.9641 70.3647 75.4091 70.416 74.8575L75.6695 75.9943Z" fill="#4C3E35"/>
<path d="M65.094 74.5356C65.1766 74.9658 65.3789 75.51 64.9031 75.9003C64.5427 76.2177 64.0812 76.3966 63.6011 76.4046C63.2308 76.4046 63.1738 77.1054 62.5869 77.6496C62 78.1938 61.3818 78.5869 60.0769 78.7037C58.7721 78.8205 57.6239 78.5869 57.4872 78.4502C57.3504 78.3134 57.2165 77.2023 57.4872 76.8148C57.7578 76.4274 59.0057 76.0171 59.2194 75.7835C59.5991 75.3915 59.8966 74.9277 60.094 74.4188C60.2336 73.9145 65.094 74.5356 65.094 74.5356Z" fill="#4C3E35"/>
<path d="M72.2935 37.3875C72.4786 39.0969 73.057 45.9345 73.4843 50.0741C73.8319 53.4359 74.6695 59.1766 74.6695 60.1339C74.6695 61.0912 76.094 75.6838 76.094 75.6838C76.094 75.6838 75.9402 76.1994 75.0171 75.9345C73.4017 75.4701 71.1254 75.9801 70.3818 76.0855C69.6382 76.1909 70.208 69.1709 69.2422 63.963C68.2764 58.755 65.2023 45.3561 65.2023 45.3561C65.2023 45.3561 64.9915 55.6695 65.2023 58.114C65.4131 60.5584 65.5214 74.0086 65.416 74.3276C65.3106 74.6467 63.9259 74.7521 63.0741 74.4359C62.2222 74.1197 59.6752 74.7009 59.5128 74.4872C59.3504 74.2735 59.6752 70.5527 59.9402 68.4786C60.2051 66.4046 59.8006 60.7721 59.4701 59.1766C59.1396 57.5812 58.7692 52.0541 58.6638 50.2479C58.5584 48.4416 58.4843 37.3875 58.4843 37.3875H72.2935Z" fill="#6F8FEA"/>
<path d="M63.0456 72.886C62.9174 73.2279 59.4359 74.3504 59.4986 73.3675C59.451 73.7396 59.4578 74.1168 59.5185 74.4872C59.6781 74.7009 62.2308 74.1168 63.0798 74.4359C63.9288 74.755 65.3134 74.6467 65.4216 74.3276C65.5299 74.0086 65.4216 60.5584 65.208 58.1168C64.9943 55.6752 65.208 45.3561 65.208 45.3561L64.8148 37.3789H61.51C61.51 37.3789 61.5499 49.3447 62 52.9516C62.4501 56.5584 63.1738 72.5442 63.0456 72.886Z" fill="#5273D2"/>
<path d="M75.0142 75.9345C75.9373 76.1994 76.0912 75.6837 76.0912 75.6837C76.0912 75.6837 74.6667 61.094 74.6667 60.1339C74.6667 59.1738 73.8291 53.4359 73.4815 50.0741C73.0513 45.9231 72.4758 39.0855 72.2877 37.3875H68.5556C69.0114 40.4701 71.9744 59.1994 72.3447 60.8632C72.755 62.6667 73.5214 74.6752 73.5214 74.6752C72.3527 74.7507 71.1895 74.8934 70.037 75.1025C70.1054 75.7379 70.2051 76.1111 70.3789 76.0883C71.1225 75.98 73.3989 75.4701 75.0142 75.9345Z" fill="#5273D2"/>
<path d="M89.6182 40.755C89.5954 40.547 87.4188 38.6183 87.453 38.5727C87.4872 38.5271 88.0427 38.9715 88.8205 39.5584C89.5983 40.1453 89.8006 40.2137 89.8803 39.8433C89.9601 39.473 88.1168 38.114 87.6952 37.698C87.2735 37.2821 86.7151 36.661 86.8405 36.4331C86.9658 36.2052 87.4929 36.4758 88.1481 36.6325C88.8034 36.7892 89.1994 36.4673 89.2365 36.2849C89.2735 36.1026 88.2593 35.8718 87.5014 35.5584C86.7436 35.245 86.4131 35.2735 85.698 35.2735C85.3345 35.269 84.9744 35.2037 84.6325 35.0798C84.3618 34.9459 84.094 34.7949 83.8632 34.6724C83.1538 34.2507 78.2422 28.718 78.2422 28.718C78.0208 28.6601 77.7949 28.622 77.567 28.604C75.963 28.4616 74.2165 29.1738 73.9202 29.8946C74.3989 30.7322 79.5271 34.3676 81.4815 35.6325C81.7895 35.8567 82.0758 36.1094 82.3362 36.3875C82.6211 36.7009 82.9316 36.6895 83.3533 37.151C83.3906 37.1952 83.4248 37.2419 83.4558 37.2906C83.7407 37.755 84.3105 38.7693 84.6952 39C85.2259 39.3214 85.7003 39.7274 86.0997 40.2023C86.6695 40.8519 87.3162 41.4587 87.5727 41.245C87.7578 41.0912 87.0028 40.1995 86.6353 39.8006C87.7749 41.057 88.4729 41.5356 88.755 41.1767C88.886 41.0086 86.7749 39.057 86.8661 39.0228C86.9573 38.9886 88.7778 40.9801 89.188 41.1453C89.5071 41.2906 89.641 40.963 89.6182 40.755Z" fill="#F0BB8F"/>
<path d="M66.6667 13.4445C66.4558 14.7436 67.7578 15.5841 68.8405 15.9459C69.9231 16.3077 72.8291 15.8006 73.9687 17.6069C75.1083 19.4131 77.2934 27.661 77.943 28.3106C78.5926 28.9601 84.4017 34.3561 84.4017 34.3561C84.4017 34.3561 84.0199 36.9886 82.0655 37.7749C82.0655 37.7749 74.6895 31.5556 73.8946 30.3989C73.0997 29.2422 71.3647 24.6154 71.3647 24.6154C71.3647 24.6154 71.51 28.7351 71.7265 30.3134C71.943 31.8918 73.0171 36.2792 72.2963 37.3647C72.2963 37.3647 64.9829 40.6724 58.4929 37.3647C58.2222 35.1422 58.2222 32.8949 58.4929 30.6724C58.6667 29.3533 58.3647 26.2621 58.3647 26.2621C58.3647 26.2621 54.151 31.2051 53.5014 31.0541C52.8519 30.9031 48.8205 29.9145 46.433 28.2393C46.433 28.2393 46.0256 25.8832 47.3818 25.0712L52.51 26.5841C52.4786 26.8091 55.4017 22.9373 55.9117 20.4188C56.0735 19.7553 56.39 19.1395 56.8359 18.622C57.2815 18.1045 57.8436 17.7 58.4758 17.4416C59.9003 16.8718 61.3248 16.6467 62.0826 15.6638C62.8405 14.6809 66.6667 13.4445 66.6667 13.4445Z" fill="#614F45"/>
<path d="M59.9658 8.75217C60.1196 9.54134 60.2763 10.9174 60.7806 11.4587C61.2849 12 62 10.1567 62 10.1567C62 10.1567 61.0883 8.44733 60.9829 8.44733C60.8775 8.44733 59.9658 8.75217 59.9658 8.75217Z" fill="#B38644"/>
<path d="M67.8205 15.4701C67.0912 15.0171 66.51 14.3305 66.6553 13.4445C66.6553 13.4445 62.8148 14.6838 62.0627 15.6695C61.9652 15.7978 61.8544 15.9153 61.7322 16.02C61.7322 16.02 62.6211 17.6097 64.3191 17.4445C66.0171 17.2792 67.8234 15.4786 67.8234 15.4786L67.8205 15.4701Z" fill="#4C3E35"/>
<path d="M60.5185 8.86043C60.2792 9.35901 60.7607 10.5698 60.641 10.9003C60.5214 11.2308 60.5071 12.6838 61.0627 13.8148C61.6182 14.9459 64.604 14.8832 64.604 14.8832L66.0285 14.0827L66.8091 11.8718L67.1111 8.57838L64.6724 7.19946L60.5185 8.86043Z" fill="#F0BB8F"/>
<path d="M64.9573 7.36468C64.8148 8.56981 66.5869 9.88035 66.4103 10.4131C66.2336 10.9459 66.4473 12.1852 65.8405 13.1795C65.2336 14.1738 64.4729 13.9601 64.4729 13.9601C64.4729 13.9601 63.7237 12.906 62.7322 13.0143C61.7407 13.1225 61.9801 13.6467 61.661 13.869C61.5701 13.9284 61.4618 13.9558 61.3536 13.947C61.2453 13.9383 61.143 13.8938 61.0627 13.8205C61.0276 13.9407 61.0171 14.0667 61.0316 14.191C61.0464 14.3154 61.086 14.4355 61.1482 14.5442C61.5499 15.2113 62.047 15.816 62.6239 16.339C63.4786 17.1311 64.7493 16.339 65.245 16.02C65.7407 15.7009 67.3447 13.7692 67.4872 13.0484C67.5653 12.5958 67.5088 12.1303 67.3248 11.7094C67.5641 11.3133 67.7148 10.8701 67.7664 10.4103C67.8661 9.60685 68.0655 8.50713 67.5242 7.56127C66.9829 6.6154 65.8433 6.05984 65.2023 6.29916L64.9573 7.36468Z" fill="#B38644"/>
<path d="M64.9572 7.69228C64.8282 7.7847 64.6806 7.84829 64.5248 7.87877C64.3689 7.90923 64.2085 7.90589 64.0541 7.86891C63.5128 7.74926 63.4843 9.17091 61.6923 9.39028C59.9003 9.60965 58.5897 7.50139 58.5897 7.50139C58.5897 7.50139 60.2308 7.78629 60.7521 6.96863C61.2735 6.15096 62.151 5.188 63.792 5.42732C65.433 5.66663 65.1937 6.30766 65.1937 6.30766L64.9572 7.69228Z" fill="#B38644"/>
<path d="M66.6838 11.1767C66.6838 10.9373 66.5555 10.1311 66.8974 10.0114C67.2393 9.89177 67 11 67 11.4074C67 11.8148 67.1795 12.1624 66.9829 12.3476C66.7863 12.5328 66.6496 12.151 66.6667 11.9658C66.6838 11.7037 66.6894 11.4416 66.6838 11.1767Z" fill="#F0BB8F"/>
<path d="M62.8633 13.4501C63.1322 13.4643 63.3926 13.5492 63.6183 13.6963C63.8439 13.8433 64.0268 14.0474 64.1482 14.2877C64.2336 14.5327 63.7749 14.5726 63.1738 14.6552C62.4758 14.7379 61.9516 14.4815 61.9145 14.3419C61.904 14.2344 61.9145 14.126 61.9459 14.0227C61.9772 13.9195 62.0288 13.8234 62.0972 13.7401C62.1658 13.6567 62.2502 13.5877 62.3453 13.5369C62.4408 13.4862 62.545 13.4548 62.6524 13.4444C62.7225 13.4363 62.7937 13.4383 62.8633 13.4501Z" fill="#F0BB8F"/>
<path d="M58.2992 22.2764C58.2992 22.2764 54.0257 29.7294 53.5584 29.9373C53.0912 30.1453 46.792 27.7379 46.4729 27.6239L46.3818 27.6724C46.3818 28.0086 46.4302 28.2422 46.4302 28.2422C48.8177 29.9032 52.849 30.9088 53.5014 31.0541C54.1539 31.1994 58.3618 26.2821 58.3618 26.2821L58.2992 22.2764Z" fill="#4C3E35"/>
<path d="M75.7037 29.7236C74.9544 28.5498 71.3618 20.547 71.3618 20.547V24.6239C71.3618 24.6239 73.0969 29.2507 73.8917 30.4074C74.6866 31.5641 82.0513 37.7835 82.0513 37.7835C82.4749 37.608 82.8538 37.339 83.1595 36.9971C82.1111 36.0285 76.3846 30.7835 75.7037 29.7236Z" fill="#4C3E35"/>
<path d="M71.5299 28.0854C71.6325 30.0968 71.4872 32.8518 69.7493 33.4216C67.8747 34.0342 64.8405 34.225 63.7664 33.9914C63.7664 33.9914 64.8604 34.8461 69.2707 34.5983C73.6809 34.3504 65.9658 38.527 58.4444 35.7664L58.3191 35.7236C58.3761 36.7436 58.4701 37.3874 58.4701 37.3874C64.9573 40.6951 72.2707 37.3874 72.2707 37.3874C72.9943 36.302 71.9202 31.9259 71.7009 30.3362C71.6496 29.792 71.5841 28.9544 71.5299 28.0854Z" fill="#4C3E35"/>
<path d="M81.943 70.3248H68.4131L67.3903 59.188H80.9117L81.943 70.3248Z" fill="#585A88"/>
<path d="M82.4074 69.5157H68.8775L67.9857 59.7151H81.5128L82.4074 69.5157Z" fill="white"/>
<path opacity="0.5" d="M82.4074 69.5157H68.8775L67.9857 59.7151H81.5128L82.4074 69.5157Z" fill="#C7E1FF"/>
<path d="M81.3476 60.5186L82.1681 69.5157H82.4074L81.5128 59.7151H67.9857L68.057 60.5214L81.3476 60.5186Z" fill="#A8CDF7"/>
<path d="M78.5698 51.0854C78.5698 51.0854 78.5014 52.8262 78.0484 53.7635L77.037 57.3419L80.114 58.302V52.2279L78.5698 51.0854Z" fill="#FFC191"/>
<path d="M81.6581 51.0854C81.6581 51.0854 81.7293 52.8262 82.1823 53.7635L83.1339 57.0855L80.114 58.2991V52.2279L81.6581 51.0854Z" fill="#FFC191"/>
<path d="M78.4957 51.9259C78.5271 51.6638 78.5499 51.4387 78.5584 51.2877L78.5755 51.094L80.114 52.2336L81.5812 51.1453L81.6667 51.1909C81.6917 51.6088 81.7385 52.0253 81.8063 52.4387L81.8746 52.7977C81.8746 52.7977 81.6325 53.3305 80.3903 53.3305C79.2621 53.3248 78.4957 51.9259 78.4957 51.9259Z" fill="#F09F5B"/>
<path d="M82.7322 50.8148C82.7322 50.8148 83.1168 50.4587 83.1567 50.2821L82.8718 50.1681L82.7322 50.8148Z" fill="#622818"/>
<path d="M77.5612 50.8148C77.5612 50.8148 77.1738 50.4587 77.1367 50.2821L77.4217 50.1681L77.5612 50.8148Z" fill="#622818"/>
<path d="M83.4758 48.339C83.4758 48.339 83.963 46.1937 83.3932 44.9972C82.7749 43.7123 81.8518 42.9744 80.1595 42.9744C78.4672 42.9744 77.5413 43.7123 76.9259 44.9972C76.3561 46.1937 76.8433 48.339 76.8433 48.339C76.0741 48.1823 76.2165 49.0456 76.4587 49.4359C76.6051 49.6541 76.7148 49.8946 76.7835 50.1482C76.7923 50.2103 76.8191 50.2687 76.8604 50.316C76.902 50.363 76.9564 50.3972 77.0168 50.4137C77.0775 50.4302 77.1416 50.4288 77.2014 50.4097C77.2612 50.3903 77.314 50.3539 77.3533 50.3049C77.5869 50.963 77.7493 51.1197 78.6695 51.9915C79.4729 52.7436 79.755 52.7379 80.1595 52.7379C80.5641 52.7379 80.8376 52.7379 81.6496 51.9915C82.5698 51.1225 82.7322 50.9658 82.963 50.3049C83.0197 50.3712 83.1006 50.4123 83.1875 50.4191C83.2746 50.4259 83.3607 50.3983 83.4273 50.3419C83.4838 50.2909 83.5216 50.2228 83.5356 50.1482C83.604 49.8949 83.7125 49.6544 83.8575 49.4359C84.0855 49.0456 84.2279 48.1823 83.4758 48.339Z" fill="#FFC191"/>
<path d="M82.3504 42.9744C81.8185 42.6812 81.2211 42.5276 80.614 42.5276C80.0068 42.5276 79.4094 42.6812 78.8775 42.9744C74.9715 43.4188 76.339 48.4644 76.339 48.4644C76.3989 48.398 76.4772 48.3507 76.5638 48.3285C76.6504 48.3063 76.7416 48.3097 76.8262 48.339C76.7749 47.9744 77.2165 47.5271 77.9088 47.0029C78.3387 46.6647 78.6729 46.2197 78.8775 45.7123C79.1404 46.1513 79.4929 46.5302 79.9114 46.8245C80.3299 47.1191 80.8057 47.3225 81.3077 47.4217C83.0456 47.7749 83.4074 48.0257 83.4615 48.3504C83.5461 48.3211 83.6373 48.3177 83.7239 48.3399C83.8105 48.3621 83.8889 48.4094 83.9487 48.4758C83.9487 48.4758 85.0057 44.3932 82.3504 42.9744Z" fill="#7C3322"/>
<path d="M77.5499 50.7948C77.5499 50.7948 77.1624 50.453 77.1225 50.2906L77.4074 50.1823L77.5499 50.7948Z" fill="#622818"/>
<path d="M82.718 50.7948C82.718 50.7948 83.1026 50.453 83.1425 50.2906L82.8576 50.1823L82.718 50.7948Z" fill="#622818"/>
<path d="M77.9288 43.339C78.4641 43.0581 79.0593 42.9117 79.6638 42.9117C80.2681 42.9117 80.8635 43.0581 81.3988 43.339C85.3077 43.7578 83.9402 48.5641 83.9402 48.5641C83.8792 48.4989 83.8008 48.453 83.7142 48.4316C83.6279 48.4105 83.537 48.4148 83.453 48.4444C83.5043 48.094 83.0627 47.6695 82.3704 47.1709C81.9439 46.855 81.6097 46.4311 81.4017 45.943C81.1302 46.3652 80.7741 46.7268 80.3558 47.0043C79.9376 47.2818 79.4661 47.4695 78.9715 47.5556C77.2336 47.8946 76.8689 48.1254 76.8177 48.4444C76.7333 48.4142 76.6419 48.4097 76.5547 48.4308C76.4675 48.4521 76.3886 48.4986 76.3276 48.5641C76.3276 48.5641 75.2735 44.6895 77.9288 43.339Z" fill="#7C3322"/>
<path d="M78.2707 53.1453C78.1507 53.3767 77.9798 53.5775 77.7704 53.7325C77.561 53.8875 77.3188 53.9926 77.0627 54.0399C76.114 54.2792 76.1054 56.8177 76.1054 56.8177L77.5584 62.1995L79.8604 63.4331V54.3505L78.2707 53.1453Z" fill="#FFC191"/>
<path d="M81.453 53.1453C81.5729 53.3767 81.7439 53.5775 81.9533 53.7325C82.1627 53.8875 82.4048 53.9926 82.661 54.0399C83.6068 54.2792 83.6125 56.8177 83.6125 56.8177L82.1595 62.1995L79.8604 63.4331V54.3505L81.453 53.1453Z" fill="#FFC191"/>
<path d="M85.9402 68.2707C85.71 66.8527 85.5892 65.4194 85.5784 63.9829V63.8604C85.5784 63.7065 85.6068 63.0399 85.6097 62.2365L85.9886 64.0798C85.9886 64.0798 90.7037 64.4444 90.7037 64.3846C90.7037 63.1652 89.5641 60.1709 89.0883 58.302C88.4444 55.7151 88.0399 55.0228 85.5271 54.6923C84.6926 54.5823 83.8729 54.3809 83.0826 54.0912L82.8946 54.0427C83.1795 55.0199 76.584 55.0399 76.8746 54.0427C76.7607 54.0684 76.5897 54.1225 76.416 54.1795C75.416 54.4359 72.5157 54.0313 71.9316 56.7892C71.5669 58.5242 69.8604 63.8661 69.8604 66.1026C70.6724 66.7749 73.661 64.0541 74.5584 64.6182C74.6997 64.3174 74.8014 63.9994 74.8604 63.6724C74.9031 64.4131 73.0399 73.6781 72.2963 74.812C71.5527 75.9459 71.4729 77.5442 71.6952 78.8006C71.9174 80.057 72.3875 80.4217 73.8775 80.9601L80.0883 80.7436C80.0883 80.7436 87.2621 80.9573 87.8319 79.8889C88.5214 78.5983 88.4274 75.7208 87.6809 74.4046C86.8718 73.0029 85.9402 68.2707 85.9402 68.2707Z" fill="#EF384C"/>
<path d="M82.2422 45.114C81.2598 44.9632 80.2564 45.0282 79.302 45.3048C78.2479 45.6353 77.1709 47.4587 76.792 48.1538L76.8319 48.3504C76.7855 48.3461 76.7388 48.3461 76.6923 48.3504L76.6382 48.433C76.9744 48.849 77.3248 50.3191 77.3248 50.3191C77.5584 50.9772 77.7208 51.1339 78.641 52.0057C79.4445 52.7578 79.7265 52.7493 80.1311 52.7493C80.5356 52.7493 80.8091 52.7493 81.6211 52.0057C82.5413 51.1367 82.7037 50.98 82.9345 50.3191C82.9516 50.3356 82.9707 50.3501 82.9915 50.3618C83.2248 49.7185 83.3769 49.0484 83.4445 48.3675C83.792 44.8746 82.4131 45.1795 82.2422 45.114Z" fill="#7C3322"/>
<path d="M83.6752 48.2308C83.6752 48.2308 84.2051 45.9516 83.5897 44.6952C82.9202 43.3334 81.9202 42.5527 80.0855 42.5527C78.2507 42.5527 77.2365 43.3334 76.5812 44.6952C75.9601 45.9573 76.49 48.2308 76.49 48.2308C75.6581 48.0627 75.8148 48.9772 76.0741 49.3903C76.2345 49.6194 76.353 49.8749 76.4245 50.1453C76.4424 50.2385 76.4966 50.3208 76.5752 50.3741C76.6536 50.4277 76.7499 50.4479 76.8433 50.4302C76.9205 50.4154 76.9906 50.3752 77.0427 50.3163C77.2934 51.0114 77.4729 51.171 78.4672 52.0969C79.3362 52.8975 79.641 52.8889 80.0798 52.8889C80.5185 52.8889 80.8148 52.8889 81.6952 52.0969C82.6923 51.1795 82.8661 51.0114 83.1197 50.3163C83.1507 50.3513 83.1886 50.3801 83.2308 50.4003C83.2732 50.4208 83.3191 50.4328 83.3658 50.4353C83.4128 50.4379 83.4595 50.4314 83.504 50.4157C83.5482 50.4003 83.5889 50.3761 83.6239 50.3448C83.6812 50.2929 83.7202 50.224 83.7351 50.1482C83.8105 49.8792 83.9291 49.6245 84.0855 49.3932C84.3504 48.9772 84.5071 48.0627 83.6752 48.2308Z" fill="#965438"/>
<path opacity="0.5" d="M88.6895 56.8946C88.6638 56.8148 88.6382 56.7436 88.6097 56.6723C88.2735 55.8176 87.8518 55.3333 87.0541 55.0313C87.9914 56.2592 87.8348 59.4216 87.8348 59.4216C87.8348 59.4216 77.4416 60.2136 71.0427 60.2193C70.4729 62.3419 69.8661 64.7778 69.8661 66.1225C70.151 66.3646 70.7379 66.1624 71.3989 65.8376C72.2251 64.7664 73.1253 63.5869 73.5897 63.6894C74.0017 63.7629 74.4191 63.8011 74.8376 63.8034C74.8376 63.7664 74.8575 63.7293 74.8632 63.6951C74.8661 63.7293 74.8661 63.7635 74.8632 63.7977C77.0057 63.8461 80.8462 63.5755 85.5812 64.037V63.9829V63.8575C85.5812 63.7065 85.6097 63.0399 85.6125 62.2336L85.9914 64.0769L86.6524 64.1282C87.9952 64.2051 89.341 64.2051 90.6838 64.1282C90.5612 62.7891 89.5271 60.057 89.0883 58.2991C88.963 57.8062 88.8462 57.376 88.7236 57C88.7151 56.9629 88.7037 56.9316 88.6895 56.8946Z" fill="#D9293C"/>
<path d="M80.0826 42.5527C77.3362 42.8376 75.3533 43.5755 74.8689 50.7977L74.6667 53.1482C74.6667 53.1482 76.0285 54.4074 79.8604 54.3505C83.6923 54.2935 85.0684 53.1482 85.0684 53.1482C85.0684 53.1482 86.4302 42.265 80.0826 42.5527Z" fill="#614F45"/>
<path opacity="0.5" d="M85.5328 54.7009C84.698 54.5924 83.8781 54.3906 83.0883 54.0998L82.9031 54.0513C83.188 55.0285 76.5897 55.0485 76.8832 54.0513C76.7692 54.077 76.5983 54.1311 76.4217 54.1881C76.2405 54.2283 76.0567 54.2559 75.8718 54.2707C77.2536 55.5556 81.4815 56.9573 85.5328 54.7009Z" fill="#D9293C"/>
<path d="M85.0655 53.1481C85.0655 53.1481 86.2308 43.8262 81.3618 42.6724C82.9573 43.9202 83.3561 46.661 82.2593 49.6724C80.9259 53.302 76.2763 52.7179 74.9174 50.1766C74.8974 50.3818 74.8803 50.5783 74.8632 50.7977L74.661 53.1481C74.661 53.1481 76.0228 54.4074 79.8547 54.3504C83.6866 54.2934 85.0655 53.1481 85.0655 53.1481Z" fill="#4C3E35"/>
<path d="M96.3219 75.1168C91.265 68.6923 91.2678 54.9117 81.1054 54.9117C70.057 54.9117 71.0655 68.792 65.8889 75.1168C62.1453 79.6923 59.4473 90.7692 68.9031 93.2108C71.3875 93.8547 77.1111 93.5128 81.1054 93.4957C85.0997 93.4786 90.8234 93.8433 93.3077 93.2108C102.764 90.7692 100.285 80.1425 96.3219 75.1168Z" fill="#C9C94F"/>
<path opacity="0.6" d="M83.8661 55.3105C88.5698 63.0228 89.8091 75.2707 83.4103 79.5727C76.4359 84.2621 65.7692 80.9972 64.2194 77.7521C61.5926 83.0171 60.9687 91.1681 68.9031 93.2108C71.3875 93.8547 77.1111 93.5128 81.1054 93.4957C85.0997 93.4786 90.8234 93.8433 93.3077 93.2108C102.766 90.7692 100.276 80.1425 96.3219 75.1168C91.7721 69.3362 91.3134 57.6068 83.8661 55.3105Z" fill="#B0B54F"/>
<path d="M71.9772 93.6011C69.3647 92.7122 69.7806 88.792 69.7806 88.792C69.7806 88.792 70.1937 92.0683 72.869 92.829C72.869 92.829 72.3333 91.6438 72.6325 90.6923C72.6325 90.6923 73.0228 92.906 76.3618 93.5812L71.9772 93.6011Z" fill="#B0B54F"/>
<path d="M87.6011 93.188C88.3732 92.5926 89.0855 89.8604 89.0855 89.8604C88.7296 90.888 88.0396 91.7669 87.1253 92.3561C88.2649 90.5726 88.0171 84.8718 88.0171 84.8718C87.7778 88.7322 86.5926 92.1196 84.5071 93.5555C86.6724 93.5983 88.9345 93.6381 90.7607 93.5356C91.9373 93.0569 91.9943 91.6438 91.9943 91.6438C91.4684 92.2723 90.7829 92.7475 90.0097 93.0193C89.2367 93.2908 88.4046 93.3493 87.6011 93.188Z" fill="#B0B54F"/>
<path d="M94.735 72.6011C94.735 72.6011 95.3219 77.2108 91.3447 78.9316C91.3447 78.9316 93.245 78.9316 95.6182 75.6895C95.6182 75.6895 95.8576 77.6837 95.0256 78.2792C95.0256 78.2792 96.0712 77.4815 96.3219 75.1168L94.735 72.6011Z" fill="#B0B54F"/>
<path opacity="0.6" d="M68.1823 71.1054C67.8974 71.7977 67.5755 72.4644 67.2308 73.0997L67.2621 73.1567C68.6866 75.4872 74.4302 75.1995 74.4302 75.1995C74.4302 75.1995 69.4843 74.2279 68.1823 71.1054Z" fill="#B0B54F"/>
<path d="M20.4359 71.6837L22.6382 60.5726H36.9801L35.5271 71.6837H20.4359Z" fill="#585A88"/>
<path d="M22.9971 61.0142H36.4815L35.1424 71.2478H20.9687L22.9971 61.0142Z" fill="white"/>
<path opacity="0.5" d="M22.9971 61.0142H36.4815L35.1424 71.2478H20.9687L22.9971 61.0142Z" fill="#C7E1FF"/>
<path d="M32.3333 66.9174H34.8063L34.3903 69.6609H31.9088L32.3333 66.9174Z" fill="#A8CDF7"/>
<path d="M29.0598 72.2764L24.6125 70.0142L25.5043 67.0883L28.7094 68.7778L29.0598 72.2764Z" fill="#B0B54F"/>
<path opacity="0.5" d="M36.359 61.9544L36.4815 61.0142H22.9971L22.8091 61.9544H36.359Z" fill="#A8CDF7"/>
<path d="M23.9858 44.0541C24.2516 45.0151 24.3612 46.0128 24.3105 47.0085C24.1711 47.3031 24.1187 47.6311 24.1596 47.9544C24.2194 48.4558 24.4872 49.0142 23.6895 50.433C22.8917 51.8518 23.453 52.1168 22.5499 52.2336C21.6467 52.3504 19.6581 51.1424 19.6581 51.1424L19.0399 45.1168L23.9858 44.0541Z" fill="#F0BB8F"/>
<path d="M21.3476 51.9886C21.114 52.5584 21.6781 53.4444 21.6781 53.4444C21.6781 53.4444 16.265 53.2393 15.8348 52.6439C15.4046 52.0484 15.8348 51.0655 15.8348 51.0655L20.5983 50.6268L21.3476 51.9886Z" fill="#F0BB8F"/>
<path d="M22.3276 48.3903C22.2764 48.3134 22.5613 47.1311 21.7578 46.9658C20.9544 46.8006 20.8063 47.5356 20.9601 48.2279C21.114 48.9202 21.6866 49.0513 21.6182 49.7465C21.5499 50.4416 20.9088 50.8006 20.4786 51.4188C20.0484 52.0371 16.1054 51.7037 15.6667 51.4188C15.2279 51.1339 15.4103 50.0798 14.8689 49.2308C13.9833 47.8254 13.6589 46.1379 13.9601 44.5043C14.1468 43.445 14.6807 42.4781 15.4777 41.7559C16.2747 41.0339 17.2894 40.5974 18.3618 40.5157C20.4473 40.4131 22.6353 41.9202 23.2849 42.1624C24.3276 42.5527 24.1994 42.3704 24.3276 42.5527C24.4558 42.7351 24.7607 44.3134 24.0427 44.8034C23.3248 45.2935 22.6382 45.8433 22.6182 46.3049C22.5983 46.7664 22.6923 48.0285 22.6923 48.0285L22.3276 48.3903Z" fill="#52380F"/>
<path d="M14.1254 53.4444C14.9516 52.6239 14.5897 51.8917 15.1766 51.7778C15.7635 51.6638 19.849 52.0171 20.7265 52.3476C21.604 52.678 21.8006 53.0199 22.2336 53.8404C22.6667 54.6609 25.2336 55.4359 26.0057 55.5327C26.7778 55.6296 27.5527 55.6296 28.0826 56.886C28.6125 58.1424 32.0969 67.9971 32.1937 68.5869C32.2906 69.1766 32.4786 71.2934 31.9088 71.7777C31.339 72.2621 29.735 72.5983 29.0598 72.2621C28.3846 71.9259 25.9658 68.49 25.9658 68.49C25.9658 68.49 27.1738 73.0826 27.1254 73.6638C27.0769 74.245 22.7749 76.755 17.0684 76.8547C11.3618 76.9544 11.4615 75.9829 11.4615 75.9829C11.4615 75.9829 10.9316 65.8803 9.81766 63.7521C8.7037 61.6239 8.1282 60.2735 8.46439 58.2421C8.80057 56.2108 9.38461 55.7749 9.81766 55.678C10.2507 55.5812 13.5442 54.0228 14.1254 53.4444Z" fill="#C9C94F"/>
<path d="M31.9088 71.7948C32.2108 71.5441 32.2991 70.849 32.3077 70.1567C31.8946 70.1852 30.8376 70.2478 30.5983 70.1567C30.3134 70.0256 24.9972 61.9686 24.9972 61.9686L25.9544 68.5213C25.9544 68.5213 28.3704 71.9544 29.0484 72.2934C29.7265 72.6325 31.3219 72.2763 31.9088 71.7948Z" fill="#B0B54F"/>
<path d="M26.4957 73.2421C28.1832 72.4846 29.9103 71.8191 31.6695 71.2479C32.2222 71.1253 33.9886 70.963 34.3276 71.2479C34.6667 71.5328 36.2621 73.1339 36.2137 73.8604C36.1653 74.5869 36.0883 77.5213 33.5869 81.3276L25.0057 80.8262V73.0256L26.4957 73.2421Z" fill="#4C3E35"/>
<path d="M23.0228 42.037C22.1681 41.6097 20.2279 40.4245 18.3675 40.5157C17.2951 40.5974 16.2804 41.0339 15.4834 41.7558C14.6864 42.4781 14.1525 43.445 13.9658 44.5043C13.9231 44.7635 13.8917 45.0199 13.8746 45.282C14.1595 47.4701 17.0912 48.5071 19.0256 47.4302C20.9601 46.3533 20.8205 44.5356 22.3504 43.661C23.3818 43.0712 23.2308 42.4074 23.0228 42.037Z" fill="#5A3E10"/>
<path d="M6.76069 54.9459C-1.07122 57.2023 -2.19088 79.7721 4.74929 88.6239C7.55841 92.208 9.67806 92.2194 13.1966 92.3419C19.3105 92.5527 22.8604 92.3903 27.416 92.4929C35.0684 92.6667 41.9687 93.2308 43.433 91.0684C45.1425 88.5356 45.5698 80.812 39.5185 77C33.4672 73.188 27.2336 71.2678 23.849 67.0997C20.4644 62.9316 16.6125 52.1026 6.76069 54.9459Z" fill="#A98AF4"/>
<path opacity="0.5" d="M29.1823 86.7749C17.1681 84.4615 6.2792 78.5983 3.4359 57.5726C-1.21938 64.2849 -1.04559 81.2194 4.74929 88.6268C7.5584 92.2108 9.67806 92.2251 13.1966 92.3447C19.3105 92.5555 22.8604 92.3931 27.416 92.4957C35.0684 92.6695 41.9687 93.2336 43.433 91.0712C44.2877 89.8148 44.8177 87.2877 44.3989 84.5897C44.3989 84.5897 41.1937 89.0883 29.1823 86.7749Z" fill="#8F78D6"/>
<path d="M13.1966 92.3391C10.0228 89.094 8.43875 82.5869 8.43875 82.5869C8.43875 82.5869 9.00855 89.8376 11.604 92.2735L13.1966 92.3391Z" fill="#8F78D6"/>
<path d="M12.7721 88.1196C12.7721 88.1196 12.1168 90.8632 13.1966 92.339H15.2735C15.2735 92.339 13.5242 92.5128 12.7721 88.1196Z" fill="#8F78D6"/>
<path d="M11.604 92.2735C11.604 92.2735 9.11681 90.1111 8.43875 88.5299C8.43875 88.5299 9.40741 91.2108 10.3932 92.1652C10.7806 92.2165 11.1852 92.2507 11.604 92.2735Z" fill="#8F78D6"/>
<path opacity="0.5" d="M28.6325 76.4872C28.6325 76.4872 28.265 71.7179 27.4929 70.6553C27.4929 70.6553 28.9174 71.4273 29.6268 72.5242C29.512 72.0718 29.3194 71.6427 29.057 71.2564C27.8014 70.5419 26.6149 69.712 25.5128 68.7778C27.7094 71.3647 28.6325 76.4872 28.6325 76.4872Z" fill="#8F78D6"/>
<path d="M30.8148 89.6923C30.8234 89.6396 30.8291 89.5863 30.8319 89.5328C30.8319 89.5328 30.8262 89.5926 30.8148 89.6923Z" fill="#8F78D6"/>
<path d="M32.7009 92.1995C33.9003 91.1254 33.9316 88.8177 33.9316 88.8177C33.116 90.3644 31.7288 91.5317 30.0655 92.0713C30.5385 91.7436 30.755 90.1909 30.8148 89.6923C30.7493 90.094 30.4245 91.2251 28.7977 92.5271C31.1254 92.5898 33.49 92.6695 35.6695 92.6866C36.2011 92.2747 36.6236 91.7385 36.9003 91.1254C35.1994 92.6895 32.7009 92.1995 32.7009 92.1995Z" fill="#8F78D6"/>
<path d="M32.9145 63.3846H35.3903L34.9744 66.1311H32.4786L32.9145 63.3846Z" fill="#A8CDF7"/>
</g>
<defs>
<clipPath id="clip0">
<rect width="100" height="93.7322" fill="white"/>
</clipPath>
</defs>
</svg>
