<svg width="100" height="73" viewBox="0 0 100 73" fill="none" xmlns="http://www.w3.org/2000/svg">
<path d="M87.688 47.5301H85.0443V65.3207H87.688V47.5301Z" fill="#9AA1A7"/>
<path d="M95.8829 42.7648H94.4186V47.7148H95.8829V42.7648Z" fill="#9AA1A7"/>
<path d="M96.4452 17.1733L93.2976 42.4475C93.2591 42.7569 93.493 43.0373 93.82 43.0738L96.1206 43.3302C96.4477 43.3667 96.7441 43.1454 96.7826 42.836L99.9302 17.5618C99.9688 17.2523 99.7349 16.9719 99.4078 16.9355L97.1072 16.679C96.7801 16.6426 96.4838 16.8638 96.4452 17.1733Z" fill="#191919"/>
<path d="M97.685 17.6078C97.5548 17.6064 97.4292 17.6536 97.3354 17.739C97.2416 17.8245 97.1871 17.9414 97.1837 18.0646L94.2471 41.6864C94.2203 41.8068 94.2445 41.9323 94.3146 42.036C94.3847 42.1396 94.495 42.2131 94.6218 42.2406V42.2406C94.752 42.2413 94.8775 42.194 94.9715 42.1087C95.0656 42.0235 95.1209 41.9069 95.1257 41.7837L98.0649 18.1619C98.0901 18.041 98.0646 17.9155 97.9937 17.812C97.9227 17.7086 97.812 17.6353 97.685 17.6078Z" fill="#303030"/>
<path d="M81.1051 67.39C81.1056 67.6786 81.0156 67.9608 80.8465 68.2009C80.6774 68.441 80.4368 68.6282 80.1552 68.7389C79.8735 68.8495 79.5635 68.8786 79.2643 68.8224C78.9652 68.7663 78.6904 68.6274 78.4747 68.4234C78.2591 68.2193 78.1123 67.9593 78.0529 67.6763C77.9935 67.3933 78.0243 67.1 78.1412 66.8335C78.2582 66.567 78.4561 66.3394 78.7099 66.1794C78.9637 66.0194 79.2619 65.9342 79.5669 65.9347C79.9749 65.9347 80.3661 66.0881 80.6546 66.361C80.9431 66.6339 81.1051 67.0041 81.1051 67.39V67.39Z" fill="#303030"/>
<path d="M95.0597 67.39C95.0603 67.6786 94.9703 67.9608 94.8012 68.2009C94.6321 68.441 94.3914 68.6282 94.1098 68.7389C93.8281 68.8495 93.5181 68.8786 93.2189 68.8224C92.9198 68.7663 92.645 68.6274 92.4294 68.4234C92.2137 68.2193 92.0669 67.9593 92.0075 67.6763C91.9482 67.3933 91.9789 67.1 92.0959 66.8335C92.2128 66.567 92.4107 66.3394 92.6645 66.1794C92.9183 66.0194 93.2166 65.9342 93.5215 65.9347C93.9291 65.9361 94.3195 66.0898 94.6077 66.3624C94.8958 66.6351 95.0583 67.0045 95.0597 67.39V67.39Z" fill="#303030"/>
<path d="M77.7121 65.3282H95.0202C95.1601 65.3282 95.2943 65.3808 95.3933 65.4744C95.4923 65.568 95.5479 65.695 95.5479 65.8274V66.5438H77.1765V65.8274C77.1765 65.695 77.2321 65.568 77.3311 65.4744C77.43 65.3808 77.5642 65.3282 77.7042 65.3282H77.7121Z" fill="#9AA1A7"/>
<path d="M87.2632 49.0827H86.5983V65.3207H87.2632V49.0827Z" fill="#9AA1A7"/>
<path d="M81.0972 40.0264H80.2582V45.2385H81.0972V40.0264Z" fill="#9AA1A7"/>
<path d="M91.672 40.0264H90.833V45.2385H91.672V40.0264Z" fill="#9AA1A7"/>
<path d="M78.4219 38.5761H92.8857C93.0187 38.5761 93.1462 38.6261 93.2402 38.715C93.3342 38.804 93.387 38.9246 93.387 39.0504V40.8801C93.387 40.9424 93.374 41.0041 93.3488 41.0616C93.3236 41.1192 93.2867 41.1714 93.2402 41.2155C93.1936 41.2595 93.1384 41.2945 93.0775 41.3183C93.0167 41.3421 92.9515 41.3544 92.8857 41.3544H78.4219C78.2889 41.3544 78.1614 41.3044 78.0674 41.2155C77.9734 41.1265 77.9206 41.0059 77.9206 40.8801V40.8801V39.0504C77.9206 38.9246 77.9734 38.804 78.0674 38.715C78.1614 38.6261 78.2889 38.5761 78.4219 38.5761Z" fill="#191919"/>
<path d="M77.0578 44.7393H95.8671C96.063 44.7393 96.2509 44.8129 96.3895 44.944C96.528 45.0751 96.6059 45.2528 96.6059 45.4382V49.2849C96.6059 49.3767 96.5867 49.4676 96.5496 49.5524C96.5125 49.6372 96.4581 49.7142 96.3895 49.7791C96.3209 49.844 96.2394 49.8955 96.1498 49.9306C96.0602 49.9658 95.9641 49.9838 95.8671 49.9838H77.0578C76.9608 49.9838 76.8647 49.9658 76.7751 49.9306C76.6854 49.8955 76.604 49.844 76.5354 49.7791C76.4668 49.7142 76.4124 49.6372 76.3753 49.5524C76.3381 49.4676 76.319 49.3767 76.319 49.2849V45.4382C76.319 45.2528 76.3969 45.0751 76.5354 44.944C76.674 44.8129 76.8619 44.7393 77.0578 44.7393Z" fill="#191919"/>
<path d="M10.7938 45.0139H8.12897V46.9859H10.7938V45.0139Z" fill="#9AA1A7"/>
<path d="M13.6591 48.8855H11.0128V66.6761H13.6591V48.8855Z" fill="#9AA1A7"/>
<path d="M17.5956 68.743C17.5951 69.0314 17.685 69.3135 17.854 69.5536C18.023 69.7937 18.2635 69.9809 18.545 70.0916C18.8265 70.2023 19.1364 70.2316 19.4354 70.1756C19.7345 70.1196 20.0093 69.981 20.2251 69.7772C20.4408 69.5734 20.5878 69.3137 20.6475 69.0308C20.7072 68.748 20.6768 68.4547 20.5603 68.1882C20.4437 67.9217 20.2462 67.6939 19.9928 67.5336C19.7393 67.3733 19.4413 67.2877 19.1365 67.2877C18.7283 67.2877 18.3367 67.4409 18.0478 67.7138C17.759 67.9866 17.5963 68.3568 17.5956 68.743V68.743Z" fill="#303030"/>
<path d="M3.64362 68.743C3.6431 69.0314 3.73302 69.3135 3.90201 69.5536C4.071 69.7937 4.31147 69.9809 4.59297 70.0916C4.87448 70.2023 5.18437 70.2316 5.48344 70.1756C5.78251 70.1196 6.0573 69.981 6.27306 69.7772C6.48881 69.5734 6.63583 69.3137 6.69549 69.0308C6.75516 68.748 6.7248 68.4547 6.60826 68.1882C6.49171 67.9217 6.29422 67.6939 6.04077 67.5336C5.78733 67.3733 5.48932 67.2877 5.18446 67.2877C4.98224 67.2874 4.78193 67.3248 4.595 67.3978C4.40807 67.4708 4.23819 67.5779 4.09508 67.7131C3.95196 67.8482 3.83842 68.0088 3.76096 68.1855C3.68349 68.3622 3.64362 68.5517 3.64362 68.743V68.743Z" fill="#303030"/>
<path d="M3.1344 67.8993H21.5163C21.5163 67.7385 21.4828 67.5792 21.4176 67.4306C21.3525 67.2821 21.257 67.1471 21.1367 67.0335C21.0164 66.9199 20.8735 66.8299 20.7164 66.7685C20.5592 66.7072 20.3908 66.6758 20.2208 66.6761H4.45361C4.28163 66.6728 4.11067 66.702 3.95076 66.762C3.79085 66.822 3.6452 66.9115 3.52234 67.0255C3.39948 67.1394 3.30189 67.2753 3.23527 67.4254C3.16866 67.5754 3.13436 67.7365 3.1344 67.8993V67.8993Z" fill="#9AA1A7"/>
<path d="M12.105 50.4357H11.4402V66.6761H12.105V50.4357Z" fill="#9AA1A7"/>
<path d="M21.8699 46.8835H2.80201C2.46541 46.8835 2.19254 47.1417 2.19254 47.4602V49.8965C2.19254 50.215 2.46541 50.4731 2.80201 50.4731H21.8699C22.2065 50.4731 22.4794 50.215 22.4794 49.8965V47.4602C22.4794 47.1417 22.2065 46.8835 21.8699 46.8835Z" fill="#303030"/>
<path d="M13.6538 45.2335H5.04466C4.0927 45.2309 3.18056 44.8718 2.50766 44.2347C1.83477 43.5976 1.45585 42.7343 1.45377 41.8337V30.5807C1.45864 28.6011 2.29183 26.7038 3.77114 25.3037C5.25045 23.9037 7.25552 23.1148 9.34793 23.1095C11.4408 23.1141 13.4465 23.9027 14.9264 25.3028C16.4063 26.703 17.2398 28.6006 17.2447 30.5807V41.8362C17.2419 42.7364 16.8627 43.599 16.1899 44.2356C15.5171 44.8721 14.6053 45.2309 13.6538 45.2335Z" fill="#191919"/>
<path d="M6.80712 24.41H14.0127C14.6893 24.41 15.3383 24.6643 15.8167 25.117C16.2952 25.5697 16.564 26.1837 16.564 26.8239V42.8347C16.564 42.9789 16.534 43.1217 16.4756 43.255C16.4173 43.3882 16.3318 43.5093 16.224 43.6113C16.1162 43.7133 15.9882 43.7942 15.8474 43.8494C15.7065 43.9046 15.5556 43.933 15.4031 43.933H5.41667C5.10878 43.933 4.8135 43.8173 4.59579 43.6113C4.37808 43.4053 4.25577 43.126 4.25577 42.8347V42.8347V26.8239C4.25577 26.1837 4.52457 25.5697 5.00304 25.117C5.48151 24.6643 6.13046 24.41 6.80712 24.41V24.41Z" fill="#303030"/>
<path d="M46.6263 27.9397C46.5828 27.8645 46.5726 27.7761 46.5978 27.6938C46.623 27.6115 46.6816 27.5419 46.7608 27.5004L48.051 26.8339C48.1312 26.7929 48.2253 26.7835 48.3128 26.8078C48.4002 26.8321 48.474 26.8881 48.518 26.9637V26.9637C48.5399 27.0008 48.5537 27.0417 48.5588 27.084C48.5638 27.1262 48.56 27.169 48.5475 27.2099C48.535 27.2507 48.5141 27.2888 48.4859 27.322C48.4577 27.3551 48.4229 27.3827 48.3834 27.403L47.0959 28.072C47.015 28.1129 46.9203 28.122 46.8323 28.0972C46.7444 28.0724 46.6703 28.0158 46.6263 27.9397Z" fill="#F1A782"/>
<path d="M46.2595 27.4355C46.2161 27.3603 46.2058 27.2719 46.2311 27.1895C46.2563 27.1072 46.3149 27.0377 46.3941 26.9961L47.6816 26.3296C47.7622 26.2885 47.8567 26.2791 47.9446 26.3034C48.0325 26.3277 48.1067 26.3837 48.1512 26.4594V26.4594C48.1731 26.4966 48.187 26.5375 48.192 26.5797C48.1971 26.622 48.1933 26.6648 48.1807 26.7056C48.1682 26.7465 48.1473 26.7846 48.1191 26.8177C48.091 26.8509 48.0562 26.8784 48.0167 26.8988L46.7291 27.5678C46.6482 27.6087 46.5535 27.6177 46.4656 27.593C46.3776 27.5682 46.3036 27.5116 46.2595 27.4355V27.4355Z" fill="#F1A782"/>
<path d="M45.935 26.9237C45.8915 26.8485 45.8813 26.7601 45.9065 26.6778C45.9317 26.5955 45.9903 26.526 46.0695 26.4844L47.3571 25.8179C47.3968 25.7969 47.4406 25.7835 47.4859 25.7787C47.5311 25.7738 47.5769 25.7776 47.6207 25.7896C47.6644 25.8017 47.7051 25.8219 47.7405 25.8491C47.7759 25.8762 47.8052 25.9097 47.8267 25.9477V25.9477C47.8486 25.9849 47.8624 26.0258 47.8675 26.068C47.8726 26.1103 47.8687 26.1531 47.8562 26.1939C47.8437 26.2348 47.8228 26.2728 47.7946 26.306C47.7665 26.3391 47.7316 26.3667 47.6922 26.387L46.4046 27.0535C46.324 27.0947 46.2295 27.1041 46.1416 27.0798C46.0537 27.0555 45.9795 26.9994 45.935 26.9237V26.9237Z" fill="#F1A782"/>
<path d="M45.6711 26.402C45.6277 26.3268 45.6175 26.2384 45.6427 26.1561C45.6679 26.0738 45.7265 26.0043 45.8057 25.9627L47.0933 25.2937C47.1742 25.2528 47.2689 25.2437 47.3568 25.2685C47.4448 25.2933 47.5188 25.3499 47.5629 25.426V25.426C47.6063 25.5012 47.6165 25.5896 47.5913 25.6719C47.5661 25.7542 47.5075 25.8237 47.4283 25.8653L46.1408 26.5318C46.101 26.5525 46.0572 26.5656 46.012 26.5702C45.9668 26.5749 45.9211 26.5711 45.8775 26.5591C45.8339 26.547 45.7932 26.5269 45.7578 26.5C45.7224 26.473 45.6929 26.4397 45.6711 26.402V26.402Z" fill="#F1A782"/>
<path d="M50.4309 24.42C50.4309 24.42 48.0009 24.6097 47.5603 24.7745C47.1197 24.9392 45.6923 26.0575 45.6923 26.0575C45.6923 26.0575 46.4838 26.3072 46.6395 26.6916C46.7952 27.076 47.0933 28.072 47.0933 28.072C47.0933 28.072 48.6632 27.71 49.2964 27.3231C49.7153 27.0642 50.106 26.7665 50.4626 26.4345L50.4309 24.42Z" fill="#F1A782"/>
<path d="M49.5707 27.3581L51.3042 26.4045L50.2804 23.9757L48.1882 24.5323L49.5707 27.3581Z" fill="#E2F1FD"/>
<path d="M67.8497 13.9059C69.2613 14.857 68.8523 16.2449 67.7758 17.4955C66.6993 18.7461 59.7946 24.0655 59.2432 24.063C58.6917 24.0605 56.8686 22.453 57.0955 21.7366C57.3224 21.0201 62.3248 15.4436 63.4013 14.5599C64.4778 13.6762 66.1928 12.7926 67.8497 13.9059Z" fill="#191919"/>
<path d="M69.752 5.3688C69.752 5.3688 71.1715 9.90195 71.5092 10.0567C72.8233 10.6832 73.9949 11.5474 74.9576 12.6004C76.0631 13.8884 75.6885 20.2014 75.7491 22.4879C75.8098 24.7745 77.757 27.8698 78.6514 29.9092C79.5458 31.9486 73.1793 36.1797 72.9208 36.2421C72.6622 36.3045 69.8628 34.8293 69.2481 34.2452C68.6333 33.661 67.6281 28.1144 67.2613 26.7265C66.8946 25.3386 65.2746 20.5583 65.1242 20.2563C64.1243 18.2369 64.2614 16.4271 64.2298 15.9578C64.1981 15.4885 63.9659 14.7421 64.1348 14.4002C64.4593 13.7162 66.8972 12.3408 66.8656 12.0437C66.8339 11.7467 66.1453 7.6878 66.1453 7.6878L69.752 5.3688Z" fill="#F4BE9A"/>
<path d="M71.5092 10.0567L67.8919 13.4616L66.8682 12.0387C66.8682 12.0387 64.3512 13.7361 64.1401 14.3926C63.929 15.0492 64.082 16.3272 64.0847 16.8165C64.0873 17.3057 64.5754 19.445 65.2509 21.2398C65.6466 22.2907 65.9923 23.721 66.6492 25.5158C67.2112 27.051 68.0608 31.0075 68.0608 31.0075C68.0608 31.0075 69.6597 30.698 72.087 30.009C74.8969 29.2078 78.0789 28.4614 78.1791 28.3316C78.6171 27.7774 76.3322 23.444 76.3191 22.9622C76.3059 22.4804 75.7914 14.0681 75.5777 13.0097C75.3639 11.9513 74.5038 11.4321 73.678 10.9653C72.9851 10.602 72.2593 10.2979 71.5092 10.0567V10.0567Z" fill="#D0DFFB"/>
<path d="M73.087 10.6608C73.087 10.6608 71.7678 11.6967 71.2902 13.0896C70.0079 16.834 74.4194 20.778 72.0817 21.9762C68.3668 23.8908 69.2349 24.8743 69.2507 25.6382C69.2529 26.9257 69.1798 28.2124 69.0317 29.4923L77.976 28.4938C79.1712 28.4389 76.3744 23.8234 76.2979 22.5978C75.9787 17.3557 75.6753 13.5464 75.4906 12.6977C75.2373 11.5395 73.087 10.6608 73.087 10.6608Z" fill="#BCD0FA"/>
<path d="M66.4566 9.44014L70.3694 6.96388L71.1081 9.34778L69.9842 10.4212L66.4566 9.44014Z" fill="#F1A782"/>
<path d="M64.4699 1.63444C65.4514 0.548585 68.5964 -0.707017 70.4512 1.1352C72.306 2.97741 71.8654 5.05927 71.1583 6.39725C70.6095 7.44067 70.0238 8.04975 68.7995 8.74869C68.5489 8.89098 66.2033 9.55747 65.7047 9.45762C65.3643 9.39022 64.8234 7.16109 64.7284 7.18356C64.6388 7.18449 64.551 7.15939 64.477 7.11162C64.4029 7.06386 64.3461 6.99574 64.3142 6.91646C64.2588 6.65186 64.3564 4.99437 64.2667 4.83211C64.177 4.66986 63.3433 2.87756 64.4699 1.63444Z" fill="#F4BE9A"/>
<path d="M63.9343 2.7153C63.9343 2.7153 65.6334 1.53459 68.1557 3.23202C68.6993 3.59897 68.0054 5.4961 68.1557 5.64088C68.3061 5.78566 69.7889 4.12318 69.7388 4.33286C69.3457 6.48461 70.2111 7.5455 70.4116 7.53552C71.0237 7.50307 72.5223 4.36032 71.2902 2.09874C70.058 -0.162846 67.3457 -0.0904552 66.7204 0.101754C66.0951 0.293964 64.1796 0.675887 63.9343 2.7153Z" fill="#82402C"/>
<path d="M68.7573 4.69482C68.628 5.37878 68.6412 6.27992 69.0212 6.34233C69.4011 6.40473 69.8338 5.90299 69.9631 5.21653C70.0924 4.53007 69.8786 3.92598 69.4882 3.86357C69.0977 3.80117 68.884 4.00835 68.7573 4.69482Z" fill="#F4BE9A"/>
<path d="M74.1951 68.6681H71.3615V69.1699H74.1951V68.6681Z" fill="#191919"/>
<path d="M74.1423 65.1809C74.503 65.756 74.728 66.398 74.8019 67.063C74.8468 67.5922 74.5117 68.7056 74.145 68.7056C72.99 68.6976 71.8356 68.7585 70.6886 68.8878C69.5831 69.0301 69.1689 69.6367 66.3432 69.6242C65.5173 69.6242 64.0187 69.5742 64.0609 69.2572C64.1031 68.9402 66.7732 68.3636 67.636 67.6122C69.8101 65.7151 71.2612 65.2558 71.2612 65.2558C71.2612 65.2558 74.0658 65.0785 74.1423 65.1809Z" fill="#0F0D0D"/>
<path d="M76.3876 31.1299C76.3876 31.1299 76.5723 32.2157 76.7465 33.7709C76.9206 35.326 75.327 40.311 74.7676 44.2301C74.2083 48.1491 73.8574 48.9404 73.9972 49.864C74.1371 50.7876 75.3666 54.5395 75.2109 57.0332C75.0552 59.5269 74.5249 66.0471 74.5249 66.0471C73.8412 66.3017 73.1207 66.4566 72.3878 66.5064C71.029 66.6312 70.0871 65.5229 70.0871 65.5229C70.0871 65.5229 68.9948 50.9549 68.8206 49.4172C68.7098 48.4187 67.8497 41.5566 67.5885 35.9625C67.5041 34.1628 67.7204 29.9991 67.7178 29.2552C67.7151 28.7335 76.3876 31.1299 76.3876 31.1299Z" fill="#191919"/>
<path d="M80.3083 69.8389L83.0998 69.3721L83.0048 68.8728L80.2133 69.3222L80.3083 69.8389Z" fill="#191919"/>
<path d="M82.2397 65.3531C82.705 65.8826 83.0483 66.4981 83.2475 67.1604C83.3926 67.6896 83.2792 68.8778 82.9177 68.9377C81.7774 69.1161 80.6509 69.3663 79.5458 69.6866C78.4904 70.0111 77.6039 71.1669 75.4088 71.1494C74.5829 71.1494 72.9709 71.1644 73.0342 70.8374C73.1688 70.0336 75.6014 69.7964 76.3032 68.8928C78.0841 66.6038 79.4245 65.8973 79.4245 65.8973C79.4245 65.8973 82.1447 65.2633 82.2397 65.3531Z" fill="#191919"/>
<path d="M78.0657 28.5887C78.0657 28.5887 79.282 30.7979 79.4904 32.72C79.6593 34.2751 79.5379 37.1807 79.4588 41.1347C79.3796 45.0888 79.7701 48.7108 80.0234 49.6219C80.2767 50.533 82.055 54.2774 82.2027 56.7711C82.3505 59.2648 82.7304 65.6028 82.7304 65.6028C81.985 66.0151 81.177 66.3165 80.3347 66.4964C79.6015 66.6733 78.8264 66.6091 78.1369 66.3142C78.1369 66.3142 74.7808 51.9883 73.9946 50.6304C72.744 48.4612 71.715 41.3045 70.4406 36.4893C69.9261 34.5447 68.0529 29.9741 68.0529 29.9741L78.0657 28.5887Z" fill="#303030"/>
<path d="M67.8286 12.4631L67.8919 13.4616L69.8021 11.6817L67.8286 12.4631Z" fill="#BCD0FA"/>
<path d="M67.8919 13.4616L67.227 12.3632L66.7943 12.8874L67.8919 13.4616Z" fill="#BCD0FA"/>
<path d="M68.3035 12.8325L66.921 12.7901L67.1162 14.0382L67.8602 14.0856L68.3035 12.8325Z" fill="#303030"/>
<path d="M67.8576 14.0756C67.8576 14.0756 67.4698 17.4655 67.731 19.9892C67.9922 22.5129 68.6887 30.4309 68.6887 30.4309L67.7019 32.3031L66.6861 30.5183C66.6861 30.5183 66.6307 22.7201 66.6387 19.9443C66.6755 17.9652 66.834 15.9898 67.1136 14.0282L67.8576 14.0756Z" fill="#303030"/>
<path d="M71.5092 10.0567C71.5092 10.0567 69.1636 13.5714 68.3009 16.13C67.4381 18.6887 66.9183 21.1449 66.9183 21.1449L68.6887 36.2471C70.86 36.2198 73.0275 36.0672 75.1792 35.7903C76.9135 35.5578 78.6156 35.1468 80.2556 34.5647C80.0536 33.2799 79.7735 32.0072 79.4165 30.7529C78.6382 28.0071 77.4298 24.4874 77.224 23.1095C76.8599 20.6532 76.5354 13.3742 75.4193 11.9888C74.3033 10.6034 71.5092 10.0567 71.5092 10.0567Z" fill="#303030"/>
<path d="M66.359 12.2359C66.359 12.2359 66.0001 15.6807 66.1532 17.478C66.3073 18.8431 66.5719 20.195 66.9447 21.5219L68.6834 36.2496L66.359 35.3734C66.359 35.3734 63.9844 18.9233 63.8841 16.9887C63.7839 15.0541 63.7786 14.3727 64.0926 14.0207C64.4065 13.6687 66.359 12.2359 66.359 12.2359Z" fill="#191919"/>
<path d="M74.079 11.7342C75.6885 11.9089 75.2901 19.7795 74.5777 22.8099C73.8653 25.8403 68.6887 36.2421 68.6887 36.2421C68.6887 36.2421 66.5991 22.2183 66.95 21.5144C67.227 20.9602 68.1241 19.0431 68.6887 17.6427C69.8655 14.7371 72.1002 11.5195 74.079 11.7342Z" fill="#191919"/>
<path d="M67.227 12.3607L66.5727 13.5689L66.1532 12.543L66.7363 11.6693L67.227 12.3607Z" fill="#E2F1FD"/>
<path d="M73.5804 11.6393C75.2452 11.7891 75.604 13.2045 75.3323 14.822C75.0605 16.4396 72.021 24.9193 71.5567 25.1839C71.0923 25.4485 68.2956 24.9792 68.1267 24.2403C67.9579 23.5014 69.9446 15.7681 70.3958 14.475C70.8469 13.182 71.6332 11.4646 73.5804 11.6393Z" fill="#303030"/>
<path d="M49.2356 27.3406C48.8261 27.5656 48.3917 27.7472 47.9402 27.8823C47.8584 27.9072 47.7502 27.9871 47.6763 28.0121C47.6024 28.037 47.4758 28.027 47.4125 28.0445C47.3492 28.062 47.3096 28.1094 47.2542 28.1269C47.1988 28.1444 47.0563 28.1119 46.9903 28.1269C46.9244 28.1419 46.8162 28.2068 46.7581 28.2292C46.5339 28.3116 46.4943 28.1618 46.4125 28.1818C46.3052 28.219 46.1936 28.2442 46.0801 28.2567C45.869 28.2567 45.0986 27.7574 45.0062 27.6326C44.9139 27.5078 44.2305 26.9911 44.2727 26.9137C44.315 26.8363 44.6316 26.714 45.0379 26.9537C45.4442 27.1933 45.9534 27.4654 45.8822 27.3905C45.7136 27.137 45.5772 26.8655 45.4759 26.5817C45.4337 26.4369 45.5867 26.3645 45.7186 26.3546C45.7951 26.3546 46.1355 26.6217 46.1355 26.6217C46.1355 26.6217 46.2305 26.3321 46.2991 26.3221C46.5312 26.2872 46.7159 26.5717 46.8056 26.6366C46.8953 26.7015 46.8584 26.3446 46.9613 26.3396C47.3439 26.3221 47.6367 27.1658 47.9771 26.9961C48.1328 26.9112 48.9639 26.8863 49.2356 27.3406Z" fill="#F1A782"/>
<path d="M64.082 34.0205C64.082 34.0205 64.0108 35.3185 63.1744 35.5632C62.338 35.8078 61.4014 35.3135 61.156 35.2611C60.1534 35.0115 59.0849 35.7604 58.4595 35.7254C57.8342 35.6905 57.7894 35.311 58.0137 35.2561C59.2669 34.9366 59.9318 34.37 60.5043 34.2976C61.0769 34.2252 63.0847 33.3914 63.0847 33.3914L64.082 34.0205Z" fill="#F4BE9A"/>
<path d="M64.1849 34.9716L65.2086 33.4738L63.0636 32.0335L62.0425 33.5312L64.1849 34.9716Z" fill="#E2F1FD"/>
<path d="M72.1609 10.1615L71.1055 9.34029L67.8286 12.4631L68.781 13.6188L72.1609 10.1615Z" fill="#E2F1FD"/>
<path d="M60.9449 21.0351C60.3829 19.3527 56.7498 20.5608 55.0349 21.3147C53.3199 22.0685 48.4388 24.3301 48.4388 24.3301L49.9084 27.2907C53.0873 26.4419 56.1995 25.3834 59.222 24.1229C59.7128 23.9158 61.5175 22.75 60.9449 21.0351Z" fill="#191919"/>
<path d="M71.2876 22.9647C72.8389 23.8708 70.4512 27.6401 69.3167 29.0555C68.1821 30.4709 64.7232 34.7045 64.7232 34.7045L62.0399 32.9421C62.0399 32.9421 64.644 28.2991 67.5647 24.2403C67.8655 23.8209 69.7098 22.0411 71.2876 22.9647Z" fill="#303030"/>
<path d="M38.7822 33.7808C38.7822 33.7808 38.7585 34.9815 39.5737 35.2586C40.389 35.5357 41.3599 35.1388 41.608 35.1014C42.6264 34.9416 43.6369 35.6905 44.2648 35.6905C44.8928 35.6905 44.964 35.3485 44.745 35.2836C43.5155 34.9141 42.8981 34.3525 42.3309 34.2501C41.7636 34.1478 39.8217 33.2516 39.8217 33.2516L38.7822 33.7808Z" fill="#F4BE9A"/>
<path d="M38.9299 34.5772C38.9299 34.5772 39.3494 35.356 39.8534 35.5906C40.3573 35.8253 41.0512 35.5557 41.5024 35.703C41.9536 35.8502 41.8744 35.5906 41.848 35.5207C41.8216 35.4508 41.2623 35.2711 41.0248 35.1613C40.7874 35.0514 39.9985 34.1253 38.9299 34.5772Z" fill="#F4BE9A"/>
<path d="M34.2916 23.5189C35.8324 22.6227 37.5369 25.7804 38.2888 27.3605C39.0408 28.9407 40.7267 33.7509 40.7267 33.7509L38.959 34.6096C36.8608 32.1908 35.0241 29.5792 33.4763 26.8139C33.2442 26.387 32.7244 24.43 34.2916 23.5189Z" fill="#BCD0FA"/>
<path d="M40.3151 32.1982L41.0803 33.7184L38.7057 34.8992L37.7849 33.4014L40.3151 32.1982Z" fill="#E2F1FD"/>
<path d="M32.136 13.4341C30.4052 13.4815 29.9303 14.852 30.0912 16.4595C30.2522 18.0671 32.8668 26.1174 33.3233 26.4045C33.7797 26.6916 36.2493 26.3171 36.4894 25.5982C36.7295 24.8793 35.5976 17.7176 35.2256 16.4171C34.8536 15.1166 34.165 13.3792 32.136 13.4341Z" fill="#BCD0FA"/>
<path d="M28.5319 5.59595C28.5319 5.59595 27.2127 10.1566 26.8829 10.3188C25.5831 10.9709 24.4312 11.8581 23.4925 12.9299C22.4161 14.2404 22.9332 20.5434 22.9306 22.8299C22.9279 25.1164 21.0467 28.2517 20.1866 30.3186C19.3265 32.3855 25.7985 36.4768 26.0597 36.5342C26.3209 36.5916 29.0834 35.0614 29.6849 34.4573C30.2865 33.8532 31.1677 28.2941 31.5028 26.9012C31.8379 25.5083 33.3497 20.6931 33.4922 20.3886C34.4473 18.3492 34.2679 16.5394 34.2837 16.0701C34.2995 15.6008 34.5106 14.852 34.3417 14.5125C34.0014 13.836 31.5318 12.5155 31.5582 12.2134C31.5846 11.9114 32.1809 7.84005 32.1809 7.84005L28.5319 5.59595Z" fill="#F4BE9A"/>
<path d="M26.8803 10.3188L30.5741 13.6563L31.5635 12.2109C31.5635 12.2109 34.1201 13.8585 34.3444 14.51C34.5686 15.1615 34.4446 16.4445 34.4552 16.9313C34.4657 17.4181 34.0225 19.5698 33.3998 21.3796C33.0278 22.438 32.7138 23.8758 32.0991 25.6806C31.5714 27.2282 30.8115 31.1972 30.8115 31.1972C30.8115 31.1972 29.2047 30.9177 26.7615 30.2736C23.9358 29.5248 20.738 28.8458 20.6351 28.7185C20.1866 28.1743 22.3633 23.7959 22.3738 23.3117C22.3844 22.8274 22.6957 14.4101 22.9015 13.3467C23.1073 12.2833 23.9384 11.7466 24.7484 11.2649C25.4275 10.8894 26.141 10.5728 26.8803 10.3188V10.3188Z" fill="#D0DFFB"/>
<path d="M24.0967 11.6593C24.0967 11.6593 27.0702 11.6593 27.5768 13.0347C28.9435 16.7566 28.4897 17.6078 30.8432 18.7611C34.6082 20.6033 31.2152 25.5733 31.2152 26.3346C31.2045 27.4386 31.1119 28.5404 30.9382 29.6321L20.8356 28.8833C19.6378 28.8508 22.3316 24.1804 22.3791 22.9547C22.5796 17.7126 22.73 13.8784 22.9622 13.0397C23.1944 12.201 24.0967 11.6593 24.0967 11.6593Z" fill="#BCD0FA"/>
<path d="M31.9329 9.5974L27.962 7.20102L27.2787 9.5974L28.429 10.6483L31.9329 9.5974Z" fill="#F1A782"/>
<path d="M33.7401 1.75425C32.7323 0.688359 29.5609 -0.492356 27.7483 1.37981C25.9357 3.25198 26.4291 5.33134 27.1573 6.65434C27.7325 7.68778 28.3287 8.28438 29.5714 8.95836C29.8353 9.09565 32.1835 9.70723 32.6795 9.60488C33.0199 9.52999 33.5106 7.29338 33.6056 7.30835C33.6953 7.3077 33.7826 7.28102 33.8557 7.23192C33.9289 7.18281 33.9843 7.11365 34.0145 7.03377C34.062 6.76917 33.9275 5.11417 34.0145 4.94942C34.1016 4.78467 34.8852 2.9749 33.7401 1.75425Z" fill="#F4BE9A"/>
<path d="M34.2916 2.82513C34.2916 2.82513 32.5634 1.67936 30.0701 3.42672C29.5424 3.80365 30.2707 5.6883 30.1308 5.83558C29.991 5.98286 28.4633 4.33785 28.5082 4.56001C28.9488 6.70177 28.1071 7.78014 27.9066 7.77265C27.2919 7.75518 24.9278 4.52756 26.1099 2.25599C27.2919 -0.0155731 30.6163 -0.125407 31.2442 0.0618097C31.8722 0.249027 35.6979 0.199102 34.2916 2.82513Z" fill="#82402C"/>
<path d="M29.5187 4.89949C29.6638 5.58346 29.6691 6.4846 29.2786 6.55449C28.8881 6.62439 28.4554 6.13013 28.3103 5.44866C28.1652 4.76719 28.3657 4.15562 28.7562 4.08323C29.1467 4.01084 29.3709 4.21802 29.5187 4.89949Z" fill="#F4BE9A"/>
<path d="M27.3104 68.9677H24.4767V69.4694H27.3104V68.9677Z" fill="#191919"/>
<path d="M24.5875 65.443C24.2268 66.0181 24.0018 66.6601 23.9279 67.3251C23.883 67.8543 24.2155 68.9677 24.5822 68.9677C25.7381 68.9597 26.8934 69.0206 28.0412 69.1499C29.1467 69.2922 29.5609 69.8988 32.3867 69.8863C33.2125 69.8863 34.7111 69.8364 34.6663 69.5193C34.6214 69.2023 31.954 68.6257 31.0938 67.8743C28.9171 65.9772 27.4686 65.5179 27.4686 65.5179C27.4686 65.5179 24.664 65.3431 24.5875 65.443Z" fill="#0F0D0D"/>
<path d="M22.3422 31.3795C22.3422 31.3795 22.1575 32.4653 21.986 34.023C21.8145 35.5806 23.4028 40.5606 23.9648 44.4797C24.5268 48.3988 24.8751 49.1901 24.7352 50.1162C24.5954 51.0423 23.3659 54.7891 23.5216 57.2828C23.6772 59.7766 24.2075 66.2992 24.2075 66.2992C24.8917 66.5519 25.6121 66.7059 26.3447 66.756C27.7035 66.8808 28.6454 65.775 28.6454 65.775C28.6454 65.775 29.7377 51.2045 29.9118 49.6668C30.0226 48.6683 30.8828 41.8087 31.144 36.2122C31.231 34.4099 31.012 30.2487 31.0147 29.5048C31.0147 28.9956 22.3422 31.3795 22.3422 31.3795Z" fill="#191919"/>
<path d="M23.5084 70.393L20.68 70.2258L20.7143 69.709L23.5427 69.8763L23.5084 70.393Z" fill="#191919"/>
<path d="M21.0758 66.077C20.6736 66.6505 20.4039 67.2978 20.2842 67.9767C20.2024 68.5183 20.4557 69.6866 20.8119 69.709C21.963 69.7688 23.1088 69.8997 24.2419 70.101C25.3342 70.3106 25.7035 70.9547 28.5267 71.1169C29.3498 71.1644 30.8485 71.2018 30.8274 70.8673C30.8063 70.5328 28.1889 69.7864 27.3763 68.9627C25.3368 66.8758 23.9226 66.3192 23.9226 66.3192C23.9226 66.3192 21.1575 65.9847 21.0758 66.077Z" fill="#191919"/>
<path d="M20.585 28.8508C20.585 28.8508 19.6484 31.1798 19.6747 33.1094C19.6958 34.6745 20.1708 37.5477 20.7301 41.4642C21.2895 45.3808 21.3449 49.0253 21.205 49.9514C21.0652 50.8775 19.7565 54.7991 19.9122 57.2928C20.0679 59.7865 20.7829 65.9397 20.7829 65.9397C21.4133 66.4031 22.1721 66.684 22.9675 66.7485C23.7175 66.8427 24.4791 66.694 25.1284 66.3267C25.1284 66.3267 26.7114 51.7312 27.3235 50.2934C28.2997 48.0019 28.4475 40.7828 29.1256 35.8602C29.3894 33.8632 30.677 29.5148 30.677 29.5148L20.585 28.8508Z" fill="#303030"/>
<path d="M30.6163 12.6578L30.5767 13.6563L28.6269 11.9089L30.6163 12.6578Z" fill="#BCD0FA"/>
<path d="M30.5741 13.6563L31.2126 12.543L31.6585 13.0597L30.5741 13.6563Z" fill="#BCD0FA"/>
<path d="M30.1545 13.0272L31.5344 12.9598L31.3656 14.2079L30.6242 14.2678L30.1545 13.0272Z" fill="#303030"/>
<path d="M26.2339 10.4411L27.2892 9.5999L30.6163 12.6578L29.6902 13.831L26.2339 10.4411Z" fill="#E2F1FD"/>
<path d="M31.2152 12.5354L31.8986 13.7286L32.2943 12.6952L31.6928 11.8315L31.2152 12.5354Z" fill="#E2F1FD"/>
<path d="M20.5481 28.7959C20.5481 28.7959 23.4741 28.9806 26.3763 29.0879C29.2786 29.1953 31.0279 29.2677 31.0279 29.2677L31.0437 30.356C31.0437 30.356 28.0676 30.4184 25.0043 30.2437C21.9807 30.0715 20.2552 29.8193 20.2552 29.8193L20.5481 28.7959Z" fill="#371D1E"/>
<path d="M30.8564 29.2427H29.8036C29.722 29.2427 29.6559 29.3053 29.6559 29.3825V30.3635C29.6559 30.4407 29.722 30.5033 29.8036 30.5033H30.8564C30.938 30.5033 31.0041 30.4407 31.0041 30.3635V29.3825C31.0041 29.3053 30.938 29.2427 30.8564 29.2427Z" fill="#6A3022"/>
<path d="M30.6242 14.2629C30.6242 14.2629 31.0886 17.6452 30.888 20.1714C30.6875 22.6976 30.5002 30.6032 30.5002 30.6032L31.5292 32.4554L32.5054 30.6506C32.5054 30.6506 32.0516 22.8798 31.9777 20.104C31.8968 18.1259 31.6942 16.1538 31.3709 14.198L30.6242 14.2629Z" fill="#303030"/>
<path d="M46.7661 27.9771C46.8132 27.9099 46.8308 27.828 46.815 27.7487C46.7992 27.6694 46.7514 27.5991 46.6816 27.5528L45.5339 26.8039C45.4626 26.7595 45.3757 26.7433 45.2919 26.7587C45.2081 26.7741 45.134 26.8199 45.0854 26.8863V26.8863C45.0378 26.9536 45.0203 27.0359 45.0366 27.1154C45.0529 27.1949 45.1017 27.265 45.1725 27.3106L46.3175 28.0595C46.3889 28.1038 46.4757 28.12 46.5595 28.1047C46.6433 28.0893 46.7174 28.0435 46.7661 27.9771V27.9771Z" fill="#F1A782"/>
<path d="M47.1565 27.5328C47.2041 27.4655 47.2216 27.3831 47.2053 27.3036C47.189 27.2242 47.1402 27.154 47.0695 27.1084L45.9244 26.3596C45.8896 26.3365 45.8502 26.3203 45.8086 26.3118C45.7671 26.3033 45.7242 26.3028 45.6824 26.3102C45.6406 26.3177 45.6008 26.3329 45.5653 26.3551C45.5299 26.3773 45.4995 26.406 45.4759 26.4394C45.4283 26.5067 45.4108 26.5891 45.4271 26.6686C45.4434 26.748 45.4922 26.8182 45.5629 26.8638L46.708 27.6127C46.779 27.6573 46.8657 27.6739 46.9494 27.6589C47.0332 27.644 47.1075 27.5988 47.1565 27.5328V27.5328Z" fill="#F1A782"/>
<path d="M47.5075 27.081C47.5543 27.0135 47.5715 26.9313 47.5552 26.852C47.5389 26.7727 47.4906 26.7026 47.4204 26.6566L46.2753 25.9077C46.2038 25.8626 46.1163 25.846 46.0319 25.8614C45.9475 25.8768 45.8728 25.923 45.8242 25.9901V25.9901C45.7766 26.0574 45.7591 26.1398 45.7754 26.2193C45.7917 26.2987 45.8405 26.3689 45.9112 26.4145L47.0537 27.1633C47.1253 27.2089 47.213 27.226 47.2978 27.211C47.3826 27.1961 47.4579 27.1503 47.5075 27.0835V27.081Z" fill="#F1A782"/>
<path d="M47.803 26.6117C47.8505 26.5444 47.8681 26.462 47.8517 26.3825C47.8354 26.3031 47.7866 26.2329 47.7159 26.1873L46.5735 25.4384C46.5384 25.4153 46.4989 25.3991 46.4571 25.3906C46.4153 25.3821 46.3722 25.3815 46.3302 25.3889C46.2882 25.3964 46.2482 25.4116 46.2125 25.4339C46.1768 25.4561 46.1461 25.4848 46.1223 25.5183C46.0745 25.5853 46.0565 25.6675 46.0723 25.7469C46.0882 25.8264 46.1364 25.8967 46.2067 25.9427L47.3518 26.6916C47.423 26.7369 47.5103 26.754 47.5947 26.739C47.6791 26.7241 47.7539 26.6783 47.803 26.6117V26.6117Z" fill="#F1A782"/>
<path d="M43.5287 24.3301C43.5287 24.3301 45.7846 24.722 46.183 24.9167C46.5814 25.1114 47.8135 26.2872 47.8135 26.2872C47.8135 26.2872 47.0457 26.4619 46.869 26.8014C46.6922 27.1409 46.3149 28.0495 46.3149 28.0495C46.3149 28.0495 44.8822 27.5702 44.3229 27.1608C43.9538 26.8815 43.616 26.567 43.315 26.2223L43.5287 24.3301Z" fill="#F1A782"/>
<path d="M23.9358 12.498C22.5638 13.4965 23.0308 14.8694 24.1574 16.0826C25.284 17.2958 32.3998 22.3556 32.9513 22.3232C33.5027 22.2907 35.2625 20.6282 35.0013 19.9193C34.7401 19.2104 29.3868 14.0357 28.2786 13.192C27.1705 12.3483 25.5426 11.3273 23.9358 12.498Z" fill="#D0DFFB"/>
<path d="M31.9091 20.114C30.9883 21.6692 34.4103 23.3965 36.186 24.058C37.9616 24.7195 43.344 26.4794 43.344 26.4794L44.2147 24.3776C44.2147 24.3776 40.1805 22.0461 35.5079 19.772C34.3655 19.2253 32.8484 18.5314 31.9091 20.114Z" fill="#D0DFFB"/>
<path d="M43.0377 23.5857L41.7806 26.0384L43.4899 26.8226L44.747 24.3699L43.0377 23.5857Z" fill="#E2F1FD"/>
<path d="M36.2229 35.7853H33.7665V71.1943H36.2229V35.7853Z" fill="#7B848C"/>
<path d="M65.1321 35.7853H62.6758V71.1943H65.1321V35.7853Z" fill="#7B848C"/>
<path d="M64.7231 36.4368H34.1095V68.9427H64.7231V36.4368Z" fill="#7B848C"/>
<path d="M65.0899 40.3359L33.7665 40.9101V38.998L65.0899 39.0179V40.3359Z" fill="#B8B8BC"/>
<path d="M68.2296 35.6905H30.8036V39.0379H68.2296V35.6905Z" fill="#9AA1A7"/>
<path d="M0.572528 61.6013H15.535C15.605 61.6013 15.6721 61.6276 15.7216 61.6744C15.7711 61.7212 15.7989 61.7847 15.7989 61.8509V71.7609C15.7989 71.8271 15.7711 71.8906 15.7216 71.9375C15.6721 71.9843 15.605 72.0106 15.535 72.0106H0.572528C0.502552 72.0106 0.435443 71.9843 0.385963 71.9375C0.336483 71.8906 0.308685 71.8271 0.308685 71.7609V61.8335C0.313367 61.7703 0.343218 61.7112 0.3922 61.6681C0.441182 61.625 0.505638 61.6011 0.572528 61.6013V61.6013Z" fill="#353432"/>
<path d="M5.22144 61.2044C5.08565 61.1965 4.95074 61.2298 4.83623 61.2992C4.72256 61.3537 4.59689 61.3819 4.46949 61.3816H4.03415C3.87584 61.3816 3.92334 61.5963 3.92334 61.5963H5.38766C5.40867 61.5686 5.42347 61.5372 5.43115 61.5039C5.43882 61.4706 5.43921 61.4361 5.43229 61.4027C5.42537 61.3693 5.41129 61.3375 5.3909 61.3094C5.37052 61.2813 5.34428 61.2575 5.31378 61.2393C5.28648 61.2207 5.25478 61.2087 5.22144 61.2044V61.2044Z" fill="#353432"/>
<path d="M15.4717 61.8085H0.646415C0.474975 61.8085 0.310558 61.8729 0.189332 61.9876C0.0681057 62.1023 1.09397e-06 62.2579 1.09397e-06 62.4201V62.4201V63.9178C-0.000345573 64.3133 0.0817021 64.7051 0.241454 65.0706C0.401206 65.4361 0.635531 65.7683 0.931036 66.0481C1.22654 66.3279 1.57743 66.5499 1.96365 66.7014C2.34988 66.8528 2.76386 66.9308 3.18194 66.9307H12.9441C13.7882 66.9308 14.5979 66.6137 15.195 66.0492C15.7922 65.4847 16.128 64.7189 16.1287 63.9203V63.9203V62.4226C16.1287 62.342 16.1119 62.2623 16.0792 62.1879C16.0466 62.1136 15.9987 62.0461 15.9384 61.9892C15.8781 61.9324 15.8065 61.8874 15.7278 61.8568C15.6491 61.8262 15.5647 61.8107 15.4796 61.811L15.4717 61.8085Z" fill="#242321"/>
<path d="M15.4717 61.6013H0.646415C0.474975 61.6013 0.310558 61.6657 0.189332 61.7804C0.0681057 61.8951 1.09397e-06 62.0507 1.09397e-06 62.2129V63.7106C-0.000345573 64.1062 0.0817021 64.4979 0.241454 64.8634C0.401206 65.229 0.635531 65.5611 0.931036 65.8409C1.22654 66.1207 1.57743 66.3427 1.96365 66.4942C2.34988 66.6456 2.76386 66.7236 3.18194 66.7236H12.9441C13.7882 66.7236 14.5979 66.4065 15.195 65.842C15.7922 65.2775 16.128 64.5118 16.1287 63.7131V63.7131V62.2154C16.1287 62.1341 16.1116 62.0536 16.0785 61.9786C16.0454 61.9036 15.9969 61.8356 15.9358 61.7785C15.8747 61.7214 15.8022 61.6763 15.7225 61.6459C15.6429 61.6155 15.5576 61.6003 15.4717 61.6013V61.6013Z" fill="#4C4B49"/>
<path d="M5.61457 60.4006H5.03412C5.01808 60.4003 5.00214 60.403 4.98725 60.4087C4.97236 60.4143 4.95884 60.4228 4.94749 60.4335C4.93615 60.4442 4.92723 60.457 4.92125 60.4711C4.91528 60.4852 4.91239 60.5003 4.91275 60.5154C4.91275 60.5459 4.92554 60.5751 4.9483 60.5966C4.97106 60.6182 5.00193 60.6303 5.03412 60.6303H5.61457C5.64676 60.6303 5.67763 60.6182 5.70039 60.5966C5.72315 60.5751 5.73594 60.5459 5.73594 60.5154C5.7363 60.5003 5.73341 60.4852 5.72743 60.4711C5.72146 60.457 5.71254 60.4442 5.70119 60.4335C5.68985 60.4228 5.67633 60.4143 5.66144 60.4087C5.64655 60.403 5.63061 60.4003 5.61457 60.4006V60.4006Z" fill="#353432"/>
<path d="M5.1713 60.3033C5.12652 60.3033 5.08357 60.3201 5.0519 60.35C5.02023 60.38 5.00244 60.4206 5.00244 60.463V61.3816C5.00244 61.424 5.02023 61.4646 5.0519 61.4946C5.08357 61.5246 5.12652 61.5414 5.1713 61.5414C5.21633 61.5414 5.25956 61.5246 5.29164 61.4947C5.32373 61.4649 5.3421 61.4242 5.3428 61.3816V60.463C5.3421 60.4204 5.32373 60.3798 5.29164 60.3499C5.25956 60.32 5.21633 60.3032 5.1713 60.3033V60.3033Z" fill="#F3B351"/>
<path d="M5.24516 60.3182C5.2536 60.3372 5.25808 60.3576 5.25836 60.3782V61.2943C5.25906 61.3149 5.25546 61.3355 5.24775 61.3548C5.24004 61.3742 5.22838 61.3919 5.21343 61.4069C5.19848 61.422 5.18054 61.4342 5.16063 61.4427C5.14073 61.4512 5.11924 61.4559 5.09741 61.4565C5.06713 61.4564 5.03731 61.4496 5.01035 61.4365C5.02426 61.4723 5.05125 61.5022 5.08644 61.5209C5.12162 61.5395 5.16268 61.5455 5.2022 61.538C5.24171 61.5305 5.27707 61.5098 5.30189 61.4798C5.32671 61.4497 5.33934 61.4122 5.33751 61.3741V60.458C5.3376 60.4289 5.32898 60.4003 5.31265 60.3755C5.29631 60.3508 5.27292 60.3309 5.24516 60.3182V60.3182Z" fill="#E78F44"/>
<path d="M12.1051 61.3841H11.6724C11.545 61.3844 11.4193 61.3562 11.3056 61.3018C11.1911 61.2323 11.0562 61.199 10.9204 61.2069C10.8848 61.213 10.851 61.226 10.8209 61.2451C10.7908 61.2641 10.7653 61.2888 10.7457 61.3176C10.7262 61.3464 10.7131 61.3787 10.7073 61.4124C10.7015 61.4462 10.7031 61.4808 10.712 61.5139C10.7196 61.5458 10.733 61.5762 10.7516 61.6038H12.2185C12.2185 61.6038 12.2686 61.3841 12.1051 61.3841Z" fill="#353432"/>
<path d="M11.1078 60.4006H10.522C10.4898 60.4006 10.459 60.4127 10.4362 60.4342C10.4135 60.4558 10.4007 60.485 10.4007 60.5154C10.4013 60.5457 10.4143 60.5745 10.437 60.5959C10.4596 60.6173 10.4901 60.6296 10.522 60.6303H11.1025C11.1349 60.6303 11.1661 60.6183 11.1893 60.5968C11.2124 60.5753 11.2258 60.5461 11.2265 60.5154C11.2265 60.5001 11.2233 60.485 11.217 60.4709C11.2107 60.4568 11.2016 60.444 11.19 60.4334C11.1785 60.4227 11.1648 60.4143 11.1497 60.4086C11.1347 60.403 11.1186 60.4003 11.1025 60.4006H11.1078Z" fill="#353432"/>
<path d="M10.9679 60.3033C10.9231 60.3033 10.8802 60.3201 10.8485 60.35C10.8168 60.38 10.799 60.4206 10.799 60.463V61.3816C10.8042 61.4209 10.8244 61.457 10.8557 61.4832C10.887 61.5093 10.9274 61.5238 10.9692 61.5238C11.011 61.5238 11.0514 61.5093 11.0827 61.4832C11.1141 61.457 11.1342 61.4209 11.1394 61.3816V61.3816V60.463C11.1387 60.4204 11.1203 60.3798 11.0882 60.3499C11.0562 60.32 11.0129 60.3032 10.9679 60.3033Z" fill="#F3B351"/>
<path d="M10.8782 61.2943V60.3782C10.8798 60.3577 10.8842 60.3376 10.8914 60.3182C10.864 60.3311 10.8409 60.351 10.825 60.3758C10.8091 60.4005 10.8011 60.4291 10.8017 60.458V61.3741C10.8006 61.412 10.8137 61.449 10.8387 61.4786C10.8638 61.5081 10.8991 61.5283 10.9384 61.5355C10.9777 61.5427 11.0184 61.5364 11.0533 61.5178C11.0882 61.4993 11.115 61.4696 11.1289 61.4341C11.1032 61.4519 11.0726 61.4623 11.0408 61.4641C11.009 61.466 10.9773 61.4591 10.9495 61.4444C10.9217 61.4296 10.8989 61.4077 10.884 61.381C10.869 61.3544 10.8624 61.3243 10.865 61.2943H10.8782Z" fill="#E78F44"/>
<path d="M10.6091 59.9413C8.91699 59.7341 7.20373 59.7341 5.51165 59.9413C5.44299 59.9489 5.3802 59.9816 5.33678 60.0325C5.29336 60.0833 5.27278 60.1483 5.27947 60.2134V60.2134L5.33487 60.5828C5.34533 60.6469 5.38175 60.7047 5.43641 60.7438C5.49108 60.7829 5.55969 60.8004 5.62774 60.7925C7.24278 60.5952 8.87794 60.5952 10.493 60.7925C10.5606 60.8005 10.6289 60.7833 10.6835 60.7447C10.7381 60.7061 10.7748 60.649 10.7859 60.5853C10.807 60.463 10.8254 60.3357 10.8439 60.2159C10.8514 60.1508 10.8315 60.0855 10.7885 60.0342C10.7456 59.9828 10.683 59.9494 10.6144 59.9413H10.6091Z" fill="#353432"/>
<path d="M7.14484 67.4974C7.14484 67.6497 7.20877 67.7957 7.32257 67.9034C7.43638 68.011 7.59073 68.0715 7.75167 68.0715H8.36906C8.53001 68.0715 8.68436 68.011 8.79816 67.9034C8.91197 67.7957 8.9759 67.6497 8.9759 67.4974V65.5279H7.14484V67.4974Z" fill="#E78F44"/>
<path d="M7.44827 67.3002C7.44827 67.3862 7.48441 67.4688 7.54873 67.5296C7.61306 67.5905 7.7003 67.6247 7.79127 67.6247H8.27674C8.36771 67.6247 8.45495 67.5905 8.51927 67.5296C8.5836 67.4688 8.61973 67.3862 8.61973 67.3002V65.9198H7.44827V67.3002Z" fill="#F3B351"/>
<path d="M9.13948 65.2433H6.93376C6.88422 65.2433 6.84406 65.2813 6.84406 65.3282V66.0721C6.84406 66.1189 6.88422 66.1569 6.93376 66.1569H9.13948C9.18903 66.1569 9.22919 66.1189 9.22919 66.0721V65.3282C9.22919 65.2813 9.18903 65.2433 9.13948 65.2433Z" fill="#353432"/>
</svg>
