<svg width="100" height="130" viewBox="0 0 100 130" fill="none" xmlns="http://www.w3.org/2000/svg">
<path d="M17.6425 80.8289C18.0911 82.4696 19.2105 89.2063 18.4508 90.253C17.691 91.2996 15.8846 95.7813 16.7979 103.096C17.7112 110.41 17.8244 114.573 17.5213 116.399C17.2465 118.044 16.2726 120.125 16.5433 121.326C16.8141 122.526 23.1224 126.765 27.3859 125.868C27.3859 125.868 25.3653 124.534 22.9729 121.443C20.439 118.149 22.2333 109.481 22.69 106.123C23.1466 102.765 26.8565 91.8371 26.5089 89.4164C26.1614 86.9958 26.1614 85.1045 25.5673 73.8013L17.6425 80.8289Z" fill="#E7BC94"/>
<path d="M16.7292 119.341C16.2822 120.018 15.9797 120.78 15.8406 121.579C15.7016 122.378 15.7289 123.197 15.921 123.985C16.2872 125.393 16.5079 126.835 16.5797 128.289C16.5954 128.67 16.7575 129.03 17.0323 129.294C17.3072 129.558 17.6735 129.706 18.0548 129.707H26.5655C29.4307 129.707 30.6633 128.644 30.0935 127.525C29.7257 126.781 28.2103 125.997 27.1394 125.528C27.1232 125.528 22.7142 127.343 16.7292 119.341Z" fill="#5874CB"/>
<path d="M15.2219 74.5609C17.2425 81.7543 18.4831 85.8237 17.6749 87.4927C17.0283 88.8142 15.3593 94.1567 15.2502 107.21C15.2219 110.548 14.3854 115.494 14.7693 119.701C17.5905 121.148 20.8231 121.583 23.9266 120.934C23.9266 120.934 23.3164 102.102 25.2966 96.0439C27.2768 89.9862 27.8749 82.4736 27.4748 73.4456C27.3212 70.059 27.5556 63.7467 25.4138 64.2236C21.8454 64.9914 15.2219 74.5609 15.2219 74.5609Z" fill="#C2C5D3"/>
<path d="M13.5286 76.8402C13.5003 78.5739 13.7388 87.707 12.7204 88.5112C11.702 89.3154 8.62261 93.1868 7.43854 100.606C6.25447 108.026 5.35732 112.435 4.6097 113.967C3.82975 115.583 2.09206 117.095 2.01931 118.343C1.94657 119.592 6.90914 125.524 11.314 125.86C10.3772 124.214 9.56659 122.5 8.88933 120.732C7.32943 116.832 10.9382 108.382 12.3243 105.23C13.7105 102.077 20.6411 91.8047 20.9806 89.3396C21.32 86.8745 23.8094 77.5636 23.8094 77.5636L13.5286 76.8402Z" fill="#E7BC94"/>
<path d="M2.76287 116.448C2.13092 116.983 1.61574 117.642 1.24937 118.385C0.882992 119.127 0.673246 119.937 0.633165 120.764C0.584691 122.251 0.387028 123.729 0.0431505 125.177C-0.0482221 125.546 0.00672678 125.937 0.19651 126.267C0.386297 126.597 0.696228 126.84 1.06153 126.947L9.41064 129.372C12.2071 130.18 13.7105 129.493 13.4801 128.248C13.3225 127.412 12.0738 126.228 11.1524 125.452C11.1524 125.452 6.33529 125.969 2.76287 116.448Z" fill="#758FE3"/>
<path d="M12.3243 65.2783C12.4941 72.7465 13.3023 86.2562 11.6212 88.5112C8.91761 92.1482 8.33972 94.7265 4.51676 108.915C3.95503 110.984 2.05163 115.147 1.401 117.66C3.77043 119.765 6.79029 120.993 9.9562 121.14C9.9562 121.14 14.3813 103.233 17.8082 97.8584C21.2352 92.4836 22.9406 84.8094 24.7995 75.9633C25.2036 73.9427 26.6019 67.0726 25.7128 65.7188C22.6779 61.1321 12.3243 65.2783 12.3243 65.2783Z" fill="#DBDEE6"/>
<path d="M15.6341 98.2423C15.428 100.716 15.2825 103.666 15.2542 107.202C15.23 110.54 14.3934 115.482 14.7773 119.693C16.2539 120.458 17.8574 120.949 19.5096 121.14L19.5419 104.26C19.5419 104.26 20.7866 95.4983 21.9383 84.9064L15.6341 98.2423Z" fill="#DBDEE6"/>
<path opacity="0.5" d="M16.4949 91.6432C15.5775 92.6939 8.35993 113.381 5.94734 120.336C7.23188 120.817 8.58531 121.09 9.95621 121.144C9.95621 121.144 14.3813 103.233 17.8082 97.8585C21.2352 92.4838 22.9446 84.8095 24.7995 75.9674C25.2036 73.9468 26.6019 67.0768 25.7128 65.723C25.6041 65.5811 25.4867 65.4461 25.3612 65.3188L20.2612 66.1998C18.8468 78.8771 17.5941 90.3823 16.4949 91.6432Z" fill="#C2C5D3"/>
<path d="M74.2475 63.5609C74.0697 64.8662 73.4837 68.4831 74.2475 69.5621C75.0113 70.6411 77.1127 72.795 77.8563 72.6132C78.5999 72.4313 78.0705 64.1267 78.0705 64.1267L74.2475 63.5609Z" fill="#E7BC94"/>
<path d="M75.5165 40.5381L73.8637 64.5306C73.8637 64.5306 76.0378 66.8341 78.2645 66.0097L75.5165 40.5381Z" fill="#B0B35E"/>
<path d="M48.4849 45.9856C47.7939 46.3897 45.3005 46.2604 45.3005 46.2604C45.3005 46.2604 44.7024 48.8104 45.1671 49.752C45.1671 49.752 47.6888 49.8086 48.4324 50.0753C49.176 50.342 48.4849 45.9856 48.4849 45.9856Z" fill="#E7BC94"/>
<path d="M51.0026 51.8778C50.2267 52.1324 49.8711 51.8495 49.8711 51.8495C49.8711 51.8495 48.7719 52.0799 48.6587 51.3848C48.6587 51.3848 47.8505 51.5141 47.7616 50.524C47.7616 50.524 47.2281 50.1684 47.3089 49.8047C47.3898 49.441 47.5999 49.2551 48.2263 49.049C48.8527 48.8429 50.8571 45.7675 51.144 45.4765C51.431 45.1856 52.6918 44.6683 53.1646 44.5592C53.6375 44.4501 55.5893 45.8726 58.1798 45.7716C58.1798 45.7716 59.1699 46.7859 58.7213 48.9681C58.7213 48.9681 56.6037 48.9318 55.5085 50.3381C54.4134 51.7444 51.0026 51.8778 51.0026 51.8778Z" fill="#E7BC94"/>
<path opacity="0.2" d="M51.0026 51.8778C50.2267 52.1324 49.8711 51.8495 49.8711 51.8495C49.8711 51.8495 48.7719 52.0799 48.6587 51.3848C48.6587 51.3848 47.8505 51.5141 47.7616 50.524C47.7616 50.524 47.2281 50.1684 47.3089 49.8047C47.3898 49.441 47.5999 49.2551 48.2263 49.049C48.8527 48.8429 50.8571 45.7675 51.144 45.4765C51.431 45.1856 52.6918 44.6683 53.1646 44.5592C53.6375 44.4501 55.5893 45.8726 58.1798 45.7716C58.1798 45.7716 59.1699 46.7859 58.7213 48.9681C58.7213 48.9681 56.6037 48.9318 55.5085 50.3381C54.4134 51.7444 51.0026 51.8778 51.0026 51.8778Z" fill="#E7BC94"/>
<path d="M47.7939 46.3938C48.7799 46.0139 49.8913 44.5308 50.4772 44.5874C51.0632 44.644 51.2855 44.8582 51.7906 44.9673C52.2343 45.0222 52.6659 45.1507 53.0676 45.3471C53.5324 45.6058 54.2557 45.9776 54.2275 46.1554C54.1992 46.3332 52.9787 46.8383 51.4794 46.22C51.1772 46.4552 50.8523 46.6597 50.5096 46.8303C50.5096 46.8303 50.7237 48.3861 48.2142 49.0529C48.2142 49.0489 46.6421 47.3516 47.7939 46.3938Z" fill="#E7BC94"/>
<path d="M50.7157 52.185C50.3116 52.1001 50.3398 51.6717 50.7642 51.1625C51.1885 50.6533 51.7987 49.5137 52.4978 49.8896C52.4978 49.8896 52.9626 48.9156 53.6819 49.0813C53.6819 49.0813 54.2558 47.8286 55.1044 48.6247C55.1044 48.6247 55.7348 48.2569 55.9571 48.6893C56.1794 49.1217 55.3671 50.621 55.0802 51.0696C54.8013 51.3759 54.4239 51.5747 54.0133 51.6313C54.0133 51.6313 53.7466 52.0354 52.7686 51.9506C52.6082 52.1094 52.3996 52.21 52.1754 52.2363C51.9511 52.263 51.7248 52.2132 51.532 52.096C51.4116 52.1716 51.2754 52.2189 51.1339 52.2343C50.9925 52.2496 50.8494 52.2326 50.7157 52.185Z" fill="#E7BC94"/>
<path d="M45.0014 45.9493H46.2138C46.2138 45.9493 46.3593 49.2267 46.0198 50.1845C45.5389 50.1789 45.0629 50.0887 44.6135 49.9178C44.2094 49.6834 45.0014 45.9493 45.0014 45.9493Z" fill="#F6F2E1"/>
<path d="M44.7872 50.326C44.7872 50.326 45.5672 46.7899 45.1914 45.4361C45.1914 45.4361 33.876 43.5812 31.322 42.5749C31.322 42.5749 25.6077 33.6843 23.2032 30.9606C21.2594 28.7541 18.0264 25.4686 14.8541 27.6104C11.6818 29.7522 15.9533 35.7898 21.0129 40.8696C26.0724 45.9493 28.3921 47.9457 29.7742 48.3539C31.1563 48.762 44.7872 50.326 44.7872 50.326Z" fill="#758FE3"/>
<path d="M45.1671 48.0953C43.882 47.962 31.4513 46.5718 30.2834 46.297C28.477 45.8686 18.4386 37.6044 15.5128 34.226C17.1158 36.6201 18.9631 38.8412 21.025 40.8535C26.0846 45.9333 28.4042 47.9337 29.7863 48.3418C31.1684 48.75 44.7873 50.3139 44.7873 50.3139C44.8713 49.5675 44.9982 48.8268 45.1671 48.0953Z" fill="#5874CB"/>
<path d="M58.0949 44.1268L56.5471 44.6724C56.5471 44.6724 57.6423 48.8308 58.5111 49.833L60.6328 49.0571L58.0949 44.1268Z" fill="#F6F2E1"/>
<path d="M80.5235 121.572C81.2307 122.243 87.6198 121.168 87.9027 121.952C88.1856 122.736 88.6706 124.975 88.1775 126.191C88.1775 126.191 88.4766 126.466 88.2422 127.097C88.0078 127.727 86.4034 127.949 84.3344 128.006C82.2653 128.062 69.8952 129.509 69.188 127.339C68.9455 126.595 68.5818 124.991 70.1134 125.157C71.645 125.322 75.1568 124.462 75.9691 124.009C76.7814 123.556 78.5231 122.797 79.2384 122.146C79.9537 121.495 80.2325 121.31 80.5235 121.572Z" fill="#4A3E36"/>
<path d="M92.1379 122.732C92.8491 123.447 99.1049 122.51 99.412 123.342C99.7192 124.175 100.257 126.494 99.8162 127.739C99.9172 127.871 99.979 128.029 99.9956 128.195C100.012 128.36 99.9819 128.527 99.9091 128.677C99.703 129.323 98.1269 129.505 96.0942 129.485C94.0615 129.465 81.8086 130.455 81.1418 128.357C80.8913 127.582 80.475 125.933 81.9864 126.131C83.4978 126.329 86.9652 125.549 87.7492 125.1C88.5331 124.652 90.2264 123.912 90.9175 123.27C91.6085 122.627 91.8429 122.453 92.1379 122.732Z" fill="#5E5046"/>
<path d="M91.1114 56.4121C91.1518 60.623 89.495 69.554 89.3778 70.5562C89.2606 71.5584 88.9373 78.7437 89.2889 86.3169C89.6404 93.8901 89.1434 115.45 88.6059 122.55C88.6059 122.55 85.4012 123.827 79.1737 121.932C79.1737 121.932 80.7902 99.6447 79.6546 93.2637C78.5191 86.8827 77.0764 62.3001 76.8986 56.0847L91.1114 56.4121Z" fill="#4B4A7D"/>
<path d="M93.5725 57.8507C95.6214 64.1913 93.9767 69.065 93.9767 70.0874C93.9767 71.1099 94.8536 80.0732 96.1872 87.5131C97.5208 94.9529 99.3999 116.4 99.7919 123.512C99.7919 123.512 96.8338 124.385 90.4245 123.512C90.4245 123.512 89.5354 102.065 87.5673 95.9389C85.5993 89.8125 79.7395 62.2192 78.7495 56.0928L93.5725 57.8507Z" fill="#5D6094"/>
<path opacity="0.5" d="M99.7879 123.512C99.3838 116.399 97.5168 94.9528 96.1791 87.513C94.8415 80.0731 93.9686 71.1017 93.9686 70.0874C93.9686 69.073 95.6214 64.1913 93.5645 57.8506L91.8268 57.6445L86.6904 63.5608C87.6441 67.1373 91.5035 88.786 91.8712 89.5417C92.2107 90.2327 95.2779 119.289 95.7588 123.892C97.1122 123.93 98.4652 123.802 99.7879 123.512Z" fill="#4B4A7D"/>
<path opacity="0.5" d="M80.4023 60.142L76.9915 58.6023C77.3714 67.2383 78.608 87.5777 79.6547 93.2959C80.8024 99.6729 79.1738 121.96 79.1738 121.96C80.7515 122.45 82.3772 122.77 84.0232 122.914V98.206C84.0232 98.206 83.312 78.3839 81.7238 71.0249L80.4023 60.142Z" fill="#5D6094"/>
<path d="M73.997 10.213C74.3769 9.77255 75.0477 8.9441 74.7123 8.19244C74.5062 7.75195 74.4173 7.88127 74.7891 6.60021C75.4397 4.26844 77.7108 3.47232 78.119 3.05204L78.3453 3.51273C78.9515 2.42969 79.7153 1.577 80.7013 1.41131C82.8997 1.0476 86.1125 3.15711 87.5269 4.64427C88.9413 6.13143 87.3976 9.0128 85.7852 11.9912C84.6213 14.1128 85.6962 15.9758 85.9145 16.5456C85.4174 16.7153 80.6609 21.3465 80.6609 21.3465C80.3077 20.6206 79.9949 19.876 79.7234 19.1158C79.6345 18.8491 79.3799 18.8087 79.1899 18.4732C79 18.1378 79.0646 17.4064 78.8666 17.0992L78.7454 16.9295C78.336 16.8205 77.9113 16.7795 77.4886 16.8083C76.7733 16.8325 75.4033 17.0952 74.8982 16.6992C74.393 16.3031 74.7163 15.212 74.688 14.9291C74.6597 14.6462 74.3162 14.6705 74.0253 14.3714C73.7343 14.0724 74.195 13.6319 74.195 13.6319C74.0697 13.5107 73.6616 13.0782 73.8919 12.8802C74.195 12.6216 74.6193 12.2983 73.6494 11.7649C72.7765 11.3203 73.4151 10.9162 73.997 10.213Z" fill="#E7BC94"/>
<path d="M88.6503 6.06682C87.6885 3.08442 85.6599 0.118185 82.1844 0.00503022C78.709 -0.108123 77.3835 1.73466 75.2497 0.813271C75.2497 0.813271 73.2292 3.44409 75.7024 4.95953C76.0337 5.36365 76.9147 5.76777 79.2627 5.61421C81.4004 5.46873 81.2348 8.94011 81.5621 9.86958C81.9218 10.892 81.7116 7.31151 83.7363 7.99447C85.2315 8.49962 84.4475 10.896 83.9868 12.064C83.6393 12.949 85.1992 14.521 85.1992 14.521L85.1466 15.3292L87.0662 13.1793C87.0662 13.1793 89.6202 9.05731 88.6503 6.06682Z" fill="#AB864E"/>
<path opacity="0.3" d="M87.05 13.147C87.05 13.147 89.6202 9.05733 88.6665 6.07088C88.4301 5.36081 88.1327 4.67255 87.7775 4.01392C87.7775 4.07453 87.7411 5.71122 86.8803 6.3174C86.0195 6.92358 84.5202 7.6227 80.6407 6.3174V6.34568C81.3115 7.38427 81.3196 9.21493 81.5459 9.85344C81.9056 10.8759 81.6955 7.29536 83.7201 7.97833C85.2153 8.48348 84.4313 10.8839 83.9706 12.0478C83.6231 12.9369 85.183 14.5049 85.183 14.5049L85.1305 15.3131L87.05 13.147Z" fill="#AB864E"/>
<path d="M86.4438 15.2968L86.6944 15.8262C88.8645 16.8406 92.8815 21.3465 92.9987 26.4141C93.0633 29.1177 92.8936 35.527 93.1482 42.2516C93.3624 47.9335 93.819 51.1907 94.401 54.1408C94.9182 56.7676 95.8315 63.0314 95.8315 63.0314C95.8315 63.0314 92.0247 65.2904 84.1121 65.2823C77.5977 65.2823 76.4904 64.6196 76.4904 64.6196C76.4904 64.6196 75.5286 45.0521 75.5286 40.5502C75.5286 31.6839 76.0701 28.9722 78.8302 23.355C79.1333 22.6922 86.262 14.9129 86.4438 15.2968Z" fill="#C8C762"/>
<g opacity="0.3">
<path opacity="0.3" d="M83.3322 12.6135C83.3322 12.6135 83.8979 15.503 79.0041 17.5478C78.9871 17.3971 78.943 17.2507 78.8747 17.1154L78.7575 16.9457C78.3465 16.8369 77.9206 16.796 77.4967 16.8244C77.4967 16.8244 82.9806 15.4868 83.3322 12.6135Z" fill="#E7BC94"/>
</g>
<path d="M75.5609 42.963C75.6054 44.6037 75.6781 46.7011 75.7711 48.948C78.8222 45.7918 87.0864 36.8244 90.0122 29.6755C91.463 26.0991 80.7418 37.2649 75.5609 42.963Z" fill="#B0B35E"/>
<path d="M87.9148 17.5479C86.1206 17.9196 81.6591 20.9384 79.691 25.6666C78.1837 29.3037 72.6674 37.5275 72.6674 37.5275L57.6099 43.8035C57.9361 45.8964 58.6413 47.9122 59.6912 49.7521C59.6912 49.7521 73.2898 45.8322 75.0477 45.5048C77.3229 45.0765 90.8973 28.8511 90.8973 28.8511L87.9148 17.5479Z" fill="#C8C762"/>
<path d="M85.9751 14.3472C85.9751 14.3472 80.9842 16.3314 79.1051 20.6433C78.9798 20.9262 79.1334 22.6922 78.8181 23.3429C78.1659 24.6385 77.5844 25.9687 77.0764 27.3275C78.3009 24.9271 79.7747 22.6624 81.4732 20.5706C83.0028 18.7702 84.7591 17.1755 86.6985 15.8262C86.6985 15.8262 86.0802 14.5169 85.9751 14.3472Z" fill="#F6F2E1"/>
<path d="M25.0501 8.5481C25.7856 9.01687 26.5817 10.4111 26.7554 11.6032C26.9292 12.7954 26.8403 12.8924 26.6625 13.2884C26.3715 13.9552 27.0666 14.5008 27.4303 14.9049C27.9921 15.5151 28.6871 15.996 27.887 16.4284C26.9898 16.9134 27.2929 17.2649 27.5879 17.5034C27.8062 17.6812 27.4425 18.0691 27.3333 18.1823C27.3333 18.1823 27.79 18.5864 27.5152 18.8451C27.2404 19.1037 26.9131 19.0997 26.905 19.3542C26.8969 19.6088 27.2323 20.5868 26.7635 20.9707C26.2948 21.3546 25.0177 21.1122 24.3388 21.1C23.5182 21.1258 22.7299 21.426 22.1 21.9527C21.7727 22.2558 22.2738 22.8216 21.9949 23.0883C20.5967 24.4381 18.867 24.7937 16.7414 22.1467C15.9331 21.1485 17.0849 18.546 17.1455 18.4733C17.2061 18.4005 21.6959 12.0478 21.6959 12.0478L25.0501 8.5481Z" fill="#E7BC94"/>
<path d="M14.0782 19.8068C14.0782 19.8068 16.5757 20.4453 16.5029 21.5122C16.3655 23.2943 15.2906 26.2646 14.745 26.3374C13.8479 26.4546 26.1048 32.585 24.4681 29.9744C23.1749 27.8973 23.4134 27.186 22.5284 24.8179C22.3869 24.4138 21.7201 23.6904 22.003 23.064C23.87 18.7157 25.2642 10.4716 25.2642 10.4716L21.6716 8.56824C21.6716 8.56824 12.3769 13.2116 12.583 13.252C12.7891 13.2924 14.0782 19.8068 14.0782 19.8068Z" fill="#E7BC94"/>
<path d="M25.5148 8.96435C25.4259 7.97021 22.8597 5.21816 19.1297 5.04843C15.3997 4.8787 12.878 6.82251 11.4514 10.9001C11.4514 10.9001 10.6432 13.3248 11.3504 15.4707C11.9364 17.3417 13.7751 19.4714 15.1653 20.8091C15.6688 21.2859 16.0714 21.8589 16.3494 22.4943C17.0242 22.3811 19.3843 19.132 19.2671 17.9762C19.2388 17.7661 18.4346 18.8249 18.3295 17.8833C18.2836 17.5379 18.167 17.2056 17.9869 16.9073C17.8069 16.609 17.5672 16.3511 17.2829 16.1496C17.12 15.9284 17.0233 15.6655 17.004 15.3915C16.9847 15.1175 17.0436 14.8437 17.1738 14.6018C17.6264 13.7491 18.7902 13.9067 19.0772 14.1734C19.3641 14.4402 19.7238 14.8524 19.7238 14.8524C19.7238 14.8524 20.823 14.2219 20.9361 13.6036C21.0493 12.9853 20.8957 11.9185 21.607 11.6679C22.5555 11.3717 23.4389 10.8971 24.2095 10.2697C24.6903 9.88287 25.128 9.44525 25.5148 8.96435Z" fill="#755640"/>
<path d="M24.3307 21.0799C24.3307 21.0799 21.32 21.2011 22.7547 25.3271C24.1893 29.4532 16.8586 24.4866 16.8586 24.4866L21.2675 19.6937L24.3307 21.0799Z" fill="#E7BC94"/>
<g opacity="0.3">
<g opacity="0.3">
<path opacity="0.3" d="M20.2895 18.736C20.0471 20.5505 22.6173 22.2316 22.6213 22.2356C22.7819 21.9193 23.0192 21.6482 23.3114 21.447C23.6036 21.2458 23.9415 21.121 24.2944 21.0839H24.3307C24.4762 21.0839 24.6581 21.0839 24.852 21.1162C20.532 20.8212 20.2895 18.9744 20.2895 18.736Z" fill="#E7BC94"/>
</g>
</g>
<path d="M13.1043 8.60063C12.8052 6.81846 11.8919 5.68289 10.332 6.0668C8.77211 6.45071 7.07077 7.38423 6.86063 10.2252C6.63432 13.3207 10.1502 14.9372 11.605 12.9974C12.5078 11.7018 13.0274 10.178 13.1043 8.60063Z" fill="#755640"/>
<path d="M19.259 17.9763C19.2307 17.7661 18.4508 18.8249 18.3215 17.8833C18.2769 17.538 18.1609 17.2059 17.9806 16.9081C17.8004 16.6102 17.56 16.3533 17.2748 16.1537C17.112 15.9317 17.0154 15.6681 16.9961 15.3935C16.9768 15.1189 17.0356 14.8445 17.1657 14.6019C10.6109 16.8528 12.5628 9.24324 12.5628 9.24324C11.9449 10.1537 11.1991 10.9703 10.3482 11.668C9.25706 12.4398 6.90104 10.2414 7.47085 8.03088C7.10803 8.69821 6.89951 9.43839 6.86063 10.197C6.65857 12.9652 9.43891 14.5291 11.0716 13.4299C11.0582 14.104 11.1495 14.7761 11.3423 15.4222C11.9283 17.2933 13.767 19.423 15.1612 20.7606C15.6618 21.2391 16.0628 21.8118 16.3413 22.4458C17.0202 22.3812 19.3802 19.132 19.259 17.9763Z" fill="#64452D"/>
<path d="M27.9314 52.3909C20.6209 52.3909 17.6628 36.7919 17.6628 36.7919L27.9233 46.5958C27.8506 47.5819 27.8749 49.7116 27.9314 52.3909Z" fill="url(#paint0_linear)"/>
<path d="M15.7351 23.9491L16.1109 22.0336C16.1109 22.0336 20.8149 23.7309 22.1161 24.6927C23.4174 25.6545 23.2881 27.3477 23.2881 27.3477L15.7351 23.9491Z" fill="#F6F2E1"/>
<path d="M12.0455 54.2217C11.904 57.3051 11.015 65.1572 10.7402 68.4952C10.7927 68.5154 14.745 70.0389 28.089 69.5136C28.089 68.7821 28.089 68.0183 28.089 67.1697C28.089 59.9804 27.895 48.2084 27.9354 46.3616C28.2385 31.9305 23.28 27.3478 23.28 27.3478L16.1877 23.6339C16.1877 23.6339 10.3967 26.9032 10.6513 37.7296C10.7523 41.7344 12.3971 46.3414 12.0455 54.2217Z" fill="#758FE3"/>
<path d="M10.7402 68.4952C10.7927 68.5154 14.745 70.0389 28.089 69.5136C28.089 68.7821 28.089 68.0183 28.089 67.1697C28.089 66.0624 28.089 64.8339 28.0648 63.5609L18.8994 62.0212C18.8994 62.0212 16.5231 43.4317 17.6547 39.4431C17.6547 39.4431 14.4702 39.14 10.7442 39.1561C11.1039 42.8498 12.3607 47.2385 12.0374 54.2217C11.9041 57.3051 11.015 65.1612 10.7402 68.4952Z" fill="#5874CB"/>
<path d="M6.86685 62.2443L5.10056 74.2345C5.09111 74.2984 5.1354 74.3582 5.19941 74.3675L22.359 76.8952C22.4231 76.9045 22.4826 76.8605 22.492 76.7962L24.2583 64.8064C24.2678 64.7421 24.2235 64.6827 24.1595 64.673L6.99984 62.1453C6.93583 62.136 6.87626 62.1804 6.86685 62.2443Z" fill="#DB4B51"/>
<path d="M6.85885 62.2382L6.12768 67.208C6.11826 67.2719 6.16251 67.3313 6.22656 67.341L23.3866 69.8655C23.4507 69.8752 23.5102 69.8308 23.5196 69.7669L24.2508 64.7971C24.2602 64.7332 24.216 64.6734 24.1519 64.6641L6.99189 62.1392C6.92783 62.1299 6.86831 62.1739 6.85885 62.2382Z" fill="#C73D42"/>
<path d="M15.2704 24.6927C11.0594 26.9558 10.3239 34.5411 9.51163 43.7389C8.69935 52.9366 8.59028 52.8154 9.58441 57.1516C10.5785 61.4878 13.177 69.9501 12.878 71.4009C12.5789 72.8516 12.3647 75.4421 14.0378 76.2503C16.2725 77.3252 19.2065 76.8201 18.7215 76.3352C18.1355 75.7492 17.1495 74.6257 17.0647 73.9589C17.0121 73.5548 19.0125 75.9795 19.356 75.2844C19.1864 74.9191 18.9835 74.57 18.7498 74.2418C18.273 73.4336 17.7193 72.4677 17.396 72.2455C16.9166 71.942 16.5036 71.5447 16.182 71.0772C15.8604 70.6096 15.6369 70.0818 15.525 69.5257C15.1572 68.1517 14.5834 55.8059 14.0661 52.9569L18.8872 34.8442C18.8872 34.8442 21.2755 28.3864 15.2704 24.6927Z" fill="#E7BC94"/>
<path d="M11.8233 69.4611L11.8758 70.3219C11.8758 70.3219 15.4644 70.5078 16.4302 69.8895L16.111 68.6771L11.8233 69.4611Z" fill="#F6F2E1"/>
<path d="M11.4757 69.5338C11.4757 69.5338 14.7086 69.7439 16.5636 69.0367C16.5636 69.0367 15.2542 54.8925 14.3247 51.9829C14.3247 51.9829 19.1742 35.9595 19.5136 32.5568C19.8531 29.1542 17.5819 24.624 15.7311 23.9491C15.7311 23.9491 11.6171 25.1857 9.77839 34.5411C7.93965 43.8964 7.55169 50.4472 7.69313 51.4777C7.83457 52.5082 11.4757 69.5338 11.4757 69.5338Z" fill="#758FE3"/>
<defs>
<linearGradient id="paint0_linear" x1="503.766" y1="39.9519" x2="513.982" y2="39.9519" gradientUnits="userSpaceOnUse">
<stop stop-color="#3379BC"/>
<stop offset="1" stop-color="#22579C"/>
</linearGradient>
</defs>
</svg>
