<svg width="100" height="130" viewBox="0 0 100 130" fill="none" xmlns="http://www.w3.org/2000/svg">
<g clip-path="url(#clip0)">
<path d="M45.249 10.1311C45.0451 9.23694 44.3353 8.56243 43.5353 7.88792C42.6251 7.05992 41.7659 6.17722 40.9627 5.24478C40.6961 4.88792 41.5431 4.684 42.1392 5.24478C42.7353 5.80557 43.5157 6.48792 43.7078 6.35459C43.9 6.22126 41.6686 1.87224 41.9314 1.42911C42.1941 0.985969 42.7745 1.21734 43.0765 2.15067C43.3243 2.87093 43.6098 3.57777 43.9314 4.26831C43.9314 4.26831 42.6686 0.182045 43.0882 0.0526332C43.5078 -0.0767785 43.9196 -0.0336409 44.8608 0.958518C45.8019 1.95067 46.5902 1.92322 46.9157 3.11538C47.2412 4.30753 48.0686 6.35459 47.8921 7.06439C47.7157 7.7742 48.3353 9.37027 48.3353 9.37027L45.249 10.1311Z" fill="#D7AA80"/>
<path d="M24.7353 59.9741C23.6632 60.3926 22.6157 60.8718 21.5981 61.4094C22.4373 62.9506 24.1157 66.48 24.1236 67.0525C24.2529 68.2541 24.6699 69.4071 25.3393 70.4133C25.9118 71.2369 25.7079 71.7584 27.3353 72.08C27.9981 72.2094 31.8647 72.9467 28.7471 71.1349C27.8569 70.6173 27.0373 70.2055 26.9197 69.6682C26.802 69.131 27.4922 68.5976 27.6569 67.7427C27.8648 66.6722 26.951 65.6761 26.3746 64.4565C26.0647 63.829 25.4412 62.029 24.7353 59.9741Z" fill="#E7BC94"/>
<path d="M53.9196 19.7742C53.5274 18.1506 50.5706 15.0487 49.3471 11.5742C48.351 11.9193 48.3471 10.0487 47.3078 10.284C47.4843 11.2386 47.5941 12.2043 47.6373 13.1742C47.7157 15.8487 49.1275 20.5585 49.1275 20.5585C49.1275 20.5585 44.1627 27.9232 43.3314 28.3153C42.5 28.7075 41.4569 28.3153 40.1235 28.7859L40.9628 43.5741L46.7941 38.7036C46.7941 38.7036 48.8176 36.0016 51.1706 30.5781C53.5235 25.1546 54.4608 22.131 53.9196 19.7742Z" fill="#C8C762"/>
<path d="M26.7667 42.5192C25.9393 42.9114 21.8844 52.1035 21.8844 52.1035C21.8844 52.1035 23.3628 56.8094 23.4804 59.4643C23.5437 60.5345 23.6839 61.5988 23.9001 62.6486C22.9197 62.9859 23.2138 63.2721 22.2373 63.629C20.9785 60.1819 16.8726 52.778 16.453 51.08C15.8687 48.727 16.453 48.5584 18.7236 43.1035C20.9942 37.6487 22.0648 32.4958 24.8452 30.1624C25.2569 29.8173 27.0255 29.7232 28.2608 29.4879C29.2116 29.3112 30.1497 29.0714 31.0687 28.7703V43.5545C29.755 44.0604 27.5942 42.1153 26.7667 42.5192Z" fill="#C8C762"/>
<path d="M39.9039 112.445C41.5431 115.543 43.3588 117.731 42.2961 119.111C41.2333 120.492 36.1785 118.955 36.4608 115.778C36.4608 115.778 36.3942 116.778 36.0961 116.562C35.4806 115.916 34.9081 115.229 34.3824 114.507C33.9118 113.907 34.7746 111.468 34.7746 111.468L39.9039 112.445Z" fill="#4A3E36"/>
<path d="M47.1 64.1035C46.9863 65.3545 45.7902 79.531 45.2804 85.7741C44.7706 92.0173 40.7824 113.837 40.7824 113.837C40.7824 113.837 38.0843 115.617 33.8647 112.37C33.8647 112.37 38.0608 83.7427 37.1 75.2369V63.4722L47.1 64.1035Z" fill="#93887C"/>
<path d="M37.1 63.4564L42.5118 65.2329C41.9235 71.9584 39.6961 104.59 38.198 114.252C36.6175 114.011 35.1292 113.354 33.8843 112.351C33.8843 112.351 38.0804 82.2407 37.1196 73.7466L37.1 63.4564Z" fill="#A09385"/>
<path d="M33.8647 117.296C33.6529 118.774 35.402 121.735 34.8843 122.354C34.3667 122.974 34.1588 123.594 31.4804 123.492C28.802 123.39 27.351 122.974 27.4529 122.253C27.5549 121.531 27.9706 117.296 27.9706 117.296H33.8647Z" fill="#4A3E36"/>
<path d="M37.1 73.7662C37.1 73.7662 34.7471 82.1623 34.9824 88.8956C35.2177 95.629 33.9981 118.111 33.9981 118.111C33.9981 118.111 31.551 120.362 25.8569 118.111C25.8569 118.111 26.1863 91.4172 26.2961 87.1662C26.4059 82.9152 26.2961 64.7035 26.2961 64.7035L37.1039 63.4564L37.1 73.7662Z" fill="#93887C"/>
<path d="M25.853 118.115C25.853 118.115 26.1863 91.4172 26.2922 87.1702C26.3981 82.9231 26.2922 64.7035 26.2922 64.7035L31.4922 64.1035C31.6412 72.4133 31.0059 113.284 31.1941 119.104C29.3653 119.139 27.5483 118.802 25.853 118.115Z" fill="#A09385"/>
<path d="M31.6883 28.5507C31.6883 28.5507 24.9157 30.5114 24.8491 31.0644C24.7824 31.6173 25.9628 41.0447 26.1746 43.978C26.3863 46.9114 25.8765 57.88 25.6647 60.0565C25.453 62.2329 26.2922 64.7153 26.2922 64.7153C26.2922 64.7153 28.4216 65.5937 36.7785 65.7388L39.1549 30.0526L31.6883 28.5507Z" fill="#C8C762"/>
<path d="M41.4451 28.6251C41.4451 28.6251 48.2177 30.5859 48.2882 31.1388C48.3588 31.6918 47.0098 38.7741 46.9588 44.0525C46.9353 46.9937 47.6608 57.8133 47.8686 59.978C47.9549 61.4007 47.6851 62.8227 47.0843 64.1152C47.0843 64.1152 45.1235 65.5937 36.7628 65.7388L36.6608 29.5781L41.4451 28.6251Z" fill="#C8C762"/>
<path d="M40.5353 28.8801L32.5 28.7272L36.453 39.5349L40.5353 28.8801Z" fill="#F6F2E1"/>
<path d="M42.4843 17.4644C42.551 14.6762 40.2412 12.1939 36.449 12.3664C32.4529 12.539 31.0608 15.4605 31.0686 17.637C31.0587 18.9993 31.3256 20.3495 31.8529 21.6056C32.0255 22.037 33.3471 23.2174 33.7784 24.5546C34.2098 25.8919 42.4843 17.4644 42.4843 17.4644Z" fill="#372115"/>
<path d="M32.7314 28.8095L36.4608 29.5075L40.5392 28.88C40.402 28.3938 38.4765 28.0604 38.9432 26.5271L33.3981 22.433C33.751 23.9232 34.3746 26.382 33.0059 28.0447C32.9549 28.1271 32.7942 28.7349 32.7314 28.8095Z" fill="#E7BC94"/>
<g opacity="0.3">
<path opacity="0.3" d="M33.8373 25.5272C33.825 24.5026 33.6813 23.4838 33.4099 22.4958L33.4412 22.4762L38.4844 26.5625C38.6055 26.7092 38.7437 26.8408 38.8961 26.9546C38.9175 27.1733 39.0082 27.3794 39.1549 27.5429C37.5503 27.457 35.9893 26.9891 34.602 26.1782C34.2491 26.0056 34.104 25.6958 33.8373 25.5272Z" fill="#E7BC94"/>
</g>
<path d="M33.2569 22.5232C33.5667 23.2683 33.751 24.2958 35.0608 25.237C36.3706 26.1781 38.453 27.3899 39.1 27.3585C39.7471 27.3272 40.2529 27.4958 41.151 25.8409C42.049 24.186 42.7392 23.4134 42.7196 21.7625C42.7 20.1115 43.202 16.735 41.0686 15.5821C39.5 14.7193 37.0059 15.2644 35.7471 16.6566C34.4882 18.0487 34.4804 18.5468 34.1118 20.6762C34.1118 20.6762 32.9353 19.2644 32.4922 19.2252C32.049 19.186 31.6843 19.4762 31.9784 20.3664C32.2726 21.2566 32.4922 21.0997 32.5431 21.5429C32.5941 21.986 32.6686 22.4527 32.9118 22.6134C33.2177 22.8134 33.2569 22.5232 33.2569 22.5232Z" fill="#E7BC94"/>
<path d="M40.4255 15.2604C40.4255 15.2604 35.0882 14.4761 34.1863 21.1193L32.5 16.8055L36.5941 13.1193L40.4255 15.2604Z" fill="#372115"/>
<path d="M32.2373 19.2957C32.849 19.0918 34.198 21.1193 34.198 21.1193C34.5872 19.7282 35.1222 18.3822 35.7941 17.1036C31.9274 14.2918 31.1627 16.782 31.1471 16.8016C31.1034 17.0753 31.0812 17.352 31.0804 17.6291C31.0708 18.9926 31.3376 20.344 31.8647 21.6016C32.0294 22.0173 33.2686 23.1428 33.7392 24.433C33.6998 23.7692 33.588 23.1117 33.4059 22.4722C33.4059 22.4722 33.2176 22.6408 33.0569 22.5781C32.8232 22.4162 32.656 22.1752 32.5863 21.8996C32.5392 21.7506 32.5863 21.6643 32.5314 21.5075C32.4765 21.3506 32.3431 21.1898 32.2961 21.0918C32.0412 20.5663 31.6176 19.4957 32.2373 19.2957Z" fill="#372115"/>
<path d="M40.9627 15.3232C40.3647 16.0336 39.64 16.6267 38.8255 17.0722C37.5863 17.6565 35.5823 17.1624 35.2961 18.4879C35.0098 19.8134 34.6961 21.1742 34.6961 21.1742L34.1784 21.1192L34.0176 16.5585L36.6843 13.9036L40.9627 15.3232Z" fill="#372115"/>
<path d="M40.4961 15.5938C41.0733 16.3025 41.7419 16.9315 42.4843 17.4644L41.9431 15.135L40.4961 13.9585V15.5938Z" fill="#372115"/>
<path d="M36.4608 29.4291C36.4608 29.4291 38.453 28.8526 39.5 27.7153L41.2294 28.5506C41.2294 28.5506 39.4137 31.8487 37.6687 32.8251L36.4608 29.4291Z" fill="#F6F2E1"/>
<path d="M36.4608 29.429C36.4608 29.429 34.3863 28.6722 33.3236 27.531L31.053 28.7859C31.053 28.7859 33.4883 31.8487 35.2373 32.8251L36.4608 29.429Z" fill="#F6F2E1"/>
<path d="M36.4608 29.4291C36.4608 29.4291 38.453 28.8526 39.5 27.7153L41.2294 28.5506C41.2294 28.5506 39.4137 31.8487 37.6687 32.8251L36.4608 29.4291Z" fill="#F5EAE0"/>
<path d="M36.4608 29.429C36.4608 29.429 34.3863 28.6722 33.3236 27.531L31.053 28.7859C31.053 28.7859 33.4883 31.8487 35.2373 32.8251L36.4608 29.429Z" fill="#F5EAE0"/>
<path d="M48.7549 21.1192C48.7549 21.1192 45.2255 12.8447 44.8529 10.433C44.8529 10.433 46.8137 8.76238 48.7745 8.79767C48.7745 8.79767 54.3235 19.4683 54.6569 21.1192C54.9902 22.7702 51.7863 29.2134 51.7863 29.2134L48.7549 21.1192Z" fill="#C8C762"/>
<path d="M54.6294 21.1193C54.3118 19.4723 48.7471 8.79774 48.7471 8.79774C48.4298 8.79715 48.1126 8.81813 47.7981 8.86049C50.2765 14.4252 54.3981 19.7899 53.1275 22.2644C51.802 24.8448 47.049 36.8526 44.5745 37.2566C44.5745 37.2566 45.8412 39.6565 45.5706 43.8094C45.3 47.9624 47.2451 54.6094 45.5706 56.2918C43.8961 57.9741 39.1393 57.9702 39.1393 57.9702C39.1393 57.9702 40.3392 58.7545 45.5706 57.9702C45.5706 57.9702 46.1432 58.0055 45.5706 59.3898C44.9981 60.7741 32.653 62.0761 28.6687 60.6761C28.6687 60.6761 33.1314 62.28 40.4137 62.2761C35.5281 63.3275 30.4565 63.1345 25.6648 61.7153C25.7674 62.7298 25.9737 63.7314 26.2805 64.7035C26.2805 64.7035 28.4099 65.5859 36.7628 65.7232C45.1157 65.582 47.0843 64.1035 47.0843 64.1035C47.6851 62.811 47.9549 61.389 47.8686 59.9663C47.6569 57.8016 46.9314 46.9781 46.9588 44.0408C47.0032 41.9428 47.1577 39.8483 47.4216 37.7664C48.8628 35.4773 50.1181 33.0761 51.1745 30.586C51.3863 30.1036 51.5667 29.6644 51.7588 29.2134C51.7588 29.2134 54.9431 22.7624 54.6294 21.1193Z" fill="#B0B35E"/>
<path d="M22.4883 37.2527C18.7589 45.2957 16.5667 49.9036 16.453 51.0997C16.3392 52.2957 22.6138 66.0016 22.6138 66.0016C22.6138 66.0016 25.1824 65.2879 26.7667 64.2683L22.304 51.484L23.9981 46.7428L22.4883 37.2527Z" fill="#C8C762"/>
<path d="M56.2843 14.935C56.049 14.1507 56.6529 12.7625 56.202 11.7076C55.751 10.6527 55.5431 8.48798 55.3157 8.4919C55.0882 8.49582 54.6882 8.7468 54.6372 9.48014C54.5863 10.2135 54.8725 12.0566 54.7314 12.088C54.5902 12.1194 53.2843 10.1272 52.747 9.30367C52.2098 8.48014 51.0843 6.75857 50.6765 6.7821C50.2686 6.80563 50.2843 7.08014 50.3902 7.47622C50.4961 7.87229 51.6412 9.77818 51.7863 10.0997C51.9314 10.4213 52.2098 10.8095 51.8804 10.735C51.551 10.6605 50.1235 8.25661 49.4882 7.57426C49.1941 7.25269 48.9078 7.45661 48.6725 7.79386C48.6965 7.95986 48.7584 8.11818 48.8529 8.25661C49.4451 9.25269 50.8804 11.186 50.7784 11.3154C50.6765 11.4448 49.6882 10.139 48.9353 9.13504C48.6372 8.837 48.3353 8.5821 48.151 8.88014C47.7588 9.5468 49.8333 11.7429 49.8098 11.8409C49.7863 11.939 48.4059 10.4488 48.2686 10.3546C48.1949 10.3208 48.1145 10.3033 48.0333 10.3033C47.9521 10.3033 47.8718 10.3208 47.798 10.3546C47.7694 10.3724 47.7431 10.3934 47.7196 10.4174C47.6059 10.637 47.7823 10.837 47.8333 10.9782C48.0333 11.5233 50.1627 13.5782 50.3823 14.0566C50.602 14.535 52.0372 16.4095 53.2529 16.9507C54.4686 17.4919 55.2137 18.8762 55.5078 19.4801C55.5078 19.4801 57.602 19.3311 58.5078 17.9782C58.5157 17.986 56.5196 15.7311 56.2843 14.935Z" fill="#E7BC94"/>
<path opacity="0.5" d="M54.653 15.4134C53.9902 14.3781 51.2961 12.9742 48.8451 9.04481C48.5745 8.78991 48.3196 8.61343 48.1588 8.8801C47.7667 9.54677 49.8412 11.7428 49.8177 11.837C49.7941 11.9311 48.4137 10.4487 48.2765 10.3546C48.2028 10.3208 48.1224 10.3033 48.0412 10.3033C47.96 10.3033 47.8796 10.3208 47.8059 10.3546C47.7781 10.3734 47.7518 10.3943 47.7275 10.4174C47.6137 10.637 47.7902 10.837 47.8412 10.9781C48.0412 11.5232 50.1745 13.5781 50.3902 14.0566C50.6059 14.535 52.0451 16.4095 53.2608 16.9507C54.0988 17.3895 54.7828 18.0736 55.2216 18.9115L56.1745 18.5193C55.7443 17.448 55.2357 16.4099 54.653 15.4134Z" fill="#D7AA80"/>
<path d="M94.1706 75.1741C93.5823 81.4721 92.4451 86.4251 92.547 87.9976C92.649 89.5702 93.7235 93.5702 92.547 99.0055C91.7353 102.747 90.2961 107.864 90.3941 110.813C90.4922 113.762 91.2804 115.519 91.2804 117.7C91.2804 119.88 91.0882 120.445 88.4294 120.445C85.6372 120.445 86.3823 117.209 86.6686 115.739C86.9549 114.268 87.5471 111.692 87.6412 110.413C87.8686 107.276 86.9667 100.056 86.8569 98.0329C86.6608 94.276 87.1431 91.3427 87.6412 88.4878C87.8451 87.3113 87.198 84.4839 86.8333 81.9584C86.3235 78.429 85.9863 75.1702 85.9863 75.1702L94.1706 75.1741Z" fill="#E7BC94"/>
<path d="M77.398 74.2839C75.2333 79.7937 74.4843 85.6094 74.2882 86.5937C74.0921 87.5781 72.5078 90.9428 71.2294 94.4839C69.951 98.0251 67.7 109.045 66.9157 111.209C66.1314 113.374 65.147 115.833 64.1706 116.7C63.1941 117.566 60.9235 117.982 60.7274 119.158C60.5314 120.335 66.8255 120.143 67.0216 119.653C67.2176 119.162 67.5157 116.704 68.7941 116.013C70.0725 115.323 71.4529 114.143 70.8608 112.962C70.2686 111.782 69.6843 111.394 70.3667 109.915C71.049 108.437 73.5039 101.939 75.4647 99.7192C77.4255 97.4996 78.2098 90.9977 79.4059 89.3232C80.602 87.6486 84.4725 79.4879 85.1588 77.2251C85.8451 74.9624 77.398 74.2839 77.398 74.2839Z" fill="#E7BC94"/>
<path d="M93.5274 56.8329C94.4961 59.029 97.0255 62.829 96.6294 67.5466C96.2333 72.2643 94.2765 79.8055 94.4804 81.1819C94.6843 82.5584 77.8372 81.8172 75.151 79.429C75.151 79.429 77.3039 69.7898 78.2882 67.2329C79.2725 64.676 79.3235 63.8604 79.3784 61.4133C79.3819 59.7866 79.6647 58.1721 80.2137 56.6407C80.5078 55.9506 93.5274 56.8329 93.5274 56.8329Z" fill="#DB4B51"/>
<path d="M70.8921 113.884C70.4737 115.837 70.2247 117.822 70.147 119.817H69.2922C69.4172 118.362 69.3831 116.897 69.1902 115.449C68.8412 113.68 70.8921 113.884 70.8921 113.884Z" fill="#DB4B51"/>
<path d="M88.4137 120.453C91.0725 120.453 91.2647 119.864 91.2647 117.707C91.2561 117.057 91.1945 116.407 91.0804 115.766C91.1372 116.213 91.0145 116.664 90.7396 117.02C90.4651 117.377 90.06 117.61 89.6137 117.668C89.4835 117.683 89.3518 117.683 89.2216 117.668C87.1902 117.633 86.4765 116.7 86.6451 115.747C86.3667 117.217 85.6216 120.457 88.4137 120.453Z" fill="#5E5046"/>
<path d="M68.7784 116.025C70.0569 115.339 71.4333 114.158 70.8412 112.978C70.6255 112.543 70.4098 112.217 70.2569 111.904C70.2569 111.904 67.7902 113.543 67.0608 115.241C66.3314 116.939 64.9941 118.613 62.5902 117.613C61.7039 118.037 60.8255 118.46 60.7078 119.182C60.5118 120.358 66.8098 120.166 67.0059 119.676C67.202 119.186 67.4961 116.715 68.7784 116.025Z" fill="#5E5046"/>
<path d="M92.7549 59.4055C92.3627 59.3428 82.4412 60.0055 78.7431 60.2604C78.702 60.8636 78.702 61.4691 78.7431 62.0722C80.0372 62.8134 88.4961 63.8369 93.002 62.9546C93.002 62.9546 94.8608 67.0408 94.3039 71.3624C93.849 74.8918 93.0294 80.0448 93.049 81.7271C93.9784 81.5977 94.5274 81.4173 94.4922 81.1781C94.2961 79.8016 96.249 72.2722 96.6412 67.5467C96.9078 64.3389 95.8294 61.5742 94.8059 59.4291C93.9314 59.4408 92.9941 59.4408 92.7549 59.4055Z" fill="#C73D42"/>
<path d="M84.6568 25.4252C84.6961 28.233 84.4725 28.6644 83.5431 29.5703C82.6137 30.4762 81.5823 32.0448 82.1 32.9507C82.6176 33.8565 86.4137 32.9507 86.4137 32.9507L87.1627 27.0291L84.6568 25.4252Z" fill="#372115"/>
<path d="M94.3784 18.7468C94.0326 18.2345 93.6047 17.7826 93.1118 17.4096C92.9353 17.2645 92.7902 17.1546 92.7196 17.0919V17.1194C92.262 16.8147 91.7643 16.5745 91.2412 16.4056C87.8373 15.335 85.8294 17.4762 84.6725 19.7939C84.6725 19.7939 90.0961 29.8252 90.8098 28.688C90.922 28.5214 91.0537 28.3687 91.202 28.2331C91.0373 28.8958 90.9 29.6566 90.9 29.6566L92.9275 29.9115C94.4059 27.739 95.4059 25.6488 95.6098 24.1978C95.778 23.253 95.7557 22.2841 95.5443 21.3481C95.3329 20.412 94.9365 19.5276 94.3784 18.7468Z" fill="#372115"/>
<path d="M93.4726 29.2212C93.6255 30.1741 96.351 31.4016 95.1471 34.2134C93.9431 37.0251 89.8177 33.3702 89.8177 33.3702L89.9118 28.7232L91.7 27.9388L93.4726 29.2212Z" fill="#372115"/>
<path d="M86.2765 27.0291C86.7 28.5349 86.4804 29.9898 85.9824 30.7859C85.4843 31.582 83.6294 32.2134 84.1824 33.7506C84.7353 35.2879 90.1039 35.0722 90.1039 35.0722L86.2765 27.0291Z" fill="#372115"/>
<path d="M91.7353 27.0251C89.6177 27.0879 88.2451 29.4095 86.1471 29.1506C86.1188 29.4868 86.069 29.8208 85.998 30.1506C85.5314 32.3585 83.0176 32.6291 81.3902 32.5036V38.3114H92.4294V32.0369C90.4373 31.2604 91.4059 28.0016 91.7353 27.0251Z" fill="#E7BC94"/>
<path d="M57.4882 16.3075C57.4882 16.3075 65.1 23.9193 67.7941 27.1938C67.7941 27.1938 73.6765 30.033 75.6882 30.2683C77.7 30.5036 79.3314 30.5742 80.7274 31.2722C82.1235 31.9702 83.2216 32.4487 83.4098 32.4095L85.2137 37.6095L92.4255 32.0487C92.4255 32.0487 94.0961 32.5232 94.6059 32.6957C96.3588 33.284 96.8961 33.9899 97.5353 35.7428C97.9274 36.7859 97.8451 37.6251 98.2098 38.9546C97.402 39.3937 96.5627 39.3466 96.3784 39.5623C95.5941 40.4172 95.3274 42.6094 94.1667 44.6996C93.0059 46.7898 92.3235 54.0564 93.5706 55.4682C95.2294 57.3466 96.1235 60.2682 96.1235 60.2682C94.9 61.8368 89.002 63.1074 86.1235 63.0839C83.2761 63.0992 80.44 62.7286 77.6922 61.9819C78.0063 60.1635 78.5506 58.3925 79.3118 56.7113C79.9784 55.2604 79.3118 48.0211 78.6255 45.4682C77.9392 42.9153 78.6961 39.6172 78.5392 38.8408C78.3823 38.0644 75.2255 37.4722 71.8176 35.2251C68.4098 32.9781 65.002 32.4604 64.151 30.7585C63.3 29.0565 55.0569 20.2291 54.7392 18.9114C54.751 18.9114 56.6333 17.2526 57.4882 16.3075Z" fill="#758FE3"/>
<g opacity="0.3">
<path opacity="0.3" d="M85.998 30.1507C85.9537 30.3288 85.8918 30.5022 85.8137 30.6683C86.802 30.7663 89.5902 30.9075 91.2137 29.684C91.2592 28.776 91.4349 27.8793 91.7353 27.0212C89.6176 27.0879 88.2451 29.4095 86.1431 29.1507C86.1184 29.487 86.0698 29.8212 85.998 30.1507Z" fill="#E7BC94"/>
</g>
<path d="M83.9118 23.1114C83.9118 23.1114 82.9706 21.0173 84.1235 19.3781C85.0176 18.1114 86.8216 15.5742 89.3706 16.0644C92.4568 16.6644 83.9118 23.1114 83.9118 23.1114Z" fill="#372115"/>
<path d="M91.7353 27.0252C91.2726 27.6487 90.8451 28.5663 89.4137 29.1154C87.9824 29.6644 85.7667 30.2918 85.1784 30.1154C84.5902 29.9389 84.0882 29.9546 83.6686 28.1899C83.249 26.4252 82.8059 25.531 83.2216 23.9938C83.6373 22.4565 84.0059 19.1781 86.2647 18.6252C87.9235 18.2095 90.0726 19.3271 90.8843 20.931C91.6961 22.535 91.5863 23.0095 91.398 25.0879C91.398 25.0879 92.8255 24.0605 93.2451 24.131C93.6647 24.2016 93.9235 24.5624 93.4333 25.3075C92.9431 26.0526 92.7863 25.8722 92.6294 26.284C92.4726 26.6958 92.2882 27.1075 92.0255 27.1938C91.7157 27.3075 91.7353 27.0252 91.7353 27.0252Z" fill="#E7BC94"/>
<path d="M87.0294 18.5193C87.0294 18.5193 88.0922 23.6487 91.2765 25.4252L93.849 21.8605L91.4412 18.5311L87.0294 18.5193Z" fill="#372115"/>
<path d="M87.6451 18.8801C87.6451 18.8801 85.4451 20.8644 83.7902 21.1467C83.7902 21.1467 84.5549 17.6526 87.0059 16.6761L87.6451 18.8801Z" fill="#372115"/>
<path opacity="0.5" d="M71.8216 35.2252C68.4098 32.9781 65.0098 32.4605 64.1549 30.7585C63.3 29.0566 55.0608 20.2291 54.7431 18.9115C54.7431 18.9115 55.4961 18.2526 55.853 17.9193C57.7314 21.9938 65.7863 29.2683 66.5431 30.1389C67.3863 31.1115 80.151 36.837 80.8255 37.0879C80.8255 37.0879 80.0216 47.1388 78.9667 47.1271C78.8796 46.5686 78.7643 46.0153 78.6216 45.4683C77.9235 42.9075 78.6961 39.6173 78.5392 38.8409C78.3824 38.0644 75.2451 37.4723 71.8216 35.2252Z" fill="#5874CB"/>
<path d="M79.5157 55.5976C79.5157 55.5976 89.2294 56.5231 92.9431 54.0996C92.9431 54.0996 93.9196 55.3231 93.9902 55.982C93.9902 55.982 87.9431 59.3937 78.9 57.4055C78.9 57.4055 78.8961 55.982 79.5157 55.5976Z" fill="#5874CB"/>
<path d="M94.3824 34.0684C97.3627 35.6723 98.0176 39.782 98.5941 46.2918C99.1706 52.8016 99.2451 52.7193 98.5431 55.7859C97.8412 58.8526 95.998 64.8526 96.1902 65.8761C96.3824 66.8996 95.5078 70.3193 94.3235 70.8918C93.7863 71.1506 92.8843 71.5702 92.5078 71.4644C91.7667 71.2644 91.8176 70.1938 92.0451 69.9702C92.5843 69.2918 92.9843 68.5138 93.2216 67.68C93.2569 67.3938 91.8373 69.1153 91.598 68.6173C91.7173 68.3569 91.862 68.1087 92.0294 67.8761C92.2851 67.3655 92.6067 66.891 92.9863 66.4644C93.3263 66.2502 93.6184 65.9691 93.8459 65.6381C94.0729 65.3071 94.2302 64.933 94.3078 64.5389C94.5706 63.5702 94.9745 54.8291 95.3431 52.8134L91.9588 39.9977C91.9588 39.9977 90.1471 36.6801 94.3824 34.0684Z" fill="#E7BC94"/>
<path d="M97.2608 65.382C97.2608 65.382 94.7078 65.7231 93.602 64.2055C93.602 64.2055 94.5275 54.1937 95.1902 52.1349C95.1902 52.1349 91.7471 40.7898 91.5118 38.3821C91.2765 35.9742 92.6882 33.6487 93.9902 33.1703C93.9902 33.1703 97.1 33.1703 98.4059 39.7859C99.7118 46.4016 99.9745 51.0447 99.8843 51.778C99.7941 52.5114 97.2608 65.382 97.2608 65.382Z" fill="#758FE3"/>
<path d="M97.2608 65.382C97.2608 65.382 94.7078 65.7231 93.602 64.2055C93.602 64.2055 94.5275 54.1937 95.1902 52.1349C95.1902 52.1349 91.7471 40.7898 91.5118 38.3821C91.2765 35.9742 92.6882 33.6487 93.9902 33.1703C93.9902 33.1703 97.1 33.1703 98.4059 39.7859C99.7118 46.4016 99.9745 51.0447 99.8843 51.778C99.7941 52.5114 97.2608 65.382 97.2608 65.382Z" fill="#758FE3"/>
<path opacity="0.5" d="M97.1 51.3702C96.1902 48.3937 93.0961 40.0682 93.0961 40.0682C93.0961 40.0682 90.4412 50.131 92.9431 54.0839C93.0086 54.1855 93.0686 54.2902 93.1235 54.3977C92.6882 52.4879 92.9549 48.9075 93.5353 46.4918C94.3902 49.4839 95.1902 52.1153 95.1902 52.1153C94.8369 53.591 94.5827 55.0882 94.4294 56.5977L93.8608 61.5977C93.7039 63.1114 93.602 64.1859 93.602 64.1859C93.9353 64.6263 94.3949 64.9549 94.9196 65.1271C95.5745 61.4722 97.9902 54.2918 97.1 51.3702Z" fill="#5874CB"/>
<path d="M65.1078 121.037C65.7824 121.676 71.8843 120.645 72.1667 121.398C72.449 122.151 72.8961 124.284 72.4255 125.445C72.4255 125.445 72.7118 125.707 72.4882 126.307C72.2647 126.907 70.7353 127.123 68.7588 127.174C66.7824 127.225 55.602 128.613 54.9275 126.539C54.7 125.825 54.351 124.296 55.8098 124.452C57.2686 124.609 59.9941 123.794 60.7706 123.362C61.5471 122.931 63.2098 122.186 63.9079 121.578C64.6059 120.97 64.8294 120.782 65.1078 121.037Z" fill="#4A3E36"/>
<path d="M76.1941 122.143C76.8765 122.825 82.8608 121.931 83.1392 122.727C83.4176 123.523 83.9431 125.735 83.5118 126.927C83.6078 127.053 83.6674 127.203 83.6831 127.362C83.6992 127.519 83.671 127.678 83.6019 127.821C83.4059 128.433 81.9 128.605 79.9549 128.605C78.0098 128.605 66.3157 129.531 65.6725 127.527C65.4373 126.786 65.0373 125.194 66.4804 125.398C67.9235 125.602 71.2333 124.845 71.9706 124.417C72.7078 123.99 74.3235 123.284 74.9941 122.668C75.6647 122.053 75.9157 121.872 76.1941 122.143Z" fill="#5E5046"/>
<g opacity="0.5">
<g opacity="0.5">
<path opacity="0.5" d="M76.1941 122.143C76.8765 122.825 82.8608 121.931 83.1392 122.727C83.4176 123.523 83.9431 125.735 83.5118 126.927C83.6078 127.053 83.6674 127.203 83.6831 127.362C83.6992 127.519 83.671 127.678 83.6019 127.821C83.4059 128.433 81.9 128.605 79.9549 128.605C78.0098 128.605 66.3157 129.531 65.6725 127.527C65.4373 126.786 65.0373 125.194 66.4804 125.398C67.9235 125.602 71.2333 124.845 71.9706 124.417C72.7078 123.99 74.3235 123.284 74.9941 122.668C75.6647 122.053 75.9157 121.872 76.1941 122.143Z" fill="#4A3E36"/>
</g>
</g>
<path d="M75.2176 62.9388C75.2569 66.9584 73.6882 74.2173 73.5588 75.182C73.4294 76.1467 73.1431 81.4173 73.4765 88.6486C73.8098 95.88 73.3392 115.198 72.8216 121.982C72.8216 121.982 69.7667 123.202 63.8216 121.39C63.8216 121.39 65.3902 101.39 64.2765 95.2839C63.1627 89.178 61.8137 68.5702 61.649 62.6329L75.2176 62.9388Z" fill="#4B4A7D"/>
<path d="M77.5627 64.3114C79.5235 70.3663 77.9549 73.7545 77.9549 74.7231C77.9549 75.6918 78.7902 82.6761 80.0686 89.7819C81.3471 96.8878 83.1314 116.096 83.5118 122.888C83.5118 122.888 80.6882 123.719 74.5627 122.888C74.5627 122.888 73.7196 103.672 71.8176 97.829C69.9157 91.9859 64.3431 68.4839 63.4059 62.6329L77.5627 64.3114Z" fill="#5D6094"/>
<path opacity="0.5" d="M83.5 122.888C83.1078 116.096 81.3353 96.8878 80.0569 89.7819C78.7784 82.676 77.9431 75.6995 77.9431 74.7231C77.9431 73.7466 79.5118 70.3662 77.551 64.3113L75.8921 64.1152L69.8608 64.7035C70.7745 68.1152 75.602 91.0093 75.951 91.727C76.3 92.4446 79.202 118.868 79.6608 123.26C80.951 123.292 82.24 123.167 83.5 122.888Z" fill="#4B4A7D"/>
<path opacity="0.5" d="M65.049 64.1153L61.6569 62.6329C62.0137 70.8682 63.3 89.8251 64.2843 95.2839C65.3824 101.378 63.8255 121.39 63.8255 121.39C65.3267 121.86 66.8741 122.167 68.4412 122.304V99.9976C68.4412 99.9976 67.7628 82.6604 66.2412 75.629L65.049 64.1153Z" fill="#5D6094"/>
<path d="M45.7627 8.0487C45.6137 7.86831 44.8373 5.25263 44.1471 5.36635C43.4569 5.48008 43.8255 6.15067 44.1471 7.29576C44.4686 8.44086 44.8922 10.8252 45.5157 11.5389C46.1392 12.2526 47.4765 12.7154 48.0765 14.7232C48.6765 16.7311 49.7549 20.2487 49.7549 20.2487L53.5745 18.6801C53.5745 18.6801 52.6569 16.7193 51.8059 15.3428C50.7941 13.6958 49.649 11.8134 49.5274 11.5232C49.2122 10.3957 48.9996 9.242 48.8922 8.07615C48.7392 6.76635 48.1078 3.48008 47.6451 2.93499C47.1824 2.38989 46.998 1.39773 46.5274 1.25656C46.0569 1.11538 45.8804 2.38597 45.8804 2.38597C45.8804 2.38597 45.7274 1.33107 45.2922 1.5193C44.8569 1.70754 44.9314 2.74283 45.0804 3.9193C45.2294 5.09576 45.7627 8.0487 45.7627 8.0487Z" fill="#E7BC94"/>
<path d="M66.8921 33.3036C67.598 32.8879 68.5902 30.5938 69.0255 29.9428C69.2612 29.6667 69.4557 29.3575 69.602 29.0252C70.0333 28.0566 67.7549 27.6252 66.4647 26.8291C65.4843 26.2173 65.8961 25.5821 66.3941 25.1193C66.8921 24.6566 66.2608 24.2879 66.3157 24.0762C66.4137 23.684 67.5157 24.3938 67.5157 24.3938C67.5157 24.3938 66.5745 23.837 66.5549 23.4644C66.5353 23.0919 67.3196 22.9154 67.3196 22.5624C67.3196 22.2095 66.5078 21.6056 66.6255 21.233C66.7431 20.8605 68.6725 20.1272 69.1157 19.6958C69.5588 19.2644 68.8451 18.2723 69.3274 17.833C70.3427 16.9509 71.4635 16.1987 72.6647 15.5938C73.8412 15.0997 77.6765 14.735 80.3628 17.0409C83.049 19.3468 82.2137 24.0526 81.2882 25.2762C80.3628 26.4997 77.1196 28.9075 76.6608 30.2134C76.202 31.5193 76.0686 34.0762 76.0686 34.0762C76.0686 34.0762 70.6333 35.986 68.0608 35.8173C65.9745 35.684 66.6176 33.4762 66.8921 33.3036Z" fill="#E7BC94"/>
<path d="M75.0098 17.8291C75.2176 18.5703 74.198 19.1938 74.7314 20.2644C75.2647 21.335 74.3 22.8605 74.5941 23.1938C74.8882 23.5271 76.4686 22.2056 77.2804 22.8409C78.0921 23.4762 77.8647 24.637 77.0686 25.3938C76.2725 26.1507 76.9941 29.6291 76.9627 29.6722C77.9039 28.3232 80.4921 26.3389 81.3 25.2722C82.2255 24.0566 83.0568 19.3468 80.3745 17.037C77.6921 14.7271 73.8333 15.0762 72.6765 15.5899C73.2216 16.8605 74.8059 17.0879 75.0098 17.8291Z" fill="#4A3E36"/>
<path d="M72.7157 16.0134C72.5902 15.5624 72.6921 15.0056 73.1706 15.0134C73.9157 15.0134 74.6882 14.3703 76.4255 14.6683C78.1627 14.9663 79.3706 15.9075 80.0215 16.1036C80.6725 16.2997 81.7078 17.3193 81.751 17.7781C81.7941 18.2369 82.6647 19.1036 82.0921 19.8252C82.3435 19.9656 82.5474 20.1772 82.6784 20.4333C82.8098 20.6894 82.8623 20.9785 82.8294 21.2644C82.7157 22.2722 82.4372 22.884 82.4843 23.1663C82.5313 23.4487 81.9039 24.1781 81.8568 24.6683C81.8098 25.1585 80.4098 27.0212 79.8019 27.1781C79.1941 27.335 78.9392 28.1389 78.6019 28.182C78.2647 28.2252 76.9627 29.6722 76.9627 29.6722L78.7745 20.8722L78.3235 17.1977L72.7157 16.0134Z" fill="#4A3E36"/>
<path d="M74.798 18.8213C75.0098 18.2722 73.7745 17.6958 72.7902 17.2526C71.5667 16.6801 71.0608 16.0448 71.3863 15.9664C71.6216 15.9075 71.7 15.5977 72.151 15.484C72.602 15.3703 72.8725 15.0918 73.4608 14.9428C74.049 14.7938 75.3549 15.335 75.4216 15.335C75.5933 16.3486 75.689 17.3737 75.7078 18.4017C75.6569 18.4291 74.798 18.8213 74.798 18.8213Z" fill="#4A3E36"/>
<path opacity="0.3" d="M76.7274 27.5389C76.6965 27.176 76.7153 26.8106 76.7823 26.4526C76.8596 26.095 76.9549 25.7416 77.0686 25.3938C76.9274 25.5389 76.6765 25.9703 76.4059 26.2997C76.1353 26.6291 75.802 26.2487 75.7471 26.3663C75.3 27.3467 75.2255 27.4762 74.3118 28.0879C73.0333 28.9507 70.7823 28.6448 69.0765 28.0879C69.4098 28.2918 69.6216 28.5154 69.6372 28.7742C69.6576 28.8628 69.6467 28.9556 69.6059 29.0369C69.5392 29.182 69.4882 29.335 69.4333 29.4879C73.0804 30.8918 76.7431 27.9311 76.7274 27.5389Z" fill="#E7BC94"/>
<path d="M62.5235 32.0135C62.2137 34.9389 60.5981 45.6996 60.6804 49.6604C60.7628 53.6212 61.5981 62.6369 61.5981 62.6369C61.5981 62.6369 68.0177 66.0016 77.5628 64.3036C77.5628 64.3036 78.653 53.5781 79.4608 48.3977C80.2686 43.2173 81.3981 36.0762 80.7353 34.3115C80.0726 32.5468 78.3157 31.6566 76.951 29.6723L68.3471 33.5311L69.4177 29.4762L67.849 29.8684L64.3392 28.0056L62.5235 32.0135Z" fill="#CBE0FB"/>
<path d="M73.3235 40.833C73.151 45.3271 72.0843 60.6997 72.0843 60.6997C72.0843 60.6997 65.6765 60.2565 61.3353 59.6448C61.4843 61.4055 61.598 62.6408 61.598 62.6408C61.598 62.6408 68.0176 66.0095 77.5666 64.3114C77.5666 64.3114 78.1784 58.2644 78.8255 53.0605C75.9823 46.6212 73.3235 40.833 73.3235 40.833Z" fill="#AECCF2"/>
<path d="M80.2333 46.1467C79.5471 45.982 79.6333 46.8055 78.951 46.6173C78.1326 46.3981 77.3294 46.124 76.5471 45.7977C76.1549 45.6212 75.7628 45.4291 75.3706 45.2134C75.2177 46.9546 75.6137 48.7428 75.551 50.6212C75.4612 51.8491 75.2526 53.0651 74.9275 54.2526C74.7588 55.1467 75.0098 60.7153 75.4608 63.1232C75.6333 64.2487 75.9079 65.9663 76.1549 67.233C76.5471 69.2761 75.5667 69.0408 75.3471 69.9781C75.1275 70.9153 75.853 73.1899 76.0922 74.3742C76.3314 75.5585 76.3078 76.3075 76.9706 76.0879C77.6333 75.8683 77.1196 73.1938 77.1667 72.9506C77.1667 72.9506 78.0726 75.8369 78.4765 76.935C78.8804 78.033 79.2922 79.0095 79.7628 78.9702C80.2333 78.931 79.8804 77.931 79.8804 77.931C79.8804 77.931 80.6255 78.9781 80.9784 78.6369C81.3314 78.2957 81.0216 77.331 81.1981 76.6291C81.3745 75.9271 80.4137 72.7075 79.9314 71.4957C79.4875 70.4102 79.1435 69.2867 78.9039 68.1389C78.8647 67.7036 79.1588 65.0016 79.2961 63.0408C79.2961 63.0408 79.7941 59.9938 80.1196 58.1663C80.3831 56.5036 80.3659 54.8079 80.0686 53.1506C79.8569 52.2879 80.0177 50.48 80.4804 48.6997C80.5981 48.2565 80.0137 46.7271 80.2333 46.1467Z" fill="#E7BC94"/>
<path d="M80.7353 50.1937C80.598 52.4604 74.5941 50.931 74.7235 50.3428C74.8529 49.7545 73.7941 43.1506 73.3314 40.8408C72.9627 38.9977 72.9392 34.2134 75.8294 32.6487C76.5549 32.2566 77.5275 31.7821 78.5745 32.1781C79.6757 32.5336 80.5988 33.2969 81.1549 34.3115C82.6059 36.7428 80.7039 48.7977 80.7353 50.1937Z" fill="#CBE0FB"/>
<path d="M48.5784 16.3154C49.7902 20.7585 51.9392 26.9311 52.6843 28.2409C53.4294 29.5507 62.5706 35.8252 62.5706 35.8252C62.5706 35.8252 66.0412 28.8252 65.6294 28.2409C65.2176 27.6566 56.4961 23.9781 56.3039 23.7115C56.1118 23.4448 51.6569 15.1075 51.6569 15.1075L48.5784 16.3154Z" fill="#E7BC94"/>
<path d="M69.6019 29.0173C69.6019 29.0173 66.8921 27.5232 66.0725 27.3546C64.1345 26.8075 62.2282 26.153 60.3627 25.3938C59.7274 25.1272 57.6176 24.1703 57.6176 24.1703C57.6176 24.1703 54.6686 29.2173 54.6686 30.7585C56.9039 33.1115 61.9431 35.386 62.5902 35.8291C63.5157 36.4566 65.7274 36.182 65.8647 36.3428C66.0019 36.5036 69.6019 29.0173 69.6019 29.0173Z" fill="#CBE0FB"/>
<path d="M2.14319 42.7074C1.22946 46.6603 0.452993 57.0525 1.25691 60.4799C2.06084 63.9074 4.34318 72.9152 4.34318 72.9152L11.0412 67.6447L2.14319 42.7074Z" fill="#F6C951"/>
<path d="M43.5667 19.3781C44.0381 18.5663 44.5883 17.8031 45.2098 17.0997C46.049 16.2095 46.3157 15.531 46.551 13.5702C46.7863 11.6095 46.9196 11.1467 46.9981 10.3546C47.0765 9.5624 47.8137 7.88004 47.3902 7.66828C46.9667 7.45651 46.653 7.66828 46.4412 8.66828C46.2294 9.66828 45.6569 11.382 45.6569 11.382C45.6569 11.382 45.7353 10.3036 45.802 9.11926C45.8686 7.93495 46.2608 6.72318 45.802 6.58985C45.3432 6.45651 45.1981 7.27612 45.0177 8.48789C44.8373 9.69965 44.7157 11.0408 44.5353 11.0644C44.3549 11.0879 44.802 8.53887 44.7784 7.45651C44.7549 6.37416 44.8216 6.19377 44.5353 6.17024C44.249 6.14671 43.9314 6.11534 43.8804 7.11534C43.8294 8.11534 43.4059 11.1742 43.4059 11.1742C43.4059 11.1742 43.5118 7.40553 43.3 7.22122C43.0883 7.03691 42.5157 6.93102 42.5353 8.88004C42.5549 10.8291 42.4961 13.3389 42.3392 13.2644C42.1824 13.1898 42.0098 11.1467 41.3275 10.9898C40.8334 10.8761 40.8686 11.1075 40.9863 11.7742C41.0008 12.1209 41.0349 12.4666 41.0883 12.8095C41.3518 13.8266 41.46 14.8777 41.4098 15.9271C41.3549 16.2722 41.2216 17.8879 41.2216 17.8879L43.5667 19.3781Z" fill="#E7BC94"/>
<path d="M0.735321 125.429C0.817674 126.539 0.78238 127.441 0.998066 127.841C1.21375 128.241 5.33926 128.374 6.13534 127.841C6.93142 127.307 6.89612 126.405 8.16279 125.974C9.42945 125.543 10.1549 125.809 11.1667 124.307C12.1785 122.805 11.951 121.955 10.8961 121.543C9.84122 121.131 7.42553 121.727 7.10004 121.99C6.77455 122.253 0.735321 125.429 0.735321 125.429Z" fill="#4A3E36"/>
<path d="M13.7981 126.272C13.8804 127.382 13.8412 128.284 14.0608 128.684C14.2804 129.084 18.402 129.213 19.1981 128.684C19.9941 128.154 19.9549 127.249 21.2255 126.813C22.4961 126.378 23.2138 126.649 24.2255 125.151C25.2373 123.653 24.8451 122.849 23.7941 122.449C22.7432 122.049 20.3471 122.684 20.0216 122.951C19.6961 123.217 13.7981 126.272 13.7981 126.272Z" fill="#4A3E36"/>
<path d="M4.0961 72.8525C3.151 76.3819 3.50787 83.7153 3.62551 86.7859C3.74316 89.8564 3.18629 100.119 2.90394 101.178C1.85675 105.285 1.03331 109.445 0.437275 113.641C-0.0333126 116.711 -0.284292 124.543 0.539236 125.366C1.36277 126.19 6.44512 125.602 7.39022 123.829C8.33532 122.056 8.0961 112.68 9.27649 108.19C10.4569 103.7 10.9471 102.413 11.1824 99.927C11.4177 97.4408 12.8804 86.9859 12.8804 86.9859C12.8804 86.9859 14.3706 98.7506 14.1353 101.351C13.9 103.951 13.0804 107.033 13.0804 112.586C13.0804 118.139 13.2922 125.856 13.2922 126.311C13.2922 126.766 14.9314 127.782 17.4726 126.954C20.0137 126.127 20.4961 125.488 20.4961 124.896C20.4961 124.304 20.5196 110.68 21.1118 107.609C21.7039 104.539 22.1628 102.762 22.1628 99.9231C22.1628 97.0839 23.151 77.7859 23.1392 74.1898C23.1275 71.2015 4.0961 72.8525 4.0961 72.8525Z" fill="#5874CB"/>
<path d="M0.539247 125.362C-0.284281 124.539 -0.0372232 116.707 0.437286 113.637C1.03356 109.441 1.857 105.281 2.90395 101.174C3.18631 100.119 3.74317 89.8526 3.62553 86.782C3.50788 83.7114 3.15493 76.3898 4.09612 72.8447H4.24122L17.3785 76.8604C16.7393 79.8683 17.8098 99.382 17.3785 103.97C17.0059 107.962 15.5667 121.962 15.6687 127.256C14.1863 127.256 13.2961 126.653 13.2961 126.304C13.2961 125.833 13.0804 118.107 13.0804 112.578C13.0804 107.049 13.9 103.951 14.1353 101.343C14.3706 98.7349 12.8804 86.9781 12.8804 86.9781C11.2002 87.5863 9.43796 87.9381 7.65298 88.0212C7.65298 88.0212 6.62161 100.539 5.6922 102.629C4.76278 104.719 1.31572 121.715 2.30395 125.731C1.46866 125.739 0.798071 125.621 0.539247 125.362Z" fill="#758FE3"/>
<path d="M12.8922 86.9741C12.8922 86.9741 11.7157 80.5702 11.9628 76.731L8.11573 76.076L7.60593 88.6251L8.74318 92.2015L12.8922 86.9741Z" fill="#5874CB"/>
<path d="M8.93925 36.9507C7.87651 38.0134 3.52355 37.837 2.46081 41.2016C1.39806 44.5663 2.56276 48.9977 3.97847 53.0683C5.39415 57.1389 5.75102 62.28 4.68435 66.3545C3.61767 70.429 3.09218 73.8055 3.26865 74.3271C3.44512 74.8487 8.93533 78.2251 15.8451 77.1624C22.7549 76.0996 23.9942 73.0879 23.9942 73.0879C23.9942 73.0879 22.7549 65.1153 22.2216 62.4604C21.6883 59.8055 22.0451 53.2487 22.0451 53.2487C22.0451 53.2487 19.5275 46.2643 18.551 43.6055C17.5745 40.9467 25.4098 40.4055 22.3118 39.684C19.2138 38.9625 17.5824 38.0017 17.3785 37.4723C17.1745 36.9429 16.202 35.7899 12.8334 35.7899C9.46474 35.7899 8.93925 36.9507 8.93925 36.9507Z" fill="#F8D777"/>
<path d="M36.649 31.2565C38.5902 29.382 44.0804 20.531 44.0804 20.531C43.6294 18.0722 40.5902 16.782 40.5902 16.782C40.5902 16.782 34.202 23.3271 32.2608 25.5232C30.3196 27.7192 28.802 30.433 25.3118 32.8212C21.8216 35.2094 20.9157 37.6526 18.253 37.7153C18.0306 37.7196 17.809 37.7419 17.5902 37.782C17.4931 37.7002 17.4166 37.5968 17.3667 37.48C17.1628 36.9506 16.1902 35.7977 12.8216 35.7977C9.45297 35.7977 8.92356 36.9506 8.92356 36.9506C7.86473 38.0134 3.50787 37.8369 2.44512 41.2015C1.38238 44.5662 2.54708 48.9976 3.96277 53.0682C5.37846 57.1388 5.73532 62.2799 4.67258 66.3545C3.60983 70.429 3.08042 73.8054 3.25689 74.327C3.43336 74.8486 8.92356 78.225 15.8334 77.1584C22.7432 76.0917 23.9785 73.0878 23.9785 73.0878C23.9785 73.0878 23.1941 66.6407 23.1118 60.4015C23.0795 56.6011 23.2917 52.8023 23.7471 49.029C24.0177 47.0564 34.7079 33.131 36.649 31.2565Z" fill="#F8D777"/>
<path d="M14.9314 20.1664C11.3079 19.7742 8.19807 21.735 7.17062 26.3429C6.14317 30.9507 6.21768 34.735 5.20984 37.0292C5.20984 37.0292 7.10788 40.1977 13.2098 40.0369C19.3118 39.8761 21.2843 37.7429 21.2843 37.7429C21.2843 37.7429 20.5745 32.1154 20.6491 29.9429C20.7236 27.7703 21.7392 20.8762 14.9314 20.1664Z" fill="#755640"/>
<g opacity="0.5">
<path opacity="0.5" d="M5.19022 37.0291C6.22159 34.735 6.13924 30.9311 7.151 26.3428C7.65296 24.1076 8.64904 22.5036 9.95884 21.4801C4.97845 27.2958 15.2451 35.9468 20.6098 29.9428C20.5314 32.1154 21.2451 37.7428 21.2451 37.7428C21.2451 37.7428 19.2843 39.8839 13.1667 40.0369C7.04904 40.1898 5.19022 37.0291 5.19022 37.0291Z" fill="#64452D"/>
</g>
<path d="M36.649 31.2566C38.5902 29.3821 44.0804 20.5311 44.0804 20.5311C43.9718 19.9814 43.7443 19.4621 43.4137 19.0095C37.9902 24.9154 30.4961 34.1154 28.0726 37.1076C25.3667 40.4369 19.6255 46.5428 20.0608 47.7506C20.4961 48.9585 20.453 71.9977 19.5039 73.0879C18.6412 74.08 11.0216 76.9859 3.25297 73.6095C3.21959 73.8475 3.21959 74.0891 3.25297 74.3271C3.43336 74.8565 8.92356 78.2251 15.8334 77.1624C22.7432 76.0997 23.9785 73.0879 23.9785 73.0879C23.9785 73.0879 23.1941 66.6408 23.1118 60.4016C23.0802 56.6012 23.291 52.8028 23.7432 49.0291C24.0177 47.0565 34.7118 33.1311 36.649 31.2566Z" fill="#F6C951"/>
</g>
<defs>
<clipPath id="clip0">
<path d="M0 0H100V129.412H0V0Z" fill="white"/>
</clipPath>
</defs>
</svg>
