<svg width="127" height="111" viewBox="0 0 127 111" fill="none" xmlns="http://www.w3.org/2000/svg">
<path d="M69.4499 17.2165C69.3445 17.1401 69.2021 17.1401 69.0967 17.2165L25.6163 48.8081C25.5111 48.8847 25.467 49.0201 25.5072 49.1438L42.1139 100.258C42.154 100.382 42.2694 100.465 42.3994 100.465H96.1442C96.2742 100.465 96.3895 100.382 96.4297 100.258L113.039 49.1438C113.08 49.0201 113.035 48.8847 112.93 48.8081L69.4499 17.2165Z" stroke="#59B7B7" stroke-miterlimit="10" stroke-linejoin="round"/>
<path d="M69.4498 23.9973C69.3444 23.9208 69.2021 23.9208 69.0967 23.9973L31.8715 51.0424C31.7663 51.1189 31.7222 51.2544 31.7624 51.3781L45.9817 95.1409C46.0219 95.2646 46.1371 95.3484 46.2673 95.3484H92.2793C92.4093 95.3484 92.5246 95.2646 92.5649 95.1409L106.784 51.3781C106.824 51.2544 106.78 51.1189 106.675 51.0424L69.4498 23.9973Z" stroke="#59B7B7" stroke-miterlimit="10" stroke-linejoin="round"/>
<path d="M69.4499 30.5197C69.3445 30.4433 69.2021 30.4433 69.0967 30.5197L38.1658 52.9912C38.0606 53.0678 38.0165 53.2033 38.0567 53.327L49.8706 89.6903C49.9108 89.8141 50.0261 89.8979 50.1562 89.8979H88.3904C88.5204 89.8979 88.6357 89.8141 88.676 89.6903L100.49 53.327C100.53 53.2033 100.486 53.0678 100.381 52.9912L69.4499 30.5197Z" stroke="#59B7B7" stroke-miterlimit="10" stroke-linejoin="round"/>
<path d="M69.4499 36.6699C69.3444 36.5934 69.2021 36.5934 69.0967 36.6699L44.1928 54.763C44.0876 54.8396 44.0435 54.975 44.0838 55.0988L53.5973 84.372C53.6375 84.4958 53.7529 84.5795 53.8829 84.5795H84.6637C84.7937 84.5795 84.909 84.4958 84.9493 84.372L94.4598 55.0988C94.5 54.975 94.4559 54.8396 94.3508 54.763L69.4499 36.6699Z" stroke="#59B7B7" stroke-miterlimit="10" stroke-linejoin="round"/>
<path d="M69.4498 43.5139C69.3444 43.4373 69.2021 43.4373 69.0967 43.5139L50.5171 57.0124C50.412 57.0889 50.3679 57.2244 50.4081 57.3481L57.5042 79.1859C57.5444 79.3096 57.6597 79.3934 57.7898 79.3934H80.7537C80.8838 79.3934 80.9991 79.3096 81.0393 79.1859L88.1354 57.3481C88.1757 57.2244 88.1315 57.0889 88.0264 57.0124L69.4498 43.5139Z" stroke="#59B7B7" stroke-miterlimit="10" stroke-linejoin="round"/>
<path d="M69.4499 49.9822C69.3444 49.9057 69.2021 49.9057 69.0967 49.9822L56.7153 58.9762C56.6102 59.0528 56.5661 59.1882 56.6063 59.312L61.336 73.8705C61.3763 73.9943 61.4916 74.078 61.6216 74.078H76.9249C77.055 74.078 77.1703 73.9943 77.2105 73.8705L81.9402 59.312C81.9805 59.1882 81.9363 59.0528 81.8312 58.9762L69.4499 49.9822Z" stroke="#59B7B7" stroke-miterlimit="10" stroke-linejoin="round"/>
<path d="M69.4499 56.4417C69.3445 56.3651 69.2021 56.3651 69.0967 56.4417L62.8385 60.9913C62.7333 61.0678 62.6892 61.2033 62.7294 61.327L65.1198 68.6843C65.1601 68.8081 65.2754 68.8919 65.4054 68.8919H73.1412C73.2712 68.8919 73.3865 68.8081 73.4267 68.6843L75.8171 61.327C75.8574 61.2033 75.8132 61.0678 75.7081 60.9913L69.4499 56.4417Z" stroke="#59B7B7" stroke-miterlimit="10" stroke-linejoin="round"/>
<path d="M94.5 55L69 63.5L38 53L69 18.5L94.5 55Z" fill="#59B7B7" fill-opacity="0.7" stroke="#59B7B7" stroke-miterlimit="10" stroke-linejoin="round"/>
<path d="M104.578 109.242H101.496L100.91 111H99.041L102.217 102.469H103.846L107.039 111H105.17L104.578 109.242ZM101.971 107.818H104.104L103.031 104.625L101.971 107.818Z" fill="#59B7B7"/>
<path d="M65.7617 11V2.46875H68.3867C69.1367 2.46875 69.8066 2.63867 70.3965 2.97852C70.9902 3.31445 71.4531 3.79492 71.7852 4.41992C72.1172 5.04102 72.2832 5.74805 72.2832 6.54102V6.93359C72.2832 7.72656 72.1191 8.43164 71.791 9.04883C71.4668 9.66602 71.0078 10.1445 70.4141 10.4844C69.8203 10.8242 69.1504 10.9961 68.4043 11H65.7617ZM67.5195 3.89258V9.58789H68.3691C69.0566 9.58789 69.582 9.36328 69.9453 8.91406C70.3086 8.46484 70.4941 7.82227 70.502 6.98633V6.53516C70.502 5.66797 70.3223 5.01172 69.9629 4.56641C69.6035 4.11719 69.0781 3.89258 68.3867 3.89258H67.5195Z" fill="#59B7B7"/>
<path d="M118.631 50H116.873V41.4688H118.631V50ZM124.689 47.7617C124.689 47.4297 124.572 47.1758 124.338 47C124.104 46.8203 123.682 46.6328 123.072 46.4375C122.463 46.2383 121.98 46.043 121.625 45.8516C120.656 45.3281 120.172 44.623 120.172 43.7363C120.172 43.2754 120.301 42.8652 120.559 42.5059C120.82 42.1426 121.193 41.8594 121.678 41.6562C122.166 41.4531 122.713 41.3516 123.318 41.3516C123.928 41.3516 124.471 41.4629 124.947 41.6855C125.424 41.9043 125.793 42.2148 126.055 42.6172C126.32 43.0195 126.453 43.4766 126.453 43.9883H124.695C124.695 43.5977 124.572 43.2949 124.326 43.0801C124.08 42.8613 123.734 42.752 123.289 42.752C122.859 42.752 122.525 42.8438 122.287 43.0273C122.049 43.207 121.93 43.4453 121.93 43.7422C121.93 44.0195 122.068 44.252 122.346 44.4395C122.627 44.627 123.039 44.8027 123.582 44.9668C124.582 45.2676 125.311 45.6406 125.768 46.0859C126.225 46.5312 126.453 47.0859 126.453 47.75C126.453 48.4883 126.174 49.0684 125.615 49.4902C125.057 49.9082 124.305 50.1172 123.359 50.1172C122.703 50.1172 122.105 49.998 121.566 49.7598C121.027 49.5176 120.615 49.1875 120.33 48.7695C120.049 48.3516 119.908 47.8672 119.908 47.3164H121.672C121.672 48.2578 122.234 48.7285 123.359 48.7285C123.777 48.7285 124.104 48.6445 124.338 48.4766C124.572 48.3047 124.689 48.0664 124.689 47.7617Z" fill="#59B7B7"/>
<path d="M2.51953 46.9941V50H0.761719V41.4688H4.08984C4.73047 41.4688 5.29297 41.5859 5.77734 41.8203C6.26562 42.0547 6.64062 42.3887 6.90234 42.8223C7.16406 43.252 7.29492 43.7422 7.29492 44.293C7.29492 45.1289 7.00781 45.7891 6.43359 46.2734C5.86328 46.7539 5.07227 46.9941 4.06055 46.9941H2.51953ZM2.51953 45.5703H4.08984C4.55469 45.5703 4.9082 45.4609 5.15039 45.2422C5.39648 45.0234 5.51953 44.7109 5.51953 44.3047C5.51953 43.8867 5.39648 43.5488 5.15039 43.291C4.9043 43.0332 4.56445 42.9004 4.13086 42.8926H2.51953V45.5703ZM12.9316 47.7617C12.9316 47.4297 12.8145 47.1758 12.5801 47C12.3457 46.8203 11.9238 46.6328 11.3145 46.4375C10.7051 46.2383 10.2227 46.043 9.86719 45.8516C8.89844 45.3281 8.41406 44.623 8.41406 43.7363C8.41406 43.2754 8.54297 42.8652 8.80078 42.5059C9.0625 42.1426 9.43555 41.8594 9.91992 41.6562C10.4082 41.4531 10.9551 41.3516 11.5605 41.3516C12.1699 41.3516 12.7129 41.4629 13.1895 41.6855C13.666 41.9043 14.0352 42.2148 14.2969 42.6172C14.5625 43.0195 14.6953 43.4766 14.6953 43.9883H12.9375C12.9375 43.5977 12.8145 43.2949 12.5684 43.0801C12.3223 42.8613 11.9766 42.752 11.5312 42.752C11.1016 42.752 10.7676 42.8438 10.5293 43.0273C10.291 43.207 10.1719 43.4453 10.1719 43.7422C10.1719 44.0195 10.3105 44.252 10.5879 44.4395C10.8691 44.627 11.2812 44.8027 11.8242 44.9668C12.8242 45.2676 13.5527 45.6406 14.0098 46.0859C14.4668 46.5312 14.6953 47.0859 14.6953 47.75C14.6953 48.4883 14.416 49.0684 13.8574 49.4902C13.2988 49.9082 12.5469 50.1172 11.6016 50.1172C10.9453 50.1172 10.3477 49.998 9.80859 49.7598C9.26953 49.5176 8.85742 49.1875 8.57227 48.7695C8.29102 48.3516 8.15039 47.8672 8.15039 47.3164H9.91406C9.91406 48.2578 10.4766 48.7285 11.6016 48.7285C12.0195 48.7285 12.3457 48.6445 12.5801 48.4766C12.8145 48.3047 12.9316 48.0664 12.9316 47.7617ZM20.3145 47.7617C20.3145 47.4297 20.1973 47.1758 19.9629 47C19.7285 46.8203 19.3066 46.6328 18.6973 46.4375C18.0879 46.2383 17.6055 46.043 17.25 45.8516C16.2812 45.3281 15.7969 44.623 15.7969 43.7363C15.7969 43.2754 15.9258 42.8652 16.1836 42.5059C16.4453 42.1426 16.8184 41.8594 17.3027 41.6562C17.791 41.4531 18.3379 41.3516 18.9434 41.3516C19.5527 41.3516 20.0957 41.4629 20.5723 41.6855C21.0488 41.9043 21.418 42.2148 21.6797 42.6172C21.9453 43.0195 22.0781 43.4766 22.0781 43.9883H20.3203C20.3203 43.5977 20.1973 43.2949 19.9512 43.0801C19.7051 42.8613 19.3594 42.752 18.9141 42.752C18.4844 42.752 18.1504 42.8438 17.9121 43.0273C17.6738 43.207 17.5547 43.4453 17.5547 43.7422C17.5547 44.0195 17.6934 44.252 17.9707 44.4395C18.252 44.627 18.6641 44.8027 19.207 44.9668C20.207 45.2676 20.9355 45.6406 21.3926 46.0859C21.8496 46.5312 22.0781 47.0859 22.0781 47.75C22.0781 48.4883 21.7988 49.0684 21.2402 49.4902C20.6816 49.9082 19.9297 50.1172 18.9844 50.1172C18.3281 50.1172 17.7305 49.998 17.1914 49.7598C16.6523 49.5176 16.2402 49.1875 15.9551 48.7695C15.6738 48.3516 15.5332 47.8672 15.5332 47.3164H17.2969C17.2969 48.2578 17.8594 48.7285 18.9844 48.7285C19.4023 48.7285 19.7285 48.6445 19.9629 48.4766C20.1973 48.3047 20.3145 48.0664 20.3145 47.7617Z" fill="#59B7B7"/>
<path d="M36.9199 107.877H35.5195V111H33.7617V102.469H36.9316C37.9395 102.469 38.7168 102.693 39.2637 103.143C39.8105 103.592 40.084 104.227 40.084 105.047C40.084 105.629 39.957 106.115 39.7031 106.506C39.4531 106.893 39.0723 107.201 38.5605 107.432L40.4062 110.918V111H38.5195L36.9199 107.877ZM35.5195 106.453H36.9375C37.3789 106.453 37.7207 106.342 37.9629 106.119C38.2051 105.893 38.3262 105.582 38.3262 105.188C38.3262 104.785 38.2109 104.469 37.9805 104.238C37.7539 104.008 37.4043 103.893 36.9316 103.893H35.5195V106.453Z" fill="#59B7B7"/>
</svg>
