<svg width="150" height="24" viewBox="0 0 150 24" fill="none" xmlns="http://www.w3.org/2000/svg">
<path d="M21.6301 20.6826L18.134 17.3811C17.633 18.4025 16.7812 19.195 15.7446 19.6043L18.9027 23.3291C19.0731 23.526 19.2794 23.6862 19.5099 23.8008C19.7404 23.9154 19.9905 23.982 20.2459 23.9969C20.5014 24.0118 20.7572 23.9746 20.9987 23.8875C21.2402 23.8004 21.4627 23.6651 21.6535 23.4893C21.6678 23.4764 21.6815 23.4634 21.6952 23.4499C21.87 23.2692 22.0073 23.0538 22.0988 22.8167C22.1903 22.5796 22.2341 22.3257 22.2275 22.0706C22.2281 21.809 22.1753 21.5501 22.0723 21.3109C21.9694 21.0717 21.8187 20.8576 21.6301 20.6826V20.6826Z" fill="white"/>
<path d="M19.1483 12.1385H18.8885C18.5197 12.192 18.144 12.1596 17.7889 12.0437C17.4338 11.9278 17.1084 11.7314 16.8366 11.4689L16.6156 11.2481L16.5442 11.5625C16.1774 13.2566 15.2324 14.7583 13.8817 15.794C12.5309 16.8297 10.8642 17.3304 9.18544 17.2048C7.50665 17.0792 5.9275 16.3357 4.73583 15.1098C3.54415 13.884 2.8193 12.2573 2.69338 10.5264C2.56745 8.79544 3.04885 7.07547 4.04982 5.67996C5.05079 4.28445 6.50469 3.30631 8.14653 2.92381C9.78836 2.54132 11.5088 2.77995 12.9943 3.59621C14.4798 4.41246 15.6314 5.75199 16.2393 7.37065V7.43779L16.8172 7.75227L16.908 7.67218C17.3962 7.24304 18.0273 7.02694 18.6675 7.06972H18.9273L18.8428 6.82178C18.2199 4.89202 17.0396 3.20485 15.4603 1.9866C13.881 0.768344 11.9782 0.0772803 10.0072 0.00610891C8.03615 -0.0650625 6.09114 0.487063 4.43308 1.58842C2.77502 2.68978 1.48322 4.28768 0.730959 6.16779C-0.0212999 8.0479 -0.198032 10.1203 0.22447 12.1069C0.646972 14.0936 1.6485 15.8995 3.0947 17.2824C4.5409 18.6652 6.36261 19.559 8.31544 19.8437C10.2683 20.1284 12.2588 19.7904 14.0201 18.8751V18.8751C14.0201 18.8751 14.7276 19.4711 16.0525 18.5736C16.5863 18.2191 17.0511 17.7649 17.4231 17.2344C17.6378 17.0164 17.7761 16.731 17.8161 16.423C17.8561 16.1151 17.7956 15.8022 17.6441 15.5336C18.2956 14.5565 18.7688 13.4651 19.0404 12.3128L19.1483 12.1385Z" fill="white"/>
<path d="M22.033 2.18038C21.6622 2.17232 21.2968 2.27362 20.9799 2.47234C20.663 2.67107 20.4077 2.95898 20.244 3.30221C20.0803 3.64544 20.0151 4.02973 20.0559 4.40989C20.0967 4.79006 20.242 5.1503 20.4745 5.44827L19.1394 7.33692V7.37048C18.7429 7.26712 18.3269 7.27468 17.9342 7.39238C17.5415 7.51008 17.1863 7.73366 16.9053 8.04008L14.3532 6.66732V6.42056C14.3208 5.74952 14.0395 5.11699 13.5675 4.65386C13.0955 4.19073 12.4689 3.93245 11.8174 3.93245C11.1658 3.93245 10.5392 4.19073 10.0672 4.65386C9.59522 5.11699 9.31391 5.74952 9.28151 6.42056C9.28216 6.98976 9.46482 7.54285 9.80119 7.99415L8.97427 9.33216L9.1239 9.43286C9.25708 9.51401 9.37745 9.6157 9.48082 9.73439C9.32175 9.65947 9.15666 9.59898 8.98741 9.55359C8.28879 9.36816 7.55144 9.41259 6.87851 9.68064C6.20558 9.9487 5.63074 10.427 5.23441 11.0486C4.83809 11.6702 4.6401 12.404 4.66814 13.1474C4.69619 13.8907 4.94888 14.6064 5.39084 15.1944C5.83281 15.7824 6.44195 16.2131 7.13304 16.4265C7.82413 16.6398 8.5626 16.625 9.24514 16.3841C9.92767 16.1433 10.5201 15.6884 10.9396 15.0832C11.3591 14.478 11.5846 13.7527 11.5846 13.0088C11.5884 12.0891 11.2438 11.2043 10.6241 10.543L11.4682 8.98293C11.8564 9.04489 12.2533 9.01036 12.626 8.88222C12.9987 8.75407 13.3363 8.53602 13.6108 8.2462L16.26 9.7126C16.2676 10.3342 16.5143 10.9273 16.9459 11.3614C17.3775 11.7954 17.9586 12.0348 18.5615 12.027C19.1643 12.0192 19.7394 11.7648 20.1603 11.3197C20.5811 10.8746 20.8133 10.2753 20.8058 9.65371C20.8228 9.28519 20.7538 8.91784 20.6048 8.58247L22.0324 6.23859C22.5543 6.23859 23.0548 6.02481 23.4238 5.64428C23.7928 5.26375 24.0001 4.74764 24.0001 4.20948C24.0001 3.67133 23.7928 3.15522 23.4238 2.77469C23.0548 2.39416 22.5543 2.18038 22.0324 2.18038H22.033Z" fill="white"/>
<path d="M42.18 4.5C41.94 4.28 41.6 4.02 41.22 3.74C41.6 3.4 41.94 3.02 42.22 2.64L40.68 2.18C40.48 2.44 40.24 2.7 39.98 2.94C39.58 2.7 39.18 2.48 38.82 2.3L37.72 3.22C38.06 3.4 38.42 3.6 38.78 3.82C38.28 4.14 37.76 4.4 37.22 4.62C37.6 4.88 38.22 5.42 38.48 5.7C39 5.42 39.54 5.08 40.08 4.7C40.46 5 40.78 5.28 41.02 5.52L42.18 4.5ZM43.84 11.68L43.34 11.8H34.84V13.46H41.28C40.88 13.76 40.44 14.04 40.02 14.28H38.84V15.2H31.3V17.06H38.84V18.44C38.84 18.7 38.74 18.76 38.42 18.78C38.1 18.78 36.92 18.78 35.94 18.74C36.24 19.3 36.58 20.12 36.7 20.74C38.2 20.74 39.3 20.74 40.1 20.42C40.94 20.12 41.16 19.62 41.16 18.52V17.06H48.72V15.2H41.7C42.92 14.5 44.16 13.68 45.16 12.88L43.84 11.68ZM47.24 9.22C47.44 7.36 47.6 4.82 47.7 2.7H42.66V4.2H45.38L45.34 4.88H42.74V6.36H45.24L45.2 7.04H42.68V8.52H45.06L45 9.22H35.02L34.98 8.52H37.48V8.34C37.84 8.6 38.26 8.98 38.48 9.2C39.02 8.9 39.6 8.54 40.16 8.12C40.58 8.44 40.94 8.74 41.18 9L42.38 8C42.1 7.74 41.72 7.44 41.3 7.14C41.7 6.78 42.04 6.38 42.32 5.98L40.78 5.52C40.58 5.8 40.32 6.08 40.04 6.34C39.64 6.1 39.24 5.88 38.88 5.7L37.78 6.6C38.12 6.8 38.5 7.02 38.86 7.24C38.42 7.52 37.96 7.78 37.48 8.02V7.04H34.9L34.86 6.36H37.42V4.88H34.78L34.76 4.42C35.68 4.18 36.74 3.84 37.58 3.44L36.48 2.16C35.78 2.46 34.7 2.9 33.76 3.2L32.46 2.94L32.84 9.22H31.3V13.32H33.56V10.94H46.4V13.32H48.76V9.22H47.24ZM59.88 16.6V15.4H61.72V16.6H59.88ZM61.72 12.66V13.86H59.88V12.66H61.72ZM61.66 5.64C61.56 6.36 61.34 7.38 61.14 8.08L62.16 8.3H59.3L60.2 8.08C60.16 7.42 59.98 6.4 59.68 5.64H61.66ZM54.98 7.06H53.66V4.9H54.98V7.06ZM53.66 15.48V13.06H54.98V15.24L53.66 15.48ZM54.98 11.14H53.66V8.98H54.98V11.14ZM67.26 10.88C67.06 11.64 66.82 12.38 66.54 13.08C66.46 12.18 66.4 11.2 66.36 10.14H69.36V8.3H66.28C66.24 6.96 66.22 5.56 66.22 4.08C66.88 5.02 67.52 6.2 67.8 7L69.44 6.08C69.1 5.18 68.32 3.88 67.5 2.9L66.22 3.58V2.08H64.14C64.16 4.3 64.2 6.4 64.26 8.3H62.66C62.88 7.66 63.16 6.76 63.46 5.9L62.1 5.64H63.82V3.9H61.78V2.1H59.76V3.9H57.8V2.82H50.94V4.9H51.72V15.8C51.3 15.88 50.9 15.94 50.54 15.98L50.94 18.16C52.14 17.92 53.56 17.62 54.98 17.32V20.74H56.96V4.9H57.72V5.64H59.3L58.14 5.92C58.38 6.66 58.54 7.64 58.58 8.3H57.32V10.14H64.34C64.44 12.44 64.62 14.44 64.88 16.06C64.48 16.62 64.04 17.14 63.56 17.6V11.02H58.06V19.38H59.88V18.22H62.88C62.44 18.58 61.96 18.92 61.46 19.22C61.88 19.6 62.56 20.38 62.82 20.78C63.78 20.12 64.66 19.34 65.44 18.44C65.92 19.9 66.58 20.7 67.48 20.72C68.16 20.72 69.1 20.02 69.6 16.78C69.26 16.56 68.4 15.94 68.06 15.46C67.98 17.04 67.82 17.96 67.58 17.96C67.34 17.94 67.12 17.4 66.94 16.44C67.88 14.94 68.62 13.22 69.16 11.3L67.26 10.88ZM81.12 11.62H83.22L82.82 11.94C83.08 12.04 83.36 12.18 83.64 12.3L81.12 12.32V11.62ZM75.26 10.16V9.4H78.8V10.16H75.26ZM75.26 7.3H78.8V8.04H75.26V7.3ZM84.84 7.3V8.04H81.12V7.3H84.84ZM81.12 10.16V9.4H84.84V10.16H81.12ZM89.1 14.62H84.64V13.82L86.1 13.78C86.42 14 86.7 14.24 86.94 14.44L88.4 13.22C87.76 12.74 86.82 12.14 85.82 11.62H87.16V5.86H81.12V5.14H88.42V3.34H81.12V2.08H78.8V3.34H71.46V5.14H78.8V5.86H73.04V11.62H78.8V12.34C76.1 12.34 73.64 12.36 71.76 12.34L71.82 14.04C74.62 14.02 78.4 13.96 82.34 13.88V14.62H70.92V16.5H74.92L74.08 17.2C75.16 17.94 76.5 19.08 77.08 19.86L78.84 18.34C78.38 17.8 77.54 17.1 76.7 16.5H82.34V18.36C82.34 18.62 82.24 18.68 81.92 18.7C81.6 18.7 80.46 18.7 79.5 18.66C79.78 19.26 80.08 20.1 80.18 20.74C81.7 20.74 82.82 20.72 83.62 20.42C84.44 20.1 84.64 19.54 84.64 18.44V16.5H89.1V14.62ZM93.9 5.8H106.08V8.1H108.52V3.64H101.2V2.08H98.76V3.64H91.56V8.1H93.9V5.8ZM106.66 9.22C105.94 9.9 104.88 10.72 103.88 11.4C103.56 10.66 103.28 9.88 103.06 9.08H105.34V7.08H94.6V9.08H97.52C95.76 9.98 93.54 10.68 91.4 11.1C91.78 11.56 92.38 12.5 92.62 12.96C94.2 12.54 95.84 11.96 97.36 11.26C97.54 11.42 97.7 11.58 97.86 11.74C96.36 12.76 93.7 13.86 91.68 14.34C92.12 14.8 92.62 15.62 92.88 16.14C94.78 15.48 97.24 14.28 98.94 13.14C99.08 13.36 99.2 13.6 99.32 13.84C97.34 15.52 93.86 17.16 90.98 17.88C91.42 18.4 91.94 19.26 92.22 19.86C94.72 19 97.68 17.5 99.86 15.9C99.94 16.96 99.66 17.78 99.2 18.14C98.88 18.5 98.5 18.56 98 18.56C97.48 18.56 96.84 18.52 96.08 18.46C96.52 19.12 96.72 20.08 96.76 20.74C97.34 20.78 97.96 20.8 98.46 20.78C99.5 20.78 100.16 20.58 100.9 19.94C102.88 18.5 103.02 13.52 99.26 10.24C99.86 9.88 100.42 9.5 100.92 9.08H100.96C102.1 13.74 104.08 17.42 107.64 19.32C108.02 18.66 108.78 17.72 109.3 17.26C107.42 16.42 105.94 15 104.84 13.24C106 12.58 107.38 11.68 108.52 10.82L106.66 9.22ZM129.1 11.72H121.24V5.66H127.94V3.3H112.02V5.66H118.76V11.72H110.98V14.12H118.76V20.74H121.24V14.12H129.1V11.72ZM113.24 6.94C113.88 8.28 114.5 10.02 114.7 11.1L117.02 10.38C116.8 9.26 116.08 7.58 115.42 6.3L113.24 6.94ZM124.92 11.06C125.6 10.04 126.4 8.42 127.12 6.88L124.58 6.24C124.2 7.54 123.48 9.3 122.84 10.46L124.92 11.06ZM144.1 14.18V17.64H135.78V14.18H144.1ZM133.34 20.72H135.78V19.92H144.1V20.7H146.66V11.92H133.34V20.72ZM142.04 5.46C142.66 6 143.32 6.6 143.96 7.24C141.66 7.34 139.34 7.44 137.18 7.52C138.14 6.06 139.14 4.38 139.98 2.8L137.24 1.92C136.56 3.68 135.42 5.88 134.3 7.62C133.18 7.64 132.14 7.68 131.22 7.7L131.36 10.1C135.08 9.96 140.66 9.74 145.94 9.46C146.48 10.12 146.92 10.74 147.22 11.28L149.28 9.7C148.26 7.98 145.88 5.68 143.9 4.06L142.04 5.46Z" fill="white"/>
</svg>
