<svg width="108" height="116" viewBox="0 0 108 116" fill="none" xmlns="http://www.w3.org/2000/svg">
<g filter="url(#filter0_d)">
<path d="M33.8856 37.2789C34.0728 37.3676 34.2177 37.5261 34.2893 37.7204C34.3609 37.9147 34.3534 38.1292 34.2685 38.3178C33.6906 39.9179 33.2725 41.5709 33.0205 43.2533C32.9982 43.4486 32.9005 43.6277 32.7481 43.7521C32.5958 43.8766 32.401 43.9368 32.205 43.9198C32.1081 43.9025 32.0155 43.8659 31.9328 43.8127C31.8499 43.7592 31.7785 43.6901 31.7225 43.6089C31.6665 43.528 31.627 43.4366 31.6064 43.3405C31.5858 43.244 31.5844 43.1444 31.6023 43.0476C31.6023 43.0476 31.6023 43.0476 31.6023 43.0228C31.861 41.2649 32.2897 39.5357 32.8822 37.8604C32.9396 37.6512 33.077 37.4729 33.2648 37.364C33.4525 37.2552 33.6756 37.2247 33.8856 37.2789Z" fill="#EAC79E"/>
<path d="M24.3941 40.0835C24.3476 40.1509 24.2762 40.1967 24.1958 40.2115C24.1153 40.2261 24.0324 40.208 23.9651 40.1615L23.9403 40.1438C23.8865 40.069 23.8615 39.9772 23.87 39.8853C23.8784 39.7935 23.9198 39.7077 23.9864 39.6439L25.4968 37.9526C25.544 37.8863 25.6152 37.841 25.6954 37.8264C25.7756 37.8119 25.8583 37.8293 25.9258 37.8746L25.9506 37.8959C26.0042 37.9704 26.0291 38.0615 26.0206 38.153C26.0121 38.2441 25.9709 38.3292 25.9045 38.3923L24.3941 40.0835Z" fill="#2F2E29"/>
<path d="M30.7762 46.9691C30.7535 47.0024 30.7244 47.0308 30.6907 47.0524C30.657 47.0744 30.6192 47.0893 30.5797 47.0967C30.5401 47.1038 30.4996 47.1034 30.4602 47.0949C30.421 47.0864 30.3837 47.0701 30.3507 47.0471L30.3224 47.0258C30.2695 46.9513 30.2451 46.8602 30.2536 46.7691C30.262 46.678 30.3028 46.5932 30.3684 46.5294L31.8824 44.8382C31.9045 44.8048 31.9331 44.7765 31.9664 44.7541C31.9996 44.7322 32.037 44.7166 32.0763 44.7091C32.1156 44.7017 32.156 44.7017 32.1951 44.7098C32.2342 44.7183 32.2714 44.7339 32.3043 44.7566L32.3327 44.7779C32.3872 44.8527 32.4127 44.9445 32.4042 45.0367C32.3957 45.1289 32.3539 45.2144 32.2866 45.2778L30.7762 46.9691Z" fill="#2F2E29"/>
<path d="M37.1334 55.2339L33.1234 59.719L31.3258 61.7258L25.2096 68.5724C24.9363 68.8911 24.5479 69.0889 24.1293 69.1219C23.7108 69.1552 23.296 69.0216 22.9759 68.7496C22.9192 68.7 22.866 68.6468 22.8128 68.5901L4.50693 48.7915C4.21152 48.4604 4.0348 48.0399 4.00462 47.597C3.97445 47.1538 4.09255 46.7135 4.34029 46.3451C4.38638 46.2848 4.43248 46.2245 4.48566 46.1643L12.3781 37.3393L12.3994 37.3145L16.4166 32.8294C16.5511 32.671 16.7155 32.5407 16.9004 32.4459C17.0853 32.351 17.287 32.2936 17.4942 32.2768C17.7013 32.26 17.9097 32.2842 18.1075 32.348C18.3052 32.4118 18.4885 32.5139 18.6467 32.6486C18.7033 32.6957 18.7566 32.7467 18.8063 32.8011L24.5501 39.0164L24.9579 39.456L30.9145 45.8983L31.3258 46.338L37.1121 52.5995C37.4349 52.9611 37.6151 53.4281 37.6191 53.9128C37.623 54.3975 37.4504 54.8672 37.1334 55.2339Z" fill="#523530"/>
<path d="M37.1369 55.2338L33.1233 59.719C32.8595 60.03 32.5369 60.2856 32.1741 60.4714C31.8114 60.6575 31.4155 60.7703 31.0092 60.8032C30.6029 60.8362 30.194 60.7887 29.806 60.6635C29.4181 60.5384 29.0586 60.3377 28.7481 60.0736C28.6384 59.9817 28.5353 59.8821 28.4396 59.7757L12.4384 42.4697C11.8087 41.7631 11.4575 40.8515 11.4503 39.9049C11.4431 38.9582 11.7805 38.0413 12.3994 37.3251L16.413 32.84C16.5481 32.6813 16.7132 32.5507 16.8988 32.4558C17.0845 32.361 17.287 32.3037 17.4949 32.2872C17.7027 32.2707 17.9117 32.2954 18.11 32.3599C18.3082 32.4243 18.4918 32.5272 18.6503 32.6628C18.7074 32.7081 18.7596 32.7592 18.8063 32.8152L37.1157 52.6137C37.4339 52.9749 37.6113 53.4387 37.6152 53.9198C37.6192 54.4013 37.4493 54.8679 37.1369 55.2338Z" fill="#6B453F"/>
<path d="M18.8134 53.883L17.9482 52.947C17.8024 52.7807 17.722 52.5672 17.722 52.346C17.722 52.1251 17.8024 51.9113 17.9482 51.745L21.2456 48.0576L23.2134 50.185L19.9125 53.8724C19.8518 53.9465 19.7767 54.0075 19.6918 54.0514C19.6069 54.0957 19.514 54.122 19.4186 54.1294C19.3232 54.1365 19.2273 54.1245 19.1367 54.094C19.0461 54.0631 18.9626 54.0142 18.8914 53.9504L18.8134 53.883Z" fill="#F7EFEF"/>
<path d="M18.7212 50.5643L19.214 50.0112L21.4761 52.4577L20.9832 53.0108L18.7212 50.5643Z" fill="#E3DBDB"/>
<path d="M19.1431 48.5929L20.2812 47.3201C20.2963 47.3016 20.3149 47.2864 20.3359 47.2751C20.3569 47.2641 20.38 47.257 20.4037 47.2548C20.4274 47.2524 20.4514 47.2548 20.4742 47.2619C20.497 47.2687 20.5181 47.28 20.5365 47.2953L20.5578 47.3165L23.8906 50.9224C23.9275 50.9639 23.9479 51.0178 23.9479 51.0731C23.9479 51.1287 23.9275 51.1823 23.8906 51.2238L22.7525 52.4966C22.7374 52.5151 22.7188 52.5303 22.6978 52.5417C22.6768 52.553 22.6537 52.5601 22.63 52.5622C22.6063 52.5647 22.5823 52.5622 22.5595 52.5551C22.5367 52.548 22.5156 52.5367 22.4972 52.5215L22.4759 52.5002L19.1431 48.8943C19.1062 48.8528 19.0858 48.7993 19.0858 48.7436C19.0858 48.6883 19.1062 48.6344 19.1431 48.5929Z" fill="#E3DBDB"/>
<path d="M19.6749 53.6312C19.6048 53.7135 19.505 53.7645 19.3973 53.773C19.2896 53.7819 19.1829 53.7475 19.1005 53.6773C19.0848 53.6663 19.0704 53.6532 19.058 53.6383L18.1681 52.6739C18.086 52.5803 18.0408 52.4601 18.0408 52.3353C18.0408 52.2109 18.086 52.0907 18.1681 51.9967L19.0757 50.9791L20.5897 52.6136L19.6749 53.6312Z" fill="white"/>
<path d="M22.9404 51.5003C22.8849 51.5641 22.8067 51.6035 22.7225 51.6102C22.6383 51.6166 22.5549 51.59 22.4901 51.5358L22.4582 51.5039C22.3948 51.4305 22.36 51.3369 22.36 51.2397C22.36 51.1429 22.3948 51.049 22.4582 50.9756C22.4854 50.9437 22.5187 50.9174 22.5561 50.8983C22.5934 50.8795 22.6342 50.8678 22.676 50.8646C22.7178 50.8614 22.7599 50.8664 22.7998 50.8791C22.8397 50.8922 22.8766 50.9128 22.9085 50.9401L22.9369 50.972C23.0015 51.0447 23.0374 51.1383 23.038 51.2355C23.0387 51.3326 23.004 51.4269 22.9404 51.5003Z" fill="#3C3C3B"/>
<path d="M20.533 48.8943C20.5058 48.9262 20.4725 48.9525 20.4351 48.9716C20.3978 48.9908 20.357 49.0021 20.3152 49.0057C20.2734 49.0089 20.2313 49.0039 20.1914 48.9908C20.1515 48.978 20.1146 48.9571 20.0827 48.9298L20.0508 48.9014C19.9867 48.8284 19.9514 48.7344 19.9514 48.6373C19.9514 48.5401 19.9867 48.4462 20.0508 48.3731C20.0774 48.3412 20.1102 48.3146 20.1471 48.2955C20.1841 48.276 20.2245 48.2643 20.266 48.2607C20.3076 48.2568 20.3494 48.2615 20.3892 48.2742C20.4289 48.287 20.4657 48.3072 20.4975 48.3341L20.533 48.366C20.5964 48.4394 20.6313 48.5334 20.6313 48.6302C20.6313 48.7273 20.5964 48.8209 20.533 48.8943Z" fill="#3C3C3B"/>
<path d="M20.1607 52.6633C20.1357 52.6867 20.1027 52.6998 20.0685 52.6998C20.0342 52.6998 20.0013 52.6867 19.9763 52.6633L19.0474 51.6635C19.0217 51.6333 19.0075 51.595 19.0075 51.5553C19.0075 51.5156 19.0217 51.4773 19.0474 51.4472C19.0593 51.4348 19.0736 51.4249 19.0894 51.4181C19.1053 51.4114 19.1223 51.4078 19.1395 51.4078C19.1568 51.4078 19.1738 51.4114 19.1897 51.4181C19.2055 51.4249 19.2198 51.4348 19.2317 51.4472L20.1571 52.447C20.1829 52.4772 20.197 52.5155 20.197 52.5552C20.197 52.5949 20.1829 52.6332 20.1571 52.6633H20.1607Z" fill="#B1B1B1"/>
<path d="M19.7848 53.0781C19.7599 53.1015 19.7269 53.1146 19.6927 53.1146C19.6584 53.1146 19.6255 53.1015 19.6005 53.0781L18.6786 52.0782C18.6522 52.0484 18.6376 52.0101 18.6376 51.9701C18.6376 51.9304 18.6522 51.8917 18.6786 51.8619C18.6905 51.8502 18.7046 51.8407 18.7201 51.8343C18.7356 51.8279 18.7522 51.8243 18.769 51.8243C18.7858 51.8243 18.8025 51.8279 18.818 51.8343C18.8335 51.8407 18.8476 51.8502 18.8594 51.8619L19.7848 52.8618C19.8106 52.8919 19.8247 52.9302 19.8247 52.9699C19.8247 53.0096 19.8106 53.0479 19.7848 53.0781Z" fill="#B1B1B1"/>
<path d="M19.4303 53.4965C19.4057 53.521 19.3726 53.5345 19.3381 53.5345C19.3036 53.5345 19.2705 53.521 19.2459 53.4965L18.3205 52.4967C18.2941 52.4669 18.2795 52.4286 18.2795 52.3885C18.2795 52.3488 18.2941 52.3102 18.3205 52.2804C18.3451 52.2563 18.3782 52.2428 18.4127 52.2428C18.4472 52.2428 18.4803 52.2563 18.5049 52.2804L19.4303 53.2802C19.456 53.3104 19.4701 53.3487 19.4701 53.3884C19.4701 53.4281 19.456 53.4664 19.4303 53.4965Z" fill="#B1B1B1"/>
<path d="M32.3717 45.5402C32.1722 45.542 31.979 45.471 31.8282 45.3406C31.6774 45.2101 31.5794 45.0289 31.5527 44.8311C30.8932 41.8209 28.7162 39.4772 25.9755 38.8036C25.7778 38.7568 25.6029 38.6419 25.4811 38.4791C25.3594 38.3168 25.2984 38.1164 25.3089 37.9136C25.3235 37.8161 25.3574 37.7225 25.4087 37.6385C25.46 37.5541 25.5276 37.4811 25.6075 37.4233C25.6874 37.3655 25.7781 37.324 25.8741 37.3017C25.9702 37.2793 26.0697 37.2765 26.1669 37.2932C26.2044 37.2988 26.2412 37.3084 26.2768 37.3215C29.5388 38.1193 32.1058 40.899 32.8894 44.4694C33.0064 45.0048 32.7511 45.4941 32.3753 45.5331L32.3717 45.5402Z" fill="#523530"/>
<path d="M30.5989 35.7934L32.7546 32.7266L35.8109 35.3219L33.6552 38.3888L30.5989 35.7934Z" fill="#F7D2A6"/>
<path d="M33.2971 38.7787C33.4361 38.9057 33.5245 39.0787 33.546 39.2659C33.5675 39.4527 33.5206 39.6414 33.4141 39.7963L30.5776 43.9234C30.5334 43.9922 30.4761 44.051 30.4089 44.0975C30.3418 44.1436 30.2661 44.1762 30.1863 44.1928C30.1065 44.2099 30.0242 44.2106 29.9441 44.1953C29.864 44.1801 29.7877 44.1492 29.7196 44.1042L29.6557 44.0546C29.5154 43.9287 29.4261 43.7553 29.4045 43.5681C29.383 43.3805 29.4307 43.1919 29.5387 43.037L32.3752 38.9099C32.4651 38.7723 32.606 38.6759 32.7668 38.6422C32.9277 38.6082 33.0955 38.6394 33.2332 38.7291C33.256 38.7436 33.2774 38.7603 33.2971 38.7787Z" fill="#EAC79E"/>
<path d="M31.0882 39.5411C31.2282 39.6666 31.3175 39.8393 31.3391 40.0261C31.3606 40.213 31.313 40.4013 31.2052 40.5552L29.7054 42.6825C29.615 42.8197 29.4738 42.9154 29.313 42.9484C29.1522 42.9817 28.9847 42.9498 28.8474 42.8598C28.8246 42.8452 28.8033 42.8286 28.7836 42.8101C28.6445 42.6832 28.5561 42.5102 28.5346 42.3233C28.5131 42.1365 28.56 41.9479 28.6666 41.7926L30.1699 39.6652C30.2141 39.5968 30.2714 39.5376 30.3385 39.4915C30.4057 39.445 30.4814 39.4128 30.5612 39.3957C30.6409 39.3791 30.7233 39.3784 30.8034 39.3936C30.8835 39.4085 30.9598 39.4397 31.0279 39.4844L31.0882 39.5411Z" fill="#EAC79E"/>
<path d="M30.145 38.5093C30.2853 38.6355 30.3748 38.8082 30.397 38.9954C30.4192 39.1826 30.3725 39.3716 30.2656 39.5269L29.0034 41.3245C28.9135 41.4624 28.7727 41.5585 28.6118 41.5925C28.4509 41.6266 28.2831 41.595 28.1453 41.5053L28.078 41.4557C27.9386 41.3298 27.8498 41.1575 27.8283 40.971C27.8067 40.7842 27.8539 40.5962 27.961 40.4416L29.2196 38.6511C29.3095 38.5136 29.4504 38.4171 29.6113 38.3834C29.7722 38.3494 29.9399 38.3806 30.0777 38.4703C30.1012 38.4816 30.1237 38.4944 30.145 38.5093Z" fill="#EAC79E"/>
<path d="M29.1488 37.6654C29.2727 37.7771 29.3518 37.9303 29.3713 38.0958C29.3909 38.2614 29.3496 38.4288 29.2551 38.566L28.1383 40.1579C28.0585 40.2803 27.9335 40.3661 27.7907 40.3966C27.6479 40.4274 27.4988 40.4001 27.376 40.321L27.3157 40.275C27.1908 40.1633 27.1111 40.0097 27.0915 39.8431C27.0719 39.6765 27.1138 39.5088 27.2093 39.3708L28.3262 37.7824C28.3654 37.7214 28.4162 37.6689 28.4758 37.6278C28.5354 37.5867 28.6026 37.5576 28.6734 37.5424C28.7442 37.5271 28.8174 37.5264 28.8886 37.5395C28.9598 37.5527 29.0278 37.58 29.0885 37.6193L29.1488 37.6654Z" fill="#EAC79E"/>
<path d="M29.0317 36.7968L28.3226 37.8214C28.2314 37.9608 28.1921 38.1278 28.2115 38.293C28.231 38.4582 28.308 38.6114 28.429 38.7256C28.4834 38.7731 28.5465 38.8089 28.6149 38.8316C28.6832 38.8546 28.7554 38.8635 28.8273 38.8582C28.8991 38.8528 28.9692 38.8333 29.0335 38.8011C29.0978 38.7685 29.155 38.7238 29.2019 38.6688L29.248 38.6085L29.1168 38.7965C29.0102 38.9514 28.9636 39.1397 28.9858 39.3262C29.008 39.513 29.0974 39.685 29.2374 39.8105C29.2988 39.864 29.37 39.9045 29.4471 39.93C29.5243 39.9559 29.6057 39.9658 29.6867 39.9598C29.7678 39.9541 29.8469 39.9321 29.9194 39.8956C29.992 39.8591 30.0566 39.8084 30.1096 39.7467L30.1592 39.6793L30.0387 39.8495C29.9314 40.0044 29.8841 40.1931 29.9056 40.3803C29.9271 40.5675 30.016 40.7405 30.1557 40.8671C30.2174 40.9206 30.2889 40.9614 30.3663 40.9869C30.4437 41.0125 30.5254 41.0227 30.6068 41.0167C30.6881 41.011 30.7675 40.9891 30.8403 40.9525C30.9132 40.9157 30.9782 40.865 31.0314 40.8033L31.0811 40.7359C30.9733 40.8901 30.9257 41.0784 30.9472 41.2653C30.9688 41.4521 31.058 41.6244 31.1981 41.7499C31.2595 41.8035 31.3307 41.8439 31.4079 41.8694C31.485 41.8953 31.5664 41.9052 31.6474 41.8992C31.7285 41.8935 31.8076 41.8715 31.8801 41.835C31.9527 41.7985 32.0173 41.7478 32.0703 41.6861C32.09 41.6652 32.1078 41.6429 32.1235 41.6188L33.095 40.2324L29.0317 36.7968Z" fill="#F7D2A6"/>
<path d="M32.5738 35.2262L33.6126 36.0877C34.0257 36.4582 34.2895 36.9663 34.3548 37.5172C34.4201 38.0679 34.2823 38.6238 33.9672 39.0801L32.9957 40.4594L28.9005 36.9811L29.872 35.5984C30.1371 35.1941 30.5518 34.9114 31.0251 34.8124C31.4983 34.7134 31.9915 34.8061 32.3965 35.0702C32.4461 35.1269 32.5099 35.173 32.5738 35.2262Z" fill="#F7D2A6"/>
<path opacity="0.1" d="M31.3151 61.7436L25.2096 68.5724C24.9363 68.8911 24.5479 69.089 24.1293 69.1219C23.7108 69.1553 23.296 69.0216 22.9759 68.7496C22.9192 68.7 22.866 68.6468 22.8128 68.5901L4.50693 48.7915C4.21152 48.4604 4.0348 48.0399 4.00462 47.597C3.97445 47.1538 4.09255 46.7135 4.34029 46.3451C9.18712 53.2909 19.0403 61.0486 31.3151 61.7436Z" fill="black"/>
<path d="M11.4669 74.4403L11.3428 74.4048L10.9528 74.2984L10.2118 74.0892L9.85721 73.9971C9.85721 73.8233 9.88203 73.6425 9.89266 73.4723C9.98485 72.2633 10.1196 71.033 10.6727 70.1785L11.4846 70.2955V72.5008V72.8802V74.3906L11.4669 74.4403Z" fill="#2F2E29"/>
<path d="M9.71538 86.0557L8.6907 85.8146C8.17659 83.3504 8.58079 79.5212 10.0345 74.6141C10.0841 74.4403 10.1373 74.2595 10.1905 74.0893C10.2791 73.7986 10.3713 73.5043 10.4635 73.21C10.7649 72.2669 11.1052 71.2989 11.4775 70.292H11.5201L12.3497 70.487C12.3797 70.4927 12.4093 70.4998 12.4384 70.5083L12.7398 70.5792L12.4313 72.1499L12.3285 72.6675L12.0129 74.2843L9.71538 86.0557Z" fill="#2F2E29"/>
<path d="M12.3391 70.4976C11.9545 71.1202 11.6585 71.7931 11.4598 72.4973C11.2825 73.0362 11.1053 73.6425 10.9386 74.302C10.9386 74.3587 10.9067 74.4154 10.8925 74.4722C9.7863 78.8155 8.94245 85.0309 9.70121 86.0556C10.4103 86.2222 11.3215 85.0699 12.4242 82.9071C12.527 82.6944 12.6369 82.4745 12.7504 82.237C12.8284 82.0739 12.91 81.9037 12.9915 81.7264C13.0731 81.5491 13.2042 81.269 13.3106 81.0173C13.3851 80.8578 13.4595 80.684 13.534 80.5138C13.6404 80.2763 13.7396 80.0316 13.8495 79.7764C13.9595 79.5211 14.1013 79.1807 14.2289 78.8722L14.6331 77.8582C15.289 76.2024 15.4841 74.9118 15.399 73.912C15.3728 73.3549 15.2157 72.8121 14.9403 72.3274C14.6649 71.8424 14.2791 71.4293 13.8141 71.1216C13.4777 70.8982 13.1112 70.7241 12.7256 70.6039C12.6192 70.5649 12.5199 70.5401 12.4313 70.5153L12.3391 70.4976Z" fill="#6B453F"/>
<path d="M71.0577 54.9005L56.5704 53.8652L57.9886 30.0071L73.5077 25.1638L71.0577 54.9005Z" fill="#F7EFEF"/>
<path d="M61.2931 56.2372L61.5555 51.7946L70.1571 52.3973L69.8947 56.8399L61.2931 56.2372Z" fill="#2F2E29"/>
<path d="M65.8421 60.0983L62.566 64.3849L62.2433 64.8104L61.6618 65.5692L61.1903 66.1826L60.7329 66.7782L59.6196 68.2319L55.3897 73.451L46.8058 84.0381L14.743 82.5064L14.4452 78.3687L13.924 71.1889V71.0294C19.6785 68.8595 36.5377 71.1499 43.9233 73.6247L50.823 59.0063L51.4647 57.6625L51.6633 57.2335L53.0815 54.2304L53.1879 54.0035C53.4297 53.4213 53.7041 52.8529 54.0105 52.3016C54.1916 51.9736 54.3916 51.6563 54.6097 51.3514L54.7763 51.128C54.8011 51.0996 54.8153 51.0713 54.8401 51.0429C54.865 51.0146 54.911 50.9472 54.95 50.9046C55.3776 50.3732 55.8918 49.9175 56.4711 49.5573C56.5856 49.4818 56.704 49.4119 56.8257 49.3481L56.9427 49.2914C57.138 49.195 57.3405 49.1145 57.549 49.0503C58.7598 48.6957 60.0429 48.6677 61.2683 48.9687C61.3924 48.9971 61.52 49.0007 61.6512 49.0255L61.7788 49.3198L62.261 50.4189L62.2823 50.465L62.5482 51.0748L62.9028 51.9116L63.0092 52.1527L63.1049 52.3725L63.2786 52.7732L63.6332 53.5603L63.9204 54.4077L63.9984 54.6381L64.6118 56.4818L64.633 56.5528L65.2748 58.4496L65.8421 60.0983Z" fill="#2F2E29"/>
<path d="M92.9445 105.063C92.8275 105.184 92.7105 105.301 92.59 105.418C92.4694 105.535 92.317 105.695 92.1716 105.829C91.4908 106.503 90.7534 107.084 89.9911 107.272L89.4592 106.563L90.8207 104.943L90.9448 104.798L91.0583 104.663L91.9908 103.553L92.0227 103.51L92.0901 103.631L92.317 104.003L92.7424 104.712L92.9445 105.063Z" fill="#2F2E29"/>
<path d="M101.057 97.2065C99.9152 99.4119 97.2737 101.929 93.1786 104.468C93.0332 104.564 92.8878 104.656 92.7389 104.744L91.9979 105.188L91.615 105.411C90.9307 105.805 90.1967 106.191 89.4557 106.585L89.4344 106.546L88.9451 105.787L88.8884 105.705L88.7076 105.429L89.8989 104.496L90.2818 104.205L91.505 103.248L100.412 96.2917L101.057 97.2065Z" fill="#2F2E29"/>
<path d="M100.451 96.2704C100.373 97.5964 95.9406 101.546 92.4623 103.925L92.3241 104.021C91.8596 104.337 91.4164 104.617 91.0051 104.861L90.8314 104.961C90.2538 105.333 89.6206 105.61 88.9558 105.783L88.899 105.702C88.8494 105.613 88.7927 105.521 88.7359 105.418C88.5253 105.042 88.3619 104.643 88.2502 104.227C88.2073 104.072 88.1764 103.915 88.158 103.755C88.0474 103.117 88.1123 102.46 88.3459 101.855C88.4601 101.548 88.6125 101.258 88.7998 100.99C89.3493 100.188 90.2818 99.3834 91.7816 98.6494L92.7034 98.1992C92.9871 98.068 93.2672 97.9368 93.5402 97.8162L93.8948 97.6638L94.2493 97.5078C94.4124 97.4333 94.572 97.3624 94.728 97.3021C94.9549 97.2064 95.1783 97.1178 95.3945 97.022L95.8838 96.827L96.5362 96.5753C98.6529 95.7988 100.036 95.6322 100.451 96.2704Z" fill="#6B453F"/>
<path d="M74.894 22.9869C77.5709 28.3797 72.5716 64.1936 66.42 63.9206L61.3109 64.541C74.7841 47.6002 71.9476 20.2852 71.9476 20.2852L72.3022 20.4163L74.894 22.9869Z" fill="#21201D"/>
<path d="M93.9302 97.6177L93.8806 97.6744L89.0586 102.798L88.1545 103.759L86.8709 105.124C82.7474 98.3304 78.7799 82.3859 75.6208 71.3343L63.6296 67.6646L60.7329 66.7782L56.5243 65.4947C55.9059 65.2036 55.3269 64.8356 54.8011 64.3991C53.44 63.2376 52.4621 61.6913 51.9966 59.9636C51.8455 59.4183 51.7434 58.8605 51.6917 58.2972C51.6917 58.2298 51.6917 58.1589 51.6739 58.088C51.6527 57.8008 51.6456 57.5136 51.6527 57.2228C51.6527 56.9321 51.6775 56.6414 51.7058 56.3506L51.9079 54.5317L52.337 50.7061L53.702 50.8053L54.9359 50.894L56.6803 51.0181H56.737L61.6441 51.3726L62.378 51.8584L63.1226 52.3583L63.9204 52.8901L66.1435 54.3651L66.459 54.5743L66.9412 54.8792L66.9873 54.9111L67.0724 54.9678L69.2707 56.4215L69.9018 56.8399L71.0186 57.588L72.0008 58.2369L83.5416 65.9095L93.9302 97.6177Z" fill="#2F2E29"/>
<path d="M99.3337 20.0936L97.9615 21.4161C97.1815 20.473 96.4263 19.5051 95.6392 18.5797L96.9723 17.2961L96.873 16.9416C96.734 16.3371 96.833 15.7023 97.1496 15.1688C97.2311 15.0376 98.4189 13.4669 98.4756 13.396L99.0465 14.1512L100.557 12.694C101.862 14.2044 102.684 15.3283 103.773 16.8104L102.181 18.6257C100.979 19.9589 100.245 20.2319 99.3337 20.0936Z" fill="#EAC79E"/>
<path d="M101.401 15.3851C101.336 15.4536 101.259 15.5086 101.173 15.5469C101.087 15.5853 100.995 15.6062 100.901 15.6084C100.813 15.6101 100.726 15.5919 100.646 15.555C100.566 15.5182 100.496 15.4637 100.44 15.3957L100.362 15.3C100.249 15.1477 100.195 14.9596 100.209 14.7705C100.225 14.5814 100.308 14.4042 100.443 14.2717L101.759 12.928C101.88 12.8001 102.047 12.725 102.223 12.7188C102.306 12.718 102.387 12.7358 102.462 12.7707C102.537 12.8057 102.603 12.857 102.656 12.9209L102.819 13.1159C102.916 13.2494 102.963 13.4135 102.949 13.5783C102.935 13.743 102.863 13.8973 102.745 14.0129L101.401 15.3851Z" fill="#F7D2A6"/>
<path d="M100.326 14.4208C100.262 14.4888 100.186 14.5436 100.101 14.5819C100.015 14.6203 99.9233 14.6414 99.83 14.6441C99.7418 14.6453 99.6542 14.6269 99.5737 14.5901C99.4936 14.5533 99.4223 14.4991 99.3656 14.4314L99.2876 14.3357C99.1745 14.1834 99.1202 13.9953 99.1351 13.8062C99.1504 13.6171 99.2333 13.4399 99.3691 13.3074L100.688 11.9637C100.747 11.8991 100.819 11.8473 100.899 11.8113C100.978 11.7753 101.065 11.756 101.153 11.7545C101.234 11.7531 101.315 11.7701 101.39 11.8045C101.464 11.8389 101.529 11.8897 101.582 11.953L101.745 12.148C101.845 12.2787 101.894 12.4411 101.884 12.6054C101.873 12.7697 101.804 12.9246 101.688 13.0415L100.326 14.4208Z" fill="#F7D2A6"/>
<path d="M102.199 16.6083C102.143 16.6708 102.076 16.7218 102.001 16.7583C101.926 16.7948 101.844 16.8161 101.761 16.821C101.678 16.826 101.594 16.8144 101.515 16.7871C101.437 16.7597 101.364 16.717 101.301 16.6615C101.281 16.6457 101.262 16.6279 101.245 16.6083L101.167 16.5126C101.05 16.3651 100.996 16.1783 101.014 15.9914C101.032 15.796 101.117 15.6129 101.255 15.4737L102.319 14.4101C102.423 14.2917 102.57 14.2195 102.728 14.2096C102.886 14.1996 103.041 14.2526 103.159 14.3569L103.213 14.4101L103.376 14.6051C103.426 14.6684 103.464 14.7411 103.486 14.8189C103.509 14.8968 103.516 14.9784 103.507 15.0589C103.494 15.2293 103.419 15.3892 103.298 15.5092L102.199 16.6083Z" fill="#F7D2A6"/>
<path d="M103.014 17.5621C102.966 17.6104 102.909 17.6487 102.847 17.6748C102.784 17.7009 102.717 17.7144 102.649 17.7144C102.581 17.7144 102.514 17.7009 102.451 17.6748C102.388 17.6487 102.331 17.6104 102.284 17.5621L102.238 17.5125L102.17 17.4274C102.07 17.3072 102.018 17.1545 102.023 16.9983C102.028 16.8421 102.091 16.6933 102.199 16.58L103.007 15.7716C103.097 15.6815 103.22 15.631 103.347 15.631C103.475 15.631 103.597 15.6815 103.688 15.7716L103.73 15.8177L103.872 15.9879C103.959 16.0932 104.004 16.2266 104 16.3631C103.995 16.4995 103.941 16.6296 103.847 16.7289L103.014 17.5621Z" fill="#F7D2A6"/>
<path d="M100.27 14.9525H99.5606C99.5 14.9544 99.4408 14.9701 99.3876 14.9983C99.334 15.0266 99.2876 15.0667 99.2521 15.1156L99.0997 15.3283C99.3879 15.8853 99.4695 16.5264 99.3301 17.1379C99.1904 17.7494 98.8387 18.2916 98.3374 18.6683L99.3443 20.0865L98.1424 21.6253C97.2879 20.6042 96.4688 19.544 95.6108 18.5264L96.4157 17.8173L96.9723 17.2961L96.873 16.9416C96.7298 16.3376 96.828 15.7017 97.146 15.1688C97.2276 15.034 98.4189 13.4669 98.4721 13.396C98.5157 13.3508 98.5682 13.3149 98.626 13.2905C98.6838 13.2662 98.7462 13.2538 98.8089 13.2542H100.763C100.887 13.2588 101.004 13.3124 101.089 13.4035C101.175 13.4945 101.22 13.6154 101.216 13.7399V13.903C101.22 14.1764 101.123 14.4416 100.943 14.6476C100.859 14.743 100.755 14.8195 100.639 14.872C100.523 14.9246 100.397 14.952 100.27 14.9525Z" fill="#F7D2A6"/>
<path d="M96.5114 16.4736L94.5862 18.4237L97.7772 23.0542L99.6422 21.0226L96.5114 16.4736Z" fill="#E3DBDB"/>
<path d="M95.3236 17.1686L98.8692 22.3132C98.777 22.4125 98.6848 22.5118 98.5962 22.6181C94.6039 26.9863 88.6686 33.9995 86.4171 33.5634C86.3391 33.5634 83.0772 32.4997 79.3259 31.1595C78.904 31.0105 78.4786 30.851 78.0495 30.695C76.4292 30.1064 74.777 29.4824 73.2985 28.8867C72.0788 28.401 70.9832 27.9294 70.1074 27.5181C68.9835 26.9828 67.6255 26.3552 66.8739 25.3412C65.8846 24.0116 66.2569 22.4409 67.4234 21.2744C67.7312 20.9673 68.0673 20.6895 68.4268 20.4447C69.4231 19.7817 71.9724 19.0016 73.0893 19.4165C74.7273 20.0228 85.6158 25.9935 85.6158 25.9935C86.9951 25.0965 91.9837 20.4163 95.3236 17.1686Z" fill="#21201D"/>
<path d="M52.7376 50.6033C52.9184 49.5183 52.9539 49.107 53.0922 48.5681L70.7953 52.174C70.8343 52.5782 70.6605 53.1987 70.4407 54.2091L52.7376 50.6033Z" fill="#21201D"/>
<path d="M64.0055 52.6562L64.282 51.0288L66.3562 51.4543L66.0832 53.0817L64.0055 52.6562Z" fill="#E3DBDB"/>
<path opacity="0.07" d="M53.468 58.5277C53.7098 58.7514 53.9644 58.961 54.2303 59.1553C53.9857 58.939 53.7375 58.7334 53.468 58.5277Z" fill="black"/>
<path d="M50.4543 47.898L67.5511 51.5145C67.7638 49.1354 72.093 38.1086 72.795 29.7305C73.0481 26.6172 72.8787 23.4841 72.2915 20.4162L69.916 19.4873L62.7716 16.6863C62.7716 16.6863 50.9861 44.441 50.4543 47.898Z" fill="#F7EFEF"/>
<path d="M64.5089 15.7928L66.2498 9.17322C68.8133 10.0454 72.256 11.1481 72.8872 11.2261C72.8872 11.2261 71.6533 16.0517 71.2881 18.1719C70.8094 22.26 66.5228 21.6253 64.5089 15.7928Z" fill="#EAC79E"/>
<path d="M69.26 20.7815L71.1357 23.5861C71.7526 21.9799 72.2667 21.1042 72.2632 20.0405L71.2562 18.2677C71.1959 19.4626 70.4407 20.6255 69.26 20.7815Z" fill="#E3DBDB"/>
<path d="M69.26 20.7815L66.2002 24.1427C64.6933 21.7778 62.9312 18.7002 62.7716 16.697L64.6969 15.0944C64.4026 16.8104 67.1575 20.4482 69.26 20.7815Z" fill="#E3DBDB"/>
<path d="M71.1959 39.4277C73.4332 34.4179 74.0785 23.9477 74.0785 23.9477C74.0785 23.9477 72.6 22.8841 72.7808 22.721L74.121 22.6926L73.1176 19.4236L71.2881 18.1791C72.1993 20.3773 72.8056 30.8581 71.1959 39.4277Z" fill="#4A4842"/>
<path d="M65.0727 9.55266C64.7501 8.1096 64.8351 7.51395 64.9876 6.00707C66.0513 -0.750815 69.4763 0.748963 71.7668 1.10707C74.4224 1.65309 76.6951 4.03573 76.2555 8.57762C76.1356 8.83815 76.0005 9.09152 75.8513 9.33638L76.4079 11.9991C76.4317 12.0918 76.4374 12.1882 76.4239 12.283C76.4104 12.3778 76.3785 12.4689 76.3296 12.5513C76.2806 12.6337 76.2161 12.7056 76.1395 12.7629C76.063 12.8203 75.9757 12.8619 75.8832 12.8855H75.8052L75.1918 12.9706C75.1209 13.428 74.9223 15.3851 74.9223 15.3851C74.7344 16.5304 74.0501 18.25 72.6744 17.8954C68.714 16.8601 67.4553 14.559 68.2389 10.7192C67.2958 10.4639 65.3103 10.6128 65.0727 9.55266Z" fill="#F7D2A6"/>
<path d="M65.3563 12.7224C68.4126 14.1654 67.6503 8.07766 67.6503 8.07766C68.5502 7.88694 69.4625 7.76136 70.3804 7.70183C69.8167 3.68113 70.6712 3.03583 75.4861 3.87614C77.2979 1.03966 73.029 -0.13038 70.228 0.0114438C67.1079 0.167449 64.7536 1.46868 63.9133 4.77672C63.3956 6.85798 62.6582 10.9141 65.3563 12.7224Z" fill="#21201D"/>
<path d="M67.0157 8.72298C66.8809 9.78666 67.544 11.1411 68.1751 11.2368C68.8062 11.3325 68.9728 10.4461 69.1182 9.38601C69.2139 8.67689 69.3735 7.71958 68.7069 7.38984C68.1254 7.10265 67.2142 7.16293 67.0157 8.72298Z" fill="#F7D2A6"/>
<path d="M32.3788 32.0529L36.9171 35.2262L35.2684 37.708L30.8187 34.5986L32.3788 32.0529Z" fill="#E3DBDB"/>
<path d="M57.0668 23.7987C56.6977 24.0329 56.2995 24.2176 55.8825 24.3483C54.476 24.6139 53.0553 24.7986 51.6278 24.9014L50.0146 25.0539C46.3804 25.3765 42.4519 25.6531 42.4519 25.6531C42.4519 25.6531 42.3739 24.834 42.1505 23.7243C41.8172 22.0295 43.2142 19.349 42.0157 18.1293C42.1505 18.0513 50.7698 16.7891 54.9961 16.1864C56.1793 16.052 57.3749 16.2886 58.4176 16.8636C58.5176 16.9171 58.6148 16.9763 58.7084 17.0408C60.0521 17.9272 60.1762 19.5228 59.4387 21.0686C58.9204 22.1835 58.0982 23.1297 57.0668 23.7987Z" fill="#21201D"/>
<path d="M47.3022 23.2173C46.625 23.9441 40.4025 31.404 37.3143 35.4884C36.903 36.0274 36.5307 36.5521 36.1974 37.0059L35.8747 36.7932L35.2933 36.4067L31.9781 34.2334L31.3116 33.7937L31.0244 33.6023C34.414 28.2553 38.083 23.0905 42.0158 18.1293C43.7106 17.984 45.7883 19.3207 46.7598 21.1183C47.115 21.7608 47.3019 22.483 47.3022 23.2173Z" fill="#21201D"/>
<path d="M32.3044 33.1059C32.2368 33.0211 32.2025 32.9146 32.2077 32.8063C32.2129 32.698 32.2574 32.5953 32.3327 32.5174C32.3657 32.4841 32.4049 32.4578 32.4481 32.4397C32.4913 32.4218 32.5376 32.4125 32.5844 32.4125C32.6313 32.4125 32.6776 32.4218 32.7208 32.4397C32.764 32.4578 32.8032 32.4841 32.8362 32.5174C32.8487 32.5274 32.8595 32.5393 32.8681 32.5528C32.9363 32.6374 32.9711 32.744 32.9659 32.8525C32.9607 32.961 32.9157 33.0638 32.8397 33.1414C32.8068 33.1746 32.7675 33.201 32.7244 33.219C32.6811 33.237 32.6348 33.2463 32.588 33.2463C32.5412 33.2463 32.4949 33.237 32.4516 33.219C32.4084 33.201 32.3692 33.1746 32.3363 33.1414L32.3044 33.1059Z" fill="white"/>
<path d="M32.9957 31.865C32.9287 31.7797 32.8949 31.673 32.9008 31.5647C32.9067 31.4564 32.9517 31.3539 33.0276 31.2764C33.0606 31.2432 33.0998 31.2168 33.143 31.1988C33.1862 31.1808 33.2326 31.1715 33.2794 31.1715C33.3262 31.1715 33.3725 31.1808 33.4157 31.1988C33.4589 31.2168 33.4981 31.2432 33.5311 31.2764L33.563 31.3154C33.6312 31.4 33.666 31.5066 33.6608 31.6151C33.6555 31.7236 33.6107 31.8264 33.5346 31.904C33.5016 31.9377 33.4622 31.9646 33.4186 31.9829C33.3751 32.0012 33.3284 32.0106 33.2811 32.0106C33.2339 32.0106 33.1871 32.0012 33.1436 31.9829C33.1001 31.9646 33.0606 31.9377 33.0276 31.904L32.9957 31.865Z" fill="white"/>
<path opacity="0.1" d="M68.0049 52.2448C68.7289 50.3228 69.3444 48.3614 69.8486 46.3698C67.5227 43.8028 64.6862 37.208 63.8956 33.8717C63.0624 30.3616 62.9064 26.7026 62.7504 23.0825C61.3569 32.535 57.4603 40.2005 56.4357 49.7098L68.0049 52.2448Z" fill="#1D1D1B"/>
<path opacity="0.2" d="M92.1787 105.836C91.5912 106.5 90.8392 106.997 89.9982 107.276L89.4663 106.588L89.4451 106.549L88.9558 105.787C88.9349 105.761 88.9157 105.734 88.899 105.705L88.7218 105.432C88.5094 105.057 88.3463 104.657 88.236 104.241C88.1935 104.085 88.1616 103.926 88.1403 103.766L86.8568 105.131C82.7333 98.334 78.7658 82.3931 75.6066 71.3379L63.6155 67.6718L60.7187 66.7854L59.609 68.2391L55.3791 73.4582L46.7917 84.0453L14.7289 82.5136C31.769 80.8472 39.7679 82.1307 44.9338 81.9499C47.0611 76.7698 44.6005 73.7135 43.8985 73.6284L50.7982 59.0099C50.2759 59.367 49.7037 59.6442 49.0999 59.8325C49.6459 58.3859 50.0678 57.301 50.2309 56.9038C50.6301 56.0146 51.196 55.2094 51.8973 54.5319C52.6316 53.8203 53.3287 53.0711 53.9857 52.2875C54.2119 51.9897 54.4126 51.673 54.5849 51.3408C54.6274 51.2628 54.6664 51.1848 54.7019 51.1033C54.7019 51.1033 54.7338 51.1033 54.7515 51.1033C55.0529 51.1565 55.6911 51.2841 56.4569 51.4259C56.5349 51.4259 56.6165 51.4578 56.698 51.472C58.2687 51.7698 60.2188 52.1421 60.7187 52.2414L61.5059 52.401C62.1192 52.518 62.722 52.6456 63.2786 52.7555L63.5268 52.8016L63.8814 52.8725C64.1189 52.9186 64.3565 52.9647 64.5905 53.0143L65.2606 53.1491L66.6363 53.4292L66.8455 53.4717L67.3312 53.571L67.4447 53.5958H67.4766C67.4766 53.5958 67.4589 53.6313 67.4341 53.6986C67.4355 53.7068 67.4355 53.7153 67.4341 53.7235C67.4128 53.7696 67.3951 53.8263 67.3667 53.8866C67.3383 53.9468 67.31 54.0213 67.2816 54.0922C67.2632 54.1301 67.2476 54.1691 67.2355 54.2092C67.2001 54.2837 67.1682 54.3617 67.1398 54.4326C67.1114 54.5035 67.0866 54.5673 67.0724 54.6028C67.0692 54.612 67.0692 54.6219 67.0724 54.6311C67.0441 54.6949 67.0263 54.7446 67.0121 54.78C67.0012 54.802 66.9916 54.8244 66.9838 54.8474L66.9129 54.8651C66.342 54.9928 65.2642 54.8332 63.9913 54.6063C63.3176 54.4893 62.5731 54.3546 61.864 54.2305H61.825L61.4137 54.1702C60.2447 53.9568 59.0544 53.883 57.8681 53.9504C57.6472 53.9713 57.4281 54.0068 57.2122 54.0567C55.6485 54.4326 53.8687 56.4323 53.5318 58.5561C53.3655 59.446 53.5212 60.3661 53.9715 61.1515C54.8082 62.7292 57.9106 64.2326 61.6689 65.5515C67.3844 67.5583 74.6281 69.1468 77.7234 69.9445C79.177 76.5889 80.9959 83.6092 83.0417 90.0551C84.1799 93.6006 85.4137 97.1462 87.2964 100.284C87.6191 100.819 87.9559 101.348 88.3211 101.841C88.5516 102.163 88.7927 102.479 89.0302 102.777C89.4202 103.272 89.8368 103.745 90.2783 104.195C90.4875 104.404 90.7037 104.617 90.9271 104.812C90.9378 104.831 90.9537 104.847 90.9732 104.858C91.1753 105.046 91.3809 105.212 91.5972 105.404C91.7827 105.559 91.9766 105.704 92.1787 105.836Z" fill="black"/>
<path d="M51.6491 61.1479C50.3018 61.5627 48.6815 61.5308 46.7101 60.7331C43.5581 59.4602 38.6617 56.8967 38.6617 56.8967C49.036 44.2142 50.8868 39.3957 53.3333 31.5459C54.0502 29.2341 54.6338 26.8831 55.0813 24.5044C55.6592 21.441 55.8506 19.2924 55.996 18.7073C55.996 18.6648 56.2265 16.2254 56.23 16.2254H56.4534L61.9349 15.9312L62.8461 16.6403L63.0872 16.8246C63.2638 17.5105 63.3566 18.2154 63.3637 18.9236C63.3956 21.4133 63.2439 23.9019 62.9099 26.3693C62.8319 27.0501 62.7433 27.7415 62.6404 28.4506L62.6227 28.5853C62.4277 29.922 62.2043 31.3154 61.9526 32.7372C61.637 34.471 61.2789 36.2331 60.8889 37.981V38.0023C59.2757 45.0048 57.9922 59.1907 51.6491 61.1479Z" fill="#21201D"/>
<path d="M60.8783 37.981C61.6938 32.8011 61.5661 21.7388 60.935 21.597C60.935 21.597 63.2574 20.817 63.1404 20.6042L60.7967 20.2213L61.9313 15.9099L64.243 15.4596C64.8954 21.9232 63.5906 29.6065 60.8783 37.981Z" fill="#4A4842"/>
<path d="M69.8522 24.0328L68.3949 23.9264L68.1042 22.065L69.26 20.7921L70.15 22.1253L69.8522 24.0328Z" fill="#B35532"/>
<path d="M69.8486 24.0328L68.3949 23.9264C66.7391 28.6207 59.9529 29.3299 56.152 28.7555L54.2338 31.9642L56.8008 33.4817C63.1368 33.6838 69.0225 29.7589 69.8486 24.0328Z" fill="#E46C41"/>
<path d="M61.6229 10.6907L62.8 10.8715L62.2788 11.6799L63.697 11.8856L63.3602 12.1692C64.2359 12.5238 64.7784 12.85 65.7145 12.9989C65.8893 13.0502 66.075 13.0502 66.2498 12.9989C66.375 12.9278 66.4792 12.8247 66.5516 12.7C66.6239 12.5754 66.6615 12.4338 66.6611 12.2898C66.664 11.9916 66.615 11.6952 66.5158 11.414C66.108 9.97096 65.7499 8.44991 65.9839 6.95722C66.2463 5.62851 66.8239 4.3822 67.6681 3.32299C68.4552 2.25931 69.3558 1.28428 70.1003 0.178055C68.5403 -0.00276976 66.9838 0.702801 65.7393 1.74875C64.4948 2.7947 63.8672 4.09593 62.9028 5.45389L63.2574 5.37589L62.4064 6.79412L63.0411 6.5672C62.5975 7.86489 61.8459 9.03539 60.8499 9.97805H62.1653L61.6229 10.6907Z" fill="#21201D"/>
</g>
<defs>
<filter id="filter0_d" x="0" y="0" width="108" height="115.276" filterUnits="userSpaceOnUse" color-interpolation-filters="sRGB">
<feFlood flood-opacity="0" result="BackgroundImageFix"/>
<feColorMatrix in="SourceAlpha" type="matrix" values="0 0 0 0 0 0 0 0 0 0 0 0 0 0 0 0 0 0 127 0"/>
<feOffset dy="4"/>
<feGaussianBlur stdDeviation="2"/>
<feColorMatrix type="matrix" values="0 0 0 0 0 0 0 0 0 0 0 0 0 0 0 0 0 0 0.25 0"/>
<feBlend mode="normal" in2="BackgroundImageFix" result="effect1_dropShadow"/>
<feBlend mode="normal" in="SourceGraphic" in2="effect1_dropShadow" result="shape"/>
</filter>
</defs>
</svg>
