<svg width="100" height="115" viewBox="0 0 100 115" fill="none" xmlns="http://www.w3.org/2000/svg">
<g clip-path="url(#clip0)">
<path d="M28.1356 55.9932C28.4158 56.2566 28.6456 56.5692 28.8136 56.9153C29.0354 57.3095 29.3065 57.6742 29.6203 58C30.0515 58.5844 30.4314 59.2048 30.7559 59.8542C30.8 59.9966 30.739 60.9729 30.8678 61.2509C30.9966 61.5288 31.322 62.061 31.0746 62.1593C30.8271 62.2576 30.3966 61.861 30.3966 61.861C30.4237 61.9312 30.4295 62.0081 30.4132 62.0817C30.3969 62.1553 30.3593 62.2224 30.3051 62.2746C30.2224 62.3576 30.1196 62.418 30.0068 62.4495C29.8939 62.4807 29.7748 62.4824 29.661 62.4543C29.661 62.4543 29.5864 62.7932 29.4034 62.8712C29.3011 62.9285 29.1881 62.9641 29.0715 62.9756C28.9548 62.9871 28.8371 62.9749 28.7254 62.939C28.6127 63.0797 28.4545 63.1766 28.278 63.2136C28.1621 63.2356 28.0426 63.2278 27.9306 63.1909C27.8185 63.1542 27.7177 63.0898 27.6373 63.0034C27.6373 63.0034 27.1797 63.217 26.9593 63.0237C26.8052 62.8326 26.6817 62.6187 26.5932 62.3898C26.2174 61.2468 26.1016 60.0342 26.2542 58.8407C26.5051 57.3526 25.339 56.2339 25.339 56.2339L28.1356 55.9932Z" fill="#EEA886"/>
<path d="M32.2474 67.4576H25.8068C25.493 67.4576 25.1921 67.3329 24.9702 67.1112C24.7484 66.8892 24.6237 66.5885 24.6237 66.2746V62.2068C24.6237 61.8929 24.7484 61.5922 24.9702 61.3702C25.1921 61.1485 25.493 61.0237 25.8068 61.0237H32.2474C32.5612 61.0237 32.8621 61.1485 33.084 61.3702C33.3059 61.5922 33.4305 61.8929 33.4305 62.2068V66.2746C33.4305 66.5885 33.3059 66.8892 33.084 67.1112C32.8621 67.3329 32.5612 67.4576 32.2474 67.4576ZM25.8068 61.8305C25.7077 61.8329 25.6132 61.8726 25.5421 61.9417C25.4711 62.0109 25.4288 62.1044 25.4237 62.2034V66.2712C25.4237 66.3746 25.4648 66.4736 25.5379 66.5468C25.611 66.62 25.7102 66.661 25.8135 66.661H32.2542C32.3576 66.661 32.4568 66.62 32.5299 66.5468C32.603 66.4736 32.6441 66.3746 32.6441 66.2712V62.2034C32.6432 62.1004 32.6018 62.0017 32.5289 61.9288C32.456 61.8559 32.3573 61.8146 32.2542 61.8136L25.8068 61.8305Z" fill="#0E1E2B"/>
<path d="M41.0949 65.7017H16.9729V82.9831H41.0949V65.7017Z" fill="#54281A"/>
<path d="M18.7864 19.4576C18.7864 19.4576 17.5525 19.4576 17.0237 23.1695C16.4949 26.8814 17.4949 28.4068 17.6135 29.9492C17.7322 31.4915 19.5356 41.4136 19.5864 41.8543C19.6372 42.2949 19.8779 47.5763 20.5796 48.9729C21.2813 50.3695 26.4542 58.3221 26.522 58.7187C26.5898 59.1153 29.0305 57.3356 29.0305 57.3356C29.0305 57.3356 24.9627 48.8339 24.7322 47.8644C24.5017 46.8949 22.8644 41.939 23.122 40.4271C23.3796 38.9153 22.3966 30.5763 22.4915 29.6475C22.5864 28.7187 21.1559 20.0204 18.7864 19.4576Z" fill="#EEA886"/>
<path d="M18.7864 19.4576C18.7864 19.4576 17.5525 19.4576 17.0237 23.1695C16.4949 26.8814 16.9729 28.1932 17.2915 29.7932C17.5932 31.3085 18.617 40.5593 18.6678 40.9966C18.7186 41.4339 19.9424 47.0136 20.5797 48.9763C21.0644 50.4678 25.6644 58.278 25.7424 58.6746C25.8203 59.0712 29.3254 56.8509 29.3254 56.8509C29.3254 56.8509 24.817 48.0576 24.5797 47.0881C24.3424 46.1187 23.5831 42.7593 23.5627 41.2271C23.5322 39.4237 22.4 30.5797 22.4949 29.6509C22.5898 28.722 22.2339 20.7187 18.7864 19.4576Z" fill="#285173"/>
<path d="M30.4101 61.6678C30.4101 61.6678 29.9796 59.9898 29.4406 59.7424C28.9017 59.4949 29.0203 60.1051 29.0203 60.1051C29.0203 60.1051 28.9118 59.4949 28.4101 59.5288C27.9084 59.5627 28.0881 60.2746 28.0881 60.2746C28.0595 60.2143 28.0191 60.16 27.9694 60.1156C27.9196 60.0712 27.8615 60.037 27.7983 60.0149C27.7351 59.9932 27.6683 59.9844 27.6016 59.9888C27.535 59.9932 27.4699 60.0109 27.4101 60.0407C26.9322 60.2543 27.2203 60.8136 27.2203 60.8136C27.2203 60.8136 26.5762 60.3526 26.4203 60.9797C26.1593 62.0373 26.9457 63.0136 26.9457 63.0136C27.0395 63.0929 27.1569 63.1387 27.2795 63.1444C27.4022 63.1498 27.5232 63.1146 27.6237 63.0441C27.6877 63.1136 27.7648 63.1698 27.8506 63.2095C27.9365 63.2492 28.0292 63.2715 28.1237 63.2756C28.2182 63.2793 28.3125 63.2644 28.4012 63.2315C28.4899 63.199 28.5712 63.1488 28.6406 63.0848C28.6749 63.0509 28.7066 63.0146 28.7356 62.9763C28.7356 62.9763 29.6034 63.2034 29.6881 62.4915C29.6915 62.4983 30.6711 62.6136 30.4101 61.6678Z" fill="#DB9C7C"/>
<path d="M33.7424 110.095C33.7424 110.095 36.3898 113.658 36.0271 114.22C35.6644 114.783 32.8813 114.864 31.1864 114.22C29.4915 113.576 29.4508 109.4 28.6847 107.607C28.3661 106.854 29.0508 104.637 30.0169 104.478C30.7049 104.407 31.3994 104.515 32.0339 104.79C32.0339 104.79 31.0305 107.315 33.7424 110.095Z" fill="#1D3B54"/>
<path d="M32.0509 104.763C32.393 105.725 32.6472 106.717 32.8102 107.725C32.9797 108.929 34.6949 111.481 34.617 111.793C34.539 112.105 32.3559 112.407 31.4678 111.576C30.5797 110.746 30.0102 108.325 29.8136 106.878C29.738 106.196 29.6008 105.522 29.4034 104.864C29.4034 104.864 31.2034 103.871 32.0509 104.763Z" fill="#EEA886"/>
<path d="M10.7051 110.169C10.7051 110.169 13.2576 113.675 12.8949 114.237C12.5322 114.8 9.74578 114.881 8.05426 114.237C6.36273 113.593 6.31866 109.417 5.55256 107.624C5.23053 106.871 5.91866 104.654 6.88137 104.492C7.59798 104.432 8.31836 104.548 8.97968 104.831C8.97968 104.831 7.99324 107.376 10.7051 110.169Z" fill="#1D3B54"/>
<path d="M8.97962 104.824C9.09871 105.775 9.27417 106.717 9.50505 107.647C9.82708 108.817 11.5627 111.478 11.4813 111.8C11.4 112.122 9.22369 112.417 8.33555 111.583C7.44742 110.749 6.76267 108.342 6.68132 106.885C6.62328 106.077 6.69193 105.265 6.88471 104.478C6.88471 104.478 8.13556 103.936 8.97962 104.824Z" fill="#EEA886"/>
<path d="M21.7288 46.8136C21.7288 46.8136 24 57.3797 24.522 60.0339C25.0441 62.6882 26.5051 75.5763 26.661 77.7695C26.8169 79.9628 29.0339 88.2136 28.9288 88.9967C28.8237 89.7797 32.2034 105.502 32.2034 105.502C31.8666 105.763 31.4564 105.911 31.0306 105.926C30.6049 105.941 30.1851 105.823 29.8305 105.586C29.2034 105.153 22.4 90.8712 22.4 86.9424C22.4 81.5356 18.3322 74.6509 17.8068 73.4407C13.0136 62.2 14.0373 58.5899 13.4 57.8475C12.7627 57.1051 12.722 58.2983 12.3559 59.9153C11.9898 61.5322 11.2068 75.5085 10.739 77.2848C10.2712 79.0611 10.6339 85.0577 10.3729 88.0814C10.1119 91.1051 8.9661 104.793 8.9661 104.793C8.9661 104.793 8.078 106.183 6.83393 104.831C6.56614 104.539 4.68817 89.5763 4.63393 85.9865C4.5797 82.3967 4.52881 77.4238 4.42712 75.8678C3.46102 60.9526 1.08476 58.8204 4.82712 48.2678C11.8441 28.5288 21.7288 46.8136 21.7288 46.8136Z" fill="#EEA886"/>
<path d="M6.47796 43.8576C6.47796 43.8576 5.80469e-07 52.9153 2.79322 72.1797C2.79322 72.1797 18.139 74.2678 26.3627 69.7627C26.3627 69.7627 22.9729 49.9017 21.7288 46.8102C20.4847 43.7186 6.47796 43.8576 6.47796 43.8576Z" fill="#1D3B54"/>
<path d="M28.6135 107.292V111.02H29.0983V108.136L28.6135 107.292Z" fill="#1D3B54"/>
<path d="M5.48132 107.292V111.02H5.96607V108.136L5.48132 107.292Z" fill="#1D3B54"/>
<path d="M15.1593 18.1255C15.1593 18.1255 17.5322 19.2509 18.3729 19.417C19.2136 19.5831 22.4136 23.7526 22.9763 25.278C23.539 26.8034 22.9763 29.0848 21.8169 31.7661C20.6576 34.4475 21.7491 35.3424 21.2203 38.0238C20.6915 40.7051 20.2271 46.3831 20.3254 47.8746C20.4237 49.3661 6.93559 49.6441 3.85423 46.9289C3.85423 46.9289 6.94915 42.295 7.34576 41.6339C7.74237 40.9729 7.41356 37.3628 7.04746 36.4339C6.68135 35.5051 4.26101 27.6204 4.26101 27.6204C4.26101 27.6204 2.27795 21.5661 4.06779 20.1628C5.62373 18.9526 9.8644 18.5221 10.6271 18.2577C11.3898 17.9933 13.6034 17.895 15.1593 18.1255Z" fill="#EDDAD3"/>
<path d="M15.9322 23.4407L17.3797 21.7458L16.1153 17.2881C15.8398 19.327 15.7784 21.3891 15.9322 23.4407Z" fill="#D6C5BE"/>
<path d="M12.1525 1.2068C13.5593 0.708494 18.7729 -0.515235 20 6.139C21.2271 12.7932 17.5491 17.5288 14.1729 16.2712C10.7966 15.0136 8.70845 10.4102 8.51184 6.90171C8.31523 3.39324 10.3627 1.83392 12.1525 1.2068Z" fill="#EEA886"/>
<path d="M20 6.13901C20 6.13901 20.2542 0.44409 14.5763 0.247479C8.89831 0.0508691 7.40678 4.7085 7.87119 8.10511C8.14095 10.12 9.13946 11.9663 10.678 13.2949C10.678 13.2949 10.4746 10.5458 11.5729 9.83392C12.6712 9.12206 17.0746 7.69833 18.9966 4.38646C18.9831 4.38646 19.8847 5.42375 20 6.13901Z" fill="#252E3B"/>
<path d="M12.0169 5.9966C12.122 8.36949 10.5186 10.4034 8.43387 10.478C6.34912 10.5525 4.57285 8.71186 4.46776 6.32542C4.36268 3.93898 5.96946 1.93559 8.05421 1.84406C10.139 1.75254 11.9152 3.61016 12.0169 5.9966Z" fill="#252E3B"/>
<path d="M16.2983 15.3729C16.2983 15.3729 15.8237 19.7458 15.922 21.1695C15.922 21.1695 13.4475 23.6542 10.6271 18.2746C11.3628 16.6225 11.4677 14.7581 10.922 13.0339C10.0305 10.0136 16.2983 15.3729 16.2983 15.3729Z" fill="#EEA886"/>
<path d="M15.9322 21.1695V23.4407L13.0814 21.3085L15.9322 21.1695Z" fill="#EEA886"/>
<path d="M15.9322 23.4407L14.7491 21.9729L10.7525 18L9.46439 19.2441L15.9322 23.4407Z" fill="#D6C5BE"/>
<path d="M10.2 18.3797C10.2 18.3797 13.5457 23.4644 13.705 25.6916C13.8644 27.9187 12.461 44.6475 11.3322 50.0204C10.2034 55.3933 2.0881 49.4136 2.0881 49.4136C2.0881 49.4136 7.54573 40.5831 5.45081 33.5085C3.3559 26.4339 2.59658 23.6102 2.59658 23.6102C2.59658 23.6102 3.31861 19.6611 5.87454 19.1187C8.11183 18.6441 10.2 18.3797 10.2 18.3797Z" fill="#285173"/>
<path d="M23.1966 25.9559C23.1966 25.9559 23.8 28.0915 21.4474 32.8102C21.4474 32.8102 21.4847 38.8509 21.5525 40.739C21.6203 42.6271 22.9525 49.4136 22.9525 49.4136L19.7389 51.1085C19.6337 51.1709 19.5129 51.2027 19.3905 51.2C19.2681 51.1973 19.1489 51.1603 19.0465 51.0932C18.9441 51.0261 18.8626 50.9315 18.8112 50.8203C18.7598 50.7092 18.7407 50.5858 18.7559 50.4644C19.4135 45.0407 21.5559 24.4339 16.9288 18.8983L18.7864 19.4441C18.7864 19.4441 22.0847 22.1559 23.1966 25.9559Z" fill="#285173"/>
<path d="M12.1423 8.63053C12.0967 8.52531 12.0307 8.43019 11.9481 8.35053C11.8656 8.2709 11.7682 8.20833 11.6614 8.16646C11.5546 8.12456 11.4406 8.10419 11.326 8.10643C11.2113 8.1087 11.0982 8.13361 10.9932 8.17968C10.9429 8.20022 10.8952 8.22639 10.8508 8.25765C10.4542 8.55595 10.2237 9.45087 10.8508 10.6102C11.4779 11.7695 13.6983 12.5763 12.1423 8.63053Z" fill="#EEA886"/>
<path d="M17.3695 21.7424L19.1966 22.2475L16.1118 17.2881L17.3695 21.7424Z" fill="#FAE6DE"/>
<path d="M14.7389 21.9729L13.0711 24.1593L9.68132 18.4508L10.7661 18L14.7389 21.9729Z" fill="#FAE6DE"/>
<path d="M16.2 16.3356L16.1153 17.2C16.1153 17.2 14.1491 17.583 11.5729 14.4407C11.5729 14.4407 13.4 16.6678 16.2 16.3356Z" fill="#A77860"/>
<path d="M22 31.6271C22 31.6271 22.1118 39.1661 21.661 42.8136L21.4576 32.8204L22 31.6271Z" fill="#1D3B54"/>
<path d="M17.9932 39.8474C17.9932 39.8474 18.4068 37.9593 18.3322 37.522C18.2576 37.0847 18.8508 36.7762 18.9288 37.861C19.0068 38.9457 19.0407 39.6169 19.0407 39.6169L17.9932 39.8474Z" fill="#EEA886"/>
<path d="M21.9152 44.7254H17.9661L17.3525 36.0068H22.4576L21.9152 44.7254Z" fill="#8E4F3A"/>
<path d="M16.7288 40.8882C16.7288 40.8882 16.6949 40.2102 17.9966 39.6644C19.7254 38.9255 22.0203 38.1932 22.4034 38.4238C22.9457 38.7627 22.6441 39.1627 21.5593 39.4712C20.4746 39.7797 20.1152 39.878 20.1152 39.878C20.1152 39.878 22.2169 39.7627 22.678 40.0339C23.139 40.3051 23.139 40.8848 22.7932 40.9661C22.4095 41.0265 22.0222 41.0617 21.6339 41.0712C21.6339 41.0712 22.5186 41.139 22.5932 41.5017C22.6508 41.7695 22.6678 42.1492 21.8203 42.2712C21.8203 42.2712 22.3661 42.9254 21.4813 43.2882C20.4397 43.6638 19.3597 43.9231 18.261 44.061C16.6339 44.261 13.5627 43.7221 13.5627 43.7221L14.5796 41.4271C15.0549 41.5692 15.5599 41.5797 16.0407 41.4577C16.8203 41.1763 16.7288 40.8882 16.7288 40.8882Z" fill="#EEA886"/>
<path d="M6.32203 19.4576C5.48475 19.1864 3.04745 19.7966 2.6305 22.3356C2.21355 24.8745 2.03389 27.6576 1.66101 29.0169C1.28812 30.3762 -0.572895 37.2881 0.261003 37.783C1.0949 38.2779 2.79321 38.8203 4.74915 39.8474C6.62373 40.8305 15.7322 44.6542 15.7322 44.6542L16.4407 40.6339C15.2954 40.345 14.1806 39.9467 13.1119 39.444C11.5322 38.6678 7.71186 36.4576 4.8 34.6542C4.8 34.6542 6.62373 29.7661 7.01356 28.7118C7.40339 27.6576 10.0915 20.6779 6.32203 19.4576Z" fill="#285173"/>
<path d="M22.6373 35.4847H17.1932V36.5254H22.6373V35.4847Z" fill="#AD9F9A"/>
<path d="M14.1763 7.4881C14.1763 7.4881 12.9322 9.42708 13.3322 10.6644C13.7797 12.0474 12.3152 14.1593 12.3152 14.1593C12.3152 14.1593 12.9932 11.6101 12.5119 10.6949C12.0305 9.77962 12.5898 8.34573 12.5898 8.34573L14.1763 7.4881Z" fill="#252E3B"/>
<path d="M87.5627 107.085C87.9705 107.854 88.4373 108.591 88.9593 109.288C89.5119 109.912 91.6271 111.03 91.6373 112.891C91.6373 114.905 88.0712 114.349 86.6746 114.275C85.278 114.2 85.1695 113.122 84.5797 111.983C83.9898 110.844 83.3966 111.034 83.2848 110.112C83.1729 109.19 83.8576 107.085 83.8576 107.085H87.5627Z" fill="#202338"/>
<path d="M66.2644 106.902C66.2644 106.902 64.539 108.824 62.7898 109.227C61.0407 109.631 59.8136 110.146 59.8 111.261C59.7865 112.376 64.8373 113.092 66.8407 111.98C69.8305 110.319 70.1356 110.817 70.4644 109.986C70.7932 109.156 70.0678 106.936 70.0881 106.671C70.1153 106.336 66.2644 106.902 66.2644 106.902Z" fill="#202338"/>
<path d="M66.4576 105.98C66.3729 106.282 66.3081 106.59 66.2644 106.902C66.2983 106.919 70.2068 107.386 70.0881 106.661C69.9932 106.075 69.8576 105.437 69.8576 105.437L66.4576 105.98Z" fill="#81807E"/>
<path d="M83.9051 106.475C83.8444 106.766 83.8 107.06 83.7729 107.356C83.8034 107.376 87.739 108.081 87.7153 107.356C87.6719 106.927 87.5492 106.509 87.3526 106.125L83.9051 106.475Z" fill="#81807E"/>
<path d="M70.0136 51.9966C70.0136 51.9966 68.5898 65.8068 67.8509 70.5356C66.9865 76.0644 66.6915 80.6305 66.4509 83.4915C66.1492 87.0915 66.0881 104.793 65.878 105.844C65.6678 106.895 70.5898 106.136 70.5898 106.136C70.5898 106.136 73.0102 83.0068 73.9153 79.1729C74.7559 75.6034 77.878 60.2407 78.6441 61.2068C79.4102 62.1729 80.3661 79.1356 80.9356 81.9525C81.5051 84.7695 83.2305 106.803 83.2305 106.803C83.2305 106.803 87.1492 107.583 88.1932 106.702C88.1932 106.702 88.6678 87.7186 88.3051 82.4339C88.1661 80.4237 90.661 58.322 87.461 49.4237C85.7627 44.7254 70.0136 51.9966 70.0136 51.9966Z" fill="#292C47"/>
<path d="M82.7796 48.9322C82.7796 48.9322 81.8305 47.4983 80.8271 47.3153C79.8237 47.1322 94.6678 39.9525 94.6271 37.3898C94.5966 35.3085 89.2813 31.8576 89.2813 31.8576V31.8847C89.1695 32.2949 87.6339 37.9864 87.5864 40.7322C87.5322 43.5729 87.7559 53.3458 87.7559 53.3458L83.9525 54.3627L71.7966 54.4746L69.0237 53.3424C69.0237 53.3424 69.3254 50.2 69.4373 47.9932C69.5084 46.5898 69.7762 44.078 69.7084 41.6305C69.7084 41.6305 69.7525 39.0508 69.4983 37.9424C69.4712 33.0373 69.1593 28.183 69.1593 28.183C68.9966 25.9593 68.8837 23.8791 68.8203 21.9424C69.3559 21.6576 70 21.3288 70.5152 21.0814C72.1118 20.322 74.3356 19.2983 75.7661 18.6441C76.6 18.2576 77.4203 17.9661 77.4203 17.9661C77.4203 17.9661 83.1254 17.4169 83.5898 17.4475C84.2003 17.6127 84.7993 17.8177 85.383 18.061C87.4169 18.8271 91.3051 20.3932 91.9288 20.8373C92.8373 21.4915 98.8034 37.2678 98.8881 38.3525C99.044 40.339 82.7796 48.9322 82.7796 48.9322Z" fill="#DBD8E3"/>
<path d="M69.3763 52.3085C69.3763 52.3085 77.7254 53.0203 85.0373 52.3085V54.7085C85.0373 54.7085 74.1458 55.7492 69.0068 54.2508L69.3763 52.3085Z" fill="#1D2033"/>
<path d="M68.6847 21.9085C68.7492 23.8814 68.8441 25.9966 69.0237 28.261C69.0237 28.261 69.1831 33.7899 69.4983 39.0339C69.6166 39.7963 69.6508 40.5692 69.6 41.339C69.522 42.356 69.4102 43.4814 69.278 44.6509C69.28 44.6654 69.28 44.6804 69.278 44.6949C69.2475 44.9729 69.2136 45.2509 69.1797 45.5322C68.4712 51.3763 67.2678 58.0746 66.6407 60.1085C66.5085 60.5322 66.9797 60.9255 67.2915 61.2271L69.5763 62.6644C69.5763 62.6644 70.5153 54 70.8305 51.0577C71.1322 48.217 72.0814 44.4102 72.4949 40.6983C73.0237 35.9932 73.7492 31.3831 74.139 28.6441C75.1559 21.5254 76.5119 18.3187 76.5119 18.3187C75.8475 18.5254 68.6847 21.9085 68.6847 21.9085Z" fill="#323657"/>
<path d="M92.922 36.6644C93.8983 38.8373 83.8339 42.7119 84.0678 43.2407C84.6135 44.5288 86.8373 47.1458 86.8373 47.1458C86.8373 47.1458 100.108 40.5831 99.9593 39.0949C99.8508 38.0102 93.6339 21.6305 92.7254 20.9797C92.2 20.6 88.3186 19.2204 86.3898 18.4644L84.5322 17.7593C84.1254 18.2102 81.3322 21.2949 80.3423 32.9559C80.1762 34.922 80.7017 39.0814 81.0542 42.4746C81.4305 46.0983 81.844 48.9153 82.1491 51.9661C82.7491 57.9356 83.1661 62.6881 83.1661 62.6881L89.1051 60.0441C90.0678 59.5627 91.7288 58.3051 91.3695 57.2949C90.0135 53.4475 87.9356 46.1559 87.9322 42.7797C87.9322 42.7797 88.9051 33.4644 89.4305 31.6509C89.4203 31.6373 91.8169 34.2373 92.922 36.6644Z" fill="#323657"/>
<path d="M83.0509 18.0712C83.0509 18.0712 83.0915 16.1119 83.8475 12.1492C84.0509 11.0881 77.6881 14.939 77.6881 14.939C77.6881 14.939 77.7085 15.3119 77.722 15.8136C77.722 16.078 77.722 16.3797 77.722 16.6814C77.722 16.7864 77.722 16.8915 77.722 16.9966C77.722 17.278 77.7017 17.5458 77.678 17.7763C77.6339 18.0373 77.5624 18.293 77.4644 18.539C77.2136 19.1424 80.9187 19.6034 83.0509 18.0712Z" fill="#EEA987"/>
<path d="M79.0881 20.1254L78.0339 21.539C78.0339 21.539 78.6542 22.3661 79.7491 21.7559L79.0881 20.1254Z" fill="#E8734D"/>
<path d="M78.3051 21.5966C78.3051 21.5966 74.3051 36.9898 75.1288 48.9729L76.4848 51.3458L77.7458 48.861C77.7458 48.861 78.0848 27.4271 79.1865 21.5593L78.3051 21.5966Z" fill="#E8734D"/>
<path d="M77.9661 18.8034L79.0949 20.1254C79.0949 20.1254 80.9085 19.7865 81.4407 18.8271C81.9729 17.8678 77.9661 18.8034 77.9661 18.8034Z" fill="#EEA987"/>
<path d="M77.7017 17.6475C77.7017 17.6475 77.8339 18.6644 79.0881 20.122L77.7322 21.9661L76.9898 18.1424L77.7017 17.6475Z" fill="#C4C1CC"/>
<path d="M83.1797 16.5255C83.1797 16.5255 80.922 19.4 79.0881 20.1221L79.9424 22.2305L83.8339 17.5255L83.1797 16.5255Z" fill="#C4C1CC"/>
<path d="M45.4407 37.8237C45.4407 37.8237 41.2542 38.3051 41.0169 38.5797C40.7797 38.8542 40.8373 39.0746 41.2339 39.0441C41.6305 39.0136 45.3017 38.7051 45.3017 38.7051C45.3017 38.7051 40.4983 40.122 40.2542 40.2983C40.1119 40.4 40.1932 40.8441 40.4102 40.8475C40.6271 40.8508 45.4949 39.7254 45.4949 39.7254C45.4949 39.7254 41.0136 41.0576 40.8576 41.2678C40.8352 41.3078 40.8214 41.3515 40.8163 41.3969C40.8115 41.4424 40.8159 41.4885 40.8291 41.5319C40.8424 41.5756 40.8644 41.6163 40.8939 41.6512C40.923 41.6861 40.9593 41.7149 41 41.7356C41.0732 41.7763 41.159 41.7885 41.2407 41.7695C41.5797 41.6949 45.8237 40.6983 45.8237 40.6983C45.8237 40.6983 42.6373 41.878 42.6169 42.139C42.6169 42.2983 42.6576 42.6881 43.4678 42.3559C44.278 42.0237 46.2881 41.4508 46.2881 41.4508L45.4407 37.8237Z" fill="#EEA886"/>
<path d="M50.3932 38.0204C50.3932 38.0204 49 38.0915 48.5729 37.3865C48.2102 36.7865 47.3254 36.2441 47.0542 36.0746C46.6881 35.8509 45.8 34.7627 45.5424 35.2C45.2848 35.6373 46.9288 37.0576 47.217 37.4204C47.5051 37.7831 45.4949 37.6509 45.1288 37.9153C44.7627 38.1797 44.9627 41.5051 46.339 41.4373C47.7153 41.3695 49.0848 40.3831 49.3322 40.4204C49.6709 40.441 50.0105 40.441 50.3492 40.4204L50.3932 38.0204Z" fill="#EEA886"/>
<path d="M49.8305 41.3085C49.8305 41.3085 60.1051 39.8678 62.3729 39.3085C63.4271 39.0475 64.8135 37.5932 66.1356 35.8814C66.5695 35.3187 66.9966 34.7288 67.4034 34.1424C69.0203 31.8034 70.2881 29.5661 70.2881 29.5661C70.2881 29.5661 75.0746 23.9593 71.2339 21.461C71.2339 21.461 69.5898 21.4237 68.6847 21.9153C67.7796 22.4068 65.7627 26.5458 65.4237 27.278C65.0847 28.0102 61.4542 34.8034 61.2102 34.9593C60.9661 35.1153 57.3356 35.8983 55.7186 36.2373L48.9864 37.6271L49.8305 41.3085Z" fill="#323657"/>
<path d="M79.4373 52.4373H75.5322V55.4H79.4373V52.4373Z" fill="#3A4066"/>
<path d="M82.0542 49.1118C82.2915 49.1054 82.5261 49.0607 82.7491 48.9796C82.7491 48.9796 83.1119 48.7457 83.3796 48.5966C83.4485 48.5559 83.5196 48.5196 83.5932 48.4881C84.0047 48.3657 84.3939 48.1779 84.7457 47.9322C85.2034 47.5932 86.6949 46.1898 86.6949 46.1898L85.7627 44.7085L85.3186 43.2407C85.3186 43.2407 81.8441 43.5796 81.3796 43.8644C81.3346 43.8895 81.2915 43.9176 81.2508 43.9491C80.9868 44.1871 80.7491 44.4532 80.5424 44.7424C80.478 44.8034 79.8644 45.4508 79.9051 45.7118C79.9091 45.8603 79.9508 46.0054 80.0268 46.1329C80.103 46.2603 80.2105 46.3664 80.339 46.4407C80.4057 46.8179 80.5746 47.1695 80.8271 47.4576C80.8593 47.6515 80.9356 47.8356 81.0505 47.9956C81.1651 48.1552 81.3149 48.2868 81.4881 48.3796C81.4881 48.3796 81.661 49.0339 82.0542 49.1118Z" fill="#EFAA88"/>
<path d="M86.8305 47.1458C85.5824 46.06 84.5685 44.7312 83.8509 43.2407L89.7831 39.9932L91.9865 44.4746L86.8305 47.1458Z" fill="#323657"/>
<path d="M74.3458 5.18982C74.3458 5.18982 72.9492 7.77965 73.6407 8.18304C74.2136 8.52203 72.9627 11.0576 72.8068 11.4712C72.6508 11.8847 73.8441 12.1898 74.0983 12.4542C74.3525 12.7186 75.1153 16.0135 76.0949 16.1119C77.0746 16.2102 81.5186 14.6644 82.7458 13.4C83.9729 12.1356 84.9525 6.44067 84.1424 4.06779C83.3322 1.69491 76.8102 0.677956 74.3458 5.18982Z" fill="#EEA886"/>
<path d="M74.0678 5.76272C74.0678 5.76272 72.6407 2.96611 75.2305 0.89153C77.8203 -1.18305 82.6 2.45763 83.139 2.58645C83.678 2.71526 86.7322 2.92543 85.1898 8.3017C83.8644 12.9051 83.678 13.0983 83.678 13.0983C83.678 13.0983 82.6881 10.4305 82.1288 10.0237C81.2542 9.38983 79.3356 9.54238 79.3356 9.54238C79.3356 9.54238 80.2508 7.11526 78.8237 6.77289C77.3966 6.43051 75.5119 5.21356 74.0678 5.76272Z" fill="#16202E"/>
<path d="M80.8577 8.13561C80.9865 7.79663 81.3932 6.3729 82.6204 7.21358C83.8475 8.05426 81.8543 10.7492 81.6407 10.7831C81.4271 10.817 79.8 10.9492 80.8577 8.13561Z" fill="#EEA886"/>
<path d="M77.7356 16.6779C77.7356 16.7864 77.7356 16.8915 77.7356 16.9966C81.3729 15.7762 82.078 13.9457 82.078 13.9457C80.9424 14.7457 77.7288 15.8203 77.7288 15.8203C77.7356 16.0779 77.739 16.3796 77.7356 16.6779Z" fill="#A77860"/>
</g>
<defs>
<clipPath id="clip0">
<rect width="100" height="114.915" fill="white"/>
</clipPath>
</defs>
</svg>
