<svg width="100" height="125" viewBox="0 0 100 125" fill="none" xmlns="http://www.w3.org/2000/svg">
<path d="M26.8601 27.2824C31.4535 27.6396 36.1147 27.9467 40.6331 27.0431C44.2035 26.3187 47.5839 24.859 50.5592 22.7569V17.8099C45.5372 20.7888 40.2009 23.3819 34.4431 23.3998C30.4212 23.3998 26.5101 22.1568 22.7275 20.7888C18.945 19.4208 15.1624 17.9313 11.1727 17.4134C8.72347 17.0707 6.22998 17.2348 3.84686 17.8956V30.8256C6.50787 28.8718 9.78323 27.7181 13.0729 27.2109C17.627 26.5109 22.2668 26.9216 26.8601 27.2824Z" fill="#0F8949"/>
<path d="M11.1727 17.4135C15.1624 17.9207 18.9485 19.4244 22.7311 20.7888C26.5137 22.1533 30.4212 23.4106 34.4467 23.3998C40.2116 23.3784 45.5193 20.7888 50.5592 17.8099V11.8986H3.84686V17.8957C6.22998 17.2347 8.72347 17.0706 11.1727 17.4135Z" fill="#40B56A"/>
<path d="M21.881 32.533C25.8743 33.0402 29.8355 33.8331 33.8538 34.1189C39.484 34.5139 45.1397 33.9092 50.5592 32.333V22.7712C47.5821 24.8705 44.2024 26.3299 40.6331 27.0574C36.1147 27.961 31.4535 27.6539 26.8601 27.2931C22.2668 26.9324 17.627 26.5216 13.0729 27.2217C9.78323 27.7289 6.50429 28.8861 3.84328 30.8364V35.0761C5.69613 33.9336 7.73215 33.1192 9.86181 32.6687C13.798 31.8043 17.8984 32.0258 21.881 32.533Z" fill="#7DDF9E"/>
<path d="M11.6084 49.2597C14.4659 47.556 17.0555 45.2879 20.2094 44.1985C20.5416 44.0842 20.8845 43.9806 21.2274 43.8949V40.6302H19.3272L23.9134 35.794L28.4889 40.6302H26.5744V43.7163C27.2357 43.8331 27.8867 44.0027 28.521 44.2235C31.2678 45.1843 33.593 47.0488 36.1612 48.4132C40.5809 50.731 45.6386 51.5354 50.5592 50.7028V32.333C45.1397 33.9094 39.484 34.514 33.8538 34.1189C29.8355 33.8331 25.8743 33.0473 21.881 32.533C17.8877 32.0186 13.798 31.8186 9.86181 32.658C7.73372 33.1081 5.69899 33.9213 3.84686 35.0618V51.2207C6.44715 51.6529 9.27246 50.6313 11.6084 49.2597Z" fill="#40B56A"/>
<path d="M3.84686 52.11V58.1536C7.46869 57.5356 11.3191 58.1536 14.9195 59.068C19.5343 60.2252 24.1313 61.8183 28.8889 61.7504C33.8395 61.679 38.5579 59.8216 43.3048 58.4072C45.6622 57.6685 48.0878 57.167 50.5449 56.9106V52.11H3.84686Z" fill="#7DDF9E"/>
<path d="M28.9032 61.7505C24.1455 61.8183 19.5486 60.2253 14.9338 59.068C11.3191 58.1608 7.46869 57.5357 3.86114 58.1536V68.8155H50.5592V56.9106C48.1007 57.1671 45.6744 57.6686 43.3155 58.4072C38.5721 59.8217 33.8538 61.679 28.9032 61.7505Z" fill="#0F8949"/>
<path d="M36.1612 48.4061C33.5894 47.0417 31.2678 45.1915 28.521 44.2164C27.8867 43.9956 27.2358 43.826 26.5744 43.7092C24.7953 43.3941 22.9697 43.4573 21.2166 43.8949C20.8595 43.9806 20.5309 44.0842 20.1987 44.1985C17.0447 45.27 14.4659 47.556 11.5977 49.2598C9.26174 50.6421 6.43643 51.6529 3.83614 51.2207V52.1101H50.5592V50.6814C45.6401 51.5186 40.5824 50.7192 36.1612 48.4061Z" fill="#5E5E99"/>
<path d="M28.4889 40.6302L23.9027 35.7939L19.3271 40.6302H21.2416V43.902C22.9947 43.4644 24.8203 43.4012 26.5994 43.7163V40.6302H28.4889Z" fill="#343462"/>
<path d="M52.1737 68.8155H2.22882V71.9408H52.1737V68.8155Z" fill="#F29580"/>
<path d="M0 112.345H4.45764L10.5047 77.9951H6.0471L0 112.345Z" fill="#F29580"/>
<path d="M7.11508 71.9409L6.04353 77.9951H10.5047L11.5763 71.9409H7.11508Z" fill="#DF5740"/>
<path d="M47.291 71.9409H42.8333L43.9049 77.9951H48.3625L47.291 71.9409Z" fill="#DF5740"/>
<path d="M43.8977 77.9951L49.9448 112.345H54.4025L48.3554 77.9951H43.8977Z" fill="#F29580"/>
<path d="M29.4283 71.9409H24.9742L25.1099 76.052H29.2961L29.4283 71.9409Z" fill="#B93317"/>
<path d="M25.1099 76.0484L26.0815 105.637H28.321L29.2961 76.0377L25.1099 76.0484Z" fill="#DF5740"/>
<path d="M75.5988 3.8985C75.732 2.54574 75.4073 1.18739 74.6772 0.0409274C74.4118 -0.0160097 74.1372 -0.0135109 73.8729 0.0482429C73.6085 0.109997 73.361 0.229475 73.1485 0.398109C73.7153 0.855063 74.1707 1.43506 74.4801 2.09413C74.7894 2.75321 74.9448 3.47408 74.9344 4.20211C75.1309 4.08067 75.388 4.01995 75.5988 3.8985Z" fill="#1B1B25"/>
<path d="M85.6999 11.7708C84.3176 13.5103 81.8602 13.8603 79.6492 14.0818L72.3984 14.7961C71.1483 14.9211 69.8374 15.039 68.6837 14.5461C66.9299 13.796 65.9798 11.6886 66.2406 9.80986C66.5013 7.93108 67.7765 6.27375 69.3659 5.20935C70.9554 4.14494 72.8306 3.60202 74.6987 3.21985C76.6882 2.81266 78.7455 2.57692 80.7422 2.94839C82.7388 3.31986 84.6712 4.35568 85.7749 6.06301C86.8786 7.77034 86.9643 10.1849 85.6999 11.7708Z" fill="#1B1B25"/>
<path d="M64.3797 44.7564L64.1475 46.3637L67.7193 49.1712V46.503L64.3797 44.7564Z" fill="#FF896B"/>
<path d="M67.7122 44.3957L64.6654 42.8062L64.3797 44.76L67.7122 46.5031V44.3957Z" fill="#FF896B"/>
<path d="M60.8757 29.7763C60.4874 29.4285 60.2092 28.9747 60.0752 28.4709C59.9413 27.967 59.9577 27.435 60.122 26.9403C60.3649 26.2545 60.8757 25.7045 61.2972 25.1115C61.7186 24.5186 62.0687 23.7971 61.9151 23.0863C62.3766 23.8594 62.7302 24.6923 62.9652 25.5616C63.1781 26.4246 63.127 27.3317 62.8188 28.1654C62.6398 28.5648 62.3716 28.9178 62.0348 29.1971C61.6976 29.4764 61.3011 29.6745 60.8757 29.7763Z" fill="#1B1B25"/>
<path d="M60.9364 29.1942C60.6432 29.1599 60.3485 29.2434 60.1167 29.4262C59.8852 29.609 59.7352 29.8762 59.7006 30.1693C59.7006 30.1871 59.7006 30.205 59.7006 30.2229L59.6291 31.023C59.4577 32.9238 59.1498 34.8098 58.7076 36.6666L55.3144 50.7824C55.2979 50.8489 55.2947 50.9182 55.3054 50.986C55.3158 51.0539 55.3397 51.1189 55.3758 51.1771C55.4115 51.2357 55.4587 51.2864 55.5144 51.3268C55.5701 51.3668 55.6333 51.3954 55.7001 51.4111C55.7666 51.4268 55.8351 51.4297 55.9026 51.4186C55.9701 51.4079 56.0348 51.3839 56.0927 51.3479C56.1509 51.3121 56.2012 51.2654 56.2412 51.2096C56.2809 51.1543 56.3095 51.0918 56.3252 51.0253L59.7041 36.9095C60.1495 35.0527 60.7296 33.231 61.44 31.4587L61.7615 30.6551C61.8144 30.5242 61.8408 30.3842 61.8394 30.2431C61.8379 30.102 61.8087 29.9626 61.7533 29.8329C61.6979 29.7031 61.6172 29.5855 61.5165 29.487C61.4154 29.3884 61.2961 29.3108 61.165 29.2585C61.0918 29.2273 61.015 29.2057 60.9364 29.1942Z" fill="#FF2C39"/>
<path d="M58.6862 44.7993L63.4117 52.7466C63.6142 53.0906 63.8828 53.3909 64.2014 53.631C64.5204 53.871 64.8836 54.0457 65.2701 54.1453C65.6566 54.245 66.0588 54.2671 66.4538 54.211C66.8492 54.155 67.2293 54.0214 67.5729 53.8181L67.6372 53.7789C68.3187 53.3502 68.8019 52.6684 68.9809 51.8833C69.1598 51.0986 69.0195 50.2745 68.5908 49.5927C68.4808 49.4112 68.3526 49.2416 68.2087 49.0855L61.6222 42.2311L58.6862 44.7993Z" fill="#FFC5A5"/>
<path d="M62.5687 38.1199L63.0188 40.7738C63.1102 41.3164 63.0441 41.8739 62.8291 42.3801C62.6137 42.8865 62.2583 43.3209 61.8044 43.6313L61.3757 44.2028C61.0496 44.6349 60.6092 44.9668 60.1042 45.1607C59.5988 45.3543 59.0494 45.4025 58.5183 45.2993L57.3503 45.0671L59.1791 39.5987L62.5687 38.1199Z" fill="#FF896B"/>
<path d="M54.4178 43.4316L55.6323 37.7845C55.6905 37.5145 55.853 37.2791 56.0848 37.1291C56.3163 36.9791 56.5981 36.9269 56.8681 36.9844C56.9392 36.9994 57.0088 37.0219 57.0753 37.0523L59.6791 38.2274C59.8927 38.3239 60.0674 38.4903 60.1738 38.6996C60.2803 38.9086 60.3124 39.1475 60.2649 39.3776L59.1934 44.6067C59.1494 44.8175 59.0244 45.0025 58.8455 45.1218C58.6662 45.2414 58.4476 45.2861 58.2361 45.2461L55.2465 44.671C55.1122 44.6457 54.9847 44.5942 54.8704 44.5192C54.7564 44.4446 54.6582 44.3478 54.5814 44.2349C54.505 44.1224 54.4511 43.9952 54.4239 43.8616C54.3964 43.7281 54.3953 43.5905 54.4214 43.4566L54.4178 43.4316Z" fill="#FFC5A5"/>
<path d="M60.0327 40.3777L60.4435 37.6631C60.4742 37.4716 60.5792 37.3002 60.7357 37.1855C60.8921 37.0712 61.0875 37.0234 61.2793 37.0523C61.3304 37.0602 61.3808 37.0734 61.4293 37.0916L62.3187 37.4488C62.423 37.4884 62.5187 37.5488 62.5998 37.6256C62.6809 37.7027 62.7463 37.7949 62.7916 37.897C62.837 37.9992 62.862 38.1096 62.8648 38.2214C62.8673 38.3332 62.8481 38.4443 62.8081 38.5489L62.783 38.6132L61.6651 40.9385C61.5922 41.0878 61.4654 41.2038 61.3104 41.2635C61.1554 41.3231 60.9832 41.3217 60.8293 41.2599L60.4256 41.092C60.2885 41.0356 60.1745 40.9338 60.1031 40.8038C60.0317 40.6741 60.0067 40.5234 60.0327 40.3777Z" fill="#FFC5A5"/>
<path d="M94.0044 41.585L96.0118 45.6211L89.1717 49.1072L89.3182 44.6639L94.0044 41.585Z" fill="#FF896B"/>
<path d="M94.4509 41.2957L90.7147 32.891C90.4258 32.2385 89.9818 31.6665 89.4217 31.2245C88.8613 30.7826 88.2016 30.4841 87.5001 30.355L81.2672 29.2192H76.106L70.5053 29.8157C69.6706 29.9034 68.8787 30.2286 68.2237 30.7528C67.5682 31.277 67.0771 31.9782 66.8085 32.7731L63.5939 42.2422L67.7157 44.3853V58.0547H88.8895L89.3289 44.6532L94.4509 41.2957Z" fill="#4D64FF"/>
<path d="M86.0785 23.1757C85.9406 23.8011 85.6538 24.3841 85.2431 24.8752C84.8319 25.3664 84.3087 25.7513 83.7175 25.9974C82.5317 26.4725 80.9779 26.4689 79.9242 25.7474C79.4578 26.1558 78.8566 26.3764 78.2369 26.3665C77.6172 26.3566 77.0232 26.1169 76.5703 25.6938C75.9534 26.189 75.1894 26.4654 74.3986 26.4796C73.5953 26.4794 72.8142 26.2173 72.1734 25.7331C71.7169 25.9982 71.1918 26.1216 70.665 26.0876C70.1385 26.0535 69.6338 25.8636 69.2152 25.542C68.7966 25.2204 68.4833 24.7815 68.3147 24.2813C68.1465 23.7811 68.1304 23.242 68.2694 22.7328C67.9183 22.6106 67.6 22.4091 67.3396 22.144C67.0789 21.8789 66.8828 21.5574 66.7667 21.2042C66.6506 20.8511 66.6178 20.476 66.6699 20.108C66.7224 19.74 66.8592 19.389 67.0692 19.0824C67.3946 18.685 67.744 18.308 68.1158 17.9537C68.7691 17.161 69.1788 16.1957 69.2945 15.1748C69.4609 14.1442 69.5277 13.1 69.4945 12.0566C72.6484 9.82062 76.7667 8.72764 80.5672 9.46701C82.1566 9.77776 83.764 10.4064 84.8034 11.6458C84.6916 12.3737 84.7869 13.1183 85.078 13.7947C85.3691 14.471 85.8445 15.052 86.45 15.4712C87.0322 15.8534 87.7465 16.0999 88.1252 16.6821C88.2662 16.9203 88.3516 17.1873 88.3752 17.4631C88.3984 17.7389 88.3595 18.0165 88.2609 18.2751C88.0551 18.7934 87.7058 19.2421 87.2536 19.5681C87.5308 19.838 87.7312 20.1766 87.8348 20.5493C87.9383 20.9221 87.9412 21.3157 87.843 21.6898C87.698 22.0663 87.4604 22.3999 87.1518 22.6598C86.8432 22.9196 86.4739 23.0971 86.0785 23.1757Z" fill="#FF2C39"/>
<path d="M78.5062 27.1761C79.5524 27.0075 80.5168 26.5065 81.2565 25.7474V22.297H76.106V26.9404C76.8739 27.2175 77.699 27.2986 78.5062 27.1761Z" fill="#FF896B"/>
<path d="M78.5062 27.1761C77.6976 27.294 76.8725 27.208 76.106 26.926V29.2192C76.3546 29.6861 76.7257 30.0765 77.1793 30.3488C77.6329 30.621 78.1519 30.7649 78.6812 30.7649C79.2102 30.7649 79.7292 30.621 80.1828 30.3488C80.6365 30.0765 81.0076 29.6861 81.2565 29.2192V25.7509C80.5164 26.5087 79.5521 27.0084 78.5062 27.1761Z" fill="#FFC5A5"/>
<path d="M81.9709 14.1639C81.274 14.5967 80.4557 14.7922 79.6385 14.7211C78.8445 14.6463 78.098 14.3095 77.5168 13.7638C76.9732 14.2385 76.2653 14.4809 75.5452 14.4389C75.1934 14.4257 74.8505 14.3237 74.5486 14.1424C74.2397 13.9504 74.0061 13.6577 73.8879 13.3138C73.6653 13.9283 73.2778 14.4694 72.767 14.8773C72.2566 15.2851 71.643 15.5438 70.9947 15.6248C71.2597 16.2442 71.3583 16.9224 71.2797 17.5917C71.2015 18.2609 70.9493 18.898 70.5482 19.4395C71.534 22.7291 74.17 25.0865 77.274 25.0865C80.1314 25.0865 82.5817 23.097 83.7282 20.2253C82.9732 19.4283 82.4195 18.4623 82.1138 17.4079C81.808 16.3534 81.7591 15.2411 81.9709 14.1639Z" fill="#FFC5A5"/>
<path d="M67.7122 37.0452L66.1191 43.5673L67.7122 44.396V37.0452Z" fill="#3651D8"/>
<path d="M89.5789 36.638L91.2791 43.3709L89.3181 44.6568L89.5789 36.638Z" fill="#3651D8"/>
<path d="M67.7122 58.0654L62.3544 82.0216C62.019 83.5157 61.9715 85.0602 62.2151 86.5721L65.9298 109.835H74.5451L70.5339 85.322L72.2841 81.0358C73.7871 77.3622 74.9565 73.5607 75.7774 69.6774L76.7703 64.9661H79.017L75.7202 82.1431C75.3384 84.124 75.5052 86.1717 76.2024 88.0651L84.2176 109.832L92.3899 105.521L83.6068 84.8719C86.7543 77.8076 88.4988 70.1992 88.7431 62.4694L88.8788 58.0582L67.7122 58.0654Z" fill="#1B1B25"/>
<path d="M65.3762 109.835H74.8844L75.5166 112.854H66.0084L65.3762 109.835Z" fill="#383849"/>
<path d="M92.9293 105.242L83.6782 110.118L85.157 112.854L94.408 107.978L92.9293 105.242Z" fill="#383849"/>
<path d="M73.3949 112.854H67.1192L67.2514 113.754C67.4025 114.788 67.1939 115.842 66.661 116.742C66.1277 117.641 65.3023 118.33 64.3225 118.694L60.4292 120.122C60.2167 120.201 60.0252 120.328 59.8699 120.493C59.7145 120.657 59.5991 120.856 59.5327 121.072H75.3166L73.3949 112.854Z" fill="#2C4DF6"/>
<path d="M59.5327 121.087C59.4898 121.227 59.468 121.372 59.4684 121.519V121.98H75.5166L75.3094 121.087H59.5327Z" fill="#96C9FF"/>
<path d="M72.0055 118.301C71.6955 118.301 71.3951 118.194 71.1547 117.999C70.914 117.804 70.7479 117.532 70.6839 117.229L69.791 112.857H72.5413L73.3235 116.69C73.3953 117.039 73.3253 117.403 73.1288 117.701C72.9328 117.999 72.6263 118.207 72.277 118.279C72.1873 118.295 72.0962 118.302 72.0055 118.301Z" fill="#96C9FF"/>
<path d="M92.9435 108.735L87.2643 111.729L88.2073 114.554C88.3648 115.028 88.4223 115.53 88.3762 116.028C88.3298 116.526 88.1812 117.009 87.9394 117.447L85.532 121.787C85.2545 122.284 85.1516 122.86 85.2391 123.423L97.5548 115.393L92.9435 108.735Z" fill="#2C4DF6"/>
<path d="M85.2391 123.437C85.2681 123.624 85.317 123.807 85.3856 123.983L85.4891 124.244L98.0155 116.072L97.5548 115.407L85.2391 123.437Z" fill="#96C9FF"/>
<path d="M92.022 109.235L93.6794 111.85C93.8737 112.157 93.9397 112.529 93.8629 112.884C93.7861 113.239 93.5725 113.55 93.2686 113.75C93.1161 113.849 92.9453 113.918 92.7667 113.952C92.5878 113.985 92.4039 113.983 92.226 113.946C92.0477 113.908 91.8788 113.836 91.7284 113.733C91.5784 113.63 91.4498 113.499 91.3505 113.347C91.3316 113.32 91.3148 113.293 91.3005 113.264L89.7325 110.443L92.022 109.235Z" fill="#96C9FF"/>
<path d="M74.3236 29.4085V34.6948C74.3236 35.7222 74.7076 36.713 75.4002 37.472C76.0924 38.2314 77.0436 38.7043 78.0669 38.799C79.1334 38.8979 80.1971 38.5772 81.0311 37.905C81.8655 37.2327 82.4049 36.2619 82.5352 35.1984L83.2282 29.5764L85.3927 29.9693L84.6033 37.981C84.4862 39.1433 84.6487 40.317 85.0766 41.4043C85.5049 42.4915 86.186 43.4609 87.0643 44.2317L88.3859 45.3926L87.6501 61.4658C87.5369 63.9046 87.2133 66.3295 86.6821 68.713L85.0284 76.1246H63.0616L67.2657 58.0761L67.4657 43.9138L68.6087 43.1638C69.5734 42.5308 70.376 41.68 70.9511 40.6799C71.5262 39.6794 71.858 38.5579 71.9198 37.406L72.327 29.6335L74.3236 29.4085Z" fill="#96C9FF"/>
<path d="M98.1013 45.6711C97.968 44.3913 97.5833 43.1508 96.969 42.0207C96.6575 41.4578 96.2368 40.9631 95.7314 40.5659C95.2259 40.1684 94.6459 39.8758 94.0258 39.7062C92.7757 39.4204 91.3291 39.874 90.6433 40.9599C89.9575 42.0457 90.1111 43.6745 89.2503 44.7103C88.5895 45.5032 87.5037 45.7497 86.5286 46.0926C85.0945 46.568 83.8132 47.4174 82.8174 48.5536C81.8205 49.7019 81.3083 51.1924 81.3887 52.7112C81.503 54.0899 82.1745 55.3579 82.9067 56.533C83.6997 57.8046 84.6319 59.0726 85.9713 59.7477C86.9457 60.2045 88.0251 60.3906 89.0967 60.287C92.3113 60.0441 95.1688 57.8582 96.6904 55.0365C98.212 52.2147 98.5513 48.85 98.1013 45.6711ZM93.6686 45.6283C92.6614 45.6283 91.847 44.6532 91.847 43.4494C91.847 42.2457 92.6614 41.2706 93.6686 41.2706C94.6759 41.2706 95.4867 42.2493 95.4867 43.4494C95.4867 44.6496 94.6723 45.6283 93.6686 45.6283Z" fill="white"/>
<path d="M87.9037 47.6285C87.8037 47.9143 88.0537 48.2072 88.3252 48.3429C88.6116 48.4393 88.8806 48.5815 89.1217 48.7644C89.3539 49.0037 89.4789 49.418 89.8146 49.4359C90.0504 49.4359 90.2254 49.2323 90.3611 49.043L90.9683 48.1893C91.0955 48.0336 91.1923 47.8554 91.2541 47.6643C91.2852 47.5682 91.2902 47.4653 91.268 47.3667C91.2462 47.2681 91.198 47.1771 91.1291 47.1035C90.954 46.9427 90.679 46.957 90.479 46.8284C90.2947 46.6624 90.1536 46.4538 90.0682 46.2212C89.9504 46.0034 89.7325 45.7855 89.4932 45.8462C89.2539 45.9069 89.1717 46.1319 89.136 46.3463C89.1231 46.5641 89.0556 46.7756 88.9395 46.9606C88.6681 47.2999 88.0466 47.2321 87.9037 47.6285Z" fill="#96CBFF"/>
<path d="M85.0462 51.086C84.9319 51.4432 84.4605 51.5432 84.2819 51.8647C84.2165 52.0233 84.2108 52.2001 84.2651 52.3626C84.3197 52.5251 84.4308 52.663 84.5783 52.7505C84.7316 52.8294 84.9005 52.8734 85.073 52.8787C85.2452 52.8844 85.4166 52.8516 85.5749 52.7826C85.8903 52.6448 86.1867 52.4672 86.4571 52.254C86.73 52.0429 87.0418 51.8875 87.3751 51.7968C87.643 51.7822 87.9051 51.7104 88.143 51.5861C88.2577 51.4782 88.3355 51.3371 88.3659 51.1828C88.3959 51.0282 88.3766 50.8681 88.3109 50.7253C88.1727 50.4452 87.9723 50.2009 87.7251 50.0109C87.4286 49.723 87.0904 49.4819 86.7214 49.2965C86.536 49.2037 86.3342 49.1487 86.1274 49.1351C85.9206 49.1219 85.7135 49.1497 85.5177 49.218C85.3234 49.2905 85.1573 49.423 85.0437 49.5966C84.9301 49.7702 84.8744 49.9752 84.8855 50.1823C84.9212 50.4788 85.1427 50.7824 85.0462 51.086Z" fill="#4D64FF"/>
<path d="M88.6609 53.4791C88.4173 53.8603 88.1255 54.2085 87.793 54.515C87.4576 54.8214 87.2254 55.2247 87.1286 55.6687C87.085 55.8933 87.1254 56.1266 87.2418 56.3241C87.3583 56.5213 87.5429 56.6691 87.7608 56.7402C88.1787 56.8259 88.5931 56.5223 89.0217 56.5545C89.2953 56.6081 89.5589 56.7031 89.8039 56.8367C89.9275 56.9013 90.0668 56.9306 90.2061 56.9209C90.3454 56.9117 90.4793 56.8638 90.5933 56.7831C90.904 56.4866 90.6647 55.9508 90.8183 55.5508C90.9319 55.3229 91.0998 55.1265 91.3076 54.9793C91.4102 54.9036 91.4955 54.8068 91.557 54.695C91.6188 54.5835 91.6555 54.46 91.6648 54.3328C91.6434 53.9756 91.2826 53.7756 90.9505 53.6184C90.5361 53.422 90.1218 53.2291 89.7039 53.0398C89.6128 52.9809 89.5107 52.9412 89.4039 52.923C89.2971 52.9044 89.1878 52.9077 89.0824 52.9327C88.8895 53.0148 88.7752 53.2684 88.6609 53.4791Z" fill="#FF2C39"/>
<path d="M93.2579 52.5862C93.41 52.3241 93.5075 52.0337 93.5443 51.7329C93.5811 51.4322 93.5565 51.1268 93.4722 50.836C93.424 50.6299 93.3275 50.4385 93.1911 50.277C93.0543 50.1156 92.8814 49.9888 92.6864 49.9074C92.5921 49.8731 92.4921 49.8581 92.3917 49.8631C92.2917 49.8677 92.1935 49.892 92.1031 49.9349C92.0124 49.9777 91.9309 50.0381 91.8638 50.1124C91.7966 50.1867 91.7448 50.2735 91.7113 50.3681C91.7113 50.3681 91.7113 50.4003 91.7113 50.4146C91.6613 50.7324 91.8649 51.0718 91.7398 51.3682C91.6398 51.604 91.3577 51.7254 91.2648 51.9683C91.1505 52.2612 91.3612 52.5755 91.5827 52.7934C91.7831 53.0213 92.0599 53.1688 92.3613 53.2077C92.5514 53.1899 92.7339 53.1234 92.891 53.0145C93.0482 52.9055 93.1743 52.758 93.2579 52.5862Z" fill="#E5F1FF"/>
<path d="M94.7366 48.6215C94.8045 48.4107 94.7366 48.1786 94.7652 47.9607C94.8488 47.7417 94.9698 47.5385 95.1224 47.3606C95.1934 47.2685 95.232 47.1552 95.232 47.0391C95.232 46.9227 95.1934 46.8095 95.1224 46.7177C95.0381 46.6602 94.9384 46.6295 94.8366 46.6295C94.7345 46.6295 94.6348 46.6602 94.5509 46.7177C94.3826 46.8323 94.2001 46.9248 94.0079 46.9927C93.8897 47.0109 93.7704 47.0216 93.6508 47.0249C93.5233 47.0377 93.4 47.0756 93.2875 47.1367C93.175 47.1977 93.0761 47.2806 92.9957 47.3802C92.9157 47.4799 92.8564 47.5946 92.821 47.7174C92.7857 47.8407 92.775 47.9692 92.79 48.0964C92.8128 48.2971 92.8964 48.4864 93.0293 48.6393C93.2443 48.8597 93.53 48.9976 93.8365 49.0286C94.0133 49.0569 94.1944 49.0433 94.3651 48.9894C94.4505 48.9597 94.5284 48.9111 94.5927 48.8476C94.6569 48.784 94.7062 48.7065 94.7366 48.6215Z" fill="#F20009"/>
<path d="M96.6082 44.4925C96.3868 44.989 96.669 45.564 96.7797 46.0784C96.8793 46.797 96.8183 47.5289 96.6011 48.2215C96.3836 48.9137 96.3011 49.6413 96.3582 50.3646C96.4654 51.0789 96.944 51.7933 97.6548 51.9397C98.3656 52.0862 99.0835 51.5826 99.4621 50.9611C99.7847 50.2928 99.9508 49.5598 99.9479 48.818C100.041 47.3714 100.062 45.8748 99.5514 44.5318C99.46 44.1985 99.2471 43.9121 98.9549 43.7281C98.6188 43.6085 98.2516 43.6085 97.9155 43.7281C97.4048 43.8496 96.8261 44.0174 96.6082 44.4925Z" fill="#FFC5A5"/>
<path d="M97.4905 41.7314C97.5812 41.9135 97.6226 42.1164 97.6101 42.3193C97.5976 42.5225 97.5316 42.719 97.4191 42.8887C97.1887 43.2273 96.8647 43.4916 96.4868 43.6495C96.1328 43.8241 95.7417 43.9098 95.3474 43.8995C95.1499 43.8931 94.9559 43.8463 94.7777 43.7613C94.5994 43.6766 94.4405 43.5559 94.3116 43.4066C94.1858 43.2541 94.1058 43.069 94.0812 42.8729C94.0565 42.6768 94.088 42.4779 94.1723 42.2993C94.3684 42.0053 94.6484 41.7778 94.9759 41.6457C95.3781 41.4064 95.8235 41.2485 96.2868 41.1813C96.5186 41.152 96.754 41.1878 96.9668 41.2849C97.1794 41.3821 97.3608 41.5367 97.4905 41.7314Z" fill="#FFC5A5"/>
</svg>
