<svg width="100" height="92" viewBox="0 0 100 92" fill="none" xmlns="http://www.w3.org/2000/svg">
<path d="M66.5547 71.9179C65.4955 69.3238 63.5224 67.0668 62.5689 66.8889C61.6153 66.7109 60.6057 67.201 60.5595 68.0127C60.5573 69.6355 60.9479 71.2372 61.7011 72.6952C62.6712 74.5338 66.5547 71.9179 66.5547 71.9179Z" fill="#BC573F"/>
<path d="M66.5547 71.9178C66.2964 71.2923 65.9909 70.6852 65.6407 70.101C65.6407 70.101 63.3838 71.8804 62.493 71.7867C61.6021 71.6931 60.6915 69.6578 60.8696 67.3509C60.687 67.5312 60.5772 67.7666 60.5595 68.0158C60.5573 69.6386 60.9479 71.2403 61.7011 72.6983C61.7746 72.8385 61.8793 72.962 62.008 73.0604C62.5458 73.0604 63.5356 72.9262 64.8818 72.8419C65.4654 72.5781 66.025 72.269 66.5547 71.9178V71.9178Z" fill="#A84734"/>
<path d="M65.7925 72.358C65.1656 70.819 63.991 69.4767 63.4268 69.3706C62.8626 69.2645 62.2621 69.5516 62.2324 70.0417C62.2321 71.0028 62.4646 71.951 62.9121 72.8138C63.4862 73.9126 65.7925 72.358 65.7925 72.358Z" fill="#E7BC94"/>
<path d="M64.8521 70.6786C64.1164 71.1843 63.0572 71.8336 62.5062 71.7836C62.6056 72.1388 62.7415 72.4838 62.912 72.8138C62.9539 72.8747 63.0064 72.9285 63.0671 72.973C63.5686 72.9293 64.1724 72.8731 64.8851 72.8294C65.126 72.7264 65.3504 72.6109 65.545 72.5172C65.6836 72.4361 65.7826 72.3705 65.7826 72.3705C65.5407 71.7752 65.2286 71.2076 64.8521 70.6786V70.6786Z" fill="#DEAC80"/>
<path d="M23.7476 32.2914C26.242 32.8533 28.8882 32.5099 29.4524 31.8513C30.0167 31.1926 30.1123 30.1281 29.4854 29.6443C28.2704 28.7839 26.8467 28.2258 25.3446 28.021C23.4738 27.7869 23.7476 32.2914 23.7476 32.2914Z" fill="#5E5046"/>
<path d="M23.7471 32.2917C24.3477 32.4253 24.9592 32.5109 25.575 32.5476C25.575 32.5476 25.2121 29.7943 25.6872 29.1388C26.1623 28.4832 28.1552 28.861 29.8643 30.2501C29.8126 30.0147 29.6804 29.8018 29.4882 29.6445C28.2727 28.7829 26.8475 28.2246 25.344 28.0212C25.2024 28.0024 25.0581 28.0185 24.925 28.0681C24.6907 28.4988 24.3377 29.3542 23.7933 30.4717C23.7333 31.0766 23.7179 31.6847 23.7471 32.2917Z" fill="#4A3E36"/>
<path d="M23.7702 31.4455C25.2483 31.7826 26.8189 31.5766 27.1554 31.1864C27.492 30.7962 27.5415 30.1625 27.1752 29.8753C26.4532 29.3636 25.6068 29.0319 24.7138 28.9107C23.5887 28.7733 23.7702 31.4455 23.7702 31.4455Z" fill="#E7BC94"/>
<path d="M25.4826 31.6234C25.4199 30.765 25.3935 29.5694 25.6839 29.1573C25.3631 29.048 25.0314 28.9696 24.694 28.9232C24.628 28.924 24.5628 28.9378 24.5027 28.9638C24.3113 29.3821 24.0803 29.9003 23.79 30.484C23.7669 30.7337 23.7504 30.971 23.7405 31.1926C23.7405 31.3456 23.7405 31.458 23.7405 31.458C24.3106 31.5875 24.8967 31.6432 25.4826 31.6234Z" fill="#DEAC80"/>
<path d="M21.8268 42.0373C24.1793 42.9956 26.8519 43.083 27.5283 42.5243C28.2047 41.9655 28.4818 40.9322 27.9605 40.3547C26.9171 39.3119 25.6152 38.5319 24.1727 38.0853C22.3679 37.5546 21.8268 42.0373 21.8268 42.0373Z" fill="#5E5046"/>
<path d="M21.8268 42.0375C22.3939 42.2658 22.9798 42.4495 23.5788 42.5869C23.5788 42.5869 23.7174 39.8149 24.308 39.2436C24.8986 38.6724 26.7892 39.3716 28.2212 41.0167C28.2146 40.7748 28.1229 40.5419 27.9605 40.3549C26.9171 39.3121 25.6152 38.5321 24.1727 38.0855C24.0356 38.0472 23.891 38.0397 23.7504 38.0636C23.4402 38.4538 22.9387 39.2374 22.1996 40.2488C22.0342 40.8367 21.9096 41.4342 21.8268 42.0375V42.0375Z" fill="#4A3E36"/>
<path d="M21.9818 41.2038C23.3808 41.772 24.9514 41.8281 25.3671 41.4941C25.7829 41.1601 25.9346 40.5576 25.6245 40.2049C25.005 39.5855 24.2314 39.1229 23.3742 38.8594C22.3052 38.5441 21.9818 41.2038 21.9818 41.2038Z" fill="#E7BC94"/>
<path d="M23.658 41.644C23.7504 40.7886 23.9418 39.6086 24.3179 39.2496C24.0238 39.0899 23.7131 38.9591 23.3907 38.8594C23.3254 38.847 23.2581 38.847 23.1928 38.8594C22.9288 39.2434 22.6088 39.7085 22.2194 40.2423C22.1468 40.4827 22.0907 40.7168 22.0412 40.9353C22.0148 41.0883 21.9984 41.2007 21.9984 41.2007C22.5285 41.417 23.0865 41.5661 23.658 41.644V41.644Z" fill="#DEAC80"/>
<path d="M58.5864 76.5254C56.0458 75.1238 53.0135 74.5276 52.1557 74.9646C51.2978 75.4016 50.8194 76.36 51.3275 77.028C52.3894 78.2931 53.744 79.3109 55.2869 80.003C57.2798 80.8614 58.5864 76.5254 58.5864 76.5254Z" fill="#BC573F"/>
<path d="M58.5864 76.5254C57.9726 76.1872 57.3329 75.8929 56.6727 75.6451C56.6727 75.6451 56.0854 78.3641 55.3298 78.8198C54.5742 79.2756 52.5153 78.2205 51.1328 76.3225C51.1061 76.5712 51.1752 76.8206 51.3275 77.0249C52.3908 78.2887 53.745 79.3062 55.2869 79.9998C55.4372 80.0649 55.6001 80.0999 55.7653 80.1028C56.1778 79.7907 56.8706 79.0946 57.8671 78.2299C58.1551 77.681 58.3957 77.111 58.5864 76.5254Z" fill="#A84734"/>
<path d="M58.2795 77.3183C56.7717 76.488 54.9801 76.1321 54.462 76.3818C53.944 76.6316 53.6702 77.2091 53.9704 77.6087C54.605 78.3598 55.4132 78.9631 56.3328 79.3724C57.5042 79.8937 58.2795 77.3183 58.2795 77.3183Z" fill="#E7BC94"/>
<path d="M56.4351 76.5754C56.1976 77.4057 55.7983 78.5389 55.3331 78.8261C55.6447 79.041 55.9759 79.229 56.3229 79.388C56.396 79.412 56.4733 79.4226 56.5506 79.4192C56.9136 79.0914 57.3491 78.6919 57.8704 78.233C57.9859 78.0082 58.0882 77.7897 58.1806 77.5837L58.2663 77.3277C57.6878 77.0125 57.0735 76.7602 56.4351 76.5754Z" fill="#DEAC80"/>
<path d="M19.1707 64.2292C19.3753 63.1834 20.1308 59.7402 20.7478 59.1627C21.3648 58.5852 23.46 58.298 24.1199 59.4468C24.7798 60.5956 24.4499 65.8275 24.4499 65.8275L19.1707 64.2292Z" fill="#755640"/>
<path d="M20.2859 62.2407C20.2859 62.2407 20.6159 60.1273 21.3055 58.8537C21.1007 58.9241 20.9116 59.0299 20.7478 59.1659C20.1308 59.7434 19.3753 63.1866 19.1707 64.2323L24.4499 65.8337C24.4499 65.8337 24.5258 64.6257 24.5324 63.2428C23.3247 62.5279 20.2859 62.2407 20.2859 62.2407Z" fill="#64452D"/>
<path d="M30.874 69.1365C31.6097 68.3342 34.1042 65.7245 34.9455 65.5216C35.7869 65.3187 37.7468 66.0772 37.7006 67.3946C37.6544 68.7119 34.5694 73.0573 34.5694 73.0573L30.874 69.1365Z" fill="#755640"/>
<path d="M32.8966 67.9566C32.8966 67.9566 34.3054 66.2897 35.5856 65.5249C35.3743 65.4859 35.1569 65.4859 34.9455 65.5249C34.1042 65.7278 31.6097 68.3344 30.874 69.1397L34.5694 73.0481C34.5694 73.0481 35.2788 72.0398 36.0245 70.8629C35.3613 69.6673 32.8966 67.9566 32.8966 67.9566Z" fill="#64452D"/>
<path d="M64.5651 23.8629C64.5651 24.9274 64.5453 28.4424 64.057 29.1261C63.5686 29.8097 61.5758 30.4684 60.6948 29.4632C59.8138 28.458 59.045 23.2636 59.045 23.2636L64.5651 23.8629Z" fill="#755640"/>
<path d="M63.8788 26.0044C63.8788 26.0044 63.9976 28.1365 63.5752 29.5132C63.7601 29.4139 63.9235 29.2826 64.057 29.1261C64.5453 28.4424 64.5783 24.9274 64.5651 23.8629L59.0747 23.2636C59.0747 23.2636 59.2529 24.4623 59.5301 25.8202C60.8367 26.2885 63.8788 26.0044 63.8788 26.0044Z" fill="#64452D"/>
<path d="M55.8148 24.7745C55.5739 25.814 54.693 29.2291 54.0529 29.7879C53.4128 30.3467 51.3143 30.562 50.6973 29.3945C50.0803 28.227 50.5983 23.0014 50.5983 23.0014L55.8148 24.7745Z" fill="#755640"/>
<path d="M54.6303 26.7224C54.6303 26.7224 54.2344 28.8233 53.4887 30.0751C53.6941 30.0134 53.8854 29.916 54.0529 29.7879C54.693 29.2291 55.5707 25.814 55.8149 24.7745L50.5984 23.0014C50.5984 23.0014 50.4796 24.2095 50.4235 25.5892C51.6014 26.3322 54.6303 26.7224 54.6303 26.7224Z" fill="#64452D"/>
<path d="M82.864 57.6581C82.0458 58.3854 79.2808 60.7361 78.4229 60.8578C77.5651 60.9795 75.6976 60.0337 75.8856 58.7413C76.0737 57.4489 79.614 53.4126 79.614 53.4126L82.864 57.6581Z" fill="#5E5046"/>
<path d="M80.7259 58.632C80.7259 58.632 79.1422 60.1585 77.7861 60.7922C77.9918 60.8533 78.2082 60.8755 78.4229 60.8578C79.2808 60.7361 82.0523 58.3854 82.864 57.6581L79.6107 53.4126C79.6107 53.4126 78.7958 54.3491 77.9247 55.4542C78.4559 56.6935 80.7259 58.632 80.7259 58.632Z" fill="#4A3E36"/>
<path d="M77.9115 48.5678C76.7897 48.6209 73.0745 48.7114 72.3354 48.2744C71.5963 47.8373 70.8275 45.9768 71.8602 45.109C72.893 44.2412 78.3503 43.3421 78.3503 43.3421L77.9115 48.5678Z" fill="#5E5046"/>
<path d="M75.6151 47.9965C75.6151 47.9965 73.3681 48.187 71.8998 47.8373C72.015 48.0092 72.164 48.1587 72.3387 48.2775C73.0778 48.7145 76.793 48.6209 77.9148 48.5678L78.3536 43.3421C78.3536 43.3421 77.0932 43.5513 75.6679 43.8603C75.2191 45.1308 75.6151 47.9965 75.6151 47.9965Z" fill="#4A3E36"/>
<path d="M56.3856 44.3536C54.4059 45.546 54.2113 45.9144 53.6536 46.623C53.096 47.3316 52.38 48.496 50.9744 49.6136C50.1301 50.2276 49.446 51.0168 48.975 51.9205C48.7506 52.3169 48.3151 53.5125 47.8498 53.2222C47.3846 52.9319 47.8498 51.6926 48.0874 51.2025C48.3596 50.7011 48.6718 50.22 49.0212 49.7634C49.0212 49.7634 47.7212 51.0714 47.2262 51.549C46.7313 52.0266 45.4709 51.5989 46.1242 50.7811C46.1242 50.7811 45.2993 50.6905 45.1575 50.3752C45.0156 50.06 45.0684 49.7665 45.2399 49.3108C45.0993 49.1731 45.0054 48.9988 44.9701 48.8102C44.9348 48.6217 44.9598 48.4275 45.042 48.2525C45.042 48.2525 44.7417 47.572 44.9892 47.085C45.2366 46.598 46.5498 45.8363 46.8039 45.7052C47.058 45.5741 49.1135 44.903 49.625 44.6938C50.1752 44.4676 50.6903 44.1714 51.1559 43.8135C51.4639 43.4419 51.8223 43.1103 52.2217 42.8271C52.7727 42.4806 53.8219 41.6034 53.8219 41.6034L56.3856 44.3536Z" fill="#E7BC94"/>
<path d="M45.7316 50.6999C45.7828 50.5073 45.8782 50.3277 46.011 50.1739C46.1439 50.0202 46.311 49.896 46.5003 49.8102C47.091 49.4981 48.3019 48.6708 48.3019 48.6708L46.1242 50.7811C45.9879 50.7893 45.8518 50.7612 45.7316 50.6999Z" fill="#DEAC80"/>
<path d="M47.5001 47.5439C47.5001 47.5439 45.6392 48.9393 45.2399 49.3108C45.1582 49.2245 45.0914 49.1265 45.042 49.0204C45.6029 48.6146 47.5001 47.5439 47.5001 47.5439Z" fill="#DEAC80"/>
<path d="M47.1074 46.6386C47.1074 46.6386 46.3816 47.2317 45.9064 47.5751C45.4313 47.9185 45.042 48.2556 45.042 48.2556C45.042 48.2556 44.9958 48.1308 44.9529 47.9653C45.5996 47.5002 47.1074 46.6386 47.1074 46.6386Z" fill="#DEAC80"/>
<path d="M98.6686 43.9415L77.3209 49.5823C77.3209 49.5823 79.5117 57.886 84.3455 58.9473C84.3455 58.9473 88.163 62.4998 91.5681 61.4946C93.5706 60.9202 95.4496 60.0144 97.1178 58.8194C99.1107 57.3615 101.572 54.2274 98.6686 43.9415Z" fill="#755640"/>
<path d="M65.5483 32.8377C65.0633 33.0843 55.0988 40.2173 52.4031 41.8406C52.5351 42.6148 54.6501 45.493 55.9039 46.3514C56.4714 45.8366 57.0889 45.3736 57.7483 44.9685C59.3453 43.979 67.7425 38.6877 68.0922 38.463C68.442 38.2382 70.0719 38.5441 72.2694 38.7751C74.0214 38.9468 77.1526 39.5243 77.1526 39.5243C74.9354 43.2516 77.3242 49.598 77.3242 49.598L98.6686 43.9415C95.5143 33.7243 90.5749 32.3913 88.0805 32.1478C85.5861 31.9043 75.8724 31.6515 74.2227 31.7046C70.6757 31.8201 67.4851 31.845 65.5483 32.8377Z" fill="#755640"/>
<path d="M87.7341 53.0255C86.9026 52.9381 83.3491 52.5854 82.1744 49.4013C82.0142 49.4389 81.847 49.4419 81.6853 49.41C81.5237 49.3781 81.3717 49.3122 81.2407 49.2171C80.8579 48.9049 79.7163 48.6802 79.5381 48.0964C79.36 47.5127 80.528 46.6479 80.6204 46.3233C80.6656 46.2161 80.7348 46.1194 80.823 46.0397C80.9112 45.96 81.0165 45.8991 81.1318 45.8613C81.1318 45.8613 80.4917 41.5628 85.1638 40.1736L88.6843 52.0047L87.7341 53.0255Z" fill="#E7BC94"/>
<path d="M86.0513 39.0842C85.7544 38.7314 86.599 38.7939 87.4305 38.2788C88.262 37.7637 89.5884 37.5233 89.948 38.335C90.3077 39.1466 86.0513 39.0842 86.0513 39.0842Z" fill="#E7BC94"/>
<path d="M89.2617 53.5874C89.044 53.7778 89.1858 54.2742 90.1625 54.1181C91.1391 53.962 93.5148 54.5177 93.4224 53.1816C93.33 51.8455 89.2617 53.5874 89.2617 53.5874Z" fill="#E7BC94"/>
<path d="M87.4041 51.4741C87.7671 52.7227 87.0445 53.4657 88.3478 53.7029C89.6511 53.9402 94.4617 53.8528 97.1376 50.8934C99.8135 47.9341 99.3813 43.6044 98.0912 41.4504C96.8011 39.2965 95.4516 38.6596 93.8513 38.3506C92.2511 38.0415 88.9813 38.0946 86.7508 38.8625C84.8536 39.5181 84.2333 40.0082 84.2927 40.5857C84.3521 41.1632 82.4879 43.2298 83.8737 47.1412C84.9691 50.2317 87.2029 50.7873 87.4041 51.4741Z" fill="#2F3034"/>
<path d="M87.9617 51.6489C87.8844 51.6855 87.8132 51.7329 87.7506 51.7894C87.5899 51.9232 87.4459 52.074 87.3216 52.2389C87.137 52.4864 87.014 52.7703 86.962 53.0692C86.9383 52.7497 86.9925 52.4293 87.1204 52.1327C87.2109 51.9239 87.3272 51.7258 87.4668 51.5427C87.5335 51.4486 87.6134 51.3636 87.7044 51.2899L87.9617 51.6489Z" fill="#2F3034"/>
<path d="M96.7219 41.466C97.8404 44.057 97.3488 49.0517 94.6663 51.3211C91.9838 53.5906 87.7143 53.4407 87.5196 52.4137C87.5196 53.1005 87.414 53.5344 88.3445 53.7061C89.6445 53.9433 94.4584 53.8528 97.1343 50.8966C99.8102 47.9403 99.378 43.6043 98.0912 41.4504C96.8044 39.2964 95.4516 38.6596 93.848 38.3537C93.5298 38.2985 93.2078 38.2651 92.8846 38.2538C93.6435 38.3537 95.5968 38.8594 96.7219 41.466Z" fill="#0B0D15"/>
<path d="M87.9419 51.6957C87.7785 51.6803 87.6165 51.6542 87.4569 51.6176C87.0292 51.5196 86.6183 51.3651 86.2361 51.1588C85.0928 50.5473 84.2002 49.5895 83.7021 48.4398C83.2344 47.3069 83.0613 46.0843 83.1972 44.8748C83.2269 44.4785 83.2831 44.0844 83.3655 43.6949L83.448 43.2547L83.3853 43.7011C83.3189 44.0905 83.2803 44.4837 83.2698 44.878C83.1876 46.0671 83.4082 47.2576 83.9132 48.3493C84.4281 49.4212 85.3121 50.2962 86.4208 50.831C86.7718 51.0055 87.1474 51.1316 87.5361 51.2056C87.685 51.2352 87.8361 51.254 87.9881 51.2618L87.9419 51.6957Z" fill="#2F3034"/>
<path d="M92.3633 60.4208C88.6711 61.3292 85.8732 57.3834 85.8732 57.3834C85.8732 57.3834 79.1686 55.9006 77.5914 49.5137C76.0143 43.1267 79.878 38.157 79.878 38.157C79.878 38.157 69.4681 36.5338 68.1846 36.6399C66.9572 36.7429 57.3425 43.6574 54.8481 45.3993C55.1645 45.7502 55.5183 46.0692 55.9039 46.3514C56.4696 45.8359 57.0861 45.3729 57.745 44.9685C59.342 43.9789 67.7392 38.6877 68.0889 38.463C68.4387 38.2382 70.0686 38.5441 72.2661 38.7751C74.0181 38.9468 77.1493 39.5243 77.1493 39.5243C74.932 43.2516 77.3209 49.5979 77.3209 49.5979C77.3209 49.5979 79.5117 57.9016 84.3422 58.9442C84.3422 58.9442 88.163 62.4998 91.5681 61.4946C93.5696 60.9202 95.4475 60.0144 97.1145 58.8193C97.9957 58.1918 98.692 57.361 99.1371 56.4063C99.0579 56.4718 96.0059 59.5248 92.3633 60.4208Z" fill="#64452D"/>
<path d="M52.3635 50.4252C52.3635 50.4252 50.6115 48.2775 47.9191 48.4554C45.2267 48.6334 45.362 50.2972 45.362 50.2972L51.6773 52.4106L52.5615 51.4179L52.3635 50.4252Z" fill="#DEAC80"/>
<path d="M42.2704 48.6053C43.0392 48.6427 44.9595 48.2151 45.8999 48.0246C46.8402 47.8342 47.1504 47.4315 48.4405 47.572C49.3337 47.6349 50.211 47.8298 51.0405 48.1495C51.3935 48.3368 51.862 48.4991 52.3306 48.7395C52.7991 48.9799 52.9905 49.4856 51.9544 49.5074C51.3088 49.4891 50.6736 49.3479 50.0869 49.0923C49.6316 48.9237 48.3613 49.1547 47.6915 49.3482C47.0217 49.5418 46.6026 49.7291 47.1966 49.957C47.7905 50.1848 49.295 50.5813 49.9318 50.8622C50.5686 51.1432 51.5816 51.7613 51.5816 51.7613C51.5816 51.7613 51.9478 51.0995 52.1458 51.037C52.0198 50.6974 51.9486 50.3417 51.9346 49.9819C51.9544 49.5543 52.611 49.136 52.8156 49.7728C53.0202 50.4096 53.3237 51.3992 53.2643 51.6458C53.2049 51.8924 52.1755 53.1848 52.0963 53.3003C52.0171 53.4158 50.76 53.4657 50.2915 53.6124C49.8229 53.7591 48.7176 54.0307 48.4174 53.9808C48.1171 53.9308 46.8666 53.3284 46.0483 53.0443C45.2301 52.7602 43.5869 52.4387 42.607 52.5386L42.2704 48.6053Z" fill="#E7BC94"/>
<path d="M16.9897 42.7615C19.108 43.5544 22.0379 43.3296 23.2587 40.645C24.4796 37.9604 23.4072 35.5692 23.9549 33.3403C24.5027 31.1115 26.3207 27.0595 24.6577 24.2032C23.6679 22.5144 22.2854 22.3302 20.0615 21.8401L16.9897 42.7615Z" fill="#E18E4F"/>
<path d="M39.9377 52.9818C41.1618 52.9007 42.0725 52.7914 42.6433 52.7259C42.6433 52.7259 43.4483 48.8394 42.3133 48.2869C42.3133 48.2869 39.5813 48.0621 38.2483 47.7749C35.4999 47.1506 30.6595 46.2703 27.789 46.726L18.656 43.2142L19.7679 34.9979L2.90422 31.8981C2.43899 33.6369 2.3829 38.669 3.39584 41.7532C4.40878 44.8374 7.71817 48.6521 14.5811 50.3503C21.444 52.0485 26.2415 52.8944 27.007 53.0193C27.7725 53.1442 34.8499 53.1223 37.727 53.0755C38.5057 53.0755 39.1656 53.0318 39.7727 52.9943L39.9377 52.9818Z" fill="#E18E4F"/>
<path d="M11.6413 17.6602C7.56638 19.1711 4.55725 23.9035 2.90421 31.8981L19.7679 34.9979L21.6354 22.6174C21.6354 22.6174 20.2694 20.0202 17.8872 18.5374C15.957 17.3355 13.1359 17.1077 11.6413 17.6602Z" fill="#E18E4F"/>
<path d="M19.7679 34.9979C18.4712 38.4318 14.6306 40.3048 11.1892 39.1404C7.74785 37.976 6.02552 34.2456 7.32552 30.7962C8.62552 27.3467 12.4628 25.4893 15.9042 26.6537C19.3456 27.8181 21.0679 31.5485 19.7679 34.9979Z" fill="#CE8047"/>
<path d="M18.2799 34.7451C18.458 34.3548 17.9499 33.9771 17.8542 33.6057C17.8242 33.4993 17.7641 33.4027 17.6804 33.3263C17.5967 33.2498 17.4925 33.1964 17.3791 33.1717C17.6263 32.6687 17.7857 32.131 17.8509 31.5797C17.8839 30.8617 17.521 29.7941 16.9634 28.8389C16.4801 27.9635 15.7778 27.2133 14.9177 26.6537C13.8651 25.8889 13.9674 25.8015 13.9278 25.3863C13.8882 24.9711 13.1195 24.5747 12.8588 24.3499C12.5981 24.1251 11.0573 23.0763 10.3215 24.0377C9.58571 24.9992 5.7319 36.5244 5.7682 36.7804C5.82246 36.9935 5.95227 37.1825 6.136 37.316C6.31972 37.4495 6.54626 37.5194 6.77784 37.514C7.46084 37.5577 9.05449 38.0353 9.20627 37.464C10.0703 37.748 10.9861 37.8638 11.8986 37.8043C13.5484 37.7294 15.7953 36.7866 16.4255 35.5005C16.5347 35.5575 16.6582 35.5851 16.7828 35.5801C16.9073 35.5751 17.028 35.5379 17.1316 35.4724C17.5012 35.2258 18.0225 35.3038 18.2799 34.7451Z" fill="#E7BC94"/>
<path d="M17.4814 28.6984C18.722 29.5007 18.7319 30.2904 18.3029 31.5641C18.1311 32.1424 17.8932 32.7014 17.5935 33.2311C17.5766 33.7499 17.465 34.2621 17.2636 34.7451C17.1349 35.0793 16.9166 35.3762 16.6301 35.6066C16.5022 36.1253 16.286 36.6208 15.99 37.0738C15.8778 37.2736 15.7656 37.4703 15.66 37.6638C15.4126 38.1633 14.9606 38.7814 14.4986 38.8938C14.4234 38.9142 14.3444 38.9183 14.2673 38.9059C14.1901 38.8935 14.117 38.8648 14.0532 38.822L14.304 38.4911C14.304 38.4911 14.3369 38.5098 14.3897 38.4911C14.5976 38.438 14.977 38.0696 15.2707 37.4796C15.3697 37.2799 15.4852 37.0769 15.6007 36.874C15.8899 36.4399 16.0934 35.9597 16.2012 35.4568V35.3319L16.3232 35.2851C16.5709 35.1042 16.754 34.8558 16.8479 34.5734C17.0379 34.1309 17.1472 33.6612 17.1712 33.1842V33.1218L17.2108 33.0656C17.5077 32.5566 17.7392 32.0158 17.9004 31.4548C18.3359 30.1625 18.2006 29.6692 17.2405 29.0511L17.4814 28.6984Z" fill="#0B0D15"/>
<path d="M15.4621 29.1261C16.2572 29.9876 16.7159 31.383 15.5545 33.4464C14.393 35.5099 15.2575 38.4817 16.7126 38.5129C16.7126 38.5129 15.1024 38.7189 14.558 36.9146C14.558 36.9146 13.8189 39.1372 15.9471 39.7709C15.7442 39.8428 15.5275 39.873 15.3113 39.8595C15.0952 39.8461 14.8845 39.7893 14.6933 39.6929C14.0334 39.3807 13.7034 39.8677 12.7136 39.5337C12.1198 39.3275 11.6298 38.9174 11.341 38.3849C11.341 38.3849 11.4796 39.7023 12.7433 40.0581C12.7433 40.0581 12.0537 40.3703 10.8428 39.8302C9.63188 39.2902 8.1768 39.1248 6.55345 38.644C4.9301 38.1633 2.51158 37.2268 1.41945 35.591C0.327317 33.9553 -0.560246 32.1978 0.429601 29.5818C1.00666 28.0445 2.03716 26.6958 3.39914 25.6953C3.39914 25.6953 3.06919 24.6028 4.36589 23.8223C5.66259 23.0419 9.91233 22.8453 13.7859 24.4467C17.6595 26.0481 17.9829 28.5048 17.9136 30.0438C17.9169 30.0313 17.4022 28.2426 15.4621 29.1261Z" fill="#BC573F"/>
<path d="M0.409791 33.743C-0.679041 30.8929 3.26715 26.4133 5.29304 27.3748C7.31892 28.3363 6.43466 29.4039 6.43466 29.4039C6.43466 29.4039 9.52628 27.4872 13.1029 29.9502C16.6796 32.4132 13.9608 34.7294 14.5547 36.9021C15.0991 38.7064 16.7093 38.5004 16.7093 38.5004C15.2542 38.4692 14.3996 35.5036 15.5511 33.4371C16.7027 31.3705 16.2572 29.9751 15.4621 29.1136C8.68161 25.0554 3.40243 25.6797 3.40243 25.6797C2.03967 26.6808 1.00906 28.0307 0.432887 29.5693C-0.136207 30.907 -0.144467 32.3997 0.409791 33.743Z" fill="#A84734"/>
<path d="M4.36916 23.8005C3.9363 24.0425 3.61141 24.4253 3.4552 24.8775C4.28337 23.4353 7.9755 23.2136 9.2656 24.2531C10.5557 25.2927 11.1298 24.5372 13.9311 25.3707C16.7323 26.2042 17.8905 28.9637 17.9169 30.0251C17.9862 28.483 17.6628 26.0418 13.7892 24.4279C9.9156 22.814 5.65926 23.0138 4.36916 23.8005Z" fill="#A84734"/>
<path d="M42.31 48.2869C42.31 48.2869 39.5747 48.0621 38.245 47.7749C35.4932 47.1506 30.6562 46.2703 27.7856 46.726L18.6559 43.2173V43.1392C20.4377 43.2922 22.3316 42.6679 23.2752 40.6419C23.9351 39.234 23.9351 37.9042 23.8691 36.6368C23.8691 37.9385 22.7506 41.6752 20.3849 42.0123C18.0191 42.3495 15.3433 42.8895 15.3433 42.8895C15.3433 42.8895 27.6833 48.5647 28.0364 48.4554C28.3894 48.3462 36.9054 48.3899 42.8643 49.3264C42.7851 48.8332 42.6201 48.4367 42.31 48.2869Z" fill="#CE8047"/>
<path d="M22.5956 22.4801C21.3863 22.0661 20.1066 21.8671 18.821 21.8932C18.821 21.8932 25.6872 23.838 24.6808 30.9242C25.2978 28.7858 25.8489 26.2073 24.6808 24.2032C24.2421 23.3993 23.4966 22.7833 22.5956 22.4801Z" fill="#CE8047"/>
<path d="M17.1481 63.274C16.4205 63.4402 15.7358 63.7439 15.1354 64.1668C15.1354 64.1668 11.661 62.7464 8.17679 65.4841C4.69252 68.2218 7.93262 74.3902 7.93262 74.3902C7.93262 74.3902 10.1235 78.1362 12.4628 79.6971C14.8022 81.2579 18.2567 82.3848 18.4679 82.1319C18.6791 81.8791 28.5115 66.7827 28.5115 66.7827C28.5115 66.7827 22.0973 62.0752 17.1481 63.274Z" fill="#F8D777"/>
<path d="M51.024 49.9101C50.7534 49.9288 50.4861 49.9476 50.2222 49.9538C48.4932 49.9882 46.7775 49.7759 45.0552 49.9538C45.6425 50.8497 45.8405 51.6895 46.0648 52.114C46.4146 52.7852 46.2133 55.1389 46.0054 55.7632C47.2856 55.9599 49.3049 55.5572 50.5653 55.8787C50.6511 55.3762 50.7105 54.9797 50.7204 54.7643C50.7831 53.5812 51.0207 52.9912 50.8689 51.6426C50.7928 51.0612 50.8456 50.4712 51.024 49.9101V49.9101Z" fill="#E7BC94"/>
<path d="M50.826 64.7911C50.8491 64.1199 50.6808 57.4271 50.6181 55.1139C49.3144 55.0135 48.0061 54.977 46.6983 55.0047C46.6983 55.0359 46.6983 55.0796 46.6785 55.1014C46.5268 55.4823 44.7615 65.1532 44.1082 65.9461C43.4549 66.739 36.4336 73.2539 36.4336 73.2539C36.4336 73.2539 34.7344 70.5724 32.6788 69.2832C31.3326 68.4372 30.3032 67.7848 28.505 66.7858C27.8451 66.4112 27.0367 65.9867 26.0864 65.4872L25.4826 66.586C24.8887 67.6505 24.2981 68.715 23.7009 69.7764C22.5065 71.8991 21.2857 74.0125 19.9857 76.0822C18.6857 78.1518 17.3197 80.1029 15.858 82.0321L15.8151 82.0851C18.7847 83.7021 24.5786 86.7895 25.7136 87.0142C27.238 87.3264 34.1471 87.7353 36.4006 85.6657C38.6542 83.596 41.7689 79.9967 42.9006 78.6919C44.0324 77.387 48.1798 72.8981 49.6877 70.7223C51.1955 68.5465 50.826 65.6246 50.826 64.7911Z" fill="#F8D777"/>
<path d="M17.1382 73.9969C18.9397 72.9792 20.5961 72.7701 21.8565 73.0854C22.4667 73.2142 23.0599 73.4068 23.625 73.6598C23.625 73.6598 24.7468 73.0354 25.1296 73.1541C25.5123 73.2727 25.5519 74.3028 25.3671 74.6837C25.3671 74.6837 28.4291 77.0124 27.3072 79.7501L25.3671 83.7927L14.6471 79.1851L17.1382 73.9969Z" fill="#E7BC94"/>
<path d="M15.1354 75.4017C14.9308 75.2581 14.2247 75.5078 13.4659 76.2851C12.707 77.0624 12.3473 77.9209 12.839 78.4078C13.3306 78.8948 15.1354 75.4017 15.1354 75.4017Z" fill="#E7BC94"/>
<path d="M27.261 83.0903C27.261 83.0903 27.8318 83.518 27.1356 84.9633C26.4395 86.4086 25.4661 86.315 25.1724 85.8998C24.8788 85.4846 27.261 83.0903 27.261 83.0903Z" fill="#E7BC94"/>
<path d="M17.9532 73.588C17.9532 73.588 16.9831 74.6681 16.9369 75.7076C16.9369 75.7076 19.4479 73.7503 22.6979 75.8824C22.6979 75.8824 20.3882 75.4422 19.8669 75.9105C19.8669 75.9105 25.2385 76.4693 25.6476 80.3745C25.3879 79.956 25.02 79.6069 24.5786 79.3599C24.5786 79.3599 25.3869 80.721 25.4034 81.6918C25.4034 81.6918 26.6044 80.7397 27.5547 78.5483C27.5547 78.5483 28.505 80.4962 27.261 83.0903C26.0171 85.6844 23.4402 88.6188 21.0877 89.3742C18.7352 90.1297 15.0166 88.0506 13.743 86.9549C12.4694 85.8592 10.3974 82.3879 12.6113 78.7855C14.8253 75.1831 16.3991 74.0968 17.9532 73.588Z" fill="#7C472F"/>
<path d="M15.6798 88.2098C14.99 87.8501 14.341 87.4244 13.743 86.9393C12.4727 85.8374 10.3973 82.3723 12.6113 78.7699C14.8253 75.1675 16.3991 74.0874 17.9532 73.588C17.9532 73.588 16.9831 74.6681 16.9369 75.7076C16.9369 75.7076 19.4478 73.7503 22.6978 75.8824C22.6978 75.8824 20.3882 75.4422 19.8669 75.9105C20.2581 75.9576 20.6452 76.0316 21.025 76.1321C19.8669 75.9105 13.71 77.4932 13.8783 82.8094C14.0399 82.2356 14.3448 81.707 14.7674 81.268C15.19 80.8291 15.718 80.4927 16.3067 80.2871C16.3067 80.2871 12.7862 85.0476 15.6798 88.2098Z" fill="#673624"/>
<path d="M26.324 82.5065C23.9417 86.3587 21.3087 87.3857 21.3087 87.3857C26.0534 83.1715 24.5785 79.363 24.5785 79.363C24.5785 79.363 25.3836 80.7241 25.4034 81.6949C25.4034 81.6949 26.6044 80.7428 27.5514 78.5514C27.5514 78.5514 28.5049 80.4993 27.261 83.0934C26.661 84.3115 25.8969 85.451 24.9877 86.4835C26.4889 83.9456 26.324 82.5065 26.324 82.5065Z" fill="#673624"/>
<path d="M44.1214 65.9336L46.1671 53.6592C46.1671 53.6592 48.8067 52.7852 51.0273 53.6124C51.0273 53.6124 51.4001 64.7099 50.6973 66.5892C49.9945 68.4684 47.8466 68.431 47.8466 68.431L44.1214 65.9336Z" fill="#F8D777"/>
<path d="M45.5468 67.176C45.923 66.5236 46.8996 55.9536 47.2724 53.4032C46.8998 53.4654 46.5317 53.5498 46.1704 53.6561V53.6561L44.1247 65.9305C43.4648 66.7296 36.4501 73.2383 36.4501 73.2383C36.4501 73.2383 34.7509 70.5568 32.6953 69.2675C31.3458 68.4216 30.3197 67.7691 28.5181 66.7702C28.5181 66.7702 22.1006 62.0659 17.1514 63.2646C16.5127 63.4167 15.9058 63.67 15.3565 64.0138C15.0265 64.2947 14.4524 65.2625 14.2545 65.534C16.5251 64.9566 18.9021 64.858 21.2174 65.2453C23.5328 65.6326 25.73 66.4963 27.6537 67.7754C34.19 72.1457 35.6384 76.1852 35.6384 76.1852C35.6384 76.1852 45.1113 67.9471 45.5468 67.176Z" fill="#F6C951"/>
<path d="M14.2512 65.5403L15.9735 63.6923C15.6799 63.8267 15.3994 63.9855 15.1354 64.1668C15.1354 64.1668 11.6611 62.7464 8.17682 65.4841C6.93951 66.4581 6.55677 67.8628 6.56997 69.2676C7.72149 64.1543 13.3867 65.0471 14.2512 65.5403Z" fill="#F6C951"/>
<path d="M51.0503 52.3263C51.0503 52.3263 49.846 51.3398 48.4305 51.3898C48.4305 51.3898 47.1668 48.2057 51.1196 47.5814C51.1196 47.5814 52.8057 48.5179 53.3105 48.8456C53.8153 49.1734 51.0503 52.3263 51.0503 52.3263Z" fill="#E7BC94"/>
<path d="M56.9465 76.9375C55.1747 79.7221 55.5805 82.1726 55.5805 82.1726C55.5805 82.1726 52.2547 83.2527 53.4788 86.5117C54.7029 89.7707 57.1412 91.5781 59.5531 91.6499C61.965 91.7217 66.0201 90.3201 70.4216 87.8384C70.4216 87.8384 66.2907 77.1717 65.776 77.206C65.2612 77.2403 56.9465 76.9375 56.9465 76.9375Z" fill="#758FE3"/>
<path d="M50.9085 52.7696C50.3542 52.4574 50.8359 48.8207 53.2016 48.2962C53.2016 48.2962 66.7295 54.6832 67.7689 55.8725C68.0988 56.2346 73.1371 61.6414 76.7468 67.9034C79.9869 73.5224 79.6305 78.8854 78.7892 80.7022C77.0371 84.492 72.1506 86.7864 72.1506 86.7864L66.8252 76.1727C66.8252 76.1727 55.8148 79.3849 56.0821 78.6981C58.1442 73.3663 64.3671 71.3934 67.2277 70.4226C68.8775 69.8576 68.9369 69.6859 68.31 68.7431C66.4656 65.9649 63.3409 60.7049 63.0968 60.3552C62.78 59.9088 50.9085 52.7696 50.9085 52.7696Z" fill="#758FE3"/>
<path d="M54.6072 87.7666C52.8915 84.1673 57.1214 83.0279 57.1214 83.0279C56.9498 80.5306 58.6392 74.9553 62.4534 73.3164C66.2676 71.6775 71.4016 70.9346 71.2168 70.1947C71.0321 69.4549 65.8486 60.992 64.3869 58.8631C63.0176 56.859 54.5808 52.7914 50.8128 51.1588C50.6412 51.9455 50.6808 52.626 50.9085 52.7571C50.9085 52.7571 62.7866 59.8963 63.0935 60.3427C63.3376 60.6955 66.4623 65.9617 68.31 68.7307C68.9369 69.6672 68.8841 69.8451 67.2245 70.4101C64.7069 71.2654 59.5762 72.9074 56.996 76.9282H56.9564C55.1879 79.7096 55.5937 82.1601 55.5937 82.1601C55.5937 82.1601 52.2679 83.2402 53.492 86.4992C54.7161 89.7582 57.1544 91.5625 59.5663 91.6374C59.5531 91.653 56.3229 91.3659 54.6072 87.7666Z" fill="#5874CB"/>
<path d="M60.3945 73.2227C60.0645 73.5037 60.3285 74.0625 60.2559 74.4464C60.2359 74.5563 60.2474 74.6693 60.2891 74.7736C60.3309 74.878 60.4015 74.9698 60.4935 75.0395C60.0316 75.3987 59.6348 75.8268 59.3188 76.3069C58.9526 76.95 58.7876 78.0832 58.8569 79.1914C58.8902 80.1973 59.1836 81.1802 59.7115 82.0539C60.3219 83.1933 60.1866 83.2308 60.0414 83.6148C59.8962 83.9987 60.4044 84.698 60.5429 85.0133C60.6815 85.3285 61.6021 86.9331 62.7206 86.3649C63.8391 85.7968 72.7511 76.8158 72.8336 76.5723C72.8811 76.3545 72.8493 76.1279 72.7432 75.9295C72.6371 75.7311 72.4631 75.5725 72.2495 75.4797C71.6424 75.1675 70.4018 74.0562 69.9993 74.512C69.3395 73.8918 68.5539 73.4043 67.6896 73.0791C66.1587 72.4548 63.6445 72.3892 62.4632 73.3039C62.3905 73.2056 62.2902 73.1284 62.1736 73.081C62.0571 73.0335 61.9288 73.0178 61.8034 73.0354C61.3612 73.1103 60.9092 72.8294 60.3945 73.2227Z" fill="#E7BC94"/>
<path d="M69.3922 87.8352C67.4884 88.8716 64.829 88.0694 62.7173 86.3805C61.1608 85.0763 59.9676 83.4295 59.243 81.5857C58.9988 80.877 59.9029 79.9062 60.1272 79.157C60.3516 78.4078 60.7145 76.1665 62.8823 74.871C65.0501 73.5755 67.3234 74.0781 68.112 73.8908C68.9006 73.7035 69.3757 73.8595 70.481 74.6681C71.5863 75.4766 73.1866 76.7471 73.9851 78.2736C74.7835 79.8001 75.2884 81.5669 74.6648 82.7251C74.6648 82.7251 76.1561 82.4878 76.7962 84.058C77.4363 85.6282 76.3442 87.367 74.0841 88.7998C72.2396 89.9705 69.7254 89.8394 69.3922 87.8352Z" fill="#DF803F"/>
<path d="M60.2988 79.3318C60.2901 79.1686 60.2901 79.005 60.2988 78.8417C60.3178 78.4112 60.3819 77.9835 60.4902 77.565C60.7998 76.2784 61.6118 75.15 62.7635 74.4058C63.3705 74.022 64.049 73.7508 64.763 73.6067C65.446 73.4693 66.0828 73.4444 66.6272 73.3694C67.2391 73.3235 67.8252 73.117 68.3198 72.7732C68.1891 72.8727 68.0488 72.9605 67.9008 73.0354C67.5079 73.2345 67.0814 73.3675 66.6404 73.4288C66.0993 73.5255 65.4559 73.5755 64.796 73.7409C64.1093 73.9068 63.4613 74.1927 62.8856 74.5838C61.8216 75.3274 61.0953 76.4251 60.8531 77.6555C60.724 78.2043 60.6851 78.7687 60.7376 79.3287L60.2988 79.3318Z" fill="#DF803F"/>
<path d="M60.3945 79.9811C60.4275 79.8236 60.4473 79.6639 60.4539 79.5035C60.4803 79.2132 60.4539 78.7637 60.5067 78.2143C60.5462 77.5734 60.7748 76.9559 61.1666 76.4318C61.6314 75.8637 62.2156 75.3928 62.8823 75.0489C63.2117 74.8634 63.5599 74.7097 63.9217 74.59C64.2846 74.4932 64.6409 74.4277 64.9874 74.3559C65.6169 74.2342 66.2392 74.081 66.8516 73.897C67.4621 73.7367 68.0262 73.4475 68.5013 73.051C68.0422 73.4629 67.4907 73.7713 66.8879 73.9532C66.2811 74.1619 65.6619 74.3371 65.0336 74.4776C64.7036 74.5619 64.3308 74.64 63.9843 74.7461C63.6366 74.8699 63.3046 75.0301 62.9945 75.2237C62.3723 75.5709 61.833 76.0365 61.4107 76.591C61.0772 77.0834 60.8966 77.6545 60.8894 78.2392C60.8696 78.7574 60.8894 79.2007 60.8894 79.5316C60.8868 79.6988 60.8724 79.8657 60.8465 80.0311L60.3945 79.9811Z" fill="#DF803F"/>
<path d="M70.6229 86.3837C71.1343 84.0612 74.6648 82.7251 74.6648 82.7251C71.8536 82.6502 71.197 85.8124 67.4983 85.9248C63.7996 86.0372 60.3714 80.9301 60.4605 78.1862H60.3945C60.2691 78.592 60.1833 78.9354 60.114 79.1539C59.8765 79.9031 58.9856 80.8739 59.2298 81.5826C59.9527 83.4281 61.1461 85.0763 62.7041 86.3806C64.8158 88.0694 67.4752 88.8779 69.3757 87.8353C69.7056 89.8394 72.2265 89.9705 74.0709 88.7999C75.6381 87.804 76.6247 86.6646 76.882 85.5346C74.9914 87.9913 70.1181 88.6968 70.6229 86.3837Z" fill="#D47637"/>
<path d="M44.0423 23.6007C43.0977 24.477 42.3802 25.5481 41.9458 26.7303C41.5113 27.9124 41.3718 29.1736 41.5379 30.4153C41.5379 30.4153 42.8577 34.4735 43.3395 37.1706C43.8212 39.8677 43.9664 40.9166 44.9595 42.2995C45.9527 43.6824 45.8504 44.0258 47.2692 44.7968C48.6879 45.5679 49.6712 45.7521 50.1199 46.2765C50.5686 46.8009 50.7798 47.2286 51.189 47.65C51.5981 48.0715 51.5585 48.8488 51.7796 49.1921C52.0006 49.5355 52.0237 49.7353 51.7796 49.9257C51.5354 50.1161 51.0339 49.9257 51.0339 49.9257C50.9225 50.0884 50.7506 50.2054 50.5522 50.2535C50.3339 50.3066 50.1038 50.2957 49.8923 50.2223C49.8923 50.2223 49.7438 50.9652 48.711 50.9215C48.711 50.9215 48.1765 51.7738 47.2923 51.3055C47.2923 51.3055 47.3747 51.4304 46.7742 51.6489C46.1737 51.8674 45.3918 50.9278 45.0486 50.5376C44.7055 50.1474 44.6494 50.2878 44.105 49.5043C43.5605 48.7208 42.9666 48.137 42.7357 47.5657C42.5047 46.9945 42.5773 46.2859 42.1813 45.7833C41.7854 45.2807 37.5291 37.6232 36.2225 35.0572C34.9159 32.4912 34.2428 30.9772 34.289 30.0626C34.3352 29.1479 34.8763 28.4393 36.2687 26.8972C37.661 25.3551 39.3834 23.0076 39.3834 23.0076L44.0423 23.6007Z" fill="#E7BC94"/>
<path d="M51.1559 49.3482C51.1164 49.2046 50.5851 48.3274 50.44 48.0465C50.1733 47.6158 49.8507 47.2184 49.4798 46.8634C49.1726 46.6008 48.8797 46.3237 48.6021 46.033C48.7965 46.1974 49.0064 46.3448 49.229 46.4732C49.6248 46.7129 49.9722 47.0173 50.2552 47.3722C50.7444 48.0076 51.1334 48.7069 51.41 49.4481C51.5453 49.8914 51.773 49.9257 51.773 49.9257C51.5222 50.1193 51.0306 49.9257 51.0306 49.9257C51.1499 49.7559 51.1949 49.5488 51.1559 49.3482V49.3482Z" fill="#DEAC80"/>
<path d="M50.0935 50.2754C50.0251 50.2639 49.9578 50.2472 49.8922 50.2254C49.6418 49.8968 49.4491 49.532 49.3214 49.1453C49.262 49.0111 49.3643 48.9799 49.4039 48.9518C49.4435 48.9237 49.8922 50.2254 50.0935 50.2754Z" fill="#DEAC80"/>
<path d="M47.9422 49.7946C48.0379 49.7478 48.4834 50.6687 48.9024 50.9153C48.8387 50.9185 48.7748 50.9185 48.711 50.9153C48.4825 50.737 48.2844 50.5264 48.1237 50.291C47.9093 49.9788 47.8565 49.8446 47.9422 49.7946Z" fill="#DEAC80"/>
<path d="M46.8666 50.728C46.9859 50.937 47.131 51.132 47.2988 51.3086C47.2988 51.3086 47.3186 51.343 47.2559 51.4054C46.926 51.1806 46.4608 50.5282 46.5466 50.4689C46.6323 50.4096 46.7346 50.4689 46.8666 50.728Z" fill="#DEAC80"/>
<path opacity="0.4" d="M49.4402 47.0163C49.5953 47.1943 49.6184 47.3285 49.2851 47.6407C48.9519 47.9528 48.8793 47.8373 48.6252 48.1058C48.3712 48.3743 48.1303 48.7301 47.7542 48.7457C47.378 48.7613 47.2164 48.983 46.9293 49.2577C46.6422 49.5324 46.3453 49.4075 46.1671 49.5855C45.9042 49.8439 45.581 50.0406 45.2235 50.1599C44.8935 50.2285 44.5405 49.2889 44.3788 48.6552C44.2171 48.0215 46.1143 46.083 46.9293 45.9924C47.7443 45.9019 48.9684 46.4669 49.4402 47.0163Z" fill="url(#paint0_linear)"/>
<path d="M34.6585 31.3955C34.9291 32.0199 41.7326 31.4267 41.9834 30.459C42.0329 30.2717 41.528 29.8347 41.792 29.2104C42.9072 26.6287 45.9428 21.4998 45.9428 21.4998C45.9428 21.4998 49.1004 23.9972 51.5321 24.3655C53.1291 24.6153 54.3499 24.8119 56.4219 25.0273C57.5108 25.1366 58.8372 25.2521 60.5793 25.3863C65.6308 25.764 69.2141 22.5175 69.2141 22.5175C70.602 22.6332 71.9973 22.3961 73.2559 21.8307C74.4702 21.2532 75.2785 20.7288 75.7273 18.1721C76.4696 13.9641 75.7503 12.3409 72.9095 10.0714C70.0059 7.7489 67.0826 6.54394 63.5653 5.70109C63.5653 5.70109 51.7796 5.14856 50.2585 5.46072C48.7374 5.77289 42.2473 8.05795 41.0859 10.8206C39.9245 13.5833 38.4463 17.064 37.9844 18.706C37.5225 20.3479 35.2986 25.6204 34.4638 28.0959C33.7479 30.2374 34.3088 30.6245 34.6585 31.3955Z" fill="#9F8ED7"/>
<path d="M64.2978 12.7904C63.9382 13.474 62.4171 16.399 58.9856 16.3491C58.9664 16.4987 58.9127 16.6425 58.8283 16.7703C58.744 16.8981 58.631 17.0069 58.4973 17.0889C58.0618 17.3074 57.4778 18.2127 56.8476 18.1721C56.2174 18.1316 55.7884 16.8517 55.5113 16.6581C55.4238 16.5833 55.3541 16.4917 55.3069 16.3895C55.2597 16.2872 55.236 16.1766 55.2374 16.065C55.2374 16.065 50.9151 15.1847 51.1362 10.7238L63.6379 11.6447L64.2978 12.7904Z" fill="#E7BC94"/>
<path d="M50.397 9.60004C49.9615 9.7374 50.2981 9.03502 50.0836 8.15159C49.8691 7.26816 50.0836 6.05071 50.9778 6.01637C51.8719 5.98203 50.397 9.60004 50.397 9.60004Z" fill="#E7BC94"/>
<path d="M65.3437 11.6666C65.4493 11.9163 65.974 11.96 66.1521 11.0735C66.3303 10.1869 67.6468 8.33577 66.3369 7.97053C65.027 7.6053 65.3437 11.6666 65.3437 11.6666Z" fill="#E7BC94"/>
<path d="M62.7046 12.5594C64.0244 12.6624 64.4897 13.5271 65.1529 12.4907C65.8161 11.4543 67.3272 7.30562 65.3871 4.02787C63.447 0.750122 59.1577 -0.311243 56.6666 0.0758431C54.1755 0.46293 53.1196 1.40255 52.2914 2.67931C51.4633 3.95607 50.5658 7.09023 50.4239 8.92264C50.2821 10.7551 50.7539 12.3877 51.3379 12.5313C51.9219 12.6749 52.8656 11.6978 53.6475 11.8102C54.4295 11.9226 54.9376 13.8642 57.3859 14.1389C60.682 14.5073 61.9787 12.5032 62.7046 12.5594Z" fill="#C7A153"/>
<path d="M56.2206 1.25271C59.0747 1.15594 63.694 3.23497 64.9676 6.28796C66.2412 9.34095 64.6871 12.9465 63.6478 12.7685C64.3077 12.9995 64.6838 13.2305 65.159 12.4876C65.8189 11.4543 67.3333 7.3025 65.3932 4.02787C63.4531 0.753245 59.1605 -0.311242 56.6727 0.0758445C54.1849 0.462931 53.1257 1.40255 52.2975 2.67931C52.1419 2.9353 52.0031 3.2001 51.8818 3.47222C52.2217 2.85725 53.3534 1.34324 56.2206 1.25271Z" fill="#B28D47"/>
<path d="M69.3031 19.0556C69.3031 19.0556 63.8458 24.3811 57.3953 23.7162C50.9448 23.0513 45.6656 17.4729 45.6656 17.4729C45.6656 17.4729 39.5153 28.0054 39.9146 30.0938L41.7458 29.7317C41.7086 29.5588 41.727 29.3794 41.7986 29.2166C42.9072 26.6287 45.9427 21.4998 45.9427 21.4998C45.9427 21.4998 49.1036 23.9972 51.5519 24.3655C53.1455 24.6153 54.3663 24.8119 56.4384 25.0242C57.5305 25.1366 58.8569 25.2521 60.5991 25.3863C65.6506 25.764 69.2338 22.5175 69.2338 22.5175L69.3031 19.0556Z" fill="#867AB9"/>
<path d="M41.6369 29.4382C42.1417 29.3352 42.2374 31.3393 42.0691 31.7014C41.9009 32.0635 35.4933 33.6587 35.2062 33.3216C34.9192 32.9844 33.7907 30.562 34.0976 30.1999C34.4044 29.8378 37.4763 29.5506 38.3869 29.4975C39.2976 29.4445 41.6369 29.4382 41.6369 29.4382Z" fill="#9F8ED7"/>
<path opacity="0.3" d="M41.6369 29.4382C42.1417 29.3352 42.2374 31.3393 42.0691 31.7014C41.9009 32.0635 35.4933 33.6587 35.2062 33.3216C34.9192 32.9844 33.7907 30.562 34.0976 30.1999C34.4044 29.8378 37.4763 29.5506 38.3869 29.4975C39.2976 29.4445 41.6369 29.4382 41.6369 29.4382Z" fill="#867AB9"/>
<path d="M42.0692 31.6952C42.2374 31.3362 42.1417 29.3321 41.6369 29.432C41.6369 29.432 40.6471 29.432 39.7298 29.4538C39.6671 30.2748 40.6999 31.7701 40.9704 32.1478C41.5874 31.9543 42.0296 31.7888 42.0692 31.6952Z" fill="#867AB9"/>
<path d="M75.7272 18.1753C75.8625 17.4321 75.9452 16.6812 75.9747 15.9277C75.7866 17.1139 75.1828 20.0077 73.7508 20.376C71.946 20.8443 70.2666 20.4072 69.2866 19.0587C69.2866 19.0587 68.9237 21.453 68.7158 22.9171C69.0458 22.6798 69.214 22.5206 69.214 22.5206C70.603 22.636 71.9993 22.3989 73.2592 21.8338C74.4701 21.2532 75.2785 20.7319 75.7272 18.1753Z" fill="#867AB9"/>
<defs>
<linearGradient id="paint0_linear" x1="134.17" y1="3.43043" x2="136.356" y2="1.85476" gradientUnits="userSpaceOnUse">
<stop stop-color="#D2A67F"/>
<stop offset="1" stop-color="#E7BC94"/>
</linearGradient>
</defs>
</svg>
