<svg width="100" height="147" viewBox="0 0 100 147" fill="none" xmlns="http://www.w3.org/2000/svg">
<g clip-path="url(#clip0)">
<path d="M64.3671 91.9705H32.3123V100.696H64.3671V91.9705Z" fill="#798078"/>
<path d="M50.8439 109.325H45.73V123.257H50.8439V109.325Z" fill="#B1B1B1"/>
<path d="M69.6666 137.072H68.1772V141.182H69.6666V137.072Z" fill="#141423"/>
<path d="M64.8566 143.093C64.8886 143.647 65.0823 144.18 65.414 144.626C65.7456 145.071 66.2004 145.41 66.7224 145.6C67.2443 145.79 67.8102 145.824 68.3507 145.696C68.8912 145.567 69.3827 145.284 69.7637 144.88C70.1452 144.476 70.3996 143.97 70.4962 143.423C70.5929 142.876 70.527 142.313 70.3072 141.802C70.0874 141.292 69.7228 140.858 69.2591 140.553C68.795 140.247 68.2515 140.084 67.6962 140.084C67.3123 140.095 66.9342 140.182 66.5836 140.339C66.2329 140.496 65.9165 140.721 65.6528 141C65.3891 141.279 65.1831 141.608 65.0464 141.967C64.9097 142.326 64.8452 142.709 64.8566 143.093Z" fill="#1F1F1E"/>
<path d="M49.3038 137.072H47.8143V141.182H49.3038V137.072Z" fill="#141423"/>
<path d="M44.4937 143.093C44.5257 143.647 44.7194 144.18 45.051 144.626C45.3827 145.071 45.8375 145.41 46.3595 145.6C46.8814 145.79 47.4472 145.824 47.9878 145.696C48.5283 145.567 49.0194 145.284 49.4008 144.88C49.7823 144.476 50.0367 143.97 50.1333 143.423C50.23 142.876 50.1641 142.313 49.9443 141.802C49.7245 141.292 49.3599 140.858 48.8962 140.553C48.4321 140.247 47.8886 140.084 47.3333 140.084C46.9494 140.095 46.5713 140.182 46.2207 140.339C45.87 140.496 45.5536 140.721 45.2899 141C45.0261 141.279 44.8202 141.608 44.6835 141.967C44.5468 142.326 44.4823 142.709 44.4937 143.093Z" fill="#1F1F1E"/>
<path d="M28.5697 137.072H27.0802V141.182H28.5697V137.072Z" fill="#141423"/>
<path d="M31.8903 143.093C31.8581 143.647 31.6643 144.18 31.3328 144.626C31.0012 145.071 30.5464 145.41 30.0245 145.6C29.5026 145.79 28.9365 145.824 28.396 145.696C27.8555 145.567 27.3643 145.284 26.9831 144.88C26.6018 144.476 26.3472 143.97 26.2506 143.423C26.154 142.876 26.2197 142.313 26.4396 141.802C26.6595 141.292 27.024 140.858 27.4879 140.553C27.9519 140.247 28.4952 140.084 29.0506 140.084C29.8258 140.108 30.5602 140.437 31.0926 141.001C31.625 141.565 31.9118 142.318 31.8903 143.093Z" fill="#1F1F1E"/>
<path d="M52.0802 120.852H44.4979V134.785H52.0802V120.852Z" fill="#3C3C3B"/>
<path d="M70.7046 138.557H25.903V135.781L48.3544 133.008L70.7173 135.781L70.7046 138.557Z" fill="#3C3C3B"/>
<path d="M27.0844 102.802V107.443C27.0844 108.595 28.1941 109.553 29.557 109.553H67.9874C69.384 109.553 70.519 108.591 70.519 107.397V102.844C70.519 101.662 69.384 100.7 67.9874 100.7H29.5612C28.1941 100.7 27.0844 101.637 27.0844 102.802Z" fill="#1D1D1B"/>
<path d="M31.1857 129.878C31.1857 131.734 31.1857 133.489 31.2574 135.114C31.2869 135.924 31.3291 136.7 31.3882 137.435C31.4135 137.819 31.443 138.194 31.4726 138.553C31.5443 139.418 31.6456 140.241 31.7595 140.987C31.8312 141.489 31.9156 141.992 32.0042 142.439C32.1412 143.106 32.3188 143.764 32.5359 144.409V144.886H43.3122L43.557 138.557L43.7553 133.578L44.1435 123.941L44.3333 119.034L44.6625 110.688L44.7047 109.54L45.0633 100.705L45.3249 94.0295H32.5528C32.4937 96.246 32.4121 98.4713 32.308 100.705C32.308 100.764 32.308 100.835 32.308 100.89C32.308 101.397 32.2827 101.882 32.2532 102.388C32.1519 104.793 32.0408 107.184 31.9198 109.561C31.9198 109.949 31.8776 110.338 31.865 110.709C31.865 110.928 31.865 111.131 31.8355 111.342C31.7511 113.084 31.6751 114.793 31.5907 116.494C31.5612 117.359 31.519 118.207 31.4768 119.055C31.4768 119.616 31.4473 120.16 31.4177 120.709C31.4177 120.983 31.4177 121.253 31.3882 121.553C31.3882 121.582 31.3882 121.608 31.3882 121.637C31.3882 122.008 31.3882 122.401 31.3587 122.759C31.3291 123.118 31.3291 123.565 31.3165 123.966C31.3038 124.367 31.3165 124.671 31.2869 125.03C31.2574 125.388 31.2869 125.873 31.2574 126.295V126.553C31.2096 127.678 31.1857 128.786 31.1857 129.878Z" fill="#798078"/>
<path d="M37.789 140.506C34.8143 140.506 32.4177 140.835 32.5401 144.895H43.308C43.1772 140.637 40.7637 140.506 37.789 140.506Z" fill="#141423"/>
<path d="M43.346 146.101H32.5781L32.5275 144.413H43.2912L43.346 146.101Z" fill="#17191E"/>
<path d="M51.4261 94.0254L51.7426 100.7L52.1645 109.536L52.2236 110.688L52.6456 119.03L52.8903 123.937L53.1645 129.907L53.3375 133.62L53.5823 138.557L53.8818 144.886H64.6413V144.397C64.7409 143.979 64.8181 143.557 64.8734 143.131C64.9325 142.831 64.9747 142.532 65.0042 142.228C65.1477 141.148 65.2363 139.924 65.308 138.587C65.3333 138.097 65.3502 137.582 65.3797 137.063C65.3797 136.443 65.4051 135.798 65.4219 135.148C65.4219 134.903 65.4219 134.633 65.4219 134.371C65.4219 133.595 65.4219 132.776 65.4219 131.924C65.4219 131.072 65.4219 130.139 65.4219 129.207V128.92C65.4219 128.574 65.4219 128.215 65.3924 127.857C65.3924 127.148 65.3924 126.418 65.3671 125.667C65.3671 125.106 65.3249 124.544 65.3249 123.979C65.2966 122.958 65.2688 121.921 65.2405 120.869C65.211 120.279 65.1983 119.675 65.1688 119.072V118.713C65.1392 117.966 65.1097 117.228 65.0844 116.468C65.0844 116.021 65.0548 115.591 65.0253 115.144C64.9958 114.696 64.9958 114.266 64.9831 113.819C64.9409 112.785 64.8987 111.764 64.8565 110.726C64.8565 110.355 64.827 109.962 64.8143 109.578C64.7384 107.852 64.654 106.097 64.5949 104.325C64.5991 104.316 64.6013 104.306 64.6013 104.295C64.6013 104.285 64.5991 104.275 64.5949 104.266C64.5527 103.101 64.5105 101.92 64.4641 100.743C64.3797 98.5106 64.2911 96.2828 64.2321 94.0676L51.4261 94.0254Z" fill="#798078"/>
<path d="M59.346 140.506C62.2996 140.506 64.7215 140.835 64.6329 144.895H53.865C53.962 140.637 56.3755 140.506 59.346 140.506Z" fill="#141423"/>
<path d="M53.8397 146.101H64.6034L64.6414 144.413H53.8776L53.8397 146.101Z" fill="#17191E"/>
<path opacity="0.15" d="M31.2573 135.118C31.2911 135.923 31.3333 136.695 31.3839 137.435C31.4092 137.819 31.4388 138.194 31.4683 138.557C31.5485 139.422 31.6455 140.245 31.7594 140.983C31.8143 140.181 31.8692 139.367 31.9029 138.557C31.9648 137.378 32.0042 136.2 32.0211 135.021C32.0211 134.776 32.0211 134.519 32.0211 134.274L32.962 134.907L33.9578 135.578C33.7411 135.354 33.5408 135.114 33.3586 134.861C32.5786 133.831 32.0785 132.618 31.9071 131.338C32.9217 132.144 34.1062 132.71 35.3713 132.992C34.0633 131.873 33.194 131.338 32.3038 129.882C32.0585 127.911 32.0005 125.922 32.1308 123.941C32.173 122.848 32.2151 121.793 32.173 120.713C32.1476 120.152 32.1308 119.595 32.1054 119.025C32.0042 116.451 31.9029 113.881 31.8016 111.312C31.7173 113.054 31.6371 114.769 31.5611 116.46C31.5232 117.325 31.4894 118.177 31.4514 119.021C31.4261 119.582 31.4092 120.131 31.3839 120.675C31.3839 120.954 31.3839 121.232 31.3544 121.519C31.3544 121.549 31.3544 121.582 31.3544 121.608C31.3544 121.983 31.3291 122.367 31.3164 122.734C31.3038 123.101 31.2953 123.54 31.2827 123.937C31.27 124.333 31.2573 124.646 31.2489 125C31.2489 125.422 31.2489 125.844 31.2194 126.266C31.2194 126.359 31.2194 126.443 31.2194 126.527C31.194 127.684 31.1772 128.802 31.1772 129.903C31.1687 131.73 31.1941 133.485 31.2573 135.118Z" fill="black"/>
<path opacity="0.15" d="M59.2363 125.025C60.2388 124.961 61.1945 124.58 61.9662 123.937C62.8839 123.131 63.6253 122.144 64.1434 121.038C64.2363 121.987 64.3249 122.958 64.4093 123.937C64.7257 127.565 64.9915 131.367 65.2278 135.101C65.27 135.743 65.3122 136.367 65.3502 137.025C65.3713 136.413 65.3839 135.781 65.3966 135.118C65.3966 134.865 65.3966 134.603 65.3966 134.346C65.3966 133.557 65.3966 132.743 65.3966 131.903C65.3966 131.063 65.3966 130.11 65.3966 129.177V128.894C65.3966 128.544 65.3966 128.19 65.3966 127.827C65.3966 127.114 65.3713 126.384 65.3544 125.637C65.3544 125.084 65.3291 124.515 65.3122 123.949C65.2869 122.931 65.2586 121.897 65.2278 120.848C65.2025 120.253 65.1856 119.65 65.1645 119.042C65.1645 118.928 65.1645 118.806 65.1645 118.688C65.1308 117.949 65.1055 117.198 65.0801 116.443C65.0801 116 65.0464 115.561 65.0295 115.118C65.0126 114.675 65 114.232 64.9831 113.785C64.654 115.576 64.17 117.335 63.5358 119.042C62.9097 120.853 61.9304 122.521 60.654 123.949C60.2346 124.373 59.7574 124.735 59.2363 125.025Z" fill="black"/>
<path opacity="0.15" d="M32.3713 143.966H32.3418H32.3713L36.2996 144.426H43.1181L43.3629 138.097L43.5654 133.118L43.9536 123.481L44.1392 118.574L44.4726 110.228L44.5148 109.076H51.9662L52.0253 110.228L52.4473 118.574L52.692 123.481L52.9662 129.451L53.1392 133.165L53.384 138.101L53.6835 144.43H60.519L64.4473 143.97V143.945L63.384 143.253C62.024 142.366 60.792 141.297 59.7215 140.076C59.1861 139.465 58.6954 138.816 58.2532 138.135C56.5506 135.516 55.5456 132.505 55.3333 129.388L54.8734 123.519L54.4726 118.612L54.0506 109.118L53.8143 103.688C53.9928 102.378 54.6245 101.172 55.5992 100.278C57.6118 98.4093 60.8228 98.2067 62.7721 100.278C63.6473 101.259 64.2025 102.484 64.3629 103.789C64.3692 103.808 64.3692 103.829 64.3629 103.848C64.3207 102.667 64.2785 101.473 64.2489 100.266C64.135 95.8776 64.1181 91.3291 63.9873 87H32.3418C32.211 91.5612 32.2236 95.8608 32.097 100.266C32.097 100.325 32.097 100.397 32.097 100.451C32.097 100.958 32.0675 101.443 32.0422 101.949C32.0422 102.338 32.0127 102.743 32 103.131C32.0855 102.077 32.4986 101.077 33.1814 100.27C35.1646 98.038 39.0886 98.2405 41.1983 100.27C41.6698 100.704 42.0464 101.231 42.3042 101.818C42.562 102.405 42.6954 103.038 42.6962 103.679L42.481 109.101L42.0886 118.595L41.7468 123.502L41.3249 129.371C41.1516 132.485 40.17 135.5 38.4768 138.118C38.0468 138.805 37.5598 139.454 37.0211 140.059C35.9716 141.295 34.7511 142.375 33.3966 143.266L32.3713 143.966Z" fill="black"/>
<path d="M52.5823 38.5781L44.5359 33.4684C43.0717 39.4599 43.1646 38.0844 41.8945 44.4051C45.3502 49.6583 48.5106 50.6751 52.1519 46.4726L52.5823 38.5781Z" fill="#E7BE8D"/>
<path d="M33.1139 62.8397C33.6371 68.2996 32.6371 76.0802 33.1603 80.9114V80.9325H61.7257V80.9114C61.7257 80.8777 61.7257 80.8144 61.7257 80.7216C61.8396 79.4591 61.8865 78.1916 61.865 76.9241C61.865 74.8946 61.7468 72.6752 61.6709 70.4684C61.5346 67.8431 61.5709 65.2114 61.7806 62.5908C61.8485 61.9055 61.9574 61.2249 62.1055 60.5528C62.7468 57.6456 63.0042 53.941 63.8481 47.249H63.8228C60.2278 45.7511 55.519 43.7089 54.7384 42.9663C53.2194 43.5528 51.9662 47.3756 50.4008 47.5528C46.6624 48.3967 45.9578 47.6372 44.8776 47.5528C42.9747 47.3967 41.4008 43.46 40.1139 42.9663C39.3333 43.7089 34.5991 45.7596 31.0042 47.2574C31.8481 53.9494 32.1055 57.6541 32.751 60.5612C32.9162 61.3131 33.0373 62.0739 33.1139 62.8397Z" fill="white"/>
<path d="M61.6371 70.4641L59.7553 80.8987H68.616L69.4599 68.4135C68.4683 61.9494 66.4726 54.789 63.8903 47.2236H63.8608L56.1013 49.2658L59.9156 63.9536L61.6371 70.4641Z" fill="#ECECEC"/>
<path d="M46.5443 80.9114H68.6076L72.9958 66.27C72.0042 59.8059 69.097 52.5274 63.8776 47.2405H63.8481C60.2574 45.7384 55.5485 43.7004 54.7679 42.9578C53.2363 43.5527 46.5401 65.8227 46.5401 65.8227C46.2532 70.0168 46.5443 80.9114 46.5443 80.9114Z" fill="#798078"/>
<path d="M49.5443 60.4979L47.0127 64.211L44.5654 60.2152L46.4135 50.2448H48.5232L49.5443 60.4979Z" fill="#D9664E"/>
<path d="M48.9452 47.9409H45.9916L46.3291 50.7131C47.0696 50.8447 47.8287 50.8346 48.5654 50.6835L48.9452 47.9409Z" fill="#C95E49"/>
<path d="M47.0379 80.9113L30.3249 80.9704V75.5654L20.7215 74.7974C20.5232 64.9156 27.2067 54.0843 31.0042 47.2405H31.0337C34.6287 45.7426 39.3375 43.7004 40.1181 42.9578C41.6329 43.5527 47.2573 65.8227 47.2573 65.8227C47.5316 70.0168 47.0379 80.9113 47.0379 80.9113Z" fill="#798078"/>
<path d="M52.2574 50.9409C53.9456 48.692 54.9886 46.0253 55.2743 43.2278L52.4051 41.6287C52.0797 42.9759 51.47 44.2379 50.616 45.3295C49.7624 46.4211 48.6848 47.3173 47.4557 47.9578L52.2574 50.9409Z" fill="#D9D9D9"/>
<path d="M42.616 50.9409C40.9354 48.6894 39.8983 46.0232 39.616 43.2278L42.4852 41.6287C42.8105 42.9759 43.4202 44.2379 44.2743 45.3295C45.1278 46.4211 46.2055 47.3173 47.4346 47.9578L42.616 50.9409Z" fill="#D9D9D9"/>
<path d="M46.5443 65.8228C46.6751 65.6455 46.7933 65.4725 46.9198 65.2996C47.0464 65.1266 47.1308 65.0126 47.2447 64.8776C51.4641 59.097 57.173 51.4472 57.173 51.4472C57.173 51.4472 53.9536 49.7595 54.1857 49.5274L57.7131 49.6455L57.0633 44.2869L53.8355 42.3671C51.4895 50.1139 49.1561 56.6877 47.0844 63.8861C46.9747 64.2658 46.8608 64.6498 46.7595 65.038C46.692 65.2953 46.616 65.5485 46.5443 65.8228Z" fill="#9CA79A"/>
<path d="M37.7089 51.4304C37.7089 51.4304 42.903 58.6751 46.7638 65.038C46.8203 65.1211 46.8726 65.2068 46.9199 65.2954C47.0296 65.1477 47.1308 65.0084 47.2448 64.8734C47.1984 64.5443 47.1435 64.2236 47.0887 63.8987C45.7638 56.0422 43.3798 50.076 41.0465 42.3798L37.8186 44.2996L37.1688 49.6582L40.6962 49.5401C40.9283 49.7595 37.7089 51.4304 37.7089 51.4304Z" fill="#9CA79A"/>
<path d="M46.2236 69.7005C46.2236 69.8422 46.2658 69.981 46.3443 70.0988C46.4232 70.2169 46.5354 70.3089 46.6662 70.3633C46.7975 70.4173 46.9418 70.4317 47.081 70.4038C47.2198 70.3764 47.3477 70.3081 47.4481 70.2076C47.5485 70.1072 47.6169 69.9794 47.6443 69.8405C47.6722 69.7013 47.6578 69.557 47.6038 69.4258C47.5494 69.295 47.4574 69.1827 47.3392 69.1038C47.2215 69.0253 47.0827 68.9832 46.9409 68.9832C46.7506 68.9832 46.5684 69.0587 46.4338 69.1933C46.2992 69.3279 46.2236 69.5102 46.2236 69.7005Z" fill="#C5C5C5"/>
<path d="M57.8059 36.2869C57.4473 38.3544 55.4388 43.1603 53.8397 43.7974C52.6452 44.3037 51.2996 44.3206 50.0929 43.8438C48.8148 43.3025 47.7131 42.4156 46.9114 41.2826C46.0971 40.2278 45.3713 39.8101 45.0549 38.5147C44.8064 37.2851 44.7169 36.0287 44.7891 34.7763C44.8102 33.3417 43.3798 33.7805 43.4009 32.3417C43.4009 31.2615 42.9241 28.2658 43.4009 27.2784C43.8777 26.2911 46.1266 23.2278 47.1688 22.8396C48.211 22.4514 55.1308 20.9788 58.0675 26.0886C59.2743 28.1856 59.0718 29.1139 57.8059 36.2869Z" fill="#F6CA97"/>
<path opacity="0.1" d="M58.6498 53.0886L59.962 62.8692L48.7933 72.1182L35.7469 64.9452L36.4093 53.2785L29.1519 68.4051L40.5865 76.4557H54.7975L69.9325 74.135L58.6498 53.0886Z" fill="black"/>
<path d="M75.5738 69.7974C75.605 70.6881 75.3688 71.5683 74.8958 72.324C74.4228 73.0797 73.7346 73.6763 72.9198 74.0379L72.8354 74.0801C72.2979 74.3185 71.719 74.4485 71.1312 74.4628C70.5434 74.4776 69.9586 74.3759 69.4101 74.1645C68.8616 73.9527 68.3599 73.6354 67.9342 73.2299C67.5084 72.8244 67.1667 72.3392 66.9283 71.8016C66.7468 71.481 66.5654 71.1603 66.384 70.8312C66.2025 70.5021 65.9831 70.1139 65.789 69.7552C64.6413 67.6455 63.5569 65.5358 62.578 63.3966C62.0886 62.3417 61.6287 61.2856 61.1983 60.2278C60.2915 58.0586 59.5038 55.8417 58.8397 53.5864C58.5996 53.0497 58.4675 52.4708 58.4515 51.8831C58.4359 51.2953 58.5363 50.7101 58.7472 50.1611C58.9582 49.6122 59.2755 49.1105 59.6806 48.6843C60.0861 48.2586 60.5717 47.9168 61.1097 47.6793L61.1941 47.6371C61.7312 47.3974 62.3101 47.2662 62.8979 47.251C63.4861 47.2358 64.0709 47.3367 64.6198 47.5481C65.1688 47.759 65.6705 48.0767 66.0962 48.4822C66.5219 48.8877 66.8637 49.3734 67.1013 49.9113L69.346 54.9746L69.5696 55.4767L69.8945 56.2151L70.1983 56.8945L70.2911 57.097L70.3755 57.2995L70.8354 58.3333L71.0126 58.7215L71.2278 59.2194L71.7764 60.4556L75.1941 68.1603C75.4224 68.6772 75.5515 69.2329 75.5738 69.7974Z" fill="#798078"/>
<path d="M36.4388 71.4894C37.6004 71.6624 38.7819 71.654 39.9409 71.4641C40.7173 71.3375 41.4852 71.1266 42.27 71.0717C44.3797 70.9241 46.3713 71.8776 48.2574 72.8059L52.5147 74.9156C52.6709 74.973 52.8042 75.0798 52.8945 75.2194C52.9721 75.3764 52.9848 75.5574 52.9295 75.7232C52.8742 75.8895 52.7552 76.0266 52.5991 76.1055C52.5299 76.1426 52.4536 76.1654 52.3755 76.173C50.6561 76.3798 48.9177 76.3798 47.1983 76.173C46.4514 76.0506 46.0295 75.6076 45.2785 75.6751C44.705 75.7671 44.1401 75.9084 43.5907 76.0971C41.1941 76.7249 38.6581 76.5549 36.3671 75.6118C36.5174 74.2426 36.5415 72.8629 36.4388 71.4894Z" fill="#F7CFA0"/>
<path d="M39.6245 71.5105L38.5907 77.54C37.1519 77.9113 22.4726 79.4978 21.1688 76.6961C18.6372 71.2404 27.5907 68.1223 29.1519 67.751C32.9114 69.6539 33.2194 69.6581 39.6245 71.5105Z" fill="#798078"/>
<path d="M15.3544 80.8354H11.7764V145.253H15.3544V80.8354Z" fill="#141423"/>
<path d="M88.7595 80.8354H85.1815V145.253H88.7595V80.8354Z" fill="#141423"/>
<path d="M95.1434 80.8354H4.85229V98.1983H95.1434V80.8354Z" fill="#988E87"/>
<path d="M99.9114 78.2068H0.0928345V80.9705H99.9114V78.2068Z" fill="#988E87"/>
<path d="M95.1476 80.8354H91.5696V145.502H95.1476V80.8354Z" fill="#141423"/>
<path opacity="0.15" d="M95.1434 80.8354H4.85229V86.173H95.1434V80.8354Z" fill="black"/>
<path d="M8.43035 80.8354H4.85229V145.502H8.43035V80.8354Z" fill="#141423"/>
<path d="M50.9198 74.654L55.3755 54.3164C55.495 53.8236 55.7717 53.3827 56.1637 53.0607C56.5557 52.7388 57.0418 52.5532 57.5485 52.5316H84.6456C85.0144 52.5169 85.3739 52.6489 85.6452 52.8987C85.9165 53.1489 86.0777 53.4962 86.0928 53.865C86.1 54.0173 86.0815 54.17 86.038 54.3164L81.5823 74.654C81.4629 75.1468 81.1861 75.5877 80.7941 75.9097C80.4021 76.2316 79.916 76.4173 79.4093 76.4388H52.3207C51.9515 76.4536 51.5916 76.3219 51.3194 76.0717C51.0477 75.8219 50.8857 75.4747 50.8692 75.1055C50.8608 74.9531 50.8781 74.8004 50.9198 74.654Z" fill="#1D1D1B"/>
<path d="M53.27 76.4388H80.3671C80.8734 76.416 81.3591 76.23 81.7506 75.908C82.1422 75.5865 82.4194 75.1464 82.5401 74.654L86.9958 54.3165C87.0481 54.1409 87.0654 53.957 87.0464 53.7751C87.0274 53.5928 86.9726 53.4165 86.8852 53.2557C86.7979 53.0949 86.6793 52.9532 86.5367 52.8384C86.3945 52.7232 86.2304 52.638 86.0548 52.5865C85.9084 52.543 85.7557 52.5245 85.6034 52.5317H58.5063C57.9992 52.5528 57.5122 52.7384 57.1194 53.0603C56.727 53.3823 56.4494 53.8232 56.3291 54.3165L51.8734 74.654C51.77 75.008 51.8118 75.389 51.989 75.7122C52.1662 76.0359 52.4646 76.276 52.8186 76.3797C52.9646 76.4245 53.1173 76.4443 53.27 76.4388Z" fill="#575756"/>
<path d="M68.2658 64.4852C68.2029 64.7029 68.1924 64.9324 68.2354 65.1548C68.2785 65.3772 68.3738 65.5865 68.5135 65.7645C68.6531 65.943 68.8333 66.0856 69.0388 66.181C69.2443 66.2763 69.4696 66.321 69.6962 66.3122C70.2152 66.289 70.7122 66.0987 71.1139 65.7692C71.5156 65.44 71.7995 64.9894 71.924 64.4852C72.0312 64.1227 71.9903 63.7324 71.8101 63.4C71.6295 63.0675 71.3244 62.8206 70.962 62.713C70.8114 62.6683 70.6548 62.6485 70.4979 62.654C69.978 62.678 69.4801 62.8692 69.0776 63.1991C68.6755 63.5291 68.3907 63.9801 68.2658 64.4852Z" fill="white"/>
<path d="M33.9325 78.2068H78.6582V76.4388H33.9325V78.2068Z" fill="#575756"/>
<path d="M78.6709 76.4346H50.9916V78.2025H78.6709V76.4346Z" fill="#1D1D1B"/>
<path d="M57.4093 24.9957C56.6667 24.0886 56.9873 26.059 55.3249 25.4388C53.8776 24.9029 52.6034 22.9578 50.0042 23.3291C47.1772 23.751 47 28.3924 46.7131 32.6624L44.8565 32.0717L43.5527 37.3291C43.5527 37.3291 42.4346 34.6582 42.2869 33.1519C42.0675 31.0211 42.2067 26.4641 44.5443 23.3881C46.4008 20.9409 49.6076 20.2784 52.7637 21.2784C56.3207 22.4641 57.7637 24.7426 57.4093 24.9957Z" fill="#131313"/>
<path d="M42.9283 32.5949C43.1055 34.2827 43.7173 35.5949 44.4051 35.7004C45.0928 35.8059 45.4641 33.73 45.3755 32.3249C45.2869 30.9198 44.789 30.2152 44.0127 30.2532C43.3249 30.2827 42.7848 31.2236 42.9283 32.5949Z" fill="#F6CA97"/>
<path d="M25.5063 77.7427H0.582275V78.3165H25.5063V77.7427Z" fill="#D9D9D9"/>
<path d="M25.9283 77.1688H1.00421V77.7427H25.9283V77.1688Z" fill="#ECECEC"/>
<path d="M25.5063 76.5907H0.582275V77.173H25.5063V76.5907Z" fill="#D9D9D9"/>
<path d="M25.0169 76.0168H0.0928345V76.5907H25.0169V76.0168Z" fill="#ECECEC"/>
<path d="M25.5063 75.443H0.582275V76.0168H25.5063V75.443Z" fill="#D9D9D9"/>
<path d="M25.9325 74.8607H1.00842V75.443H25.9325V74.8607Z" fill="#D9D9D9"/>
<path d="M25.5063 74.2869H0.582275V74.8607H25.5063V74.2869Z" fill="#ECECEC"/>
<path d="M25.9325 73.7131H1.00842V74.287H25.9325V73.7131Z" fill="#D9D9D9"/>
<path d="M25.0169 73.135H0.0928345V73.7173H25.0169V73.135Z" fill="#D9D9D9"/>
<path d="M25.5063 72.5612H0.582275V73.135H25.5063V72.5612Z" fill="#D9D9D9"/>
<path d="M25.9325 71.9873H1.00842V72.5611H25.9325V71.9873Z" fill="#D9D9D9"/>
<path d="M26.557 71.4093H1.63293V71.9916H26.557V71.4093Z" fill="#ECECEC"/>
<path d="M25.9325 70.8354H1.00842V71.4093H25.9325V70.8354Z" fill="#D9D9D9"/>
<path d="M25.0169 70.2616H0.0928345V70.8354H25.0169V70.2616Z" fill="#ECECEC"/>
<path d="M25.9325 69.6793H1.00842V70.2616H25.9325V69.6793Z" fill="#D9D9D9"/>
<path d="M25.9325 69.1055H1.00842V69.6793H25.9325V69.1055Z" fill="#ECECEC"/>
<path d="M25.232 68.5273H0.307983V69.1096H25.232V68.5273Z" fill="#D9D9D9"/>
<path d="M25.5106 67.9536H0.586487V68.5275H25.5106V67.9536Z" fill="#ECECEC"/>
<path d="M25.9325 67.3798H1.00842V67.9536H25.9325V67.3798Z" fill="#D9D9D9"/>
<path d="M26.3038 66.7975H1.37976V67.3798H26.3038V66.7975Z" fill="#ECECEC"/>
<path d="M25.0211 66.2236H0.0970459V66.7975H25.0211V66.2236Z" fill="#D9D9D9"/>
<path d="M25.5106 65.6498H0.586487V66.2236H25.5106V65.6498Z" fill="#ECECEC"/>
<path d="M25.9367 65.0718H1.01263V65.6541H25.9367V65.0718Z" fill="#ECECEC"/>
<path d="M25.5106 64.4979H0.586487V65.0718H25.5106V64.4979Z" fill="#D9D9D9"/>
<path d="M25.0211 63.9241H0.0970459V64.4979H25.0211V63.9241Z" fill="#D9D9D9"/>
<path d="M25.5106 63.3418H0.586487V63.9241H25.5106V63.3418Z" fill="#ECECEC"/>
<path d="M25.9367 62.7679H1.01263V63.3418H25.9367V62.7679Z" fill="#D9D9D9"/>
<path d="M25.5106 62.1941H0.586487V62.7679H25.5106V62.1941Z" fill="#ECECEC"/>
<path d="M25.9367 61.616H1.01263V62.1982H25.9367V61.616Z" fill="#D9D9D9"/>
<path d="M25.0211 61.0421H0.0970459V61.616H25.0211V61.0421Z" fill="#ECECEC"/>
<path d="M25.5106 60.4683H0.586487V61.0421H25.5106V60.4683Z" fill="#D9D9D9"/>
<path d="M25.9367 59.8904H1.01263V60.4727H25.9367V59.8904Z" fill="#ECECEC"/>
<path d="M26.5612 59.3165H1.63715V59.8904H26.5612V59.3165Z" fill="#D9D9D9"/>
<path d="M25.9367 58.7427H1.01263V59.3165H25.9367V58.7427Z" fill="#ECECEC"/>
<path d="M25.0211 58.1604H0.0970459V58.7427H25.0211V58.1604Z" fill="#D9D9D9"/>
<path d="M25.9367 57.5865H1.01263V58.1604H25.9367V57.5865Z" fill="#ECECEC"/>
<path d="M25.9367 57.0127H1.01263V57.5865H25.9367V57.0127Z" fill="#D9D9D9"/>
<path d="M25.2363 56.4346H0.312195V57.0168H25.2363V56.4346Z" fill="#ECECEC"/>
<path d="M25.5148 55.8607H0.590698V56.4346H25.5148V55.8607Z" fill="#D9D9D9"/>
<path d="M25.9367 55.2869H1.01263V55.8607H25.9367V55.2869Z" fill="#ECECEC"/>
<path d="M26.308 54.7046H1.38397V55.2869H26.308V54.7046Z" fill="#D9D9D9"/>
<path d="M25.0253 54.1307H0.101257V54.7046H25.0253V54.1307Z" fill="#ECECEC"/>
<path opacity="0.2" d="M21.6878 54.7088V55.2742H21.308V55.8481H20.8861V56.4219H20.6034V57.0042H21.2954V58.1519H20.3924V58.7299H21.2954V59.3037H21.9409V59.8776H21.308V60.4599H20.8861V61.0337H20.3966V61.6033H21.2996V62.1856H20.8776V62.7594H21.2996V63.3333H20.8776V63.9113H20.384V64.4852H20.8776V65.059H21.2996V65.6413H20.8776V66.2447H20.384V66.8185H21.6498V67.3966H21.27V67.9704H20.8481V68.5443H20.5696V69.1265H21.2616V70.27H20.3586V70.8523H21.2616V71.4219H21.9409V72.0042H21.3038V72.5738H20.8818V73.1476H20.3882V73.7299H21.2954V74.3037H20.8734V74.8776H21.2954V75.4556H20.8734V76.0295H20.3797V76.6033H20.8734V77.1856H21.2954V77.7594H20.8734V78.3333H25.4894V77.7637H25.9114V77.1898H25.4894V76.6075H24.9958V76.0337H25.4894V75.4599H25.9114V74.8776H25.4894V74.308H25.9114V73.7341H24.9958V73.1518H25.4852V72.5738H25.9072V71.9999H26.5316V71.4219H25.9072V70.8481H24.9916V70.2742H25.9072V69.1181H25.2025V68.54H25.481V67.9662H25.9029V67.3839H26.27V66.8016H25.0042V66.2447H25.4937V65.6708H25.9156V65.0886H25.4937V64.5189H25.0042V63.9451H25.4937V63.3586H25.9156V62.7848H25.4937V62.2151H25.9156V61.6033H25V61.0295H25.4894V60.4556H25.9114V59.9156H26.5359V59.3417H25.9114V58.7679H24.9958V58.1856H25.9283V57.0379H25.2236V56.4599H25.5021V55.8649H25.924V55.2742H26.2911V54.6919H25.0253V54.1223H20.4051V54.6962L21.6878 54.7088Z" fill="#1D1D1B"/>
<path d="M25.5148 53.7089H0.590698V54.2827H25.5148V53.7089Z" fill="#D9D9D9"/>
<path d="M25.9409 53.135H1.01685V53.7088H25.9409V53.135Z" fill="#ECECEC"/>
<path d="M25.5148 52.5527H0.590698V53.135H25.5148V52.5527Z" fill="#D9D9D9"/>
<path d="M25.0253 51.9789H0.101257V52.5527H25.0253V51.9789Z" fill="#ECECEC"/>
<path d="M25.5148 51.4093H0.590698V51.9831H25.5148V51.4093Z" fill="#D9D9D9"/>
<path d="M25.9409 50.827H1.01685V51.4093H25.9409V50.827Z" fill="#D9D9D9"/>
<path d="M25.5148 50.2532H0.590698V50.827H25.5148V50.2532Z" fill="#ECECEC"/>
<path d="M25.9409 49.6793H1.01685V50.2532H25.9409V49.6793Z" fill="#D9D9D9"/>
<path d="M25.0253 49.1013H0.101257V49.6836H25.0253V49.1013Z" fill="#D9D9D9"/>
<path d="M25.519 48.5275H0.59491V49.1013H25.519V48.5275Z" fill="#D9D9D9"/>
<path d="M25.9409 47.9536H1.01685V48.5275H25.9409V47.9536Z" fill="#D9D9D9"/>
<path d="M26.5654 47.3713H1.64136V47.9536H26.5654V47.3713Z" fill="#ECECEC"/>
<path d="M25.9409 46.7975H1.01685V47.3713H25.9409V46.7975Z" fill="#D9D9D9"/>
<path d="M25.0253 46.2236H0.101257V46.7975H25.0253V46.2236Z" fill="#ECECEC"/>
<path d="M25.9409 45.6455H1.01685V46.2278H25.9409V45.6455Z" fill="#D9D9D9"/>
<path d="M25.9409 45.0718H1.01685V45.6456H25.9409V45.0718Z" fill="#ECECEC"/>
<path d="M25.2405 44.4895H0.316467V45.0718H25.2405V44.4895Z" fill="#D9D9D9"/>
<path d="M25.519 43.9156H0.59491V44.4895H25.519V43.9156Z" fill="#ECECEC"/>
<path d="M25.9452 43.3459H1.02112V43.9198H25.9452V43.3459Z" fill="#D9D9D9"/>
<path d="M26.3122 42.7637H1.38818V43.3459H26.3122V42.7637Z" fill="#ECECEC"/>
<path d="M25.0295 42.1898H0.105469V42.7637H25.0295V42.1898Z" fill="#D9D9D9"/>
<path d="M25.519 41.6161H0.59491V42.1899H25.519V41.6161Z" fill="#ECECEC"/>
<path d="M25.9452 41.038H1.02112V41.6202H25.9452V41.038Z" fill="#ECECEC"/>
<path d="M25.519 40.4641H0.59491V41.0379H25.519V40.4641Z" fill="#D9D9D9"/>
<path d="M25.0295 39.8903H0.105469V40.4641H25.0295V39.8903Z" fill="#D9D9D9"/>
<path d="M25.5232 39.308H0.599121V39.8903H25.5232V39.308Z" fill="#ECECEC"/>
<path d="M25.9452 38.7341H1.02112V39.308H25.9452V38.7341Z" fill="#D9D9D9"/>
<path d="M25.5232 38.1604H0.599121V38.7342H25.5232V38.1604Z" fill="#ECECEC"/>
<path d="M1.02534 38.1519H20.903H25.9409V37.5739H21.2996H1.02112L1.02534 38.1519Z" fill="#D9D9D9"/>
<path opacity="0.2" d="M20.9029 53.7046V54.2785H25.519V53.7046H25.9409V53.1308H25.519V52.5443H25.0211V51.9831H25.5063V51.4093H25.9283V50.8228H25.5063V50.2532H25.9283V49.6835H25.0169V49.1013H25.5148V48.5274H25.9367V47.9536H26.5823V47.3671H25.9536V46.7932H25.0338V46.2194H25.9452V45.0717H25.249V44.4894H25.5316V43.9156H25.9536V43.3375H26.3164V42.7637H25.0506V42.1941H25.5443V41.6202H25.9662V41.0464H25.5443V40.4641H25.0506V39.8903H25.5443V39.3122H25.9662V38.7384H25.5443V38.1645H25.9662V37.5907H21.3249V38.1603H20.9029V38.7299H21.3249V39.3038H20.9029V39.8903H20.4093V40.4641H20.9072V41.038H21.3291V41.6118H20.9072V42.1856H20.4135V42.7595H21.6793V43.346H21.2996V43.9198H20.8776V44.4937H20.595V45.0675H21.2912V46.2152H20.3798V46.7975H21.2785V47.3713H21.9409V47.9536H21.2996V48.5232H20.8776V49.097H20.3798V49.6835H21.2912V50.2616H20.8692V50.8354H21.2912V51.4135H20.8903V51.9873H20.3966V52.5612H20.8903V53.135H21.3122V53.7088L20.9029 53.7046Z" fill="#1D1D1B"/>
<path d="M77.4346 12.9029V4.46411H79.8101V12.9029C79.8101 14.2345 80.1781 15.5402 80.8738 16.6757C81.5692 17.8112 82.565 18.7324 83.7511 19.3375L84.4093 19.6624V22.3628L84.3586 23.1266L83.6962 23.4515C82.4557 24.0551 81.4106 24.9966 80.6814 26.1677C79.9519 27.3389 79.5684 28.6921 79.5738 30.0717V38.4768H77.2152V30.0886C77.2072 28.3813 77.6494 26.7021 78.4975 25.2204C79.346 23.7388 80.57 22.5071 82.0464 21.6498V21.097C80.6367 20.2442 79.4717 19.0417 78.6637 17.6061C77.8557 16.1704 77.4321 14.5504 77.4346 12.9029Z" fill="#9CA79A"/>
<path d="M93.1603 4.47255V12.9114C93.1608 14.5553 92.7384 16.1718 91.9338 17.6054C91.1291 19.039 89.9692 20.2414 88.5654 21.097V21.7046C89.9025 22.5607 91.0025 23.7395 91.7641 25.1324C92.5257 26.5253 92.9249 28.0875 92.9241 29.6751V38.4979H90.5485V29.6709C90.5464 28.3874 90.197 27.1285 89.5376 26.0275C88.8781 24.9266 87.9325 24.0247 86.8017 23.4177L86.1899 23.0759L86.2321 19.654L86.8776 19.3206C88.0557 18.7133 89.0439 17.7931 89.7329 16.6609C90.4224 15.5287 90.7865 14.2285 90.7848 12.9029V4.46411L93.1603 4.47255Z" fill="#9CA79A"/>
<path d="M86.0759 17.8945L85.3122 18.3164L84.4894 17.8945C83.8388 17.554 83.2763 17.0668 82.8464 16.4714C82.4164 15.876 82.1312 15.1888 82.0126 14.4641H88.6076C88.481 15.1933 88.1865 15.8829 87.7468 16.4783C87.3076 17.0738 86.7354 17.5586 86.0759 17.8945Z" fill="#EEB34F"/>
<path d="M84.3545 25.3713L85.3249 24.9114L86.114 25.3333C86.9161 25.7707 87.5853 26.4161 88.0515 27.2017C88.5178 27.9872 88.7637 28.8839 88.7637 29.7975V36.3797H81.3587V30.1645C81.3545 29.1642 81.6334 28.1831 82.1633 27.3348C82.6937 26.4864 83.4532 25.8057 84.3545 25.3713Z" fill="#EEB34F"/>
<path d="M94.6878 0.312256H75.6709V3.4304H94.6878V0.312256Z" fill="#E46C41"/>
<path d="M94.6878 39.46H75.6709V42.5781H94.6878V39.46Z" fill="#E46C41"/>
</g>
<defs>
<clipPath id="clip0">
<rect width="100" height="146.413" fill="white"/>
</clipPath>
</defs>
</svg>
