<svg width="100" height="131" viewBox="0 0 100 131" fill="none" xmlns="http://www.w3.org/2000/svg">
<path d="M42.635 62.7541L47.689 60.1049L51.3642 60.2987L53.3064 63.4851L51.9618 65.4801C51.1849 65.4801 50.9459 64.9551 51.3514 64.3211L48.8885 64.0222C47.8768 65.1692 46.02 64.9834 44.5687 65.153L42.635 62.7541Z" fill="#F7D2A6"/>
<path d="M47.6847 60.1049L52.4399 59.6243L55.1419 61.2397C55.7864 61.6032 55.2059 62.1807 54.6425 61.8334L52.346 60.6703L48.039 61.587L47.6847 60.1049Z" fill="#F7D2A6"/>
<path d="M17.1262 65.3791L39.1903 66.9461C39.1903 66.9461 39.6172 69.8376 39.4593 69.8659C34.0595 70.9482 19.1538 71.8851 16.0506 71.2511C12.3497 70.6413 12.8748 64.8097 17.1262 65.3791Z" fill="#E1DCC5"/>
<path d="M39.0708 66.728L42.8186 65.989C43.0947 65.9327 43.382 65.9524 43.6467 66.0455L45.781 66.7967C46.0145 66.878 46.2228 67.0133 46.3869 67.1904C46.5509 67.3675 46.6655 67.5806 46.72 67.8103L47.1469 69.6519C47.2079 69.9044 47.1943 70.1679 47.1077 70.4136C47.0212 70.6593 46.8649 70.8778 46.656 71.0452L45.5291 71.9498C45.1364 71.8246 44.9401 71.6105 44.9401 71.3602C44.9174 71.093 44.8152 70.8373 44.6452 70.6229C44.4752 70.4084 44.2444 70.244 43.9796 70.1486H43.9498C43.7514 70.0556 43.5337 70.0051 43.3123 70.0009C43.091 69.9967 42.8713 70.0389 42.6692 70.1244C41.8496 70.5282 40.5819 70.4434 39.1946 70.298C38.8377 70.2602 38.5072 70.1016 38.2641 69.8516C38.0209 69.6015 37.8815 69.2767 37.8714 68.9371L37.8457 68.1657C37.8347 67.8271 37.9521 67.4959 38.1769 67.2322C38.4016 66.9685 38.7187 66.7896 39.0708 66.728V66.728Z" fill="#E4C29A"/>
<path d="M22.0009 49.7098L19.8666 68.3878C19.7002 72.3092 13.2632 72.6848 13.5663 67.7336L14.5779 48.9586C15.3804 42.7515 22.4961 44.5809 22.0009 49.7098Z" fill="#E1DCC5"/>
<path d="M76.1986 49.2373L75.4516 48.8617L75.0461 49.9602L76.3608 50.7679L76.1986 49.2373Z" fill="#3C3C3B"/>
<path d="M55.6498 67.2167L58.3219 50.6104C58.45 49.8027 59.0348 49.1565 59.6025 49.1565H75.823C76.4163 49.1565 76.7877 49.8067 76.6767 50.6104L74.0088 67.2167C73.8808 68.0244 73.296 68.6746 72.7283 68.6746H56.5078C55.8931 68.6746 55.5218 68.0203 55.6498 67.2167Z" fill="#1D1D1B"/>
<path d="M55.7608 68.299H71.9813C72.5746 68.299 73.1551 67.6447 73.2618 66.8411L75.9339 50.2348C76.062 49.4271 75.6864 48.7809 75.0802 48.7809H58.8598C58.2707 48.7809 57.6859 49.4311 57.5579 50.2348L54.9071 66.8411C54.7748 67.6488 55.1504 68.299 55.7608 68.299Z" fill="#575756"/>
<path d="M71.9813 67.2086C72.199 67.2086 72.4551 66.9138 72.5063 66.6109L75.1741 50.0046C75.1827 49.9619 75.1827 49.9181 75.1741 49.8754H75.1187H58.8982C58.6848 49.8754 58.4244 50.1742 58.3774 50.4771L55.7096 67.0834C55.7011 67.1247 55.7011 67.1672 55.7096 67.2086V67.2086H55.7651H71.9813Z" fill="#9CA79A"/>
<path d="M45.4736 69.7448H72.2758V68.299H45.4736V69.7448Z" fill="#3C3C3B"/>
<path d="M72.2758 68.299H62.2533V69.7448H72.2758V68.299Z" fill="#1D1D1B"/>
<path d="M29.044 23.7584C28.6172 22.6519 28.4251 21.3354 27.4049 20.6327C28.7397 20.6302 30.0425 21.0197 31.1335 21.7474C32.2245 22.4751 33.05 23.5051 33.4961 24.6954C33.8461 25.6888 33.923 26.7914 34.5419 27.6637C33.3339 27.5558 32.1811 27.1339 31.2108 26.4447C30.2405 25.7555 29.4906 24.8258 29.044 23.7584V23.7584Z" fill="#21201D"/>
<path d="M53.4814 87.3243C53.3518 88.0811 53.0984 88.8141 52.7302 89.497V89.5213C52.7302 89.5213 52.3801 90.0705 51.7655 91.0236C51.6161 91.2618 51.4496 91.5122 51.266 91.799C50.519 92.9863 49.5117 94.5694 48.3848 96.3746C47.4542 97.8688 46.4383 99.5165 45.3968 101.221C43.6467 104.088 41.8667 107.105 40.3599 109.79C38.7635 112.666 37.4872 115.162 36.9451 116.696C36.2621 118.643 37.961 123.029 38.3921 124.095C38.4604 124.244 38.4903 124.329 38.4903 124.329C39.1801 125.217 39.9468 126.049 40.7825 126.817C42.0887 128.097 42.9936 128.998 41.5893 129.086L40.5392 128.703L38.6184 127.984L33.6284 126.126C33.2174 125.977 32.8489 125.739 32.5524 125.431C32.2559 125.124 32.0397 124.754 31.921 124.353L31.1826 121.769L29.966 124.761L28.1348 124.083C29.6928 120.278 28.1092 118.804 32.1899 114.931C33.3467 113.829 34.8364 105.457 36.6292 99.0359C37.2951 96.6411 38.0037 94.5128 38.7635 93.1357C39.4386 91.8858 40.2075 90.6833 41.0642 89.5374C41.2051 89.3476 41.3374 89.1618 41.4911 88.9801C42.4347 87.7485 43.4703 86.5824 44.59 85.4908C44.9708 85.1164 45.3742 84.7631 45.798 84.4328C49.7422 83.1849 54.015 83.7502 53.4814 87.3243Z" fill="#E4C29A"/>
<path d="M32.2155 114.964C32.2497 114.931 32.3905 114.996 32.5869 115.113C33.0917 115.425 33.5148 115.842 33.8239 116.332C34.1331 116.822 34.3202 117.372 34.3711 117.94L34.6443 120.9C34.6993 121.53 34.9447 122.131 35.3512 122.633C35.7576 123.134 36.308 123.514 36.9365 123.727L38.4519 124.244L38.4946 124.357C40.2788 126.805 43.8174 128.985 41.5935 129.127L33.6455 126.171C33.2329 126.018 32.8637 125.777 32.5673 125.465C32.2708 125.154 32.0554 124.782 31.9381 124.377L31.1911 121.809L29.9745 124.806L28.1604 124.131C29.7227 120.311 28.1348 118.845 32.2155 114.964Z" fill="#C45C38"/>
<path d="M16.9726 98.8663C12.2772 98.8663 8.37573 96.7461 4.88406 93.4426C-3.74266 85.2808 1.46923 61.6718 2.51502 61.8495C3.65472 62.0434 3.9962 71.5177 3.79558 72.5919C2.51502 79.3887 4.18402 86.5651 8.06412 90.8742C10.5015 93.5759 13.6815 94.9813 17.2159 94.9127C17.7706 94.9025 18.3069 95.1012 18.7067 95.4651C19.1066 95.829 19.3373 96.3283 19.348 96.8531C19.3588 97.378 19.1487 97.8853 18.7641 98.2637C18.3794 98.642 17.8517 98.8602 17.297 98.8704L16.9726 98.8663Z" fill="#1D1D1B"/>
<path d="M5.94693 122.104H4.46148V125.985H5.94693V122.104Z" fill="#575756"/>
<path d="M9.25932 127.786C9.22928 128.309 9.03776 128.813 8.70845 129.235C8.37913 129.656 7.92646 129.977 7.4064 130.158C6.88634 130.338 6.3217 130.371 5.78229 130.251C5.24288 130.132 4.75235 129.865 4.37137 129.485C3.99038 129.104 3.73564 128.626 3.63864 128.11C3.54164 127.594 3.60664 127.062 3.82559 126.581C4.04455 126.099 4.40786 125.689 4.87061 125.401C5.33335 125.113 5.87524 124.959 6.42928 124.959C7.19995 124.981 7.93005 125.291 8.46026 125.821C8.99046 126.35 9.27771 127.057 9.25932 127.786Z" fill="#1D1D1B"/>
<path d="M26.2652 122.104H24.7797V125.985H26.2652V122.104Z" fill="#575756"/>
<path d="M29.5776 127.786C29.5475 128.309 29.356 128.813 29.0267 129.235C28.6974 129.656 28.2447 129.977 27.7246 130.158C27.2046 130.338 26.6399 130.371 26.1005 130.251C25.5611 130.132 25.0706 129.865 24.6896 129.485C24.3086 129.104 24.0539 128.626 23.9569 128.11C23.8599 127.594 23.9249 127.062 24.1438 126.581C24.3628 126.099 24.7261 125.689 25.1889 125.401C25.6516 125.113 26.1935 124.959 26.7475 124.959C27.5182 124.981 28.2483 125.291 28.7785 125.821C29.3087 126.35 29.596 127.057 29.5776 127.786Z" fill="#1D1D1B"/>
<path d="M46.9591 122.104H45.4736V125.985H46.9591V122.104Z" fill="#575756"/>
<path d="M42.157 127.786C42.1862 128.31 42.3773 128.815 42.7066 129.238C43.0359 129.661 43.489 129.983 44.0098 130.164C44.5306 130.346 45.0963 130.379 45.6368 130.26C46.1774 130.141 46.6691 129.874 47.0511 129.493C47.4331 129.112 47.6886 128.633 47.7861 128.116C47.8836 127.599 47.8187 127.067 47.5995 126.584C47.3803 126.102 47.0164 125.691 46.5528 125.402C46.0893 125.113 45.5464 124.959 44.9913 124.959C44.2202 124.981 43.4897 125.291 42.9588 125.82C42.4279 126.35 42.1397 127.056 42.157 127.786V127.786Z" fill="#1D1D1B"/>
<path d="M28.3482 97.7033H23.2431V109.068H28.3482V97.7033Z" fill="#9C9C9B"/>
<path d="M29.5818 106.79H22.0137V119.947H29.5818V106.79Z" fill="#17191E"/>
<path d="M3.42849 123.505H48.1287V120.888L25.7274 118.267L3.42849 120.888V123.505Z" fill="#1D1D1B"/>
<path d="M9.23371 90.329H44.2358C44.8346 90.329 45.409 90.5541 45.8324 90.9547C46.2559 91.3554 46.4938 91.8987 46.4938 92.4653V97.15C46.4927 97.7163 46.2544 98.259 45.8312 98.6595C45.408 99.0599 44.8343 99.2853 44.2358 99.2864H9.23371C8.62125 99.2864 8.03387 99.0562 7.6008 98.6464C7.16772 98.2367 6.92442 97.681 6.92442 97.1015V92.5098C6.92442 91.9314 7.16727 91.3767 7.59955 90.9677C8.03182 90.5587 8.61811 90.329 9.22944 90.329H9.23371Z" fill="#1D1D1B"/>
<path d="M28.2287 34.8239L27.883 36.3383L27.5287 37.9335L27.1018 39.8316L26.675 41.7943L26.0859 44.4638L18.4922 39.3026L21.2667 28.9681L28.2287 34.8239Z" fill="#F7D2A6"/>
<path d="M26.039 41.7136C28.5275 51.2606 33.415 50.9375 33.987 56.3249C34.4138 60.2382 30.0642 61.7405 30.0642 61.7405C28.8092 67.2449 27.8659 72.0952 28.2245 75.7823C28.2245 75.7823 15.756 73.5773 14.9066 73.3592C16.9726 67.7942 13.3528 61.7768 13.3528 51.6442C13.3528 46.1802 18.6501 38.6645 18.6501 38.6645C18.6501 38.6645 25.6377 40.183 26.039 41.7136Z" fill="#F7D2A6"/>
<path d="M34.2644 56.3329C34.2901 56.5665 34.2901 56.802 34.2644 57.0356C34.115 60.4158 30.0557 61.7364 30.0557 61.7364C30.0557 62.003 30.0557 62.2655 30.03 62.5159C30.0044 62.7663 30.03 63.0126 29.9959 63.2589C29.9532 64.0666 29.8892 64.8743 29.8294 65.6538C29.6715 67.2005 29.4709 68.6503 29.2617 70.0032C29.0141 71.6631 28.7794 73.2098 28.63 74.6112C28.6044 74.8333 28.5787 75.0433 28.5446 75.2412L27.6567 75.116C26.4317 74.9585 24.0925 74.6515 21.7619 74.3285L21.335 74.2719C18.2702 73.8681 15.3164 73.4642 14.9109 73.3592C15.0622 72.9663 15.1737 72.5606 15.2438 72.1477L15.2694 72.1234C15.3078 71.9417 15.342 71.7681 15.3761 71.5863C15.5232 70.678 15.5705 69.7577 15.517 68.8401C15.517 68.5332 15.4914 68.2384 15.4658 67.9234C15.3164 66.308 14.9578 64.523 14.6121 62.5926C14.1172 60.2505 13.7468 57.8863 13.5022 55.5091C13.451 55.1052 13.4254 54.7014 13.3998 54.2571C13.3528 53.4131 13.3272 52.5731 13.3272 51.6725C13.3272 46.3619 16.8659 41.439 17.0878 41.1401C17.0878 41.1401 18.2617 41.5763 19.4867 42.0084C19.4867 42.0084 25.1084 43.3774 30.585 50.3398C32.4034 52.2541 33.9571 53.506 34.2644 56.3329Z" fill="#F7F1D8"/>
<path opacity="0.1" d="M27.5287 37.9295L27.1018 39.8276L26.675 41.7903C25.706 41.1724 24.2718 40.0861 23.815 39.444C22.5601 37.6266 22.1076 35.7205 22.0265 33.5437C23.1278 35.2924 25.1682 36.6412 27.0335 37.6711C27.1957 37.7599 27.3622 37.8488 27.5287 37.9295Z" fill="#1D1D1B"/>
<path d="M33.5302 31.3387C32.6339 30.2766 32.16 29.6627 31.9082 28.7621C34.6657 15.8672 6.80917 20.1198 17.2927 33.6931L19.9819 33.4185C21.3478 36.6736 23.6443 38.6363 27.9555 39.3309C29.4196 39.238 30.777 39.3066 31.7545 38.3455C32.4119 37.4651 32.668 36.0032 32.6082 33.9031C32.6005 33.695 32.6529 33.4888 32.7597 33.3066C32.8664 33.1245 33.0236 32.9733 33.2144 32.8693V32.8693C33.3347 32.8145 33.4424 32.7377 33.5313 32.6435C33.6203 32.5493 33.6887 32.4394 33.7327 32.3201C33.7767 32.2008 33.7954 32.0745 33.7878 31.9484C33.7801 31.8223 33.7463 31.6988 33.6882 31.585C33.6488 31.4959 33.5956 31.4129 33.5302 31.3387V31.3387Z" fill="#F7D2A6"/>
<path d="M19.0514 37.6509C18.0312 36.3585 16.1744 34.7028 15.3804 33.2772C14.5396 31.8682 14.0573 30.2933 13.9718 28.6773C13.9297 27.3922 14.2084 26.1158 14.7855 24.9517C15.3625 23.7876 16.2215 22.7686 17.2927 21.9775C22.6199 18.2742 28.122 20.14 29.2233 22.03C29.2233 22.03 30.8539 22.7206 28.0836 26.965C26.4615 29.4487 23.7596 29.7637 22.8717 33.2004C21.2795 39.3551 19.0514 37.6509 19.0514 37.6509Z" fill="#21201D"/>
<path d="M52.8838 130.625L44.4065 129.615C43.966 129.57 43.5432 129.426 43.1724 129.197C42.8015 128.967 42.4931 128.658 42.2722 128.295L40.8807 125.965L40.774 126.853L40.5307 128.735L40.4794 129.139L38.533 128.913C38.5748 128.611 38.5991 128.308 38.6055 128.004C38.6909 126.425 38.4177 125.318 38.3836 124.123C38.358 122.807 38.6397 121.381 40.0654 119.095C40.616 118.223 40.4922 114.289 40.3386 109.807C40.2575 107.113 40.1721 104.213 40.2233 101.669C40.2219 99.908 40.3919 98.1506 40.7313 96.419C40.9063 95.6719 41.1155 94.9571 41.3374 94.2786C41.6319 93.374 41.9564 92.53 42.2765 91.7667C42.5027 91.2296 42.7033 90.7369 42.9509 90.2805C43.4674 89.1942 43.9668 88.3178 44.3595 87.6555C44.6353 87.2073 44.9359 86.7732 45.2602 86.3551C48.7476 84.2147 53.0076 83.7503 53.4558 87.3163V87.3405C53.5359 88.1089 53.4869 88.8845 53.3107 89.6384V89.6707L52.9265 90.8823C52.7985 91.2498 52.6491 91.69 52.4997 92.223C52.1155 93.4346 51.6203 95.0257 51.0612 96.835C50.677 98.0869 50.2587 99.4519 49.8361 100.873C47.7317 107.917 45.3968 116.296 45.1407 119.697C44.9657 122.039 48.6366 126.732 48.6366 126.732C51.0099 128.699 55.0053 129.971 52.8838 130.625Z" fill="#F7D2A6"/>
<path d="M40.0953 119.103C40.1209 119.063 40.2745 119.103 40.4922 119.164C41.0635 119.347 41.5826 119.653 42.0096 120.056C42.4365 120.459 42.7601 120.95 42.9552 121.49L43.9924 124.293C44.2145 124.888 44.6117 125.411 45.1372 125.8C45.6627 126.19 46.2948 126.429 46.9591 126.49L48.5555 126.635L48.6281 126.732C50.9971 128.691 54.9968 129.963 52.8966 130.629L44.4193 129.624C43.978 129.574 43.5551 129.427 43.1845 129.195C42.8138 128.963 42.5058 128.652 42.285 128.287L40.8892 125.973L40.4922 129.159L38.5586 128.929C39.0623 124.882 37.1542 123.82 40.0953 119.103Z" fill="#C45C38"/>
<path d="M53.5796 90.7853C53.1096 92.8696 52.5255 94.9293 51.8295 96.9561C51.5734 96.9238 51.3173 96.8915 51.0569 96.8511C50.1562 96.734 49.2684 96.5846 48.3762 96.4029C45.973 95.906 43.6237 95.199 41.3588 94.2907C40.505 93.9475 39.6257 93.5759 38.7678 93.1721C37.5768 92.6148 36.403 92.0009 35.2291 91.3386C35.2291 91.3386 21.3948 91.5809 15.5938 90.2038C14.4613 89.9356 13.4344 89.3645 12.6358 88.5589C11.8372 87.7532 11.3007 86.7469 11.0905 85.6605C10.6637 83.4231 10.4929 81.6826 11.2826 79.1989C11.5913 78.2652 11.9649 77.3519 12.401 76.4648C13.1447 74.9213 14.099 73.4767 15.2395 72.1679L15.2652 72.1436L15.6408 72.2123L21.2411 73.2704L27.6695 74.4496L28.6172 74.6233L28.694 74.6475C28.694 74.7323 47.7829 78.8273 52.5594 83.831C52.9892 84.2503 53.317 84.7534 53.5198 85.3051C54.0534 86.8841 54.0064 88.653 53.5796 90.7853Z" fill="#C45C38"/>
<path d="M100 69.7448H32.8814V72.8665H100V69.7448Z" fill="#84735D"/>
<path d="M100 69.7448H32.8814V72.8665H100V69.7448Z" fill="#988E87"/>
<path d="M95.7571 72.8665H51.36V130.625H95.7571V72.8665Z" fill="#988E87"/>
<path opacity="0.2" d="M95.7613 72.8665H51.3557V83.8391H95.7613V72.8665Z" fill="#1D1D1B"/>
<path d="M16.947 26.9166C17.1433 29.2791 15.4359 31.3589 13.1394 31.5083C10.8429 31.6578 8.81112 29.8929 8.61903 27.5345C8.42695 25.176 10.1258 23.0921 12.4266 22.9427C14.7273 22.7933 16.7506 24.55 16.947 26.9166Z" fill="#21201D"/>
<path d="M24.3273 31.8314C24.6858 33.1479 24.895 33.9637 23.9644 34.1899C23.0339 34.416 21.4289 33.4791 21.0704 32.1706C20.9873 31.9362 20.9539 31.6886 20.9721 31.442C20.9902 31.1954 21.0595 30.9546 21.1761 30.7333C21.2926 30.512 21.4541 30.3146 21.6513 30.1524C21.8485 29.9902 22.0775 29.8664 22.3253 29.7879L22.4662 29.7475C23.3925 29.5173 23.9645 30.5148 24.3273 31.8314Z" fill="#F7D2A6"/>
<path d="M23.9858 33.8183C24.0186 33.9405 24.0124 34.0691 23.968 34.1879C23.9237 34.3068 23.8431 34.4105 23.7365 34.4861C23.6299 34.5616 23.502 34.6056 23.369 34.6125C23.236 34.6194 23.1038 34.5889 22.9891 34.5248C22.8744 34.4607 22.7824 34.3659 22.7245 34.2524C22.6667 34.1388 22.6457 34.0116 22.6642 33.8868C22.6827 33.762 22.7398 33.6452 22.8284 33.5511C22.917 33.4569 23.0331 33.3897 23.162 33.3579C23.248 33.3367 23.3377 33.3318 23.4257 33.3435C23.5138 33.3552 23.5985 33.3832 23.6751 33.426C23.7517 33.4688 23.8185 33.5255 23.8719 33.5928C23.9252 33.6601 23.9639 33.7368 23.9858 33.8183V33.8183Z" fill="white"/>
<path opacity="0.1" d="M51.36 82.8012V83.9037C46.2121 83.5403 31.0118 77.7329 21.7619 74.3487C19.1154 73.3794 16.9512 72.6081 15.6493 72.2204C15.564 72.0386 15.4743 71.8448 15.3804 71.6146C15.5297 70.7051 15.577 69.7833 15.5213 68.8644C15.5213 68.5575 15.5213 68.2667 15.4743 67.9517C15.3206 66.3121 14.9664 64.5472 14.6206 62.6209C14.1397 60.2705 13.7811 57.9012 13.5449 55.5131C13.498 55.1093 13.4724 54.7054 13.4468 54.2612C13.3955 53.4212 13.3699 52.5771 13.3699 51.6766C13.3699 46.37 16.9085 41.4471 17.1348 41.1482C13.498 50.4367 18.6586 52.3873 24.1352 54.0714L27.7549 60.5855C29.0339 60.4297 30.2677 60.0358 31.3849 59.4265C32.5022 58.8172 33.4808 58.0046 34.2644 57.0356C34.115 60.4118 30.0514 61.7364 30.0514 61.7364C30.0514 62.003 30.0514 62.2655 30.03 62.5159C30.0087 62.7663 30.0044 63.0126 29.9874 63.259C29.9447 64.0667 29.8764 64.8744 29.8209 65.6497V65.674C29.6587 67.2207 29.4623 68.6665 29.2532 70.0234C29.0013 71.6833 28.7708 73.23 28.6214 74.6314L28.694 74.6556C28.7068 74.7323 45.1962 78.2781 51.36 82.8012Z" fill="#1D1D1B"/>
<path d="M25.0785 65.7386L42.6308 62.7501C42.6308 62.7501 44.7096 65.0803 44.5687 65.153C39.5233 67.8144 29.7355 71.8084 26.4274 72.0911C22.5302 72.5677 21.1472 66.5786 25.0785 65.7386Z" fill="#F7F1D8"/>
<path d="M23.1876 48.9586L28.9245 67.8588C30.3971 71.7236 24.3102 74.486 22.543 69.5752L15.6877 51.0183C13.8693 44.6859 21.5356 43.8055 23.1876 48.9586Z" fill="#F7F1D8"/>
<path d="M5.91705 84.566C5.91705 84.566 9.67337 85.0466 9.66483 79.4331L10.0917 52.5771C10.4758 50.36 8.15377 48.4942 5.4902 48.6557L4.49136 48.7163C3.81915 48.7569 3.19032 49.0444 2.73898 49.5175C2.28763 49.9905 2.0495 50.6117 2.07536 51.2485L3.31751 82.2156C3.343 82.8502 3.62864 83.4504 4.11388 83.8892C4.59913 84.3279 5.24587 84.5707 5.91705 84.566V84.566Z" fill="#3C3C3B"/>
<path opacity="0.15" d="M51.36 91.0963V96.8915C51.2575 96.8915 51.1593 96.8673 51.0612 96.8511C50.677 98.1031 50.2587 99.4681 49.8361 100.89L45.3968 101.261L40.2447 101.693L39.4934 101.754C39.4934 101.754 38.2555 100.575 36.6463 99.0763C37.3122 96.6856 38.0208 94.5532 38.7806 93.1761C37.5896 92.6188 36.4158 92.0049 35.2419 91.3426C35.2419 91.3426 21.4033 91.5849 15.6066 90.2078C14.4734 89.941 13.4456 89.3704 12.6468 88.5645C11.848 87.7585 11.312 86.7516 11.1033 85.6645C10.6765 83.4272 10.5057 81.6866 11.2911 79.2029C13.5151 86.1168 15.1328 92.6228 37.167 87.2112C38.3699 88.1401 39.687 88.928 41.0898 89.5576C41.7054 89.8385 42.3383 90.0839 42.9851 90.2926C45.6814 91.135 48.5398 91.4093 51.36 91.0963V91.0963Z" fill="#1D1D1B"/>
<g opacity="0.75">
<path opacity="0.75" d="M72.216 52.8356H59.7391L59.7989 52.4641H72.2758L72.216 52.8356Z" fill="white"/>
<path opacity="0.75" d="M72.0666 53.8048H59.6025L59.6623 53.4333H72.1349L72.0666 53.8048Z" fill="white"/>
<path opacity="0.75" d="M66.2657 54.7377H59.436L59.4915 54.3702H66.3212L66.2657 54.7377Z" fill="white"/>
<path opacity="0.75" d="M71.6099 56.6318H59.1372L59.197 56.2603H71.6697L71.6099 56.6318Z" fill="white"/>
<path opacity="0.75" d="M69.2195 57.5929H58.975L59.0305 57.2254H69.275L69.2195 57.5929Z" fill="white"/>
<path opacity="0.75" d="M71.3111 58.546H58.8342L58.8939 58.1785H71.3709L71.3111 58.546Z" fill="white"/>
<path opacity="0.75" d="M65.5102 59.4991H58.6805L58.7403 59.1276H65.5699L65.5102 59.4991Z" fill="white"/>
<path opacity="0.75" d="M71.0081 60.4522H58.5354L58.5909 60.0806H71.0678L71.0081 60.4522Z" fill="white"/>
<path opacity="0.75" d="M69.3177 61.4053H58.3817L58.4415 61.0338H69.3732L69.3177 61.4053Z" fill="white"/>
<path opacity="0.75" d="M70.7007 62.3543H58.2323L58.2921 61.9868H70.7647L70.7007 62.3543Z" fill="white"/>
<path opacity="0.75" d="M70.5556 63.3074H58.0786L58.1384 62.9359H70.6153L70.5556 63.3074Z" fill="white"/>
<path opacity="0.75" d="M70.4062 64.2605H57.9292L57.989 63.8889H70.4617L70.4062 64.2605Z" fill="white"/>
</g>
<path d="M82.4349 15.6855C82.4349 18.7878 81.4626 21.8204 79.6409 24.3999C77.8191 26.9794 75.2299 28.9898 72.2004 30.177C69.171 31.3642 65.8375 31.6749 62.6215 31.0696C59.4055 30.4644 56.4514 28.9705 54.1328 26.7768C51.8142 24.5832 50.2352 21.7883 49.5955 18.7456C48.9558 15.7029 49.2841 12.5491 50.5389 9.68292C51.7937 6.81677 53.9187 4.36703 56.6451 2.64348C59.3715 0.919939 62.5769 5.20205e-07 65.8559 5.20205e-07C68.0333 -0.000530066 70.1894 0.404825 72.2011 1.19291C74.2128 1.98099 76.0407 3.13636 77.5803 4.593C79.1199 6.04964 80.3411 7.779 81.1741 9.68229C82.0071 11.5856 82.4355 13.6255 82.4349 15.6855V15.6855Z" fill="#9CA79A"/>
<path d="M65.8474 30.846C74.6996 30.846 81.8758 24.0566 81.8758 15.6815C81.8758 7.30633 74.6996 0.516937 65.8474 0.516937C56.9952 0.516937 49.819 7.30633 49.819 15.6815C49.819 24.0566 56.9952 30.846 65.8474 30.846Z" fill="#2F2E29"/>
<path d="M78.8664 15.6855C78.8664 18.1201 78.1034 20.4999 76.6738 22.5242C75.2442 24.5485 73.2122 26.1262 70.8348 27.0578C68.4575 27.9895 65.8415 28.2333 63.3177 27.7583C60.7939 27.2833 58.4756 26.111 56.6561 24.3895C54.8365 22.668 53.5974 20.4747 53.0954 18.0869C52.5934 15.6992 52.851 13.2242 53.8358 10.9749C54.8205 8.72569 56.4881 6.80324 58.6277 5.45067C60.7672 4.09811 63.2827 3.37617 65.8559 3.37617C69.3065 3.37617 72.6158 4.67305 75.0557 6.9815C77.4957 9.28994 78.8664 12.4209 78.8664 15.6855V15.6855Z" fill="#B1B1B1"/>
<path d="M78.0597 15.6855C78.0588 17.9697 77.3421 20.2024 76.0002 22.1013C74.6582 24.0002 72.7513 25.4799 70.5205 26.3535C68.2897 27.2271 65.8352 27.4553 63.4674 27.0091C61.0995 26.563 58.9247 25.4627 57.2178 23.8472C55.5109 22.2317 54.3486 20.1737 53.8779 17.9333C53.4072 15.6929 53.6492 13.3708 54.5733 11.2605C55.4974 9.15024 57.0622 7.3466 59.0697 6.07764C61.0772 4.80868 63.4373 4.13138 65.8517 4.13138V4.13138C67.4542 4.13032 69.0413 4.42811 70.5222 5.00772C72.003 5.58734 73.3486 6.43741 74.482 7.50935C75.6154 8.58128 76.5144 9.85405 77.1275 11.2549C77.7407 12.6557 78.056 14.1572 78.0554 15.6734L78.0597 15.6855Z" fill="white"/>
<path d="M65.8559 15.6855L59.3123 5.94062C61.2651 4.75994 63.5341 4.13218 65.8517 4.13138L65.8559 15.6855Z" fill="#E46C41"/>
<path d="M71.0891 6.76044L70.9696 6.93813C70.9636 6.94804 70.9549 6.95625 70.9444 6.96193C70.9339 6.9676 70.922 6.97054 70.9099 6.97044C70.8993 6.97075 70.8887 6.96873 70.8791 6.96452C70.8695 6.96031 70.861 6.95405 70.8544 6.94621C70.8471 6.93938 70.8414 6.93117 70.8378 6.92212C70.8341 6.91307 70.8325 6.90338 70.833 6.8937C70.8286 6.87919 70.8286 6.8638 70.833 6.84928C70.8405 6.83431 70.8506 6.82065 70.8629 6.8089L71.1148 6.49389L71.1446 6.46562C71.16 6.46147 71.1762 6.46147 71.1916 6.46562C71.2111 6.46001 71.2319 6.46001 71.2514 6.46562C71.2599 6.47074 71.2668 6.47795 71.2713 6.48649C71.2758 6.49503 71.2778 6.50457 71.277 6.51409V8.37179C71.2789 8.38244 71.277 8.3934 71.2716 8.40291C71.2662 8.41242 71.2575 8.41995 71.2471 8.42429C71.2257 8.43599 71.2014 8.44215 71.1766 8.44215C71.1519 8.44215 71.1276 8.43599 71.1062 8.42429C71.0974 8.41823 71.0901 8.41036 71.0849 8.40127C71.0798 8.39218 71.0768 8.38211 71.0763 8.37179L71.0891 6.76044Z" fill="black"/>
<path d="M74.3034 10.4193C74.3024 10.3564 74.3171 10.2942 74.3461 10.2376C74.3775 10.1835 74.4195 10.1355 74.4698 10.0962C74.5231 10.0552 74.5839 10.0237 74.6491 10.0034C74.7996 9.95284 74.9639 9.95284 75.1144 10.0034C75.1856 10.0269 75.251 10.064 75.3065 10.1124C75.3606 10.1589 75.4038 10.2156 75.4332 10.2789C75.4626 10.3423 75.4776 10.4107 75.4772 10.4799C75.4802 10.5727 75.4534 10.6642 75.4004 10.7424C75.3497 10.8224 75.2864 10.8946 75.2126 10.9564C75.1345 11.0211 75.0518 11.0805 74.965 11.1341C74.8753 11.1866 74.7943 11.2391 74.7217 11.2876C74.6528 11.3345 74.5885 11.3872 74.5296 11.4451C74.4837 11.4897 74.4565 11.5485 74.4528 11.6107V11.8045H75.426C75.436 11.8042 75.4459 11.8062 75.4549 11.8105C75.4638 11.8147 75.4715 11.821 75.4772 11.8288C75.4905 11.845 75.4979 11.8648 75.4986 11.8853C75.5001 11.9073 75.4924 11.9291 75.4772 11.9459C75.4715 11.9536 75.4638 11.9599 75.4549 11.9642C75.4459 11.9684 75.436 11.9704 75.426 11.9701H74.3418C74.3201 11.9695 74.2992 11.9625 74.282 11.9499C74.2719 11.9459 74.2633 11.9392 74.2572 11.9306C74.2511 11.9219 74.2479 11.9118 74.2479 11.9014V11.6349C74.2478 11.56 74.2749 11.4872 74.3247 11.4289C74.3807 11.3638 74.4437 11.3043 74.5125 11.2512C74.5936 11.1907 74.6747 11.1341 74.7601 11.0816C74.8474 11.0297 74.9315 10.9731 75.0119 10.912C75.0829 10.8597 75.1461 10.7986 75.1998 10.7303C75.2389 10.6813 75.2642 10.6237 75.2732 10.5629C75.2821 10.5021 75.2745 10.4402 75.251 10.383C75.2345 10.3413 75.2099 10.303 75.1784 10.2699C75.1416 10.2344 75.0982 10.2057 75.0504 10.1851C74.9916 10.1643 74.9295 10.1533 74.8668 10.1528C74.7712 10.149 74.6774 10.1776 74.6022 10.2335C74.566 10.2634 74.5379 10.3009 74.5201 10.343C74.5023 10.3852 74.4953 10.4307 74.4997 10.4759C74.4986 10.4855 74.4954 10.4948 74.4902 10.5031C74.4851 10.5115 74.4781 10.5187 74.4698 10.5243C74.448 10.5406 74.4208 10.5492 74.393 10.5486C74.3678 10.5491 74.3433 10.5404 74.3247 10.5243C74.3139 10.5091 74.3065 10.4919 74.3028 10.4739C74.2991 10.4558 74.2993 10.4373 74.3034 10.4193V10.4193Z" fill="black"/>
<path d="M76.3736 16.5336C76.492 16.5406 76.609 16.5061 76.7023 16.4367C76.7427 16.3951 76.7735 16.3459 76.7927 16.2923C76.8118 16.2388 76.8188 16.182 76.8133 16.1257V16.0732C76.8185 16.022 76.8108 15.9705 76.7908 15.9227C76.7707 15.8749 76.7389 15.8324 76.698 15.7986C76.606 15.7371 76.4946 15.7072 76.3821 15.7138C76.3709 15.7141 76.3597 15.7121 76.3494 15.7079C76.3391 15.7037 76.3299 15.6975 76.3224 15.6895C76.3099 15.6744 76.3025 15.6561 76.301 15.637C76.2968 15.6184 76.2968 15.5991 76.301 15.5805C76.3081 15.5721 76.3172 15.5655 76.3277 15.5612C76.3381 15.557 76.3495 15.5553 76.3608 15.5563C76.4605 15.5616 76.5594 15.536 76.6425 15.4836C76.6806 15.4482 76.7096 15.4051 76.7274 15.3575C76.7451 15.3099 76.7511 15.2591 76.745 15.209C76.7496 15.1128 76.7178 15.0183 76.6553 14.9424C76.5767 14.8805 76.4756 14.8501 76.3736 14.8576C76.3084 14.8568 76.2434 14.8664 76.1815 14.8859C76.1351 14.9013 76.0929 14.9261 76.0577 14.9586C76.0313 14.9869 76.011 15.0198 75.998 15.0555C75.9935 15.0863 75.9935 15.1176 75.998 15.1484C75.998 15.209 75.9638 15.2372 75.8998 15.2372C75.8852 15.2395 75.8703 15.2385 75.8562 15.2343C75.8421 15.2301 75.8292 15.2228 75.8187 15.213C75.8014 15.1895 75.7938 15.1607 75.7973 15.1322C75.7972 15.088 75.8059 15.0442 75.823 15.003C75.8444 14.9503 75.8747 14.9012 75.9126 14.8576C75.9647 14.8081 76.0272 14.7696 76.0961 14.7445C76.1909 14.7083 76.2928 14.6918 76.3949 14.6961C76.4697 14.6959 76.5442 14.704 76.6169 14.7203C76.6829 14.7347 76.7444 14.7638 76.7962 14.8051C76.8474 14.8448 76.8871 14.8962 76.9114 14.9545C76.973 15.1257 76.9607 15.3129 76.8773 15.4755C76.8381 15.5443 76.7768 15.5994 76.7023 15.633C76.7894 15.6646 76.866 15.7176 76.9242 15.7865C76.9877 15.8694 77.018 15.9711 77.0096 16.0732V16.1257C77.0137 16.217 76.9962 16.3081 76.9584 16.3922C76.9278 16.4595 76.8827 16.52 76.8261 16.5699C76.7653 16.6149 76.6956 16.6478 76.6212 16.6669C76.5405 16.6878 76.4573 16.6986 76.3736 16.6992C76.2793 16.7019 76.1852 16.6882 76.0961 16.6588C76.0236 16.6353 75.9568 16.5983 75.8998 16.5497C75.8507 16.5104 75.8101 16.4624 75.7803 16.4084C75.7578 16.3586 75.7462 16.305 75.7461 16.2509C75.7428 16.2237 75.7504 16.1963 75.7675 16.1742C75.7908 16.1658 75.8167 16.1658 75.84 16.1742C75.8662 16.1649 75.895 16.1649 75.9211 16.1742C75.935 16.1885 75.9426 16.2072 75.9425 16.2267C75.9457 16.3008 75.9776 16.3712 76.0321 16.4245C76.0704 16.4572 76.1155 16.482 76.1644 16.4972C76.2311 16.5219 76.3021 16.5342 76.3736 16.5336V16.5336Z" fill="black"/>
<path d="M75.0802 21.1496H74.3076C74.2851 21.1493 74.2636 21.1406 74.2479 21.1253C74.2346 21.1123 74.227 21.095 74.2265 21.0769C74.2227 21.0609 74.2227 21.0444 74.2265 21.0284L74.9906 19.6836C75.0002 19.6664 75.0151 19.6523 75.0333 19.6432C75.0515 19.6391 75.0705 19.6391 75.0888 19.6432C75.1112 19.6462 75.1329 19.6531 75.1528 19.6634C75.1616 19.6695 75.1689 19.6773 75.1741 19.6864C75.1793 19.6955 75.1822 19.7056 75.1827 19.7159C75.1847 19.7279 75.1847 19.7402 75.1827 19.7522L74.4784 20.9921H75.076V20.4671C75.0765 20.4567 75.0794 20.4467 75.0846 20.4376C75.0897 20.4285 75.097 20.4206 75.1058 20.4146C75.1297 20.4089 75.1546 20.4089 75.1784 20.4146C75.2007 20.4085 75.2244 20.4085 75.2467 20.4146C75.2572 20.4192 75.266 20.4267 75.272 20.436C75.2781 20.4453 75.2811 20.4561 75.2809 20.4671V20.9921H75.4473C75.4584 20.9919 75.4693 20.9943 75.479 20.9993C75.4887 21.0042 75.4969 21.0115 75.5028 21.0203C75.509 21.0387 75.509 21.0585 75.5028 21.0769C75.5035 21.0988 75.4959 21.1203 75.4815 21.1375C75.4761 21.1455 75.4685 21.152 75.4594 21.1563C75.4504 21.1606 75.4403 21.1624 75.4302 21.1617H75.2638V21.5655C75.2639 21.577 75.2608 21.5882 75.2548 21.5982C75.2488 21.6081 75.2401 21.6163 75.2296 21.6221C75.2073 21.6281 75.1837 21.6281 75.1613 21.6221C75.1376 21.6281 75.1125 21.6281 75.0888 21.6221C75.0794 21.6156 75.0717 21.6071 75.0665 21.5972C75.0613 21.5874 75.0587 21.5765 75.0589 21.5655L75.0802 21.1496Z" fill="black"/>
<path d="M71.294 23.7342C71.3775 23.7336 71.4607 23.7431 71.5416 23.7625C71.6144 23.7825 71.6825 23.8154 71.7422 23.8594C71.8003 23.9066 71.8456 23.9661 71.8746 24.0331C71.909 24.1138 71.925 24.2005 71.9215 24.2875V24.344C71.925 24.4337 71.9091 24.523 71.8746 24.6065C71.8446 24.6752 71.7977 24.7361 71.738 24.7842C71.682 24.8344 71.6126 24.8693 71.5373 24.8852C71.4585 24.9078 71.3764 24.9187 71.294 24.9175C71.2013 24.9182 71.109 24.9045 71.0209 24.8771C70.9494 24.8571 70.8827 24.8242 70.8245 24.7802C70.7729 24.7389 70.7308 24.688 70.7007 24.6308C70.6716 24.5771 70.657 24.5174 70.658 24.4571C70.656 24.4442 70.6577 24.431 70.663 24.4189C70.6683 24.4068 70.6769 24.3963 70.6879 24.3885C70.7065 24.3724 70.731 24.3637 70.7562 24.3642C70.8245 24.3642 70.8586 24.3925 70.8586 24.441C70.8588 24.4873 70.8705 24.533 70.8928 24.5742C70.9147 24.6137 70.9471 24.647 70.9867 24.6712C71.0262 24.6993 71.0712 24.7199 71.119 24.7317C71.1758 24.7376 71.233 24.7376 71.2898 24.7317C71.3476 24.7364 71.4058 24.7298 71.4608 24.7125C71.5159 24.6951 71.5666 24.6673 71.6099 24.6308C71.6511 24.5895 71.6827 24.5405 71.7026 24.4869C71.7224 24.4333 71.7301 24.3764 71.7252 24.3198V24.2673C71.7283 24.2127 71.7198 24.1581 71.7 24.1067C71.6801 24.0553 71.6495 24.0083 71.6099 23.9685C71.5671 23.9324 71.5171 23.9049 71.4628 23.8876C71.4086 23.8702 71.3512 23.8634 71.294 23.8675H70.8672C70.8396 23.8771 70.8094 23.8771 70.7818 23.8675C70.7682 23.8547 70.7605 23.8372 70.7605 23.819V23.7665L70.8245 22.9831C70.8245 22.9386 70.8501 22.9144 70.8843 22.9144H71.738C71.748 22.9137 71.7581 22.9155 71.7671 22.9198C71.7762 22.9241 71.7838 22.9306 71.7892 22.9386C71.7996 22.9566 71.8051 22.9767 71.8051 22.9972C71.8051 23.0177 71.7996 23.0378 71.7892 23.0558C71.7838 23.0638 71.7762 23.0703 71.7671 23.0746C71.7581 23.0789 71.748 23.0807 71.738 23.08H71.0038L70.9568 23.7342H71.294Z" fill="black"/>
<path d="M65.9584 24.8973C66.0389 24.8987 66.119 24.9082 66.1974 24.9256C66.2685 24.9405 66.3347 24.9714 66.3904 25.0157C66.4461 25.06 66.4897 25.1164 66.5175 25.18C66.5517 25.2622 66.5677 25.3502 66.5645 25.4385V25.5031C66.5691 25.5958 66.5516 25.6882 66.5133 25.7737C66.4865 25.844 66.4409 25.9067 66.3809 25.9554C66.3222 26.0009 66.2538 26.034 66.1803 26.0523C66.0171 26.0966 65.8441 26.0966 65.6809 26.0523C65.6075 26.034 65.539 26.0009 65.4803 25.9554C65.4216 25.9055 65.3763 25.8433 65.348 25.7737C65.3137 25.6871 65.2964 25.5955 65.2967 25.5031V24.6631C65.2964 24.572 65.3138 24.4817 65.348 24.3965C65.3763 24.3269 65.4216 24.2646 65.4803 24.2148C65.5414 24.1694 65.6109 24.1352 65.6852 24.1138C65.7672 24.0926 65.852 24.0831 65.937 24.0856C66.0286 24.0826 66.1199 24.0963 66.2059 24.126C66.2745 24.1449 66.3382 24.1769 66.3933 24.2199C66.4483 24.263 66.4935 24.3162 66.5261 24.3763C66.5514 24.4311 66.5645 24.4902 66.5645 24.55C66.5666 24.5619 66.5654 24.5742 66.5609 24.5856C66.5564 24.5969 66.5488 24.6069 66.5389 24.6146C66.5166 24.6207 66.4929 24.6207 66.4706 24.6146C66.4468 24.6206 66.4218 24.6206 66.398 24.6146C66.3876 24.6089 66.3789 24.6006 66.3729 24.5907C66.3669 24.5808 66.3638 24.5695 66.3639 24.5581C66.3652 24.5128 66.3534 24.4681 66.3297 24.4288C66.3081 24.3916 66.2774 24.3597 66.2401 24.336C66.1967 24.308 66.1493 24.2863 66.0992 24.2713C66.0447 24.2587 65.9889 24.2519 65.9327 24.2511C65.8752 24.2454 65.817 24.252 65.7625 24.2702C65.708 24.2885 65.6584 24.3181 65.6175 24.3568C65.5766 24.3955 65.5454 24.4423 65.5261 24.4939C65.5068 24.5455 65.4999 24.6006 65.5059 24.655V25.0588C65.5591 24.9975 65.6282 24.9502 65.7065 24.9215C65.7884 24.9002 65.8736 24.892 65.9584 24.8973V24.8973ZM65.4974 25.5354C65.4924 25.592 65.5001 25.6489 65.5199 25.7025C65.5398 25.7561 65.5714 25.8051 65.6126 25.8463C65.7043 25.9115 65.8159 25.9468 65.9306 25.9468C66.0453 25.9468 66.1569 25.9115 66.2486 25.8463C66.2891 25.8048 66.3199 25.7556 66.339 25.702C66.3581 25.6484 66.3651 25.5917 66.3596 25.5354V25.4667C66.3662 25.4116 66.3596 25.3558 66.3404 25.3034C66.3212 25.251 66.2899 25.2033 66.2486 25.1638C66.1565 25.0991 66.043 25.0676 65.9285 25.075C65.8163 25.0706 65.7056 25.1003 65.6126 25.1598C65.5707 25.1955 65.5383 25.2401 65.5183 25.29C65.4982 25.3398 65.4911 25.3935 65.4974 25.4465V25.5354Z" fill="black"/>
<path d="M61.4807 23.2213C61.481 23.2507 61.4705 23.2793 61.4508 23.3021L60.5459 24.8771C60.5401 24.8884 60.5309 24.8978 60.5196 24.9043C60.5082 24.9108 60.4951 24.9139 60.4818 24.9135C60.4515 24.9135 60.4218 24.9051 60.3965 24.8892C60.3842 24.8831 60.374 24.8737 60.3672 24.8623C60.3604 24.8508 60.3572 24.8377 60.358 24.8246C60.3544 24.8128 60.3544 24.8001 60.358 24.7883L61.2672 23.2335V23.0881H60.4135V23.399C60.4145 23.409 60.4121 23.4191 60.4068 23.4278C60.4014 23.4364 60.3933 23.4433 60.3837 23.4475C60.3613 23.4533 60.3377 23.4533 60.3154 23.4475C60.2918 23.4552 60.2663 23.4552 60.2428 23.4475C60.2338 23.4426 60.2263 23.4355 60.221 23.427C60.2158 23.4185 60.213 23.4089 60.2129 23.399V22.9952C60.217 22.9775 60.2276 22.9618 60.2428 22.9508C60.2636 22.9446 60.286 22.9446 60.3068 22.9508H61.3868C61.4078 22.9456 61.4298 22.9456 61.4508 22.9508C61.4588 22.9558 61.4656 22.9623 61.4707 22.97C61.4759 22.9776 61.4793 22.9862 61.4807 22.9952V23.2213Z" fill="black"/>
<path d="M56.7084 19.4332C56.7846 19.4331 56.8605 19.4412 56.9347 19.4575C57.0018 19.4701 57.0648 19.4978 57.1182 19.5382C57.1727 19.5742 57.2143 19.6248 57.2377 19.6836C57.2688 19.7553 57.2833 19.8324 57.2804 19.9098C57.2885 20.0076 57.2631 20.1053 57.2079 20.1884C57.1592 20.2543 57.0908 20.3049 57.0115 20.3338C57.1094 20.369 57.1941 20.4308 57.2548 20.5115C57.3186 20.6111 57.3498 20.7263 57.3444 20.8427V20.875C57.3448 20.9634 57.3274 21.0511 57.2932 21.1334C57.2631 21.1998 57.2179 21.2591 57.1609 21.3071C57.1021 21.3526 57.0337 21.3857 56.9603 21.404C56.7965 21.4444 56.6246 21.4444 56.4609 21.404C56.3867 21.3874 56.3179 21.3542 56.2602 21.3071C56.2006 21.2604 56.1538 21.2008 56.1236 21.1334C56.0908 21.0509 56.0749 20.9632 56.0767 20.875V20.8427C56.0714 20.7263 56.1025 20.6111 56.1663 20.5115C56.2271 20.4308 56.3117 20.369 56.4096 20.3338C56.3304 20.3049 56.262 20.2543 56.2133 20.1884C56.1587 20.105 56.1319 20.0079 56.1364 19.9098C56.1357 19.8325 56.1502 19.7558 56.1791 19.6836C56.2041 19.6246 56.2473 19.5739 56.3029 19.5382C56.3551 19.4983 56.4166 19.4707 56.4822 19.4575C56.5564 19.4414 56.6323 19.4333 56.7084 19.4332V19.4332ZM57.1353 20.8225C57.1408 20.7662 57.1338 20.7094 57.1147 20.6558C57.0956 20.6023 57.0648 20.5531 57.0243 20.5115C56.9308 20.4504 56.8199 20.4176 56.7063 20.4176C56.5927 20.4176 56.4818 20.4504 56.3883 20.5115C56.3471 20.5528 56.3155 20.6018 56.2956 20.6554C56.2758 20.7089 56.2681 20.7659 56.273 20.8225V20.8588C56.2674 20.9161 56.2748 20.9738 56.2947 21.0281C56.3146 21.0824 56.3465 21.1321 56.3883 21.1738C56.4316 21.2103 56.4823 21.2381 56.5374 21.2555C56.5924 21.2729 56.6506 21.2794 56.7084 21.2748C56.7586 21.2804 56.8095 21.2766 56.8581 21.2636C56.9067 21.2506 56.9522 21.2287 56.9918 21.1991C57.0315 21.1694 57.0646 21.1327 57.0892 21.0909C57.1138 21.0492 57.1295 21.0032 57.1353 20.9557C57.1416 20.9237 57.1416 20.8908 57.1353 20.8588V20.8225ZM56.7084 19.5867C56.6096 19.5835 56.5124 19.6104 56.431 19.6634C56.3682 19.7357 56.3339 19.8263 56.3339 19.9199C56.3339 20.0134 56.3682 20.1041 56.431 20.1763C56.5125 20.2298 56.6093 20.2585 56.7084 20.2585C56.8076 20.2585 56.9044 20.2298 56.9859 20.1763C57.0487 20.1041 57.083 20.0134 57.083 19.9199C57.083 19.8263 57.0487 19.7357 56.9859 19.6634C56.9051 19.6095 56.807 19.5838 56.7084 19.5907V19.5867Z" fill="black"/>
<path d="M55.3809 15.8834C55.302 15.8835 55.2232 15.8754 55.1461 15.8591C55.0742 15.8423 55.0072 15.8106 54.9498 15.7663C54.8943 15.7211 54.8505 15.6644 54.8217 15.6007C54.7913 15.5175 54.7754 15.4302 54.7748 15.3422V15.2736C54.7748 15.1825 54.7922 15.0922 54.826 15.007C54.8534 14.9392 54.8975 14.8785 54.9547 14.83C55.0118 14.7816 55.0804 14.7467 55.1547 14.7284C55.3184 14.688 55.4904 14.688 55.6541 14.7284C55.7295 14.7472 55.7995 14.7817 55.859 14.8293C55.9188 14.8775 55.9656 14.9384 55.9956 15.007C56.0301 15.092 56.0461 15.1826 56.0425 15.2736V16.1176C56.0464 16.2099 56.0304 16.3019 55.9956 16.3882C55.9656 16.4568 55.9188 16.5177 55.859 16.5659C55.7995 16.6135 55.7295 16.648 55.6541 16.6668C55.5723 16.6894 55.4874 16.7003 55.4023 16.6992C55.3109 16.6999 55.22 16.6862 55.1333 16.6588C55.0609 16.6343 54.9931 16.5988 54.9327 16.5538C54.8837 16.5121 54.8445 16.4612 54.8175 16.4043C54.7889 16.3519 54.7743 16.2937 54.7748 16.2347C54.7733 16.2229 54.7747 16.2109 54.779 16.1997C54.7832 16.1884 54.7902 16.1783 54.7993 16.1701C54.8084 16.1619 54.8194 16.1558 54.8315 16.1522C54.8435 16.1487 54.8563 16.1479 54.8687 16.1499C54.8925 16.1439 54.9175 16.1439 54.9413 16.1499C54.9518 16.1566 54.9604 16.1656 54.9664 16.1761C54.9723 16.1867 54.9754 16.1985 54.9754 16.2105C54.9721 16.2541 54.9825 16.2976 55.0053 16.3357C55.0285 16.3743 55.0606 16.4074 55.0992 16.4326C55.1419 16.4608 55.1896 16.4813 55.2401 16.4932C55.2939 16.5094 55.35 16.5176 55.4065 16.5174C55.5226 16.5213 55.6363 16.4855 55.7267 16.4165C55.7685 16.3747 55.8004 16.3251 55.8203 16.2707C55.8401 16.2164 55.8475 16.1587 55.8419 16.1015V15.6976C55.7903 15.7588 55.7226 15.8062 55.6456 15.8349C55.5614 15.8669 55.4716 15.8834 55.3809 15.8834V15.8834ZM55.8419 15.2695C55.847 15.212 55.8389 15.1541 55.8183 15.0998C55.7977 15.0454 55.765 14.9959 55.7224 14.9545C55.6317 14.889 55.5207 14.8535 55.4065 14.8535C55.2924 14.8535 55.1814 14.889 55.0907 14.9545C55.0489 14.9962 55.017 15.0459 54.9971 15.1002C54.9772 15.1546 54.9698 15.2123 54.9754 15.2695V15.3341C54.9687 15.3896 54.9757 15.4458 54.9957 15.4983C55.0156 15.5508 55.0481 15.5983 55.0907 15.637C55.1816 15.7013 55.2931 15.7341 55.4065 15.7299C55.4661 15.7361 55.5262 15.7361 55.5858 15.7299C55.6355 15.7175 55.682 15.6955 55.7224 15.6653C55.7604 15.6341 55.791 15.5955 55.812 15.5522C55.8327 15.4964 55.8428 15.4377 55.8419 15.3786V15.2695Z" fill="black"/>
<path d="M56.2986 10.2662L56.1791 10.4439C56.1731 10.4538 56.1644 10.4621 56.1539 10.4677C56.1434 10.4734 56.1315 10.4764 56.1194 10.4762C56.1088 10.4766 56.0982 10.4745 56.0886 10.4703C56.079 10.4661 56.0705 10.4599 56.0639 10.452C56.0506 10.4358 56.0431 10.416 56.0425 10.3955C56.0387 10.3823 56.0387 10.3683 56.0425 10.3551C56.0515 10.341 56.0615 10.3275 56.0724 10.3147L56.3243 9.99971L56.3541 9.97144C56.3695 9.96728 56.3858 9.96728 56.4011 9.97144C56.4208 9.96739 56.4412 9.96739 56.4609 9.97144C56.4697 9.9775 56.477 9.98537 56.4821 9.99446C56.4873 10.0035 56.4902 10.0136 56.4907 10.0239V11.8736C56.4916 11.8846 56.4888 11.8956 56.4827 11.9051C56.4765 11.9145 56.4674 11.9218 56.4566 11.9261C56.4343 11.9321 56.4106 11.9321 56.3883 11.9261C56.3663 11.9338 56.342 11.9338 56.32 11.9261C56.3095 11.9217 56.3009 11.9142 56.2955 11.9047C56.2901 11.8952 56.2882 11.8842 56.2901 11.8736L56.2986 10.2662Z" fill="black"/>
<path d="M58.1042 10.2739C58.0758 10.206 58.0309 10.1453 57.973 10.0969C57.9152 10.0485 57.846 10.0137 57.7713 9.99527C57.6076 9.9549 57.4356 9.9549 57.2719 9.99527C57.1965 10.0134 57.1267 10.0481 57.0681 10.0965C57.0095 10.1449 56.9638 10.2057 56.9347 10.2739C56.9018 10.3593 56.8859 10.4496 56.8877 10.5405V11.4007C56.8862 11.4928 56.9021 11.5844 56.9347 11.6712C56.9638 11.7395 57.0095 11.8003 57.0681 11.8487C57.1267 11.8971 57.1965 11.9318 57.2719 11.9499C57.4356 11.9903 57.6076 11.9903 57.7713 11.9499C57.8463 11.9321 57.9158 11.8975 57.9737 11.849C58.0317 11.8005 58.0764 11.7396 58.1042 11.6712C58.1381 11.5846 58.1555 11.493 58.1555 11.4007V10.5405C58.1558 10.4494 58.1384 10.3591 58.1042 10.2739V10.2739ZM57.9548 11.4007C57.9586 11.4578 57.9504 11.515 57.9306 11.5691C57.9108 11.6232 57.8799 11.673 57.8396 11.7157C57.7492 11.7847 57.6355 11.8205 57.5194 11.8166C57.4044 11.8222 57.2914 11.7861 57.2036 11.7157C57.1618 11.6739 57.1299 11.6243 57.11 11.5699C57.0901 11.5156 57.0827 11.4579 57.0883 11.4007V10.5405C57.0823 10.486 57.0892 10.431 57.1085 10.3794C57.1278 10.3278 57.1591 10.281 57.2 10.2423C57.2409 10.2035 57.2904 10.174 57.3449 10.1557C57.3995 10.1374 57.4576 10.1309 57.5152 10.1366C57.573 10.132 57.6312 10.1385 57.6862 10.1559C57.7413 10.1733 57.792 10.2011 57.8353 10.2376C57.8766 10.2788 57.9081 10.3279 57.928 10.3814C57.9478 10.435 57.9555 10.492 57.9506 10.5485L57.9548 11.4007Z" fill="black"/>
<path d="M60.1958 6.76042L60.0763 6.93811C60.0641 6.95039 60.0472 6.95764 60.0294 6.95831C60.0188 6.95862 60.0082 6.9566 59.9986 6.95239C59.989 6.94818 59.9805 6.94191 59.9739 6.93408C59.9666 6.92725 59.9609 6.91904 59.9572 6.90999C59.9536 6.90094 59.952 6.89125 59.9525 6.88157C59.9481 6.86706 59.9481 6.85167 59.9525 6.83715C59.9615 6.82304 59.9714 6.80954 59.9824 6.79677L60.2342 6.48176L60.2641 6.45349C60.278 6.44945 60.2929 6.44945 60.3068 6.45349C60.3263 6.44788 60.3471 6.44788 60.3666 6.45349C60.3762 6.45764 60.3843 6.46454 60.3897 6.47322C60.395 6.4819 60.3974 6.49194 60.3965 6.50196V8.37178C60.3967 8.38272 60.3937 8.3935 60.3876 8.40282C60.3815 8.41214 60.3728 8.41959 60.3623 8.42428C60.3401 8.43081 60.3162 8.43081 60.294 8.42428C60.2716 8.42975 60.2481 8.42975 60.2257 8.42428C60.2164 8.41871 60.2087 8.41095 60.2035 8.40175C60.1982 8.39255 60.1956 8.38222 60.1958 8.37178V6.76042Z" fill="black"/>
<path d="M61.1563 6.76041L61.0367 6.9381C61.0307 6.94801 61.022 6.95622 61.0115 6.9619C61.001 6.96757 60.9891 6.97051 60.977 6.97041C60.9664 6.97072 60.9558 6.9687 60.9462 6.96449C60.9366 6.96028 60.9281 6.95401 60.9215 6.94618C60.9083 6.93148 60.9007 6.91296 60.9001 6.89367C60.8958 6.87916 60.8958 6.86377 60.9001 6.84925C60.9091 6.83514 60.9191 6.82164 60.93 6.80887L61.1819 6.49386L61.2118 6.46559C61.2271 6.46144 61.2434 6.46144 61.2587 6.46559C61.2782 6.45998 61.299 6.45998 61.3185 6.46559C61.3278 6.46987 61.3354 6.47694 61.34 6.4857C61.3446 6.49447 61.3461 6.50444 61.3441 6.51406V8.37176C61.346 8.38241 61.3441 8.39336 61.3387 8.40288C61.3333 8.41239 61.3246 8.41991 61.3142 8.42426C61.2936 8.43602 61.27 8.44223 61.2459 8.44223C61.2218 8.44223 61.1982 8.43602 61.1776 8.42426C61.1677 8.4189 61.1594 8.41128 61.1535 8.40212C61.1475 8.39295 61.1441 8.38251 61.1435 8.37176L61.1563 6.76041Z" fill="black"/>
<path d="M65.0236 5.30275L64.8998 5.4764C64.894 5.48606 64.8861 5.49435 64.8765 5.50065C64.8668 5.50695 64.8558 5.51109 64.8443 5.51275C64.8334 5.51229 64.8227 5.50951 64.8131 5.50461C64.8035 5.49972 64.7952 5.49283 64.7888 5.48448C64.7805 5.47821 64.7739 5.4702 64.7694 5.46109C64.765 5.45198 64.7628 5.44201 64.7632 5.43198C64.7614 5.41722 64.7614 5.40232 64.7632 5.38756L64.793 5.35121L65.0406 5.03621L65.0748 5.00794C65.0887 5.00433 65.1035 5.00433 65.1175 5.00794C65.1383 5.00146 65.1607 5.00146 65.1815 5.00794C65.1897 5.01334 65.1964 5.02061 65.2008 5.02908C65.2053 5.03754 65.2075 5.04694 65.2071 5.0564V6.90603C65.2073 6.91703 65.2046 6.9279 65.1994 6.93774C65.1942 6.94758 65.1866 6.9561 65.1772 6.96257C65.1554 6.97319 65.1313 6.97874 65.1068 6.97874C65.0823 6.97874 65.0581 6.97319 65.0364 6.96257C65.027 6.9561 65.0193 6.94758 65.0141 6.93774C65.0089 6.9279 65.0063 6.91703 65.0065 6.90603L65.0236 5.30275Z" fill="black"/>
<path d="M65.5785 5.44792C65.5752 5.38482 65.5899 5.32203 65.6212 5.26619C65.6492 5.21113 65.69 5.1628 65.7407 5.12484C65.7945 5.08463 65.8551 5.05324 65.9199 5.03196C65.9926 5.00786 66.0691 4.99557 66.1462 4.99561C66.2292 4.9946 66.3118 5.0083 66.3895 5.036C66.4595 5.06203 66.5244 5.09888 66.5816 5.14504C66.6716 5.22457 66.73 5.33093 66.7471 5.44633C66.7642 5.56174 66.7389 5.6792 66.6755 5.77908C66.6247 5.85784 66.5614 5.92868 66.4877 5.98908C66.4107 6.05496 66.3279 6.11442 66.2401 6.16678C66.1504 6.21928 66.0693 6.27178 65.9925 6.32428C65.9251 6.36986 65.8622 6.42123 65.8047 6.47774C65.7584 6.52337 65.7324 6.5841 65.7321 6.64736V6.81697H66.7011C66.7111 6.81663 66.721 6.81867 66.73 6.8229C66.7389 6.82714 66.7466 6.83343 66.7523 6.8412C66.7656 6.85744 66.773 6.87723 66.7737 6.89774C66.7724 6.91938 66.765 6.9403 66.7523 6.95832C66.7466 6.96609 66.7389 6.97238 66.73 6.97662C66.721 6.98085 66.7111 6.98289 66.7011 6.98255H65.6169C65.5959 6.98768 65.5739 6.98768 65.5529 6.98255C65.544 6.97649 65.5367 6.96862 65.5316 6.95953C65.5264 6.95044 65.5235 6.94036 65.523 6.93005V6.66755C65.5218 6.59242 65.549 6.51937 65.5998 6.46158C65.6546 6.39424 65.7177 6.33324 65.7876 6.27985C65.8645 6.22331 65.9498 6.16678 66.0352 6.11428C66.1225 6.06238 66.2066 6.00574 66.287 5.94466C66.357 5.88982 66.4201 5.82748 66.4749 5.75889C66.5259 5.69655 66.553 5.61964 66.5517 5.54081C66.5507 5.4967 66.542 5.45304 66.5261 5.41158C66.5103 5.36866 66.484 5.3299 66.4492 5.2985C66.4125 5.26393 66.369 5.23649 66.3212 5.21773C66.2653 5.19269 66.2036 5.18156 66.1419 5.18542C66.0463 5.18164 65.9525 5.21028 65.8773 5.26619C65.8411 5.29603 65.813 5.33356 65.7952 5.37568C65.7774 5.4178 65.7704 5.46333 65.7748 5.5085C65.7724 5.52696 65.7634 5.54408 65.7492 5.55696C65.7255 5.57275 65.6971 5.58121 65.6681 5.58119C65.6429 5.58171 65.6184 5.57304 65.5998 5.55696C65.5884 5.54119 65.5807 5.52335 65.577 5.50457C65.5733 5.4858 65.5738 5.4665 65.5785 5.44792Z" fill="black"/>
<path d="M64.2677 9.66406L63.2373 9.99594L65.7602 17.0074L66.7906 16.6755L64.2677 9.66406Z" fill="#3C3C3B"/>
<path d="M66.794 14.6549L58.5481 19.6212L58.9378 20.2004L67.1837 15.234L66.794 14.6549Z" fill="#3C3C3B"/>
<path d="M64.9851 16.7032L72.0112 6.8089L65.3181 16.9051L64.9851 16.7032Z" fill="#3C3C3B"/>
<path d="M66.3383 15.0353C66.4782 15.1264 66.5862 15.2549 66.6486 15.4043C66.7109 15.5538 66.7247 15.7175 66.6882 15.8744C66.6517 16.0313 66.5665 16.1744 66.4436 16.2853C66.3207 16.3961 66.1656 16.4698 65.9982 16.4969C65.8308 16.524 65.6587 16.5032 65.5038 16.4372C65.349 16.3712 65.2185 16.263 65.1289 16.1265C65.0394 15.99 64.995 15.8313 65.0013 15.6707C65.0076 15.5101 65.0644 15.355 65.1644 15.2251C65.2954 15.055 65.4914 14.94 65.7106 14.9046C65.9298 14.8691 66.155 14.916 66.3383 15.0353Z" fill="#3C3C3B"/>
</svg>
