<svg width="103" height="119" viewBox="0 0 103 119" fill="none" xmlns="http://www.w3.org/2000/svg">
<path d="M12.7383 81.764V38.0083L50.6075 16.1278L88.4692 38.0083V81.764L50.6075 103.645L12.7383 81.764Z" stroke="#8E24AA"/>
<path d="M12.7756 81.6716V81.7436L12.8378 81.7794L50.5454 103.565L50.6075 103.601L50.6696 103.565L88.3698 81.7794L88.4319 81.7436V81.6716V38.1007V38.0288L88.3698 37.9929L50.6696 16.2074L50.6075 16.1715L50.5454 16.2074L12.8378 37.9929L12.7756 38.0288V38.1007V81.6716ZM12.7383 81.764V38.0083L50.6075 16.1278L88.4692 38.0083V81.764L50.6075 103.645L12.7383 81.764Z" stroke="#8E24AA"/>
<path d="M18.2043 78.7307V41.331L50.6078 22.631L82.9939 41.331V78.7307L50.6078 97.4307L18.2043 78.7307Z" stroke="#8E24AA"/>
<path d="M18.2416 78.6382V78.7102L18.3038 78.7461L50.5457 97.3535L50.6078 97.3894L50.6699 97.3535L82.8945 78.7461L82.9567 78.7102V78.6382V41.4234V41.3515L82.8945 41.3156L50.6699 22.7106L50.6078 22.6748L50.5457 22.7106L18.3038 41.3156L18.2416 41.3515V41.4234V78.6382ZM18.2043 78.7307V41.331L50.6078 22.631L82.9939 41.331V78.7307L50.6078 97.4307L18.2043 78.7307Z" stroke="#8E24AA"/>
<path d="M23.4458 75.7942V44.4891L50.6074 28.845L77.7516 44.4891V75.7942L50.6074 91.4482L23.4458 75.7942Z" stroke="#8E24AA"/>
<path d="M23.4831 75.7018V75.7737L23.5455 75.8096L50.5455 91.3685L50.6074 91.4043L50.6693 91.3685L77.6619 75.8096L77.7243 75.7737V75.7018V44.584V44.512L77.6619 44.4761L50.6693 28.9147L50.6074 28.8789L50.5455 28.9147L23.5455 44.4761L23.4831 44.512V44.584V75.7018ZM23.4458 75.7942V44.4891L50.6074 28.845L77.7516 44.4891V75.7942L50.6074 91.4482L23.4458 75.7942Z" stroke="#8E24AA"/>
<path d="M28.7209 72.5188L28.7134 47.3362L50.6083 34.7479L72.4931 47.3362V72.5191L50.6083 85.1071L28.7209 72.5188Z" stroke="#8E24AA"/>
<path d="M28.7507 72.4242V72.4964L28.8131 72.5323L50.5464 85.0277L50.6083 85.0633L50.6701 85.0277L72.3935 72.5323L72.4558 72.4964V72.4242V47.4308V47.3589L72.3935 47.3227L50.6701 34.8198L50.6083 34.7842L50.5464 34.8198L28.8131 47.3227L28.7507 47.3589V47.4308V72.4242ZM28.7134 72.5163V47.3362L50.6083 34.7479L72.4931 47.3362V72.5166L50.6083 85.1071L28.7134 72.5163Z" stroke="#8E24AA"/>
<path d="M34.2279 69.5308L34.218 50.4791L50.6074 40.9525L66.9894 50.4791V69.5308L50.6074 79.0574L34.2279 69.5308Z" stroke="#8E24AA"/>
<path d="M34.2654 69.3136H34.2281V50.4791L50.6076 40.9525L66.9896 50.4791V69.5308L50.6076 79.0574L34.2281 69.5308V69.4939L34.3173 69.5457L50.5452 78.9777L50.6076 79.0141L50.67 78.9777L66.8904 69.5457L66.9523 69.5099V69.4381V50.5717V50.5L66.8904 50.4641L50.67 41.0322L50.6076 40.9958L50.5452 41.0322L34.3273 50.4641L34.2654 50.5V50.5717V69.3136Z" stroke="#8E24AA"/>
<path d="M39.9224 66.0984L39.9125 53.6792L50.6076 47.4526L61.2853 53.6792V66.1109L50.6076 72.315L39.9224 66.0984Z" stroke="#8E24AA"/>
<path d="M39.9575 53.7519V65.9542L39.9202 66.004V53.6792L50.6079 47.4526L61.2856 53.6792V66.1084L50.6079 72.315L39.9202 66.0884V66.06L40.0119 66.1136L50.5455 72.2355L50.6079 72.2716L50.6703 72.2353L61.1939 66.1133L61.2558 66.0775V66.0057V53.7619V53.6901L61.1939 53.6543L50.6703 47.5224L50.6079 47.486L50.5455 47.5224L40.0194 53.6443L39.9575 53.6802V53.7519Z" stroke="#8E24AA"/>
<path d="M45.2633 63.0001V56.7676L50.6071 53.6618L55.951 56.7676V63.0001L50.6071 66.1084L45.2633 63.0001Z" stroke="#8E24AA"/>
<path d="M45.2981 62.9025H45.3729L45.3155 62.9673L45.3229 62.9773L45.3992 63.0794L45.2633 63.0002V56.7677L50.6071 53.6594L55.951 56.7677V63.0002L50.6071 66.1085L45.5466 63.1651V63.113L50.5447 66.0166L50.6071 66.0527L50.6695 66.0163L55.8518 63.0002L55.9137 62.9643V62.8926V56.8628V56.7911L55.8518 56.755L50.6695 53.7488L50.6071 53.7127L50.5447 53.749L45.36 56.7652L45.2981 56.801V56.8728V62.9025Z" stroke="#8E24AA"/>
<path d="M51.1104 41L88.5 38.5L73 72L51.1104 60.1916V41Z" fill="#8E24AA" fill-opacity="0.7" stroke="#8E24AA" stroke-miterlimit="10"/>
<path d="M48.1399 11H49.8199V7.64H51.4519L53.5879 11H55.5919L53.1559 7.328C54.3439 6.968 55.1359 6.104 55.1359 4.784C55.1359 2.744 53.5399 2.084 51.4039 2.084H48.1399V11ZM49.8199 6.236V3.488H51.2599C52.6399 3.488 53.3959 3.812 53.3959 4.784C53.3959 5.756 52.6399 6.236 51.2599 6.236H49.8199Z" fill="#8E24AA"/>
<path d="M7.45898 38.903C7.39258 39.821 7.05273 40.5436 6.43945 41.071C5.83008 41.5983 5.02539 41.862 4.02539 41.862C2.93164 41.862 2.07031 41.4948 1.44141 40.7604C0.816406 40.0222 0.503906 39.0104 0.503906 37.7253V37.2038C0.503906 36.3835 0.648438 35.6608 0.9375 35.0358C1.22656 34.4108 1.63867 33.9323 2.17383 33.6003C2.71289 33.2643 3.33789 33.0964 4.04883 33.0964C5.0332 33.0964 5.82617 33.36 6.42773 33.8874C7.0293 34.4147 7.37695 35.155 7.4707 36.1081H5.71289C5.66992 35.5573 5.51562 35.1589 5.25 34.9128C4.98828 34.6628 4.58789 34.5378 4.04883 34.5378C3.46289 34.5378 3.02344 34.7487 2.73047 35.1706C2.44141 35.5886 2.29297 36.239 2.28516 37.1218V37.7663C2.28516 38.6882 2.42383 39.362 2.70117 39.7878C2.98242 40.2136 3.42383 40.4265 4.02539 40.4265C4.56836 40.4265 4.97266 40.3034 5.23828 40.0573C5.50781 39.8073 5.66211 39.4225 5.70117 38.903H7.45898Z" fill="#8E24AA"/>
<path d="M5.89453 88.686H2.51953V90.9711H6.48047V92.3832H0.761719V83.852H6.46875V85.2758H2.51953V87.309H5.89453V88.686Z" fill="#8E24AA"/>
<path d="M53.3137 116.369C53.3137 116.037 53.1965 115.783 52.9621 115.607C52.7277 115.427 52.3059 115.24 51.6965 115.044C51.0871 114.845 50.6047 114.65 50.2492 114.458C49.2805 113.935 48.7961 113.23 48.7961 112.343C48.7961 111.882 48.925 111.472 49.1828 111.113C49.4445 110.749 49.8176 110.466 50.302 110.263C50.7902 110.06 51.3371 109.958 51.9426 109.958C52.552 109.958 53.0949 110.07 53.5715 110.292C54.048 110.511 54.4172 110.822 54.6789 111.224C54.9445 111.626 55.0773 112.083 55.0773 112.595H53.3195C53.3195 112.205 53.1965 111.902 52.9504 111.687C52.7043 111.468 52.3586 111.359 51.9133 111.359C51.4836 111.359 51.1496 111.451 50.9113 111.634C50.673 111.814 50.5539 112.052 50.5539 112.349C50.5539 112.626 50.6926 112.859 50.9699 113.046C51.2512 113.234 51.6633 113.41 52.2063 113.574C53.2063 113.874 53.9348 114.247 54.3918 114.693C54.8488 115.138 55.0773 115.693 55.0773 116.357C55.0773 117.095 54.798 117.675 54.2395 118.097C53.6809 118.515 52.9289 118.724 51.9836 118.724C51.3273 118.724 50.7297 118.605 50.1906 118.367C49.6516 118.124 49.2395 117.794 48.9543 117.376C48.673 116.958 48.5324 116.474 48.5324 115.923H50.2961C50.2961 116.865 50.8586 117.335 51.9836 117.335C52.4016 117.335 52.7277 117.251 52.9621 117.083C53.1965 116.912 53.3137 116.673 53.3137 116.369Z" fill="#8E24AA"/>
<path d="M100.019 90.6254H96.9365L96.3506 92.3832H94.4814L97.6572 83.852H99.2861L102.479 92.3832H100.61L100.019 90.6254ZM97.4111 89.2016H99.5439L98.4717 86.0082L97.4111 89.2016Z" fill="#8E24AA"/>
<path d="M97.9792 40.8405H96.2214V32.3093H97.9792V40.8405Z" fill="#8E24AA"/>
</svg>
