<svg width="100" height="90" viewBox="0 0 100 90" fill="none" xmlns="http://www.w3.org/2000/svg">
<path d="M76.7649 84.2071L76.8771 85.0826L74.3504 85.1629L74.2053 84.2874L76.7649 84.2071Z" fill="#5874CB"/>
<path d="M82.2428 84.9971L82.1168 85.9295L79.9432 86.1548L79.5654 84.8365L82.2428 84.9971Z" fill="#5874CB"/>
<path d="M83.1051 52.1555C83.4336 53.8442 83.2501 63.7148 83.0612 66.0148C82.8724 68.3147 82.8094 68.9985 83.1981 69.8376C83.5869 70.6768 83.7758 72.9638 83.6142 76.1988C83.4527 79.4337 83.2885 84.4506 83.1242 84.8806C82.96 85.3105 80.0143 85.8156 78.9549 85.0515C78.9397 85.0416 78.927 85.0285 78.918 85.0132C78.909 84.9979 78.9038 84.9809 78.9029 84.9634C78.87 84.0647 78.4238 72.0444 78.3554 70.2469C78.2951 68.3795 76.6882 58.4855 76.6882 58.4855L74.5529 71.2725C74.5529 71.2725 76.2228 72.2826 76.7429 76.8074C77.2138 80.8997 77.4848 83.6477 77.5341 84.132C77.5366 84.1555 77.532 84.1792 77.5209 84.2003C77.5098 84.2214 77.4925 84.239 77.4711 84.2512C77.1536 84.4325 75.7985 85.1137 73.6714 84.8443C73.6386 84.8404 73.6079 84.8268 73.5838 84.8054C73.5597 84.784 73.5434 84.7559 73.5372 84.7252C73.3785 83.8523 72.2424 77.7165 71.6511 75.7611C71.0159 73.6579 70.2439 72.0884 70.1481 70.884C70.0523 69.6797 70.3233 60.1069 70.5013 57.9753C70.6792 55.8437 71.5498 51.6116 71.5498 51.6116L83.1051 52.1555Z" fill="#755640"/>
<path d="M81.1203 85.4219C81.8896 85.4219 82.3577 85.4866 82.4262 85.9735C82.4946 86.4605 82.9354 86.8438 83.1681 87.0821C83.4007 87.3204 84.0277 87.6648 83.9291 88.2787C83.8305 88.8925 83.4391 88.9521 82.2099 88.9909C80.9807 89.0298 80.31 88.5014 80.1047 88.0352C79.8994 87.569 79.8556 87.2945 79.6941 87.1313C79.5326 86.9681 79.7297 85.7094 79.9131 85.6109C80.2947 85.4608 80.7079 85.3961 81.1203 85.4219V85.4219Z" fill="#4A3E36"/>
<path d="M77.0304 84.9971C77.3616 85.2406 77.3589 86.9319 77.233 87.1624C77.1071 87.3929 75.897 87.3903 75.6808 87.3773C75.331 87.301 74.968 87.2957 74.6159 87.3618C73.9629 87.6131 73.2696 87.7576 72.5654 87.7892C71.3363 87.8591 70.1837 87.6804 69.91 87.5043C69.6362 87.3281 69.7047 86.6729 69.8717 86.4864C70.0386 86.2999 71.0214 86.2973 71.9549 86.072C72.8885 85.8466 73.6824 85.5773 73.8521 85.4063C74.0218 85.2354 73.8986 84.9453 74.8595 84.9324C75.8204 84.9194 76.7238 84.7744 77.0304 84.9971Z" fill="#4A3E36"/>
<path d="M74.1505 51.7333C73.8494 54.8724 72.3739 70.5344 72.7818 71.2829C73.1897 72.0314 75.8451 79.0374 76.4309 84.663C76.7951 84.5655 77.1454 84.4263 77.474 84.2486C77.4956 84.2367 77.513 84.219 77.5242 84.1979C77.5354 84.1767 77.5398 84.1529 77.5369 84.1294C77.4904 83.6451 77.2166 80.8997 76.7485 76.8048C76.2284 72.28 74.5584 71.2725 74.5584 71.2725L76.6883 58.4855C76.6363 56.9315 76.6746 52.8833 76.6883 51.855L74.1505 51.7333Z" fill="#64452D"/>
<path d="M83.0613 66.0148C83.2502 63.7148 83.4336 53.8416 83.1051 52.1555L80.6194 52.0389C81.1094 57.1568 80.4606 68.3095 80.8931 70.5551C81.2737 72.4795 81.7144 80.9152 81.7801 85.3597C82.4837 85.2509 83.0449 85.0567 83.1133 84.8806C83.2776 84.4506 83.4418 79.4415 83.6033 76.2014C83.7649 72.9612 83.5787 70.6742 83.1872 69.8376C82.7958 69.0011 82.8751 68.3277 83.0613 66.0148Z" fill="#64452D"/>
<path d="M87.9123 38.7339C87.9123 38.7339 88.3831 36.7759 87.9725 36.0817C87.5619 35.3876 86.4805 36.0817 86.4805 36.0817L87.9123 38.7339Z" fill="#B0B35E"/>
<path d="M68.2976 36.3589C68.3941 35.8054 68.5453 35.2617 68.7493 34.7349C69.0231 34.1211 69.4556 35.5456 69.4556 35.5456L68.2976 36.3589Z" fill="#B0B35E"/>
<path d="M85.6072 33.8802L85.0433 34.3128C84.7695 34.52 83.3679 34.4915 82.3523 34.0848C81.3366 33.6782 81.4762 33.0488 82.0237 31.1011L77.9831 31.4223C77.9831 31.4223 77.7997 34.0434 76.8224 34.191C76.4391 34.248 74.0848 33.9631 73.5181 33.6912C73.2964 33.585 72.4231 32.7717 71.4074 31.7849L69.19 36.377C70.1509 37.628 71.0242 38.7314 71.0242 38.7314L71.4485 51.6116C74.427 53.0465 83.2009 52.7642 83.2009 52.7642C83.2009 52.7642 83.2693 49.2728 83.8251 47.5841C84.3808 45.8954 85.7934 40.231 85.7934 40.231C86.486 39.5757 87.1622 38.8893 87.8 38.2004L87.6987 38.2133L85.6072 33.8802Z" fill="#C8C762"/>
<path d="M85.6072 33.8802L85.0433 34.3128C84.7695 34.52 83.3679 34.4915 82.3523 34.0848C81.3366 33.6782 81.4762 33.0488 82.0237 31.1011L77.9831 31.4223C77.9831 31.4223 77.7997 34.0434 76.8224 34.191C76.4391 34.248 74.0848 33.9631 73.5181 33.6912C73.2964 33.585 72.4231 32.7717 71.4074 31.7849L69.19 36.377C70.1509 37.628 71.0242 38.7314 71.0242 38.7314L71.4485 51.6116C74.427 53.0465 83.2009 52.7642 83.2009 52.7642C83.2009 52.7642 83.2693 49.2728 83.8251 47.5841C84.3808 45.8954 85.7934 40.231 85.7934 40.231C86.486 39.5757 87.1622 38.8893 87.8 38.2004L87.6987 38.2133L85.6072 33.8802Z" fill="#C8C762"/>
<path d="M99.8782 17.1357C99.5607 16.9285 98.4054 16.8922 97.9619 17.1978C97.5184 17.5034 96.7136 19.2906 96.5192 19.477C96.3249 19.6635 96.1661 18.3892 95.9115 18.0991C95.6569 17.8091 95.4461 17.8764 95.5282 18.0991C95.6487 18.4022 95.698 19.8863 95.8978 20.9223C95.9412 21.281 95.9011 21.6444 95.7801 21.9868C95.6377 22.3546 94.3155 24.1469 93.2068 25.4212C92.0981 26.6955 91.7148 28.9695 90.8935 29.7232C90.2146 30.35 86.9706 32.852 85.6155 33.8932L87.707 38.2211H87.8083C89.6066 36.3123 91.2597 34.2853 92.7551 32.1553C93.2643 31.3368 95.0464 29.4564 96.0402 26.9467C97.0339 24.437 97.502 22.598 97.6416 22.1577C97.7813 21.7174 98.8215 20.7358 99.3389 20.1349C99.8563 19.534 100.193 17.3454 99.8782 17.1357Z" fill="#E7BC94"/>
<path d="M67.6543 27.8921C67.2245 27.2782 66.6605 25.7993 65.6449 24.525C64.6292 23.2507 62.8772 21.3755 62.598 20.7099C62.3187 20.0443 62.4939 19.2647 62.4228 18.6871C62.3516 18.1095 62.7239 16.6695 62.3489 16.6151C62.1353 16.5814 61.8862 17.9463 61.8013 18.0966C61.7165 18.2468 60.9801 16.6099 60.7638 16.2835C60.5475 15.9572 59.1486 15.4185 59.0583 15.6619C58.968 15.9054 58.6696 17.6563 59.1623 18.5576C59.5542 19.2914 60.0238 19.9856 60.564 20.6296C60.9363 21.0518 61.262 21.6216 61.9464 23.6289C62.6308 25.6361 64.0544 28.5292 64.8565 29.4513C65.6586 30.3733 66.1814 31.961 66.8385 33.1084C67.1697 33.686 68.2346 35.1079 69.2119 36.377L71.4294 31.7849C69.8224 30.2542 67.9061 28.2676 67.6543 27.8921Z" fill="#E7BC94"/>
<path d="M81.6323 33.3622C81.5419 32.9064 81.7089 32.2304 82.0237 31.1167L77.9831 31.4378C77.9831 31.4378 77.849 33.3311 77.2056 33.9864C77.2056 33.9864 77.2768 35.4498 78.5333 35.1908C79.7899 34.9318 81.6268 33.3778 81.6268 33.3778L81.6323 33.3622Z" fill="#E7BC94"/>
<path opacity="0.5" d="M82.0238 31.1037L77.9831 31.4249C77.9263 32.1419 77.7613 32.8475 77.4931 33.5202V33.5202C77.8545 33.9243 80.6304 33.9527 81.5995 33.0255C81.669 32.3726 81.8113 31.7284 82.0238 31.1037Z" fill="#DEAC80"/>
<path d="M76.9811 26.0635C76.9811 26.0635 76.0093 24.955 76.9127 23.3103C76.9127 23.3103 77.6491 23.8283 79.267 23.3103C80.8849 22.7923 82.8614 24.5561 82.8614 24.5561L81.5392 26.7706C81.5392 26.7706 78.2541 24.9083 77.786 25.1984C77.4509 25.4243 77.1754 25.7204 76.9811 26.0635Z" fill="#4A3E36"/>
<path d="M77.1619 25.789C76.4063 26.5297 76.3406 27.5735 76.2147 28.0319C76.0887 28.4904 75.5905 29.4823 75.6973 30.363C75.804 31.2436 76.2092 33.0281 77.14 33.3026C78.0707 33.5772 79.9597 32.9193 80.425 32.8157C80.8904 32.7121 81.7254 32.0568 81.98 31.2798C82.1452 31.2187 82.298 31.1311 82.4317 31.0208C82.8194 30.7157 83.1507 30.3516 83.4117 29.9434C83.5705 29.6377 83.6253 29.2389 83.1654 29.2674C82.7054 29.2959 82.2811 29.8294 82.2811 29.8294C82.2811 29.8294 82.2455 27.4984 81.0136 26.6877C79.7817 25.877 77.6902 25.2709 77.1619 25.789Z" fill="#E7BC94"/>
<path d="M76.9812 26.0635C76.8347 25.7662 76.7867 25.434 76.8434 25.1105C76.9001 24.7869 77.0588 24.4872 77.2987 24.2505C78.1693 23.3828 79.7434 23.2145 81.0191 23.4994C82.7164 23.8905 84.4082 25.7372 84.3589 27.0166C84.3097 28.2961 83.8826 28.5137 83.3871 29.3477C83.3871 29.3477 82.8396 28.9074 81.9581 30.2179H81.6433C81.6433 30.2179 81.7884 27.4828 79.8584 26.4313C77.9284 25.3797 77.2823 25.6854 76.9812 26.0635Z" fill="#4A3E36"/>
<path d="M70.3398 30.7333C70.3398 30.7333 69.4611 35.5042 68.2976 36.3589L71.0352 38.7339L73.5291 33.6937L70.3398 30.7333Z" fill="#C8C762"/>
<path d="M86.8584 32.9167C86.8052 34.9023 87.1633 36.8785 87.9123 38.7339L85.7962 40.2284L85.0461 34.3153L86.8584 32.9167Z" fill="#C8C762"/>
<path opacity="0.5" d="M85.7934 40.2284L87.9095 38.7339C87.8438 38.5811 87.7836 38.4283 87.7261 38.2755C87.7508 38.2496 87.7781 38.2237 87.8 38.1978L87.6987 38.2108C87.5123 37.7018 87.3578 37.1829 87.2361 36.6567C85.1637 38.2108 83.6772 38.7288 83.6772 38.7288C83.6772 38.7288 81.5529 47.8301 81.5529 48.8946C81.5529 49.9048 74.8267 50.3243 71.3992 50.0187L71.4512 51.609C74.4325 53.0439 83.2036 52.7616 83.2036 52.7616C83.2036 52.7616 83.2721 49.2702 83.8278 47.5815C84.3835 45.8928 85.7934 40.2284 85.7934 40.2284Z" fill="#B0B35E"/>
<path d="M24.4581 25.0741C24.5868 24.6597 24.2555 23.9474 24.5019 23.4009C24.7483 22.8544 24.8633 21.7304 24.9865 21.7329C25.1097 21.7355 25.3314 21.865 25.3588 22.251C25.3862 22.6369 25.2301 23.5848 25.3095 23.603C25.3889 23.6211 26.1007 22.5877 26.4045 22.1603C26.7084 21.7329 27.3161 20.842 27.5406 20.8653C27.7651 20.8886 27.7624 21.0181 27.6994 21.2227C27.6364 21.4273 27.0123 22.4167 26.9329 22.5825C26.8535 22.7482 26.7002 22.9503 26.8809 22.9114C27.0615 22.8726 27.8418 21.6164 28.1894 21.2745C28.5371 20.9326 28.8547 21.7925 28.9176 21.9505C28.9806 22.1085 29.008 22.2095 29.0436 22.352C29.0791 22.4944 29.0244 22.611 29.1093 22.6887C29.2516 22.8285 29.1257 22.9477 29.0928 23.0409C28.9833 23.3232 27.8144 24.3877 27.6939 24.639C27.5735 24.8902 26.7878 25.8563 26.1226 26.136C25.4573 26.4157 25.0576 27.1358 24.8907 27.4466C24.8907 27.4466 23.7409 27.3689 23.2481 26.6696C23.2344 26.6592 24.3295 25.4911 24.4581 25.0741Z" fill="#E7BC94"/>
<path d="M28.6274 21.3755C28.6139 21.4618 28.5803 21.5441 28.5289 21.6164C28.2058 22.1344 27.4174 23.1342 27.4749 23.2015C27.5324 23.2688 28.9368 21.4973 28.9368 21.4973L28.6274 21.3755Z" fill="white"/>
<path d="M28.4824 22.0697C28.6466 21.9168 28.8109 21.7848 28.9094 21.9402C28.956 22.0179 29.0545 21.8443 29.0436 21.7822C29.0326 21.72 29.0107 21.4921 28.9368 21.4973C28.8686 21.5073 28.8016 21.5237 28.737 21.5465L28.4824 22.0697Z" fill="white"/>
<path d="M2.7738 60.9383C3.1598 64.8233 3.90168 67.8951 3.83598 68.869C3.77028 69.8428 3.07494 72.3137 3.83598 75.6782C4.36707 77.9885 5.3088 81.1535 5.24309 82.9795C5.17739 84.8054 4.67368 85.8984 4.67368 87.2349C4.67368 88.5713 4.79961 88.9365 6.53797 88.9365C8.36119 88.9365 7.8739 86.9344 7.68774 86.0228C7.50159 85.1111 7.11286 83.5182 7.04989 82.7308C6.90206 80.7857 7.49064 76.3257 7.55908 75.0721C7.68775 72.7411 7.37293 70.928 7.04989 69.1668C6.91575 68.4338 7.34007 66.6882 7.58098 65.129C7.91496 62.943 8.12849 60.9305 8.12849 60.9305L2.7738 60.9383Z" fill="#E7BC94"/>
<path d="M13.7378 60.3866C15.1531 63.7951 15.6541 67.3927 15.7718 67.9987C15.8895 68.6048 16.9352 70.6898 17.7729 72.8783C18.6106 75.0669 20.0807 81.8839 20.5954 83.2229C21.11 84.562 21.7534 86.072 22.3967 86.6314C23.04 87.1909 24.5183 87.4214 24.647 88.1492C24.7756 88.877 20.6611 88.7604 20.5406 88.4548C20.4202 88.1492 20.2176 86.6418 19.3826 86.2041C18.5477 85.7663 17.6443 85.0489 18.033 84.3185C18.4217 83.5881 18.8023 83.3447 18.3533 82.4304C17.9043 81.5161 16.3029 77.5093 15.0162 76.1314C13.7295 74.7535 13.2094 70.7364 12.4374 69.703C11.6654 68.6695 9.12494 63.619 8.67598 62.2204C8.22702 60.8217 13.7378 60.3866 13.7378 60.3866Z" fill="#E7BC94"/>
<path d="M3.19539 49.5939C2.56027 50.9511 0.906777 53.3003 1.16411 56.2218C1.42144 59.1434 2.69989 63.8003 2.57122 64.6524C2.44255 65.5045 13.4531 65.0461 15.2051 63.5698C15.2051 63.5698 13.798 57.6127 13.1547 56.025C12.5113 54.4373 12.4785 53.94 12.4429 52.4274C12.4397 51.4209 12.2546 50.4223 11.8954 49.4748C11.7038 49.0474 3.19539 49.5939 3.19539 49.5939Z" fill="#5E5046"/>
<path d="M17.9919 84.8779C18.2687 86.0856 18.4354 87.3134 18.4902 88.548H19.0377C18.9564 87.6479 18.9794 86.742 19.1061 85.8466C19.3306 84.751 17.9919 84.8779 17.9919 84.8779Z" fill="#DB4B51"/>
<path d="M6.53793 88.9417C4.79957 88.9417 4.67365 88.5765 4.67365 87.2401C4.67671 86.8369 4.71701 86.4348 4.7941 86.0383C4.77528 86.1751 4.78514 86.314 4.82312 86.4471C4.8611 86.5803 4.92646 86.705 5.01546 86.8142C5.10445 86.9234 5.21533 87.015 5.34176 87.0836C5.46819 87.1522 5.60768 87.1966 5.75225 87.2142C5.83509 87.222 5.91853 87.222 6.00137 87.2142C7.33183 87.1935 7.80269 86.6133 7.68771 86.0254C7.87387 86.9396 8.36115 88.9443 6.53793 88.9417Z" fill="#DB4B51"/>
<path d="M19.3744 86.1989C18.5367 85.7715 17.636 85.0437 18.022 84.3133C18.1644 84.0543 18.2958 83.8419 18.4053 83.6477C18.4053 83.6477 20.0205 84.663 20.4941 85.7197C20.9677 86.7764 21.8464 87.8073 23.4151 87.1883C23.9982 87.4473 24.5703 87.7063 24.647 88.1518C24.7784 88.8821 20.6611 88.763 20.5406 88.4574C20.4202 88.1518 20.2094 86.6288 19.3744 86.1989Z" fill="#DB4B51"/>
<path d="M3.69638 51.1842C3.94276 51.1479 10.4418 51.5572 12.8563 51.7022C12.8837 52.0756 12.8837 52.4503 12.8563 52.8237C12.0131 53.2821 6.48323 53.9141 3.54855 53.3676C3.54855 53.3676 2.33307 55.8955 2.69717 58.5684C2.99556 60.7492 3.51844 63.9375 3.51844 64.9787C2.9107 64.901 2.55208 64.7871 2.57398 64.642C2.70264 63.7899 1.4242 59.1304 1.16687 56.2115C0.991661 54.2249 1.69795 52.5155 2.36866 51.1894C2.92986 51.2075 3.54308 51.2075 3.69638 51.1842Z" fill="#4A3E36"/>
<path d="M8.98806 30.1687C8.96343 31.904 9.10852 32.1734 9.71626 32.7302C10.324 33.2871 10.992 34.2635 10.6607 34.823C10.3295 35.3824 7.83281 34.823 7.83281 34.823L7.34552 31.1607L8.98806 30.1687Z" fill="#372115"/>
<path d="M2.63689 26.035C2.86264 25.7202 3.13985 25.4413 3.45816 25.2088C3.57314 25.1207 3.66895 25.0534 3.73191 25.0145V25.0301C4.03158 24.8428 4.35665 24.6947 4.69828 24.5898C6.92392 23.9267 8.23248 25.2528 8.99353 26.6851C8.99353 26.6851 5.43469 32.8882 4.98025 32.1863C4.90728 32.0824 4.82083 31.9876 4.72292 31.904C4.82968 32.3158 4.92002 32.7846 4.92002 32.7846L3.59504 32.9452C2.62867 31.5984 1.97713 30.306 1.84299 29.4098C1.73171 28.8256 1.7446 28.2263 1.88091 27.6468C2.01722 27.0674 2.27422 26.5194 2.63689 26.035V26.035Z" fill="#372115"/>
<path d="M3.22828 32.5153C3.12972 33.1058 1.34756 33.8647 2.13325 35.6026C2.91893 37.3405 5.61818 35.0846 5.61818 35.0846L5.55795 32.2096L4.38901 31.7175L3.22828 32.5153Z" fill="#372115"/>
<path d="M7.93414 31.1607C7.66038 32.0931 7.80274 32.9918 8.12577 33.4917C8.4488 33.9916 9.6725 34.3749 9.30019 35.3254C8.92788 36.276 5.42926 36.1439 5.42926 36.1439L7.93414 31.1607Z" fill="#372115"/>
<path d="M13.7898 43.3157L13.8336 44.9086C14.4934 44.7687 16.4617 44.5745 16.9435 44.6366C17.4253 44.6988 18.6681 44.2196 19.0103 44.1057C19.3525 43.9917 20.1054 43.2872 20.2121 42.9117C20.3189 42.5361 20.5187 42.1347 20.3737 41.7487C20.2286 41.3628 20.1163 41.4328 19.974 41.0313C19.8316 40.6299 19.5305 40.692 19.4265 40.9173C19.369 41.0417 19.1719 41.8394 19.0815 41.899C18.9126 42.0409 18.7292 42.1667 18.534 42.2745C18.4628 42.2745 17.5978 42.3289 17.3733 42.3522C17.1488 42.3755 17.4937 42.0803 17.6744 41.9611C17.9266 41.8315 18.1915 41.7257 18.4656 41.6451C18.7119 41.5597 18.8735 41.3084 18.7831 41.2152C18.6928 41.122 17.8113 41.3292 17.6224 41.3602C17.2494 41.522 16.8874 41.7054 16.5383 41.9093C16.2211 42.1335 15.9657 42.4267 15.7937 42.764C15.7225 42.9169 15.5774 43.0671 15.1723 43.1215L13.7898 43.3157Z" fill="#E7BC94"/>
<path d="M4.36435 31.1555C5.73313 31.1969 6.64475 32.6318 8.01901 32.4712C8.03532 32.6796 8.06826 32.8866 8.11756 33.0903C8.41869 34.4552 10.064 34.6236 11.1289 34.551V38.146H3.90991V34.261C5.213 33.7766 4.58062 31.7616 4.36435 31.1555Z" fill="#E7BC94"/>
<path d="M24.0557 25.4704C24.0557 25.4704 20.6693 28.9591 20.0205 31.2617C20.0205 31.2617 16.1879 33.0177 14.8602 33.1628C13.5325 33.3078 12.4785 33.3544 11.5751 33.7844C10.6717 34.2143 9.93255 34.5199 9.82031 34.4863L8.64316 37.7031L3.90989 34.2635C3.63614 34.1029 2.88331 34.1081 2.54111 34.0589C1.57748 34.6184 1.15316 35.2218 0.73431 36.3071C0.500928 36.9461 0.351073 37.6098 0.288086 38.2833C0.658596 38.4515 1.00761 38.6592 1.32836 38.9023C1.83481 39.4203 1.80196 41.8238 2.56301 43.1189C3.32405 44.4139 3.97833 47.8664 3.16254 48.7392C2.06751 49.8996 1.49262 51.7074 1.49262 51.7074C2.29199 52.6709 6.14649 53.4634 8.02994 53.4479C9.89086 53.4644 11.7456 53.2422 13.5434 52.7874C13.3353 51.663 12.9793 50.5675 12.484 49.5266C12.0487 48.6279 12.484 44.1549 12.9302 42.5724C13.3764 40.9898 12.8864 38.9463 12.9849 38.4749C13.0835 38.0035 15.1531 37.628 17.3815 36.2371C19.6099 34.8463 21.8355 34.5277 22.3912 33.4736C22.947 32.4194 25.3177 27.6408 25.5175 26.825C25.5175 26.8146 24.6114 26.0454 24.0557 25.4704Z" fill="#DB4B51"/>
<g opacity="0.3">
<path opacity="0.3" d="M8.11753 33.1032C8.14532 33.214 8.18571 33.3217 8.23798 33.4244C7.59192 33.4839 5.77417 33.572 4.70378 32.8131C4.67581 32.2522 4.56145 31.6981 4.36432 31.1684C5.7331 31.2099 6.64472 32.6448 8.01898 32.4842C8.03529 32.6926 8.06823 32.8995 8.11753 33.1032V33.1032Z" fill="#E7BC94"/>
</g>
<path d="M9.48084 28.7364C9.48084 28.7364 10.0968 27.4414 9.34123 26.4313C8.75539 25.6543 7.57823 24.0769 5.91105 24.38C3.89346 24.7504 9.48084 28.7364 9.48084 28.7364Z" fill="#372115"/>
<path d="M4.36433 31.1555C4.6682 31.5414 4.94743 32.1086 5.88095 32.4505C6.81446 32.7924 8.26537 33.1835 8.64863 33.0695C9.03189 32.9556 9.3604 32.9711 9.63689 31.8807C9.91339 30.7903 10.2008 30.236 9.92981 29.2907C9.65879 28.3453 9.40967 26.3121 7.94234 25.9702C6.84731 25.7112 5.45115 26.4054 4.93101 27.3948C4.41087 28.3842 4.4711 28.6898 4.59429 29.9667C4.59429 29.9667 3.66078 29.3295 3.38702 29.3735C3.11326 29.4176 2.94353 29.6325 3.26656 30.1117C3.5896 30.5909 3.68815 30.4562 3.79218 30.7126C3.89621 30.969 4.01392 31.2306 4.18365 31.2772C4.38623 31.3316 4.36433 31.1555 4.36433 31.1555Z" fill="#E7BC94"/>
<path d="M7.44412 25.8952C7.44412 25.8952 6.74604 29.0705 4.66549 30.1687L2.98462 27.962L4.55598 25.89L7.44412 25.8952Z" fill="#372115"/>
<path d="M7.03894 26.1101C7.03894 26.1101 8.4789 27.3378 9.55751 27.5113C9.55751 27.5113 9.05927 25.3487 7.45505 24.7478L7.03894 26.1101Z" fill="#372115"/>
<path opacity="0.5" d="M17.3842 36.2294C19.6126 34.8411 21.8355 34.52 22.394 33.4658C22.9524 32.4117 25.3149 27.6305 25.5175 26.8146C25.5175 26.8146 25.3478 26.6722 25.1151 26.465C23.8887 28.9851 21.945 32.909 21.4522 33.458C20.9047 34.0615 11.931 37.2369 11.4902 37.3923C11.4902 37.3923 11.4136 40.2103 9.78744 41.0183C8.16132 41.8264 5.95483 41.065 5.95483 41.065C5.95483 41.065 6.06434 43.9477 6.54341 43.5488C7.02249 43.1499 10.7155 43.7431 11.0412 43.5928C11.2383 43.5048 12.0021 43.6187 12.6838 43.611C12.755 43.2069 12.8316 42.8521 12.9083 42.575C13.3654 40.9924 12.8617 38.9489 12.963 38.4775C13.0643 38.0061 15.1531 37.6176 17.3842 36.2294Z" fill="#C73D42"/>
<path d="M12.3198 47.2085C12.3471 46.5662 12.4019 45.8695 12.4785 45.1961L5.21301 46.6025C6.95958 46.9443 12.3198 47.2085 12.3198 47.2085Z" fill="#C73D42"/>
<path d="M12.3553 48.8299C12.3553 48.8299 6.00411 49.3997 3.57862 47.9027C3.57862 47.9027 2.94076 48.659 2.89423 49.0682C2.89423 49.0682 6.84728 51.1791 12.7495 49.9514C12.755 49.9384 12.7604 49.0682 12.3553 48.8299Z" fill="#5E5046"/>
<path d="M2.10036 34.191C0.457814 34.8541 -0.363458 36.2475 0.153943 38.5941C0.671344 40.9406 3.32131 46.6827 5.21298 46.5999C7.10464 46.517 11.9803 46.3927 15.7088 44.7583C15.7088 44.7583 15.9662 42.4558 15.0573 42.7096C14.455 42.878 12.6592 42.7355 10.8907 42.7096C9.59501 42.7248 8.30437 42.8654 7.03894 43.1292C7.03894 43.1292 6.02877 40.7982 5.21298 38.3584C4.41634 35.9755 3.82503 33.4969 2.10036 34.191Z" fill="#DB4B51"/>
<path d="M6.15471 18.8218C6.45744 18.8324 6.75775 18.7672 7.02526 18.6327C7.1605 18.557 7.27695 18.4547 7.36669 18.3327C7.45644 18.2107 7.51739 18.0719 7.5454 17.9256L7.25522 17.8686C7.23637 17.9763 7.19245 18.0786 7.12663 18.1682C7.06082 18.2578 6.97476 18.3324 6.8747 18.3866C6.28338 18.713 5.26774 18.4125 5.25679 18.41L5.16919 18.669C5.48873 18.7624 5.82035 18.8139 6.15471 18.8218V18.8218Z" fill="#5874CB"/>
<path d="M28.9094 21.9402C29.1175 22.2846 27.9869 23.4242 28.0006 23.4709C28.0142 23.5175 28.7671 22.7508 28.8437 22.6939C28.8842 22.6765 28.928 22.6676 28.9724 22.6676C29.0168 22.6676 29.0606 22.6765 29.1011 22.6939C29.1445 22.717 29.1783 22.7536 29.1969 22.7975L29.2407 22.3805L28.9094 21.9402Z" fill="white"/>
<path opacity="0.5" d="M15.7389 43.901C15.7389 43.901 6.50511 45.6856 5.90832 45.2505C5.31153 44.8153 0.0280144 37.5399 1.25445 34.6728C0.203219 35.4498 -0.262168 36.7033 0.159418 38.5941C0.690507 40.9406 3.32405 46.6827 5.21845 46.5999C7.11285 46.517 11.9857 46.3927 15.7143 44.7558C15.7403 44.4716 15.7485 44.1862 15.7389 43.901Z" fill="#C73D42"/>
<path d="M39.5202 3.47583C38.0146 2.75321 36.7115 1.99433 36.7115 1.42453C36.7115 0.854719 37.5656 0.986811 39.5202 0.986811V3.47583Z" fill="#F6C951"/>
<path d="M49.1976 3.47583C50.7032 2.75321 52.0091 1.99433 52.0091 1.42453C52.0091 0.854719 51.1522 0.986811 49.1976 0.986811V3.47583Z" fill="#F6C951"/>
<path d="M52.0091 1.42451C51.3356 1.95547 49.5097 2.22743 49.5097 2.22743L49.1976 3.47582C50.7032 2.7532 52.0091 1.99432 52.0091 1.42451Z" fill="#F1A63A"/>
<path d="M36.7197 1.42451C37.3904 1.95547 39.2163 2.22743 39.2163 2.22743L39.5312 3.47582C38.0145 2.7532 36.7197 1.99432 36.7197 1.42451Z" fill="#F1A63A"/>
<path d="M45.2609 9.75147C45.2609 8.51603 46.9308 6.52688 48.6665 4.69832C50.4021 2.86976 49.9148 0 49.9148 0H38.803C38.803 0 38.3184 2.86976 40.0513 4.69832C41.7842 6.52688 43.4596 8.51603 43.4596 9.75147C43.4596 10.9869 38.7482 11.8649 38.7482 13.7479H49.9723C49.9696 11.8649 45.2609 10.9895 45.2609 9.75147Z" fill="#F6C951"/>
<path d="M46.2793 10.8082C48.3763 12.5772 48.4036 13.191 48.4036 13.191H38.8933C38.7989 13.3631 38.7491 13.554 38.7482 13.7479H49.9723C49.9695 12.4321 47.67 11.6059 46.2793 10.8082Z" fill="#F1A63A"/>
<path d="M56.1784 24.02C55.9238 22.984 53.7556 19.6765 52.9371 17.4724C52.2691 17.6925 52.4443 17.8557 51.749 17.9904C51.8656 18.5962 51.9388 19.2089 51.968 19.8241C52.02 21.518 52.9672 24.5069 52.9672 24.5069C52.9672 24.5069 49.6411 29.169 49.0826 29.428C48.5241 29.687 47.8288 29.428 46.9336 29.7258L47.4948 39.0991L51.4013 36.0118C51.4013 36.0118 52.7701 34.2998 54.336 30.8628C55.9019 27.4259 56.5452 25.5144 56.1784 24.02Z" fill="#5E5046"/>
<path d="M39.7912 29.5471C39.2437 29.2881 35.7068 24.5198 35.7068 24.5198C35.7068 24.5198 36.654 21.5309 36.706 19.8371C36.7394 19.1589 36.8236 18.4838 36.9579 17.8168C36.2981 17.6122 36.4925 17.4283 35.8354 17.2108C35.0142 19.4045 32.7612 22.9477 32.4956 24.02C32.1288 25.5144 32.9747 26.7058 34.5515 30.1428C36.1284 33.5798 37.9543 37.843 37.9543 37.843L41.1792 39.1069L41.9402 29.8449C41.045 29.5471 40.3497 29.7957 39.7912 29.5471Z" fill="#5E5046"/>
<path d="M46.7857 82.7671C47.8808 84.7303 49.1017 86.116 48.3899 86.994C47.6782 87.872 44.2836 86.8956 44.4807 84.8805C44.4807 84.8805 44.4342 85.5177 44.2343 85.3804C43.8212 84.9733 43.4371 84.5406 43.0845 84.0854C42.7697 83.7073 43.3446 82.161 43.3446 82.161L46.7857 82.7671Z" fill="#4A3E36"/>
<path d="M51.6066 52.1218C51.53 52.9144 50.7279 61.8992 50.3884 65.849C50.049 69.7988 47.3771 83.6373 47.3771 83.6373C47.3771 83.6373 45.5703 84.764 42.7451 82.7075C42.7451 82.7075 45.5539 64.5514 44.9105 59.1693V51.7126L51.6066 52.1218Z" fill="#5874CB"/>
<path d="M44.9078 51.7126L48.5351 52.8367C48.1409 57.0999 46.6489 77.7864 45.6305 83.917C44.5725 83.7664 43.5758 83.3526 42.7424 82.7179C42.7424 82.7179 45.5511 63.6319 44.9078 58.2472V51.7126Z" fill="#758FE3"/>
<path d="M42.7423 85.8415C42.6 86.7791 43.7689 88.6542 43.424 89.0479C43.0791 89.4416 42.9367 89.8249 41.1381 89.768C39.3395 89.711 38.3732 89.4416 38.4443 88.9909C38.5155 88.5403 38.7893 85.8492 38.7893 85.8492L42.7423 85.8415Z" fill="#4A3E36"/>
<path d="M44.9078 58.2472C44.9078 58.2472 43.3309 63.5698 43.487 67.8304C43.643 72.091 42.8272 86.3491 42.8272 86.3491C42.8272 86.3491 41.1847 87.7736 37.3712 86.3491C37.3712 86.3491 37.593 69.4258 37.6669 66.7348C37.7408 64.0437 37.6669 52.4896 37.6669 52.4896L44.9078 51.6971V58.2472Z" fill="#5874CB"/>
<path d="M37.3712 86.3621C37.3712 86.3621 37.593 69.4362 37.6669 66.7452C37.7408 64.0541 37.6669 52.5 37.6669 52.5L41.1491 52.1192C41.2476 57.3848 40.8233 83.2929 40.9465 86.9837C39.7225 87.0078 38.5061 86.7963 37.3712 86.3621V86.3621Z" fill="#758FE3"/>
<path d="M41.2832 29.5859C41.2832 29.5859 36.7443 30.824 36.7005 31.1788C36.6567 31.5336 37.4479 37.5063 37.5875 39.3659C37.7271 41.2255 37.3877 48.172 37.2453 49.5473C37.103 50.9226 37.6669 52.5025 37.6669 52.5025C37.6669 52.5025 39.0932 53.062 44.6915 53.1501L46.2848 30.5313L41.2832 29.5859Z" fill="#5E5046"/>
<path d="M47.8178 29.6248C47.8178 29.6248 52.3567 30.8628 52.4032 31.2177C52.4498 31.5725 51.5464 36.0584 51.5135 39.4022C51.4971 41.267 51.9816 48.128 52.1212 49.5033C52.1826 50.4047 52.0058 51.3064 51.6066 52.127C51.6066 52.127 50.2871 53.0672 44.6915 53.163L44.6203 30.2412L47.8178 29.6248Z" fill="#5E5046"/>
<path d="M47.2101 29.7932L41.8307 29.6973L44.478 36.548L47.2101 29.7932Z" fill="#F6F2E1"/>
<path d="M48.5132 22.5566C48.5597 20.7876 47.013 19.2155 44.4698 19.3216C41.7952 19.4304 40.8616 21.2823 40.8644 22.6628C40.8656 23.5275 41.0518 24.383 41.4119 25.1777C41.5269 25.4523 42.4166 26.2008 42.7013 27.0477C42.986 27.8947 48.5132 22.5566 48.5132 22.5566Z" fill="#372115"/>
<path d="M41.9813 29.7362L44.478 30.1816L47.2156 29.7828C47.1225 29.4746 45.8468 29.2648 46.1452 28.2961L42.4303 25.7061C42.6685 26.6514 43.0873 28.2106 42.1757 29.2648C42.1291 29.3166 42.0224 29.7025 41.9813 29.7362Z" fill="#E7BC94"/>
<g opacity="0.3">
<path opacity="0.3" d="M42.7205 27.6641C42.7144 27.0152 42.6224 26.3696 42.4467 25.7423H42.4659L45.844 28.3324C45.9256 28.4274 46.0173 28.5142 46.1178 28.5914C46.1327 28.7302 46.1941 28.8608 46.293 28.9643C45.2174 28.9092 44.1711 28.6127 43.2406 28.0993C42.997 27.9698 42.8984 27.7781 42.7205 27.6641Z" fill="#E7BC94"/>
</g>
<path d="M42.3317 25.763C42.5398 26.2344 42.663 26.8871 43.539 27.4828C44.415 28.0785 45.8112 28.8478 46.2465 28.8296C46.6817 28.8115 47.0185 28.9151 47.6152 27.8662C48.212 26.8172 48.6774 26.3277 48.6692 25.2761C48.661 24.2246 48.9922 22.0904 47.5742 21.36C46.5147 20.8109 44.8503 21.158 44.0153 22.0386C43.1804 22.9192 43.1667 23.2352 42.9203 24.5872C42.9203 24.5872 42.1346 23.6936 41.8253 23.6677C41.5159 23.6418 41.2778 23.8257 41.4803 24.3903C41.6829 24.955 41.8225 24.8539 41.8581 25.1466C41.8937 25.4393 41.943 25.7242 42.1045 25.8252C42.3044 25.9495 42.3317 25.763 42.3317 25.763Z" fill="#E7BC94"/>
<path d="M47.1361 21.1606C47.1361 21.1606 43.5636 20.671 42.9531 24.8721L41.8253 22.1422L44.5628 19.8112L47.1361 21.1606Z" fill="#372115"/>
<path d="M41.6473 23.7195C42.058 23.59 42.9531 24.8721 42.9531 24.8721C43.2159 23.9907 43.5747 23.1374 44.0235 22.3261C41.4338 20.5467 40.9219 22.1241 40.9137 22.137C40.8813 22.308 40.8648 22.4813 40.8644 22.655C40.8656 23.5205 41.0518 24.3769 41.4119 25.1725C41.5241 25.4315 42.3536 26.1516 42.6684 26.9674C42.6429 26.5491 42.5685 26.1348 42.4467 25.732C42.4467 25.732 42.3208 25.8382 42.2113 25.7993C42.057 25.6947 41.9457 25.5428 41.8964 25.3694C41.8663 25.2735 41.8964 25.2166 41.8609 25.1259C41.8129 25.037 41.7598 24.9505 41.7021 24.8669C41.5187 24.5224 41.234 23.8438 41.6473 23.7195Z" fill="#372115"/>
<path d="M47.4948 21.1891C47.095 21.64 46.6094 22.016 46.063 22.2976C45.2418 22.668 43.8894 22.3546 43.7032 23.1963C43.5171 24.0381 43.3008 24.898 43.3008 24.898L42.9532 24.8617L42.8491 21.9712L44.634 20.2903L47.4948 21.1891Z" fill="#372115"/>
<path d="M47.1827 21.3704C47.5691 21.8194 48.0165 22.2182 48.5131 22.5566L48.1518 21.0829L47.1827 20.324V21.3704Z" fill="#372115"/>
<path d="M44.478 30.1428C44.478 30.1428 45.8112 29.7776 46.5147 29.055L47.6727 29.573C47.6727 29.573 46.4572 31.6657 45.2883 32.2848L44.478 30.1428Z" fill="#F6F2E1"/>
<path d="M44.478 30.1428C44.478 30.1428 43.09 29.661 42.3892 28.9384L40.8644 29.7362C40.8644 29.7362 42.5069 31.6787 43.6677 32.2977L44.478 30.1428Z" fill="#F6F2E1"/>
<path d="M44.478 30.1428C44.478 30.1428 45.8112 29.7776 46.5147 29.055L47.6727 29.573C47.6727 29.573 46.4572 31.6657 45.2883 32.2848L44.478 30.1428Z" fill="#F5EAE0"/>
<path d="M44.478 30.1428C44.478 30.1428 43.09 29.661 42.3892 28.9384L40.8644 29.7362C40.8644 29.7362 42.5069 31.6787 43.6677 32.2977L44.478 30.1428Z" fill="#F5EAE0"/>
<path d="M37.5409 19.5081C36.8159 19.2516 36.1066 18.9568 35.4166 18.6249C35.9641 17.6407 37.0591 15.3874 37.0591 15.0248C37.0591 14.5068 36.7306 13.5847 37.1823 12.9527C37.5601 12.4347 38.072 12.0255 39.1616 11.8079C39.605 11.7199 42.1893 11.2174 40.1142 12.3959C39.5229 12.7326 38.9781 13.002 38.9042 13.3412C38.8303 13.6805 39.2984 14.0147 39.4189 14.556C39.5667 15.232 38.9645 15.8717 38.5976 16.6487C38.395 17.045 38.0036 18.195 37.5409 19.5081Z" fill="#E7BC94"/>
<path d="M51.2288 19.5081C51.9539 19.2516 52.6631 18.9568 53.3532 18.6249C52.8057 17.6407 51.7106 15.3874 51.7106 15.0248C51.7106 14.5068 52.0364 13.5847 51.5875 12.9527C51.2097 12.4347 50.695 12.0255 49.6082 11.8079C49.1647 11.7199 46.5804 11.2174 48.6528 12.3959C49.2468 12.7326 49.7916 13.002 49.8628 13.3412C49.934 13.6805 49.4713 14.0147 49.3509 14.556C49.203 15.232 49.8053 15.8717 50.1721 16.6487C50.3638 17.045 50.7552 18.195 51.2288 19.5081Z" fill="#E7BC94"/>
<path d="M36.2543 33.9294C33.6783 28.8633 32.1671 25.9625 32.0768 25.2062C31.9865 24.4499 36.0654 15.693 36.0654 15.693C36.0654 15.693 37.7928 16.123 38.8632 16.7549L35.9943 24.9083L37.1769 27.8972L36.2543 33.9294Z" fill="#5E5046"/>
<path d="M52.7153 24.8721C52.7153 24.8721 50.1803 18.2778 49.9257 16.7497C49.9257 16.7497 51.6011 16.0996 52.9097 16.1229C52.9097 16.1229 56.4411 23.8283 56.6519 24.8721C56.8627 25.9159 54.7356 30.0055 54.7356 30.0055L52.7153 24.8721Z" fill="#5E5046"/>
<path d="M39.7064 0.826218C39.7064 0.826218 39.2711 3.36186 42.444 5.88196C42.444 5.88196 40.7357 3.33337 40.9109 0.826218H39.7064Z" fill="#F8D777"/>
<path d="M40.5249 12.642C40.5523 12.5902 42.5972 11.3184 43.3501 10.7176L41.6884 12.642H40.5249Z" fill="#F8D777"/>
<path d="M45.3978 9.36038H43.3172C43.2825 9.36038 43.2543 9.38705 43.2543 9.41995V9.93019C43.2543 9.96309 43.2825 9.98976 43.3172 9.98976H45.3978C45.4326 9.98976 45.4608 9.96309 45.4608 9.93019V9.41995C45.4608 9.38705 45.4326 9.36038 45.3978 9.36038Z" fill="#F1A63A"/>
<path d="M56.652 24.8721C56.4384 23.8361 52.907 16.123 52.907 16.123C52.6955 16.1216 52.4841 16.1346 52.2746 16.1618C53.9308 19.6894 56.5069 24.0329 55.6555 25.5999C54.7685 27.2342 51.5847 34.8463 49.923 35.1027C49.923 35.1027 50.7744 36.6257 50.591 39.2468C50.4076 41.8679 51.7134 46.0922 50.591 47.1593C49.4686 48.2264 46.2848 48.2238 46.2848 48.2238C46.2848 48.2238 47.0869 48.7418 50.591 48.2238C50.591 48.2238 50.9742 48.2445 50.591 49.1226C50.2077 50.0006 41.9375 50.8242 39.2684 49.9358C39.2684 49.9358 42.2551 50.9537 47.1362 50.9537C43.8676 51.6203 40.4745 51.501 37.2672 50.6067C37.3351 51.2503 37.4727 51.8856 37.6778 52.5026C37.6778 52.5026 39.1041 53.062 44.7025 53.1501C50.2981 53.062 51.6176 52.114 51.6176 52.114C52.0175 51.2927 52.1953 50.3902 52.135 49.4878C51.9926 48.1176 51.5081 41.2566 51.5272 39.3866C51.554 38.0652 51.6527 36.746 51.8229 35.4342C52.7889 33.9812 53.6294 32.4568 54.336 30.8758C54.4783 30.5702 54.6097 30.2904 54.7274 30.0081C54.7274 30.0081 56.8655 25.9159 56.652 24.8721Z" fill="#4A3E36"/>
<path d="M62.5815 48.4543C62.4207 48.3358 62.2918 48.183 62.2052 48.0083C62.1186 47.8337 62.0769 47.6422 62.0833 47.4494H62.034C61.4865 47.3432 61.1635 46.6724 61.147 46.0948C61.147 46.0508 61.147 46.0068 61.147 45.9627C61.0307 45.8806 60.9328 45.7774 60.859 45.6591C60.7852 45.5408 60.737 45.4098 60.7172 45.2738C60.5886 44.4968 61.1744 43.4893 62.0258 43.036L62.1244 43.1992C61.3551 43.611 60.7994 44.546 60.9171 45.2427C60.9411 45.4304 61.0318 45.6049 61.1744 45.7374C61.2096 45.5152 61.3129 45.3077 61.4715 45.1406C61.6302 44.9735 61.8372 44.8541 62.0669 44.7972C62.2164 44.7383 62.3815 44.7248 62.5395 44.7587C62.6975 44.7926 62.8403 44.8721 62.9484 44.9863C63.0268 45.1031 63.0668 45.2392 63.0634 45.3775C63.06 45.5159 63.0133 45.6501 62.9292 45.7633C62.7898 45.9454 62.5938 46.0819 62.3687 46.1538C62.1435 46.2258 61.9002 46.2296 61.6727 46.1648C61.5634 46.1398 61.4577 46.1024 61.3578 46.0534V46.0715C61.3743 46.6413 61.7028 47.1697 62.0888 47.2474H62.1161C62.1476 47.0992 62.208 46.9578 62.2941 46.8304C62.535 46.4704 62.9128 46.3124 63.2358 46.4652C63.5588 46.618 63.5287 46.8278 63.5096 46.9133C63.4028 47.2085 62.8608 47.4805 62.2996 47.4572C62.2969 47.6191 62.3344 47.7794 62.409 47.9251C62.4837 48.0708 62.5934 48.198 62.7294 48.2964L62.5815 48.4543ZM62.3078 47.2811C62.7896 47.2966 63.2303 47.0687 63.3042 46.8667C63.3042 46.8356 63.348 46.7397 63.1455 46.6491C63.0122 46.6109 62.8688 46.6198 62.7419 46.6741C62.615 46.7284 62.5133 46.8244 62.4556 46.9444C62.3851 47.0472 62.3351 47.1613 62.3078 47.2811V47.2811ZM61.3606 45.8565C61.473 45.9139 61.5939 45.9549 61.7192 45.9783C61.9072 46.0339 62.1088 46.0329 62.2962 45.9754C62.4835 45.9178 62.6473 45.8066 62.765 45.6571C62.828 45.5751 62.8641 45.4774 62.869 45.3761C62.8739 45.2748 62.8472 45.1744 62.7923 45.0873C62.6719 44.9319 62.4337 44.893 62.1244 44.9708C61.9154 45.0248 61.7295 45.1392 61.5926 45.298C61.4557 45.4568 61.3746 45.652 61.3606 45.8565V45.8565Z" fill="#5874CB"/>
<path d="M23.385 15.1284C23.2456 14.9413 23.0643 14.7856 22.8539 14.6725C22.776 14.774 22.6771 14.8593 22.5632 14.9234C22.4493 14.9875 22.3228 15.0291 22.1914 15.0455C22.0896 15.0489 21.9894 15.0203 21.9067 14.964C21.824 14.9078 21.7633 14.8271 21.7342 14.7347C21.7176 14.7026 21.7082 14.6676 21.7066 14.6319C21.7049 14.5962 21.7111 14.5606 21.7247 14.5273C21.7384 14.4939 21.7591 14.4636 21.7857 14.4383C21.8124 14.4129 21.8442 14.393 21.8793 14.3799C22.0268 14.3276 22.1842 14.3055 22.3413 14.3149C22.4984 14.3242 22.6516 14.3649 22.791 14.4343C22.8516 14.3429 22.8994 14.2445 22.9333 14.1416C23.0088 13.9146 23.0016 13.6702 22.9127 13.4476C22.8239 13.2249 22.6585 13.037 22.4433 12.9139C22.3383 12.8243 22.2123 12.7595 22.0758 12.7249C21.9392 12.6902 21.7959 12.6866 21.6576 12.7145C21.6576 12.7481 21.6768 12.7818 21.685 12.8103C21.8273 13.3905 21.5454 14.0613 21.0937 14.2193C21.0229 14.2553 20.9404 14.2647 20.8627 14.2455C20.785 14.2263 20.7178 14.1799 20.6748 14.1157C20.4887 13.823 20.7323 13.1341 21.1511 12.7766C21.225 12.7111 21.3079 12.6553 21.3975 12.6109C21.1676 12.1809 20.6392 11.9789 19.9001 12.054L19.8782 11.8649C20.9732 11.7588 21.4003 12.1887 21.5837 12.5384C21.754 12.4985 21.9319 12.4979 22.1024 12.5367C22.273 12.5755 22.4312 12.6524 22.5637 12.7611C22.808 12.9116 22.9936 13.1335 23.0924 13.3929C23.1912 13.6524 23.1978 13.9352 23.1112 14.1986C23.073 14.3099 23.0216 14.4167 22.9579 14.5171C23.1854 14.6437 23.3815 14.815 23.5328 15.0196L23.385 15.1284ZM22.2106 14.499C22.1266 14.4959 22.043 14.5119 21.9669 14.5456C21.8903 14.5845 21.8958 14.6259 21.9122 14.6674C21.9274 14.7209 21.9603 14.7684 22.0061 14.8029C22.052 14.8374 22.1083 14.857 22.1668 14.859C22.3562 14.8333 22.5283 14.7408 22.6486 14.6C22.5102 14.5418 22.3618 14.5076 22.2106 14.499V14.499ZM21.4632 12.787C21.3941 12.8214 21.3305 12.865 21.2743 12.9165C20.8829 13.2532 20.7268 13.8411 20.8363 14.0173C20.8363 14.038 20.8856 14.0872 21.0143 14.0432C21.3729 13.9162 21.6001 13.3387 21.4824 12.8517C21.4851 12.8284 21.4769 12.8077 21.4714 12.787H21.4632Z" fill="#DB4B51"/>
<path d="M60.1889 36.8432C60.0254 36.7795 59.8894 36.6654 59.8029 36.5195C59.6311 36.6142 59.4314 36.6536 59.2339 36.6317C59.0363 36.6097 58.8517 36.5276 58.7078 36.3977C58.5 36.2476 58.3547 36.033 58.2972 35.7917C57.684 35.8486 57.0051 35.7191 56.6547 35.2737L56.8134 35.1597C57.1091 35.5378 57.7141 35.6544 58.2698 35.6C58.2674 35.4811 58.2831 35.3625 58.3164 35.2478C58.3523 35.0796 58.4361 34.924 58.5586 34.7976C58.6811 34.6711 58.8378 34.5787 59.0117 34.5303C59.1082 34.522 59.205 34.5425 59.2885 34.5889C59.372 34.6354 59.438 34.7055 59.4771 34.7893C59.6304 35.0483 59.5291 35.3073 59.2033 35.5145C58.9855 35.6445 58.7427 35.7325 58.4888 35.7735C58.5374 35.9675 58.6554 36.1395 58.8228 36.2605C58.9378 36.3685 59.088 36.4366 59.2491 36.4535C59.4102 36.4704 59.5726 36.4352 59.7098 36.3537C59.6739 36.2359 59.6664 36.112 59.6879 35.9911C59.6943 35.8901 59.7382 35.7944 59.8118 35.721C59.8854 35.6476 59.984 35.601 60.0903 35.5896C60.1343 35.5875 60.1779 35.5986 60.2148 35.6214C60.2517 35.6442 60.28 35.6775 60.2956 35.7165C60.3641 35.8979 60.2026 36.2112 59.9534 36.4184C60.0166 36.536 60.1226 36.628 60.2518 36.6775L60.1889 36.8432ZM60.1204 35.7632C59.9863 35.7632 59.9206 35.8953 59.8987 36.0222C59.8877 36.0874 59.8877 36.1538 59.8987 36.219C59.968 36.1646 60.024 36.0966 60.0627 36.0196C60.1015 35.9427 60.1221 35.8587 60.1232 35.7735L60.1204 35.7632ZM59.0774 34.7272H59.0473C58.9143 34.7728 58.796 34.8502 58.7039 34.9519C58.6118 35.0535 58.549 35.176 58.5217 35.3073C58.4943 35.3965 58.4804 35.489 58.4806 35.5819C58.7026 35.5459 58.9154 35.4703 59.1075 35.3591C59.2718 35.2581 59.4415 35.1001 59.3128 34.8852C59.2931 34.8407 59.2605 34.8023 59.2189 34.7744C59.1773 34.7465 59.1283 34.7301 59.0774 34.7272V34.7272Z" fill="#F6C951"/>
<path d="M90.8524 23.8646C90.8269 23.8672 90.8012 23.8672 90.7758 23.8646L90.8141 23.6781C91.0139 23.7143 91.3452 23.4191 91.5423 23.1264C91.5059 23.0713 91.4747 23.0132 91.4492 22.9529C91.378 22.7871 91.3424 22.5644 91.4629 22.4608C91.4994 22.4287 91.5463 22.4092 91.596 22.4055C91.6456 22.4017 91.6952 22.4139 91.7366 22.44C91.8133 22.4737 91.9858 22.5903 91.8681 22.9296C91.8463 22.9922 91.8189 23.0528 91.7859 23.1109C91.8284 23.1625 91.8822 23.2048 91.9437 23.2347C92.0051 23.2647 92.0727 23.2816 92.1418 23.2844C92.3252 23.2844 92.4457 23.2274 92.484 23.1238C92.4947 23.0996 92.499 23.0733 92.4966 23.0471C92.4942 23.021 92.4852 22.9957 92.4703 22.9736C92.4754 22.9761 92.481 22.9774 92.4867 22.9774C92.4925 22.9774 92.4981 22.9761 92.5032 22.9736L92.4265 22.8001C92.458 22.7874 92.4928 22.7844 92.5262 22.7913C92.5595 22.7983 92.5898 22.8149 92.6127 22.8389C92.6567 22.8896 92.6848 22.9508 92.694 23.0158C92.7032 23.0808 92.693 23.1469 92.6647 23.2067C92.6172 23.2957 92.5416 23.3685 92.4484 23.4149C92.3552 23.4613 92.2489 23.4791 92.1445 23.4657V23.4657C92.0579 23.4642 91.9724 23.4465 91.893 23.4136C91.8136 23.3807 91.7418 23.3333 91.6819 23.274C91.4711 23.5797 91.1371 23.8646 90.8524 23.8646ZM91.5998 22.5903C91.5731 22.6861 91.5858 22.7879 91.6354 22.8752C91.6354 22.8881 91.649 22.9011 91.6545 22.9166C91.6621 22.8998 91.6685 22.8825 91.6737 22.8648C91.7038 22.7819 91.7366 22.6395 91.649 22.6058C91.635 22.5977 91.619 22.5932 91.6025 22.5929L91.5998 22.5903Z" fill="#F6C951"/>
<path d="M18.9255 27.4621L18.8488 27.2031C18.8488 27.2031 20.3764 26.7758 20.6693 25.8822C20.8089 25.4626 20.6693 24.9912 20.2176 24.4836L20.4393 24.3126C20.9431 24.8954 21.1128 25.4497 20.9431 25.9625C20.5954 26.9959 18.9884 27.444 18.9255 27.4621Z" fill="#919A5F"/>
<path d="M30.4507 42.3833C30.2242 42.3976 29.9977 42.3576 29.7919 42.267C29.5862 42.1765 29.4079 42.0383 29.2735 41.8653C28.9149 41.9326 28.3509 41.8316 27.6994 40.9976L27.9294 40.8371C28.3427 41.3551 28.7671 41.6296 29.1366 41.6141C29.0718 41.4502 29.0455 41.2749 29.0597 41.1004C29.0739 40.9259 29.1282 40.7565 29.2188 40.604C29.2795 40.5044 29.3669 40.4219 29.4722 40.3646C29.5774 40.3073 29.6968 40.2773 29.8183 40.2776C29.9179 40.2808 30.0129 40.318 30.0858 40.3822C30.1588 40.4465 30.2047 40.5335 30.2152 40.6273C30.2323 40.8582 30.1796 41.0889 30.0633 41.2925C29.9469 41.4962 29.7718 41.6643 29.5582 41.7772C29.6756 41.9046 29.8247 42.0023 29.9919 42.0615C30.1592 42.1208 30.3394 42.1397 30.5164 42.1165V42.3885L30.4507 42.3833ZM29.7827 40.5444C29.7158 40.5481 29.6512 40.5682 29.595 40.6027C29.5389 40.6372 29.4932 40.6849 29.4624 40.7412C29.3931 40.8627 29.3528 40.9971 29.3443 41.1349C29.3358 41.2727 29.3593 41.4106 29.4131 41.539C29.5744 41.4521 29.708 41.3257 29.7995 41.1729C29.8911 41.0202 29.9373 40.8468 29.9333 40.6713C29.9114 40.5651 29.8539 40.547 29.8019 40.547L29.7827 40.5444Z" fill="#AECCF2"/>
<path d="M67.9855 57.3174C67.7365 57.4562 67.4532 57.5303 67.1642 57.5324C67.011 57.5274 66.8607 57.4907 66.7241 57.4249C66.5874 57.3591 66.4676 57.2659 66.373 57.1517L66.592 56.9781C66.6607 57.063 66.7483 57.1326 66.8486 57.1818C66.949 57.2311 67.0595 57.2588 67.1724 57.263C67.8349 57.2863 68.5604 56.587 68.5686 56.5793L68.7739 56.7683C68.5389 56.9847 68.2736 57.1695 67.9855 57.3174V57.3174Z" fill="#DB4B51"/>
<path d="M82.481 11.6992C82.6216 11.5968 82.7351 11.4649 82.8125 11.3138C82.89 11.1628 82.9292 10.9968 82.9272 10.8289C82.3468 10.8548 81.7884 10.5699 81.6816 10.2695C81.6487 10.1788 81.6132 9.95609 81.9553 9.80846C82.2975 9.66082 82.6753 9.80846 82.9245 10.184C83.012 10.3156 83.0733 10.4614 83.1051 10.614H83.1352C83.5322 10.5337 83.8689 9.98976 83.8853 9.40182V9.38369C83.7789 9.43095 83.6667 9.46574 83.5514 9.48729C83.3168 9.55471 83.0658 9.55101 82.8336 9.47669C82.6014 9.40238 82.3996 9.26118 82.2565 9.07289C82.1682 8.95547 82.1192 8.81569 82.1157 8.67163C82.1123 8.52756 82.1547 8.38584 82.2373 8.2648C82.4125 8.03946 82.7438 7.96953 83.1462 8.07314C83.3821 8.13179 83.5947 8.25454 83.7577 8.42623C83.9206 8.59792 84.0269 8.81103 84.0633 9.03922C84.2138 8.90081 84.3103 8.7182 84.337 8.52121C84.4575 7.80636 83.8853 6.84028 83.0914 6.41551L83.1927 6.24716C84.0688 6.71596 84.6738 7.74938 84.5396 8.55229C84.5198 8.69625 84.4688 8.83478 84.3896 8.95914C84.3105 9.08351 84.2049 9.19102 84.0797 9.27491C84.0797 9.31894 84.0797 9.36556 84.0797 9.41218C84.0633 10.0105 83.7156 10.7072 83.1654 10.8082H83.1161C83.1224 11.0068 83.0794 11.2039 82.9905 11.3839C82.9015 11.5638 82.7692 11.7215 82.6042 11.8442L82.481 11.6992ZM82.7547 10.2928C82.6957 10.1693 82.5912 10.0704 82.4607 10.0146C82.3302 9.95885 82.1826 9.95001 82.0457 9.98976C81.8349 10.0804 81.8705 10.1788 81.8814 10.2125C81.9554 10.4197 82.4098 10.6554 82.9053 10.6399C82.8778 10.5165 82.8268 10.3988 82.7547 10.2928V10.2928ZM83.0942 8.25962C82.7766 8.17674 82.533 8.22077 82.4071 8.38135C82.3486 8.47013 82.32 8.57356 82.3249 8.67804C82.3297 8.78251 82.3679 8.88315 82.4344 8.9667C82.556 9.12062 82.7249 9.23514 82.9181 9.2945C83.1112 9.35387 83.3191 9.35517 83.513 9.29822C83.6412 9.27308 83.7648 9.23032 83.8799 9.17131C83.8659 8.96075 83.7827 8.7596 83.6418 8.5961C83.5009 8.43259 83.3094 8.31492 83.0942 8.25962V8.25962Z" fill="#F2C05C"/>
<path d="M69.2366 18.858L69.483 18.7026C69.567 18.8579 69.6911 18.9906 69.8437 19.0884C69.9964 19.1862 70.1727 19.2459 70.3562 19.2621C70.3287 19.025 70.3733 18.7855 70.4849 18.5717C70.5964 18.3578 70.7703 18.1786 70.9859 18.0551C71.0753 18.0071 71.18 17.9913 71.2807 18.0109C71.3814 18.0304 71.4712 18.0839 71.5334 18.1613C71.6056 18.2578 71.6499 18.3704 71.6619 18.4881C71.6739 18.6058 71.6532 18.7244 71.6018 18.8321C71.5198 18.9946 71.4014 19.1383 71.2549 19.2532C71.1083 19.3681 70.9372 19.4516 70.7532 19.4978C70.9558 19.8034 71.4403 19.9821 72.1576 19.995V20.2748C71.0297 20.2541 70.6026 19.8681 70.4493 19.5418C70.2161 19.5378 69.9877 19.4785 69.785 19.3695C69.5822 19.2604 69.4116 19.1051 69.2886 18.9176L69.2366 18.858ZM71.3007 18.34C71.2651 18.3012 71.2186 18.2649 71.1091 18.3115C70.9505 18.4125 70.8239 18.5524 70.7429 18.7161C70.6619 18.8799 70.6295 19.0615 70.6492 19.2414C70.795 19.207 70.9311 19.1428 71.0479 19.0533C71.1648 18.9638 71.2594 18.8512 71.3253 18.7233C71.3578 18.6654 71.3733 18.6003 71.3704 18.5348C71.3675 18.4692 71.3463 18.4056 71.3089 18.3504L71.3007 18.34Z" fill="#AECCF2"/>
</svg>
