<svg width="113" height="119" viewBox="0 0 113 119" fill="none" xmlns="http://www.w3.org/2000/svg">
<path d="M15.7383 81.764V38.0083L53.6075 16.1278L91.4692 38.0083V81.764L53.6075 103.645L15.7383 81.764Z" stroke="#8C6FAA" stroke-linejoin="round"/>
<path d="M15.7756 81.6716V81.7436L15.8378 81.7794L53.5454 103.565L53.6075 103.601L53.6696 103.565L91.3698 81.7794L91.4319 81.7436V81.6716V38.1007V38.0288L91.3698 37.9929L53.6696 16.2074L53.6075 16.1715L53.5454 16.2074L15.8378 37.9929L15.7756 38.0288V38.1007V81.6716ZM15.7383 81.764V38.0083L53.6075 16.1278L91.4692 38.0083V81.764L53.6075 103.645L15.7383 81.764Z" stroke="#8C6FAA" stroke-linejoin="round"/>
<path d="M21.2043 78.7307V41.3311L53.6078 22.631L85.9939 41.3311V78.7307L53.6078 97.4307L21.2043 78.7307Z" stroke="#8C6FAA" stroke-linejoin="round"/>
<path d="M21.2415 78.6383V78.7103L21.3038 78.7461L53.5457 97.3535L53.6078 97.3894L53.6699 97.3535L85.8945 78.7461L85.9566 78.7103V78.6383V41.4235V41.3515L85.8945 41.3156L53.6699 22.7107L53.6078 22.6748L53.5457 22.7106L21.3038 41.3156L21.2415 41.3515V41.4235V78.6383ZM21.2043 78.7307V41.3311L53.6078 22.631L85.9939 41.3311V78.7307L53.6078 97.4307L21.2043 78.7307Z" stroke="#8C6FAA" stroke-linejoin="round"/>
<path d="M26.4458 75.7942V44.4891L53.6074 28.845L80.7516 44.4891V75.7942L53.6074 91.4482L26.4458 75.7942Z" stroke="#8C6FAA" stroke-linejoin="round"/>
<path d="M26.4831 75.7018V75.7738L26.5455 75.8096L53.5455 91.3685L53.6074 91.4044L53.6693 91.3685L80.6619 75.8096L80.7243 75.7738V75.7018V44.584V44.512L80.6619 44.4762L53.6693 28.9147L53.6074 28.879L53.5455 28.9147L26.5455 44.4762L26.4831 44.512V44.584V75.7018ZM26.4458 75.7942V44.4891L53.6074 28.845L80.7516 44.4891V75.7942L53.6074 91.4482L26.4458 75.7942Z" stroke="#8C6FAA" stroke-linejoin="round"/>
<path d="M31.7209 72.5188L31.7134 47.3362L53.6083 34.7479L75.4931 47.3362V72.5191L53.6083 85.1072L31.7209 72.5188Z" stroke="#8C6FAA" stroke-linejoin="round"/>
<path d="M31.7507 72.4242V72.4964L31.8131 72.5323L53.5464 85.0277L53.6083 85.0633L53.6701 85.0277L75.3935 72.5323L75.4558 72.4964V72.4242V47.4309V47.3589L75.3935 47.3228L53.6701 34.8199L53.6083 34.7843L53.5464 34.8199L31.8131 47.3228L31.7507 47.3589V47.4309V72.4242ZM31.7134 72.5164V47.3362L53.6083 34.7479L75.4931 47.3362V72.5166L53.6083 85.1072L31.7134 72.5164Z" stroke="#8C6FAA" stroke-linejoin="round"/>
<path d="M37.2279 69.5308L37.218 50.4791L53.6074 40.9525L69.9894 50.4791V69.5308L53.6074 79.0574L37.2279 69.5308Z" stroke="#8C6FAA" stroke-linejoin="round"/>
<path d="M37.2654 69.3136H37.2281V50.4791L53.6076 40.9525L69.9896 50.4791V69.5308L53.6076 79.0574L37.2281 69.5308V69.4939L37.3173 69.5457L53.5452 78.9777L53.6076 79.0141L53.67 78.9777L69.8904 69.5457L69.9523 69.5099V69.4381V50.5717V50.5L69.8904 50.4641L53.67 41.0322L53.6076 40.9958L53.5452 41.0322L37.3273 50.4641L37.2654 50.5V50.5717V69.3136Z" stroke="#8C6FAA" stroke-linejoin="round"/>
<path d="M42.9224 66.0984L42.9125 53.6792L53.6076 47.4526L64.2853 53.6792V66.1109L53.6076 72.315L42.9224 66.0984Z" stroke="#8C6FAA" stroke-linejoin="round"/>
<path d="M42.9575 53.7519V65.9542L42.9202 66.004V53.6792L53.6079 47.4526L64.2856 53.6792V66.1084L53.6079 72.315L42.9202 66.0884V66.06L43.0119 66.1136L53.5455 72.2355L53.6079 72.2716L53.6703 72.2353L64.1939 66.1133L64.2558 66.0775V66.0057V53.7619V53.6901L64.1939 53.6543L53.6703 47.5224L53.6079 47.486L53.5455 47.5224L43.0194 53.6443L42.9575 53.6802V53.7519Z" stroke="#8C6FAA" stroke-linejoin="round"/>
<path d="M48.2633 63.0001V56.7676L53.6071 53.6618L58.951 56.7676V63.0001L53.6071 66.1084L48.2633 63.0001Z" stroke="#8C6FAA" stroke-linejoin="round"/>
<path d="M48.2981 62.9025H48.3729L48.3155 62.9673L48.3229 62.9773L48.3992 63.0794L48.2633 63.0002V56.7677L53.6071 53.6594L58.951 56.7677V63.0002L53.6071 66.1085L48.5466 63.1651V63.113L53.5447 66.0166L53.6071 66.0527L53.6695 66.0163L58.8518 63.0002L58.9137 62.9643V62.8926V56.8628V56.7911L58.8518 56.755L53.6695 53.7488L53.6071 53.7127L53.5447 53.749L48.36 56.7652L48.2981 56.801V56.8728V62.9025Z" stroke="#8C6FAA" stroke-linejoin="round"/>
<path d="M54.1104 41L91.5 38L75.5 72.5L54.1104 60.1916V41Z" fill="#8C6FAA" fill-opacity="0.7" stroke="#8C6FAA" stroke-miterlimit="10" stroke-linejoin="round"/>
<path d="M53.9821 9.24219H50.9L50.3141 11H48.4449L51.6207 2.46875H53.2496L56.443 11H54.5739L53.9821 9.24219ZM51.3746 7.81836H53.5074L52.4352 4.625L51.3746 7.81836Z" fill="#8C6FAA"/>
<path d="M7.40625 36.5391L8.55469 30.4688H10.3066L8.41406 39H6.64453L5.25586 33.293L3.86719 39H2.09766L0.205078 30.4688H1.95703L3.11133 36.5273L4.51758 30.4688H6.00586L7.40625 36.5391Z" fill="#8C6FAA"/>
<path d="M8.18555 90.145C8.18555 89.8129 8.06836 89.559 7.83398 89.3832C7.59961 89.2036 7.17773 89.0161 6.56836 88.8207C5.95898 88.6215 5.47656 88.4262 5.12109 88.2348C4.15234 87.7114 3.66797 87.0063 3.66797 86.1196C3.66797 85.6586 3.79688 85.2485 4.05469 84.8891C4.31641 84.5258 4.68945 84.2426 5.17383 84.0395C5.66211 83.8364 6.20898 83.7348 6.81445 83.7348C7.42383 83.7348 7.9668 83.8461 8.44336 84.0688C8.91992 84.2875 9.28906 84.5981 9.55078 85.0004C9.81641 85.4028 9.94922 85.8598 9.94922 86.3715H8.19141C8.19141 85.9809 8.06836 85.6782 7.82227 85.4633C7.57617 85.2446 7.23047 85.1352 6.78516 85.1352C6.35547 85.1352 6.02148 85.227 5.7832 85.4106C5.54492 85.5903 5.42578 85.8286 5.42578 86.1254C5.42578 86.4028 5.56445 86.6352 5.8418 86.8227C6.12305 87.0102 6.53516 87.186 7.07812 87.35C8.07812 87.6508 8.80664 88.0239 9.26367 88.4692C9.7207 88.9145 9.94922 89.4692 9.94922 90.1332C9.94922 90.8715 9.66992 91.4516 9.11133 91.8735C8.55273 92.2914 7.80078 92.5004 6.85547 92.5004C6.19922 92.5004 5.60156 92.3813 5.0625 92.143C4.52344 91.9008 4.11133 91.5707 3.82617 91.1528C3.54492 90.7348 3.4043 90.2504 3.4043 89.6996H5.16797C5.16797 90.6411 5.73047 91.1118 6.85547 91.1118C7.27344 91.1118 7.59961 91.0278 7.83398 90.8598C8.06836 90.6879 8.18555 90.4496 8.18555 90.145Z" fill="#8C6FAA"/>
<path d="M55.048 115.484H53.6476V118.607H51.8898V110.076H55.0598C56.0676 110.076 56.8449 110.3 57.3918 110.749C57.9387 111.199 58.2121 111.833 58.2121 112.654C58.2121 113.236 58.0851 113.722 57.8312 114.113C57.5812 114.499 57.2004 114.808 56.6887 115.039L58.5344 118.525V118.607H56.6476L55.048 115.484ZM53.6476 114.06H55.0656C55.507 114.06 55.8488 113.949 56.091 113.726C56.3332 113.499 56.4543 113.189 56.4543 112.794C56.4543 112.392 56.3391 112.076 56.1086 111.845C55.882 111.615 55.5324 111.499 55.0598 111.499H53.6476V114.06Z" fill="#8C6FAA"/>
<path d="M100.92 88.877H99.5195V92H97.7617V83.4688H100.932C101.939 83.4688 102.717 83.6934 103.264 84.1426C103.811 84.5918 104.084 85.2266 104.084 86.0469C104.084 86.6289 103.957 87.1152 103.703 87.5059C103.453 87.8926 103.072 88.2012 102.561 88.4316L104.406 91.918V92H102.52L100.92 88.877ZM99.5195 87.4531H100.938C101.379 87.4531 101.721 87.3418 101.963 87.1191C102.205 86.8926 102.326 86.582 102.326 86.1875C102.326 85.7852 102.211 85.4688 101.98 85.2383C101.754 85.0078 101.404 84.8926 100.932 84.8926H99.5195V87.4531ZM107.951 90.752C108.264 90.752 108.518 90.666 108.713 90.4941C108.908 90.3223 109.01 90.0938 109.018 89.8086H110.605C110.602 90.2383 110.484 90.6328 110.254 90.9922C110.023 91.3477 109.707 91.625 109.305 91.8242C108.906 92.0195 108.465 92.1172 107.98 92.1172C107.074 92.1172 106.359 91.8301 105.836 91.2559C105.312 90.6777 105.051 89.8809 105.051 88.8652V88.7539C105.051 87.7773 105.311 86.998 105.83 86.416C106.35 85.834 107.062 85.543 107.969 85.543C108.762 85.543 109.396 85.7695 109.873 86.2227C110.354 86.6719 110.598 87.2715 110.605 88.0215H109.018C109.01 87.6934 108.908 87.4277 108.713 87.2246C108.518 87.0176 108.26 86.9141 107.939 86.9141C107.545 86.9141 107.246 87.0586 107.043 87.3477C106.844 87.6328 106.744 88.0977 106.744 88.7422V88.918C106.744 89.5703 106.844 90.0391 107.043 90.3242C107.242 90.6094 107.545 90.752 107.951 90.752Z" fill="#8C6FAA"/>
<path d="M100.979 40.8405H99.2214V32.3093H100.979V40.8405Z" fill="#8C6FAA"/>
</svg>
