<svg width="254" height="123" viewBox="0 0 254 123" fill="none" xmlns="http://www.w3.org/2000/svg">
<path d="M248.62 79.8368C246.932 77.8506 244.864 76.2229 242.537 75.0498C240.209 73.8766 237.67 73.182 235.07 73.0068C233.753 72.8898 232.536 72.256 231.685 71.244C230.834 70.232 230.419 68.9243 230.53 67.6068C230.605 66.6914 230.934 65.8152 231.48 65.0768L249.34 40.5068C173.09 -14.8932 72.34 -12.0932 0 40.5068L17.87 65.0968C18.2527 65.6337 18.7379 66.0895 19.2975 66.4382C19.8571 66.7868 20.4801 67.0213 21.1307 67.1282C21.7813 67.2351 22.4467 67.2122 23.0884 67.0609C23.7301 66.9097 24.3356 66.633 24.87 66.2468C25.6122 65.7076 26.1959 64.9788 26.56 64.1368C27.8694 60.9001 30.0204 58.0725 32.7902 55.9468C35.5601 53.8211 38.8479 52.4747 42.3131 52.0471C45.7783 51.6196 49.2948 52.1263 52.4983 53.5149C55.7017 54.9036 58.4756 57.1235 60.5325 59.9448C62.5894 62.7661 63.8545 66.0861 64.1967 69.5607C64.5389 73.0354 63.9458 76.5384 62.4787 79.7067C61.0117 82.875 58.7242 85.5935 55.8532 87.5803C52.9821 89.5672 49.632 90.7502 46.15 91.0068C44.8281 91.1016 43.598 91.7172 42.7298 92.7185C41.8616 93.7198 41.4265 95.0248 41.52 96.3468C41.5917 97.2812 41.9205 98.1776 42.47 98.9368L59.23 122.007C78.2662 108.21 101.175 100.782 124.685 100.782C148.195 100.782 171.104 108.21 190.14 122.007L206.9 98.9268C207.423 98.1951 208.135 97.6182 208.958 97.2569C209.782 96.8956 210.688 96.7633 211.581 96.8738C212.474 96.9844 213.32 97.3338 214.031 97.8852C214.742 98.4366 215.291 99.1695 215.62 100.007C216.69 102.633 218.319 104.996 220.392 106.931C222.466 108.867 224.935 110.328 227.629 111.215C230.324 112.102 233.178 112.393 235.996 112.068C238.814 111.743 241.527 110.81 243.949 109.333C246.37 107.856 248.442 105.87 250.02 103.514C251.599 101.157 252.646 98.4856 253.09 95.6842C253.535 92.8828 253.365 90.0184 252.593 87.289C251.821 84.5597 250.466 82.0306 248.62 79.8768V79.8368Z" fill="url(#paint0_linear)"/>
<path d="M92.2006 51.9868V36.2388H97.3031C99.2367 36.2388 100.497 36.3175 101.084 36.4751C101.987 36.7114 102.742 37.2271 103.351 38.022C103.96 38.8097 104.264 39.8302 104.264 41.0835C104.264 42.0503 104.089 42.8631 103.738 43.522C103.387 44.1808 102.939 44.7 102.395 45.0796C101.858 45.452 101.31 45.6991 100.751 45.8208C99.9922 45.9712 98.8929 46.0464 97.4535 46.0464H95.3802V51.9868H92.2006ZM95.3802 38.9028V43.3716H97.1205C98.3737 43.3716 99.2116 43.2892 99.6342 43.1245C100.057 42.9598 100.386 42.702 100.622 42.3511C100.866 42.0002 100.988 41.592 100.988 41.1265C100.988 40.5535 100.819 40.0809 100.483 39.7085C100.146 39.3361 99.7201 39.1034 99.2045 39.0103C98.8249 38.9386 98.0622 38.9028 96.9164 38.9028H95.3802ZM109.743 51.9868H106.724V40.5786H109.528V42.2007C110.008 41.4344 110.437 40.9295 110.817 40.686C111.203 40.4425 111.64 40.3208 112.127 40.3208C112.815 40.3208 113.477 40.5106 114.115 40.8901L113.18 43.522C112.672 43.1925 112.199 43.0278 111.762 43.0278C111.34 43.0278 110.981 43.146 110.688 43.3823C110.394 43.6115 110.161 44.0304 109.99 44.6392C109.825 45.2479 109.743 46.5226 109.743 48.4634V51.9868ZM114.727 46.1216C114.727 45.119 114.974 44.1486 115.468 43.2104C115.962 42.2723 116.661 41.5562 117.563 41.062C118.472 40.5679 119.486 40.3208 120.603 40.3208C122.329 40.3208 123.743 40.883 124.846 42.0073C125.949 43.1245 126.5 44.5389 126.5 46.2505C126.5 47.9764 125.942 49.4087 124.825 50.5474C123.715 51.6789 122.314 52.2446 120.624 52.2446C119.579 52.2446 118.58 52.0083 117.627 51.5356C116.682 51.063 115.962 50.3719 115.468 49.4624C114.974 48.5457 114.727 47.4321 114.727 46.1216ZM117.821 46.2827C117.821 47.4142 118.089 48.2808 118.626 48.8823C119.163 49.4839 119.826 49.7847 120.614 49.7847C121.401 49.7847 122.06 49.4839 122.59 48.8823C123.127 48.2808 123.396 47.4071 123.396 46.2612C123.396 45.144 123.127 44.2847 122.59 43.6831C122.06 43.0815 121.401 42.7808 120.614 42.7808C119.826 42.7808 119.163 43.0815 118.626 43.6831C118.089 44.2847 117.821 45.1512 117.821 46.2827ZM128.745 51.9868V36.2388H131.764V41.9106C132.695 40.8507 133.798 40.3208 135.073 40.3208C136.462 40.3208 137.611 40.8257 138.521 41.8354C139.43 42.8381 139.885 44.2811 139.885 46.1646C139.885 48.1125 139.42 49.6128 138.489 50.6655C137.565 51.7183 136.44 52.2446 135.116 52.2446C134.464 52.2446 133.819 52.0835 133.182 51.7612C132.552 51.4318 132.008 50.9484 131.549 50.311V51.9868H128.745ZM131.743 46.0356C131.743 47.2173 131.929 48.091 132.301 48.6567C132.824 49.4588 133.519 49.8599 134.385 49.8599C135.051 49.8599 135.617 49.577 136.082 49.0112C136.555 48.4383 136.791 47.5396 136.791 46.3149C136.791 45.0116 136.555 44.0734 136.082 43.5005C135.61 42.9204 135.005 42.6304 134.267 42.6304C133.544 42.6304 132.942 42.9132 132.462 43.479C131.982 44.0376 131.743 44.8898 131.743 46.0356ZM142.324 51.9868V36.2388H145.342V51.9868H142.324ZM155.053 48.356L158.061 48.8608C157.674 49.9637 157.062 50.8052 156.224 51.3853C155.393 51.9582 154.351 52.2446 153.098 52.2446C151.114 52.2446 149.646 51.5965 148.694 50.3003C147.942 49.2619 147.566 47.9513 147.566 46.3687C147.566 44.478 148.06 42.9992 149.048 41.9321C150.036 40.8579 151.286 40.3208 152.797 40.3208C154.495 40.3208 155.834 40.883 156.815 42.0073C157.796 43.1245 158.265 44.8397 158.222 47.1528H150.66C150.681 48.048 150.925 48.7463 151.39 49.2476C151.856 49.7417 152.436 49.9888 153.13 49.9888C153.603 49.9888 154 49.8599 154.323 49.6021C154.645 49.3442 154.888 48.9289 155.053 48.356ZM155.225 45.3052C155.203 44.4315 154.978 43.769 154.548 43.3179C154.119 42.8595 153.596 42.6304 152.98 42.6304C152.321 42.6304 151.777 42.8703 151.347 43.3501C150.917 43.8299 150.706 44.4816 150.713 45.3052H155.225ZM160.467 40.5786H163.249V42.1362C164.245 40.9259 165.43 40.3208 166.805 40.3208C167.536 40.3208 168.169 40.4712 168.706 40.772C169.244 41.0728 169.684 41.5275 170.028 42.1362C170.529 41.5275 171.07 41.0728 171.65 40.772C172.23 40.4712 172.849 40.3208 173.508 40.3208C174.346 40.3208 175.055 40.4927 175.635 40.8364C176.215 41.173 176.648 41.6707 176.935 42.3296C177.143 42.8166 177.246 43.6043 177.246 44.6929V51.9868H174.228V45.4663C174.228 44.3348 174.124 43.6043 173.916 43.2749C173.637 42.8452 173.207 42.6304 172.627 42.6304C172.205 42.6304 171.807 42.7593 171.435 43.0171C171.063 43.2749 170.794 43.6545 170.629 44.1558C170.465 44.6499 170.382 45.4341 170.382 46.5083V51.9868H167.364V45.7349C167.364 44.6248 167.31 43.9087 167.203 43.5864C167.095 43.2642 166.927 43.0243 166.698 42.8667C166.476 42.7091 166.171 42.6304 165.785 42.6304C165.319 42.6304 164.9 42.7557 164.528 43.0063C164.155 43.257 163.887 43.6187 163.722 44.0913C163.564 44.564 163.486 45.3481 163.486 46.4438V51.9868H160.467V40.5786Z" fill="white"/>
<path d="M97.5179 68.8628L100.612 68.562C100.798 69.6004 101.174 70.3631 101.74 70.8501C102.313 71.3371 103.082 71.5806 104.049 71.5806C105.073 71.5806 105.843 71.3657 106.359 70.936C106.882 70.4992 107.143 69.9907 107.143 69.4106C107.143 69.0382 107.032 68.7231 106.81 68.4653C106.595 68.2004 106.216 67.9712 105.671 67.7778C105.299 67.6489 104.45 67.4198 103.125 67.0903C101.421 66.6678 100.225 66.1486 99.5375 65.5327C98.5707 64.6662 98.0873 63.6099 98.0873 62.3638C98.0873 61.5617 98.3129 60.8133 98.764 60.1187C99.2224 59.4168 99.8776 58.8833 100.73 58.5181C101.589 58.1528 102.624 57.9702 103.834 57.9702C105.811 57.9702 107.297 58.4035 108.292 59.27C109.295 60.1366 109.821 61.2931 109.871 62.7397L106.692 62.8794C106.556 62.0701 106.262 61.4901 105.811 61.1392C105.367 60.7811 104.697 60.6021 103.802 60.6021C102.878 60.6021 102.155 60.7918 101.632 61.1714C101.296 61.4149 101.127 61.7407 101.127 62.1489C101.127 62.5213 101.285 62.84 101.6 63.105C102.001 63.4416 102.975 63.7925 104.522 64.1577C106.069 64.5229 107.211 64.9025 107.949 65.2964C108.693 65.6831 109.273 66.2166 109.689 66.897C110.111 67.5701 110.323 68.4045 110.323 69.3999C110.323 70.3022 110.072 71.1473 109.571 71.9351C109.069 72.7228 108.36 73.3101 107.444 73.6968C106.527 74.0763 105.385 74.2661 104.017 74.2661C102.026 74.2661 100.497 73.8078 99.4301 72.8911C98.363 71.9673 97.7256 70.6245 97.5179 68.8628ZM112.278 68.1216C112.278 67.119 112.525 66.1486 113.019 65.2104C113.513 64.2723 114.211 63.5562 115.114 63.062C116.023 62.5679 117.036 62.3208 118.154 62.3208C119.88 62.3208 121.294 62.883 122.397 64.0073C123.5 65.1245 124.051 66.5389 124.051 68.2505C124.051 69.9764 123.493 71.4087 122.375 72.5474C121.265 73.6789 119.865 74.2446 118.175 74.2446C117.13 74.2446 116.131 74.0083 115.178 73.5356C114.233 73.063 113.513 72.3719 113.019 71.4624C112.525 70.5457 112.278 69.4321 112.278 68.1216ZM115.371 68.2827C115.371 69.4142 115.64 70.2808 116.177 70.8823C116.714 71.4839 117.377 71.7847 118.164 71.7847C118.952 71.7847 119.611 71.4839 120.141 70.8823C120.678 70.2808 120.947 69.4071 120.947 68.2612C120.947 67.144 120.678 66.2847 120.141 65.6831C119.611 65.0815 118.952 64.7808 118.164 64.7808C117.377 64.7808 116.714 65.0815 116.177 65.6831C115.64 66.2847 115.371 67.1512 115.371 68.2827ZM126.425 73.9868V58.2388H129.444V73.9868H126.425ZM135.685 73.9868L131.087 62.5786H134.256L136.405 68.4009L137.028 70.3452C137.192 69.8511 137.296 69.5252 137.339 69.3677C137.439 69.0454 137.547 68.7231 137.661 68.4009L139.831 62.5786H142.936L138.403 73.9868H135.685ZM144.794 61.0317V58.2388H147.813V61.0317H144.794ZM144.794 73.9868V62.5786H147.813V73.9868H144.794ZM161.294 73.9868H158.276V68.1646C158.276 66.9328 158.211 66.1379 158.082 65.7798C157.953 65.4146 157.742 65.1317 157.449 64.9312C157.162 64.7306 156.815 64.6304 156.407 64.6304C155.884 64.6304 155.415 64.7736 154.999 65.0601C154.584 65.3465 154.298 65.7261 154.14 66.1987C153.99 66.6714 153.914 67.5451 153.914 68.8198V73.9868H150.896V62.5786H153.7V64.2544C154.695 62.9653 155.948 62.3208 157.459 62.3208C158.125 62.3208 158.734 62.4425 159.286 62.686C159.837 62.9224 160.252 63.2267 160.532 63.5991C160.818 63.9715 161.015 64.394 161.122 64.8667C161.237 65.3394 161.294 66.0161 161.294 66.897V73.9868ZM164.087 74.7388L167.536 75.1577C167.593 75.5588 167.725 75.8345 167.933 75.9849C168.219 76.1997 168.671 76.3071 169.286 76.3071C170.074 76.3071 170.665 76.189 171.059 75.9526C171.324 75.7951 171.524 75.5409 171.661 75.1899C171.754 74.9393 171.8 74.4774 171.8 73.8042V72.1392C170.898 73.3709 169.759 73.9868 168.384 73.9868C166.852 73.9868 165.638 73.3387 164.743 72.0425C164.041 71.0184 163.69 69.7437 163.69 68.2183C163.69 66.3062 164.148 64.8452 165.065 63.8354C165.989 62.8257 167.134 62.3208 168.502 62.3208C169.913 62.3208 171.077 62.9403 171.994 64.1792V62.5786H174.819V72.8159C174.819 74.1623 174.708 75.1685 174.486 75.8345C174.264 76.5005 173.952 77.0233 173.551 77.4028C173.15 77.7824 172.613 78.0796 171.94 78.2944C171.274 78.5093 170.429 78.6167 169.405 78.6167C167.471 78.6167 166.1 78.2837 165.29 77.6177C164.481 76.9588 164.077 76.1209 164.077 75.104C164.077 75.0037 164.08 74.882 164.087 74.7388ZM166.784 68.0464C166.784 69.2567 167.016 70.1447 167.482 70.7104C167.954 71.269 168.535 71.5483 169.222 71.5483C169.96 71.5483 170.583 71.2619 171.091 70.689C171.6 70.1089 171.854 69.2531 171.854 68.1216C171.854 66.9399 171.61 66.0627 171.123 65.4897C170.636 64.9168 170.021 64.6304 169.276 64.6304C168.552 64.6304 167.954 64.9132 167.482 65.479C167.016 66.0376 166.784 66.8934 166.784 68.0464Z" fill="white"/>
<defs>
<linearGradient id="paint0_linear" x1="2.897" y1="52.3471" x2="256.197" y2="52.3471" gradientUnits="userSpaceOnUse">
<stop stop-color="#9EC663"/>
<stop offset="1" stop-color="#D8D85D"/>
</linearGradient>
</defs>
</svg>
