<svg width="237" height="347" viewBox="0 0 237 347" fill="none" xmlns="http://www.w3.org/2000/svg">
<path d="M152.55 217.97H76.58V238.65H152.55V217.97Z" fill="#798078"/>
<path d="M120.5 259.1H108.38V292.12H120.5V259.1Z" fill="#B1B1B1"/>
<path d="M165.11 324.86H161.58V334.6H165.11V324.86Z" fill="#141423"/>
<path d="M153.71 339.13C153.786 340.444 154.245 341.707 155.031 342.763C155.817 343.819 156.895 344.622 158.132 345.073C159.369 345.523 160.71 345.602 161.991 345.299C163.272 344.995 164.437 344.324 165.34 343.366C166.244 342.409 166.847 341.208 167.076 339.912C167.305 338.616 167.149 337.281 166.628 336.072C166.107 334.863 165.243 333.833 164.144 333.11C163.044 332.386 161.756 332 160.44 332C159.53 332.026 158.634 332.231 157.803 332.603C156.972 332.976 156.222 333.508 155.597 334.17C154.972 334.832 154.484 335.611 154.16 336.462C153.836 337.313 153.683 338.22 153.71 339.13V339.13Z" fill="#1F1F1E"/>
<path d="M116.85 324.86H113.32V334.6H116.85V324.86Z" fill="#141423"/>
<path d="M105.45 339.13C105.526 340.444 105.985 341.707 106.771 342.763C107.557 343.819 108.635 344.622 109.872 345.073C111.109 345.523 112.45 345.602 113.731 345.299C115.012 344.995 116.176 344.324 117.08 343.366C117.984 342.409 118.587 341.208 118.816 339.912C119.045 338.616 118.889 337.281 118.368 336.072C117.847 334.863 116.983 333.833 115.884 333.11C114.784 332.386 113.496 332 112.18 332C111.27 332.026 110.374 332.231 109.543 332.603C108.712 332.976 107.962 333.508 107.337 334.17C106.712 334.832 106.224 335.611 105.9 336.462C105.576 337.313 105.423 338.22 105.45 339.13V339.13Z" fill="#1F1F1E"/>
<path d="M67.71 324.86H64.18V334.6H67.71V324.86Z" fill="#141423"/>
<path d="M75.58 339.13C75.5038 340.444 75.0445 341.707 74.2587 342.763C73.4729 343.819 72.395 344.622 71.1581 345.073C69.9213 345.523 68.5795 345.602 67.2985 345.299C66.0176 344.995 64.8534 344.324 63.9499 343.366C63.0463 342.409 62.4428 341.208 62.2139 339.912C61.9851 338.616 62.1408 337.281 62.6619 336.072C63.183 334.863 64.0468 333.833 65.1464 333.11C66.2461 332.386 67.5336 332 68.85 332C70.6873 332.055 72.4278 332.836 73.6895 334.173C74.9512 335.51 75.6311 337.293 75.58 339.13V339.13Z" fill="#1F1F1E"/>
<path d="M123.43 286.42H105.46V319.44H123.43V286.42Z" fill="#3C3C3B"/>
<path d="M167.57 328.38H61.39V321.8L114.6 315.23L167.6 321.8L167.57 328.38Z" fill="#3C3C3B"/>
<path d="M64.19 243.64V254.64C64.19 257.37 66.82 259.64 70.05 259.64H161.13C164.44 259.64 167.13 257.36 167.13 254.53V243.74C167.13 240.94 164.44 238.66 161.13 238.66H70.06C66.82 238.66 64.19 240.88 64.19 243.64Z" fill="#1D1D1B"/>
<path d="M73.91 307.81C73.91 312.21 73.91 316.37 74.08 320.22C74.15 322.14 74.25 323.98 74.39 325.72C74.45 326.63 74.52 327.52 74.59 328.37C74.76 330.42 75 332.37 75.27 334.14C75.44 335.33 75.64 336.52 75.85 337.58C76.1747 339.161 76.5955 340.72 77.11 342.25V343.38H102.65L103.23 328.38L103.7 316.58L104.62 293.74L105.07 282.11L105.85 262.33L105.95 259.61L106.8 238.67L107.42 222.85H77.15C77.01 228.103 76.8166 233.377 76.57 238.67C76.57 238.81 76.57 238.98 76.57 239.11C76.57 240.31 76.51 241.46 76.44 242.66C76.2 248.36 75.9366 254.027 75.65 259.66C75.65 260.58 75.55 261.5 75.52 262.38C75.52 262.9 75.52 263.38 75.45 263.88C75.25 268.01 75.07 272.06 74.87 276.09C74.8 278.14 74.7 280.15 74.6 282.16C74.6 283.49 74.53 284.78 74.46 286.08C74.46 286.73 74.46 287.37 74.39 288.08C74.39 288.15 74.39 288.21 74.39 288.28C74.39 289.16 74.39 290.09 74.32 290.94C74.25 291.79 74.25 292.85 74.22 293.8C74.19 294.75 74.22 295.47 74.15 296.32C74.08 297.17 74.15 298.32 74.08 299.32V299.93C73.9666 302.597 73.91 305.223 73.91 307.81Z" fill="#798078"/>
<path d="M89.56 333C82.51 333 76.83 333.78 77.12 343.4H102.64C102.33 333.31 96.61 333 89.56 333Z" fill="#141423"/>
<path d="M102.73 346.26H77.21L77.09 342.26H102.6L102.73 346.26Z" fill="#17191E"/>
<path d="M121.88 222.84L122.63 238.66L123.63 259.6L123.77 262.33L124.77 282.1L125.35 293.73L126 307.88L126.41 316.68L126.99 328.38L127.7 343.38H153.2V342.22C153.436 341.23 153.619 340.229 153.75 339.22C153.89 338.51 153.99 337.8 154.06 337.08C154.4 334.52 154.61 331.62 154.78 328.45C154.84 327.29 154.88 326.07 154.95 324.84C154.95 323.37 155.01 321.84 155.05 320.3C155.05 319.72 155.05 319.08 155.05 318.46C155.05 316.62 155.05 314.68 155.05 312.66C155.05 310.64 155.05 308.43 155.05 306.22V305.54C155.05 304.72 155.05 303.87 154.98 303.02C154.98 301.34 154.98 299.61 154.92 297.83C154.92 296.5 154.82 295.17 154.82 293.83C154.753 291.41 154.687 288.953 154.62 286.46C154.55 285.06 154.52 283.63 154.45 282.2V281.35C154.38 279.58 154.31 277.83 154.25 276.03C154.25 274.97 154.18 273.95 154.11 272.89C154.04 271.83 154.04 270.81 154.01 269.75C153.91 267.3 153.81 264.88 153.71 262.42C153.71 261.54 153.64 260.61 153.61 259.7C153.43 255.61 153.23 251.45 153.09 247.25C153.1 247.228 153.105 247.204 153.105 247.18C153.105 247.156 153.1 247.132 153.09 247.11C152.99 244.35 152.89 241.55 152.78 238.76C152.58 233.47 152.37 228.19 152.23 222.94L121.88 222.84Z" fill="#798078"/>
<path d="M140.65 333C147.65 333 153.39 333.78 153.18 343.4H127.66C127.89 333.31 133.61 333 140.65 333Z" fill="#141423"/>
<path d="M127.6 346.26H153.11L153.2 342.26H127.69L127.6 346.26Z" fill="#17191E"/>
<path opacity="0.15" d="M74.08 320.23C74.16 322.137 74.26 323.967 74.38 325.72C74.44 326.63 74.51 327.52 74.58 328.38C74.77 330.43 75 332.38 75.27 334.13C75.4 332.23 75.53 330.3 75.61 328.38C75.7566 325.587 75.85 322.793 75.89 320C75.89 319.42 75.89 318.81 75.89 318.23L78.12 319.73L80.48 321.32C79.9665 320.788 79.4919 320.22 79.06 319.62C77.2114 317.18 76.0262 314.304 75.62 311.27C78.0246 313.181 80.8319 314.522 83.83 315.19C80.73 312.54 78.67 311.27 76.56 307.82C75.9787 303.15 75.8414 298.436 76.15 293.74C76.25 291.15 76.35 288.65 76.25 286.09C76.19 284.76 76.15 283.44 76.09 282.09C75.85 275.99 75.61 269.897 75.37 263.81C75.17 267.937 74.98 272.003 74.8 276.01C74.71 278.06 74.63 280.08 74.54 282.08C74.48 283.41 74.44 284.71 74.38 286C74.38 286.66 74.38 287.32 74.31 288C74.31 288.07 74.31 288.15 74.31 288.21C74.31 289.1 74.25 290.01 74.22 290.88C74.19 291.75 74.17 292.79 74.14 293.73C74.11 294.67 74.08 295.41 74.06 296.25C74.06 297.25 74.06 298.25 73.99 299.25C73.99 299.47 73.99 299.67 73.99 299.87C73.93 302.61 73.89 305.26 73.89 307.87C73.87 312.2 73.93 316.36 74.08 320.23Z" fill="black"/>
<path opacity="0.15" d="M140.39 296.31C142.766 296.157 145.031 295.254 146.86 293.73C149.035 291.82 150.792 289.481 152.02 286.86C152.24 289.11 152.45 291.41 152.65 293.73C153.4 302.33 154.03 311.34 154.59 320.19C154.69 321.71 154.79 323.19 154.88 324.75C154.93 323.3 154.96 321.8 154.99 320.23C154.99 319.63 154.99 319.01 154.99 318.4C154.99 316.53 154.99 314.6 154.99 312.61C154.99 310.62 154.99 308.36 154.99 306.15V305.48C154.99 304.65 154.99 303.81 154.99 302.95C154.99 301.26 154.93 299.53 154.89 297.76C154.89 296.45 154.83 295.1 154.79 293.76C154.73 291.347 154.663 288.897 154.59 286.41C154.53 285 154.49 283.57 154.44 282.13C154.44 281.86 154.44 281.57 154.44 281.29C154.36 279.54 154.3 277.76 154.24 275.97C154.24 274.92 154.16 273.88 154.12 272.83C154.08 271.78 154.05 270.73 154.01 269.67C153.23 273.915 152.083 278.084 150.58 282.13C149.096 286.421 146.775 290.374 143.75 293.76C142.756 294.765 141.625 295.623 140.39 296.31V296.31Z" fill="black"/>
<path opacity="0.15" d="M77.18 342.22H77.11H77.18L86.49 343.31H102.65L103.23 328.31L103.71 316.51L104.63 293.67L105.07 282.04L105.86 262.26L105.96 259.53H123.62L123.76 262.26L124.76 282.04L125.34 293.67L125.99 307.82L126.4 316.62L126.98 328.32L127.69 343.32H143.89L153.2 342.23V342.17L150.68 340.53C147.457 338.427 144.537 335.894 142 333C140.731 331.553 139.568 330.015 138.52 328.4C134.485 322.192 132.103 315.057 131.6 307.67L130.51 293.76L129.56 282.13L128.56 259.63L128 246.76C128.423 243.655 129.92 240.797 132.23 238.68C137 234.25 144.61 233.77 149.23 238.68C151.304 241.005 152.62 243.907 153 247C153.015 247.045 153.015 247.095 153 247.14C152.9 244.34 152.8 241.51 152.73 238.65C152.46 228.25 152.42 217.47 152.11 207.21H77.11C76.8 218.02 76.83 228.21 76.53 238.65C76.53 238.79 76.53 238.96 76.53 239.09C76.53 240.29 76.46 241.44 76.4 242.64C76.4 243.56 76.33 244.52 76.3 245.44C76.5027 242.943 77.4818 240.572 79.1 238.66C83.8 233.37 93.1 233.85 98.1 238.66C99.2175 239.689 100.11 240.938 100.721 242.328C101.332 243.719 101.648 245.221 101.65 246.74L101.14 259.59L100.21 282.09L99.4 293.72L98.4 307.63C97.9893 315.009 95.6629 322.154 91.65 328.36C90.6308 329.987 89.4767 331.526 88.2 332.96C85.7127 335.889 82.8202 338.448 79.61 340.56L77.18 342.22Z" fill="black"/>
<path d="M124.62 91.43L105.55 79.32C102.08 93.52 102.3 90.26 99.29 105.24C107.48 117.69 114.97 120.1 123.6 110.14L124.62 91.43Z" fill="#E7BE8D"/>
<path d="M78.48 148.93C79.72 161.87 77.35 180.31 78.59 191.76V191.81H146.29V191.76C146.29 191.68 146.29 191.53 146.29 191.31C146.56 188.318 146.671 185.314 146.62 182.31C146.62 177.5 146.34 172.24 146.16 167.01C145.837 160.788 145.923 154.551 146.42 148.34C146.581 146.716 146.839 145.103 147.19 143.51C148.71 136.62 149.32 127.84 151.32 111.98H151.26C142.74 108.43 131.58 103.59 129.73 101.83C126.13 103.22 123.16 112.28 119.45 112.7C110.59 114.7 108.92 112.9 106.36 112.7C101.85 112.33 98.12 103 95.07 101.83C93.22 103.59 82 108.45 73.48 112C75.48 127.86 76.09 136.64 77.62 143.53C78.0114 145.312 78.2985 147.115 78.48 148.93V148.93Z" fill="white"/>
<path d="M146.08 167L141.62 191.73H162.62L164.62 162.14C162.27 146.82 157.54 129.85 151.42 111.92H151.35L132.96 116.76L142 151.57L146.08 167Z" fill="#ECECEC"/>
<path d="M110.31 191.76H162.6L173 157.06C170.65 141.74 163.76 124.49 151.39 111.96H151.32C142.81 108.4 131.65 103.57 129.8 101.81C126.17 103.22 110.3 156 110.3 156C109.62 165.94 110.31 191.76 110.31 191.76Z" fill="#798078"/>
<path d="M117.42 143.38L111.42 152.18L105.62 142.71L110 119.08H115L117.42 143.38Z" fill="#D9664E"/>
<path d="M116 113.62H109L109.8 120.19C111.555 120.502 113.354 120.478 115.1 120.12L116 113.62Z" fill="#C95E49"/>
<path d="M111.48 191.76L71.87 191.9V179.09L49.11 177.27C48.64 153.85 64.48 128.18 73.48 111.96H73.55C82.07 108.41 93.23 103.57 95.08 101.81C98.67 103.22 112 156 112 156C112.65 165.94 111.48 191.76 111.48 191.76Z" fill="#798078"/>
<path d="M123.85 120.73C127.851 115.4 130.323 109.08 131 102.45L124.2 98.66C123.429 101.853 121.984 104.844 119.96 107.431C117.937 110.018 115.383 112.142 112.47 113.66L123.85 120.73Z" fill="#D9D9D9"/>
<path d="M101 120.73C97.0168 115.394 94.5591 109.075 93.89 102.45L100.69 98.66C101.461 101.853 102.906 104.844 104.93 107.431C106.953 110.018 109.507 112.142 112.42 113.66L101 120.73Z" fill="#D9D9D9"/>
<path d="M110.31 156C110.62 155.58 110.9 155.17 111.2 154.76C111.5 154.35 111.7 154.08 111.97 153.76C121.97 140.06 135.5 121.93 135.5 121.93C135.5 121.93 127.87 117.93 128.42 117.38L136.78 117.66L135.24 104.96L127.59 100.41C122.03 118.77 116.5 134.35 111.59 151.41C111.33 152.31 111.06 153.22 110.82 154.14C110.66 154.75 110.48 155.35 110.31 156Z" fill="#9CA79A"/>
<path d="M89.37 121.89C89.37 121.89 101.68 139.06 110.83 154.14C110.964 154.337 111.088 154.54 111.2 154.75C111.46 154.4 111.7 154.07 111.97 153.75C111.86 152.97 111.73 152.21 111.6 151.44C108.46 132.82 102.81 118.68 97.28 100.44L89.63 104.99L88.09 117.69L96.45 117.41C97 117.93 89.37 121.89 89.37 121.89Z" fill="#9CA79A"/>
<path d="M109.55 165.19C109.55 165.526 109.65 165.855 109.836 166.134C110.023 166.414 110.289 166.632 110.599 166.761C110.91 166.889 111.252 166.923 111.582 166.857C111.911 166.792 112.214 166.63 112.452 166.392C112.69 166.154 112.852 165.851 112.917 165.522C112.983 165.192 112.949 164.85 112.821 164.539C112.692 164.229 112.474 163.963 112.194 163.776C111.915 163.59 111.586 163.49 111.25 163.49C110.799 163.49 110.367 163.669 110.048 163.988C109.729 164.307 109.55 164.739 109.55 165.19Z" fill="#C5C5C5"/>
<path d="M137 86C136.15 90.9 131.39 102.29 127.6 103.8C124.769 105 121.58 105.04 118.72 103.91C115.691 102.627 113.08 100.525 111.18 97.84C109.25 95.34 107.53 94.35 106.78 91.28C106.191 88.3659 105.979 85.3881 106.15 82.42C106.2 79.02 102.81 80.06 102.86 76.65C102.86 74.09 101.73 66.99 102.86 64.65C103.99 62.31 109.32 55.05 111.79 54.13C114.26 53.21 130.66 49.72 137.62 61.83C140.48 66.8 140 69 137 86Z" fill="#F6CA97"/>
<path opacity="0.1" d="M139 125.82L142.11 149L115.64 170.92L84.72 153.92L86.29 126.27L69.09 162.12L96.19 181.2H129.87L165.74 175.7L139 125.82Z" fill="black"/>
<path d="M179.11 165.42C179.184 167.531 178.624 169.617 177.503 171.408C176.382 173.199 174.751 174.613 172.82 175.47L172.62 175.57C171.346 176.135 169.974 176.443 168.581 176.477C167.188 176.512 165.802 176.271 164.502 175.77C163.202 175.268 162.013 174.516 161.004 173.555C159.995 172.594 159.185 171.444 158.62 170.17C158.19 169.41 157.76 168.65 157.33 167.87C156.9 167.09 156.38 166.17 155.92 165.32C153.2 160.32 150.63 155.32 148.31 150.25C147.15 147.75 146.06 145.247 145.04 142.74C142.891 137.599 141.024 132.345 139.45 127C138.881 125.728 138.568 124.356 138.53 122.963C138.493 121.57 138.731 120.183 139.231 118.882C139.731 117.581 140.483 116.392 141.443 115.382C142.404 114.373 143.555 113.563 144.83 113V113L145.03 112.9C146.303 112.332 147.675 112.021 149.068 111.985C150.462 111.949 151.848 112.188 153.149 112.689C154.45 113.189 155.639 113.942 156.648 114.903C157.657 115.864 158.467 117.015 159.03 118.29V118.29L164.35 130.29L164.88 131.48L165.65 133.23L166.37 134.84L166.59 135.32L166.79 135.8L167.88 138.25L168.3 139.17L168.81 140.35L170.11 143.28L178.21 161.54C178.751 162.765 179.057 164.082 179.11 165.42V165.42Z" fill="#798078"/>
<path d="M86.36 169.43C89.113 169.84 91.9131 169.82 94.66 169.37C96.5 169.07 98.32 168.57 100.18 168.44C105.18 168.09 109.9 170.35 114.37 172.55L124.46 177.55C124.83 177.686 125.146 177.939 125.36 178.27C125.544 178.642 125.574 179.071 125.443 179.464C125.312 179.858 125.03 180.183 124.66 180.37C124.496 180.458 124.315 180.512 124.13 180.53C120.055 181.02 115.935 181.02 111.86 180.53C110.09 180.24 109.09 179.19 107.31 179.35C105.951 179.568 104.612 179.903 103.31 180.35C97.6301 181.838 91.6198 181.435 86.19 179.2C86.5464 175.955 86.6033 172.685 86.36 169.43Z" fill="#F7CFA0"/>
<path d="M93.91 169.48L91.46 183.77C88.05 184.65 53.26 188.41 50.17 181.77C44.17 168.84 65.39 161.45 69.09 160.57C78 165.08 78.73 165.09 93.91 169.48Z" fill="#798078"/>
<path d="M36.39 191.58H27.91V344.25H36.39V191.58Z" fill="#141423"/>
<path d="M210.36 191.58H201.88V344.25H210.36V191.58Z" fill="#141423"/>
<path d="M225.49 191.58H11.5V232.73H225.49V191.58Z" fill="#988E87"/>
<path d="M236.79 185.35H0.219971V191.9H236.79V185.35Z" fill="#988E87"/>
<path d="M225.5 191.58H217.02V344.84H225.5V191.58Z" fill="#141423"/>
<path opacity="0.15" d="M225.49 191.58H11.5V204.23H225.49V191.58Z" fill="black"/>
<path d="M19.98 191.58H11.5V344.84H19.98V191.58Z" fill="#141423"/>
<path d="M120.68 176.93L131.24 128.73C131.523 127.562 132.179 126.517 133.108 125.754C134.037 124.991 135.189 124.551 136.39 124.5H200.61C201.484 124.465 202.336 124.778 202.979 125.37C203.622 125.963 204.004 126.786 204.04 127.66C204.057 128.021 204.013 128.383 203.91 128.73L193.35 176.93C193.067 178.098 192.411 179.143 191.482 179.906C190.553 180.669 189.401 181.109 188.2 181.16H124C123.125 181.195 122.272 180.883 121.627 180.29C120.983 179.698 120.599 178.875 120.56 178C120.54 177.639 120.581 177.277 120.68 176.93V176.93Z" fill="#1D1D1B"/>
<path d="M126.25 181.16H190.47C191.67 181.106 192.821 180.665 193.749 179.902C194.677 179.14 195.334 178.097 195.62 176.93L206.18 128.73C206.304 128.314 206.345 127.878 206.3 127.447C206.255 127.015 206.125 126.597 205.918 126.216C205.711 125.835 205.43 125.499 205.092 125.227C204.755 124.954 204.366 124.752 203.95 124.63C203.603 124.527 203.241 124.483 202.88 124.5H138.66C137.458 124.55 136.304 124.99 135.373 125.753C134.443 126.516 133.785 127.561 133.5 128.73L122.94 176.93C122.695 177.769 122.794 178.672 123.214 179.438C123.634 180.205 124.341 180.774 125.18 181.02C125.526 181.126 125.888 181.173 126.25 181.16V181.16Z" fill="#575756"/>
<path d="M161.79 152.83C161.641 153.346 161.616 153.89 161.718 154.417C161.82 154.944 162.046 155.44 162.377 155.862C162.708 156.285 163.135 156.623 163.622 156.849C164.109 157.075 164.643 157.181 165.18 157.16C166.41 157.105 167.588 156.654 168.54 155.873C169.492 155.093 170.165 154.025 170.46 152.83C170.714 151.971 170.617 151.046 170.19 150.258C169.762 149.47 169.039 148.885 168.18 148.63C167.823 148.524 167.452 148.477 167.08 148.49C165.848 148.547 164.668 149 163.714 149.782C162.761 150.564 162.086 151.633 161.79 152.83V152.83Z" fill="white"/>
<path d="M80.42 185.35H186.42V181.16H80.42V185.35Z" fill="#575756"/>
<path d="M186.45 181.15H120.85V185.34H186.45V181.15Z" fill="#1D1D1B"/>
<path d="M136.06 59.24C134.3 57.09 135.06 61.76 131.12 60.29C127.69 59.02 124.67 54.41 118.51 55.29C111.81 56.29 111.39 67.29 110.71 77.41L106.31 76.01L103.22 88.47C103.22 88.47 100.57 82.14 100.22 78.57C99.7 73.52 100.03 62.72 105.57 55.43C109.97 49.63 117.57 48.06 125.05 50.43C133.48 53.24 136.9 58.64 136.06 59.24Z" fill="#131313"/>
<path d="M101.74 77.25C102.16 81.25 103.61 84.36 105.24 84.61C106.87 84.86 107.75 79.94 107.54 76.61C107.33 73.28 106.15 71.61 104.31 71.7C102.68 71.77 101.4 74 101.74 77.25Z" fill="#F6CA97"/>
<path d="M60.45 184.25H1.37997V185.61H60.45V184.25Z" fill="#D9D9D9"/>
<path d="M61.45 182.89H2.37997V184.25H61.45V182.89Z" fill="#ECECEC"/>
<path d="M60.45 181.52H1.37997V182.9H60.45V181.52Z" fill="#D9D9D9"/>
<path d="M59.29 180.16H0.219971V181.52H59.29V180.16Z" fill="#ECECEC"/>
<path d="M60.45 178.8H1.37997V180.16H60.45V178.8Z" fill="#D9D9D9"/>
<path d="M61.46 177.42H2.38995V178.8H61.46V177.42Z" fill="#D9D9D9"/>
<path d="M60.45 176.06H1.37997V177.42H60.45V176.06Z" fill="#ECECEC"/>
<path d="M61.46 174.7H2.38995V176.06H61.46V174.7Z" fill="#D9D9D9"/>
<path d="M59.29 173.33H0.219971V174.71H59.29V173.33Z" fill="#D9D9D9"/>
<path d="M60.45 171.97H1.37997V173.33H60.45V171.97Z" fill="#D9D9D9"/>
<path d="M61.46 170.61H2.38995V171.97H61.46V170.61Z" fill="#D9D9D9"/>
<path d="M62.94 169.24H3.86996V170.62H62.94V169.24Z" fill="#ECECEC"/>
<path d="M61.46 167.88H2.38995V169.24H61.46V167.88Z" fill="#D9D9D9"/>
<path d="M59.29 166.52H0.219971V167.88H59.29V166.52Z" fill="#ECECEC"/>
<path d="M61.46 165.14H2.38995V166.52H61.46V165.14Z" fill="#D9D9D9"/>
<path d="M61.46 163.78H2.38995V165.14H61.46V163.78Z" fill="#ECECEC"/>
<path d="M59.8 162.41H0.72998V163.79H59.8V162.41Z" fill="#D9D9D9"/>
<path d="M60.46 161.05H1.38995V162.41H60.46V161.05Z" fill="#ECECEC"/>
<path d="M61.46 159.69H2.38995V161.05H61.46V159.69Z" fill="#D9D9D9"/>
<path d="M62.34 158.31H3.26996V159.69H62.34V158.31Z" fill="#ECECEC"/>
<path d="M59.3 156.95H0.22998V158.31H59.3V156.95Z" fill="#D9D9D9"/>
<path d="M60.46 155.59H1.38995V156.95H60.46V155.59Z" fill="#ECECEC"/>
<path d="M61.47 154.22H2.39996V155.6H61.47V154.22Z" fill="#ECECEC"/>
<path d="M60.46 152.86H1.38995V154.22H60.46V152.86Z" fill="#D9D9D9"/>
<path d="M59.3 151.5H0.22998V152.86H59.3V151.5Z" fill="#D9D9D9"/>
<path d="M60.46 150.12H1.38995V151.5H60.46V150.12Z" fill="#ECECEC"/>
<path d="M61.47 148.76H2.39996V150.12H61.47V148.76Z" fill="#D9D9D9"/>
<path d="M60.46 147.4H1.38995V148.76H60.46V147.4Z" fill="#ECECEC"/>
<path d="M61.47 146.03H2.39996V147.41H61.47V146.03Z" fill="#D9D9D9"/>
<path d="M59.3 144.67H0.22998V146.03H59.3V144.67Z" fill="#ECECEC"/>
<path d="M60.46 143.31H1.38995V144.67H60.46V143.31Z" fill="#D9D9D9"/>
<path d="M61.47 141.94H2.39996V143.32H61.47V141.94Z" fill="#ECECEC"/>
<path d="M62.95 140.58H3.87997V141.94H62.95V140.58Z" fill="#D9D9D9"/>
<path d="M61.47 139.22H2.39996V140.58H61.47V139.22Z" fill="#ECECEC"/>
<path d="M59.3 137.84H0.22998V139.22H59.3V137.84Z" fill="#D9D9D9"/>
<path d="M61.47 136.48H2.39996V137.84H61.47V136.48Z" fill="#ECECEC"/>
<path d="M61.47 135.12H2.39996V136.48H61.47V135.12Z" fill="#D9D9D9"/>
<path d="M59.81 133.75H0.73996V135.13H59.81V133.75Z" fill="#ECECEC"/>
<path d="M60.47 132.39H1.39996V133.75H60.47V132.39Z" fill="#D9D9D9"/>
<path d="M61.47 131.03H2.39996V132.39H61.47V131.03Z" fill="#ECECEC"/>
<path d="M62.35 129.65H3.27997V131.03H62.35V129.65Z" fill="#D9D9D9"/>
<path d="M59.31 128.29H0.23996V129.65H59.31V128.29Z" fill="#ECECEC"/>
<path opacity="0.2" d="M51.4 129.66V131H50.5V132.36H49.5V133.72H48.83V135.1H50.47V137.82H48.33V139.19H50.47V140.55H52V141.91H50.5V143.29H49.5V144.65H48.34V146H50.48V147.38H49.48V148.74H50.48V150.1H49.48V151.47H48.31V152.83H49.48V154.19H50.48V155.57H49.48V157H48.31V158.36H51.31V159.73H50.41V161.09H49.41V162.45H48.75V163.83H50.39V166.54H48.25V167.92H50.39V169.27H52V170.65H50.49V172H49.49V173.36H48.32V174.74H50.47V176.1H49.47V177.46H50.47V178.83H49.47V180.19H48.3V181.55H49.47V182.93H50.47V184.29H49.47V185.65H60.41V184.3H61.41V182.94H60.41V181.56H59.24V180.2H60.41V178.84H61.41V177.46H60.41V176.11H61.41V174.75H59.24V173.37H60.4V172H61.4V170.64H62.88V169.27H61.4V167.91H59.23V166.55H61.4V163.81H59.73V162.44H60.39V161.08H61.39V159.7H62.26V158.32H59.26V157H60.42V155.64H61.42V154.26H60.42V152.91H59.26V151.55H60.42V150.16H61.42V148.8H60.42V147.45H61.42V146H59.25V144.64H60.41V143.28H61.41V142H62.89V140.64H61.41V139.28H59.24V137.9H61.45V135.18H59.78V133.81H60.44V132.4H61.44V131H62.31V129.62H59.31V128.27H48.36V129.63L51.4 129.66Z" fill="#1D1D1B"/>
<path d="M60.47 127.29H1.39996V128.65H60.47V127.29Z" fill="#D9D9D9"/>
<path d="M61.48 125.93H2.40997V127.29H61.48V125.93Z" fill="#ECECEC"/>
<path d="M60.47 124.55H1.39996V125.93H60.47V124.55Z" fill="#D9D9D9"/>
<path d="M59.31 123.19H0.23996V124.55H59.31V123.19Z" fill="#ECECEC"/>
<path d="M60.47 121.84H1.39996V123.2H60.47V121.84Z" fill="#D9D9D9"/>
<path d="M61.48 120.46H2.40997V121.84H61.48V120.46Z" fill="#D9D9D9"/>
<path d="M60.47 119.1H1.39996V120.46H60.47V119.1Z" fill="#ECECEC"/>
<path d="M61.48 117.74H2.40997V119.1H61.48V117.74Z" fill="#D9D9D9"/>
<path d="M59.31 116.37H0.23996V117.75H59.31V116.37Z" fill="#D9D9D9"/>
<path d="M60.48 115.01H1.40997V116.37H60.48V115.01Z" fill="#D9D9D9"/>
<path d="M61.48 113.65H2.40997V115.01H61.48V113.65Z" fill="#D9D9D9"/>
<path d="M62.96 112.27H3.88995V113.65H62.96V112.27Z" fill="#ECECEC"/>
<path d="M61.48 110.91H2.40997V112.27H61.48V110.91Z" fill="#D9D9D9"/>
<path d="M59.31 109.55H0.23996V110.91H59.31V109.55Z" fill="#ECECEC"/>
<path d="M61.48 108.18H2.40997V109.56H61.48V108.18Z" fill="#D9D9D9"/>
<path d="M61.48 106.82H2.40997V108.18H61.48V106.82Z" fill="#ECECEC"/>
<path d="M59.82 105.44H0.749969V106.82H59.82V105.44Z" fill="#D9D9D9"/>
<path d="M60.48 104.08H1.40997V105.44H60.48V104.08Z" fill="#ECECEC"/>
<path d="M61.49 102.73H2.41995V104.09H61.49V102.73Z" fill="#D9D9D9"/>
<path d="M62.36 101.35H3.28998V102.73H62.36V101.35Z" fill="#ECECEC"/>
<path d="M59.32 99.99H0.249969V101.35H59.32V99.99Z" fill="#D9D9D9"/>
<path d="M60.48 98.63H1.40997V99.99H60.48V98.63Z" fill="#ECECEC"/>
<path d="M61.49 97.26H2.41995V98.64H61.49V97.26Z" fill="#ECECEC"/>
<path d="M60.48 95.9H1.40997V97.26H60.48V95.9Z" fill="#D9D9D9"/>
<path d="M59.32 94.54H0.249969V95.9H59.32V94.54Z" fill="#D9D9D9"/>
<path d="M60.49 93.16H1.41995V94.54H60.49V93.16Z" fill="#ECECEC"/>
<path d="M61.49 91.8H2.41995V93.16H61.49V91.8Z" fill="#D9D9D9"/>
<path d="M60.49 90.44H1.41995V91.8H60.49V90.44Z" fill="#ECECEC"/>
<path d="M2.42995 90.42H49.5399H61.4799V89.05H50.4799H2.41995L2.42995 90.42Z" fill="#D9D9D9"/>
<path opacity="0.2" d="M49.5399 127.28V128.64H60.4799V127.28H61.4799V125.92H60.4799V124.53H59.3V123.2H60.45V121.84H61.45V120.45H60.45V119.1H61.45V117.75H59.2899V116.37H60.47V115.01H61.47V113.65H63V112.26H61.5099V110.9H59.33V109.54H61.49V106.82H59.84V105.44H60.5099V104.08H61.5099V102.71H62.3699V101.35H59.3699V100H60.5399V98.64H61.5399V97.28H60.5399V95.9H59.3699V94.54H60.5399V93.17H61.5399V91.81H60.5399V90.45H61.5399V89.09H50.5399V90.44H49.5399V91.79H50.5399V93.15H49.5399V94.54H48.3699V95.9H49.55V97.26H50.55V98.62H49.55V99.98H48.38V101.34H51.38V102.73H50.4799V104.09H49.4799V105.45H48.81V106.81H50.46V109.53H48.3V110.91H50.4299V112.27H52V113.65H50.4799V115H49.4799V116.36H48.3V117.75H50.46V119.12H49.46V120.48H50.46V121.85H49.5099V123.21H48.34V124.57H49.5099V125.93H50.5099V127.29L49.5399 127.28Z" fill="#1D1D1B"/>
<path d="M183.52 30.58V10.58H189.15V30.58C189.15 33.7358 190.022 36.8303 191.671 39.5214C193.319 42.2126 195.679 44.3959 198.49 45.83L200.05 46.6V53L199.93 54.81L198.36 55.58C195.42 57.0106 192.943 59.242 191.215 62.0176C189.486 64.7932 188.577 68.0003 188.59 71.27V91.19H183V71.31C182.981 67.2638 184.029 63.284 186.039 59.7725C188.05 56.261 190.951 53.3419 194.45 51.31V50C191.109 47.9789 188.348 45.1289 186.433 41.7265C184.518 38.324 183.514 34.4844 183.52 30.58V30.58Z" fill="#9CA79A"/>
<path d="M220.79 10.6V30.6C220.791 34.4962 219.79 38.3273 217.883 41.7249C215.976 45.1224 213.227 47.9721 209.9 50V51.44C213.069 53.469 215.676 56.2627 217.481 59.5639C219.286 62.8651 220.232 66.5675 220.23 70.33V91.24H214.6V70.32C214.595 67.2783 213.767 64.2945 212.204 61.6853C210.641 59.0761 208.4 56.9387 205.72 55.5L204.27 54.69L204.37 46.58L205.9 45.79C208.692 44.3507 211.034 42.1696 212.667 39.4864C214.301 36.8031 215.164 33.7215 215.16 30.58V10.58L220.79 10.6Z" fill="#9CA79A"/>
<path d="M204 42.41L202.19 43.41L200.24 42.41C198.698 41.603 197.365 40.4483 196.346 39.0373C195.327 37.6262 194.651 35.9976 194.37 34.28H210C209.7 36.0081 209.002 37.6425 207.96 39.0537C206.919 40.4649 205.563 41.614 204 42.41V42.41Z" fill="#EEB34F"/>
<path d="M199.92 60.13L202.22 59.04L204.09 60.04C205.991 61.0767 207.577 62.6063 208.682 64.4681C209.787 66.3298 210.37 68.4549 210.37 70.62V86.22H192.82V71.49C192.81 69.1192 193.471 66.7939 194.727 64.7834C195.984 62.7729 197.784 61.1595 199.92 60.13Z" fill="#EEB34F"/>
<path d="M224.41 0.73999H179.34V8.12999H224.41V0.73999Z" fill="#E46C41"/>
<path d="M224.41 93.52H179.34V100.91H224.41V93.52Z" fill="#E46C41"/>
</svg>
