<svg width="333" height="327" viewBox="0 0 333 327" fill="none" xmlns="http://www.w3.org/2000/svg">
<path d="M167.998 27.361C167.647 27.1064 167.173 27.1064 166.822 27.361L22.0323 132.561C21.6818 132.816 21.5352 133.267 21.6691 133.679L76.9691 303.889C77.1029 304.301 77.4869 304.58 77.9201 304.58H256.89C257.323 304.58 257.707 304.301 257.841 303.889L313.151 133.679C313.285 133.267 313.138 132.816 312.788 132.561L167.998 27.361Z" stroke="#668922" stroke-width="2" stroke-miterlimit="10" stroke-linejoin="round"/>
<path d="M167.998 49.941C167.647 49.6863 167.173 49.6863 166.822 49.941L42.8622 140.001C42.5117 140.256 42.365 140.707 42.4989 141.119L89.8489 286.849C89.9828 287.261 90.3667 287.54 90.8 287.54H244.02C244.453 287.54 244.837 287.261 244.971 286.849L292.321 141.119C292.455 140.707 292.308 140.256 291.958 140.001L167.998 49.941Z" stroke="#668922" stroke-width="2" stroke-miterlimit="10" stroke-linejoin="round"/>
<path d="M167.998 71.6609C167.647 71.4063 167.173 71.4063 166.822 71.6609L63.8221 146.491C63.4717 146.746 63.325 147.197 63.4588 147.609L102.799 268.699C102.933 269.111 103.317 269.39 103.75 269.39H231.07C231.503 269.39 231.887 269.111 232.021 268.699L271.361 147.609C271.495 147.197 271.348 146.746 270.998 146.491L167.998 71.6609Z" stroke="#668922" stroke-width="2" stroke-miterlimit="10" stroke-linejoin="round"/>
<path d="M167.998 92.141C167.647 91.8863 167.173 91.8863 166.822 92.1409L83.8922 152.391C83.5417 152.646 83.395 153.097 83.5289 153.509L115.209 250.989C115.343 251.401 115.727 251.68 116.16 251.68H218.66C219.093 251.68 219.477 251.401 219.611 250.989L251.281 153.509C251.415 153.097 251.268 152.646 250.918 152.391L167.998 92.141Z" stroke="#668922" stroke-width="2" stroke-miterlimit="10" stroke-linejoin="round"/>
<path d="M167.998 114.931C167.647 114.676 167.173 114.676 166.822 114.931L104.952 159.881C104.602 160.136 104.455 160.587 104.589 160.999L128.219 233.719C128.353 234.131 128.737 234.41 129.17 234.41H205.64C206.073 234.41 206.457 234.131 206.591 233.719L230.221 160.999C230.355 160.587 230.208 160.136 229.858 159.881L167.998 114.931Z" stroke="#668922" stroke-width="2" stroke-miterlimit="10" stroke-linejoin="round"/>
<path d="M167.998 136.471C167.647 136.216 167.173 136.216 166.822 136.471L125.592 166.421C125.242 166.676 125.095 167.127 125.229 167.539L140.979 216.019C141.113 216.431 141.497 216.71 141.93 216.71H192.89C193.323 216.71 193.707 216.431 193.841 216.019L209.591 167.539C209.725 167.127 209.578 166.676 209.228 166.421L167.998 136.471Z" stroke="#668922" stroke-width="2" stroke-miterlimit="10" stroke-linejoin="round"/>
<path d="M167.998 157.981C167.647 157.726 167.173 157.726 166.822 157.981L145.982 173.131C145.632 173.386 145.485 173.837 145.619 174.249L153.579 198.749C153.713 199.161 154.097 199.44 154.53 199.44H180.29C180.723 199.44 181.107 199.161 181.241 198.749L189.201 174.249C189.335 173.837 189.188 173.386 188.838 173.131L167.998 157.981Z" stroke="#668922" stroke-width="2" stroke-miterlimit="10" stroke-linejoin="round"/>
<path d="M161.826 4.56037H166.93C168.081 4.56037 168.958 4.64841 169.562 4.82451C170.373 5.06349 171.068 5.488 171.646 6.09804C172.225 6.70808 172.665 7.45648 172.967 8.34324C173.269 9.22371 173.42 10.3117 173.42 11.6073C173.42 12.7456 173.278 13.7267 172.995 14.5505C172.65 15.5568 172.156 16.3712 171.514 16.9938C171.03 17.4655 170.376 17.8334 169.552 18.0976C168.936 18.2925 168.112 18.39 167.081 18.39H161.826V4.56037ZM164.618 6.8999V16.0599H166.703C167.483 16.0599 168.046 16.0159 168.392 15.9278C168.845 15.8146 169.219 15.6228 169.514 15.3524C169.816 15.082 170.062 14.6386 170.25 14.0223C170.439 13.3996 170.533 12.5538 170.533 11.4846C170.533 10.4155 170.439 9.59476 170.25 9.02246C170.062 8.45015 169.797 8.00363 169.458 7.68289C169.118 7.36214 168.687 7.14517 168.165 7.03197C167.776 6.94392 167.011 6.8999 165.873 6.8999H164.618Z" fill="#668922" stroke="none"/>
<path d="M62.825 321.27V307.44H68.7021C70.18 307.44 71.2523 307.566 71.9189 307.818C72.5919 308.063 73.1296 308.503 73.5321 309.138C73.9346 309.774 74.1358 310.5 74.1358 311.318C74.1358 312.355 73.8308 313.214 73.2208 313.893C72.6107 314.566 71.6988 314.99 70.485 315.166C71.0888 315.519 71.5856 315.905 71.9755 316.327C72.3717 316.748 72.9032 317.497 73.5698 318.572L75.2584 321.27H71.9189L69.9001 318.261C69.1832 317.185 68.6926 316.509 68.4285 316.232C68.1644 315.949 67.8845 315.758 67.5889 315.657C67.2933 315.55 66.8248 315.497 66.1833 315.497H65.6173V321.27H62.825ZM65.6173 313.289H67.6833C69.0228 313.289 69.8593 313.233 70.1926 313.119C70.5259 313.006 70.7869 312.811 70.9756 312.535C71.1642 312.258 71.2586 311.912 71.2586 311.497C71.2586 311.031 71.1328 310.657 70.8812 310.374C70.636 310.085 70.2869 309.903 69.8341 309.827C69.6077 309.796 68.9285 309.78 67.7965 309.78H65.6173V313.289Z" fill="#668922" stroke="none" />
<path d="M1.65561 118.06V104.23H6.13656C7.83461 104.23 8.94148 104.3 9.45719 104.438C10.2496 104.645 10.9131 105.098 11.4477 105.796C11.9822 106.488 12.2495 107.384 12.2495 108.485C12.2495 109.334 12.0954 110.048 11.7873 110.626C11.4791 111.205 11.0861 111.661 10.6081 111.994C10.1364 112.321 9.65529 112.538 9.16475 112.645C8.49811 112.777 7.53273 112.843 6.26863 112.843H4.44795V118.06H1.65561ZM4.44795 106.57V110.494H5.97619C7.07678 110.494 7.8126 110.422 8.18365 110.277C8.55471 110.133 8.844 109.906 9.05154 109.598C9.26537 109.29 9.37229 108.931 9.37229 108.523C9.37229 108.02 9.22449 107.604 8.92891 107.277C8.63332 106.95 8.25912 106.746 7.80631 106.664C7.47299 106.601 6.8032 106.57 5.79695 106.57H4.44795ZM13.8344 113.56L16.5512 113.296C16.7148 114.208 17.0449 114.878 17.5418 115.305C18.0449 115.733 18.721 115.947 19.57 115.947C20.4693 115.947 21.1454 115.758 21.5982 115.381C22.0573 114.997 22.2869 114.551 22.2869 114.041C22.2869 113.714 22.1894 113.438 21.9944 113.211C21.8058 112.978 21.4724 112.777 20.9945 112.607C20.6674 112.494 19.9222 112.293 18.7587 112.004C17.2619 111.633 16.2116 111.177 15.6079 110.636C14.7589 109.875 14.3344 108.947 14.3344 107.853C14.3344 107.149 14.5325 106.491 14.9287 105.881C15.3312 105.265 15.9066 104.796 16.655 104.476C17.4097 104.155 18.3185 103.995 19.3813 103.995C21.1171 103.995 22.4221 104.375 23.2963 105.136C24.1767 105.897 24.639 106.913 24.683 108.183L21.8907 108.306C21.7712 107.595 21.5133 107.086 21.1171 106.777C20.7272 106.463 20.1392 106.306 19.353 106.306C18.5417 106.306 17.9065 106.472 17.4474 106.806C17.1519 107.02 17.0041 107.306 17.0041 107.664C17.0041 107.991 17.1424 108.271 17.4191 108.504C17.7713 108.799 18.6266 109.108 19.9851 109.428C21.3435 109.749 22.3466 110.082 22.9944 110.428C23.6485 110.768 24.1579 111.236 24.5226 111.834C24.8937 112.425 25.0792 113.158 25.0792 114.032C25.0792 114.824 24.8591 115.566 24.4189 116.258C23.9786 116.95 23.356 117.466 22.551 117.805C21.746 118.139 20.7429 118.305 19.5417 118.305C17.7933 118.305 16.4506 117.903 15.5136 117.098C14.5765 116.287 14.0168 115.107 13.8344 113.56ZM26.7207 113.56L29.4375 113.296C29.6011 114.208 29.9312 114.878 30.4281 115.305C30.9312 115.733 31.6073 115.947 32.4563 115.947C33.3556 115.947 34.0317 115.758 34.4845 115.381C34.9436 114.997 35.1732 114.551 35.1732 114.041C35.1732 113.714 35.0757 113.438 34.8807 113.211C34.692 112.978 34.3587 112.777 33.8808 112.607C33.5537 112.494 32.8085 112.293 31.645 112.004C30.1482 111.633 29.0979 111.177 28.4942 110.636C27.6452 109.875 27.2206 108.947 27.2206 107.853C27.2206 107.149 27.4187 106.491 27.815 105.881C28.2175 105.265 28.7929 104.796 29.5413 104.476C30.296 104.155 31.2048 103.995 32.2676 103.995C34.0034 103.995 35.3084 104.375 36.1826 105.136C37.063 105.897 37.5253 106.913 37.5693 108.183L34.777 108.306C34.6575 107.595 34.3996 107.086 34.0034 106.777C33.6135 106.463 33.0254 106.306 32.2393 106.306C31.428 106.306 30.7928 106.472 30.3337 106.806C30.0381 107.02 29.8904 107.306 29.8904 107.664C29.8904 107.991 30.0287 108.271 30.3054 108.504C30.6576 108.799 31.5129 109.108 32.8714 109.428C34.2298 109.749 35.2329 110.082 35.8807 110.428C36.5347 110.768 37.0442 111.236 37.4089 111.834C37.78 112.425 37.9655 113.158 37.9655 114.032C37.9655 114.824 37.7454 115.566 37.3052 116.258C36.8649 116.95 36.2423 117.466 35.4373 117.805C34.6323 118.139 33.6292 118.305 32.428 118.305C30.6796 118.305 29.3369 117.903 28.3998 117.098C27.4628 116.287 26.903 115.107 26.7207 113.56Z" fill="#668922" stroke="none"/>
<path d="M314.811 118.06V104.23H317.603V118.06H314.811ZM319.565 113.56L322.282 113.296C322.446 114.208 322.776 114.878 323.273 115.305C323.776 115.733 324.452 115.947 325.301 115.947C326.2 115.947 326.876 115.758 327.329 115.381C327.788 114.997 328.018 114.551 328.018 114.041C328.018 113.714 327.92 113.438 327.725 113.211C327.537 112.978 327.203 112.777 326.725 112.607C326.398 112.494 325.653 112.293 324.49 112.004C322.993 111.633 321.942 111.177 321.339 110.636C320.49 109.875 320.065 108.947 320.065 107.853C320.065 107.149 320.263 106.491 320.66 105.881C321.062 105.265 321.637 104.796 322.386 104.476C323.141 104.155 324.049 103.995 325.112 103.995C326.848 103.995 328.153 104.375 329.027 105.136C329.908 105.897 330.37 106.913 330.414 108.183L327.622 108.306C327.502 107.595 327.244 107.086 326.848 106.777C326.458 106.463 325.87 106.306 325.084 106.306C324.273 106.306 323.637 106.472 323.178 106.806C322.883 107.02 322.735 107.306 322.735 107.664C322.735 107.991 322.873 108.271 323.15 108.504C323.502 108.799 324.357 109.108 325.716 109.428C327.074 109.749 328.077 110.082 328.725 110.428C329.379 110.768 329.889 111.236 330.253 111.834C330.625 112.425 330.81 113.158 330.81 114.032C330.81 114.824 330.59 115.566 330.15 116.258C329.709 116.95 329.087 117.466 328.282 117.805C327.477 118.139 326.474 118.305 325.273 118.305C323.524 118.305 322.181 117.903 321.244 117.098C320.307 116.287 319.748 115.107 319.565 113.56Z" fill="#668922" stroke="none"/>
<path d="M269.929 317.685H264.174L262.882 321.27H261.014L266.259 307.535H267.844L273.099 321.27H271.24L269.929 317.685ZM264.722 316.195H269.391L267.052 309.77L264.722 316.195Z" fill="#668922" stroke="none"/>
</svg>
