<svg width="261" height="261" viewBox="0 0 261 261" fill="none" xmlns="http://www.w3.org/2000/svg">
<path d="M130.5 261C202.573 261 261 202.573 261 130.5C261 58.4268 202.573 0 130.5 0C58.4268 0 0 58.4268 0 130.5C0 202.573 58.4268 261 130.5 261Z" fill="#D1652F"/>
<path d="M154.397 73.576H143.344V72.947C143.344 70.753 142.044 69.034 140.382 69.034H135.107C134.299 67.5449 133.112 66.2953 131.667 65.4114C130.222 64.5276 128.569 64.0407 126.875 64C125.182 64.0411 123.529 64.528 122.084 65.4117C120.638 66.2953 119.452 67.5444 118.643 69.033H113.37C111.701 69.033 110.397 70.752 110.397 72.946V73.575H99.861C98.5715 73.5769 97.3354 74.0903 96.424 75.0026C95.5127 75.9149 95.0005 77.1515 95 78.441V148.563C95.0019 149.852 95.5146 151.087 96.4258 151.998C97.337 152.909 98.5724 153.422 99.861 153.424H154.397C155.686 153.422 156.921 152.909 157.832 151.998C158.743 151.087 159.255 149.852 159.257 148.563V78.441C159.256 77.1518 158.744 75.9156 157.833 75.0036C156.922 74.0915 155.686 73.5781 154.397 73.576V73.576ZM126.875 65.932C128.316 65.9815 129.716 66.4297 130.918 67.2267C132.12 68.0238 133.077 69.1385 133.684 70.447C133.765 70.6034 133.888 70.7344 134.039 70.8256C134.19 70.9169 134.363 70.9647 134.539 70.964H140.382C140.803 70.964 141.415 71.737 141.415 72.947V76.609H112.324V72.947C112.324 71.737 112.942 70.964 113.37 70.964H119.209C119.385 70.9645 119.558 70.9165 119.709 70.8254C119.86 70.7342 119.983 70.6033 120.064 70.447C120.671 69.1387 121.629 68.0243 122.832 67.2274C124.034 66.4304 125.433 65.982 126.875 65.932V65.932ZM111.356 78.542H142.379C142.506 78.542 142.631 78.517 142.748 78.4685C142.865 78.42 142.972 78.349 143.061 78.2594C143.151 78.1697 143.222 78.0634 143.271 77.9463C143.319 77.8292 143.344 77.7037 143.344 77.577V75.507H154.397C155.174 75.5086 155.919 75.8183 156.468 76.3683C157.018 76.9183 157.326 77.6637 157.327 78.441V148.563C157.326 149.34 157.017 150.085 156.468 150.635C155.918 151.185 155.173 151.494 154.396 151.495H99.861C99.0837 151.494 98.3386 151.185 97.7889 150.635C97.2393 150.085 96.9301 149.34 96.929 148.563V78.441C96.9295 77.6634 97.2385 76.9177 97.7882 76.3676C98.3379 75.8176 99.0834 75.5081 99.861 75.507H110.396V77.576C110.396 77.8314 110.497 78.0764 110.678 78.2573C110.858 78.4382 111.103 78.5402 111.358 78.541" fill="white"/>
<path d="M101.423 103.498C101.441 107.04 102.724 110.459 105.041 113.139C107.357 115.818 110.555 117.582 114.058 118.111C114.764 118.213 115.476 118.263 116.189 118.259H136.523C136.612 118.293 136.706 118.312 136.802 118.316C136.898 118.312 136.993 118.293 137.083 118.259H143.293C143.453 118.393 143.654 118.466 143.862 118.466C144.071 118.466 144.272 118.393 144.432 118.259H149.022C149.166 118.358 149.336 118.41 149.51 118.41C149.684 118.41 149.854 118.358 149.998 118.259H151.053C151.309 118.259 151.554 118.157 151.736 117.976C151.917 117.795 152.018 117.55 152.018 117.294C152.018 117.038 151.917 116.792 151.736 116.611C151.554 116.43 151.309 116.328 151.053 116.328H150.474V100.81C150.478 100.681 150.456 100.552 150.41 100.431C150.363 100.311 150.293 100.201 150.203 100.108C150.113 100.015 150.005 99.9409 149.886 99.8905C149.767 99.84 149.639 99.814 149.509 99.814C149.38 99.814 149.252 99.84 149.133 99.8905C149.014 99.9409 148.906 100.015 148.816 100.108C148.726 100.201 148.656 100.311 148.609 100.431C148.563 100.552 148.541 100.681 148.545 100.81V116.33H144.823V97.6361C144.823 97.3802 144.721 97.1347 144.54 96.9537C144.451 96.8641 144.344 96.793 144.227 96.7446C144.11 96.6961 143.985 96.6711 143.858 96.6711C143.602 96.6711 143.356 96.7728 143.175 96.9537C142.995 97.1347 142.893 97.3802 142.893 97.6361V116.329H137.763V105.409C137.763 105.153 137.661 104.907 137.48 104.726C137.299 104.545 137.053 104.444 136.797 104.444C136.541 104.444 136.296 104.545 136.115 104.726C135.934 104.907 135.832 105.153 135.832 105.409V116.329H123.455C125.725 115.042 127.614 113.177 128.928 110.923C130.243 108.669 130.937 106.107 130.94 103.498C130.94 103.242 130.838 102.997 130.657 102.816C130.476 102.635 130.231 102.533 129.975 102.533H117.154V89.7131C117.154 89.457 117.052 89.2113 116.871 89.03C116.69 88.8487 116.445 88.7466 116.189 88.7461C112.276 88.7485 108.524 90.303 105.755 93.0686C102.987 95.8343 101.429 99.5851 101.423 103.498V103.498ZM115.223 90.7151V103.498C115.223 103.754 115.325 103.999 115.505 104.18C115.686 104.361 115.932 104.463 116.188 104.463H128.973C128.732 107.689 127.28 110.704 124.91 112.905C122.539 115.106 119.424 116.329 116.189 116.329C115.57 116.332 114.951 116.289 114.339 116.2C111.294 115.742 108.513 114.209 106.498 111.88C104.484 109.551 103.368 106.578 103.354 103.498C103.355 100.263 104.579 97.1481 106.78 94.7775C108.981 92.4069 111.997 90.9558 115.223 90.7151" fill="white"/>
<path d="M118.486 102.174H132.274C132.53 102.174 132.775 102.073 132.956 101.892C133.137 101.711 133.239 101.465 133.239 101.209C133.236 97.2965 131.681 93.5447 128.915 90.777C126.15 88.0093 122.399 86.4518 118.486 86.4463C118.23 86.4463 117.985 86.548 117.804 86.7289C117.623 86.9099 117.521 87.1554 117.521 87.4113V101.211C117.521 101.467 117.623 101.713 117.804 101.894C117.985 102.075 118.23 102.176 118.486 102.176V102.174ZM131.272 100.243H119.452V88.4173C122.513 88.644 125.39 89.9629 127.56 92.1336C129.729 94.3044 131.047 97.1824 131.272 100.243" fill="white"/>
<path d="M126.876 73.2425C127.589 73.2404 128.273 72.9558 128.778 72.451C129.282 71.9462 129.566 71.2622 129.568 70.5485C129.566 69.8348 129.282 69.1508 128.778 68.646C128.273 68.1412 127.589 67.8566 126.876 67.8545C126.162 67.8563 125.478 68.1408 124.973 68.6456C124.468 69.1505 124.184 69.8347 124.183 70.5485C124.184 71.2623 124.468 71.9465 124.973 72.4513C125.478 72.9562 126.162 73.2406 126.876 73.2425V73.2425ZM126.876 69.7845C127.078 69.785 127.271 69.8656 127.414 70.0086C127.557 70.1516 127.637 70.3454 127.638 70.5475C127.638 70.7497 127.557 70.9436 127.414 71.0867C127.272 71.2297 127.078 71.3102 126.876 71.3105C126.674 71.3102 126.48 71.2299 126.337 71.087C126.194 70.9442 126.114 70.7505 126.114 70.5485C126.114 70.3464 126.194 70.1526 126.337 70.0096C126.48 69.8666 126.674 69.786 126.876 69.7855" fill="white"/>
<path d="M148.16 145.6C147.676 143.532 146.898 141.545 145.849 139.7L147.988 137.565C148.534 137.017 148.841 136.274 148.841 135.501C148.841 134.727 148.534 133.985 147.988 133.437L144.147 129.585C143.59 129.053 142.849 128.757 142.079 128.758C141.309 128.76 140.569 129.059 140.014 129.593L138.02 131.593C136.144 130.45 134.111 129.587 131.987 129.03V126.266C131.984 125.49 131.674 124.747 131.125 124.2C130.575 123.653 129.831 123.347 129.056 123.348H123.636C122.862 123.349 122.121 123.657 121.574 124.204C121.027 124.751 120.72 125.492 120.719 126.266V129.03C118.591 129.581 116.556 130.445 114.681 131.593L112.681 129.593C112.123 129.064 111.385 128.77 110.617 128.77C109.849 128.77 109.11 129.064 108.553 129.593L104.709 133.437C104.438 133.708 104.223 134.03 104.076 134.385C103.93 134.739 103.855 135.119 103.856 135.503C103.855 135.885 103.93 136.264 104.077 136.617C104.223 136.97 104.438 137.291 104.709 137.561L106.846 139.7C105.8 141.547 105.022 143.534 104.535 145.6H101.387C100.613 145.6 99.8701 145.908 99.3226 146.455C98.7751 147.003 98.4673 147.745 98.4668 148.52V150.474C98.4671 150.729 98.5688 150.975 98.7498 151.155C98.9307 151.336 99.176 151.438 99.4318 151.438H153.271C153.526 151.437 153.772 151.336 153.953 151.155C154.133 150.974 154.235 150.729 154.236 150.474V148.519C154.233 147.743 153.923 147 153.374 146.452C152.824 145.905 152.08 145.598 151.304 145.599L148.16 145.6ZM126.348 141.333C128.672 141.343 130.919 142.166 132.7 143.659C134.481 145.152 135.683 147.221 136.099 149.508H116.599C117.015 147.222 118.217 145.153 119.998 143.66C121.778 142.168 124.024 141.344 126.348 141.333V141.333ZM126.348 139.401C123.512 139.409 120.772 140.434 118.626 142.288C116.48 144.142 115.068 146.704 114.648 149.509H100.398V148.52C100.398 148.258 100.503 148.007 100.688 147.822C100.874 147.637 101.125 147.533 101.387 147.533H105.313C105.537 147.532 105.753 147.455 105.926 147.313C106.099 147.171 106.218 146.974 106.263 146.755C106.731 144.382 107.618 142.111 108.883 140.05C108.994 139.865 109.041 139.648 109.014 139.433C108.988 139.219 108.891 139.02 108.739 138.867L106.071 136.197C105.979 136.105 105.907 135.996 105.858 135.875C105.809 135.755 105.785 135.626 105.787 135.497C105.785 135.367 105.81 135.238 105.859 135.118C105.908 134.997 105.981 134.888 106.073 134.797L109.919 130.955C110.11 130.781 110.36 130.685 110.619 130.685C110.878 130.685 111.127 130.781 111.319 130.955L113.865 133.507C114.023 133.663 114.23 133.76 114.451 133.782C114.673 133.804 114.895 133.749 115.081 133.628C117.158 132.254 119.468 131.271 121.898 130.728C122.111 130.679 122.302 130.56 122.439 130.389C122.576 130.219 122.651 130.007 122.652 129.788V126.266C122.652 126.004 122.756 125.753 122.941 125.568C123.126 125.383 123.377 125.279 123.639 125.279H129.059C129.322 125.279 129.574 125.382 129.761 125.567C129.949 125.752 130.055 126.003 130.059 126.266V129.788C130.06 130.006 130.135 130.218 130.272 130.388C130.408 130.559 130.598 130.678 130.811 130.728C133.239 131.276 135.548 132.258 137.627 133.628C137.812 133.751 138.035 133.805 138.256 133.783C138.478 133.76 138.684 133.661 138.841 133.503L141.371 130.955C141.564 130.778 141.817 130.681 142.079 130.681C142.341 130.681 142.593 130.778 142.787 130.955L146.62 134.804C146.711 134.896 146.784 135.005 146.832 135.125C146.881 135.245 146.905 135.374 146.904 135.504C146.906 135.633 146.881 135.762 146.833 135.882C146.784 136.003 146.711 136.112 146.62 136.204L143.956 138.864C143.801 139.016 143.703 139.217 143.677 139.433C143.652 139.649 143.701 139.867 143.816 140.052C145.083 142.11 145.969 144.38 146.433 146.752C146.476 146.971 146.593 147.169 146.766 147.312C146.938 147.455 147.155 147.533 147.379 147.534H151.307C151.57 147.534 151.822 147.637 152.009 147.822C152.197 148.007 152.303 148.258 152.307 148.521V149.51H138.039C137.614 146.708 136.203 144.151 134.059 142.297C131.916 140.444 129.181 139.417 126.348 139.401" fill="white"/>
<path d="M65.078 36.598V38.71H65.848V51.272L64.682 51.448L65.254 53.736C66.706 53.428 68.092 53.076 69.456 52.724V56.068H71.612V52.086C71.876 51.998 72.14 51.932 72.426 51.844V49.622L71.612 49.886V38.71H72.228V36.598H65.078ZM68.004 50.854V47.84H69.456V50.502C68.972 50.634 68.488 50.744 68.004 50.854ZM68.004 45.772V43.33H69.456V45.772H68.004ZM68.004 41.262V38.71H69.456V41.262H68.004ZM78.696 45.156H72.954V54.638H74.868V53.538H78.3C77.948 53.934 77.574 54.33 77.178 54.704L78.718 56.046C79.488 55.276 80.236 54.396 80.94 53.428C81.116 53.978 81.336 54.484 81.6 54.924C82.062 55.672 82.568 56.046 83.118 56.046C84.13 56.046 84.834 54.704 85.208 52.042L83.536 50.854C83.382 52.526 83.206 53.384 82.986 53.428C82.722 53.296 82.502 52.592 82.304 51.316C83.25 49.6 84.086 47.664 84.834 45.464L83.008 44.716C82.7 45.728 82.348 46.696 81.952 47.642C81.908 46.652 81.864 45.464 81.82 44.1H84.856V42.12H81.798C81.754 40.338 81.754 38.314 81.754 36.026H79.774C79.774 38.27 79.774 40.294 79.818 42.12H78.322C78.52 41.504 78.696 40.844 78.828 40.14L76.914 39.898C76.804 40.646 76.65 41.394 76.43 42.12H75.55C75.374 41.306 75.198 40.58 75.022 39.942L73.086 40.228C73.306 40.822 73.482 41.46 73.658 42.12H72.272V44.1H79.862C79.95 47.202 80.082 49.446 80.302 50.81C79.818 51.602 79.268 52.35 78.696 53.054V45.156ZM74.868 51.778V50.128H76.782V51.778H74.868ZM74.868 48.434V46.916H76.782V48.434H74.868ZM83.624 37.038L81.996 37.566C82.458 38.754 82.832 40.008 83.14 41.328L84.768 40.91C84.438 39.458 84.064 38.16 83.624 37.038ZM76.54 36.07L74.362 36.422C74.516 36.818 74.67 37.236 74.824 37.72H72.602V39.524H79.158V37.72H76.936C76.804 37.104 76.672 36.554 76.54 36.07ZM93.854 35.96V39.172H91.61L92.864 38.622C92.468 37.698 91.984 36.84 91.412 36.026L89.674 36.752C90.114 37.434 90.554 38.248 90.95 39.172H87.65V41.13H92.028L92.952 42.934H88.09V44.87H95.878V45.948H88.552V47.84H95.878V48.896H87.43V50.832H93.722C92.402 51.954 90.158 52.988 87.012 53.912L88.222 55.892C91.808 54.55 94.36 52.988 95.878 51.184V56.222H98.122V51.118C99.75 53.054 102.368 54.66 105.976 55.892L106.944 53.868C104.04 53.12 101.84 52.108 100.344 50.832H106.57V48.896H98.122V47.84H105.448V45.948H98.122V44.87H105.866V42.934H100.828L101.576 41.13H106.35V39.172H102.698C103.27 38.49 103.798 37.698 104.238 36.818L102.544 36.004C102.082 36.928 101.532 37.742 100.872 38.402L101.95 39.172H99.794V35.96H97.682V39.172H95.966V35.96H93.854ZM98.606 42.934H95.174L94.272 41.13H99.332L98.606 42.934ZM110.926 36.114L109.386 37.588C110.882 38.864 112.048 40.074 112.884 41.174L114.468 39.59C113.5 38.446 112.312 37.28 110.926 36.114ZM123.598 55.958H128.658L129.186 53.758C128.592 53.802 127.734 53.846 126.612 53.868C125.468 53.868 124.368 53.89 123.268 53.89C121.552 53.89 120.078 53.868 118.802 53.846C117.504 53.802 116.536 53.626 115.876 53.318C115.37 53.032 114.864 52.592 114.358 52.02L114.138 51.8V43.33H109.078V45.442H111.96V51.602C111.08 52.086 110.112 53.164 109.056 54.836L110.728 56.42C111.828 54.506 112.576 53.56 113.016 53.56C113.258 53.56 113.522 53.736 113.83 54.088C114.49 54.792 115.26 55.298 116.14 55.562C117.064 55.782 118.23 55.892 119.66 55.914C121.068 55.936 122.388 55.958 123.598 55.958ZM121.112 43V44.1H118.494V45.904H121.112V47.026H118.802V51.778H123.554L123.928 53.208H126.436C127.756 53.208 128.438 52.526 128.438 51.206V41.064H125.754C126.106 40.624 126.414 40.118 126.722 39.59L125.908 39.304H128.878V37.302H123.246C123.048 36.774 122.85 36.29 122.674 35.85L120.32 36.246C120.496 36.554 120.694 36.906 120.892 37.302H115.172V39.304H118.692L117.548 39.722C117.922 40.14 118.252 40.58 118.538 41.064H115.744V53.076H117.746V43H121.112ZM124.346 39.304C124.082 39.898 123.774 40.492 123.422 41.064H120.738C120.452 40.404 120.144 39.832 119.814 39.304H124.346ZM125.314 51.338V47.026H123.048V45.904H125.644V44.1H123.048V43H126.414V50.766C126.414 51.162 126.216 51.36 125.82 51.36L125.314 51.338ZM123.532 50.128H120.584V48.676H123.532V50.128ZM131.386 40.272C131.32 42.34 131.056 44.298 130.616 46.146L132.464 46.674C132.86 44.694 133.102 42.604 133.146 40.404L131.386 40.272ZM137.546 39.722L135.962 40.228V35.982H133.652V56.222H135.962V40.448C136.38 41.614 136.732 42.846 137.04 44.144L137.898 43.924C137.766 44.188 137.634 44.452 137.502 44.738L139.218 46.256C139.922 44.98 140.472 43.594 140.868 42.098H143.684V46.784H138.822V49.028H143.684V53.494H137.656V55.716H151.142V53.494H146.016V49.028H150.35V46.784H146.016V42.098H150.548V39.876H146.016V36.026H143.684V39.876H141.308C141.396 39.172 141.44 38.468 141.484 37.72L139.394 37.434C139.306 39.194 138.998 40.844 138.492 42.428C138.206 41.46 137.898 40.558 137.546 39.722ZM154.662 36.29L153.144 37.742C154.464 38.842 155.498 39.854 156.202 40.8L157.764 39.238C156.928 38.27 155.894 37.28 154.662 36.29ZM154.354 41.724L152.836 43.176C154.09 44.276 155.058 45.288 155.762 46.256L157.302 44.716C156.51 43.704 155.52 42.714 154.354 41.724ZM155.564 47.73C154.86 50.238 154.024 52.702 153.056 55.122L155.08 56.002C155.96 53.67 156.774 51.162 157.5 48.5L155.564 47.73ZM158.072 36.576V50.546H165.464V36.576H158.072ZM163.242 48.478H160.316V46.344H163.242V48.478ZM160.316 44.342V42.384H163.242V44.342H160.316ZM160.316 40.382V38.644H163.242V40.382H160.316ZM163.88 50.876L162.208 51.932C163.176 53.428 163.924 54.77 164.496 55.98L166.278 54.748C165.706 53.648 164.914 52.35 163.88 50.876ZM159.326 50.986C158.71 52.394 157.896 53.824 156.862 55.276L158.798 56.288C159.788 54.858 160.602 53.384 161.218 51.888L159.326 50.986ZM166.916 37.852V51.382H169.05V37.852H166.916ZM170.568 56.068C171.998 56.068 172.724 55.254 172.724 53.67V36.004H170.546V53.076C170.546 53.692 170.282 54 169.776 54C169.116 54 168.434 53.956 167.708 53.868L168.214 56.068H170.568ZM175.034 38.49V40.558H183.042V38.49H180.314C180.094 37.698 179.808 36.84 179.434 35.872L177.234 36.466C177.564 37.126 177.85 37.808 178.114 38.49H175.034ZM175.892 44.826V46.85H182.14V44.826H175.892ZM182.58 48.148H175.518V56.266H177.63V55.012H180.468V55.936H182.58V48.148ZM177.63 52.988V50.172H180.468V52.988H177.63ZM183.592 36.752V38.908H187.992V46.542H182.954V48.72H187.992V56.31H190.214V48.72H195.23V46.542H190.214V38.908H194.592V36.752H183.592ZM185.66 39.722L183.68 40.382C184.34 42.098 184.868 43.88 185.308 45.75L187.266 45.266C186.782 43.176 186.254 41.328 185.66 39.722ZM192.48 39.656C192.018 41.812 191.49 43.616 190.874 45.024L192.766 45.706C193.448 44.122 194.02 42.296 194.482 40.206L192.48 39.656ZM175.892 41.768V43.77H182.14V41.768H175.892Z" fill="white"/>
<path d="M63.224 170.992L62.088 172.064C63.24 172.992 64.136 173.872 64.76 174.672L65.928 173.52C65.192 172.688 64.28 171.84 63.224 170.992ZM72.344 185.44H76.024L76.408 183.84C75.96 183.872 75.336 183.904 74.536 183.92C73.72 183.936 72.92 183.952 72.12 183.952C70.872 183.952 69.784 183.936 68.856 183.92C67.912 183.888 67.208 183.76 66.744 183.52C66.36 183.296 65.992 182.96 65.624 182.512C65.56 182.448 65.512 182.384 65.448 182.336V176.24H61.784V177.776H63.896V182.16C63.256 182.512 62.552 183.328 61.752 184.608L62.984 185.76C63.784 184.32 64.328 183.6 64.648 183.6C64.824 183.6 65.016 183.728 65.24 184.016C65.72 184.56 66.28 184.928 66.92 185.12C67.592 185.296 68.44 185.392 69.48 185.408C70.504 185.424 71.464 185.44 72.344 185.44ZM71.896 174.912C72.856 176.128 74.104 177.088 75.64 177.808L76.36 176.448C75.144 176 74.152 175.488 73.4 174.912H75.56V173.472H71.848V172.688C73 172.576 74.024 172.416 74.936 172.208L74.2 170.944C72.184 171.36 69.736 171.584 66.856 171.584L67.304 172.88C68.328 172.88 69.32 172.848 70.248 172.8V173.472H66.536V174.912H68.68C68.008 175.536 67.064 176.08 65.832 176.528L66.648 177.888C68.248 177.088 69.416 176.096 70.184 174.912H70.248V176.992H71.848V174.912H71.896ZM67.576 177.44V178.912H68.808C68.552 180.32 67.656 181.312 66.12 181.92L67 183.328C68.968 182.4 70.088 180.928 70.344 178.912H72.104C71.96 179.488 71.784 180.032 71.592 180.544H73.928C73.816 181.28 73.656 181.712 73.464 181.84C73.224 182 72.872 182.08 72.424 182.08C72.072 182.08 71.56 182.016 70.872 181.92L71.352 183.424C72.152 183.424 72.808 183.408 73.336 183.408C73.944 183.376 74.424 183.184 74.744 182.848C75.064 182.496 75.304 181.568 75.464 180.048V179.248H73.464C73.576 178.928 73.688 178.56 73.784 178.176V177.44H67.576ZM79.128 170.992L78.008 172.064C79.096 172.992 79.944 173.872 80.552 174.672L81.704 173.52C81 172.688 80.136 171.84 79.128 170.992ZM88.344 185.424H92.024L92.424 183.824C91.976 183.856 91.352 183.888 90.536 183.904C89.704 183.904 88.904 183.92 88.104 183.92C86.824 183.92 85.704 183.904 84.744 183.888C83.784 183.856 83.064 183.728 82.584 183.504C82.184 183.296 81.8 182.976 81.416 182.56C81.352 182.496 81.288 182.448 81.224 182.384V176.24H77.704V177.776H79.656V182.272C79.048 182.64 78.392 183.424 77.688 184.608L78.904 185.76C79.64 184.368 80.136 183.68 80.408 183.68C80.6 183.68 80.808 183.808 81.032 184.064C81.512 184.576 82.072 184.944 82.744 185.136C83.448 185.296 84.328 185.376 85.4 185.392C86.456 185.408 87.448 185.424 88.344 185.424ZM90.856 171.248H83.4V175.952H82.344V183.152H83.944V177.392H90.376V181.568C90.376 181.856 90.2 182.016 89.864 182.016L88.6 181.952L88.952 183.328H90.312C91.416 183.328 91.976 182.848 91.976 181.92V175.952H90.856V171.248ZM84.968 175.952V174.848H86.52V175.952H84.968ZM84.968 173.568V172.672H89.304V175.952H87.928V173.568H84.968ZM84.856 178.08V181.68H89.384V178.08H84.856ZM88.008 180.416H86.248V179.264H88.008V180.416ZM95.128 170.992L94.008 172.064C95.096 172.992 95.944 173.872 96.552 174.672L97.704 173.52C97 172.688 96.136 171.84 95.128 170.992ZM104.344 185.424H108.024L108.408 183.824C107.976 183.856 107.352 183.888 106.536 183.904C105.704 183.904 104.904 183.92 104.104 183.92C102.856 183.92 101.784 183.904 100.856 183.888C99.912 183.856 99.208 183.728 98.728 183.504C98.36 183.296 97.992 182.976 97.624 182.56L97.464 182.4V176.24H93.784V177.776H95.88V182.256C95.24 182.608 94.536 183.392 93.768 184.608L94.984 185.76C95.784 184.368 96.328 183.68 96.648 183.68C96.824 183.68 97.016 183.808 97.24 184.064C97.72 184.576 98.28 184.944 98.92 185.136C99.592 185.296 100.44 185.376 101.48 185.392C102.504 185.408 103.464 185.424 104.344 185.424ZM102.536 176V176.8H100.632V178.112H102.536V178.928H100.856V182.384H104.312L104.584 183.424H106.408C107.368 183.424 107.864 182.928 107.864 181.968V174.592H105.912C106.168 174.272 106.392 173.904 106.616 173.52L106.024 173.312H108.184V171.856H104.088C103.944 171.472 103.8 171.12 103.672 170.8L101.96 171.088C102.088 171.312 102.232 171.568 102.376 171.856H98.216V173.312H100.776L99.944 173.616C100.216 173.92 100.456 174.24 100.664 174.592H98.632V183.328H100.088V176H102.536ZM104.888 173.312C104.696 173.744 104.472 174.176 104.216 174.592H102.264C102.056 174.112 101.832 173.696 101.592 173.312H104.888ZM105.592 182.064V178.928H103.944V178.112H105.832V176.8H103.944V176H106.392V181.648C106.392 181.936 106.248 182.08 105.96 182.08L105.592 182.064ZM104.296 181.184H102.152V180.128H104.296V181.184ZM110.008 174.016C109.96 175.52 109.768 176.944 109.448 178.288L110.792 178.672C111.08 177.232 111.256 175.712 111.288 174.112L110.008 174.016ZM114.488 173.616L113.336 173.984V170.896H111.656V185.616H113.336V174.144C113.64 174.992 113.896 175.888 114.12 176.832L114.744 176.672C114.648 176.864 114.552 177.056 114.456 177.264L115.704 178.368C116.216 177.44 116.616 176.432 116.904 175.344H118.952V178.752H115.416V180.384H118.952V183.632H114.568V185.248H124.376V183.632H120.648V180.384H123.8V178.752H120.648V175.344H123.944V173.728H120.648V170.928H118.952V173.728H117.224C117.288 173.216 117.32 172.704 117.352 172.16L115.832 171.952C115.768 173.232 115.544 174.432 115.176 175.584C114.968 174.88 114.744 174.224 114.488 173.616ZM126.936 171.12L125.832 172.176C126.792 172.976 127.544 173.712 128.056 174.4L129.192 173.264C128.584 172.56 127.832 171.84 126.936 171.12ZM126.712 175.072L125.608 176.128C126.52 176.928 127.224 177.664 127.736 178.368L128.856 177.248C128.28 176.512 127.56 175.792 126.712 175.072ZM127.592 179.44C127.08 181.264 126.472 183.056 125.768 184.816L127.24 185.456C127.88 183.76 128.472 181.936 129 180L127.592 179.44ZM129.416 171.328V181.488H134.792V171.328H129.416ZM133.176 179.984H131.048V178.432H133.176V179.984ZM131.048 176.976V175.552H133.176V176.976H131.048ZM131.048 174.096V172.832H133.176V174.096H131.048ZM133.64 181.728L132.424 182.496C133.128 183.584 133.672 184.56 134.088 185.44L135.384 184.544C134.968 183.744 134.392 182.8 133.64 181.728ZM130.328 181.808C129.88 182.832 129.288 183.872 128.536 184.928L129.944 185.664C130.664 184.624 131.256 183.552 131.704 182.464L130.328 181.808ZM135.848 172.256V182.096H137.4V172.256H135.848ZM138.504 185.504C139.544 185.504 140.072 184.912 140.072 183.76V170.912H138.488V183.328C138.488 183.776 138.296 184 137.928 184C137.448 184 136.952 183.968 136.424 183.904L136.792 185.504H138.504ZM141.752 172.72V174.224H147.576V172.72H145.592C145.432 172.144 145.224 171.52 144.952 170.816L143.352 171.248C143.592 171.728 143.8 172.224 143.992 172.72H141.752ZM142.376 177.328V178.8H146.92V177.328H142.376ZM147.24 179.744H142.104V185.648H143.64V184.736H145.704V185.408H147.24V179.744ZM143.64 183.264V181.216H145.704V183.264H143.64ZM147.976 171.456V173.024H151.176V178.576H147.512V180.16H151.176V185.68H152.792V180.16H156.44V178.576H152.792V173.024H155.976V171.456H147.976ZM149.48 173.616L148.04 174.096C148.52 175.344 148.904 176.64 149.224 178L150.648 177.648C150.296 176.128 149.912 174.784 149.48 173.616ZM154.44 173.568C154.104 175.136 153.72 176.448 153.272 177.472L154.648 177.968C155.144 176.816 155.56 175.488 155.896 173.968L154.44 173.568ZM142.376 175.104V176.56H146.92V175.104H142.376ZM164.168 173.536V183.104H157.848V184.72H172.168V183.104H165.864V173.536H171.192V171.936H158.856V173.536H164.168ZM186.056 171.344H175.944V181.104H173.832V182.656H177.704C176.648 183.296 175.4 183.856 173.96 184.368L174.984 185.712C176.792 185.024 178.312 184.24 179.544 183.344L178.76 182.656H182.936L182.392 183.456C183.992 184 185.576 184.736 187.128 185.68L188.056 184.224C186.968 183.648 185.8 183.12 184.536 182.656H188.168V181.104H186.056V171.344ZM177.624 181.104V180.032H184.376V181.104H177.624ZM177.624 178.72V177.632H184.376V178.72H177.624ZM177.624 176.32V175.216H184.376V176.32H177.624ZM177.624 173.92V172.912H184.376V173.92H177.624ZM192.104 181.584C191.704 181.584 191.384 181.696 191.144 181.936C190.888 182.16 190.76 182.464 190.76 182.848C190.76 183.2 190.872 183.504 191.112 183.744C191.352 183.984 191.64 184.112 191.992 184.112C192.168 184.112 192.296 184.08 192.392 184.048C192.392 184.432 192.264 184.8 191.976 185.184C191.672 185.536 191.304 185.792 190.872 185.952V187.008C191.704 186.768 192.376 186.336 192.872 185.712C193.352 185.072 193.608 184.336 193.608 183.488C193.608 182.928 193.464 182.464 193.192 182.112C192.904 181.76 192.536 181.584 192.104 181.584ZM69.512 195.616C69 196.816 68.2 197.792 67.112 198.528L68.312 199.568C69.4 198.784 70.264 197.648 70.904 196.16L69.512 195.616ZM72.904 195.536L71.672 196.304C72.696 197.472 73.496 198.528 74.088 199.488L75.432 198.56C74.84 197.696 73.992 196.688 72.904 195.536ZM63.624 207.6C64.712 207.6 65.256 207.04 65.256 205.952V201.488C65.656 201.296 66.056 201.104 66.472 200.912V199.248C66.056 199.456 65.656 199.648 65.256 199.84V197.344H66.504V195.76H65.256V192.912H63.592V195.76H61.88V197.344H63.592V200.48C62.92 200.704 62.232 200.896 61.544 201.04L61.976 202.72C62.52 202.544 63.048 202.352 63.592 202.16V205.536C63.592 205.92 63.4 206.112 63.048 206.112C62.664 206.112 62.264 206.064 61.848 206L62.216 207.6H63.624ZM75.72 193.36H66.984V196.64H68.552V194.864H74.152V196.576H75.72V193.36ZM69.272 201.904C68.52 203.28 67.4 204.416 65.896 205.328L66.744 206.752C68.44 205.472 69.688 203.856 70.456 201.904H70.52V207.6H72.104V201.904H72.152C72.792 203.632 73.848 205.2 75.352 206.608L76.408 205.264C75 204.272 73.976 203.152 73.336 201.904H75.88V200.384H72.104V198.832H70.52V200.384H66.776V201.904H69.272ZM78.952 193.936V195.44H84.152V196.432H78.104V199.616H79.736V197.872H83.56C82.808 198.512 82.008 199.072 81.176 199.568C80.92 199.696 80.696 199.792 80.472 199.84L80.792 201.056C81.88 201.024 82.888 200.992 83.784 200.96C82.68 201.568 81.64 202 80.648 202.272C80.184 202.272 79.704 202.256 79.224 202.224L79.56 203.712C81 203.664 82.568 203.6 84.264 203.52V205.744C84.264 206.064 84.104 206.224 83.8 206.224C83.4 206.224 82.984 206.176 82.552 206.112L82.888 207.648H84.344C85.4 207.648 85.928 207.136 85.928 206.144V203.44C86.968 203.376 88.056 203.312 89.192 203.248C89.464 203.6 89.72 203.952 89.96 204.304L91.208 203.424C90.6 202.576 89.736 201.584 88.616 200.464L87.416 201.216C87.704 201.52 87.992 201.84 88.28 202.16C86.68 202.256 85.064 202.32 83.4 202.384C85.336 201.632 87.08 200.672 88.648 199.52L87.32 198.608C86.744 199.024 86.2 199.424 85.656 199.808C84.904 199.84 83.96 199.872 82.84 199.904C83.72 199.392 84.584 198.832 85.416 198.192L84.792 197.872H90.264V199.632H91.896V196.432H85.848V195.44H91.048V193.936H85.848V192.864H84.152V193.936H78.952ZM87.48 203.984L86.664 205.216C88.2 205.76 89.704 206.496 91.176 207.44L92.008 206.128C90.648 205.296 89.144 204.576 87.48 203.984ZM82.184 203.952C81.064 204.784 79.64 205.44 77.88 205.936L78.568 207.392C80.36 206.784 81.896 206 83.144 205.056L82.184 203.952ZM97 192.816C96.248 195.248 95.096 197.36 93.528 199.152L94.072 200.896C94.536 200.4 94.968 199.888 95.384 199.376V207.696H97.048V196.88C97.64 195.824 98.12 194.704 98.504 193.52L97 192.816ZM107.992 193.328H98.568V207.648H100.056V206.752H106.488V207.648H107.992V193.328ZM100.056 205.264V194.768H106.488V205.264H100.056ZM100.536 196.976V198.384H102.584V199.904H101.08V204.624H105.56V199.904H104.008V198.384H106.04V196.976H104.008V195.392H102.584V196.976H100.536ZM104.264 203.36H102.376V201.168H104.264V203.36ZM117.784 192.88H116.088C116.088 193.488 116.072 194.32 116.072 195.392C115.944 199.984 113.752 203.568 109.464 206.128L110.488 207.632C113.816 205.488 116.008 202.784 117.064 199.52C118.296 202.896 120.408 205.584 123.4 207.6L124.52 206.128C120.888 203.904 118.6 200.688 117.672 196.48C117.736 195.488 117.784 194.288 117.784 192.88ZM135.192 192.832V194.4H132.584V195.92H135.192V197.312H131.704V198.88H140.344V197.312H136.872V195.92H139.64V194.4H136.872V192.832H135.192ZM132.056 200.288V201.856H136.888V205.472C136.888 205.888 136.728 206.096 136.408 206.096C135.832 206.096 135.224 206.048 134.6 205.984L134.936 207.552H136.968C137.992 207.552 138.52 206.992 138.52 205.872V201.856H140.184V200.288H138.52V199.424H136.888V200.288H132.056ZM133.48 202.24L132.184 203.056C132.952 203.952 133.56 204.784 134.008 205.536L135.336 204.608C134.888 203.936 134.28 203.152 133.48 202.24ZM127.48 197.632H128.504V201.456C127.544 201.744 126.584 201.968 125.592 202.144L125.992 203.76C126.84 203.536 127.672 203.28 128.504 203.008V207.664H130.12V202.432C130.536 202.272 130.968 202.096 131.4 201.92V200.352C130.984 200.544 130.568 200.72 130.12 200.896V197.632H131.32V196.032H130.12V192.88H128.504V196.032H127.704C127.768 195.456 127.8 194.848 127.832 194.24L126.328 194.128C126.264 195.984 125.992 197.76 125.512 199.44L126.968 199.856C127.176 199.136 127.352 198.4 127.48 197.632ZM143.976 196.576H145.608V198.24H147.208V196.576H148.92V195.216H144.056V194.576C145.912 194.528 147.592 194.384 149.112 194.16L148.392 192.848C146.68 193.136 144.728 193.28 142.536 193.312V195.632C142.488 196.624 142.2 197.408 141.672 197.952L142.808 199.184C143.416 198.512 143.8 197.632 143.976 196.576ZM150.936 196.64H152.616V198.256H154.2V196.64H156.136V195.264H151.128V194.592C152.952 194.544 154.616 194.4 156.104 194.176L155.384 192.864C153.688 193.152 151.752 193.296 149.592 193.328V195.376C149.544 196.288 149.192 197.008 148.552 197.536L149.496 198.56H143.768V205.376H146.664C145.608 205.792 144.104 206.128 142.168 206.416L142.904 207.696C145.016 207.344 146.632 206.88 147.768 206.304L147.08 205.376H150.952L150.424 206.416C152.232 206.72 153.96 207.168 155.624 207.744L156.168 206.416C154.792 205.984 153.352 205.632 151.848 205.376H154.584V198.56H149.896C150.376 198.016 150.728 197.376 150.936 196.64ZM152.888 204.064H145.448V203.376H152.888V204.064ZM145.448 202.288V201.616H152.888V202.288H145.448ZM145.448 200.512V199.872H152.888V200.512H145.448ZM162.36 197.296V205.552H157.848V207.152H172.184V205.552H167.64V197.296H171.912V195.712H168.376C168.792 195.04 169.176 194.288 169.528 193.456L167.928 192.88C167.528 193.872 167.064 194.816 166.52 195.712H162.712L163.544 195.296C163.08 194.416 162.6 193.616 162.088 192.88L160.664 193.568C161.128 194.208 161.56 194.928 161.976 195.712H158.088V197.296H162.36ZM164.008 205.552V197.296H165.992V205.552H164.008ZM160.392 198.496L158.904 198.816C159.384 200.32 159.784 202.048 160.104 204L161.624 203.664C161.272 201.808 160.856 200.08 160.392 198.496ZM169.624 198.416C169.224 200.48 168.76 202.176 168.216 203.52L169.72 204.048C170.312 202.56 170.792 200.816 171.176 198.832L169.624 198.416ZM178.984 193.456H174.104V206.992H175.736V205.952H178.984V198.96L179.48 199.856C179.768 199.696 180.04 199.536 180.328 199.344V203.456H182.92V205.648C182.92 205.968 182.76 206.128 182.456 206.128C182.168 206.128 181.864 206.08 181.544 206.016L181.912 207.552H183C184.008 207.552 184.52 207.04 184.52 206.048V203.456H187.064V199.28C187.288 199.44 187.544 199.584 187.816 199.744L188.456 198.4C187.96 198.16 187.512 197.888 187.096 197.584C187.416 197.28 187.752 196.944 188.088 196.56L186.968 195.696C186.712 196.048 186.424 196.4 186.088 196.72C185.752 196.368 185.448 195.984 185.192 195.568H187.784V194.096H184.216C184.328 193.744 184.44 193.376 184.536 192.976L183 192.784C182.904 193.232 182.776 193.664 182.616 194.096H179.64V195.568H181.912C181.72 195.888 181.496 196.208 181.24 196.528C180.968 196.256 180.664 195.984 180.312 195.712L179.304 196.688C179.672 196.944 180.008 197.216 180.312 197.472C179.912 197.824 179.464 198.144 178.984 198.432V193.456ZM182.04 197.888C182.664 197.216 183.192 196.448 183.624 195.568H183.672C184.088 196.416 184.648 197.184 185.352 197.888H182.04ZM175.736 204.4V202.24H177.384V204.4H175.736ZM175.736 200.736V198.608H177.384V200.736H175.736ZM175.736 197.12V195.024H177.384V197.12H175.736ZM180.856 203.872C180.328 204.832 179.704 205.664 178.968 206.4L180.088 207.44C180.856 206.64 181.512 205.664 182.088 204.512L180.856 203.872ZM186.392 203.856L185.176 204.592C186.008 205.616 186.68 206.56 187.16 207.392L188.392 206.544C187.928 205.776 187.256 204.88 186.392 203.856ZM181.832 201.28H185.56V202.176H181.832V201.28ZM185.56 200.032H181.832V199.168H185.56V200.032ZM198.616 201.744H200.264V203.232H196.872V204.752H200.264V207.712H201.896V204.752H204.36V203.232H201.896V201.744H204.024V200.256H201.896V198.928H200.264V200.256H199.208C199.304 199.936 199.384 199.6 199.464 199.216L198.104 198.976C197.88 200.16 197.416 201.12 196.744 201.84L197.704 203.024C198.056 202.656 198.36 202.224 198.616 201.744ZM198.888 195.136C198.76 195.568 198.6 195.952 198.392 196.272C198.056 196.784 197.56 197.216 196.888 197.568L197.88 198.816C198.712 198.256 199.336 197.632 199.768 196.944C200.056 196.4 200.28 195.808 200.44 195.136H202.344C202.312 196.064 202.264 196.624 202.184 196.832C202.088 197.04 201.848 197.152 201.48 197.168C201.112 197.136 200.648 197.104 200.088 197.056L200.472 198.432C201 198.48 201.448 198.512 201.832 198.512C202.6 198.512 203.128 198.272 203.448 197.824C203.768 197.36 203.928 195.968 203.944 193.664H196.968V195.136H198.888ZM191.848 200.896H192.84V202.576H191.848V200.896ZM191.768 203.968H192.84V207.376H194.152V206.512L194.44 207.536H195.16C196.088 207.536 196.568 207.104 196.568 206.24V196.528H194.936C195.224 196.112 195.496 195.616 195.784 195.056V193.92H193.128C193.224 193.664 193.336 193.408 193.432 193.152L191.912 192.8C191.256 194.464 190.504 195.76 189.64 196.672L190.44 197.632V202.512C190.424 204.24 190.136 205.648 189.576 206.768L190.696 207.792C191.256 206.752 191.608 205.472 191.768 203.968ZM193.24 196.528H191.72C191.976 196.144 192.232 195.728 192.472 195.28H194.008C193.752 195.744 193.496 196.16 193.24 196.528ZM194.152 206.176V203.968H195.16V205.76C195.16 206.08 195 206.24 194.712 206.24C194.552 206.24 194.36 206.208 194.152 206.176ZM195.16 202.576H194.152V200.896H195.16V202.576ZM195.16 199.52H194.152V197.952H195.16V199.52ZM192.84 197.952V199.52H191.848V197.952H192.84ZM65 214.816C64.248 217.248 63.096 219.36 61.528 221.152L62.072 222.896C62.536 222.4 62.968 221.888 63.384 221.376V229.696H65.048V218.88C65.64 217.824 66.12 216.704 66.504 215.52L65 214.816ZM75.992 215.328H66.568V229.648H68.056V228.752H74.488V229.648H75.992V215.328ZM68.056 227.264V216.768H74.488V227.264H68.056ZM68.536 218.976V220.384H70.584V221.904H69.08V226.624H73.56V221.904H72.008V220.384H74.04V218.976H72.008V217.392H70.584V218.976H68.536ZM72.264 225.36H70.376V223.168H72.264V225.36ZM85.784 214.88H84.088C84.088 215.488 84.072 216.32 84.072 217.392C83.944 221.984 81.752 225.568 77.464 228.128L78.488 229.632C81.816 227.488 84.008 224.784 85.064 221.52C86.296 224.896 88.408 227.584 91.4 229.6L92.52 228.128C88.888 225.904 86.6 222.688 85.672 218.48C85.736 217.488 85.784 216.288 85.784 214.88ZM93.784 215.344V216.88H94.344V226.016L93.496 226.144L93.912 227.808C94.968 227.584 95.976 227.328 96.968 227.072V229.504H98.536V226.608C98.728 226.544 98.92 226.496 99.128 226.432V224.816L98.536 225.008V216.88H98.984V215.344H93.784ZM95.912 225.712V223.52H96.968V225.456C96.616 225.552 96.264 225.632 95.912 225.712ZM95.912 222.016V220.24H96.968V222.016H95.912ZM95.912 218.736V216.88H96.968V218.736H95.912ZM103.688 221.568H99.512V228.464H100.904V227.664H103.4C103.144 227.952 102.872 228.24 102.584 228.512L103.704 229.488C104.264 228.928 104.808 228.288 105.32 227.584C105.448 227.984 105.608 228.352 105.8 228.672C106.136 229.216 106.504 229.488 106.904 229.488C107.64 229.488 108.152 228.512 108.424 226.576L107.208 225.712C107.096 226.928 106.968 227.552 106.808 227.584C106.616 227.488 106.456 226.976 106.312 226.048C107 224.8 107.608 223.392 108.152 221.792L106.824 221.248C106.6 221.984 106.344 222.688 106.056 223.376C106.024 222.656 105.992 221.792 105.96 220.8H108.168V219.36H105.944C105.912 218.064 105.912 216.592 105.912 214.928H104.472C104.472 216.56 104.472 218.032 104.504 219.36H103.416C103.56 218.912 103.688 218.432 103.784 217.92L102.392 217.744C102.312 218.288 102.2 218.832 102.04 219.36H101.4C101.272 218.768 101.144 218.24 101.016 217.776L99.608 217.984C99.768 218.416 99.896 218.88 100.024 219.36H99.016V220.8H104.536C104.6 223.056 104.696 224.688 104.856 225.68C104.504 226.256 104.104 226.8 103.688 227.312V221.568ZM100.904 226.384V225.184H102.296V226.384H100.904ZM100.904 223.952V222.848H102.296V223.952H100.904ZM107.272 215.664L106.088 216.048C106.424 216.912 106.696 217.824 106.92 218.784L108.104 218.48C107.864 217.424 107.592 216.48 107.272 215.664ZM102.12 214.96L100.536 215.216C100.648 215.504 100.76 215.808 100.872 216.16H99.256V217.472H104.024V216.16H102.408C102.312 215.712 102.216 215.312 102.12 214.96ZM114.712 214.88V217.216H113.08L113.992 216.816C113.704 216.144 113.352 215.52 112.936 214.928L111.672 215.456C111.992 215.952 112.312 216.544 112.6 217.216H110.2V218.64H113.384L114.056 219.952H110.52V221.36H116.184V222.144H110.856V223.52H116.184V224.288H110.04V225.696H114.616C113.656 226.512 112.024 227.264 109.736 227.936L110.616 229.376C113.224 228.4 115.08 227.264 116.184 225.952V229.616H117.816V225.904C119 227.312 120.904 228.48 123.528 229.376L124.232 227.904C122.12 227.36 120.52 226.624 119.432 225.696H123.96V224.288H117.816V223.52H123.144V222.144H117.816V221.36H123.448V219.952H119.784L120.328 218.64H123.8V217.216H121.144C121.56 216.72 121.944 216.144 122.264 215.504L121.032 214.912C120.696 215.584 120.296 216.176 119.816 216.656L120.6 217.216H119.032V214.88H117.496V217.216H116.248V214.88H114.712ZM118.168 219.952H115.672L115.016 218.64H118.696L118.168 219.952ZM127.128 214.992L126.008 216.064C127.096 216.992 127.944 217.872 128.552 218.672L129.704 217.52C129 216.688 128.136 215.84 127.128 214.992ZM136.344 229.424H140.024L140.408 227.824C139.976 227.856 139.352 227.888 138.536 227.904C137.704 227.904 136.904 227.92 136.104 227.92C134.856 227.92 133.784 227.904 132.856 227.888C131.912 227.856 131.208 227.728 130.728 227.504C130.36 227.296 129.992 226.976 129.624 226.56L129.464 226.4V220.24H125.784V221.776H127.88V226.256C127.24 226.608 126.536 227.392 125.768 228.608L126.984 229.76C127.784 228.368 128.328 227.68 128.648 227.68C128.824 227.68 129.016 227.808 129.24 228.064C129.72 228.576 130.28 228.944 130.92 229.136C131.592 229.296 132.44 229.376 133.48 229.392C134.504 229.408 135.464 229.424 136.344 229.424ZM134.536 220V220.8H132.632V222.112H134.536V222.928H132.856V226.384H136.312L136.584 227.424H138.408C139.368 227.424 139.864 226.928 139.864 225.968V218.592H137.912C138.168 218.272 138.392 217.904 138.616 217.52L138.024 217.312H140.184V215.856H136.088C135.944 215.472 135.8 215.12 135.672 214.8L133.96 215.088C134.088 215.312 134.232 215.568 134.376 215.856H130.216V217.312H132.776L131.944 217.616C132.216 217.92 132.456 218.24 132.664 218.592H130.632V227.328H132.088V220H134.536ZM136.888 217.312C136.696 217.744 136.472 218.176 136.216 218.592H134.264C134.056 218.112 133.832 217.696 133.592 217.312H136.888ZM137.592 226.064V222.928H135.944V222.112H137.832V220.8H135.944V220H138.392V225.648C138.392 225.936 138.248 226.08 137.96 226.08L137.592 226.064ZM136.296 225.184H134.152V224.128H136.296V225.184ZM142.008 218.016C141.96 219.52 141.768 220.944 141.448 222.288L142.792 222.672C143.08 221.232 143.256 219.712 143.288 218.112L142.008 218.016ZM146.488 217.616L145.336 217.984V214.896H143.656V229.616H145.336V218.144C145.64 218.992 145.896 219.888 146.12 220.832L146.744 220.672C146.648 220.864 146.552 221.056 146.456 221.264L147.704 222.368C148.216 221.44 148.616 220.432 148.904 219.344H150.952V222.752H147.416V224.384H150.952V227.632H146.568V229.248H156.376V227.632H152.648V224.384H155.8V222.752H152.648V219.344H155.944V217.728H152.648V214.928H150.952V217.728H149.224C149.288 217.216 149.32 216.704 149.352 216.16L147.832 215.952C147.768 217.232 147.544 218.432 147.176 219.584C146.968 218.88 146.744 218.224 146.488 217.616ZM160.776 214.784C160.056 217.216 158.952 219.328 157.448 221.12L158.008 222.912C158.456 222.416 158.888 221.904 159.288 221.392V229.68H160.904V218.912C161.496 217.824 161.976 216.704 162.344 215.52L160.776 214.784ZM161.8 217.744V226.8H163.384V217.744H161.8ZM166.184 214.816C165.736 216.16 164.888 217.312 163.64 218.24L164.648 219.552C164.968 219.296 165.256 219.04 165.544 218.768C165.832 219.152 166.184 219.52 166.6 219.888C165.752 220.272 164.776 220.608 163.656 220.88L164.296 222.384C165.768 221.984 167.032 221.488 168.088 220.896C169.112 221.456 170.36 221.92 171.848 222.288L172.472 220.784C171.368 220.544 170.392 220.24 169.56 219.872C170.408 219.152 171.032 218.304 171.432 217.344V215.952H167.48C167.608 215.664 167.72 215.344 167.816 215.024L166.184 214.816ZM166.52 217.648L166.68 217.424H169.672C169.256 218.032 168.712 218.576 168.04 219.056C167.416 218.64 166.904 218.176 166.52 217.648ZM164.088 223.024V224.576H167.24V227.568C167.24 227.952 167.08 228.144 166.76 228.144C166.424 228.144 166.072 228.112 165.704 228.064L166.04 229.536H167.304C168.312 229.536 168.824 228.992 168.824 227.936V224.576H171.928V223.024H168.824V221.744H167.24V223.024H164.088ZM165.24 225.088C164.696 226.272 164.056 227.28 163.32 228.128L164.584 229.024C165.304 228.096 165.928 226.976 166.472 225.68L165.24 225.088ZM170.488 225.072L169.336 225.792C170.024 226.96 170.568 228.016 170.984 228.976L172.296 228.064C171.864 227.216 171.256 226.224 170.488 225.072ZM176.936 214.704C176.184 217.168 175.016 219.312 173.448 221.12L174.008 222.912C174.456 222.432 174.888 221.936 175.304 221.424V229.664H176.952V218.992C177.592 217.872 178.104 216.704 178.504 215.456L176.936 214.704ZM179.64 215.92C179.32 217.936 178.696 219.648 177.784 221.04L178.856 222.432C179.416 221.616 179.896 220.704 180.296 219.712H182.584V222.992H178.12V224.608H182.584V229.616H184.264V224.608H188.344V222.992H184.264V219.712H187.736V218.08H184.264V214.928H182.584V218.08H180.84C181.016 217.456 181.16 216.8 181.272 216.128L179.64 215.92ZM193 225.568C192.376 225.568 191.848 225.76 191.416 226.176C190.968 226.592 190.76 227.104 190.76 227.728C190.76 228.336 190.968 228.864 191.416 229.28C191.848 229.68 192.376 229.888 193 229.888C193.608 229.888 194.136 229.68 194.584 229.264C195.016 228.848 195.24 228.336 195.24 227.728C195.24 227.12 195.016 226.608 194.584 226.192C194.136 225.776 193.608 225.568 193 225.568ZM193 226.688C193.288 226.688 193.528 226.784 193.752 226.992C193.96 227.184 194.072 227.44 194.072 227.728C194.072 228.016 193.96 228.256 193.752 228.464C193.528 228.656 193.288 228.768 193 228.768C192.712 228.768 192.456 228.656 192.248 228.464C192.024 228.256 191.928 228.016 191.928 227.728C191.928 227.44 192.024 227.184 192.248 226.992C192.456 226.784 192.712 226.688 193 226.688Z" fill="white"/>
</svg>
