<svg width="178" height="178" viewBox="0 0 178 178" fill="none" xmlns="http://www.w3.org/2000/svg">
<g filter="url(#filter0_d)">
<path d="M89 170C135.944 170 174 131.944 174 85C174 38.0558 135.944 0 89 0C42.0558 0 4 38.0558 4 85C4 131.944 42.0558 170 89 170Z" fill="#D1652F"/>
<path d="M116.397 50.576H105.344V49.947C105.344 47.753 104.044 46.034 102.382 46.034H97.107C96.299 44.5449 95.1124 43.2953 93.6671 42.4114C92.2217 41.5276 90.5687 41.0407 88.875 41C87.1815 41.0411 85.5288 41.528 84.0835 42.4117C82.6382 43.2953 81.4515 44.5444 80.643 46.033H75.37C73.701 46.033 72.397 47.752 72.397 49.946V50.575H61.861C60.5715 50.5769 59.3354 51.0903 58.424 52.0026C57.5127 52.9149 57.0005 54.1515 57 55.441V125.563C57.0019 126.852 57.5146 128.087 58.4258 128.998C59.337 129.909 60.5724 130.422 61.861 130.424H116.397C117.686 130.422 118.921 129.909 119.832 128.998C120.743 128.087 121.255 126.852 121.257 125.563V55.441C121.256 54.1518 120.744 52.9156 119.833 52.0036C118.922 51.0915 117.686 50.5781 116.397 50.576ZM88.875 42.932C90.3164 42.9815 91.7159 43.4297 92.9179 44.2267C94.1199 45.0238 95.0774 46.1385 95.684 47.447C95.7652 47.6034 95.888 47.7344 96.0388 47.8256C96.1897 47.9169 96.3627 47.9647 96.539 47.964H102.382C102.803 47.964 103.415 48.737 103.415 49.947V53.609H74.324V49.947C74.324 48.737 74.942 47.964 75.37 47.964H81.209C81.3852 47.9645 81.5582 47.9165 81.709 47.8254C81.8598 47.7342 81.9826 47.6033 82.064 47.447C82.6715 46.1387 83.6294 45.0243 84.8317 44.2274C86.0339 43.4304 87.4335 42.982 88.875 42.932ZM73.356 55.542H104.379C104.506 55.542 104.631 55.517 104.748 55.4685C104.865 55.42 104.972 55.349 105.061 55.2594C105.151 55.1698 105.222 55.0634 105.271 54.9463C105.319 54.8292 105.344 54.7037 105.344 54.577V52.507H116.397C117.174 52.5086 117.919 52.8183 118.468 53.3683C119.018 53.9183 119.326 54.6637 119.327 55.441V125.563C119.326 126.34 119.017 127.085 118.468 127.635C117.918 128.185 117.173 128.494 116.396 128.495H61.861C61.0837 128.494 60.3386 128.185 59.7889 127.635C59.2393 127.085 58.9301 126.34 58.929 125.563V55.441C58.9295 54.6634 59.2385 53.9177 59.7882 53.3676C60.3379 52.8176 61.0834 52.5081 61.861 52.507H72.396V54.576C72.396 54.8314 72.4973 55.0764 72.6776 55.2573C72.8579 55.4382 73.1026 55.5402 73.358 55.541" fill="white"/>
<path d="M63.4229 80.4981C63.4408 84.0402 64.7239 87.4594 67.0406 90.1389C69.3574 92.8184 72.5554 94.5818 76.0579 95.1111C76.7635 95.2133 77.4758 95.2628 78.1889 95.2591H98.5229C98.6123 95.2925 98.7065 95.3118 98.8019 95.3161C98.8979 95.3118 98.9927 95.2926 99.0829 95.2591H105.293C105.453 95.3926 105.654 95.4658 105.862 95.4658C106.071 95.4658 106.272 95.3926 106.432 95.2591H111.022C111.166 95.3576 111.336 95.4103 111.51 95.4103C111.684 95.4103 111.854 95.3576 111.998 95.2591H113.053C113.309 95.2591 113.554 95.1574 113.736 94.9763C113.917 94.7952 114.018 94.5497 114.018 94.2936C114.018 94.0375 113.917 93.7919 113.736 93.6109C113.554 93.4298 113.309 93.3281 113.053 93.3281H112.474V77.8101C112.478 77.6808 112.456 77.552 112.41 77.4314C112.363 77.3107 112.293 77.2007 112.203 77.1077C112.113 77.0148 112.005 76.9409 111.886 76.8905C111.767 76.84 111.639 76.814 111.509 76.814C111.38 76.814 111.252 76.84 111.133 76.8905C111.014 76.9409 110.906 77.0148 110.816 77.1077C110.726 77.2007 110.656 77.3107 110.609 77.4314C110.563 77.552 110.541 77.6808 110.545 77.8101V93.3301H106.823V74.6361C106.823 74.3802 106.721 74.1347 106.54 73.9537C106.451 73.8641 106.344 73.793 106.227 73.7446C106.11 73.6961 105.985 73.6711 105.858 73.6711C105.602 73.6711 105.356 73.7728 105.175 73.9537C104.995 74.1347 104.893 74.3802 104.893 74.6361V93.3291H99.7629V82.4091C99.7629 82.153 99.6611 81.9074 99.4801 81.7264C99.299 81.5453 99.0534 81.4436 98.7974 81.4436C98.5413 81.4436 98.2957 81.5453 98.1146 81.7264C97.9336 81.9074 97.8319 82.153 97.8319 82.4091V93.3291H85.4549C87.7249 92.0424 89.6135 90.1772 90.9283 87.9234C92.2431 85.6695 92.9372 83.1074 92.9399 80.4981C92.9399 80.2422 92.8382 79.9967 92.6572 79.8157C92.4762 79.6348 92.2308 79.5331 91.9749 79.5331H79.1539V66.7131C79.1539 66.457 79.0522 66.2113 78.8713 66.03C78.6904 65.8487 78.445 65.7466 78.1889 65.7461C74.2758 65.7485 70.5235 67.303 67.7553 70.0686C64.987 72.8343 63.4289 76.5851 63.4229 80.4981V80.4981ZM77.2229 67.7151V80.4981C77.2229 80.754 77.3245 80.9995 77.5055 81.1805C77.6865 81.3614 77.9319 81.4631 78.1879 81.4631H90.9729C90.7319 84.6889 89.2805 87.7044 86.9096 89.905C84.5387 92.1056 81.4236 93.3287 78.1889 93.3291C77.5698 93.3321 76.9515 93.289 76.3389 93.2001C73.2936 92.7415 70.5126 91.2092 68.4981 88.8799C66.4837 86.5505 65.3684 83.5777 65.3539 80.4981C65.355 77.2631 66.5788 74.1481 68.7799 71.7775C70.981 69.4069 73.9969 67.9558 77.2229 67.7151Z" fill="white"/>
<path d="M80.486 79.1743H94.274C94.5299 79.1743 94.7754 79.0726 94.9564 78.8916C95.1373 78.7107 95.239 78.4652 95.239 78.2093C95.2361 74.2965 93.6811 70.5447 90.9153 67.777C88.1495 65.0093 84.3988 63.4518 80.486 63.4463C80.2301 63.4463 79.9846 63.548 79.8036 63.7289C79.6227 63.9099 79.521 64.1554 79.521 64.4113V78.2113C79.521 78.4672 79.6227 78.7127 79.8036 78.8936C79.9846 79.0746 80.2301 79.1763 80.486 79.1763V79.1743ZM93.272 77.2433H81.452V65.4173C84.5127 65.644 87.3901 66.9629 89.5597 69.1336C91.7294 71.3044 93.0468 74.1824 93.272 77.2433Z" fill="white"/>
<path d="M88.8756 50.2425C89.5893 50.2404 90.2731 49.9558 90.7775 49.451C91.282 48.9462 91.566 48.2622 91.5676 47.5485C91.566 46.8348 91.282 46.1508 90.7775 45.646C90.2731 45.1412 89.5893 44.8566 88.8756 44.8545C88.1618 44.8563 87.4777 45.1408 86.9731 45.6456C86.4684 46.1505 86.1842 46.8347 86.1826 47.5485C86.1842 48.2623 86.4684 48.9465 86.9731 49.4513C87.4777 49.9562 88.1618 50.2406 88.8756 50.2425ZM88.8756 46.7845C89.0777 46.785 89.2714 46.8656 89.4142 47.0086C89.557 47.1516 89.6374 47.3454 89.6376 47.5475C89.6376 47.7497 89.5574 47.9436 89.4145 48.0867C89.2716 48.2297 89.0778 48.3102 88.8756 48.3105C88.6736 48.3102 88.4799 48.2299 88.3371 48.087C88.1942 47.9442 88.1139 47.7505 88.1136 47.5485C88.1139 47.3464 88.1942 47.1526 88.337 47.0096C88.4798 46.8666 88.6735 46.786 88.8756 46.7855" fill="white"/>
<path d="M110.16 122.6C109.676 120.532 108.898 118.545 107.849 116.7L109.988 114.565C110.534 114.017 110.841 113.274 110.841 112.501C110.841 111.727 110.534 110.985 109.988 110.437L106.147 106.585C105.59 106.053 104.849 105.757 104.079 105.758C103.309 105.76 102.569 106.059 102.014 106.593L100.02 108.593C98.1436 107.45 96.1114 106.587 93.9868 106.03V103.266C93.9844 102.49 93.6744 101.747 93.1249 101.2C92.5754 100.653 91.8312 100.347 91.0558 100.348H85.6358C84.8623 100.349 84.1208 100.657 83.574 101.204C83.0271 101.751 82.7196 102.492 82.7188 103.266V106.03C80.5907 106.581 78.556 107.445 76.6808 108.593L74.6808 106.593C74.1235 106.064 73.3848 105.77 72.6168 105.77C71.8488 105.77 71.1101 106.064 70.5528 106.593L66.7088 110.437C66.4376 110.708 66.2226 111.03 66.0763 111.385C65.9299 111.739 65.855 112.119 65.8558 112.503C65.8553 112.885 65.9304 113.264 66.0768 113.617C66.2232 113.97 66.438 114.291 66.7088 114.561L68.8458 116.7C67.8001 118.547 67.022 120.534 66.5348 122.6H63.3868C62.6125 122.6 61.8701 122.908 61.3226 123.455C60.7751 124.003 60.4673 124.745 60.4668 125.52V127.474C60.4671 127.729 60.5688 127.975 60.7498 128.155C60.9307 128.336 61.176 128.438 61.4318 128.438H115.271C115.526 128.437 115.772 128.336 115.953 128.155C116.133 127.974 116.235 127.729 116.236 127.474V125.519C116.233 124.743 115.923 124 115.374 123.452C114.824 122.905 114.08 122.598 113.304 122.599L110.16 122.6ZM88.3478 118.333C90.6717 118.343 92.9188 119.166 94.6997 120.659C96.4806 122.152 97.6831 124.221 98.0988 126.508H78.5988C79.015 124.222 80.2173 122.153 81.9977 120.66C83.778 119.168 86.0244 118.344 88.3478 118.333ZM88.3478 116.401C85.5115 116.409 82.7722 117.434 80.6259 119.288C78.4796 121.142 77.0684 123.704 76.6478 126.509H62.3978V125.52C62.3983 125.258 62.5028 125.007 62.6882 124.822C62.8736 124.637 63.1248 124.533 63.3868 124.533H67.3128C67.5365 124.532 67.7533 124.455 67.9264 124.313C68.0995 124.171 68.2183 123.974 68.2628 123.755C68.7306 121.382 69.6178 119.111 70.8828 117.05C70.9942 116.865 71.0405 116.648 71.0144 116.433C70.9883 116.219 70.8913 116.02 70.7388 115.867L68.0708 113.197C67.9792 113.105 67.9069 112.996 67.8581 112.875C67.8093 112.755 67.7851 112.626 67.7868 112.497C67.7852 112.367 67.8096 112.238 67.8588 112.118C67.9079 111.997 67.9807 111.888 68.0728 111.797L71.9188 107.955C72.1105 107.781 72.36 107.685 72.6188 107.685C72.8776 107.685 73.1271 107.781 73.3188 107.955L75.8648 110.507C76.0232 110.663 76.2303 110.76 76.4515 110.782C76.6727 110.804 76.8947 110.749 77.0808 110.628C79.1575 109.254 81.4678 108.271 83.8978 107.728C84.1113 107.679 84.3022 107.56 84.4391 107.389C84.5761 107.219 84.6511 107.007 84.6518 106.788V103.266C84.6523 103.004 84.7565 102.753 84.9415 102.568C85.1264 102.383 85.3772 102.279 85.6388 102.279H91.0588C91.3218 102.279 91.5742 102.382 91.7613 102.567C91.9485 102.752 92.0554 103.003 92.0588 103.266V106.788C92.0603 107.006 92.1353 107.218 92.2718 107.388C92.4082 107.559 92.5981 107.678 92.8108 107.728C95.239 108.276 97.5481 109.258 99.6268 110.628C99.8123 110.751 100.035 110.805 100.256 110.783C100.478 110.76 100.684 110.661 100.841 110.503L103.371 107.955C103.564 107.778 103.817 107.681 104.079 107.681C104.341 107.681 104.593 107.778 104.787 107.955L108.62 111.804C108.711 111.896 108.784 112.005 108.832 112.125C108.881 112.245 108.905 112.374 108.904 112.504C108.906 112.633 108.881 112.762 108.833 112.882C108.784 113.003 108.711 113.112 108.62 113.204L105.956 115.864C105.801 116.016 105.703 116.217 105.677 116.433C105.652 116.649 105.701 116.867 105.816 117.052C107.083 119.11 107.969 121.38 108.433 123.752C108.476 123.971 108.593 124.169 108.766 124.312C108.938 124.455 109.155 124.533 109.379 124.534H113.307C113.57 124.534 113.822 124.637 114.009 124.822C114.197 125.007 114.303 125.258 114.307 125.521V126.51H100.039C99.6138 123.708 98.2026 121.151 96.0592 119.297C93.9159 117.444 91.1813 116.417 88.3478 116.401Z" fill="white"/>
</g>
<defs>
<filter id="filter0_d" x="0" y="0" width="178" height="178" filterUnits="userSpaceOnUse" color-interpolation-filters="sRGB">
<feFlood flood-opacity="0" result="BackgroundImageFix"/>
<feColorMatrix in="SourceAlpha" type="matrix" values="0 0 0 0 0 0 0 0 0 0 0 0 0 0 0 0 0 0 127 0"/>
<feOffset dy="4"/>
<feGaussianBlur stdDeviation="2"/>
<feColorMatrix type="matrix" values="0 0 0 0 0 0 0 0 0 0 0 0 0 0 0 0 0 0 0.25 0"/>
<feBlend mode="normal" in2="BackgroundImageFix" result="effect1_dropShadow"/>
<feBlend mode="normal" in="SourceGraphic" in2="effect1_dropShadow" result="shape"/>
</filter>
</defs>
</svg>
