<svg width="178" height="178" viewBox="0 0 178 178" fill="none" xmlns="http://www.w3.org/2000/svg">
<g filter="url(#filter0_d)">
<path d="M89 170C135.944 170 174 131.944 174 85C174 38.0558 135.944 0 89 0C42.0558 0 4 38.0558 4 85C4 131.944 42.0558 170 89 170Z" fill="#6DBACC"/>
<path d="M105.154 120.528C105.226 120.616 105.317 120.687 105.419 120.736C105.522 120.785 105.634 120.811 105.748 120.812H105.754C105.866 120.812 105.977 120.788 106.079 120.74C106.181 120.693 106.272 120.624 106.344 120.538L112.991 112.682C113.058 112.605 113.108 112.515 113.139 112.417C113.171 112.32 113.182 112.218 113.173 112.116C113.165 112.015 113.137 111.916 113.09 111.826C113.044 111.735 112.98 111.655 112.902 111.59C112.825 111.523 112.735 111.473 112.638 111.442C112.541 111.411 112.439 111.399 112.337 111.408C112.235 111.416 112.137 111.445 112.046 111.492C111.956 111.538 111.875 111.603 111.81 111.681L105.762 118.828L104.28 117.015C104.15 116.856 103.962 116.756 103.758 116.736C103.554 116.716 103.35 116.777 103.191 116.907C103.113 116.971 103.048 117.05 103 117.14C102.953 117.229 102.924 117.327 102.914 117.428C102.903 117.529 102.912 117.632 102.941 117.73C102.97 117.828 103.018 117.919 103.083 117.998L105.154 120.528Z" fill="white"/>
<path d="M135.854 74.6091H130.19C129.796 72.778 129.076 71.0326 128.064 69.4561L132.064 65.4561C132.139 65.3817 132.198 65.2931 132.239 65.1957C132.279 65.0982 132.3 64.9936 132.3 64.8881C132.299 64.6752 132.214 64.4713 132.063 64.3211L128.326 60.6021C128.175 60.4529 127.971 60.3693 127.759 60.3693C127.547 60.3693 127.343 60.4529 127.192 60.6021L123.199 64.6021C121.624 63.5992 119.886 62.8772 118.064 62.4681V56.8081C118.064 56.703 118.043 56.599 118.003 56.5019C117.963 56.4049 117.904 56.3167 117.83 56.2424C117.755 56.1681 117.667 56.1092 117.57 56.069C117.473 56.0288 117.369 56.0081 117.264 56.0081H115.426V45.0781C115.426 44.8659 115.342 44.6624 115.192 44.5124C115.042 44.3624 114.838 44.2781 114.626 44.2781H67.452C67.2398 44.2781 67.0363 44.3624 66.8863 44.5124C66.7363 44.6624 66.652 44.8659 66.652 45.0781V51.1571H58.8C58.5878 51.1571 58.3843 51.2414 58.2343 51.3914C58.0843 51.5414 58 51.7449 58 51.9571V117.892C58 118.104 58.0843 118.308 58.2343 118.458C58.3843 118.608 58.5878 118.692 58.8 118.692H97.9C98.5374 120.876 99.8649 122.795 101.684 124.162C103.503 125.529 105.716 126.27 107.991 126.275C110.781 126.271 113.456 125.16 115.429 123.187C117.401 121.213 118.51 118.537 118.512 115.747C118.512 114.366 118.24 112.998 117.71 111.723C117.18 110.447 116.404 109.289 115.426 108.314V100.082H117.263C117.475 100.082 117.679 99.9978 117.829 99.8478C117.979 99.6977 118.063 99.4942 118.063 99.2821V93.6141C119.888 93.2153 121.628 92.4947 123.201 91.4861L127.196 95.4861C127.27 95.5608 127.359 95.62 127.456 95.6605C127.553 95.7009 127.658 95.7217 127.763 95.7217C127.868 95.7217 127.973 95.7009 128.07 95.6605C128.167 95.62 128.256 95.5608 128.33 95.4861L132.06 91.7631C132.135 91.6887 132.194 91.6004 132.234 91.5031C132.275 91.4058 132.296 91.3014 132.296 91.1961C132.296 91.0907 132.275 90.9864 132.234 90.8891C132.194 90.7918 132.135 90.7034 132.06 90.6291L128.06 86.6201C129.065 85.0436 129.784 83.3028 130.186 81.4771H135.85C136.062 81.4771 136.266 81.3928 136.416 81.2428C136.566 81.0927 136.65 80.8893 136.65 80.6771V75.4101C136.65 75.1979 136.566 74.9944 136.416 74.8444C136.266 74.6944 136.062 74.6101 135.85 74.6101L135.854 74.6091ZM128.735 80.5431C128.377 82.5999 127.571 84.5526 126.372 86.2621C126.263 86.4163 126.212 86.604 126.228 86.7922C126.244 86.9803 126.326 87.1567 126.46 87.2901L130.36 91.1981L127.76 93.7881L123.866 89.8881C123.733 89.7542 123.557 89.6717 123.369 89.6551C123.181 89.6384 122.993 89.6887 122.839 89.7971C121.132 90.9977 119.182 91.8063 117.126 92.1651C116.94 92.1972 116.771 92.2941 116.65 92.4387C116.528 92.5833 116.462 92.7662 116.462 92.9551V98.4791H112.795V92.9551C112.796 92.7663 112.73 92.5834 112.609 92.4386C112.487 92.2939 112.319 92.1966 112.133 92.1641C110.071 91.8101 108.113 91.0015 106.402 89.7971C106.248 89.6887 106.06 89.6384 105.872 89.6551C105.684 89.6717 105.508 89.7542 105.375 89.8881L101.481 93.7881L98.893 91.1991L102.793 87.2911C102.927 87.1579 103.009 86.9817 103.026 86.7935C103.042 86.6054 102.992 86.4175 102.883 86.2631C101.722 84.5966 100.926 82.7031 100.549 80.7071C100.537 80.6521 100.52 80.5991 100.51 80.5441C100.493 80.4494 100.459 80.3586 100.41 80.2761C100.382 80.2368 100.351 80.2 100.317 80.1661C100.291 80.1305 100.263 80.0971 100.232 80.0661C100.191 80.0354 100.146 80.0092 100.099 79.9881C100.067 79.9656 100.034 79.9453 99.999 79.9271C99.9095 79.8947 99.8151 79.8781 99.72 79.8781H94.206V76.2111H99.72C99.9089 76.2115 100.092 76.145 100.236 76.0235C100.381 75.902 100.478 75.7332 100.51 75.5471C100.866 73.4841 101.676 71.526 102.881 69.8141C102.989 69.6595 103.039 69.4717 103.023 69.2838C103.006 69.0959 102.923 68.9199 102.789 68.7871L98.889 64.8871L101.477 62.2991L105.371 66.1991C105.504 66.3332 105.68 66.4158 105.868 66.4325C106.057 66.4492 106.244 66.3987 106.399 66.2901C108.11 65.0824 110.068 64.2708 112.132 63.9141C112.318 63.8815 112.486 63.7844 112.607 63.6399C112.728 63.4953 112.794 63.3127 112.794 63.1241V57.6111H116.461V63.1251C116.461 63.313 116.527 63.495 116.648 63.6391C116.768 63.7832 116.936 63.8802 117.121 63.9131C119.178 64.2804 121.131 65.0908 122.843 66.2881C122.997 66.3968 123.185 66.4475 123.373 66.431C123.562 66.4145 123.738 66.332 123.871 66.1981L127.765 62.2981L130.365 64.8871L126.465 68.7871C126.331 68.9202 126.249 69.0962 126.233 69.2841C126.216 69.4721 126.267 69.6598 126.375 69.8141C127.579 71.5259 128.387 73.4842 128.74 75.5471C128.772 75.7332 128.869 75.902 129.014 76.0235C129.158 76.145 129.341 76.2115 129.53 76.2111H135.054V79.8761H129.526C129.337 79.8757 129.154 79.9423 129.009 80.064C128.865 80.1858 128.768 80.3548 128.736 80.5411L128.735 80.5431ZM113.826 106.99C113.765 106.948 113.697 106.921 113.635 106.882C113.334 106.689 113.022 106.513 112.702 106.353C112.565 106.284 112.427 106.216 112.287 106.153C111.902 105.977 111.507 105.824 111.104 105.696C111.019 105.67 110.929 105.653 110.841 105.629C110.484 105.528 110.121 105.447 109.755 105.385C109.625 105.363 109.495 105.343 109.363 105.326C108.909 105.263 108.451 105.229 107.992 105.226C107.572 105.229 107.153 105.256 106.737 105.308C106.647 105.318 106.558 105.335 106.468 105.348C106.125 105.398 105.784 105.464 105.447 105.548C105.38 105.565 105.314 105.581 105.247 105.6C104.027 105.931 102.877 106.479 101.852 107.22C101.78 107.272 101.71 107.326 101.641 107.379C101.392 107.567 101.153 107.767 100.924 107.979C100.833 108.063 100.739 108.142 100.651 108.228C100.411 108.462 100.183 108.707 99.967 108.964C99.822 109.133 99.689 109.314 99.555 109.493C99.435 109.655 99.315 109.816 99.204 109.985C99.152 110.063 99.09 110.134 99.041 110.214H68.253V45.8781H113.826V56.0071H111.993C111.888 56.0071 111.784 56.0278 111.687 56.068C111.59 56.1082 111.502 56.1671 111.427 56.2414C111.353 56.3157 111.294 56.4039 111.254 56.5009C111.214 56.598 111.193 56.702 111.193 56.8071V62.4621C109.363 62.8625 107.619 63.5865 106.043 64.6001L102.048 60.6001C101.895 60.4551 101.692 60.3744 101.481 60.3744C101.27 60.3744 101.067 60.4551 100.914 60.6001L97.191 64.3231C97.0422 64.4744 96.9586 64.6779 96.958 64.8901C96.9578 64.9953 96.9783 65.0996 97.0185 65.1969C97.0587 65.2942 97.1176 65.3826 97.192 65.4571L101.192 69.4571C100.177 71.0328 99.453 72.7778 99.054 74.6091H93.4C93.1878 74.6091 92.9843 74.6934 92.8343 74.8434C92.6843 74.9934 92.6 75.1969 92.6 75.4091V80.6771C92.6 80.8893 92.6843 81.0927 92.8343 81.2428C92.9843 81.3928 93.1878 81.4771 93.4 81.4771H99.055C99.4611 83.3028 100.184 85.0434 101.19 86.6201L97.19 90.6291C97.1153 90.7034 97.0561 90.7918 97.0156 90.8891C96.9752 90.9864 96.9544 91.0907 96.9544 91.1961C96.9544 91.3014 96.9752 91.4058 97.0156 91.5031C97.0561 91.6004 97.1153 91.6887 97.19 91.7631L100.912 95.4861C101.065 95.6312 101.268 95.7122 101.479 95.7122C101.69 95.7122 101.893 95.6312 102.046 95.4861L106.041 91.4861C107.618 92.4965 109.362 93.2172 111.192 93.6141V99.2811C111.192 99.4932 111.276 99.6967 111.426 99.8468C111.576 99.9968 111.78 100.081 111.992 100.081H113.826V106.99ZM97.526 114.724C97.493 115.065 97.474 115.408 97.474 115.749C97.476 116.148 97.5007 116.547 97.548 116.944C97.548 116.992 97.548 117.044 97.557 117.089H59.6V52.7581H66.651V111.013C66.651 111.225 66.7353 111.429 66.8853 111.579C67.0353 111.729 67.2388 111.813 67.451 111.813H98.226C98.157 111.988 98.103 112.169 98.042 112.348C98.003 112.462 97.96 112.574 97.925 112.689C97.876 112.85 97.84 113.013 97.799 113.176C97.758 113.339 97.705 113.527 97.67 113.707C97.643 113.847 97.627 113.989 97.605 114.129C97.575 114.329 97.54 114.521 97.52 114.721L97.526 114.724ZM99.071 115.746C99.073 115.397 99.0954 115.048 99.138 114.702C99.15 114.602 99.168 114.502 99.183 114.408C99.2203 114.162 99.267 113.919 99.323 113.678C99.35 113.561 99.381 113.445 99.413 113.331C99.472 113.117 99.545 112.907 99.62 112.699C99.666 112.572 99.707 112.443 99.759 112.319C99.828 112.15 99.914 111.986 99.993 111.819C100.124 111.555 100.269 111.297 100.426 111.047C100.513 110.907 100.6 110.768 100.695 110.633C100.79 110.498 100.905 110.344 101.016 110.203C101.127 110.062 101.263 109.903 101.394 109.765C101.494 109.652 101.594 109.536 101.704 109.428C101.926 109.207 102.16 108.999 102.404 108.803C102.498 108.726 102.598 108.657 102.696 108.583C102.896 108.437 103.096 108.297 103.311 108.166C103.399 108.111 103.487 108.056 103.577 108.004C104.195 107.652 104.853 107.374 105.537 107.177C105.618 107.154 105.7 107.135 105.783 107.115C106.056 107.044 106.333 106.989 106.613 106.944C106.707 106.93 106.801 106.912 106.895 106.901C107.257 106.855 107.621 106.83 107.986 106.827C108.286 106.827 108.579 106.843 108.87 106.872C108.952 106.881 109.032 106.897 109.114 106.907C109.324 106.934 109.532 106.962 109.737 107.007C109.819 107.024 109.899 107.048 109.98 107.066C110.18 107.112 110.388 107.166 110.586 107.222C110.655 107.242 110.722 107.268 110.786 107.291C110.994 107.36 111.201 107.433 111.402 107.517C111.46 107.54 111.515 107.568 111.571 107.594C111.778 107.685 111.983 107.782 112.181 107.894C112.232 107.92 112.281 107.95 112.331 107.979C112.531 108.089 112.722 108.205 112.908 108.33C112.964 108.366 113.018 108.407 113.073 108.444C113.245 108.566 113.414 108.69 113.573 108.823C113.644 108.881 113.712 108.942 113.781 109.001C114.758 109.834 115.543 110.867 116.083 112.032C116.622 113.196 116.904 114.464 116.908 115.747C116.906 118.112 115.966 120.379 114.294 122.051C112.622 123.724 110.356 124.665 107.991 124.668C105.626 124.665 103.36 123.724 101.688 122.051C100.016 120.379 99.0764 118.112 99.074 115.747" fill="white"/>
<path d="M114.829 68.2361C112.904 68.2355 111.022 68.8057 109.421 69.8747C107.82 70.9437 106.573 72.4633 105.836 74.2415C105.098 76.0197 104.905 77.9765 105.28 79.8645C105.655 81.7525 106.582 83.4868 107.943 84.8482C109.304 86.2096 111.038 87.1369 112.925 87.5127C114.813 87.8886 116.77 87.6962 118.549 86.9599C120.327 86.2235 121.847 84.9763 122.917 83.3759C123.987 81.7756 124.558 79.894 124.558 77.9691C124.556 75.3891 123.53 72.9153 121.706 71.0906C119.882 69.2658 117.409 68.2393 114.829 68.2361ZM123.007 77.9691C123.006 79.5864 122.526 81.1671 121.627 82.5114C120.727 83.8558 119.45 84.9034 117.956 85.5217C116.461 86.1401 114.817 86.3015 113.231 85.9855C111.645 85.6695 110.188 84.8903 109.045 83.7464C107.901 82.6025 107.123 81.1453 106.808 79.5591C106.492 77.9728 106.655 76.3287 107.274 74.8346C107.893 73.3405 108.941 72.0635 110.286 71.165C111.63 70.2666 113.211 69.7871 114.829 69.7871C116.997 69.79 119.077 70.6531 120.61 72.187C122.143 73.7209 123.005 75.8003 123.007 77.9691Z" fill="white"/>
<path d="M114.71 73.4509C113.806 73.4503 112.923 73.7176 112.172 74.219C111.421 74.7203 110.835 75.4332 110.489 76.2675C110.143 77.1018 110.052 78.02 110.228 78.9059C110.404 79.7918 110.838 80.6056 111.477 81.2445C112.115 81.8834 112.929 82.3186 113.815 82.495C114.701 82.6714 115.619 82.5812 116.453 82.2356C117.288 81.8901 118.001 81.3049 118.503 80.554C119.005 79.803 119.273 78.9201 119.273 78.0169C119.272 76.8067 118.791 75.6462 117.935 74.7902C117.08 73.9342 115.92 73.4525 114.71 73.4509ZM117.723 78.0169C117.722 78.6127 117.544 79.1948 117.213 79.6898C116.881 80.1847 116.411 80.5703 115.86 80.7977C115.309 81.0252 114.704 81.0843 114.119 80.9675C113.535 80.8508 112.999 80.5636 112.578 80.142C112.157 79.7205 111.87 79.1836 111.754 78.5993C111.638 78.0149 111.698 77.4093 111.926 76.859C112.155 76.3087 112.541 75.8383 113.036 75.5074C113.532 75.1765 114.114 74.9999 114.71 74.9999C115.509 75.0015 116.275 75.32 116.84 75.8856C117.405 76.4512 117.722 77.2176 117.723 78.0169Z" fill="white"/>
<path d="M89.3411 71.0023C89.3408 70.7968 89.2591 70.5999 89.1138 70.4546C88.9685 70.3093 88.7716 70.2276 88.5661 70.2273H76.1881C75.9826 70.2276 75.7857 70.3093 75.6404 70.4546C75.4951 70.5999 75.4134 70.7968 75.4131 71.0023C75.4127 71.1044 75.4324 71.2055 75.4712 71.2999C75.51 71.3944 75.567 71.4802 75.639 71.5526C75.711 71.625 75.7965 71.6824 75.8907 71.7217C75.985 71.7609 76.086 71.7812 76.1881 71.7813H88.5661C88.6682 71.7812 88.7692 71.7609 88.8634 71.7217C88.9577 71.6824 89.0432 71.625 89.1152 71.5526C89.1872 71.4802 89.2442 71.3944 89.283 71.2999C89.3217 71.2055 89.3415 71.1044 89.3411 71.0023Z" fill="white"/>
<path d="M80.1827 74.2458C79.9821 74.2531 79.7921 74.3378 79.6528 74.4823C79.5134 74.6267 79.4355 74.8196 79.4355 75.0203C79.4355 75.2211 79.5134 75.414 79.6528 75.5584C79.7921 75.7029 79.9821 75.7876 80.1827 75.7948H88.6827C88.8833 75.7874 89.0732 75.7024 89.2123 75.5577C89.3515 75.4131 89.4292 75.2201 89.4289 75.0194C89.4286 74.8187 89.3505 74.6259 89.211 74.4816C89.0714 74.3373 88.8813 74.2528 88.6807 74.2458H80.1827Z" fill="white"/>
<path d="M91.0944 91.3503H78.7164C78.5109 91.3506 78.314 91.4323 78.1687 91.5776C78.0234 91.7229 77.9417 91.9199 77.9414 92.1253C77.9414 92.331 78.023 92.5282 78.1683 92.6737C78.3136 92.8192 78.5108 92.9011 78.7164 92.9013H91.0944C91.3001 92.9013 91.4973 92.8196 91.6428 92.6742C91.7882 92.5288 91.8699 92.3315 91.8699 92.1258C91.8699 91.9202 91.7882 91.7229 91.6428 91.5775C91.4973 91.432 91.3001 91.3503 91.0944 91.3503" fill="white"/>
<path d="M91.2037 95.3689H82.7037C82.4982 95.3692 82.3013 95.4509 82.156 95.5962C82.0107 95.7415 81.929 95.9384 81.9287 96.1439C81.929 96.3494 82.0107 96.5463 82.156 96.6916C82.3013 96.8369 82.4982 96.9186 82.7037 96.9189H91.2037C91.4093 96.9189 91.6064 96.8372 91.7517 96.6919C91.8971 96.5466 91.9787 96.3494 91.9787 96.1439C91.9787 95.9384 91.8971 95.7412 91.7517 95.5959C91.6064 95.4505 91.4093 95.3689 91.2037 95.3689" fill="white"/>
</g>
<defs>
<filter id="filter0_d" x="0" y="0" width="178" height="178" filterUnits="userSpaceOnUse" color-interpolation-filters="sRGB">
<feFlood flood-opacity="0" result="BackgroundImageFix"/>
<feColorMatrix in="SourceAlpha" type="matrix" values="0 0 0 0 0 0 0 0 0 0 0 0 0 0 0 0 0 0 127 0"/>
<feOffset dy="4"/>
<feGaussianBlur stdDeviation="2"/>
<feColorMatrix type="matrix" values="0 0 0 0 0 0 0 0 0 0 0 0 0 0 0 0 0 0 0.25 0"/>
<feBlend mode="normal" in2="BackgroundImageFix" result="effect1_dropShadow"/>
<feBlend mode="normal" in="SourceGraphic" in2="effect1_dropShadow" result="shape"/>
</filter>
</defs>
</svg>
