<svg width="260" height="260" viewBox="0 0 260 260" fill="none" xmlns="http://www.w3.org/2000/svg">
<path d="M130 0C58.203 0 0 58.203 0 130C0 201.797 58.203 260 130 260C201.797 260 260 201.797 260 130C260 58.203 201.797 0 130 0Z" fill="#6DBACC"/>
<path d="M138.154 145.25C138.226 145.338 138.317 145.409 138.419 145.458C138.522 145.507 138.634 145.533 138.748 145.534H138.754C138.866 145.534 138.977 145.51 139.079 145.462C139.181 145.415 139.272 145.346 139.344 145.26L145.991 137.404C146.058 137.327 146.108 137.237 146.139 137.139C146.171 137.042 146.182 136.94 146.173 136.838C146.165 136.737 146.137 136.638 146.09 136.548C146.044 136.457 145.98 136.377 145.902 136.312C145.825 136.245 145.735 136.195 145.638 136.164C145.541 136.132 145.439 136.121 145.337 136.13C145.235 136.138 145.137 136.167 145.046 136.213C144.956 136.26 144.875 136.325 144.81 136.403L138.762 143.55L137.28 141.737C137.15 141.578 136.962 141.478 136.758 141.458C136.554 141.438 136.35 141.499 136.191 141.629C136.113 141.693 136.048 141.772 136 141.862C135.953 141.951 135.924 142.049 135.914 142.15C135.903 142.251 135.912 142.354 135.941 142.452C135.97 142.55 136.018 142.641 136.083 142.72L138.154 145.25Z" fill="white"/>
<path d="M168.854 99.331H163.19C162.796 97.4999 162.076 95.7545 161.064 94.178L165.064 90.178C165.139 90.1036 165.198 90.0151 165.239 89.9176C165.279 89.8201 165.3 89.7156 165.3 89.61C165.299 89.3971 165.214 89.1932 165.063 89.043L161.326 85.324C161.175 85.1749 160.971 85.0912 160.759 85.0912C160.547 85.0912 160.343 85.1749 160.192 85.324L156.199 89.324C154.624 88.3212 152.886 87.5991 151.064 87.19V81.53C151.064 81.4249 151.043 81.3209 151.003 81.2239C150.963 81.1268 150.904 81.0386 150.83 80.9643C150.755 80.89 150.667 80.8311 150.57 80.7909C150.473 80.7507 150.369 80.73 150.264 80.73H148.426V69.8C148.426 69.5878 148.342 69.3843 148.192 69.2343C148.042 69.0843 147.838 69 147.626 69H100.452C100.24 69 100.036 69.0843 99.8863 69.2343C99.7363 69.3843 99.652 69.5878 99.652 69.8V75.879H91.8C91.5878 75.879 91.3843 75.9633 91.2343 76.1133C91.0843 76.2633 91 76.4668 91 76.679V142.614C91 142.826 91.0843 143.03 91.2343 143.18C91.3843 143.33 91.5878 143.414 91.8 143.414H130.9C131.537 145.598 132.865 147.517 134.684 148.884C136.503 150.251 138.716 150.992 140.991 150.997C143.781 150.993 146.456 149.882 148.429 147.909C150.401 145.935 151.51 143.259 151.512 140.469C151.512 139.088 151.24 137.72 150.71 136.445C150.18 135.169 149.404 134.011 148.426 133.036V124.804H150.263C150.475 124.804 150.679 124.72 150.829 124.57C150.979 124.42 151.063 124.216 151.063 124.004V118.336C152.888 117.937 154.628 117.217 156.201 116.208L160.196 120.208C160.27 120.283 160.359 120.342 160.456 120.382C160.553 120.423 160.658 120.444 160.763 120.444C160.868 120.444 160.973 120.423 161.07 120.382C161.167 120.342 161.256 120.283 161.33 120.208L165.06 116.485C165.135 116.411 165.194 116.322 165.234 116.225C165.275 116.128 165.296 116.023 165.296 115.918C165.296 115.813 165.275 115.708 165.234 115.611C165.194 115.514 165.135 115.425 165.06 115.351L161.06 111.342C162.065 109.766 162.784 108.025 163.186 106.199H168.85C169.062 106.199 169.266 106.115 169.416 105.965C169.566 105.815 169.65 105.611 169.65 105.399V100.132C169.65 99.9198 169.566 99.7163 169.416 99.5663C169.266 99.4163 169.062 99.332 168.85 99.332L168.854 99.331ZM161.735 105.265C161.377 107.322 160.571 109.275 159.372 110.984C159.263 111.138 159.212 111.326 159.228 111.514C159.244 111.702 159.326 111.879 159.46 112.012L163.36 115.92L160.76 118.51L156.866 114.61C156.733 114.476 156.557 114.394 156.369 114.377C156.181 114.36 155.993 114.411 155.839 114.519C154.132 115.72 152.182 116.528 150.126 116.887C149.94 116.919 149.771 117.016 149.65 117.161C149.528 117.305 149.462 117.488 149.462 117.677V123.201H145.795V117.677C145.796 117.488 145.73 117.305 145.609 117.161C145.487 117.016 145.319 116.919 145.133 116.886C143.071 116.532 141.113 115.723 139.402 114.519C139.248 114.411 139.06 114.36 138.872 114.377C138.684 114.394 138.508 114.476 138.375 114.61L134.481 118.51L131.893 115.921L135.793 112.013C135.927 111.88 136.009 111.704 136.026 111.515C136.042 111.327 135.992 111.139 135.883 110.985C134.722 109.319 133.926 107.425 133.549 105.429C133.537 105.374 133.52 105.321 133.51 105.266C133.493 105.171 133.459 105.081 133.41 104.998C133.382 104.959 133.351 104.922 133.317 104.888C133.291 104.852 133.263 104.819 133.232 104.788C133.191 104.757 133.146 104.731 133.099 104.71C133.067 104.688 133.034 104.667 132.999 104.649C132.91 104.617 132.815 104.6 132.72 104.6H127.206V100.933H132.72C132.909 100.933 133.092 100.867 133.236 100.745C133.381 100.624 133.478 100.455 133.51 100.269C133.866 98.2061 134.676 96.2479 135.881 94.536C135.989 94.3815 136.039 94.1936 136.023 94.0057C136.006 93.8178 135.923 93.6418 135.789 93.509L131.889 89.609L134.477 87.021L138.371 90.921C138.504 91.0551 138.68 91.1378 138.868 91.1544C139.057 91.1711 139.244 91.1206 139.399 91.012C141.11 89.8043 143.068 88.9927 145.132 88.636C145.318 88.6035 145.486 88.5064 145.607 88.3618C145.728 88.2173 145.794 88.0346 145.794 87.846V82.333H149.461V87.847C149.461 88.035 149.527 88.2169 149.648 88.361C149.768 88.5051 149.936 88.6021 150.121 88.635C152.178 89.0023 154.13 89.8127 155.843 91.01C155.997 91.1188 156.185 91.1694 156.373 91.1529C156.562 91.1364 156.738 91.0539 156.871 90.92L160.765 87.02L163.365 89.609L159.465 93.509C159.331 93.6421 159.249 93.8182 159.233 94.0061C159.216 94.194 159.267 94.3817 159.375 94.536C160.579 96.2478 161.387 98.2062 161.74 100.269C161.772 100.455 161.869 100.624 162.014 100.745C162.158 100.867 162.341 100.933 162.53 100.933H168.054V104.598H162.526C162.337 104.598 162.154 104.664 162.009 104.786C161.865 104.908 161.768 105.077 161.736 105.263L161.735 105.265ZM146.826 131.712C146.765 131.67 146.697 131.643 146.635 131.604C146.334 131.411 146.022 131.235 145.702 131.075C145.565 131.006 145.427 130.938 145.287 130.875C144.902 130.699 144.507 130.546 144.104 130.418C144.019 130.392 143.929 130.375 143.841 130.351C143.484 130.25 143.121 130.169 142.755 130.107C142.625 130.085 142.495 130.065 142.363 130.048C141.909 129.985 141.451 129.951 140.992 129.948C140.572 129.95 140.153 129.978 139.737 130.03C139.647 130.04 139.558 130.057 139.468 130.07C139.125 130.12 138.784 130.186 138.447 130.27C138.38 130.287 138.314 130.303 138.247 130.322C137.027 130.653 135.877 131.201 134.852 131.942C134.78 131.994 134.71 132.048 134.641 132.101C134.392 132.289 134.153 132.489 133.924 132.701C133.833 132.785 133.739 132.864 133.651 132.95C133.411 133.184 133.183 133.429 132.967 133.686C132.822 133.855 132.689 134.036 132.555 134.215C132.435 134.377 132.315 134.538 132.204 134.707C132.152 134.785 132.09 134.856 132.041 134.936H101.253V70.6H146.826V80.729H144.993C144.888 80.729 144.784 80.7497 144.687 80.7899C144.59 80.8301 144.502 80.889 144.427 80.9633C144.353 81.0376 144.294 81.1258 144.254 81.2229C144.214 81.3199 144.193 81.4239 144.193 81.529V87.184C142.363 87.5844 140.619 88.3085 139.043 89.322L135.048 85.322C134.895 85.1771 134.692 85.0963 134.481 85.0963C134.27 85.0963 134.067 85.1771 133.914 85.322L130.191 89.045C130.042 89.1963 129.959 89.3998 129.958 89.612C129.958 89.7173 129.978 89.8215 130.019 89.9188C130.059 90.0161 130.118 90.1045 130.192 90.179L134.192 94.179C133.177 95.7548 132.453 97.4997 132.054 99.331H126.4C126.188 99.331 125.984 99.4153 125.834 99.5653C125.684 99.7153 125.6 99.9188 125.6 100.131V105.399C125.6 105.611 125.684 105.815 125.834 105.965C125.984 106.115 126.188 106.199 126.4 106.199H132.055C132.461 108.025 133.184 109.765 134.19 111.342L130.19 115.351C130.115 115.425 130.056 115.514 130.016 115.611C129.975 115.708 129.954 115.813 129.954 115.918C129.954 116.023 129.975 116.128 130.016 116.225C130.056 116.322 130.115 116.411 130.19 116.485L133.912 120.208C134.065 120.353 134.268 120.434 134.479 120.434C134.69 120.434 134.893 120.353 135.046 120.208L139.041 116.208C140.618 117.218 142.362 117.939 144.192 118.336V124.003C144.192 124.215 144.276 124.419 144.426 124.569C144.576 124.719 144.78 124.803 144.992 124.803H146.826V131.712ZM130.526 139.446C130.493 139.787 130.474 140.13 130.474 140.471C130.476 140.87 130.501 141.269 130.548 141.666C130.548 141.714 130.548 141.766 130.557 141.811H92.6V77.48H99.651V135.735C99.651 135.947 99.7353 136.151 99.8853 136.301C100.035 136.451 100.239 136.535 100.451 136.535H131.226C131.157 136.71 131.103 136.891 131.042 137.07C131.003 137.184 130.96 137.296 130.925 137.411C130.876 137.572 130.84 137.735 130.799 137.898C130.758 138.061 130.705 138.249 130.67 138.429C130.643 138.569 130.627 138.711 130.605 138.851C130.575 139.051 130.54 139.243 130.52 139.443L130.526 139.446ZM132.071 140.468C132.073 140.119 132.095 139.77 132.138 139.424C132.15 139.324 132.168 139.224 132.183 139.13C132.22 138.884 132.267 138.641 132.323 138.4C132.35 138.283 132.381 138.167 132.413 138.053C132.472 137.839 132.545 137.629 132.62 137.421C132.666 137.294 132.707 137.165 132.759 137.041C132.828 136.872 132.914 136.708 132.993 136.541C133.124 136.276 133.269 136.019 133.426 135.769C133.513 135.629 133.6 135.49 133.695 135.355C133.79 135.22 133.905 135.066 134.016 134.925C134.127 134.784 134.263 134.625 134.394 134.487C134.494 134.374 134.594 134.258 134.704 134.15C134.926 133.929 135.16 133.721 135.404 133.525C135.498 133.448 135.598 133.379 135.696 133.305C135.896 133.159 136.096 133.019 136.311 132.888C136.399 132.833 136.487 132.778 136.577 132.726C137.195 132.373 137.853 132.096 138.537 131.899C138.618 131.876 138.7 131.857 138.783 131.837C139.056 131.766 139.333 131.711 139.613 131.666C139.707 131.652 139.801 131.634 139.895 131.623C140.257 131.576 140.621 131.552 140.986 131.549C141.286 131.549 141.579 131.565 141.87 131.594C141.952 131.603 142.032 131.619 142.114 131.629C142.324 131.656 142.532 131.684 142.737 131.729C142.819 131.746 142.899 131.77 142.98 131.788C143.18 131.834 143.388 131.888 143.586 131.944C143.655 131.964 143.722 131.99 143.786 132.013C143.994 132.082 144.201 132.155 144.402 132.239C144.46 132.262 144.515 132.29 144.571 132.316C144.778 132.407 144.983 132.504 145.181 132.616C145.232 132.642 145.281 132.672 145.331 132.701C145.531 132.811 145.722 132.927 145.908 133.052C145.964 133.088 146.018 133.129 146.073 133.166C146.245 133.288 146.414 133.412 146.573 133.545C146.644 133.603 146.712 133.664 146.781 133.723C147.758 134.555 148.543 135.589 149.083 136.754C149.622 137.918 149.904 139.186 149.908 140.469C149.906 142.834 148.966 145.101 147.294 146.773C145.622 148.445 143.356 149.387 140.991 149.39C138.626 149.387 136.36 148.445 134.688 146.773C133.016 145.101 132.076 142.834 132.074 140.469" fill="white"/>
<path d="M147.829 92.958C145.904 92.9574 144.022 93.5277 142.421 94.5966C140.82 95.6656 139.573 97.1852 138.836 98.9634C138.098 100.742 137.905 102.698 138.28 104.586C138.655 106.474 139.582 108.209 140.943 109.57C142.304 110.932 144.038 111.859 145.925 112.235C147.813 112.611 149.77 112.418 151.549 111.682C153.327 110.945 154.847 109.698 155.917 108.098C156.987 106.498 157.558 104.616 157.558 102.691C157.556 100.111 156.53 97.6372 154.706 95.8125C152.882 93.9878 150.409 92.9612 147.829 92.958V92.958ZM156.007 102.691C156.006 104.308 155.526 105.889 154.627 107.233C153.727 108.578 152.45 109.625 150.956 110.244C149.461 110.862 147.817 111.023 146.231 110.707C144.645 110.391 143.188 109.612 142.045 108.468C140.901 107.324 140.123 105.867 139.808 104.281C139.492 102.695 139.655 101.051 140.274 99.5565C140.893 98.0624 141.941 96.7854 143.286 95.887C144.63 94.9885 146.211 94.509 147.829 94.509C149.997 94.5119 152.077 95.375 153.61 96.9089C155.143 98.4428 156.005 100.522 156.007 102.691" fill="white"/>
<path d="M147.71 98.1729C146.806 98.1723 145.923 98.4395 145.172 98.9409C144.421 99.4423 143.835 100.155 143.489 100.989C143.143 101.824 143.052 102.742 143.228 103.628C143.404 104.514 143.838 105.328 144.477 105.966C145.115 106.605 145.929 107.04 146.815 107.217C147.701 107.393 148.619 107.303 149.453 106.958C150.288 106.612 151.001 106.027 151.503 105.276C152.005 104.525 152.273 103.642 152.273 102.739C152.272 101.529 151.791 100.368 150.935 99.5121C150.08 98.6561 148.92 98.1744 147.71 98.1729V98.1729ZM150.723 102.739C150.722 103.335 150.544 103.917 150.213 104.412C149.881 104.907 149.411 105.292 148.86 105.52C148.309 105.747 147.704 105.806 147.119 105.689C146.535 105.573 145.999 105.285 145.578 104.864C145.157 104.442 144.87 103.906 144.754 103.321C144.638 102.737 144.698 102.131 144.926 101.581C145.155 101.031 145.541 100.56 146.036 100.229C146.532 99.8985 147.114 99.7219 147.71 99.7219C148.509 99.7234 149.275 100.042 149.84 100.608C150.405 101.173 150.722 101.94 150.723 102.739" fill="white"/>
<path d="M122.341 95.7242C122.341 95.5188 122.259 95.3218 122.114 95.1765C121.969 95.0312 121.772 94.9495 121.566 94.9492H109.188C108.983 94.9495 108.786 95.0312 108.64 95.1765C108.495 95.3218 108.413 95.5188 108.413 95.7242C108.413 95.8263 108.432 95.9274 108.471 96.0219C108.51 96.1163 108.567 96.2022 108.639 96.2745C108.711 96.3469 108.797 96.4043 108.891 96.4436C108.985 96.4828 109.086 96.5031 109.188 96.5032H121.566C121.668 96.5031 121.769 96.4828 121.863 96.4436C121.958 96.4043 122.043 96.3469 122.115 96.2745C122.187 96.2022 122.244 96.1163 122.283 96.0219C122.322 95.9274 122.341 95.8263 122.341 95.7242" fill="white"/>
<path d="M113.183 98.9678C112.982 98.975 112.792 99.0597 112.653 99.2042C112.513 99.3487 112.436 99.5416 112.436 99.7423C112.436 99.943 112.513 100.136 112.653 100.28C112.792 100.425 112.982 100.51 113.183 100.517H121.683C121.883 100.509 122.073 100.424 122.212 100.28C122.352 100.135 122.429 99.942 122.429 99.7413C122.429 99.5406 122.351 99.3478 122.211 99.2035C122.071 99.0592 121.881 98.9747 121.681 98.9678H113.183Z" fill="white"/>
<path d="M124.094 116.072H111.716C111.511 116.073 111.314 116.154 111.169 116.3C111.023 116.445 110.942 116.642 110.941 116.847C110.941 117.053 111.023 117.25 111.168 117.396C111.314 117.541 111.511 117.623 111.716 117.623H124.094C124.3 117.623 124.497 117.542 124.643 117.396C124.788 117.251 124.87 117.053 124.87 116.848C124.87 116.642 124.788 116.445 124.643 116.299C124.497 116.154 124.3 116.072 124.094 116.072" fill="white"/>
<path d="M124.204 120.091H115.704C115.498 120.091 115.301 120.173 115.156 120.318C115.011 120.463 114.929 120.66 114.929 120.866C114.929 121.071 115.011 121.268 115.156 121.414C115.301 121.559 115.498 121.641 115.704 121.641H124.204C124.409 121.641 124.606 121.559 124.752 121.414C124.897 121.268 124.979 121.071 124.979 120.866C124.979 120.66 124.897 120.463 124.752 120.318C124.606 120.172 124.409 120.091 124.204 120.091" fill="white"/>
<path d="M70.072 45.464C70.468 46.168 70.93 47.048 71.458 48.104L72.8 46.08C71.876 44.87 70.974 43.77 70.072 42.78V41.79H72.228V39.678H70.072V35.938H67.938V39.678H65.474V41.79H67.784C67.146 44.21 66.134 46.41 64.748 48.346L65.738 50.876C66.596 49.38 67.322 47.752 67.938 45.992V56.244H70.072V45.464ZM72.91 39.656V45.134H84.482V39.656H81.336V38.49H84.79V36.554H72.426V38.49H76.078V39.656H72.91ZM79.444 38.49V39.656H77.97V38.49H79.444ZM82.502 43.418H81.138V41.372H82.502V43.418ZM79.422 43.418H77.992V41.372H79.422V43.418ZM76.276 43.418H74.89V41.372H76.276V43.418ZM77.618 56.222C78.938 56.222 79.62 55.54 79.62 54.176V50.854H84.834V48.918H72.558V50.854H77.508V53.67C77.508 54.088 77.288 54.308 76.892 54.308C76.386 54.308 75.858 54.264 75.33 54.198L75.792 56.222H77.618ZM73.57 46.058V47.994H83.954V46.058H73.57ZM74.604 51.294C73.702 52.504 72.58 53.56 71.26 54.484L72.58 56.178C73.944 55.144 75.088 53.934 76.034 52.526L74.604 51.294ZM82.172 51.316L80.83 52.636C82.106 53.868 83.096 55.012 83.8 56.068L85.318 54.572C84.46 53.494 83.404 52.416 82.172 51.316ZM87.144 50.216V52.35H95.834V56.288H98.122V52.35H106.856V50.216H98.122V48.676H95.834V50.216H87.144ZM94.162 42.384V48.324H106.592V46.432H101.972V45.332H105.888V43.572H101.972V42.56H105.866V40.8H101.972V39.81H106.328V37.918H101.884C101.686 37.17 101.488 36.488 101.268 35.872L99.002 36.268C99.222 36.752 99.442 37.302 99.662 37.918H97.066C97.286 37.412 97.484 36.906 97.66 36.378L95.526 35.938C94.844 38.072 93.656 40.03 91.962 41.834L92.644 43.99C93.172 43.462 93.678 42.934 94.162 42.384ZM99.816 39.81V40.8H96.23V39.81H99.816ZM99.816 42.56V43.572H96.23V42.56H99.816ZM99.816 45.332V46.432H96.23V45.332H99.816ZM89.344 35.916L88.222 37.588C89.454 38.116 90.686 38.864 91.874 39.81L92.996 38.072C91.896 37.236 90.664 36.51 89.344 35.916ZM87.914 39.546L86.748 41.262C87.936 41.724 89.08 42.362 90.202 43.176L91.324 41.438C90.29 40.69 89.146 40.074 87.914 39.546ZM91.61 43.616C90.4 45.024 88.882 46.3 87.078 47.488L88.618 49.314C90.312 48.016 91.742 46.63 92.886 45.134L91.61 43.616ZM109.078 36.598V38.71H109.848V51.272L108.682 51.448L109.254 53.736C110.706 53.428 112.092 53.076 113.456 52.724V56.068H115.612V52.086C115.876 51.998 116.14 51.932 116.426 51.844V49.622L115.612 49.886V38.71H116.228V36.598H109.078ZM112.004 50.854V47.84H113.456V50.502C112.972 50.634 112.488 50.744 112.004 50.854ZM112.004 45.772V43.33H113.456V45.772H112.004ZM112.004 41.262V38.71H113.456V41.262H112.004ZM122.696 45.156H116.954V54.638H118.868V53.538H122.3C121.948 53.934 121.574 54.33 121.178 54.704L122.718 56.046C123.488 55.276 124.236 54.396 124.94 53.428C125.116 53.978 125.336 54.484 125.6 54.924C126.062 55.672 126.568 56.046 127.118 56.046C128.13 56.046 128.834 54.704 129.208 52.042L127.536 50.854C127.382 52.526 127.206 53.384 126.986 53.428C126.722 53.296 126.502 52.592 126.304 51.316C127.25 49.6 128.086 47.664 128.834 45.464L127.008 44.716C126.7 45.728 126.348 46.696 125.952 47.642C125.908 46.652 125.864 45.464 125.82 44.1H128.856V42.12H125.798C125.754 40.338 125.754 38.314 125.754 36.026H123.774C123.774 38.27 123.774 40.294 123.818 42.12H122.322C122.52 41.504 122.696 40.844 122.828 40.14L120.914 39.898C120.804 40.646 120.65 41.394 120.43 42.12H119.55C119.374 41.306 119.198 40.58 119.022 39.942L117.086 40.228C117.306 40.822 117.482 41.46 117.658 42.12H116.272V44.1H123.862C123.95 47.202 124.082 49.446 124.302 50.81C123.818 51.602 123.268 52.35 122.696 53.054V45.156ZM118.868 51.778V50.128H120.782V51.778H118.868ZM118.868 48.434V46.916H120.782V48.434H118.868ZM127.624 37.038L125.996 37.566C126.458 38.754 126.832 40.008 127.14 41.328L128.768 40.91C128.438 39.458 128.064 38.16 127.624 37.038ZM120.54 36.07L118.362 36.422C118.516 36.818 118.67 37.236 118.824 37.72H116.602V39.524H123.158V37.72H120.936C120.804 37.104 120.672 36.554 120.54 36.07ZM131.408 48.72V50.612H134.752C134.202 52.46 132.904 53.868 130.858 54.836L132.552 56.332C134.224 55.408 135.456 54.198 136.226 52.68C137.524 53.736 138.58 54.726 139.372 55.694L140.89 54.154C139.79 53.12 138.448 52.064 136.864 50.986L136.952 50.612H140.824V48.72H139.35L140.472 47.95C140.12 47.4 139.614 46.762 138.954 46.058L137.524 46.96C138.096 47.598 138.536 48.192 138.888 48.72H137.194V46.41H135.06V48.478C135.06 48.544 135.038 48.632 135.038 48.72H131.408ZM141.836 40.008V52.042H143.926C143.09 53.098 142.056 54.022 140.824 54.814L142.1 56.442C143.464 55.496 144.608 54.396 145.554 53.142L144.278 52.042H147.842L146.61 53.23C147.974 54.308 149.03 55.32 149.756 56.288L151.252 54.814C150.416 53.89 149.382 52.966 148.194 52.042H150.35V40.008H147.028C147.072 39.546 147.094 39.062 147.138 38.578H150.944V36.554H141.044V38.578H144.894L144.762 40.008H141.836ZM148.194 50.018H143.992V48.5H148.194V50.018ZM143.992 46.652V45.266H148.194V46.652H143.992ZM143.992 43.418V41.944H148.194V43.418H143.992ZM131.276 40.03V41.922H134.4C133.344 43.176 132.156 44.188 130.814 44.958L132.09 46.498C133.234 45.684 134.268 44.694 135.192 43.55V45.882H137.304V43.638C138.25 44.166 139.196 44.826 140.164 45.596L141.22 43.968C140.032 43.22 138.734 42.582 137.304 42.01V41.922H140.736V40.03H137.304V36.048H135.192V40.03H131.276ZM139.13 36.422C138.756 37.302 138.316 38.05 137.788 38.688L139.24 39.722C139.812 39.018 140.296 38.182 140.714 37.214L139.13 36.422ZM133.432 36.62L131.716 37.214C132.156 37.94 132.596 38.798 132.992 39.788L134.62 39.062C134.268 38.182 133.872 37.368 133.432 36.62ZM155.19 35.894C155.014 37.258 154.838 38.6 154.64 39.898H152.924V42.076H154.288C153.914 44.21 153.496 46.212 153.012 48.06C154.068 48.984 155.058 49.842 155.96 50.678C155.124 52.174 154.046 53.45 152.748 54.528L154.222 56.354C155.542 55.188 156.642 53.824 157.566 52.24C158.116 52.812 158.622 53.34 159.062 53.868L160.602 52.064C160.052 51.47 159.392 50.81 158.6 50.106C159.634 47.554 160.206 44.584 160.338 41.152V39.898H156.906C157.06 38.732 157.236 37.478 157.412 36.114L155.19 35.894ZM156.906 48.632C156.444 48.236 155.938 47.84 155.41 47.4C155.806 45.97 156.18 44.188 156.554 42.076H158.226C158.094 44.518 157.654 46.696 156.906 48.632ZM168.72 44.452H164.584V43.066H168.72V44.452ZM164.584 41.174V39.788H168.72V41.174H164.584ZM164.584 37.764V35.982H162.406V37.764H160.58V39.788H162.406V46.388H165.53V47.884H160.228V49.952H163.77C162.846 51.294 161.526 52.416 159.81 53.34L161.086 55.408C163.088 53.978 164.562 52.152 165.508 49.952H165.53V56.178H167.818V49.952H167.994C168.786 51.954 170.062 53.78 171.822 55.43L173.406 53.45C171.734 52.416 170.502 51.25 169.688 49.952H173.142V47.884H167.818V46.388H170.898V39.788H172.658V37.764H170.898V35.982H168.72V37.764H164.584ZM184.164 35.872C181.612 38.776 178.422 41.218 174.572 43.176L175.804 45.42C176.992 44.76 178.114 44.056 179.17 43.33V44.87H190.83V43.352C191.842 44.078 192.942 44.76 194.108 45.376L195.362 43.154C191.754 41.394 188.586 38.952 185.836 35.872H184.164ZM180.116 42.648C181.986 41.24 183.614 39.678 185 37.962C186.43 39.7 188.058 41.262 189.862 42.648H180.116ZM192.26 47.026H177.74V56.266H179.962V55.144H190.038V56.266H192.26V47.026ZM179.962 52.966V49.182H190.038V52.966H179.962Z" fill="white"/>
<path d="M60.224 167.992L59.088 169.064C60.24 169.992 61.136 170.872 61.76 171.672L62.928 170.52C62.192 169.688 61.28 168.84 60.224 167.992ZM69.344 182.44H73.024L73.408 180.84C72.96 180.872 72.336 180.904 71.536 180.92C70.72 180.936 69.92 180.952 69.12 180.952C67.872 180.952 66.784 180.936 65.856 180.92C64.912 180.888 64.208 180.76 63.744 180.52C63.36 180.296 62.992 179.96 62.624 179.512C62.56 179.448 62.512 179.384 62.448 179.336V173.24H58.784V174.776H60.896V179.16C60.256 179.512 59.552 180.328 58.752 181.608L59.984 182.76C60.784 181.32 61.328 180.6 61.648 180.6C61.824 180.6 62.016 180.728 62.24 181.016C62.72 181.56 63.28 181.928 63.92 182.12C64.592 182.296 65.44 182.392 66.48 182.408C67.504 182.424 68.464 182.44 69.344 182.44ZM68.896 171.912C69.856 173.128 71.104 174.088 72.64 174.808L73.36 173.448C72.144 173 71.152 172.488 70.4 171.912H72.56V170.472H68.848V169.688C70 169.576 71.024 169.416 71.936 169.208L71.2 167.944C69.184 168.36 66.736 168.584 63.856 168.584L64.304 169.88C65.328 169.88 66.32 169.848 67.248 169.8V170.472H63.536V171.912H65.68C65.008 172.536 64.064 173.08 62.832 173.528L63.648 174.888C65.248 174.088 66.416 173.096 67.184 171.912H67.248V173.992H68.848V171.912H68.896ZM64.576 174.44V175.912H65.808C65.552 177.32 64.656 178.312 63.12 178.92L64 180.328C65.968 179.4 67.088 177.928 67.344 175.912H69.104C68.96 176.488 68.784 177.032 68.592 177.544H70.928C70.816 178.28 70.656 178.712 70.464 178.84C70.224 179 69.872 179.08 69.424 179.08C69.072 179.08 68.56 179.016 67.872 178.92L68.352 180.424C69.152 180.424 69.808 180.408 70.336 180.408C70.944 180.376 71.424 180.184 71.744 179.848C72.064 179.496 72.304 178.568 72.464 177.048V176.248H70.464C70.576 175.928 70.688 175.56 70.784 175.176V174.44H64.576ZM76.128 167.992L75.008 169.064C76.096 169.992 76.944 170.872 77.552 171.672L78.704 170.52C78 169.688 77.136 168.84 76.128 167.992ZM85.344 182.424H89.024L89.424 180.824C88.976 180.856 88.352 180.888 87.536 180.904C86.704 180.904 85.904 180.92 85.104 180.92C83.824 180.92 82.704 180.904 81.744 180.888C80.784 180.856 80.064 180.728 79.584 180.504C79.184 180.296 78.8 179.976 78.416 179.56C78.352 179.496 78.288 179.448 78.224 179.384V173.24H74.704V174.776H76.656V179.272C76.048 179.64 75.392 180.424 74.688 181.608L75.904 182.76C76.64 181.368 77.136 180.68 77.408 180.68C77.6 180.68 77.808 180.808 78.032 181.064C78.512 181.576 79.072 181.944 79.744 182.136C80.448 182.296 81.328 182.376 82.4 182.392C83.456 182.408 84.448 182.424 85.344 182.424ZM87.856 168.248H80.4V172.952H79.344V180.152H80.944V174.392H87.376V178.568C87.376 178.856 87.2 179.016 86.864 179.016L85.6 178.952L85.952 180.328H87.312C88.416 180.328 88.976 179.848 88.976 178.92V172.952H87.856V168.248ZM81.968 172.952V171.848H83.52V172.952H81.968ZM81.968 170.568V169.672H86.304V172.952H84.928V170.568H81.968ZM81.856 175.08V178.68H86.384V175.08H81.856ZM85.008 177.416H83.248V176.264H85.008V177.416ZM92.128 167.992L91.008 169.064C92.096 169.992 92.944 170.872 93.552 171.672L94.704 170.52C94 169.688 93.136 168.84 92.128 167.992ZM101.344 182.424H105.024L105.408 180.824C104.976 180.856 104.352 180.888 103.536 180.904C102.704 180.904 101.904 180.92 101.104 180.92C99.856 180.92 98.784 180.904 97.856 180.888C96.912 180.856 96.208 180.728 95.728 180.504C95.36 180.296 94.992 179.976 94.624 179.56L94.464 179.4V173.24H90.784V174.776H92.88V179.256C92.24 179.608 91.536 180.392 90.768 181.608L91.984 182.76C92.784 181.368 93.328 180.68 93.648 180.68C93.824 180.68 94.016 180.808 94.24 181.064C94.72 181.576 95.28 181.944 95.92 182.136C96.592 182.296 97.44 182.376 98.48 182.392C99.504 182.408 100.464 182.424 101.344 182.424ZM99.536 173V173.8H97.632V175.112H99.536V175.928H97.856V179.384H101.312L101.584 180.424H103.408C104.368 180.424 104.864 179.928 104.864 178.968V171.592H102.912C103.168 171.272 103.392 170.904 103.616 170.52L103.024 170.312H105.184V168.856H101.088C100.944 168.472 100.8 168.12 100.672 167.8L98.96 168.088C99.088 168.312 99.232 168.568 99.376 168.856H95.216V170.312H97.776L96.944 170.616C97.216 170.92 97.456 171.24 97.664 171.592H95.632V180.328H97.088V173H99.536ZM101.888 170.312C101.696 170.744 101.472 171.176 101.216 171.592H99.264C99.056 171.112 98.832 170.696 98.592 170.312H101.888ZM102.592 179.064V175.928H100.944V175.112H102.832V173.8H100.944V173H103.392V178.648C103.392 178.936 103.248 179.08 102.96 179.08L102.592 179.064ZM101.296 178.184H99.152V177.128H101.296V178.184ZM107.008 171.016C106.96 172.52 106.768 173.944 106.448 175.288L107.792 175.672C108.08 174.232 108.256 172.712 108.288 171.112L107.008 171.016ZM111.488 170.616L110.336 170.984V167.896H108.656V182.616H110.336V171.144C110.64 171.992 110.896 172.888 111.12 173.832L111.744 173.672C111.648 173.864 111.552 174.056 111.456 174.264L112.704 175.368C113.216 174.44 113.616 173.432 113.904 172.344H115.952V175.752H112.416V177.384H115.952V180.632H111.568V182.248H121.376V180.632H117.648V177.384H120.8V175.752H117.648V172.344H120.944V170.728H117.648V167.928H115.952V170.728H114.224C114.288 170.216 114.32 169.704 114.352 169.16L112.832 168.952C112.768 170.232 112.544 171.432 112.176 172.584C111.968 171.88 111.744 171.224 111.488 170.616ZM123.936 168.12L122.832 169.176C123.792 169.976 124.544 170.712 125.056 171.4L126.192 170.264C125.584 169.56 124.832 168.84 123.936 168.12ZM123.712 172.072L122.608 173.128C123.52 173.928 124.224 174.664 124.736 175.368L125.856 174.248C125.28 173.512 124.56 172.792 123.712 172.072ZM124.592 176.44C124.08 178.264 123.472 180.056 122.768 181.816L124.24 182.456C124.88 180.76 125.472 178.936 126 177L124.592 176.44ZM126.416 168.328V178.488H131.792V168.328H126.416ZM130.176 176.984H128.048V175.432H130.176V176.984ZM128.048 173.976V172.552H130.176V173.976H128.048ZM128.048 171.096V169.832H130.176V171.096H128.048ZM130.64 178.728L129.424 179.496C130.128 180.584 130.672 181.56 131.088 182.44L132.384 181.544C131.968 180.744 131.392 179.8 130.64 178.728ZM127.328 178.808C126.88 179.832 126.288 180.872 125.536 181.928L126.944 182.664C127.664 181.624 128.256 180.552 128.704 179.464L127.328 178.808ZM132.848 169.256V179.096H134.4V169.256H132.848ZM135.504 182.504C136.544 182.504 137.072 181.912 137.072 180.76V167.912H135.488V180.328C135.488 180.776 135.296 181 134.928 181C134.448 181 133.952 180.968 133.424 180.904L133.792 182.504H135.504ZM138.752 169.72V171.224H144.576V169.72H142.592C142.432 169.144 142.224 168.52 141.952 167.816L140.352 168.248C140.592 168.728 140.8 169.224 140.992 169.72H138.752ZM139.376 174.328V175.8H143.92V174.328H139.376ZM144.24 176.744H139.104V182.648H140.64V181.736H142.704V182.408H144.24V176.744ZM140.64 180.264V178.216H142.704V180.264H140.64ZM144.976 168.456V170.024H148.176V175.576H144.512V177.16H148.176V182.68H149.792V177.16H153.44V175.576H149.792V170.024H152.976V168.456H144.976ZM146.48 170.616L145.04 171.096C145.52 172.344 145.904 173.64 146.224 175L147.648 174.648C147.296 173.128 146.912 171.784 146.48 170.616ZM151.44 170.568C151.104 172.136 150.72 173.448 150.272 174.472L151.648 174.968C152.144 173.816 152.56 172.488 152.896 170.968L151.44 170.568ZM139.376 172.104V173.56H143.92V172.104H139.376ZM155.136 178.52C155.072 179.8 154.896 180.952 154.608 181.944L156.08 182.408C156.368 181.336 156.544 180.104 156.624 178.712L155.136 178.52ZM158.32 178.248L156.96 178.552C157.136 179.512 157.296 180.632 157.424 181.88L158.976 181.512C158.784 180.328 158.56 179.24 158.32 178.248ZM159.92 174.152L158.64 174.568C158.768 174.968 158.896 175.368 159.008 175.784C158.368 175.944 157.712 176.088 157.056 176.216C157.952 175.128 159.072 173.464 160.384 171.192V171.352H164.08V173.256H160.816V174.856H169.008V173.256H165.728V171.352H169.36V169.752H165.728V167.88H164.08V169.752H160.384V170.92L158.976 170.392C158.624 171.064 158.272 171.688 157.952 172.264C157.488 172.344 157.008 172.408 156.528 172.472C157.28 171.384 158.016 170.008 158.736 168.36L157.136 167.736C156.624 169.272 156.016 170.696 155.312 171.976C155.104 172.264 154.88 172.472 154.624 172.584L155.024 174.104C155.728 173.992 156.416 173.88 157.056 173.784C156.416 174.824 155.872 175.56 155.424 175.992C155.216 176.184 154.96 176.328 154.672 176.456L155.104 177.96C156.432 177.8 157.84 177.496 159.328 177.048L159.456 177.672L160.832 177.32C160.56 176.136 160.256 175.08 159.92 174.152ZM160.144 177.832L158.896 178.248C159.216 179.08 159.504 180.024 159.776 181.096L161.136 180.472C160.848 179.528 160.528 178.648 160.144 177.832ZM168.56 176.024H161.328V182.664H162.96V182.072H166.944V182.664H168.56V176.024ZM162.96 180.504V177.576H166.944V180.504H162.96ZM172.384 168.36V174.936H177.152V176.008H170.864V177.56H175.824C174.672 178.856 172.912 179.944 170.544 180.808L171.504 182.36C174.064 181.112 175.952 179.56 177.152 177.688V182.632H178.848V177.688C179.968 179.384 181.792 180.952 184.352 182.36L185.504 180.904C183.056 179.912 181.28 178.792 180.16 177.56H185.136V176.008H178.848V174.936H183.584V168.36H172.384ZM181.92 173.512H178.848V172.408H181.92V173.512ZM177.152 173.512H174.048V172.408H177.152V173.512ZM174.048 170.968V169.832H177.152V170.968H174.048ZM178.848 169.832H181.92V170.968H178.848V169.832ZM189.104 178.584C188.704 178.584 188.384 178.696 188.144 178.936C187.888 179.16 187.76 179.464 187.76 179.848C187.76 180.2 187.872 180.504 188.112 180.744C188.352 180.984 188.64 181.112 188.992 181.112C189.168 181.112 189.296 181.08 189.392 181.048C189.392 181.432 189.264 181.8 188.976 182.184C188.672 182.536 188.304 182.792 187.872 182.952V184.008C188.704 183.768 189.376 183.336 189.872 182.712C190.352 182.072 190.608 181.336 190.608 180.488C190.608 179.928 190.464 179.464 190.192 179.112C189.904 178.76 189.536 178.584 189.104 178.584ZM44.32 189.832C44.192 190.824 44.064 191.8 43.92 192.744H42.672V194.328H43.664C43.392 195.88 43.088 197.336 42.736 198.68C43.504 199.352 44.224 199.976 44.88 200.584C44.272 201.672 43.488 202.6 42.544 203.384L43.616 204.712C44.576 203.864 45.376 202.872 46.048 201.72C46.448 202.136 46.816 202.52 47.136 202.904L48.256 201.592C47.856 201.16 47.376 200.68 46.8 200.168C47.552 198.312 47.968 196.152 48.064 193.656V192.744H45.568C45.68 191.896 45.808 190.984 45.936 189.992L44.32 189.832ZM45.568 199.096C45.232 198.808 44.864 198.52 44.48 198.2C44.768 197.16 45.04 195.864 45.312 194.328H46.528C46.432 196.104 46.112 197.688 45.568 199.096ZM54.16 196.056H51.152V195.048H54.16V196.056ZM51.152 193.672V192.664H54.16V193.672H51.152ZM51.152 191.192V189.896H49.568V191.192H48.24V192.664H49.568V197.464H51.84V198.552H47.984V200.056H50.56C49.888 201.032 48.928 201.848 47.68 202.52L48.608 204.024C50.064 202.984 51.136 201.656 51.824 200.056H51.84V204.584H53.504V200.056H53.632C54.208 201.512 55.136 202.84 56.416 204.04L57.568 202.6C56.352 201.848 55.456 201 54.864 200.056H57.376V198.552H53.504V197.464H55.744V192.664H57.024V191.192H55.744V189.896H54.16V191.192H51.152ZM65.392 189.816C63.536 191.928 61.216 193.704 58.416 195.128L59.312 196.76C60.176 196.28 60.992 195.768 61.76 195.24V196.36H70.24V195.256C70.976 195.784 71.776 196.28 72.624 196.728L73.536 195.112C70.912 193.832 68.608 192.056 66.608 189.816H65.392ZM62.448 194.744C63.808 193.72 64.992 192.584 66 191.336C67.04 192.6 68.224 193.736 69.536 194.744H62.448ZM71.28 197.928H60.72V204.648H62.336V203.832H69.664V204.648H71.28V197.928ZM62.336 202.248V199.496H69.664V202.248H62.336ZM88.8 190.392H75.2V204.696H76.864V204.12H87.136V204.696H88.8V190.392ZM76.864 202.584V191.928H87.136V202.584H76.864ZM77.408 193.272V194.76H82.24C82.304 196.136 82.432 197.272 82.624 198.168C82.736 198.712 82.864 199.208 83.024 199.656C82.56 200.296 82.032 200.824 81.44 201.224L82.256 202.456C82.768 202.104 83.232 201.656 83.68 201.128C83.712 201.16 83.744 201.208 83.776 201.272C84.24 201.944 84.72 202.28 85.216 202.28C85.904 202.28 86.48 201.368 86.944 199.576L85.744 198.904C85.488 200.136 85.248 200.76 85.056 200.76C84.88 200.76 84.688 200.488 84.496 199.976C85.168 198.856 85.728 197.448 86.208 195.784L84.976 195.128C84.688 196.168 84.368 197.096 84.016 197.912L83.92 197.336C83.824 196.664 83.744 195.816 83.712 194.76H86.72V193.272H85.968C85.84 192.84 85.712 192.456 85.584 192.104L84.288 192.312C84.432 192.6 84.576 192.92 84.72 193.272H83.68C83.664 192.92 83.664 192.536 83.664 192.152H82.176C82.176 192.536 82.176 192.904 82.192 193.272H77.408ZM77.76 195.528V199.016H81.728V195.528H77.76ZM80.368 197.848H79.12V196.696H80.368V197.848ZM81.792 199.528C80.528 199.784 79.056 199.976 77.376 200.136L77.584 201.544C79.152 201.352 80.56 201.112 81.792 200.824V199.528ZM91.088 190.36V204.68H92.688V191.928H94.08C93.76 193.096 93.328 194.408 92.752 195.88C93.6 197.176 94.032 198.36 94.032 199.416C94.032 199.656 94 199.832 93.952 199.944C93.888 200.04 93.76 200.104 93.6 200.136C93.376 200.136 93.072 200.104 92.72 200.04L93.248 201.688C94.208 201.672 94.896 201.464 95.296 201.048C95.552 200.728 95.68 200.184 95.68 199.416C95.616 198.344 95.2 197.08 94.4 195.624C94.912 194.248 95.344 192.936 95.728 191.672V190.36H91.088ZM98.096 196.808V197.336H103.088V196.552C103.504 197.032 103.984 197.48 104.528 197.896L105.472 196.632C104.704 196.056 104.048 195.384 103.536 194.616C104.224 193.816 104.688 192.824 104.912 191.656V190.696H102.048C102 190.472 101.968 190.248 101.952 190.008L100.64 190.408C100.864 192.568 101.52 194.392 102.576 195.896H98.912C99.872 194.616 100.4 193.032 100.496 191.144V190.584H98.672C98.72 190.376 98.768 190.168 98.832 189.944L97.328 189.752C96.976 191.464 96.304 192.92 95.312 194.104L96.208 195.272C96.304 195.144 96.432 195.016 96.56 194.856C96.784 195.048 97.024 195.256 97.28 195.512C96.784 195.992 96.192 196.408 95.488 196.792L96.48 198.04C97.072 197.672 97.616 197.256 98.096 196.808ZM97.168 194.024C97.312 193.8 97.456 193.576 97.584 193.336C97.856 193.496 98.144 193.704 98.432 193.928C98.304 194.184 98.144 194.424 97.984 194.68C97.728 194.456 97.456 194.232 97.168 194.024ZM98.048 192.392C98.112 192.232 98.192 192.072 98.256 191.896H99.008C98.976 192.216 98.912 192.52 98.832 192.84C98.576 192.68 98.32 192.536 98.048 192.392ZM96.016 198.472V199.976H99.792V202.648C99.792 203 99.648 203.176 99.392 203.176C98.992 203.176 98.576 203.144 98.128 203.08L98.464 204.584H99.936C100.896 204.584 101.392 204.072 101.392 203.048V199.976H104.864V198.472H96.016ZM97.344 200.472C96.8 201.656 96.144 202.664 95.376 203.512L96.656 204.408C97.408 203.48 98.08 202.376 98.656 201.112L97.344 200.472ZM103.248 200.456L102.064 201.208C102.864 202.376 103.52 203.432 104 204.392L105.264 203.528C104.8 202.664 104.128 201.64 103.248 200.456ZM102.336 192.008H103.408C103.28 192.456 103.072 192.888 102.816 193.32C102.624 192.904 102.464 192.472 102.336 192.008ZM110.416 196.792C110.704 197.304 111.04 197.944 111.424 198.712L112.4 197.24C111.728 196.36 111.072 195.56 110.416 194.84V194.12H111.984V192.584H110.416V189.864H108.864V192.584H107.072V194.12H108.752C108.288 195.88 107.552 197.48 106.544 198.888L107.264 200.728C107.888 199.64 108.416 198.456 108.864 197.176V204.632H110.416V196.792ZM112.48 192.568V196.552H120.896V192.568H118.608V191.72H121.12V190.312H112.128V191.72H114.784V192.568H112.48ZM117.232 191.72V192.568H116.16V191.72H117.232ZM119.456 195.304H118.464V193.816H119.456V195.304ZM117.216 195.304H116.176V193.816H117.216V195.304ZM114.928 195.304H113.92V193.816H114.928V195.304ZM115.904 204.616C116.864 204.616 117.36 204.12 117.36 203.128V200.712H121.152V199.304H112.224V200.712H115.824V202.76C115.824 203.064 115.664 203.224 115.376 203.224C115.008 203.224 114.624 203.192 114.24 203.144L114.576 204.616H115.904ZM112.96 197.224V198.632H120.512V197.224H112.96ZM113.712 201.032C113.056 201.912 112.24 202.68 111.28 203.352L112.24 204.584C113.232 203.832 114.064 202.952 114.752 201.928L113.712 201.032ZM119.216 201.048L118.24 202.008C119.168 202.904 119.888 203.736 120.4 204.504L121.504 203.416C120.88 202.632 120.112 201.848 119.216 201.048ZM122.832 200.248V201.8H129.152V204.664H130.816V201.8H137.168V200.248H130.816V199.128H129.152V200.248H122.832ZM127.936 194.552V198.872H136.976V197.496H133.616V196.696H136.464V195.416H133.616V194.68H136.448V193.4H133.616V192.68H136.784V191.304H133.552C133.408 190.76 133.264 190.264 133.104 189.816L131.456 190.104C131.616 190.456 131.776 190.856 131.936 191.304H130.048C130.208 190.936 130.352 190.568 130.48 190.184L128.928 189.864C128.432 191.416 127.568 192.84 126.336 194.152L126.832 195.72C127.216 195.336 127.584 194.952 127.936 194.552ZM132.048 192.68V193.4H129.44V192.68H132.048ZM132.048 194.68V195.416H129.44V194.68H132.048ZM132.048 196.696V197.496H129.44V196.696H132.048ZM124.432 189.848L123.616 191.064C124.512 191.448 125.408 191.992 126.272 192.68L127.088 191.416C126.288 190.808 125.392 190.28 124.432 189.848ZM123.392 192.488L122.544 193.736C123.408 194.072 124.24 194.536 125.056 195.128L125.872 193.864C125.12 193.32 124.288 192.872 123.392 192.488ZM126.08 195.448C125.2 196.472 124.096 197.4 122.784 198.264L123.904 199.592C125.136 198.648 126.176 197.64 127.008 196.552L126.08 195.448ZM138.784 190.344V191.88H139.344V201.016L138.496 201.144L138.912 202.808C139.968 202.584 140.976 202.328 141.968 202.072V204.504H143.536V201.608C143.728 201.544 143.92 201.496 144.128 201.432V199.816L143.536 200.008V191.88H143.984V190.344H138.784ZM140.912 200.712V198.52H141.968V200.456C141.616 200.552 141.264 200.632 140.912 200.712ZM140.912 197.016V195.24H141.968V197.016H140.912ZM140.912 193.736V191.88H141.968V193.736H140.912ZM148.688 196.568H144.512V203.464H145.904V202.664H148.4C148.144 202.952 147.872 203.24 147.584 203.512L148.704 204.488C149.264 203.928 149.808 203.288 150.32 202.584C150.448 202.984 150.608 203.352 150.8 203.672C151.136 204.216 151.504 204.488 151.904 204.488C152.64 204.488 153.152 203.512 153.424 201.576L152.208 200.712C152.096 201.928 151.968 202.552 151.808 202.584C151.616 202.488 151.456 201.976 151.312 201.048C152 199.8 152.608 198.392 153.152 196.792L151.824 196.248C151.6 196.984 151.344 197.688 151.056 198.376C151.024 197.656 150.992 196.792 150.96 195.8H153.168V194.36H150.944C150.912 193.064 150.912 191.592 150.912 189.928H149.472C149.472 191.56 149.472 193.032 149.504 194.36H148.416C148.56 193.912 148.688 193.432 148.784 192.92L147.392 192.744C147.312 193.288 147.2 193.832 147.04 194.36H146.4C146.272 193.768 146.144 193.24 146.016 192.776L144.608 192.984C144.768 193.416 144.896 193.88 145.024 194.36H144.016V195.8H149.536C149.6 198.056 149.696 199.688 149.856 200.68C149.504 201.256 149.104 201.8 148.688 202.312V196.568ZM145.904 201.384V200.184H147.296V201.384H145.904ZM145.904 198.952V197.848H147.296V198.952H145.904ZM152.272 190.664L151.088 191.048C151.424 191.912 151.696 192.824 151.92 193.784L153.104 193.48C152.864 192.424 152.592 191.48 152.272 190.664ZM147.12 189.96L145.536 190.216C145.648 190.504 145.76 190.808 145.872 191.16H144.256V192.472H149.024V191.16H147.408C147.312 190.712 147.216 190.312 147.12 189.96ZM155.024 199.16V200.536H157.456C157.056 201.88 156.112 202.904 154.624 203.608L155.856 204.696C157.072 204.024 157.968 203.144 158.528 202.04C159.472 202.808 160.24 203.528 160.816 204.232L161.92 203.112C161.12 202.36 160.144 201.592 158.992 200.808L159.056 200.536H161.872V199.16H160.8L161.616 198.6C161.36 198.2 160.992 197.736 160.512 197.224L159.472 197.88C159.888 198.344 160.208 198.776 160.464 199.16H159.232V197.48H157.68V198.984C157.68 199.032 157.664 199.096 157.664 199.16H155.024ZM162.608 192.824V201.576H164.128C163.52 202.344 162.768 203.016 161.872 203.592L162.8 204.776C163.792 204.088 164.624 203.288 165.312 202.376L164.384 201.576H166.976L166.08 202.44C167.072 203.224 167.84 203.96 168.368 204.664L169.456 203.592C168.848 202.92 168.096 202.248 167.232 201.576H168.8V192.824H166.384C166.416 192.488 166.432 192.136 166.464 191.784H169.232V190.312H162.032V191.784H164.832L164.736 192.824H162.608ZM167.232 200.104H164.176V199H167.232V200.104ZM164.176 197.656V196.648H167.232V197.656H164.176ZM164.176 195.304V194.232H167.232V195.304H164.176ZM154.928 192.84V194.216H157.2C156.432 195.128 155.568 195.864 154.592 196.424L155.52 197.544C156.352 196.952 157.104 196.232 157.776 195.4V197.096H159.312V195.464C160 195.848 160.688 196.328 161.392 196.888L162.16 195.704C161.296 195.16 160.352 194.696 159.312 194.28V194.216H161.808V192.84H159.312V189.944H157.776V192.84H154.928ZM160.64 190.216C160.368 190.856 160.048 191.4 159.664 191.864L160.72 192.616C161.136 192.104 161.488 191.496 161.792 190.792L160.64 190.216ZM156.496 190.36L155.248 190.792C155.568 191.32 155.888 191.944 156.176 192.664L157.36 192.136C157.104 191.496 156.816 190.904 156.496 190.36ZM175.36 194.296V202.552H170.848V204.152H185.184V202.552H180.64V194.296H184.912V192.712H181.376C181.792 192.04 182.176 191.288 182.528 190.456L180.928 189.88C180.528 190.872 180.064 191.816 179.52 192.712H175.712L176.544 192.296C176.08 191.416 175.6 190.616 175.088 189.88L173.664 190.568C174.128 191.208 174.56 191.928 174.976 192.712H171.088V194.296H175.36ZM177.008 202.552V194.296H178.992V202.552H177.008ZM173.392 195.496L171.904 195.816C172.384 197.32 172.784 199.048 173.104 201L174.624 200.664C174.272 198.808 173.856 197.08 173.392 195.496ZM182.624 195.416C182.224 197.48 181.76 199.176 181.216 200.52L182.72 201.048C183.312 199.56 183.792 197.816 184.176 195.832L182.624 195.416ZM192.608 198.536V199.256H190.288V200.504H192.608V202.968C191.712 203.016 190.8 203.064 189.888 203.096L190.24 204.472C192.4 204.344 194.432 204.184 196.336 204.024V202.728L194.048 202.888V200.504H196.32V199.256H194.048V198.536H195.232V197.832C195.456 198.008 195.696 198.2 195.952 198.424L196.784 197.32C195.68 196.472 194.64 195.752 193.68 195.16H192.848C191.984 196.024 190.88 196.824 189.568 197.56L190.368 198.696C190.752 198.456 191.12 198.216 191.472 197.976V198.536H192.608ZM194.912 200.68C194.752 201.272 194.56 201.768 194.336 202.168L195.456 202.552C195.68 202.104 195.872 201.576 196.032 200.968L194.912 200.68ZM192.624 192.04L191.616 192.312C191.744 192.776 191.856 193.272 191.984 193.784L191.2 194.072V191.624C191.92 191.48 192.528 191.256 193.008 190.952L192.368 189.88C191.728 190.232 190.928 190.472 189.952 190.584V193.816C189.952 194.136 189.856 194.392 189.664 194.6L190.064 195.624C190.88 195.4 191.6 195.144 192.224 194.888C192.24 194.984 192.256 195.096 192.288 195.224L193.296 194.84L193.12 194.04L193.712 194.792C194.112 194.392 194.4 193.928 194.56 193.4C194.688 193 194.768 192.408 194.816 191.608H195.44C195.424 192.76 195.392 193.48 195.344 193.8C195.28 194.104 195.136 194.264 194.912 194.296H194.208L194.56 195.48H195.232C195.792 195.448 196.192 195.192 196.416 194.712C196.64 194.2 196.752 192.792 196.752 190.488H193.184V191.608H193.712C193.68 192.168 193.632 192.6 193.568 192.904C193.472 193.24 193.296 193.544 193.072 193.816C192.944 193.272 192.8 192.68 192.624 192.04ZM191.648 200.696L190.496 201.08C190.752 201.624 190.944 202.2 191.104 202.808L192.256 202.504C192.064 201.832 191.872 201.224 191.648 200.696ZM192.288 197.352C192.672 197.032 193.024 196.712 193.312 196.392C193.68 196.616 194.128 196.936 194.64 197.352H192.288ZM187.6 190.152L186.56 191.144C187.488 191.88 188.208 192.584 188.72 193.224L189.744 192.216C189.152 191.512 188.432 190.824 187.6 190.152ZM187.648 194.248L186.624 195.24C187.6 196.056 188.352 196.824 188.88 197.544L189.904 196.504C189.296 195.752 188.544 195 187.648 194.248ZM188.496 198.456C187.984 200.28 187.376 202.056 186.688 203.8L188.08 204.408C188.72 202.712 189.296 200.904 189.824 198.984L188.496 198.456ZM199.44 204.568C200.4 204.568 200.896 204.024 200.896 202.968V189.944H199.424V202.568C199.424 202.952 199.248 203.144 198.896 203.144C198.4 203.144 197.888 203.096 197.344 203.032L197.68 204.568H199.44ZM197.344 191.528V201.336H198.688V191.528H197.344ZM204.944 195.128V194.408H206.288V195.128H204.944ZM207.552 194.408H209.104V191.864H207.552V191.192H209.392V190.12H203.504V196.216H209.6V195.128H207.552V194.408ZM204.944 193.464V192.824H207.872V193.464H204.944ZM204.944 191.864V191.192H206.288V191.864H204.944ZM211.472 191.896H212.864C213.088 192.248 213.296 192.632 213.488 193.016H210.4C210.8 192.696 211.152 192.328 211.472 191.896ZM210.096 193.192V196.136H216.752V193.016H213.744L214.736 192.632C214.624 192.408 214.48 192.152 214.32 191.896H216.768V190.648H212.144C212.24 190.424 212.32 190.184 212.4 189.928L211.056 189.704C210.736 190.728 210.144 191.544 209.264 192.152L210.096 193.192ZM215.584 195.144H214.768V193.976H215.584V195.144ZM213.808 195.144H213.04V193.976H213.808V195.144ZM212.096 195.144H211.264V193.976H212.096V195.144ZM204.688 196.744V202.248H207.712C207.472 202.456 207.152 202.632 206.768 202.792C205.968 203.08 204.672 203.304 202.864 203.464L203.44 204.824C205.568 204.536 207.056 204.152 207.904 203.672C208.576 203.288 209.056 202.824 209.36 202.248H211.04V203.272C211.04 204.024 211.504 204.408 212.464 204.408H215.68C216.192 204.408 216.576 204.312 216.832 204.152C217.088 203.96 217.28 203.368 217.376 202.376L215.952 201.928C215.92 202.536 215.856 202.888 215.76 203C215.696 203.112 215.568 203.176 215.408 203.176H212.88C212.688 203.176 212.608 203.096 212.608 202.952V202.248H215.328V196.744H204.688ZM213.824 201.192H206.192V200.568H213.824V201.192ZM206.192 199.704V199.144H213.824V199.704H206.192ZM206.192 198.28V197.656H213.824V198.28H206.192ZM89.168 214.536V224.104H82.848V225.72H97.168V224.104H90.864V214.536H96.192V212.936H83.856V214.536H89.168ZM105.968 215.576H106.432V226.712H108.128V223.144H112.544V221.528H108.128V219.336H112.544V217.704H108.128V215.576H113.152V213.928H106.704C106.928 213.336 107.152 212.728 107.376 212.088L105.68 211.704C104.72 214.456 103.6 216.568 102.32 218.072L103.52 219.512C104.416 218.424 105.232 217.112 105.968 215.576ZM100.368 218.344V226.712H102.064V215.944C102.704 214.856 103.232 213.704 103.632 212.504L102.048 211.768C101.264 214.168 100.064 216.264 98.448 218.04L99.008 219.832C99.488 219.352 99.936 218.856 100.368 218.344ZM119.632 220.76H115.088V226.424H116.624V225.704H119.632V220.76ZM116.624 224.296V222.136H118.112V224.296H116.624ZM114.672 213.72V215.224H119.936V213.72H118.288C118.128 213.144 117.888 212.52 117.568 211.816L115.984 212.248C116.24 212.728 116.48 213.224 116.688 213.72H114.672ZM115.232 216.136V217.544H119.456V216.264L120.576 217.24L121.04 216.824V220.872H122.272C122.08 222.952 121.248 224.424 119.744 225.288L120.624 226.696C122.544 225.48 123.616 223.528 123.824 220.872H124.896V224.888C124.896 225.912 125.408 226.424 126.432 226.424H127.568C128.08 226.424 128.464 226.296 128.72 226.04C128.992 225.752 129.184 224.888 129.296 223.464L127.872 222.984C127.84 223.912 127.776 224.472 127.68 224.648C127.584 224.824 127.456 224.92 127.28 224.92H126.912C126.592 224.92 126.448 224.792 126.448 224.552V220.872H127.712V216.568C127.904 216.76 128.144 216.968 128.4 217.16L129.488 215.896C128.048 214.888 127.072 213.528 126.544 211.816L125.184 212.6C125.568 213.768 126.144 214.808 126.912 215.736H122C122.64 214.888 123.2 213.864 123.68 212.664L122.192 212.056C121.6 213.72 120.688 215.08 119.456 216.136H115.232ZM115.232 218.392V219.8H119.456V218.392H115.232ZM126.192 219.4H122.608V217.208H126.192V219.4ZM136.32 212.584H131.136V225.256H132.8V224.088H136.32V212.584ZM132.8 222.456V219.016H134.704V222.456H132.8ZM132.8 217.4V214.216H134.704V217.4H132.8ZM139.408 217.688H142.976V219.96H139.408V217.688ZM142.976 216.136H139.408V213.864H142.976V216.136ZM139.296 221.528H142.976V224.2C142.976 224.712 142.768 224.968 142.384 224.968C141.808 224.968 141.152 224.936 140.448 224.888L140.912 226.52H142.928C144.08 226.52 144.672 225.944 144.672 224.792V212.248H137.712V220.056C137.68 222.296 137.104 224.152 135.952 225.592L137.28 226.808C138.4 225.4 139.072 223.64 139.296 221.528ZM159.28 217.032V215.48H161.008V214.136H159.28V212.552H154.832V211.816H153.152V212.552H148.528V213.704H153.248V214.264H147.136V215.352H153.248V215.896H148.528V217.032H153.168V217.544H148.288V218.68H153.168V219.208H147.104V220.392H160.896V219.208H154.8V218.68H159.728V217.544H154.8V217.032H159.28ZM154.72 213.704H157.712V214.264H154.72V213.704ZM154.72 215.352H157.712V215.896H154.72V215.352ZM159.44 221.016H148.752V226.728H150.368V226.136H157.808V226.728H159.44V221.016ZM150.368 224.856V224.168H157.808V224.856H150.368ZM150.368 222.968V222.248H157.808V222.968H150.368ZM166 222.568C165.376 222.568 164.848 222.76 164.416 223.176C163.968 223.592 163.76 224.104 163.76 224.728C163.76 225.336 163.968 225.864 164.416 226.28C164.848 226.68 165.376 226.888 166 226.888C166.608 226.888 167.136 226.68 167.584 226.264C168.016 225.848 168.24 225.336 168.24 224.728C168.24 224.12 168.016 223.608 167.584 223.192C167.136 222.776 166.608 222.568 166 222.568ZM166 223.688C166.288 223.688 166.528 223.784 166.752 223.992C166.96 224.184 167.072 224.44 167.072 224.728C167.072 225.016 166.96 225.256 166.752 225.464C166.528 225.656 166.288 225.768 166 225.768C165.712 225.768 165.456 225.656 165.248 225.464C165.024 225.256 164.928 225.016 164.928 224.728C164.928 224.44 165.024 224.184 165.248 223.992C165.456 223.784 165.712 223.688 166 223.688Z" fill="white"/>
</svg>
