<svg width="178" height="178" viewBox="0 0 178 178" fill="none" xmlns="http://www.w3.org/2000/svg">
<g filter="url(#filter0_d)">
<path d="M89 170C135.944 170 174 131.944 174 85C174 38.0558 135.944 0 89 0C42.0558 0 4 38.0558 4 85C4 131.944 42.0558 170 89 170Z" fill="#EAB83D"/>
<path d="M69.3155 57.204C71.0663 57.2029 72.7453 56.5075 73.9841 55.2702C75.2228 54.0329 75.9203 52.3548 75.9235 50.604C75.9236 50.1535 75.8777 49.7042 75.7865 49.263C75.8082 49.1595 75.8082 49.0525 75.7865 48.949C75.7588 48.831 75.7029 48.7216 75.6235 48.63C75.2007 47.288 74.3612 46.1156 73.2269 45.2831C72.0926 44.4505 70.7225 44.0011 69.3155 44C67.564 44.0016 65.8848 44.6979 64.6461 45.9362C63.4075 47.1745 62.7106 48.8535 62.7085 50.605C62.7114 52.3557 63.4087 54.0338 64.6473 55.2712C65.8859 56.5085 67.5647 57.2039 69.3155 57.205V57.204ZM74.3745 50.605C74.3716 51.9449 73.8373 53.229 72.8889 54.1755C71.9405 55.122 70.6554 55.6537 69.3155 55.654C68.0389 55.6517 66.8107 55.1653 65.8785 54.2931C64.9463 53.4209 64.3796 52.2276 64.2925 50.954C64.6844 51.0261 65.082 51.0626 65.4805 51.063C66.3801 51.0685 67.2711 50.8874 68.0972 50.5313C68.9234 50.1752 69.6668 49.6518 70.2805 48.994C71.3364 49.6592 72.5586 50.0127 73.8065 50.014C73.9795 50.014 74.1465 50.001 74.3135 49.988C74.3466 50.1922 74.3673 50.3983 74.3755 50.605H74.3745ZM73.8045 48.464C72.6487 48.4652 71.5274 48.0702 70.6275 47.345C70.5467 47.2796 70.4534 47.2315 70.3533 47.2036C70.2532 47.1757 70.1484 47.1687 70.0455 47.183C69.9432 47.1959 69.8445 47.229 69.7552 47.2805C69.6659 47.332 69.5878 47.4009 69.5255 47.483C69.0576 48.1148 68.4477 48.6277 67.7451 48.9804C67.0424 49.333 66.2667 49.5154 65.4805 49.513C65.1244 49.5089 64.7697 49.467 64.4225 49.388C64.6935 48.2943 65.3222 47.3225 66.2087 46.627C67.0952 45.9314 68.1887 45.552 69.3155 45.549C70.2729 45.5515 71.21 45.8262 72.0173 46.3408C72.8247 46.8555 73.4691 47.5891 73.8755 48.456C73.8505 48.456 73.8305 48.463 73.8045 48.463" fill="white"/>
<path d="M77.0615 80.3234V77.1634C77.4252 77.3426 77.825 77.4366 78.2305 77.4384C78.9418 77.418 79.6187 77.1275 80.1235 76.626C80.6284 76.1245 80.9234 75.4496 80.9485 74.7384V65.5514C80.9443 63.6992 80.2061 61.9242 78.8958 60.6152C77.5854 59.3061 75.8097 58.5698 73.9575 58.5674H64.9915C63.1393 58.5698 61.3636 59.3061 60.0532 60.6152C58.7429 61.9242 58.0047 63.6992 58.0005 65.5514V74.7354C58.0039 75.4535 58.292 76.141 58.8015 76.6471C59.311 77.1533 60.0003 77.4367 60.7185 77.4354C61.1251 77.4352 61.5263 77.3422 61.8915 77.1634V80.3234C61.8915 80.5289 61.9731 80.7261 62.1185 80.8714C62.2638 81.0167 62.4609 81.0984 62.6665 81.0984H76.2915C76.4962 81.0971 76.692 81.0148 76.8363 80.8696C76.9805 80.7244 77.0615 80.5281 77.0615 80.3234ZM75.5125 74.7234V79.5474H63.4365V69.8914C63.4365 69.7896 63.4164 69.6888 63.3775 69.5948C63.3385 69.5008 63.2815 69.4153 63.2095 69.3434C63.1375 69.2714 63.0521 69.2143 62.9581 69.1754C62.864 69.1364 62.7633 69.1164 62.6615 69.1164C62.4559 69.1164 62.2588 69.198 62.1135 69.3434C61.9681 69.4887 61.8865 69.6858 61.8865 69.8914V74.7234C61.881 75.0309 61.7558 75.3241 61.5375 75.5408C61.3192 75.7574 61.025 75.8803 60.7175 75.8834C60.41 75.885 60.1144 75.7646 59.8955 75.5487C59.6765 75.3328 59.5521 75.0389 59.5495 74.7314V65.5514C59.5519 64.1095 60.1262 62.7276 61.1465 61.7088C62.1668 60.69 63.5496 60.1176 64.9915 60.1174H73.9575C75.3988 60.1182 76.781 60.6906 77.8008 61.7091C78.8206 62.7276 79.3948 64.1091 79.3975 65.5504V74.6624C79.3912 74.9755 79.268 75.2749 79.052 75.5016C78.836 75.7283 78.5429 75.866 78.2305 75.8874C77.9223 75.8843 77.6275 75.7608 77.4091 75.5433C77.1906 75.3258 77.0659 75.0316 77.0615 74.7234V69.8914C77.0612 69.6869 76.9801 69.4908 76.8359 69.3458C76.6917 69.2008 76.496 69.1187 76.2915 69.1174C76.0859 69.1174 75.8888 69.199 75.7435 69.3444C75.5981 69.4897 75.5165 69.6868 75.5165 69.8924V74.7234H75.5125Z" fill="white"/>
<path d="M71.6858 63.6123H67.2618C67.0561 63.6126 66.8589 63.6944 66.7134 63.8399C66.5679 63.9854 66.4861 64.1826 66.4858 64.3883C66.4861 64.5938 66.5678 64.7907 66.7131 64.936C66.8584 65.0813 67.0554 65.163 67.2608 65.1633H68.6988V73.0633C68.6988 73.2688 68.7805 73.466 68.9258 73.6113C69.0712 73.7567 69.2683 73.8383 69.4738 73.8383C69.6794 73.8383 69.8765 73.7567 70.0218 73.6113C70.1672 73.466 70.2488 73.2688 70.2488 73.0633V65.1623H71.6858C71.8914 65.1623 72.0885 65.0807 72.2338 64.9353C72.3792 64.79 72.4608 64.5928 72.4608 64.3873C72.4608 64.1818 72.3792 63.9846 72.2338 63.8393C72.0885 63.694 71.8914 63.6123 71.6858 63.6123" fill="white"/>
<path d="M114.486 96.0982C114.484 95.5533 114.414 95.0108 114.278 94.4832C114.279 94.4722 114.279 94.4612 114.278 94.4502C114.278 94.4302 114.261 94.4152 114.256 94.3972C113.88 92.9921 113.051 91.75 111.899 90.8631C110.746 89.9763 109.333 89.4941 107.878 89.4912C106.126 89.4933 104.447 90.1902 103.209 91.4288C101.971 92.6675 101.275 94.3468 101.273 96.0982C101.275 97.8489 101.972 99.5271 103.21 100.765C104.449 102.002 106.127 102.697 107.878 102.698C109.629 102.697 111.308 102.002 112.547 100.765C113.786 99.5274 114.483 97.8491 114.486 96.0982ZM109.109 92.8362C109.028 92.7718 108.934 92.7243 108.834 92.6963C108.734 92.6683 108.63 92.6605 108.527 92.6732C108.424 92.6868 108.324 92.7209 108.235 92.7734C108.145 92.826 108.066 92.8959 108.004 92.9792C107.537 93.6116 106.927 94.1246 106.224 94.4765C105.52 94.8284 104.744 95.0092 103.958 95.0042C103.63 95.0024 103.303 94.9689 102.981 94.9042C103.248 93.8057 103.877 92.8287 104.765 92.1293C105.653 91.4299 106.75 91.0485 107.881 91.0462C108.837 91.049 109.773 91.323 110.579 91.8363C111.385 92.3497 112.03 93.0813 112.437 93.9462C111.232 93.9748 110.055 93.5823 109.109 92.8362ZM103.958 96.5542C104.857 96.5537 105.746 96.37 106.572 96.0143C107.398 95.6586 108.142 95.1383 108.76 94.4852C109.989 95.2494 111.432 95.5966 112.874 95.4752C112.909 95.6813 112.93 95.8894 112.938 96.0982C112.935 97.438 112.4 98.7219 111.452 99.6681C110.503 100.614 109.218 101.145 107.878 101.145C106.605 101.142 105.38 100.658 104.449 99.7897C103.519 98.9213 102.951 97.7329 102.86 96.4632C103.223 96.5245 103.591 96.5553 103.96 96.5552" fill="white"/>
<path d="M112.669 104.136H103.697C101.846 104.138 100.07 104.874 98.7606 106.184C97.4511 107.493 96.7145 109.269 96.7124 111.121V120.303C96.7148 121.02 97.0012 121.706 97.509 122.212C98.0168 122.719 98.7045 123.003 99.4214 123.003C99.8268 123 100.226 122.906 100.59 122.728V125.89C100.59 126.095 100.672 126.293 100.817 126.438C100.963 126.584 101.16 126.665 101.365 126.666H114.999C115.205 126.665 115.402 126.584 115.547 126.438C115.693 126.293 115.774 126.095 115.774 125.89V122.736C116.136 122.912 116.532 123.005 116.934 123.008C117.646 122.987 118.323 122.696 118.828 122.195C119.333 121.694 119.629 121.019 119.655 120.308V111.121C119.653 109.269 118.917 107.493 117.607 106.184C116.297 104.874 114.521 104.138 112.669 104.136V104.136ZM115.769 117.949V115.459C115.773 115.355 115.756 115.251 115.719 115.154C115.681 115.056 115.625 114.968 115.553 114.893C115.48 114.818 115.394 114.758 115.298 114.718C115.202 114.677 115.099 114.656 114.995 114.656C114.891 114.656 114.788 114.677 114.692 114.718C114.596 114.758 114.509 114.818 114.437 114.893C114.365 114.968 114.308 115.056 114.271 115.154C114.234 115.251 114.217 115.355 114.22 115.459V125.117H102.141V115.459C102.141 115.253 102.059 115.056 101.913 114.911C101.768 114.766 101.571 114.684 101.365 114.684C101.264 114.684 101.163 114.704 101.069 114.743C100.975 114.782 100.889 114.839 100.817 114.911C100.745 114.983 100.688 115.068 100.649 115.162C100.61 115.256 100.59 115.357 100.59 115.459V120.287C100.59 120.597 100.467 120.894 100.248 121.113C100.028 121.332 99.7313 121.455 99.4214 121.455C99.115 121.455 98.8208 121.334 98.6034 121.118C98.386 120.902 98.263 120.609 98.2614 120.303V111.121C98.2633 109.68 98.8366 108.298 99.8557 107.279C100.875 106.26 102.256 105.687 103.697 105.686H112.669C114.11 105.687 115.492 106.26 116.511 107.279C117.53 108.298 118.104 109.68 118.105 111.121V120.229C118.101 120.544 117.977 120.845 117.759 121.073C117.541 121.3 117.245 121.436 116.93 121.454C116.622 121.452 116.327 121.328 116.109 121.109C115.892 120.89 115.77 120.594 115.77 120.286L115.769 117.949Z" fill="white"/>
<path d="M127.227 50.9883H89.1437C88.9381 50.9883 88.741 51.0699 88.5956 51.2153C88.4503 51.3606 88.3687 51.5577 88.3687 51.7633V76.3223C88.3687 76.5278 88.4503 76.7249 88.5956 76.8703C88.741 77.0156 88.9381 77.0973 89.1437 77.0973H95.0117L93.6717 86.2413C93.6492 86.3966 93.6744 86.555 93.7439 86.6957C93.8133 86.8363 93.9238 86.9527 94.0607 87.0293C94.1757 87.0944 94.3055 87.1289 94.4377 87.1293C94.6205 87.1292 94.7975 87.0648 94.9377 86.9473L106.66 77.0963H127.227C127.432 77.0963 127.629 77.0146 127.775 76.8693C127.92 76.7239 128.002 76.5268 128.002 76.3213V51.7633C128.002 51.5577 127.92 51.3606 127.775 51.2153C127.629 51.0699 127.432 50.9883 127.227 50.9883V50.9883ZM126.452 52.5383V75.5463H106.38C106.197 75.5468 106.02 75.6112 105.88 75.7283L95.4997 84.4493L96.6727 76.4343C96.6888 76.3243 96.681 76.2121 96.6498 76.1055C96.6185 75.9988 96.5646 75.9002 96.4917 75.8163C96.4191 75.7321 96.3293 75.6646 96.2284 75.6182C96.1275 75.5717 96.0177 75.5476 95.9067 75.5473H89.9167V52.5383H126.452Z" fill="white"/>
<path d="M95.7843 56.6712H112.566C112.669 56.6717 112.77 56.652 112.865 56.6131C112.959 56.5743 113.045 56.5171 113.118 56.4449C113.19 56.3727 113.247 56.2868 113.286 56.1923C113.326 56.0978 113.346 55.9964 113.345 55.8942C113.345 55.6885 113.264 55.4913 113.118 55.3458C112.973 55.2003 112.776 55.1184 112.57 55.1182H95.7843C95.5786 55.1184 95.3815 55.2003 95.2362 55.3458C95.0909 55.4913 95.0093 55.6885 95.0093 55.8942C95.009 55.9961 95.0289 56.0971 95.0677 56.1914C95.1065 56.2856 95.1636 56.3713 95.2356 56.4435C95.3076 56.5156 95.3931 56.5729 95.4872 56.612C95.5814 56.6511 95.6823 56.6712 95.7843 56.6712Z" fill="white"/>
<path d="M116.19 56.6712H120.412C120.513 56.671 120.614 56.6508 120.708 56.6117C120.802 56.5726 120.888 56.5153 120.96 56.4431C121.032 56.3709 121.088 56.2853 121.127 56.1911C121.166 56.0969 121.186 55.996 121.186 55.8942C121.186 55.6885 121.104 55.4913 120.959 55.3458C120.813 55.2003 120.616 55.1184 120.411 55.1182H116.19C115.984 55.1184 115.787 55.2003 115.641 55.3458C115.496 55.4913 115.415 55.6885 115.415 55.8942C115.414 55.9961 115.434 56.0971 115.473 56.1914C115.512 56.2856 115.569 56.3713 115.641 56.4435C115.713 56.5156 115.798 56.5729 115.893 56.612C115.987 56.6511 116.088 56.6712 116.19 56.6712Z" fill="white"/>
<path d="M90.0203 116.411H69.3913V83.6549C69.3913 83.4493 69.3097 83.2522 69.1643 83.1069C69.019 82.9615 68.8219 82.8799 68.6163 82.8799C68.4108 82.8799 68.2136 82.9615 68.0683 83.1069C67.923 83.2522 67.8413 83.4493 67.8413 83.6549V117.185C67.8413 117.391 67.9229 117.588 68.0682 117.733C68.2136 117.879 68.4107 117.961 68.6163 117.961H90.0163C90.2219 117.961 90.419 117.879 90.5643 117.734C90.7097 117.589 90.7913 117.391 90.7913 117.186C90.7913 116.98 90.7097 116.783 90.5643 116.638C90.419 116.493 90.2219 116.411 90.0163 116.411" fill="white"/>
<path d="M120.411 59.1035H103.622C103.417 59.1038 103.219 59.1857 103.074 59.3312C102.929 59.4767 102.847 59.6739 102.847 59.8795C102.847 60.0851 102.929 60.2822 103.074 60.4275C103.22 60.5729 103.417 60.6545 103.622 60.6545H120.411C120.617 60.6545 120.814 60.5729 120.959 60.4275C121.105 60.2822 121.186 60.0851 121.186 59.8795C121.186 59.674 121.105 59.4768 120.959 59.3315C120.814 59.1862 120.617 59.1045 120.411 59.1045" fill="white"/>
<path d="M95.6954 60.6565H99.9174C100.019 60.6564 100.12 60.6362 100.214 60.597C100.308 60.5579 100.394 60.5006 100.465 60.4285C100.537 60.3563 100.594 60.2707 100.633 60.1765C100.672 60.0823 100.692 59.9814 100.691 59.8795C100.691 59.6739 100.61 59.4767 100.464 59.3312C100.319 59.1857 100.122 59.1038 99.9164 59.1035H95.6954C95.4898 59.1038 95.2927 59.1857 95.1473 59.3312C95.002 59.4767 94.9204 59.6739 94.9204 59.8795C94.9201 59.9815 94.94 60.0825 94.9788 60.1767C95.0177 60.271 95.0747 60.3566 95.1467 60.4288C95.2187 60.501 95.3042 60.5583 95.3984 60.5973C95.4925 60.6364 95.5935 60.6565 95.6954 60.6565Z" fill="white"/>
<path d="M95.7843 64.5452H112.566C112.669 64.5456 112.77 64.5257 112.864 64.4869C112.959 64.448 113.045 64.3908 113.117 64.3186C113.19 64.2464 113.247 64.1606 113.286 64.0661C113.325 63.9717 113.345 63.8704 113.345 63.7682C113.345 63.5626 113.264 63.3655 113.118 63.2202C112.973 63.0748 112.776 62.9932 112.57 62.9932H95.7843C95.5787 62.9932 95.3816 63.0748 95.2363 63.2202C95.0909 63.3655 95.0093 63.5626 95.0093 63.7682C95.0091 63.8701 95.0291 63.971 95.068 64.0652C95.1068 64.1594 95.1639 64.245 95.2359 64.3172C95.3078 64.3893 95.3933 64.4466 95.4874 64.4857C95.5815 64.5248 95.6824 64.545 95.7843 64.5452Z" fill="white"/>
<path d="M120.413 62.9932H116.191C115.985 62.9932 115.788 63.0748 115.643 63.2202C115.497 63.3655 115.416 63.5626 115.416 63.7682C115.416 63.9738 115.497 64.171 115.642 64.3165C115.788 64.462 115.985 64.5439 116.191 64.5442H120.413C120.618 64.5442 120.815 64.4625 120.961 64.3172C121.106 64.1718 121.188 63.9747 121.188 63.7692C121.188 63.5636 121.106 63.3665 120.961 63.2212C120.815 63.0758 120.618 62.9942 120.413 62.9942" fill="white"/>
<path d="M120.411 66.874H103.622C103.417 66.874 103.22 66.9557 103.074 67.101C102.929 67.2464 102.847 67.4435 102.847 67.649C102.847 67.8547 102.929 68.0519 103.074 68.1974C103.219 68.3429 103.417 68.4248 103.622 68.425H120.411C120.617 68.425 120.814 68.3434 120.959 68.198C121.105 68.0527 121.186 67.8556 121.186 67.65C121.186 67.4445 121.105 67.2474 120.959 67.102C120.814 66.9567 120.617 66.875 120.411 66.875" fill="white"/>
<path d="M95.6954 68.427H99.9174C100.019 68.4269 100.12 68.4067 100.214 68.3676C100.308 68.3284 100.394 68.2711 100.465 68.199C100.537 68.1268 100.594 68.0412 100.633 67.947C100.672 67.8528 100.692 67.7519 100.691 67.65C100.691 67.4444 100.61 67.2472 100.464 67.1017C100.319 66.9562 100.122 66.8743 99.9164 66.874H95.6954C95.4898 66.8743 95.2927 66.9562 95.1473 67.1017C95.002 67.2472 94.9204 67.4444 94.9204 67.65C94.9201 67.752 94.94 67.853 94.9788 67.9472C95.0177 68.0415 95.0747 68.1271 95.1467 68.1993C95.2187 68.2715 95.3042 68.3288 95.3984 68.3678C95.4925 68.4069 95.5935 68.427 95.6954 68.427Z" fill="white"/>
<path d="M95.7843 72.3108H112.566C112.669 72.3113 112.77 72.2916 112.865 72.2528C112.959 72.2139 113.045 72.1568 113.118 72.0845C113.19 72.0123 113.247 71.9265 113.286 71.8319C113.326 71.7374 113.346 71.6361 113.345 71.5338C113.345 71.3282 113.264 71.131 113.118 70.9855C112.973 70.84 112.776 70.7581 112.57 70.7578H95.7843C95.5786 70.7581 95.3815 70.84 95.2362 70.9855C95.0909 71.131 95.0093 71.3282 95.0093 71.5338C95.009 71.6358 95.0289 71.7367 95.0677 71.831C95.1065 71.9253 95.1636 72.0109 95.2356 72.0831C95.3076 72.1553 95.3931 72.2126 95.4872 72.2516C95.5814 72.2907 95.6823 72.3108 95.7843 72.3108Z" fill="white"/>
<path d="M120.413 70.7578H116.191C115.985 70.7578 115.788 70.8395 115.643 70.9848C115.497 71.1301 115.416 71.3273 115.416 71.5328C115.416 71.7384 115.497 71.9357 115.642 72.0812C115.788 72.2267 115.985 72.3085 116.191 72.3088H120.413C120.618 72.3088 120.815 72.2272 120.961 72.0818C121.106 71.9365 121.188 71.7394 121.188 71.5338C121.188 71.3283 121.106 71.1311 120.961 70.9858C120.815 70.8405 120.618 70.7588 120.413 70.7588" fill="white"/>
<path d="M110.302 116.751H106.655C106.544 116.751 106.509 116.729 106.509 116.588V113.773H109.751C109.843 113.767 109.933 113.742 110.014 113.701C110.096 113.659 110.169 113.601 110.228 113.531C110.287 113.46 110.331 113.378 110.357 113.29C110.383 113.202 110.391 113.11 110.38 113.019C110.38 112.562 110.127 112.255 109.751 112.255H106.509V109.922C106.509 109.722 106.542 109.722 106.623 109.722H110.21C110.587 109.722 110.849 109.403 110.849 108.945C110.849 108.487 110.592 108.181 110.21 108.181H106.359C105.491 108.181 105.087 108.681 105.087 109.75V116.736C105.087 117.798 105.487 118.294 106.359 118.294H110.302C110.678 118.294 110.941 117.975 110.941 117.517C110.941 117.059 110.685 116.751 110.302 116.751Z" fill="white"/>
</g>
<defs>
<filter id="filter0_d" x="0" y="0" width="178" height="178" filterUnits="userSpaceOnUse" color-interpolation-filters="sRGB">
<feFlood flood-opacity="0" result="BackgroundImageFix"/>
<feColorMatrix in="SourceAlpha" type="matrix" values="0 0 0 0 0 0 0 0 0 0 0 0 0 0 0 0 0 0 127 0"/>
<feOffset dy="4"/>
<feGaussianBlur stdDeviation="2"/>
<feColorMatrix type="matrix" values="0 0 0 0 0 0 0 0 0 0 0 0 0 0 0 0 0 0 0.25 0"/>
<feBlend mode="normal" in2="BackgroundImageFix" result="effect1_dropShadow"/>
<feBlend mode="normal" in="SourceGraphic" in2="effect1_dropShadow" result="shape"/>
</filter>
</defs>
</svg>
