<svg width="260" height="260" viewBox="0 0 260 260" fill="none" xmlns="http://www.w3.org/2000/svg">
<path d="M130 260C201.797 260 260 201.797 260 130C260 58.203 201.797 0 130 0C58.203 0 0 58.203 0 130C0 201.797 58.203 260 130 260Z" fill="#EAB83D"/>
<path d="M106.315 83.204C108.066 83.2029 109.745 82.5075 110.984 81.2702C112.222 80.0329 112.92 78.3548 112.923 76.604C112.923 76.1535 112.877 75.7042 112.786 75.263C112.808 75.1595 112.808 75.0525 112.786 74.949C112.758 74.831 112.702 74.7216 112.623 74.63C112.2 73.288 111.361 72.1156 110.226 71.2831C109.092 70.4505 107.722 70.0011 106.315 70C104.564 70.0016 102.884 70.6979 101.646 71.9362C100.407 73.1745 99.7101 74.8535 99.708 76.605C99.7109 78.3557 100.408 80.0338 101.647 81.2712C102.885 82.5085 104.564 83.2039 106.315 83.205V83.204ZM111.374 76.605C111.371 77.9449 110.837 79.229 109.888 80.1755C108.94 81.122 107.655 81.6537 106.315 81.654C105.038 81.6517 103.81 81.1653 102.878 80.2931C101.946 79.4209 101.379 78.2276 101.292 76.954C101.684 77.0261 102.082 77.0626 102.48 77.063C103.38 77.0685 104.271 76.8874 105.097 76.5313C105.923 76.1752 106.666 75.6518 107.28 74.994C108.336 75.6592 109.558 76.0127 110.806 76.014C110.979 76.014 111.146 76.001 111.313 75.988C111.346 76.1922 111.367 76.3983 111.375 76.605H111.374ZM110.804 74.464C109.648 74.4652 108.527 74.0702 107.627 73.345C107.546 73.2796 107.453 73.2315 107.353 73.2036C107.253 73.1757 107.148 73.1687 107.045 73.183C106.943 73.1959 106.844 73.229 106.755 73.2805C106.665 73.332 106.587 73.4009 106.525 73.483C106.057 74.1148 105.447 74.6277 104.745 74.9804C104.042 75.333 103.266 75.5154 102.48 75.513C102.124 75.5089 101.769 75.467 101.422 75.388C101.693 74.2943 102.322 73.3225 103.208 72.627C104.095 71.9314 105.188 71.552 106.315 71.549C107.272 71.5515 108.209 71.8262 109.017 72.3408C109.824 72.8555 110.469 73.5891 110.875 74.456C110.85 74.456 110.83 74.463 110.804 74.463" fill="white"/>
<path d="M114.061 106.323V103.163C114.425 103.343 114.825 103.437 115.23 103.438C115.941 103.418 116.618 103.128 117.123 102.626C117.628 102.124 117.923 101.45 117.948 100.738V91.5514C117.944 89.6992 117.206 87.9242 115.895 86.6152C114.585 85.3061 112.809 84.5698 110.957 84.5674H101.991C100.139 84.5698 98.3631 85.3061 97.0527 86.6152C95.7424 87.9242 95.0042 89.6992 95 91.5514V100.735C95.0034 101.454 95.2915 102.141 95.801 102.647C96.3105 103.153 96.9998 103.437 97.718 103.435C98.1246 103.435 98.5258 103.342 98.891 103.163V106.323C98.891 106.529 98.9727 106.726 99.118 106.871C99.2633 107.017 99.4605 107.098 99.666 107.098H113.291C113.496 107.097 113.692 107.015 113.836 106.87C113.98 106.724 114.061 106.528 114.061 106.323V106.323ZM112.512 100.723V105.547H100.436V95.8914C100.436 95.7896 100.416 95.6888 100.377 95.5948C100.338 95.5008 100.281 95.4153 100.209 95.3434C100.137 95.2714 100.052 95.2143 99.9576 95.1754C99.8636 95.1364 99.7628 95.1164 99.661 95.1164C99.4555 95.1164 99.2583 95.198 99.113 95.3434C98.9677 95.4887 98.886 95.6858 98.886 95.8914V100.723C98.8805 101.031 98.7554 101.324 98.537 101.541C98.3187 101.757 98.0245 101.88 97.717 101.883C97.4095 101.885 97.1139 101.765 96.895 101.549C96.6761 101.333 96.5516 101.039 96.549 100.731V91.5514C96.5514 90.1095 97.1258 88.7276 98.146 87.7088C99.1663 86.69 100.549 86.1176 101.991 86.1174H110.957C112.398 86.1182 113.78 86.6906 114.8 87.7091C115.82 88.7276 116.394 90.1091 116.397 91.5504V100.662C116.391 100.975 116.267 101.275 116.051 101.502C115.835 101.728 115.542 101.866 115.23 101.887C114.922 101.884 114.627 101.761 114.409 101.543C114.19 101.326 114.065 101.032 114.061 100.723V95.8914C114.061 95.6869 113.98 95.4908 113.835 95.3458C113.691 95.2008 113.496 95.1187 113.291 95.1174C113.085 95.1174 112.888 95.199 112.743 95.3444C112.598 95.4897 112.516 95.6868 112.516 95.8924V100.723H112.512Z" fill="white"/>
<path d="M108.685 89.6123H104.261C104.056 89.6126 103.858 89.6944 103.713 89.8399C103.567 89.9854 103.486 90.1826 103.485 90.3883C103.486 90.5938 103.567 90.7907 103.713 90.936C103.858 91.0813 104.055 91.163 104.26 91.1633H105.698V99.0633C105.698 99.2688 105.78 99.466 105.925 99.6113C106.071 99.7567 106.268 99.8383 106.473 99.8383C106.679 99.8383 106.876 99.7567 107.021 99.6113C107.167 99.466 107.248 99.2688 107.248 99.0633V91.1623H108.685C108.891 91.1623 109.088 91.0807 109.233 90.9353C109.379 90.79 109.46 90.5928 109.46 90.3873C109.46 90.1818 109.379 89.9846 109.233 89.8393C109.088 89.694 108.891 89.6123 108.685 89.6123" fill="white"/>
<path d="M151.485 122.098C151.484 121.553 151.414 121.011 151.277 120.483C151.278 120.472 151.278 120.461 151.277 120.45C151.277 120.43 151.26 120.415 151.255 120.397C150.88 118.992 150.051 117.75 148.898 116.863C147.745 115.976 146.332 115.494 144.877 115.491C143.126 115.493 141.447 116.19 140.209 117.429C138.97 118.667 138.274 120.347 138.272 122.098C138.275 123.849 138.971 125.527 140.21 126.765C141.448 128.002 143.127 128.697 144.877 128.698C146.628 128.697 148.307 128.002 149.546 126.765C150.785 125.527 151.483 123.849 151.485 122.098ZM146.108 118.836C146.027 118.772 145.934 118.724 145.834 118.696C145.734 118.668 145.629 118.66 145.526 118.673C145.423 118.687 145.324 118.721 145.234 118.773C145.144 118.826 145.066 118.896 145.003 118.979C144.536 119.612 143.926 120.125 143.223 120.477C142.52 120.828 141.744 121.009 140.957 121.004C140.629 121.002 140.302 120.969 139.98 120.904C140.248 119.806 140.876 118.829 141.764 118.129C142.653 117.43 143.75 117.049 144.88 117.046C145.836 117.049 146.772 117.323 147.578 117.836C148.385 118.35 149.029 119.081 149.436 119.946C148.232 119.975 147.055 119.582 146.108 118.836V118.836ZM140.957 122.554C141.856 122.554 142.746 122.37 143.572 122.014C144.397 121.659 145.142 121.138 145.759 120.485C146.988 121.249 148.431 121.597 149.873 121.475C149.908 121.681 149.929 121.889 149.937 122.098C149.934 123.438 149.4 124.722 148.451 125.668C147.503 126.614 146.217 127.145 144.877 127.145C143.604 127.142 142.38 126.658 141.449 125.79C140.518 124.921 139.95 123.733 139.859 122.463C140.223 122.524 140.591 122.555 140.959 122.555" fill="white"/>
<path d="M149.669 130.136H140.697C138.845 130.138 137.07 130.874 135.76 132.184C134.451 133.493 133.714 135.269 133.712 137.121V146.303C133.714 147.02 134.001 147.706 134.509 148.212C135.016 148.719 135.704 149.003 136.421 149.003C136.826 149 137.226 148.906 137.59 148.728V151.89C137.59 152.095 137.672 152.293 137.817 152.438C137.962 152.584 138.159 152.665 138.365 152.666H151.999C152.205 152.665 152.402 152.584 152.547 152.438C152.692 152.293 152.774 152.095 152.774 151.89V148.736C153.135 148.912 153.532 149.005 153.934 149.008C154.645 148.987 155.322 148.696 155.828 148.195C156.333 147.694 156.629 147.019 156.655 146.308V137.121C156.653 135.269 155.916 133.493 154.606 132.184C153.297 130.874 151.521 130.138 149.669 130.136V130.136ZM152.769 143.949V141.459C152.773 141.355 152.755 141.251 152.718 141.154C152.681 141.056 152.624 140.968 152.552 140.893C152.48 140.818 152.393 140.758 152.297 140.718C152.202 140.677 152.099 140.656 151.994 140.656C151.89 140.656 151.787 140.677 151.691 140.718C151.596 140.758 151.509 140.818 151.437 140.893C151.364 140.968 151.308 141.056 151.271 141.154C151.233 141.251 151.216 141.355 151.22 141.459V151.117H139.141V141.459C139.14 141.253 139.058 141.056 138.913 140.911C138.768 140.766 138.57 140.684 138.365 140.684C138.263 140.684 138.162 140.704 138.068 140.743C137.974 140.782 137.889 140.839 137.817 140.911C137.745 140.983 137.688 141.068 137.649 141.162C137.61 141.256 137.59 141.357 137.59 141.459V146.287C137.59 146.597 137.466 146.894 137.247 147.113C137.028 147.332 136.731 147.455 136.421 147.455C136.114 147.455 135.82 147.334 135.603 147.118C135.385 146.902 135.263 146.609 135.261 146.303V137.121C135.263 135.68 135.836 134.298 136.855 133.279C137.874 132.26 139.256 131.687 140.697 131.686H149.669C151.11 131.687 152.492 132.26 153.511 133.279C154.53 134.298 155.103 135.68 155.105 137.121V146.229C155.101 146.544 154.977 146.845 154.759 147.073C154.541 147.3 154.244 147.436 153.93 147.454C153.621 147.452 153.326 147.328 153.109 147.109C152.891 146.89 152.769 146.594 152.77 146.286L152.769 143.949Z" fill="white"/>
<path d="M164.226 76.9883H126.143C125.938 76.9883 125.74 77.0699 125.595 77.2153C125.45 77.3606 125.368 77.5577 125.368 77.7633V102.322C125.368 102.528 125.45 102.725 125.595 102.87C125.74 103.016 125.938 103.097 126.143 103.097H132.011L130.671 112.241C130.649 112.397 130.674 112.555 130.743 112.696C130.813 112.836 130.923 112.953 131.06 113.029C131.175 113.094 131.305 113.129 131.437 113.129C131.62 113.129 131.797 113.065 131.937 112.947L143.659 103.096H164.226C164.432 103.096 164.629 103.015 164.774 102.869C164.92 102.724 165.001 102.527 165.001 102.321V77.7633C165.001 77.5577 164.92 77.3606 164.774 77.2153C164.629 77.0699 164.432 76.9883 164.226 76.9883V76.9883ZM163.451 78.5383V101.546H143.379C143.196 101.547 143.02 101.611 142.879 101.728L132.499 110.449L133.672 102.434C133.688 102.324 133.681 102.212 133.649 102.105C133.618 101.999 133.564 101.9 133.491 101.816C133.419 101.732 133.329 101.665 133.228 101.618C133.127 101.572 133.017 101.548 132.906 101.547H126.916V78.5383H163.451Z" fill="white"/>
<path d="M132.784 82.6712H149.566C149.668 82.6717 149.769 82.652 149.864 82.6131C149.959 82.5743 150.045 82.5171 150.117 82.4449C150.19 82.3727 150.247 82.2868 150.286 82.1923C150.325 82.0978 150.345 81.9964 150.345 81.8942C150.345 81.6885 150.263 81.4913 150.118 81.3458C149.973 81.2003 149.775 81.1184 149.57 81.1182H132.784C132.578 81.1184 132.381 81.2003 132.236 81.3458C132.09 81.4913 132.009 81.6885 132.009 81.8942C132.009 81.9961 132.028 82.0971 132.067 82.1914C132.106 82.2856 132.163 82.3713 132.235 82.4435C132.307 82.5156 132.393 82.5729 132.487 82.612C132.581 82.6511 132.682 82.6712 132.784 82.6712" fill="white"/>
<path d="M153.189 82.6712H157.411C157.513 82.671 157.614 82.6508 157.708 82.6117C157.802 82.5726 157.887 82.5153 157.959 82.4431C158.031 82.3709 158.088 82.2853 158.127 82.1911C158.166 82.0969 158.185 81.996 158.185 81.8942C158.185 81.6885 158.103 81.4913 157.958 81.3458C157.813 81.2003 157.616 81.1184 157.41 81.1182H153.189C152.983 81.1184 152.786 81.2003 152.641 81.3458C152.496 81.4913 152.414 81.6885 152.414 81.8942C152.414 81.9961 152.434 82.0971 152.472 82.1914C152.511 82.2856 152.568 82.3713 152.64 82.4435C152.712 82.5156 152.798 82.5729 152.892 82.612C152.986 82.6511 153.087 82.6712 153.189 82.6712" fill="white"/>
<path d="M127.02 142.411H106.391V109.655C106.391 109.449 106.309 109.252 106.164 109.107C106.018 108.962 105.821 108.88 105.616 108.88C105.41 108.88 105.213 108.962 105.068 109.107C104.922 109.252 104.841 109.449 104.841 109.655V143.185C104.841 143.391 104.922 143.588 105.068 143.733C105.213 143.879 105.41 143.961 105.616 143.961H127.016C127.221 143.961 127.418 143.879 127.564 143.734C127.709 143.589 127.791 143.391 127.791 143.186C127.791 142.98 127.709 142.783 127.564 142.638C127.418 142.493 127.221 142.411 127.016 142.411" fill="white"/>
<path d="M157.411 85.1035H140.622C140.416 85.1038 140.219 85.1857 140.074 85.3312C139.928 85.4767 139.847 85.6739 139.847 85.8795C139.847 86.0851 139.928 86.2822 140.074 86.4275C140.219 86.5729 140.416 86.6545 140.622 86.6545H157.411C157.616 86.6545 157.813 86.5729 157.959 86.4275C158.104 86.2822 158.186 86.0851 158.186 85.8795C158.186 85.674 158.104 85.4768 157.959 85.3315C157.813 85.1862 157.616 85.1045 157.411 85.1045" fill="white"/>
<path d="M132.695 86.6565H136.917C137.019 86.6564 137.12 86.6362 137.214 86.597C137.308 86.5579 137.393 86.5006 137.465 86.4285C137.537 86.3563 137.594 86.2707 137.633 86.1765C137.671 86.0823 137.691 85.9814 137.691 85.8795C137.691 85.6739 137.609 85.4767 137.464 85.3312C137.319 85.1857 137.122 85.1038 136.916 85.1035H132.695C132.489 85.1038 132.292 85.1857 132.147 85.3312C132.002 85.4767 131.92 85.6739 131.92 85.8795C131.92 85.9815 131.94 86.0825 131.978 86.1767C132.017 86.271 132.074 86.3566 132.146 86.4288C132.218 86.501 132.304 86.5583 132.398 86.5973C132.492 86.6364 132.593 86.6565 132.695 86.6565" fill="white"/>
<path d="M132.784 90.5452H149.566C149.668 90.5456 149.769 90.5257 149.864 90.4869C149.958 90.448 150.044 90.3908 150.117 90.3186C150.189 90.2464 150.247 90.1606 150.286 90.0661C150.325 89.9717 150.345 89.8704 150.345 89.7682C150.345 89.5626 150.263 89.3655 150.118 89.2202C149.972 89.0748 149.775 88.9932 149.57 88.9932H132.784C132.578 88.9932 132.381 89.0748 132.236 89.2202C132.09 89.3655 132.009 89.5626 132.009 89.7682C132.009 89.8701 132.029 89.971 132.067 90.0652C132.106 90.1594 132.163 90.245 132.235 90.3172C132.307 90.3893 132.393 90.4466 132.487 90.4857C132.581 90.5248 132.682 90.545 132.784 90.5452" fill="white"/>
<path d="M157.412 88.9932H153.19C152.984 88.9932 152.787 89.0748 152.642 89.2202C152.497 89.3655 152.415 89.5626 152.415 89.7682C152.415 89.9738 152.497 90.171 152.642 90.3165C152.787 90.462 152.984 90.5439 153.19 90.5442H157.412C157.618 90.5442 157.815 90.4625 157.96 90.3172C158.105 90.1718 158.187 89.9747 158.187 89.7692C158.187 89.5636 158.105 89.3665 157.96 89.2212C157.815 89.0758 157.618 88.9942 157.412 88.9942" fill="white"/>
<path d="M157.411 92.874H140.622C140.416 92.874 140.219 92.9557 140.074 93.101C139.928 93.2464 139.847 93.4435 139.847 93.649C139.847 93.8547 139.928 94.0519 140.074 94.1974C140.219 94.3429 140.416 94.4248 140.622 94.425H157.411C157.616 94.425 157.813 94.3434 157.959 94.198C158.104 94.0527 158.186 93.8556 158.186 93.65C158.186 93.4445 158.104 93.2474 157.959 93.102C157.813 92.9567 157.616 92.875 157.411 92.875" fill="white"/>
<path d="M132.695 94.427H136.917C137.019 94.4269 137.12 94.4067 137.214 94.3676C137.308 94.3284 137.393 94.2711 137.465 94.199C137.537 94.1268 137.594 94.0412 137.633 93.947C137.671 93.8528 137.691 93.7519 137.691 93.65C137.691 93.4444 137.609 93.2472 137.464 93.1017C137.319 92.9562 137.122 92.8743 136.916 92.874H132.695C132.489 92.8743 132.292 92.9562 132.147 93.1017C132.002 93.2472 131.92 93.4444 131.92 93.65C131.92 93.752 131.94 93.853 131.978 93.9472C132.017 94.0415 132.074 94.1271 132.146 94.1993C132.218 94.2715 132.304 94.3288 132.398 94.3678C132.492 94.4069 132.593 94.427 132.695 94.427" fill="white"/>
<path d="M132.784 98.3108H149.566C149.668 98.3113 149.769 98.2916 149.864 98.2528C149.959 98.2139 150.045 98.1568 150.117 98.0845C150.19 98.0123 150.247 97.9265 150.286 97.8319C150.325 97.7374 150.345 97.6361 150.345 97.5338C150.345 97.3282 150.263 97.131 150.118 96.9855C149.973 96.84 149.775 96.7581 149.57 96.7578H132.784C132.578 96.7581 132.381 96.84 132.236 96.9855C132.09 97.131 132.009 97.3282 132.009 97.5338C132.009 97.6358 132.028 97.7367 132.067 97.831C132.106 97.9253 132.163 98.0109 132.235 98.0831C132.307 98.1553 132.393 98.2126 132.487 98.2516C132.581 98.2907 132.682 98.3108 132.784 98.3108" fill="white"/>
<path d="M157.412 96.7578H153.19C152.984 96.7578 152.787 96.8395 152.642 96.9848C152.497 97.1301 152.415 97.3273 152.415 97.5328C152.415 97.7384 152.497 97.9357 152.642 98.0812C152.787 98.2267 152.984 98.3085 153.19 98.3088H157.412C157.618 98.3088 157.815 98.2272 157.96 98.0818C158.105 97.9365 158.187 97.7394 158.187 97.5338C158.187 97.3283 158.105 97.1311 157.96 96.9858C157.815 96.8405 157.618 96.7588 157.412 96.7588" fill="white"/>
<path d="M147.302 142.751H143.655C143.544 142.751 143.509 142.729 143.509 142.588V139.773H146.751C146.843 139.767 146.932 139.742 147.014 139.701C147.096 139.659 147.168 139.601 147.227 139.531C147.286 139.46 147.33 139.378 147.356 139.29C147.383 139.202 147.391 139.11 147.38 139.019C147.38 138.562 147.127 138.255 146.751 138.255H143.509V135.922C143.509 135.722 143.542 135.722 143.623 135.722H147.21C147.587 135.722 147.849 135.403 147.849 134.945C147.849 134.487 147.592 134.181 147.21 134.181H143.359C142.491 134.181 142.087 134.681 142.087 135.75V142.736C142.087 143.798 142.487 144.294 143.359 144.294H147.302C147.678 144.294 147.941 143.975 147.941 143.517C147.941 143.059 147.685 142.751 147.302 142.751" fill="white"/>
<path d="M65.078 37.598V39.71H65.848V52.272L64.682 52.448L65.254 54.736C66.706 54.428 68.092 54.076 69.456 53.724V57.068H71.612V53.086C71.876 52.998 72.14 52.932 72.426 52.844V50.622L71.612 50.886V39.71H72.228V37.598H65.078ZM68.004 51.854V48.84H69.456V51.502C68.972 51.634 68.488 51.744 68.004 51.854ZM68.004 46.772V44.33H69.456V46.772H68.004ZM68.004 42.262V39.71H69.456V42.262H68.004ZM78.696 46.156H72.954V55.638H74.868V54.538H78.3C77.948 54.934 77.574 55.33 77.178 55.704L78.718 57.046C79.488 56.276 80.236 55.396 80.94 54.428C81.116 54.978 81.336 55.484 81.6 55.924C82.062 56.672 82.568 57.046 83.118 57.046C84.13 57.046 84.834 55.704 85.208 53.042L83.536 51.854C83.382 53.526 83.206 54.384 82.986 54.428C82.722 54.296 82.502 53.592 82.304 52.316C83.25 50.6 84.086 48.664 84.834 46.464L83.008 45.716C82.7 46.728 82.348 47.696 81.952 48.642C81.908 47.652 81.864 46.464 81.82 45.1H84.856V43.12H81.798C81.754 41.338 81.754 39.314 81.754 37.026H79.774C79.774 39.27 79.774 41.294 79.818 43.12H78.322C78.52 42.504 78.696 41.844 78.828 41.14L76.914 40.898C76.804 41.646 76.65 42.394 76.43 43.12H75.55C75.374 42.306 75.198 41.58 75.022 40.942L73.086 41.228C73.306 41.822 73.482 42.46 73.658 43.12H72.272V45.1H79.862C79.95 48.202 80.082 50.446 80.302 51.81C79.818 52.602 79.268 53.35 78.696 54.054V46.156ZM74.868 52.778V51.128H76.782V52.778H74.868ZM74.868 49.434V47.916H76.782V49.434H74.868ZM83.624 38.038L81.996 38.566C82.458 39.754 82.832 41.008 83.14 42.328L84.768 41.91C84.438 40.458 84.064 39.16 83.624 38.038ZM76.54 37.07L74.362 37.422C74.516 37.818 74.67 38.236 74.824 38.72H72.602V40.524H79.158V38.72H76.936C76.804 38.104 76.672 37.554 76.54 37.07ZM90.334 49.94H94.646V51.37H90.334V49.94ZM94.646 48.048H90.334V46.53H94.646V48.048ZM90.334 53.262H94.646V54.274C94.646 54.846 94.382 55.154 93.898 55.154L92.358 55.044L92.93 57.178H94.624C96.12 57.178 96.868 56.364 96.868 54.758V44.55H88.112V57.332H90.334V53.262ZM104.304 46.75C105.118 46.75 105.734 46.574 106.13 46.244C106.526 45.892 106.812 44.77 106.988 42.922L104.854 42.218C104.81 43.406 104.7 44.11 104.546 44.352C104.392 44.572 104.172 44.682 103.864 44.682H101.356C100.828 44.682 100.586 44.308 100.586 43.604V41.602C102.896 41.25 104.942 40.876 106.746 40.48L105.998 38.456C104.59 38.83 102.786 39.182 100.586 39.534V37.026H98.32V44.066C98.32 45.848 99.112 46.75 100.718 46.75H104.304ZM100.586 51.854C102.786 51.634 104.832 51.282 106.746 50.776L105.998 48.73C104.414 49.214 102.61 49.566 100.586 49.786V47.476H98.32V54.868C98.32 56.254 99.112 56.958 100.696 56.958H104.304C105.118 56.958 105.712 56.782 106.108 56.452C106.504 56.1 106.812 55 106.988 53.13L104.898 52.47C104.832 53.658 104.722 54.362 104.546 54.604C104.414 54.824 104.172 54.934 103.864 54.934H101.334C100.828 54.934 100.586 54.736 100.586 54.362V51.854ZM95.306 38.456L93.546 39.578C93.942 40.172 94.338 40.744 94.69 41.316C93.062 41.492 91.522 41.646 90.07 41.734C91.192 40.656 92.182 39.27 93.062 37.554L90.862 36.894C90.202 38.258 89.234 39.732 87.914 41.272C87.628 41.536 87.276 41.712 86.88 41.844L87.496 43.758C90.642 43.582 93.37 43.296 95.658 42.944C95.9 43.406 96.142 43.868 96.362 44.308L98.254 42.966C97.55 41.69 96.582 40.194 95.306 38.456ZM109.386 38.17V40.15H114.182V41.426H116.382V40.15H121.618V41.514H123.818V40.15H128.614V38.17H123.818V36.96H121.618V38.17H116.382V36.96H114.182V38.17H109.386ZM111.52 41.008L109.958 42.504C111.476 43.384 112.664 44.22 113.5 44.968L115.062 43.406C114.094 42.592 112.928 41.8 111.52 41.008ZM110.684 45.474L109.122 46.97C110.662 47.85 111.872 48.664 112.73 49.412L114.292 47.85C113.324 47.058 112.114 46.266 110.684 45.474ZM112.048 50.292C111.168 52.228 110.134 54.142 108.946 55.99L111.19 56.98C112.224 55.132 113.17 53.174 114.006 51.084L112.048 50.292ZM125.182 50.314H118.23C119.484 49.83 120.628 49.302 121.662 48.73C122.696 49.324 123.862 49.852 125.182 50.314ZM123.62 47.432C124.984 46.398 126.018 45.232 126.744 43.956V42.372H120.694C120.87 42.02 121.024 41.69 121.178 41.338L119.066 40.942C118.23 42.878 116.602 44.528 114.204 45.848L115.524 47.564C116.426 47.014 117.24 46.42 117.988 45.76C118.516 46.354 119.11 46.926 119.792 47.476C118.164 48.268 116.184 48.95 113.896 49.522L115.216 51.304C115.59 51.194 115.964 51.084 116.36 50.952V57.332H118.472V56.54H124.544V57.332H126.656V50.754C127.096 50.886 127.536 50.996 128.02 51.106L129.318 49.214C127.162 48.774 125.248 48.18 123.62 47.432ZM119.308 44.396L119.396 44.308H124.148C123.488 45.056 122.674 45.738 121.706 46.398C120.782 45.804 119.968 45.144 119.308 44.396ZM118.472 54.56V52.294H124.544V54.56H118.472ZM132.068 39.094V41.228H139.988C139.922 41.646 139.834 42.064 139.746 42.504H133.366V44.616H139.152C138.998 45.012 138.844 45.43 138.668 45.826H131.43V47.982H137.48C137.414 48.07 137.348 48.18 137.282 48.29C135.786 50.38 133.586 52.184 130.66 53.702L132.2 55.66C132.816 55.264 133.432 54.868 134.004 54.472V56.628H150.658V54.384H143.442V51.7H149.294V49.5H139.152C139.24 49.368 139.328 49.258 139.416 49.126C139.636 48.752 139.834 48.378 140.032 47.982H150.768V45.826H141C141.154 45.43 141.308 45.012 141.44 44.616H148.81V42.504H142.034C142.144 42.086 142.254 41.668 142.342 41.228H150.02V39.094H145.884C146.236 38.478 146.5 37.796 146.72 37.092L144.3 36.762C144.124 37.554 143.86 38.346 143.53 39.094H138.976C138.712 38.258 138.426 37.488 138.162 36.828L135.764 37.224C136.072 37.796 136.38 38.434 136.644 39.094H132.068ZM134.114 54.384C135.302 53.548 136.358 52.646 137.304 51.7H141.088V54.384H134.114ZM159.59 37.312C158.688 38.984 157.742 40.37 156.752 41.514C155.52 42.9 154.2 43.956 152.836 44.704L154.09 46.75C156.026 45.364 157.478 44.11 158.49 42.966C159.524 41.822 160.558 40.326 161.57 38.522L159.59 37.312ZM160.184 47.652C159.744 49.412 159.128 50.842 158.358 51.942C157.346 53.218 155.85 54.384 153.87 55.44L155.366 57.354C157.61 56.078 159.304 54.626 160.448 53.02C161.328 51.678 162.01 49.896 162.516 47.652H167.268C167.18 50.688 166.938 52.668 166.586 53.592C166.234 54.472 165.53 54.934 164.452 54.934C163.308 54.934 162.076 54.89 160.778 54.846L161.394 57.112H165.618C166.74 57.046 167.554 56.672 168.06 56.012C168.588 55.308 168.94 54.098 169.16 52.338C169.38 50.578 169.512 48.29 169.6 45.43H156.224V47.652H160.184ZM166.476 37.048L164.474 38.17C165.816 41.646 168.192 44.462 171.58 46.64L173.142 44.814C169.886 42.922 167.664 40.326 166.476 37.048ZM180.424 46.574C180.908 47.256 181.502 48.136 182.162 49.192L183.416 47.344C182.426 46.178 181.436 45.1 180.424 44.088V43.208H183.152V40.986H180.424V36.916H178.158V40.986H175.21V43.208H178.026C177.322 45.65 176.2 47.828 174.682 49.742L175.672 52.272C176.662 50.71 177.498 49.016 178.158 47.168V57.244H180.424V46.574ZM193.316 36.938C190.61 37.906 187.53 38.412 184.054 38.5V45.782C183.922 49.896 182.976 53.108 181.216 55.418L182.844 57.156C184.934 54.362 186.078 50.622 186.254 45.936H189.62V57.244H191.93V45.936H194.944V43.714H186.254V40.458C189.268 40.282 191.996 39.798 194.438 39.006L193.316 36.938Z" fill="white"/>
<path d="M56.8881 171.992L55.7521 173.064C56.9041 173.992 57.8001 174.872 58.4241 175.672L59.5921 174.52C58.8561 173.688 57.9441 172.84 56.8881 171.992ZM66.0081 186.44H69.6881L70.0721 184.84C69.6241 184.872 69.0001 184.904 68.2001 184.92C67.3841 184.936 66.5841 184.952 65.7841 184.952C64.5361 184.952 63.4481 184.936 62.5201 184.92C61.5761 184.888 60.8721 184.76 60.4081 184.52C60.0241 184.296 59.6561 183.96 59.2881 183.512C59.2241 183.448 59.1761 183.384 59.1121 183.336V177.24H55.4481V178.776H57.5601V183.16C56.9201 183.512 56.2161 184.328 55.4161 185.608L56.6481 186.76C57.4481 185.32 57.9921 184.6 58.3121 184.6C58.4881 184.6 58.6801 184.728 58.9041 185.016C59.3841 185.56 59.9441 185.928 60.5841 186.12C61.2561 186.296 62.1041 186.392 63.1441 186.408C64.1681 186.424 65.1281 186.44 66.0081 186.44ZM65.5601 175.912C66.5201 177.128 67.7681 178.088 69.3041 178.808L70.0241 177.448C68.8081 177 67.8161 176.488 67.0641 175.912H69.2241V174.472H65.5121V173.688C66.6641 173.576 67.6881 173.416 68.6001 173.208L67.8641 171.944C65.8481 172.36 63.4001 172.584 60.5201 172.584L60.9681 173.88C61.9921 173.88 62.9841 173.848 63.9121 173.8V174.472H60.2001V175.912H62.3441C61.6721 176.536 60.7281 177.08 59.4961 177.528L60.3121 178.888C61.9121 178.088 63.0801 177.096 63.8481 175.912H63.9121V177.992H65.5121V175.912H65.5601ZM61.2401 178.44V179.912H62.4721C62.2161 181.32 61.3201 182.312 59.7841 182.92L60.6641 184.328C62.6321 183.4 63.7521 181.928 64.0081 179.912H65.7681C65.6241 180.488 65.4481 181.032 65.2561 181.544H67.5921C67.4801 182.28 67.3201 182.712 67.1281 182.84C66.8881 183 66.5361 183.08 66.0881 183.08C65.7361 183.08 65.2241 183.016 64.5361 182.92L65.0161 184.424C65.8161 184.424 66.4721 184.408 67.0001 184.408C67.6081 184.376 68.0881 184.184 68.4081 183.848C68.7281 183.496 68.9681 182.568 69.1281 181.048V180.248H67.1281C67.2401 179.928 67.3521 179.56 67.4481 179.176V178.44H61.2401ZM72.7921 171.992L71.6721 173.064C72.7601 173.992 73.6081 174.872 74.2161 175.672L75.3681 174.52C74.6641 173.688 73.8001 172.84 72.7921 171.992ZM82.0081 186.424H85.6881L86.0881 184.824C85.6401 184.856 85.0161 184.888 84.2001 184.904C83.3681 184.904 82.5681 184.92 81.7681 184.92C80.4881 184.92 79.3681 184.904 78.4081 184.888C77.4481 184.856 76.7281 184.728 76.2481 184.504C75.8481 184.296 75.4641 183.976 75.0801 183.56C75.0161 183.496 74.9521 183.448 74.8881 183.384V177.24H71.3681V178.776H73.3201V183.272C72.7121 183.64 72.0561 184.424 71.3521 185.608L72.5681 186.76C73.3041 185.368 73.8001 184.68 74.0721 184.68C74.2641 184.68 74.4721 184.808 74.6961 185.064C75.1761 185.576 75.7361 185.944 76.4081 186.136C77.1121 186.296 77.9921 186.376 79.0641 186.392C80.1201 186.408 81.1121 186.424 82.0081 186.424ZM84.5201 172.248H77.0641V176.952H76.0081V184.152H77.6081V178.392H84.0401V182.568C84.0401 182.856 83.8641 183.016 83.5281 183.016L82.2641 182.952L82.6161 184.328H83.9761C85.0801 184.328 85.6401 183.848 85.6401 182.92V176.952H84.5201V172.248ZM78.6321 176.952V175.848H80.1841V176.952H78.6321ZM78.6321 174.568V173.672H82.9681V176.952H81.5921V174.568H78.6321ZM78.5201 179.08V182.68H83.0481V179.08H78.5201ZM81.6721 181.416H79.9121V180.264H81.6721V181.416ZM93.8321 174.536V184.104H87.5121V185.72H101.832V184.104H95.5281V174.536H100.856V172.936H88.5201V174.536H93.8321ZM110.632 175.576H111.096V186.712H112.792V183.144H117.208V181.528H112.792V179.336H117.208V177.704H112.792V175.576H117.816V173.928H111.368C111.592 173.336 111.816 172.728 112.04 172.088L110.344 171.704C109.384 174.456 108.264 176.568 106.984 178.072L108.184 179.512C109.08 178.424 109.896 177.112 110.632 175.576ZM105.032 178.344V186.712H106.728V175.944C107.368 174.856 107.896 173.704 108.296 172.504L106.712 171.768C105.928 174.168 104.728 176.264 103.112 178.04L103.672 179.832C104.152 179.352 104.6 178.856 105.032 178.344ZM124.296 180.76H119.752V186.424H121.288V185.704H124.296V180.76ZM121.288 184.296V182.136H122.776V184.296H121.288ZM119.336 173.72V175.224H124.6V173.72H122.952C122.792 173.144 122.552 172.52 122.232 171.816L120.648 172.248C120.904 172.728 121.144 173.224 121.352 173.72H119.336ZM119.896 176.136V177.544H124.12V176.264L125.24 177.24L125.704 176.824V180.872H126.936C126.744 182.952 125.912 184.424 124.408 185.288L125.288 186.696C127.208 185.48 128.28 183.528 128.488 180.872H129.56V184.888C129.56 185.912 130.072 186.424 131.096 186.424H132.232C132.744 186.424 133.128 186.296 133.384 186.04C133.656 185.752 133.848 184.888 133.96 183.464L132.536 182.984C132.504 183.912 132.44 184.472 132.344 184.648C132.248 184.824 132.12 184.92 131.944 184.92H131.576C131.256 184.92 131.112 184.792 131.112 184.552V180.872H132.376V176.568C132.568 176.76 132.808 176.968 133.064 177.16L134.152 175.896C132.712 174.888 131.736 173.528 131.208 171.816L129.848 172.6C130.232 173.768 130.808 174.808 131.576 175.736H126.664C127.304 174.888 127.864 173.864 128.344 172.664L126.856 172.056C126.264 173.72 125.352 175.08 124.12 176.136H119.896ZM119.896 178.392V179.8H124.12V178.392H119.896ZM130.856 179.4H127.272V177.208H130.856V179.4ZM140.984 172.584H135.8V185.256H137.464V184.088H140.984V172.584ZM137.464 182.456V179.016H139.368V182.456H137.464ZM137.464 177.4V174.216H139.368V177.4H137.464ZM144.072 177.688H147.64V179.96H144.072V177.688ZM147.64 176.136H144.072V173.864H147.64V176.136ZM143.96 181.528H147.64V184.2C147.64 184.712 147.432 184.968 147.048 184.968C146.472 184.968 145.816 184.936 145.112 184.888L145.576 186.52H147.592C148.744 186.52 149.336 185.944 149.336 184.792V172.248H142.376V180.056C142.344 182.296 141.768 184.152 140.616 185.592L141.944 186.808C143.064 185.4 143.736 183.64 143.96 181.528ZM163.944 177.032V175.48H165.672V174.136H163.944V172.552H159.496V171.816H157.816V172.552H153.192V173.704H157.912V174.264H151.8V175.352H157.912V175.896H153.192V177.032H157.832V177.544H152.952V178.68H157.832V179.208H151.768V180.392H165.56V179.208H159.464V178.68H164.392V177.544H159.464V177.032H163.944ZM159.384 173.704H162.376V174.264H159.384V173.704ZM159.384 175.352H162.376V175.896H159.384V175.352ZM164.104 181.016H153.416V186.728H155.032V186.136H162.472V186.728H164.104V181.016ZM155.032 184.856V184.168H162.472V184.856H155.032ZM155.032 182.968V182.248H162.472V182.968H155.032ZM174.104 172.36V181.56H175.608C175.352 183.288 174.344 184.504 172.552 185.24L173.432 186.648C175.64 185.592 176.888 183.896 177.144 181.56H177.912V185.048C177.912 185.96 178.456 186.424 179.576 186.424H180.312C181.08 186.36 181.592 186.168 181.816 185.848C182.04 185.512 182.168 184.568 182.168 183L180.744 182.488C180.744 183.24 180.712 183.832 180.68 184.264C180.648 184.68 180.504 184.904 180.232 184.936H179.64C179.528 184.92 179.48 184.856 179.48 184.728V181.56H181.064V172.36H174.104ZM179.544 180.184H175.64V178.856H179.544V180.184ZM175.64 177.544V176.248H179.544V177.544H175.64ZM175.64 174.936V173.736H179.544V174.936H175.64ZM167.736 174.296V175.896H169.896V178.2H167.528V179.784H169.8C169.544 182.296 168.68 184.184 167.24 185.448L168.456 186.52C169.672 185.432 170.536 183.976 171.032 182.136C171.56 182.712 172.2 183.496 172.952 184.488L173.88 183.064C173.016 182.152 172.168 181.32 171.336 180.584L171.432 179.784H173.592V178.2H171.528V175.896H173.368V174.296H171.528V171.848H169.896V174.296H167.736ZM187.08 179.048C187.4 179.56 187.768 180.168 188.184 180.904L188.616 180.248L189.08 180.888C189.304 180.792 189.528 180.712 189.752 180.616V186.632H191.384V186.072H195.096V186.632H196.728V180.552C196.936 180.648 197.16 180.744 197.4 180.84L198.152 179.256C196.808 178.808 195.64 178.28 194.616 177.64C195.592 176.712 196.344 175.64 196.856 174.456V173.176H192.6C192.744 172.872 192.888 172.552 193.048 172.216L191.432 171.848C190.648 173.576 189.72 174.92 188.664 175.864L189.736 177.16C190.088 176.824 190.424 176.456 190.76 176.056C191.144 176.584 191.592 177.096 192.136 177.608C191.224 178.216 190.152 178.76 188.92 179.24C188.312 178.472 187.688 177.752 187.08 177.096V176.424H188.648V174.808H187.08V171.864H185.432V174.808H183.496V176.424H185.4C184.92 178.168 184.152 179.72 183.112 181.096L183.832 182.92C184.456 181.88 184.984 180.744 185.432 179.528V186.616H187.08V179.048ZM196.488 180.44H190.2C191.4 179.928 192.472 179.32 193.4 178.648C194.28 179.304 195.304 179.896 196.488 180.44ZM193.304 176.728C192.632 176.184 192.056 175.592 191.592 174.92C191.624 174.856 191.656 174.808 191.704 174.744H195.032C194.584 175.448 194.008 176.12 193.304 176.728ZM191.384 184.52V181.992H195.096V184.52H191.384ZM201.768 182.584C201.368 182.584 201.048 182.696 200.808 182.936C200.552 183.16 200.424 183.464 200.424 183.848C200.424 184.2 200.536 184.504 200.776 184.744C201.016 184.984 201.304 185.112 201.656 185.112C201.832 185.112 201.96 185.08 202.056 185.048C202.056 185.432 201.928 185.8 201.64 186.184C201.336 186.536 200.968 186.792 200.536 186.952V188.008C201.368 187.768 202.04 187.336 202.536 186.712C203.016 186.072 203.272 185.336 203.272 184.488C203.272 183.928 203.128 183.464 202.856 183.112C202.568 182.76 202.2 182.584 201.768 182.584ZM62.224 193.992L61.088 195.064C62.24 195.992 63.136 196.872 63.76 197.672L64.928 196.52C64.192 195.688 63.28 194.84 62.224 193.992ZM71.344 208.408H75.008L75.408 206.76C74.976 206.792 74.352 206.824 73.536 206.856C72.704 206.856 71.904 206.872 71.104 206.872C69.856 206.872 68.784 206.856 67.856 206.84C66.912 206.808 66.208 206.68 65.728 206.44C65.36 206.232 64.992 205.912 64.624 205.496L64.448 205.32V199.24H60.784V200.776H62.896V205.176C62.256 205.512 61.552 206.328 60.768 207.608L61.984 208.76C62.784 207.32 63.328 206.6 63.648 206.6C63.824 206.6 64.016 206.728 64.24 207C64.72 207.544 65.28 207.912 65.92 208.104C66.592 208.264 67.44 208.36 68.48 208.376C69.504 208.392 70.464 208.408 71.344 208.408ZM66.256 198.952V205.736H74.944V204.248H72V202.808H74.336V201.368H72V200.008H74.32V198.552H72V197.16H74.8V195.656H72.032C71.824 195.112 71.552 194.504 71.2 193.864L69.696 194.28C69.968 194.728 70.224 195.176 70.448 195.656H68.192C68.384 195.208 68.544 194.744 68.688 194.264L67.152 193.992C66.704 195.624 65.904 197.128 64.784 198.504L65.28 200.104C65.616 199.736 65.936 199.352 66.256 198.952ZM70.432 204.248H67.84V202.808H70.432V204.248ZM70.432 201.368H67.84V200.008H70.432V201.368ZM70.432 198.552H67.84V197.16H70.432V198.552ZM82.688 194.696V196.344H90.56V194.696H82.688ZM82.304 198.664V200.312H87.088V206.6C87.088 206.92 86.864 207.08 86.432 207.08C85.76 207.08 85.056 207.032 84.32 206.968L84.688 208.6H87.008C88.192 208.6 88.784 208.072 88.784 207.016V200.312H91.248V198.664H82.304ZM79.904 193.944C79.168 195.4 78.048 196.664 76.544 197.736L77.056 199.416C79.12 197.992 80.576 196.408 81.424 194.664L79.904 193.944ZM80.656 197.624C79.792 199.32 78.464 200.808 76.672 202.056L77.184 203.704C77.792 203.272 78.384 202.824 78.928 202.376V208.664H80.576V200.728C81.216 199.96 81.744 199.16 82.16 198.328L80.656 197.624ZM96 193.816C95.248 196.248 94.096 198.36 92.528 200.152L93.072 201.896C93.536 201.4 93.968 200.888 94.384 200.376V208.696H96.048V197.88C96.64 196.824 97.12 195.704 97.504 194.52L96 193.816ZM106.992 194.328H97.568V208.648H99.056V207.752H105.488V208.648H106.992V194.328ZM99.056 206.264V195.768H105.488V206.264H99.056ZM99.536 197.976V199.384H101.584V200.904H100.08V205.624H104.56V200.904H103.008V199.384H105.04V197.976H103.008V196.392H101.584V197.976H99.536ZM103.264 204.36H101.376V202.168H103.264V204.36ZM116.784 193.88H115.088C115.088 194.488 115.072 195.32 115.072 196.392C114.944 200.984 112.752 204.568 108.464 207.128L109.488 208.632C112.816 206.488 115.008 203.784 116.064 200.52C117.296 203.896 119.408 206.584 122.4 208.6L123.52 207.128C119.888 204.904 117.6 201.688 116.672 197.48C116.736 196.488 116.784 195.288 116.784 193.88ZM127.44 202.072V203.288H133.824C133.184 203.48 132.4 203.72 131.456 204.008V204.76H124.96V206.104H131.456V206.68C131.456 207.08 131.28 207.288 130.96 207.288C130.336 207.288 129.76 207.272 129.232 207.24L129.6 208.584H131.44C132.448 208.584 132.96 208.104 132.96 207.176V206.104H139.056V204.76H132.96V204.568C134.24 204.152 135.392 203.72 136.416 203.288V202.072H127.44ZM127.44 197.576H129.616V196.456H127.36L127.296 195.736C128.432 195.544 129.264 195.368 129.776 195.192L129.248 193.928C128.032 194.296 126.848 194.536 125.728 194.632L126.128 200.168H125.088V202.904H126.688V201.384H137.312V202.92H138.912V200.168H137.824L138.192 194.344H134.192V195.656H136.64L136.576 196.456H134.352V197.576H136.496L136.448 198.28H134.32V199.416H136.368L136.32 200.168H127.648L127.584 199.416H129.664V198.28H127.488L127.44 197.576ZM130.832 194.28L130.08 195.016C130.448 195.224 130.8 195.432 131.12 195.656C130.704 195.912 130.288 196.104 129.84 196.264L130.448 197.256C131.088 196.92 131.632 196.6 132.08 196.312C132.4 196.536 132.688 196.776 132.96 197.032C132.704 197.336 132.416 197.608 132.128 197.864C131.76 197.64 131.376 197.4 130.992 197.176L130.224 197.944C130.56 198.136 130.88 198.328 131.184 198.52C130.832 198.728 130.448 198.904 130.032 199.032L130.64 200.024C131.232 199.72 131.744 199.432 132.176 199.176C132.576 199.464 132.944 199.752 133.264 200.04L134.048 199.256C133.744 199 133.408 198.76 133.056 198.504C133.36 198.216 133.664 197.896 133.984 197.528L133.232 197.032L133.888 196.36C133.6 196.12 133.28 195.88 132.928 195.624C133.216 195.368 133.488 195.048 133.776 194.696L132.864 194.12C132.608 194.44 132.32 194.728 132.016 195C131.632 194.76 131.248 194.52 130.832 194.28ZM140.784 194.344V195.88H141.344V205.016L140.496 205.144L140.912 206.808C141.968 206.584 142.976 206.328 143.968 206.072V208.504H145.536V205.608C145.728 205.544 145.92 205.496 146.128 205.432V203.816L145.536 204.008V195.88H145.984V194.344H140.784ZM142.912 204.712V202.52H143.968V204.456C143.616 204.552 143.264 204.632 142.912 204.712ZM142.912 201.016V199.24H143.968V201.016H142.912ZM142.912 197.736V195.88H143.968V197.736H142.912ZM150.688 200.568H146.512V207.464H147.904V206.664H150.4C150.144 206.952 149.872 207.24 149.584 207.512L150.704 208.488C151.264 207.928 151.808 207.288 152.32 206.584C152.448 206.984 152.608 207.352 152.8 207.672C153.136 208.216 153.504 208.488 153.904 208.488C154.64 208.488 155.152 207.512 155.424 205.576L154.208 204.712C154.096 205.928 153.968 206.552 153.808 206.584C153.616 206.488 153.456 205.976 153.312 205.048C154 203.8 154.608 202.392 155.152 200.792L153.824 200.248C153.6 200.984 153.344 201.688 153.056 202.376C153.024 201.656 152.992 200.792 152.96 199.8H155.168V198.36H152.944C152.912 197.064 152.912 195.592 152.912 193.928H151.472C151.472 195.56 151.472 197.032 151.504 198.36H150.416C150.56 197.912 150.688 197.432 150.784 196.92L149.392 196.744C149.312 197.288 149.2 197.832 149.04 198.36H148.4C148.272 197.768 148.144 197.24 148.016 196.776L146.608 196.984C146.768 197.416 146.896 197.88 147.024 198.36H146.016V199.8H151.536C151.6 202.056 151.696 203.688 151.856 204.68C151.504 205.256 151.104 205.8 150.688 206.312V200.568ZM147.904 205.384V204.184H149.296V205.384H147.904ZM147.904 202.952V201.848H149.296V202.952H147.904ZM154.272 194.664L153.088 195.048C153.424 195.912 153.696 196.824 153.92 197.784L155.104 197.48C154.864 196.424 154.592 195.48 154.272 194.664ZM149.12 193.96L147.536 194.216C147.648 194.504 147.76 194.808 147.872 195.16H146.256V196.472H151.024V195.16H149.408C149.312 194.712 149.216 194.312 149.12 193.96ZM156.912 196.776V198.392H158.832C158.32 200.152 157.536 201.72 156.448 203.096L157.184 204.92C157.856 203.832 158.432 202.648 158.896 201.368V208.6H160.576V201.064C160.928 201.672 161.344 202.424 161.792 203.32L162.592 202.12L163.008 202.408C163.264 202.12 163.52 201.784 163.792 201.432C164.08 202.84 164.672 204.088 165.568 205.176C164.56 206.168 163.248 206.856 161.632 207.272L162.576 208.776C164.272 208.312 165.68 207.528 166.768 206.408C167.792 207.304 169.104 208.072 170.672 208.696L171.52 207.176C170.016 206.616 168.784 205.928 167.792 205.128C168.544 204.008 169.072 202.632 169.376 201.032C169.648 201.464 169.904 201.88 170.128 202.296L171.52 201.352C170.88 200.264 169.952 199 168.768 197.56L167.472 198.36C168.176 199.256 168.784 200.12 169.312 200.936L167.824 200.632C167.6 201.88 167.184 202.984 166.576 203.928C165.808 202.984 165.344 201.928 165.168 200.744L164.048 201.08C164.624 200.248 165.136 199.336 165.616 198.328L164.224 197.64C163.6 198.952 162.864 200.12 162.016 201.112C161.536 200.536 161.056 199.992 160.576 199.496V198.392H162.064V196.776H160.576V193.88H158.896V196.776H156.912ZM162.336 195.736V197.368H171.072V195.736H167.632C167.36 194.984 167.088 194.312 166.816 193.72L165.12 194.008C165.424 194.536 165.696 195.112 165.952 195.736H162.336ZM172.832 204.248V205.8H179.152V208.664H180.816V205.8H187.168V204.248H180.816V203.128H179.152V204.248H172.832ZM177.936 198.552V202.872H186.976V201.496H183.616V200.696H186.464V199.416H183.616V198.68H186.448V197.4H183.616V196.68H186.784V195.304H183.552C183.408 194.76 183.264 194.264 183.104 193.816L181.456 194.104C181.616 194.456 181.776 194.856 181.936 195.304H180.048C180.208 194.936 180.352 194.568 180.48 194.184L178.928 193.864C178.432 195.416 177.568 196.84 176.336 198.152L176.832 199.72C177.216 199.336 177.584 198.952 177.936 198.552ZM182.048 196.68V197.4H179.44V196.68H182.048ZM182.048 198.68V199.416H179.44V198.68H182.048ZM182.048 200.696V201.496H179.44V200.696H182.048ZM174.432 193.848L173.616 195.064C174.512 195.448 175.408 195.992 176.272 196.68L177.088 195.416C176.288 194.808 175.392 194.28 174.432 193.848ZM173.392 196.488L172.544 197.736C173.408 198.072 174.24 198.536 175.056 199.128L175.872 197.864C175.12 197.32 174.288 196.872 173.392 196.488ZM176.08 199.448C175.2 200.472 174.096 201.4 172.784 202.264L173.904 203.592C175.136 202.648 176.176 201.64 177.008 200.552L176.08 199.448ZM193.36 198.296V206.552H188.848V208.152H203.184V206.552H198.64V198.296H202.912V196.712H199.376C199.792 196.04 200.176 195.288 200.528 194.456L198.928 193.88C198.528 194.872 198.064 195.816 197.52 196.712H193.712L194.544 196.296C194.08 195.416 193.6 194.616 193.088 193.88L191.664 194.568C192.128 195.208 192.56 195.928 192.976 196.712H189.088V198.296H193.36ZM195.008 206.552V198.296H196.992V206.552H195.008ZM191.392 199.496L189.904 199.816C190.384 201.32 190.784 203.048 191.104 205L192.624 204.664C192.272 202.808 191.856 201.08 191.392 199.496ZM200.624 199.416C200.224 201.48 199.76 203.176 199.216 204.52L200.72 205.048C201.312 203.56 201.792 201.816 202.176 199.832L200.624 199.416ZM81.52 216.136C80.864 217.352 80.176 218.36 79.456 219.192C78.56 220.2 77.6 220.968 76.608 221.512L77.52 223C78.928 221.992 79.984 221.08 80.72 220.248C81.472 219.416 82.224 218.328 82.96 217.016L81.52 216.136ZM81.952 223.656C81.632 224.936 81.184 225.976 80.624 226.776C79.888 227.704 78.8 228.552 77.36 229.32L78.448 230.712C80.08 229.784 81.312 228.728 82.144 227.56C82.784 226.584 83.28 225.288 83.648 223.656H87.104C87.04 225.864 86.864 227.304 86.608 227.976C86.352 228.616 85.84 228.952 85.056 228.952C84.224 228.952 83.328 228.92 82.384 228.888L82.832 230.536H85.904C86.72 230.488 87.312 230.216 87.68 229.736C88.064 229.224 88.32 228.344 88.48 227.064C88.64 225.784 88.736 224.12 88.8 222.04H79.072V223.656H81.952ZM86.528 215.944L85.072 216.76C86.048 219.288 87.776 221.336 90.24 222.92L91.376 221.592C89.008 220.216 87.392 218.328 86.528 215.944ZM96.672 222.872C97.024 223.368 97.456 224.008 97.936 224.776L98.848 223.432C98.128 222.584 97.408 221.8 96.672 221.064V220.424H98.656V218.808H96.672V215.848H95.024V218.808H92.88V220.424H94.928C94.416 222.2 93.6 223.784 92.496 225.176L93.216 227.016C93.936 225.88 94.544 224.648 95.024 223.304V230.632H96.672V222.872ZM106.048 215.864C104.08 216.568 101.84 216.936 99.312 217V222.296C99.216 225.288 98.528 227.624 97.248 229.304L98.432 230.568C99.952 228.536 100.784 225.816 100.912 222.408H103.36V230.632H105.04V222.408H107.232V220.792H100.912V218.424C103.104 218.296 105.088 217.944 106.864 217.368L106.048 215.864ZM108.784 216.344V217.88H109.344V227.016L108.496 227.144L108.912 228.808C109.968 228.584 110.976 228.328 111.968 228.072V230.504H113.536V227.608C113.728 227.544 113.92 227.496 114.128 227.432V225.816L113.536 226.008V217.88H113.984V216.344H108.784ZM110.912 226.712V224.52H111.968V226.456C111.616 226.552 111.264 226.632 110.912 226.712ZM110.912 223.016V221.24H111.968V223.016H110.912ZM110.912 219.736V217.88H111.968V219.736H110.912ZM118.688 222.568H114.512V229.464H115.904V228.664H118.4C118.144 228.952 117.872 229.24 117.584 229.512L118.704 230.488C119.264 229.928 119.808 229.288 120.32 228.584C120.448 228.984 120.608 229.352 120.8 229.672C121.136 230.216 121.504 230.488 121.904 230.488C122.64 230.488 123.152 229.512 123.424 227.576L122.208 226.712C122.096 227.928 121.968 228.552 121.808 228.584C121.616 228.488 121.456 227.976 121.312 227.048C122 225.8 122.608 224.392 123.152 222.792L121.824 222.248C121.6 222.984 121.344 223.688 121.056 224.376C121.024 223.656 120.992 222.792 120.96 221.8H123.168V220.36H120.944C120.912 219.064 120.912 217.592 120.912 215.928H119.472C119.472 217.56 119.472 219.032 119.504 220.36H118.416C118.56 219.912 118.688 219.432 118.784 218.92L117.392 218.744C117.312 219.288 117.2 219.832 117.04 220.36H116.4C116.272 219.768 116.144 219.24 116.016 218.776L114.608 218.984C114.768 219.416 114.896 219.88 115.024 220.36H114.016V221.8H119.536C119.6 224.056 119.696 225.688 119.856 226.68C119.504 227.256 119.104 227.8 118.688 228.312V222.568ZM115.904 227.384V226.184H117.296V227.384H115.904ZM115.904 224.952V223.848H117.296V224.952H115.904ZM122.272 216.664L121.088 217.048C121.424 217.912 121.696 218.824 121.92 219.784L123.104 219.48C122.864 218.424 122.592 217.48 122.272 216.664ZM117.12 215.96L115.536 216.216C115.648 216.504 115.76 216.808 115.872 217.16H114.256V218.472H119.024V217.16H117.408C117.312 216.712 117.216 216.312 117.12 215.96ZM127.152 225.32H130.288V226.36H127.152V225.32ZM130.288 223.944H127.152V222.84H130.288V223.944ZM127.152 227.736H130.288V228.472C130.288 228.888 130.096 229.112 129.744 229.112L128.624 229.032L129.04 230.584H130.272C131.36 230.584 131.904 229.992 131.904 228.824V221.4H125.536V230.696H127.152V227.736ZM137.312 223C137.904 223 138.352 222.872 138.64 222.632C138.928 222.376 139.136 221.56 139.264 220.216L137.712 219.704C137.68 220.568 137.6 221.08 137.488 221.256C137.376 221.416 137.216 221.496 136.992 221.496H135.168C134.784 221.496 134.608 221.224 134.608 220.712V219.256C136.288 219 137.776 218.728 139.088 218.44L138.544 216.968C137.52 217.24 136.208 217.496 134.608 217.752V215.928H132.96V221.048C132.96 222.344 133.536 223 134.704 223H137.312ZM134.608 226.712C136.208 226.552 137.696 226.296 139.088 225.928L138.544 224.44C137.392 224.792 136.08 225.048 134.608 225.208V223.528H132.96V228.904C132.96 229.912 133.536 230.424 134.688 230.424H137.312C137.904 230.424 138.336 230.296 138.624 230.056C138.912 229.8 139.136 229 139.264 227.64L137.744 227.16C137.696 228.024 137.616 228.536 137.488 228.712C137.392 228.872 137.216 228.952 136.992 228.952H135.152C134.784 228.952 134.608 228.808 134.608 228.536V226.712ZM130.768 216.968L129.488 217.784C129.776 218.216 130.064 218.632 130.32 219.048C129.136 219.176 128.016 219.288 126.96 219.352C127.776 218.568 128.496 217.56 129.136 216.312L127.536 215.832C127.056 216.824 126.352 217.896 125.392 219.016C125.184 219.208 124.928 219.336 124.64 219.432L125.088 220.824C127.376 220.696 129.36 220.488 131.024 220.232C131.2 220.568 131.376 220.904 131.536 221.224L132.912 220.248C132.4 219.32 131.696 218.232 130.768 216.968ZM153.488 224.376H145.856C146.272 223.88 146.656 223.352 147.008 222.776H155.088V221.24H147.776C147.968 220.776 148.128 220.28 148.288 219.768L146.656 219.576C146.496 220.152 146.272 220.696 146.016 221.24H140.912V222.776H145.04C143.952 224.136 142.448 225.24 140.496 226.072L141.344 227.592C142.368 227.144 143.312 226.6 144.144 225.96V230.552H145.664V229.656H151.952V230.488H153.488V224.376ZM145.664 228.2V225.848H151.952V228.2H145.664ZM140.976 217.208V218.744H144.432V220.088H146.064V218.744H149.888V220.024H151.52V218.744H154.96V217.208H151.52V215.912H149.888V217.208H146.064V215.912H144.432V217.208H140.976ZM157.504 217.432V218.984H163.264C163.216 219.288 163.152 219.592 163.088 219.912H158.448V221.448H162.656C162.544 221.736 162.432 222.04 162.304 222.328H157.04V223.896H161.44C161.392 223.96 161.344 224.04 161.296 224.12C160.208 225.64 158.608 226.952 156.48 228.056L157.6 229.48C158.048 229.192 158.496 228.904 158.912 228.616V230.184H171.024V228.552H165.776V226.6H170.032V225H162.656C162.72 224.904 162.784 224.824 162.848 224.728C163.008 224.456 163.152 224.184 163.296 223.896H171.104V222.328H164C164.112 222.04 164.224 221.736 164.32 221.448H169.68V219.912H164.752C164.832 219.608 164.912 219.304 164.976 218.984H170.56V217.432H167.552C167.808 216.984 168 216.488 168.16 215.976L166.4 215.736C166.272 216.312 166.08 216.888 165.84 217.432H162.528C162.336 216.824 162.128 216.264 161.936 215.784L160.192 216.072C160.416 216.488 160.64 216.952 160.832 217.432H157.504ZM158.992 228.552C159.856 227.944 160.624 227.288 161.312 226.6H164.064V228.552H158.992ZM176 226.568C175.376 226.568 174.848 226.76 174.416 227.176C173.968 227.592 173.76 228.104 173.76 228.728C173.76 229.336 173.968 229.864 174.416 230.28C174.848 230.68 175.376 230.888 176 230.888C176.608 230.888 177.136 230.68 177.584 230.264C178.016 229.848 178.24 229.336 178.24 228.728C178.24 228.12 178.016 227.608 177.584 227.192C177.136 226.776 176.608 226.568 176 226.568ZM176 227.688C176.288 227.688 176.528 227.784 176.752 227.992C176.96 228.184 177.072 228.44 177.072 228.728C177.072 229.016 176.96 229.256 176.752 229.464C176.528 229.656 176.288 229.768 176 229.768C175.712 229.768 175.456 229.656 175.248 229.464C175.024 229.256 174.928 229.016 174.928 228.728C174.928 228.44 175.024 228.184 175.248 227.992C175.456 227.784 175.712 227.688 176 227.688Z" fill="white"/>
</svg>
