<svg width="260" height="260" viewBox="0 0 260 260" fill="none" xmlns="http://www.w3.org/2000/svg">
<path d="M130 260C201.797 260 260 201.797 260 130C260 58.203 201.797 0 130 0C58.203 0 0 58.203 0 130C0 201.797 58.203 260 130 260Z" fill="#4DA583"/>
<path d="M167.38 89.438H165.216V87.626C165.216 86.4002 164.729 85.2246 163.863 84.3573C162.997 83.49 161.822 83.0019 160.596 83C159.37 83.0019 158.195 83.49 157.329 84.3573C156.462 85.2246 155.976 86.4001 155.975 87.626V89.438H154.889V87.626C154.888 86.4012 154.402 85.2267 153.536 84.36C152.671 83.4934 151.497 83.0054 150.272 83.003C149.048 83.0059 147.874 83.4942 147.009 84.3608C146.145 85.2274 145.659 86.4016 145.658 87.626V89.438H144.568V87.626C144.567 86.4008 144.081 85.2258 143.215 84.359C142.349 83.4923 141.174 83.0046 139.949 83.003C138.724 83.0046 137.549 83.4922 136.682 84.3589C135.816 85.2256 135.329 86.4006 135.328 87.626V89.438H134.245V87.626C134.244 86.3999 133.757 85.2241 132.89 84.3569C132.024 83.4896 130.848 83.0016 129.622 83C128.396 83.0021 127.222 83.4904 126.356 84.3577C125.49 85.225 125.003 86.4004 125.003 87.626V89.438H123.92V87.626C123.919 86.4004 123.432 85.2253 122.565 84.3586C121.699 83.4918 120.524 83.0043 119.298 83.003C118.073 83.0054 116.9 83.4935 116.034 84.3602C115.169 85.2269 114.683 86.4014 114.683 87.626V89.438H113.593V87.626C113.593 86.4014 113.107 85.2269 112.241 84.3602C111.376 83.4935 110.203 83.0054 108.978 83.003C107.753 83.0049 106.578 83.4926 105.712 84.3593C104.846 85.2259 104.359 86.4007 104.358 87.626V89.438H103.272V87.626C103.272 86.4003 102.786 85.2247 101.92 84.3574C101.053 83.4901 99.8787 83.0019 98.653 83C97.4277 83.0021 96.2535 83.4905 95.3881 84.3579C94.5228 85.2253 94.0372 86.4008 94.038 87.626V89.438H91.868C91.6379 89.4385 91.4173 89.5303 91.2548 89.6932C91.0923 89.8561 91.001 90.0769 91.001 90.307V147.134C91.001 147.364 91.0923 147.585 91.2548 147.748C91.4173 147.911 91.6379 148.002 91.868 148.003H167.38C167.494 148.003 167.607 147.98 167.712 147.937C167.817 147.893 167.913 147.829 167.993 147.748C168.074 147.667 168.138 147.572 168.181 147.466C168.225 147.361 168.247 147.248 168.247 147.134V90.307C168.247 90.193 168.225 90.0801 168.181 89.9748C168.138 89.8694 168.074 89.7736 167.993 89.6929C167.913 89.6122 167.817 89.5482 167.712 89.5045C167.607 89.4607 167.494 89.4381 167.38 89.438V89.438ZM92.737 103.945H166.51V146.265H92.737V103.945ZM101.537 91.658C101.538 92.4227 101.235 93.1565 100.695 93.6982C100.155 94.24 99.4227 94.5456 98.658 94.548C98.544 94.5479 98.4312 94.5702 98.3259 94.6137C98.2206 94.6572 98.1249 94.7211 98.0443 94.8016C97.9637 94.8821 97.8997 94.9777 97.8561 95.083C97.8124 95.1882 97.79 95.3011 97.79 95.415C97.79 95.6453 97.8814 95.8662 98.0441 96.0291C98.2069 96.1921 98.4277 96.2837 98.658 96.284C99.8827 96.2808 101.056 95.792 101.921 94.9248C102.786 94.0576 103.271 92.8827 103.271 91.658V91.175H111.858V91.657C111.859 92.4217 111.556 93.1555 111.016 93.6972C110.476 94.239 109.744 94.5446 108.979 94.547C108.865 94.5469 108.752 94.5692 108.647 94.6127C108.541 94.6562 108.446 94.72 108.365 94.8005C108.284 94.881 108.22 94.9766 108.176 95.0819C108.133 95.1872 108.11 95.3 108.11 95.414C108.11 95.6444 108.202 95.8653 108.365 96.0282C108.528 96.1911 108.749 96.2827 108.979 96.283C110.204 96.2804 111.378 95.7918 112.243 94.9245C113.108 94.0572 113.594 92.8821 113.594 91.657V91.175H122.183V91.657C122.184 92.4218 121.881 93.1557 121.341 93.6975C120.802 94.2394 120.069 94.5449 119.304 94.547C119.074 94.5473 118.854 94.6387 118.691 94.8012C118.529 94.9638 118.437 95.1841 118.437 95.414C118.437 95.6441 118.528 95.8649 118.691 96.0278C118.853 96.1907 119.074 96.2825 119.304 96.283C120.529 96.2804 121.703 95.7918 122.569 94.9245C123.434 94.0573 123.92 92.8822 123.92 91.657V91.175H132.507V91.657C132.507 92.4224 132.203 93.1566 131.663 93.6984C131.122 94.2402 130.388 94.5454 129.623 94.547C129.393 94.5473 129.173 94.6387 129.01 94.8012C128.848 94.9638 128.756 95.1841 128.756 95.414C128.756 95.6441 128.847 95.8649 129.01 96.0278C129.172 96.1907 129.393 96.2825 129.623 96.283C130.849 96.2811 132.024 95.7931 132.891 94.9258C133.758 94.0586 134.245 92.883 134.246 91.657V91.175H142.833V91.657C142.833 92.422 142.529 93.1557 141.989 93.6974C141.449 94.2391 140.716 94.5446 139.951 94.547C139.837 94.5469 139.724 94.5692 139.619 94.6127C139.513 94.6562 139.418 94.72 139.337 94.8005C139.256 94.881 139.192 94.9766 139.148 95.0819C139.105 95.1872 139.082 95.3 139.082 95.414C139.082 95.6444 139.174 95.8653 139.337 96.0282C139.5 96.1911 139.721 96.2827 139.951 96.283C141.176 96.2801 142.349 95.7916 143.215 94.9245C144.08 94.0575 144.566 92.8828 144.566 91.658V91.175H153.158V91.657C153.159 92.4216 152.856 93.1551 152.316 93.6969C151.777 94.2386 151.045 94.5444 150.28 94.547C150.166 94.547 150.053 94.5695 149.948 94.6131C149.842 94.6567 149.747 94.7206 149.666 94.8012C149.586 94.8818 149.522 94.9775 149.478 95.0828C149.434 95.1881 149.412 95.301 149.412 95.415C149.412 95.529 149.434 95.6419 149.478 95.7472C149.522 95.8525 149.586 95.9482 149.666 96.0288C149.747 96.1094 149.842 96.1733 149.948 96.2169C150.053 96.2605 150.166 96.283 150.28 96.283C151.504 96.279 152.676 95.79 153.54 94.923C154.404 94.0561 154.889 92.8819 154.889 91.658V91.175H163.48V91.657C163.48 92.4224 163.176 93.1566 162.636 93.6984C162.095 94.2402 161.361 94.5454 160.596 94.547C160.482 94.547 160.369 94.5695 160.264 94.6131C160.158 94.6567 160.063 94.7206 159.982 94.8012C159.902 94.8818 159.838 94.9775 159.794 95.0828C159.75 95.1881 159.728 95.301 159.728 95.415C159.728 95.529 159.75 95.6419 159.794 95.7472C159.838 95.8525 159.902 95.9482 159.982 96.0288C160.063 96.1094 160.158 96.1733 160.264 96.2169C160.369 96.2605 160.482 96.283 160.596 96.283C161.822 96.2809 162.996 95.7926 163.863 94.9254C164.729 94.0581 165.215 92.8827 165.216 91.657V91.175H166.51V102.209H92.737V91.175H101.537V91.658ZM163.482 89.438H157.711V87.626C157.711 86.8605 158.014 86.1262 158.555 85.5843C159.096 85.0424 159.829 84.7373 160.595 84.736C161.361 84.7371 162.095 85.042 162.636 85.5839C163.177 86.1258 163.48 86.8603 163.48 87.626L163.482 89.438ZM153.158 89.438H147.393V87.626C147.393 86.8605 147.696 86.1262 148.237 85.5843C148.778 85.0424 149.511 84.7373 150.277 84.736C151.042 84.7376 151.775 85.0429 152.316 85.5848C152.856 86.1267 153.159 86.8608 153.158 87.626V89.438ZM142.834 89.438H137.065V87.626C137.065 86.8605 137.368 86.1262 137.909 85.5843C138.45 85.0424 139.183 84.7373 139.949 84.736C140.714 84.7381 141.447 85.0435 141.987 85.5853C142.528 86.127 142.831 86.8609 142.831 87.626L142.834 89.438ZM132.509 89.438H126.743V87.626C126.743 86.8608 127.046 86.1268 127.586 85.585C128.127 85.0432 128.86 84.7379 129.625 84.736C130.39 84.7381 131.123 85.0436 131.663 85.5853C132.203 86.1271 132.506 86.861 132.506 87.626L132.509 89.438ZM122.185 89.438H116.422V87.626C116.422 86.8605 116.725 86.1262 117.266 85.5843C117.807 85.0424 118.54 84.7373 119.306 84.736C120.07 84.7389 120.802 85.0448 121.341 85.5865C121.88 86.1283 122.183 86.8617 122.182 87.626L122.185 89.438ZM111.86 89.438H106.095V87.626C106.095 86.8603 106.399 86.126 106.94 85.5842C107.481 85.0424 108.215 84.7373 108.981 84.736C109.745 84.7386 110.478 85.0444 111.017 85.5862C111.556 86.128 111.859 86.8615 111.858 87.626L111.86 89.438ZM101.538 89.438H95.777V87.626C95.7775 86.8615 96.081 86.1284 96.621 85.5873C97.161 85.0462 97.8935 84.7411 98.658 84.739C99.4219 84.7416 100.154 85.047 100.693 85.5881C101.232 86.1292 101.535 86.862 101.535 87.626L101.538 89.438Z" fill="white"/>
<path d="M160.043 119.019H140.505C140.286 119.019 140.077 119.106 139.922 119.26C139.768 119.415 139.681 119.624 139.681 119.843V139.775C139.68 139.993 139.767 140.204 139.922 140.359C140.076 140.514 140.286 140.601 140.505 140.602H160.043C160.262 140.602 160.472 140.514 160.627 140.359C160.783 140.204 160.87 139.994 160.87 139.775V119.843C160.869 119.624 160.782 119.414 160.627 119.259C160.472 119.105 160.262 119.018 160.043 119.019V119.019ZM159.219 138.95H141.332V120.67H159.219V138.95Z" fill="white"/>
<path d="M148.494 135.159C148.848 135.22 149.207 135.251 149.566 135.251C150.843 135.252 152.088 134.854 153.129 134.115C153.798 133.645 154.366 133.046 154.802 132.354C155.238 131.662 155.532 130.891 155.667 130.084C155.686 129.977 155.683 129.867 155.659 129.761C155.635 129.656 155.59 129.555 155.527 129.467C155.465 129.379 155.386 129.304 155.295 129.246C155.204 129.189 155.102 129.15 154.996 129.133C154.781 129.094 154.56 129.142 154.38 129.265C154.29 129.328 154.213 129.408 154.155 129.501C154.097 129.593 154.057 129.697 154.04 129.805C153.941 130.398 153.725 130.965 153.405 131.473C153.085 131.982 152.667 132.422 152.175 132.767C151.687 133.114 151.136 133.36 150.552 133.492C149.968 133.623 149.364 133.637 148.775 133.533C148.186 133.433 147.622 133.218 147.116 132.899C146.61 132.581 146.173 132.165 145.829 131.676C145.482 131.189 145.235 130.637 145.102 130.053C144.969 129.47 144.953 128.866 145.055 128.276C145.259 127.084 145.928 126.022 146.914 125.322C147.901 124.623 149.124 124.343 150.317 124.544C150.534 124.581 150.756 124.531 150.936 124.404C151.024 124.342 151.099 124.263 151.157 124.171C151.214 124.08 151.252 123.978 151.27 123.871C151.307 123.654 151.257 123.432 151.131 123.252C151.068 123.164 150.988 123.089 150.896 123.031C150.804 122.974 150.702 122.936 150.595 122.918C148.972 122.644 147.307 123.024 145.963 123.975C144.62 124.926 143.709 126.371 143.429 127.993C143.288 128.797 143.309 129.621 143.49 130.417C143.67 131.212 144.007 131.965 144.481 132.629C144.949 133.295 145.545 133.862 146.234 134.296C146.923 134.73 147.691 135.024 148.494 135.159" fill="white"/>
<path d="M148.881 126.96C148.731 126.802 148.523 126.709 148.305 126.703C148.086 126.697 147.874 126.778 147.714 126.928C147.635 127.003 147.571 127.093 147.526 127.193C147.482 127.293 147.458 127.401 147.455 127.51C147.452 127.618 147.471 127.726 147.51 127.827C147.549 127.927 147.608 128.019 147.683 128.097L149.683 130.197C149.828 130.349 150.024 130.441 150.233 130.453C150.442 130.466 150.648 130.399 150.809 130.266L157.182 124.98C157.266 124.911 157.336 124.825 157.386 124.729C157.437 124.632 157.467 124.527 157.476 124.418C157.487 124.311 157.476 124.202 157.444 124.099C157.412 123.996 157.359 123.9 157.289 123.818C157.222 123.734 157.138 123.663 157.042 123.612C156.947 123.56 156.842 123.528 156.734 123.518C156.626 123.507 156.516 123.517 156.411 123.55C156.307 123.582 156.21 123.635 156.126 123.705L150.345 128.502L148.881 126.96Z" fill="white"/>
<path d="M103.318 106.94H97.8407C97.6213 106.94 97.411 107.028 97.2559 107.183C97.1008 107.338 97.0137 107.548 97.0137 107.767V113.251C97.0137 113.36 97.0351 113.468 97.0766 113.568C97.1182 113.668 97.1791 113.759 97.2559 113.836C97.3327 113.913 97.4239 113.974 97.5242 114.015C97.6245 114.057 97.7321 114.078 97.8407 114.078H103.318C103.426 114.078 103.534 114.057 103.634 114.015C103.734 113.974 103.826 113.913 103.902 113.836C103.979 113.759 104.04 113.668 104.082 113.568C104.123 113.468 104.145 113.36 104.145 113.251V107.767C104.145 107.659 104.123 107.551 104.082 107.451C104.04 107.351 103.979 107.259 103.902 107.183C103.826 107.106 103.734 107.045 103.634 107.003C103.534 106.962 103.426 106.94 103.318 106.94V106.94ZM98.6647 108.592H102.494V112.424H98.6647V108.592Z" fill="white"/>
<path d="M113.144 106.94H107.662C107.553 106.941 107.446 106.962 107.346 107.004C107.246 107.045 107.155 107.106 107.078 107.183C107.002 107.26 106.941 107.351 106.899 107.451C106.858 107.552 106.837 107.659 106.837 107.767V113.251C106.837 113.36 106.858 113.467 106.899 113.568C106.941 113.668 107.002 113.759 107.078 113.836C107.155 113.913 107.246 113.974 107.346 114.015C107.446 114.057 107.553 114.078 107.662 114.078H113.144C113.253 114.078 113.36 114.057 113.46 114.015C113.561 113.974 113.652 113.913 113.729 113.836C113.805 113.759 113.866 113.668 113.908 113.568C113.95 113.468 113.971 113.36 113.971 113.251V107.767C113.971 107.548 113.884 107.338 113.729 107.183C113.574 107.028 113.363 106.94 113.144 106.94V106.94ZM108.488 108.592H112.32V112.424H108.488V108.592Z" fill="white"/>
<path d="M122.624 106.94H117.141C116.922 106.941 116.713 107.028 116.558 107.183C116.403 107.338 116.316 107.548 116.316 107.767V113.251C116.316 113.47 116.403 113.68 116.558 113.836C116.713 113.991 116.922 114.078 117.141 114.078H122.624C122.843 114.078 123.053 113.991 123.208 113.835C123.362 113.68 123.449 113.47 123.448 113.251V107.767C123.449 107.549 123.362 107.338 123.208 107.183C123.053 107.028 122.843 106.941 122.624 106.94V106.94ZM121.798 112.425H117.967V108.594H121.798V112.425Z" fill="white"/>
<path d="M132.105 106.94H126.624C126.405 106.94 126.194 107.028 126.039 107.183C125.884 107.338 125.797 107.548 125.797 107.767V113.251C125.797 113.36 125.818 113.468 125.86 113.568C125.901 113.668 125.962 113.759 126.039 113.836C126.116 113.913 126.207 113.974 126.307 114.015C126.408 114.057 126.515 114.078 126.624 114.078H132.105C132.213 114.078 132.321 114.057 132.421 114.015C132.521 113.974 132.612 113.913 132.689 113.836C132.765 113.759 132.826 113.668 132.867 113.568C132.909 113.467 132.93 113.36 132.93 113.251V107.767C132.93 107.659 132.909 107.552 132.867 107.451C132.826 107.351 132.765 107.26 132.689 107.183C132.612 107.106 132.521 107.045 132.421 107.004C132.321 106.962 132.213 106.941 132.105 106.94V106.94ZM131.279 112.425H127.451V108.594H131.279V112.425Z" fill="white"/>
<path d="M103.318 116.75H97.8407C97.6218 116.75 97.4117 116.836 97.2567 116.991C97.1016 117.145 97.0142 117.355 97.0137 117.574V123.06C97.0142 123.279 97.1016 123.489 97.2567 123.643C97.4117 123.798 97.6218 123.884 97.8407 123.884H103.318C103.537 123.884 103.747 123.798 103.902 123.643C104.057 123.489 104.144 123.279 104.145 123.06V117.574C104.144 117.355 104.057 117.145 103.902 116.991C103.747 116.836 103.537 116.75 103.318 116.75V116.75ZM98.6647 118.401H102.494V122.233H98.6647V118.401Z" fill="white"/>
<path d="M113.144 116.75H107.662C107.443 116.75 107.234 116.837 107.079 116.991C106.924 117.146 106.837 117.355 106.837 117.574V123.06C106.837 123.279 106.924 123.488 107.079 123.643C107.234 123.797 107.443 123.884 107.662 123.884H113.144C113.363 123.884 113.573 123.798 113.728 123.643C113.883 123.489 113.97 123.279 113.971 123.06V117.574C113.97 117.355 113.883 117.145 113.728 116.991C113.573 116.836 113.363 116.75 113.144 116.75V116.75ZM108.488 118.401H112.32V122.233H108.488V118.401Z" fill="white"/>
<path d="M122.624 116.75H117.141C116.923 116.75 116.713 116.837 116.559 116.992C116.404 117.146 116.317 117.355 116.316 117.574V123.06C116.317 123.279 116.404 123.488 116.559 123.642C116.713 123.797 116.923 123.884 117.141 123.884H122.624C122.843 123.884 123.052 123.797 123.207 123.642C123.361 123.488 123.448 123.278 123.448 123.06V117.574C123.448 117.356 123.361 117.146 123.207 116.992C123.052 116.837 122.843 116.75 122.624 116.75V116.75ZM121.798 122.233H117.967V118.401H121.798V122.233Z" fill="white"/>
<path d="M132.105 116.75H126.624C126.405 116.75 126.195 116.836 126.04 116.991C125.885 117.145 125.797 117.355 125.797 117.574V123.06C125.797 123.279 125.885 123.489 126.04 123.643C126.195 123.798 126.405 123.884 126.624 123.884H132.105C132.324 123.884 132.533 123.797 132.688 123.643C132.843 123.488 132.93 123.279 132.93 123.06V117.574C132.93 117.355 132.843 117.146 132.688 116.991C132.533 116.837 132.324 116.75 132.105 116.75V116.75ZM131.279 122.233H127.451V118.401H131.279V122.233Z" fill="white"/>
<path d="M103.318 126.557H97.8407C97.6219 126.557 97.412 126.643 97.257 126.798C97.1019 126.952 97.0145 127.162 97.0137 127.381V132.867C97.0138 132.975 97.0353 133.082 97.0769 133.183C97.1186 133.283 97.1795 133.374 97.2563 133.45C97.3331 133.527 97.4242 133.588 97.5245 133.629C97.6248 133.671 97.7322 133.692 97.8407 133.692H103.318C103.426 133.692 103.534 133.671 103.634 133.629C103.734 133.588 103.825 133.527 103.902 133.45C103.979 133.374 104.04 133.283 104.081 133.183C104.123 133.082 104.145 132.975 104.145 132.867V127.381C104.144 127.162 104.056 126.952 103.901 126.798C103.746 126.643 103.536 126.557 103.318 126.557V126.557ZM98.6647 128.208H102.494V132.042H98.6647V128.208Z" fill="white"/>
<path d="M113.144 126.557H107.662C107.443 126.557 107.234 126.644 107.079 126.798C106.925 126.953 106.837 127.162 106.837 127.381V132.867C106.837 133.085 106.924 133.295 107.079 133.45C107.233 133.605 107.443 133.692 107.662 133.692H113.144C113.252 133.692 113.36 133.671 113.46 133.629C113.56 133.588 113.651 133.527 113.728 133.45C113.805 133.374 113.866 133.283 113.908 133.183C113.949 133.082 113.971 132.975 113.971 132.867V127.381C113.97 127.162 113.883 126.952 113.728 126.798C113.573 126.643 113.363 126.557 113.144 126.557V126.557ZM108.488 128.208H112.32V132.042H108.488V128.208Z" fill="white"/>
<path d="M122.624 126.557H117.141C116.923 126.557 116.714 126.644 116.559 126.799C116.404 126.953 116.317 127.162 116.316 127.381V132.867C116.317 133.085 116.404 133.295 116.558 133.45C116.713 133.604 116.923 133.691 117.141 133.692H122.624C122.843 133.691 123.053 133.604 123.207 133.45C123.362 133.295 123.448 133.085 123.448 132.867V127.381C123.448 127.162 123.361 126.953 123.207 126.798C123.052 126.644 122.843 126.557 122.624 126.557V126.557ZM121.798 132.042H117.967V128.208H121.798V132.042Z" fill="white"/>
<path d="M132.105 126.557H126.624C126.405 126.557 126.195 126.643 126.04 126.798C125.885 126.952 125.798 127.162 125.797 127.381V132.867C125.797 132.975 125.819 133.082 125.86 133.183C125.902 133.283 125.963 133.374 126.04 133.45C126.116 133.527 126.207 133.588 126.308 133.629C126.408 133.671 126.515 133.692 126.624 133.692H132.105C132.324 133.692 132.534 133.605 132.688 133.45C132.843 133.295 132.93 133.085 132.93 132.867V127.381C132.929 127.162 132.842 126.953 132.688 126.798C132.533 126.644 132.323 126.557 132.105 126.557V126.557ZM131.279 132.042H127.451V128.208H131.279V132.042Z" fill="white"/>
<path d="M103.318 136.62H97.8407C97.6213 136.62 97.411 136.707 97.2559 136.862C97.1008 137.017 97.0137 137.228 97.0137 137.447V142.92C97.0137 143.139 97.1008 143.35 97.2559 143.505C97.411 143.66 97.6213 143.747 97.8407 143.747H103.318C103.426 143.747 103.534 143.726 103.634 143.684C103.734 143.643 103.826 143.582 103.902 143.505C103.979 143.428 104.04 143.337 104.082 143.237C104.123 143.136 104.145 143.029 104.145 142.92V137.447C104.145 137.339 104.123 137.231 104.082 137.131C104.04 137.03 103.979 136.939 103.902 136.862C103.826 136.786 103.734 136.725 103.634 136.683C103.534 136.642 103.426 136.62 103.318 136.62V136.62ZM98.6647 138.272H102.494V142.095H98.6647V138.272Z" fill="white"/>
<path d="M113.144 136.62H107.662C107.553 136.62 107.446 136.642 107.346 136.683C107.246 136.725 107.155 136.786 107.078 136.863C107.002 136.94 106.941 137.031 106.899 137.131C106.858 137.231 106.837 137.339 106.837 137.447V142.92C106.837 143.029 106.858 143.136 106.899 143.236C106.941 143.337 107.002 143.428 107.078 143.504C107.155 143.581 107.246 143.642 107.346 143.684C107.446 143.725 107.553 143.747 107.662 143.747H113.144C113.363 143.747 113.574 143.66 113.729 143.505C113.884 143.35 113.971 143.139 113.971 142.92V137.447C113.971 137.228 113.884 137.017 113.729 136.862C113.574 136.707 113.363 136.62 113.144 136.62V136.62ZM108.488 138.272H112.32V142.095H108.488V138.272Z" fill="white"/>
<path d="M122.624 136.62H117.141C116.922 136.621 116.713 136.708 116.558 136.863C116.403 137.018 116.316 137.228 116.316 137.447V142.92C116.316 143.139 116.403 143.349 116.558 143.504C116.713 143.659 116.922 143.747 117.141 143.747H122.624C122.733 143.747 122.84 143.725 122.94 143.684C123.041 143.642 123.132 143.581 123.208 143.504C123.285 143.428 123.346 143.337 123.387 143.236C123.428 143.136 123.45 143.029 123.449 142.92V137.447C123.45 137.339 123.428 137.231 123.387 137.131C123.346 137.031 123.285 136.94 123.208 136.863C123.132 136.786 123.041 136.725 122.94 136.683C122.84 136.642 122.733 136.62 122.624 136.62V136.62ZM121.798 142.095H117.967V138.272H121.798V142.095Z" fill="white"/>
<path d="M132.105 136.62H126.624C126.405 136.62 126.194 136.707 126.039 136.862C125.884 137.017 125.797 137.228 125.797 137.447V142.92C125.797 143.139 125.884 143.35 126.039 143.505C126.194 143.66 126.405 143.747 126.624 143.747H132.105C132.213 143.747 132.321 143.726 132.421 143.684C132.521 143.643 132.613 143.582 132.689 143.505C132.766 143.428 132.827 143.337 132.868 143.237C132.91 143.136 132.931 143.029 132.931 142.92V137.447C132.931 137.339 132.91 137.231 132.868 137.131C132.827 137.03 132.766 136.939 132.689 136.862C132.613 136.786 132.521 136.725 132.421 136.683C132.321 136.642 132.213 136.62 132.105 136.62V136.62ZM131.279 142.095H127.451V138.272H131.279V142.095Z" fill="white"/>
<path d="M76.5 36.872C75.466 40.216 73.882 43.12 71.726 45.584L72.474 47.982C73.112 47.3 73.706 46.596 74.278 45.892V57.332H76.566V42.46C77.38 41.008 78.04 39.468 78.568 37.84L76.5 36.872ZM91.614 37.576H78.656V57.266H80.702V56.034H89.546V57.266H91.614V37.576ZM80.702 53.988V39.556H89.546V53.988H80.702ZM81.362 42.592V44.528H84.178V46.618H82.11V53.108H88.27V46.618H86.136V44.528H88.93V42.592H86.136V40.414H84.178V42.592H81.362ZM86.488 51.37H83.892V48.356H86.488V51.37ZM105.078 36.96H102.746C102.746 37.796 102.724 38.94 102.724 40.414C102.548 46.728 99.534 51.656 93.638 55.176L95.046 57.244C99.622 54.296 102.636 50.578 104.088 46.09C105.782 50.732 108.686 54.428 112.8 57.2L114.34 55.176C109.346 52.118 106.2 47.696 104.924 41.91C105.012 40.546 105.078 38.896 105.078 36.96ZM116.54 39.292V55H119.114V39.292H116.54ZM122.19 39.292V55H127.932C130.484 55 132.398 54.296 133.718 52.888C134.972 51.546 135.61 49.632 135.61 47.146C135.61 44.638 134.972 42.724 133.718 41.404C132.398 39.996 130.484 39.292 127.932 39.292H122.19ZM124.764 41.492H127.448C129.406 41.492 130.836 41.932 131.738 42.834C132.618 43.714 133.058 45.166 133.058 47.146C133.058 49.082 132.618 50.512 131.738 51.436C130.836 52.338 129.406 52.8 127.448 52.8H124.764V41.492ZM138.024 39.292V55H140.598V48.972H144.492C148.32 48.972 150.234 47.344 150.234 44.11C150.234 40.898 148.32 39.292 144.536 39.292H138.024ZM140.598 41.492H144.338C145.46 41.492 146.296 41.69 146.824 42.108C147.352 42.504 147.638 43.164 147.638 44.11C147.638 45.056 147.374 45.738 146.846 46.156C146.318 46.552 145.482 46.772 144.338 46.772H140.598V41.492ZM154.596 56.056H157.258V56.958H159.458V49.104H152.396V57.266H154.596V56.056ZM157.258 53.966H154.596V51.194H157.258V53.966ZM151.692 39.468V41.58H160.184V39.468H157.28C157.016 38.676 156.686 37.818 156.246 36.872L154.046 37.466C154.398 38.126 154.75 38.786 155.058 39.468H151.692ZM152.55 42.768V44.77H159.304V42.768H152.55ZM152.55 45.826V47.85H159.304V45.826H152.55ZM165.002 36.96V43.956H160.492V46.156H165.002V57.288H167.268V46.156H172.064V43.956H167.268V36.96H165.002ZM191.204 43.67V41.602H193.47V40.018H191.204V37.884H185V36.894H182.756V37.884H176.772V39.336H182.888V40.128H174.418V41.492H182.888V42.284H176.794V43.67H182.756V44.44H176.09V45.782H182.756V46.552H174.484V48.092H193.404V46.552H185V45.782H191.776V44.44H185V43.67H191.204ZM184.868 39.336H189.048V40.128H184.868V39.336ZM184.868 41.492H189.048V42.284H184.868V41.492ZM176.42 48.774V54.428H191.336V48.774H176.42ZM189.18 53.108H184.956V52.118H189.18V53.108ZM182.8 53.108H178.576V52.118H182.8V53.108ZM178.576 51.018V50.05H182.8V51.018H178.576ZM184.956 50.05H189.18V51.018H184.956V50.05ZM174.066 55.22V56.936H193.69V55.22H174.066Z" fill="white"/>
<path d="M44.224 175.992L43.088 177.064C44.24 177.992 45.136 178.872 45.76 179.672L46.928 178.52C46.192 177.688 45.28 176.84 44.224 175.992ZM53.344 190.44H57.024L57.408 188.84C56.96 188.872 56.336 188.904 55.536 188.92C54.72 188.936 53.92 188.952 53.12 188.952C51.872 188.952 50.784 188.936 49.856 188.92C48.912 188.888 48.208 188.76 47.744 188.52C47.36 188.296 46.992 187.96 46.624 187.512C46.56 187.448 46.512 187.384 46.448 187.336V181.24H42.784V182.776H44.896V187.16C44.256 187.512 43.552 188.328 42.752 189.608L43.984 190.76C44.784 189.32 45.328 188.6 45.648 188.6C45.824 188.6 46.016 188.728 46.24 189.016C46.72 189.56 47.28 189.928 47.92 190.12C48.592 190.296 49.44 190.392 50.48 190.408C51.504 190.424 52.464 190.44 53.344 190.44ZM52.896 179.912C53.856 181.128 55.104 182.088 56.64 182.808L57.36 181.448C56.144 181 55.152 180.488 54.4 179.912H56.56V178.472H52.848V177.688C54 177.576 55.024 177.416 55.936 177.208L55.2 175.944C53.184 176.36 50.736 176.584 47.856 176.584L48.304 177.88C49.328 177.88 50.32 177.848 51.248 177.8V178.472H47.536V179.912H49.68C49.008 180.536 48.064 181.08 46.832 181.528L47.648 182.888C49.248 182.088 50.416 181.096 51.184 179.912H51.248V181.992H52.848V179.912H52.896ZM48.576 182.44V183.912H49.808C49.552 185.32 48.656 186.312 47.12 186.92L48 188.328C49.968 187.4 51.088 185.928 51.344 183.912H53.104C52.96 184.488 52.784 185.032 52.592 185.544H54.928C54.816 186.28 54.656 186.712 54.464 186.84C54.224 187 53.872 187.08 53.424 187.08C53.072 187.08 52.56 187.016 51.872 186.92L52.352 188.424C53.152 188.424 53.808 188.408 54.336 188.408C54.944 188.376 55.424 188.184 55.744 187.848C56.064 187.496 56.304 186.568 56.464 185.048V184.248H54.464C54.576 183.928 54.688 183.56 54.784 183.176V182.44H48.576ZM60.128 175.992L59.008 177.064C60.096 177.992 60.944 178.872 61.552 179.672L62.704 178.52C62 177.688 61.136 176.84 60.128 175.992ZM69.344 190.424H73.024L73.424 188.824C72.976 188.856 72.352 188.888 71.536 188.904C70.704 188.904 69.904 188.92 69.104 188.92C67.824 188.92 66.704 188.904 65.744 188.888C64.784 188.856 64.064 188.728 63.584 188.504C63.184 188.296 62.8 187.976 62.416 187.56C62.352 187.496 62.288 187.448 62.224 187.384V181.24H58.704V182.776H60.656V187.272C60.048 187.64 59.392 188.424 58.688 189.608L59.904 190.76C60.64 189.368 61.136 188.68 61.408 188.68C61.6 188.68 61.808 188.808 62.032 189.064C62.512 189.576 63.072 189.944 63.744 190.136C64.448 190.296 65.328 190.376 66.4 190.392C67.456 190.408 68.448 190.424 69.344 190.424ZM71.856 176.248H64.4V180.952H63.344V188.152H64.944V182.392H71.376V186.568C71.376 186.856 71.2 187.016 70.864 187.016L69.6 186.952L69.952 188.328H71.312C72.416 188.328 72.976 187.848 72.976 186.92V180.952H71.856V176.248ZM65.968 180.952V179.848H67.52V180.952H65.968ZM65.968 178.568V177.672H70.304V180.952H68.928V178.568H65.968ZM65.856 183.08V186.68H70.384V183.08H65.856ZM69.008 185.416H67.248V184.264H69.008V185.416ZM74.784 176.344V177.88H75.344V187.016L74.496 187.144L74.912 188.808C75.968 188.584 76.976 188.328 77.968 188.072V190.504H79.536V187.608C79.728 187.544 79.92 187.496 80.128 187.432V185.816L79.536 186.008V177.88H79.984V176.344H74.784ZM76.912 186.712V184.52H77.968V186.456C77.616 186.552 77.264 186.632 76.912 186.712ZM76.912 183.016V181.24H77.968V183.016H76.912ZM76.912 179.736V177.88H77.968V179.736H76.912ZM84.688 182.568H80.512V189.464H81.904V188.664H84.4C84.144 188.952 83.872 189.24 83.584 189.512L84.704 190.488C85.264 189.928 85.808 189.288 86.32 188.584C86.448 188.984 86.608 189.352 86.8 189.672C87.136 190.216 87.504 190.488 87.904 190.488C88.64 190.488 89.152 189.512 89.424 187.576L88.208 186.712C88.096 187.928 87.968 188.552 87.808 188.584C87.616 188.488 87.456 187.976 87.312 187.048C88 185.8 88.608 184.392 89.152 182.792L87.824 182.248C87.6 182.984 87.344 183.688 87.056 184.376C87.024 183.656 86.992 182.792 86.96 181.8H89.168V180.36H86.944C86.912 179.064 86.912 177.592 86.912 175.928H85.472C85.472 177.56 85.472 179.032 85.504 180.36H84.416C84.56 179.912 84.688 179.432 84.784 178.92L83.392 178.744C83.312 179.288 83.2 179.832 83.04 180.36H82.4C82.272 179.768 82.144 179.24 82.016 178.776L80.608 178.984C80.768 179.416 80.896 179.88 81.024 180.36H80.016V181.8H85.536C85.6 184.056 85.696 185.688 85.856 186.68C85.504 187.256 85.104 187.8 84.688 188.312V182.568ZM81.904 187.384V186.184H83.296V187.384H81.904ZM81.904 184.952V183.848H83.296V184.952H81.904ZM88.272 176.664L87.088 177.048C87.424 177.912 87.696 178.824 87.92 179.784L89.104 179.48C88.864 178.424 88.592 177.48 88.272 176.664ZM83.12 175.96L81.536 176.216C81.648 176.504 81.76 176.808 81.872 177.16H80.256V178.472H85.024V177.16H83.408C83.312 176.712 83.216 176.312 83.12 175.96ZM91.024 185.16V186.536H93.456C93.056 187.88 92.112 188.904 90.624 189.608L91.856 190.696C93.072 190.024 93.968 189.144 94.528 188.04C95.472 188.808 96.24 189.528 96.816 190.232L97.92 189.112C97.12 188.36 96.144 187.592 94.992 186.808L95.056 186.536H97.872V185.16H96.8L97.616 184.6C97.36 184.2 96.992 183.736 96.512 183.224L95.472 183.88C95.888 184.344 96.208 184.776 96.464 185.16H95.232V183.48H93.68V184.984C93.68 185.032 93.664 185.096 93.664 185.16H91.024ZM98.608 178.824V187.576H100.128C99.52 188.344 98.768 189.016 97.872 189.592L98.8 190.776C99.792 190.088 100.624 189.288 101.312 188.376L100.384 187.576H102.976L102.08 188.44C103.072 189.224 103.84 189.96 104.368 190.664L105.456 189.592C104.848 188.92 104.096 188.248 103.232 187.576H104.8V178.824H102.384C102.416 178.488 102.432 178.136 102.464 177.784H105.232V176.312H98.032V177.784H100.832L100.736 178.824H98.608ZM103.232 186.104H100.176V185H103.232V186.104ZM100.176 183.656V182.648H103.232V183.656H100.176ZM100.176 181.304V180.232H103.232V181.304H100.176ZM90.928 178.84V180.216H93.2C92.432 181.128 91.568 181.864 90.592 182.424L91.52 183.544C92.352 182.952 93.104 182.232 93.776 181.4V183.096H95.312V181.464C96 181.848 96.688 182.328 97.392 182.888L98.16 181.704C97.296 181.16 96.352 180.696 95.312 180.28V180.216H97.808V178.84H95.312V175.944H93.776V178.84H90.928ZM96.64 176.216C96.368 176.856 96.048 177.4 95.664 177.864L96.72 178.616C97.136 178.104 97.488 177.496 97.792 176.792L96.64 176.216ZM92.496 176.36L91.248 176.792C91.568 177.32 91.888 177.944 92.176 178.664L93.36 178.136C93.104 177.496 92.816 176.904 92.496 176.36ZM108.32 175.832C108.192 176.824 108.064 177.8 107.92 178.744H106.672V180.328H107.664C107.392 181.88 107.088 183.336 106.736 184.68C107.504 185.352 108.224 185.976 108.88 186.584C108.272 187.672 107.488 188.6 106.544 189.384L107.616 190.712C108.576 189.864 109.376 188.872 110.048 187.72C110.448 188.136 110.816 188.52 111.136 188.904L112.256 187.592C111.856 187.16 111.376 186.68 110.8 186.168C111.552 184.312 111.968 182.152 112.064 179.656V178.744H109.568C109.68 177.896 109.808 176.984 109.936 175.992L108.32 175.832ZM109.568 185.096C109.232 184.808 108.864 184.52 108.48 184.2C108.768 183.16 109.04 181.864 109.312 180.328H110.528C110.432 182.104 110.112 183.688 109.568 185.096ZM118.16 182.056H115.152V181.048H118.16V182.056ZM115.152 179.672V178.664H118.16V179.672H115.152ZM115.152 177.192V175.896H113.568V177.192H112.24V178.664H113.568V183.464H115.84V184.552H111.984V186.056H114.56C113.888 187.032 112.928 187.848 111.68 188.52L112.608 190.024C114.064 188.984 115.136 187.656 115.824 186.056H115.84V190.584H117.504V186.056H117.632C118.208 187.512 119.136 188.84 120.416 190.04L121.568 188.6C120.352 187.848 119.456 187 118.864 186.056H121.376V184.552H117.504V183.464H119.744V178.664H121.024V177.192H119.744V175.896H118.16V177.192H115.152ZM129.392 175.816C127.536 177.928 125.216 179.704 122.416 181.128L123.312 182.76C124.176 182.28 124.992 181.768 125.76 181.24V182.36H134.24V181.256C134.976 181.784 135.776 182.28 136.624 182.728L137.536 181.112C134.912 179.832 132.608 178.056 130.608 175.816H129.392ZM126.448 180.744C127.808 179.72 128.992 178.584 130 177.336C131.04 178.6 132.224 179.736 133.536 180.744H126.448ZM135.28 183.928H124.72V190.648H126.336V189.832H133.664V190.648H135.28V183.928ZM126.336 188.248V185.496H133.664V188.248H126.336ZM145.472 178.68H148.304V177.176H145.472V176.04H143.936V181.56H146.96V185.64H145.568V182.264H144.032V185.64H141.6L141.52 184.088H143.328V182.552H141.44L141.36 181.096H143.44V179.576H141.28L141.216 178.248C142.4 177.992 143.248 177.736 143.792 177.512L143.168 176.008C141.936 176.504 140.752 176.808 139.616 176.936L139.968 185.64H138.832V187.208H143.184C142.016 187.992 140.576 188.68 138.88 189.288L139.936 190.664C141.776 189.928 143.328 189.096 144.592 188.152L143.52 187.208H148.208L147.536 188.216C149.168 188.824 150.752 189.656 152.304 190.728L153.248 189.272C151.968 188.488 150.544 187.8 148.992 187.208H153.152V185.64H152.048L152.4 176.552H148.944V178.12H150.816L150.752 179.592H149.12V181.112H150.672L150.608 182.584H149.008V184.12H150.528L150.464 185.64H148.48V180.072H145.472V178.68ZM154.784 176.344V177.88H155.344V187.016L154.496 187.144L154.912 188.808C155.968 188.584 156.976 188.328 157.968 188.072V190.504H159.536V187.608C159.728 187.544 159.92 187.496 160.128 187.432V185.816L159.536 186.008V177.88H159.984V176.344H154.784ZM156.912 186.712V184.52H157.968V186.456C157.616 186.552 157.264 186.632 156.912 186.712ZM156.912 183.016V181.24H157.968V183.016H156.912ZM156.912 179.736V177.88H157.968V179.736H156.912ZM164.688 182.568H160.512V189.464H161.904V188.664H164.4C164.144 188.952 163.872 189.24 163.584 189.512L164.704 190.488C165.264 189.928 165.808 189.288 166.32 188.584C166.448 188.984 166.608 189.352 166.8 189.672C167.136 190.216 167.504 190.488 167.904 190.488C168.64 190.488 169.152 189.512 169.424 187.576L168.208 186.712C168.096 187.928 167.968 188.552 167.808 188.584C167.616 188.488 167.456 187.976 167.312 187.048C168 185.8 168.608 184.392 169.152 182.792L167.824 182.248C167.6 182.984 167.344 183.688 167.056 184.376C167.024 183.656 166.992 182.792 166.96 181.8H169.168V180.36H166.944C166.912 179.064 166.912 177.592 166.912 175.928H165.472C165.472 177.56 165.472 179.032 165.504 180.36H164.416C164.56 179.912 164.688 179.432 164.784 178.92L163.392 178.744C163.312 179.288 163.2 179.832 163.04 180.36H162.4C162.272 179.768 162.144 179.24 162.016 178.776L160.608 178.984C160.768 179.416 160.896 179.88 161.024 180.36H160.016V181.8H165.536C165.6 184.056 165.696 185.688 165.856 186.68C165.504 187.256 165.104 187.8 164.688 188.312V182.568ZM161.904 187.384V186.184H163.296V187.384H161.904ZM161.904 184.952V183.848H163.296V184.952H161.904ZM168.272 176.664L167.088 177.048C167.424 177.912 167.696 178.824 167.92 179.784L169.104 179.48C168.864 178.424 168.592 177.48 168.272 176.664ZM163.12 175.96L161.536 176.216C161.648 176.504 161.76 176.808 161.872 177.16H160.256V178.472H165.024V177.16H163.408C163.312 176.712 163.216 176.312 163.12 175.96ZM173.152 185.32H176.288V186.36H173.152V185.32ZM176.288 183.944H173.152V182.84H176.288V183.944ZM173.152 187.736H176.288V188.472C176.288 188.888 176.096 189.112 175.744 189.112L174.624 189.032L175.04 190.584H176.272C177.36 190.584 177.904 189.992 177.904 188.824V181.4H171.536V190.696H173.152V187.736ZM183.312 183C183.904 183 184.352 182.872 184.64 182.632C184.928 182.376 185.136 181.56 185.264 180.216L183.712 179.704C183.68 180.568 183.6 181.08 183.488 181.256C183.376 181.416 183.216 181.496 182.992 181.496H181.168C180.784 181.496 180.608 181.224 180.608 180.712V179.256C182.288 179 183.776 178.728 185.088 178.44L184.544 176.968C183.52 177.24 182.208 177.496 180.608 177.752V175.928H178.96V181.048C178.96 182.344 179.536 183 180.704 183H183.312ZM180.608 186.712C182.208 186.552 183.696 186.296 185.088 185.928L184.544 184.44C183.392 184.792 182.08 185.048 180.608 185.208V183.528H178.96V188.904C178.96 189.912 179.536 190.424 180.688 190.424H183.312C183.904 190.424 184.336 190.296 184.624 190.056C184.912 189.8 185.136 189 185.264 187.64L183.744 187.16C183.696 188.024 183.616 188.536 183.488 188.712C183.392 188.872 183.216 188.952 182.992 188.952H181.152C180.784 188.952 180.608 188.808 180.608 188.536V186.712ZM176.768 176.968L175.488 177.784C175.776 178.216 176.064 178.632 176.32 179.048C175.136 179.176 174.016 179.288 172.96 179.352C173.776 178.568 174.496 177.56 175.136 176.312L173.536 175.832C173.056 176.824 172.352 177.896 171.392 179.016C171.184 179.208 170.928 179.336 170.64 179.432L171.088 180.824C173.376 180.696 175.36 180.488 177.024 180.232C177.2 180.568 177.376 180.904 177.536 181.224L178.912 180.248C178.4 179.32 177.696 178.232 176.768 176.968ZM191.52 176.136C190.864 177.352 190.176 178.36 189.456 179.192C188.56 180.2 187.6 180.968 186.608 181.512L187.52 183C188.928 181.992 189.984 181.08 190.72 180.248C191.472 179.416 192.224 178.328 192.96 177.016L191.52 176.136ZM191.952 183.656C191.632 184.936 191.184 185.976 190.624 186.776C189.888 187.704 188.8 188.552 187.36 189.32L188.448 190.712C190.08 189.784 191.312 188.728 192.144 187.56C192.784 186.584 193.28 185.288 193.648 183.656H197.104C197.04 185.864 196.864 187.304 196.608 187.976C196.352 188.616 195.84 188.952 195.056 188.952C194.224 188.952 193.328 188.92 192.384 188.888L192.832 190.536H195.904C196.72 190.488 197.312 190.216 197.68 189.736C198.064 189.224 198.32 188.344 198.48 187.064C198.64 185.784 198.736 184.12 198.8 182.04H189.072V183.656H191.952ZM196.528 175.944L195.072 176.76C196.048 179.288 197.776 181.336 200.24 182.92L201.376 181.592C199.008 180.216 197.392 178.328 196.528 175.944ZM206.672 182.872C207.024 183.368 207.456 184.008 207.936 184.776L208.848 183.432C208.128 182.584 207.408 181.8 206.672 181.064V180.424H208.656V178.808H206.672V175.848H205.024V178.808H202.88V180.424H204.928C204.416 182.2 203.6 183.784 202.496 185.176L203.216 187.016C203.936 185.88 204.544 184.648 205.024 183.304V190.632H206.672V182.872ZM216.048 175.864C214.08 176.568 211.84 176.936 209.312 177V182.296C209.216 185.288 208.528 187.624 207.248 189.304L208.432 190.568C209.952 188.536 210.784 185.816 210.912 182.408H213.36V190.632H215.04V182.408H217.232V180.792H210.912V178.424C213.104 178.296 215.088 177.944 216.864 177.368L216.048 175.864ZM59.136 208.52C59.072 209.8 58.896 210.952 58.608 211.944L60.08 212.408C60.368 211.336 60.544 210.104 60.624 208.712L59.136 208.52ZM62.32 208.248L60.96 208.552C61.136 209.512 61.296 210.632 61.424 211.88L62.976 211.512C62.784 210.328 62.56 209.24 62.32 208.248ZM63.92 204.152L62.64 204.568C62.768 204.968 62.896 205.368 63.008 205.784C62.368 205.944 61.712 206.088 61.056 206.216C61.952 205.128 63.072 203.464 64.384 201.192V201.352H68.08V203.256H64.816V204.856H73.008V203.256H69.728V201.352H73.36V199.752H69.728V197.88H68.08V199.752H64.384V200.92L62.976 200.392C62.624 201.064 62.272 201.688 61.952 202.264C61.488 202.344 61.008 202.408 60.528 202.472C61.28 201.384 62.016 200.008 62.736 198.36L61.136 197.736C60.624 199.272 60.016 200.696 59.312 201.976C59.104 202.264 58.88 202.472 58.624 202.584L59.024 204.104C59.728 203.992 60.416 203.88 61.056 203.784C60.416 204.824 59.872 205.56 59.424 205.992C59.216 206.184 58.96 206.328 58.672 206.456L59.104 207.96C60.432 207.8 61.84 207.496 63.328 207.048L63.456 207.672L64.832 207.32C64.56 206.136 64.256 205.08 63.92 204.152ZM64.144 207.832L62.896 208.248C63.216 209.08 63.504 210.024 63.776 211.096L65.136 210.472C64.848 209.528 64.528 208.648 64.144 207.832ZM72.56 206.024H65.328V212.664H66.96V212.072H70.944V212.664H72.56V206.024ZM66.96 210.504V207.576H70.944V210.504H66.96ZM76.384 198.36V204.936H81.152V206.008H74.864V207.56H79.824C78.672 208.856 76.912 209.944 74.544 210.808L75.504 212.36C78.064 211.112 79.952 209.56 81.152 207.688V212.632H82.848V207.688C83.968 209.384 85.792 210.952 88.352 212.36L89.504 210.904C87.056 209.912 85.28 208.792 84.16 207.56H89.136V206.008H82.848V204.936H87.584V198.36H76.384ZM85.92 203.512H82.848V202.408H85.92V203.512ZM81.152 203.512H78.048V202.408H81.152V203.512ZM78.048 200.968V199.832H81.152V200.968H78.048ZM82.848 199.832H85.92V200.968H82.848V199.832ZM93.104 208.584C92.704 208.584 92.384 208.696 92.144 208.936C91.888 209.16 91.76 209.464 91.76 209.848C91.76 210.2 91.872 210.504 92.112 210.744C92.352 210.984 92.64 211.112 92.992 211.112C93.168 211.112 93.296 211.08 93.392 211.048C93.392 211.432 93.264 211.8 92.976 212.184C92.672 212.536 92.304 212.792 91.872 212.952V214.008C92.704 213.768 93.376 213.336 93.872 212.712C94.352 212.072 94.608 211.336 94.608 210.488C94.608 209.928 94.464 209.464 94.192 209.112C93.904 208.76 93.536 208.584 93.104 208.584ZM108.656 199.944L107.44 200.712C108.016 201.08 108.528 201.448 108.976 201.8C108.72 201.912 108.432 202.024 108.144 202.136H108.112V202.152C107.632 202.328 107.104 202.504 106.528 202.664L107.536 203.976C107.92 203.848 108.288 203.704 108.672 203.576H111.68V204.872H108.304L107.76 208.984H111.728C111.728 209.88 111.664 210.456 111.568 210.744C111.44 211 110.992 211.144 110.208 211.144C109.616 211.144 109.04 211.112 108.464 211.08L108.864 212.552C109.44 212.584 110 212.616 110.56 212.616C111.984 212.552 112.784 212.184 112.976 211.528C113.136 210.856 113.232 209.544 113.232 207.592H109.36L109.568 206.28H113.136V202.136H111.424C112.48 201.4 113.248 200.52 113.744 199.528V198.328H107.824V199.768H111.84C111.44 200.232 110.928 200.664 110.304 201.08C109.856 200.728 109.312 200.36 108.656 199.944ZM117.84 197.816C117.536 198.168 117.216 198.456 116.88 198.712C116.656 198.856 116.416 199 116.176 199.128C115.856 198.792 115.584 198.44 115.36 198.072L114.048 198.824C114.848 200.104 116.048 201.224 117.648 202.2H114.384C114.384 203 114.304 203.576 114.176 203.944C114.016 204.296 113.664 204.696 113.152 205.112L114.288 206.12C114.848 205.752 115.248 205.352 115.472 204.936C115.68 204.52 115.792 204.072 115.792 203.56H117.616V204.264C117.616 205.224 118.128 205.704 119.184 205.704H120.416V204.36H119.616C119.2 204.36 119.008 204.216 119.008 203.928V202.952C119.424 203.144 119.856 203.352 120.336 203.544L121.456 202.216C120.624 201.928 119.872 201.624 119.184 201.272C119.376 201.144 119.536 201.032 119.696 200.92C120.112 200.6 120.512 200.184 120.912 199.688L119.744 198.968C119.424 199.368 119.072 199.704 118.704 199.992C118.416 200.184 118.128 200.344 117.84 200.504C117.616 200.344 117.392 200.2 117.184 200.04C117.44 199.88 117.68 199.736 117.872 199.608C118.256 199.336 118.624 198.984 119.008 198.552L117.84 197.816ZM113.984 206.328V207.8H118.08C117.808 208.312 117.472 208.776 117.056 209.192C116.384 208.84 115.696 208.504 114.96 208.168L113.952 209.128C114.64 209.464 115.296 209.8 115.904 210.136C115.232 210.552 114.448 210.904 113.552 211.192L114.176 212.648C115.44 212.232 116.512 211.672 117.408 211C118.368 211.576 119.184 212.12 119.872 212.664L121.024 211.496C120.272 210.984 119.424 210.472 118.496 209.96C119.056 209.304 119.472 208.552 119.76 207.72V206.328H113.984ZM126.016 203.784V205.256H128.16V206.472H125.504C125.6 205.592 125.648 204.68 125.648 203.72V202.632H128.16V203.784H126.016ZM125.296 207.976H127.088V210.136C127.088 210.68 126.816 211.064 126.304 211.256L126.752 212.712C128.576 212.392 130.16 212.008 131.488 211.56L131.168 210.04C130.464 210.328 129.648 210.584 128.72 210.84V207.976H130.624C131.856 210.44 133.904 212.04 136.752 212.792L137.536 211.208C136.56 211.016 135.68 210.712 134.912 210.296C135.44 209.928 135.92 209.464 136.368 208.904L135.44 207.976H137.04V206.472H134.128V205.256H136.48V203.784H134.128V202.632H136.336V198.36H123.952V203.72C123.936 206.872 123.44 209.448 122.464 211.448L123.824 212.664C124.496 211.256 124.992 209.704 125.296 207.976ZM132.304 207.976H135.072C134.592 208.584 134.096 209.048 133.568 209.384C133.088 208.984 132.672 208.52 132.304 207.976ZM132.496 202.632V203.784H129.776V202.632H132.496ZM129.776 206.472V205.256H132.496V206.472H129.776ZM134.656 199.88V201.16H125.648V199.88H134.656ZM140.128 197.992L139.008 199.064C140.096 199.992 140.944 200.872 141.552 201.672L142.704 200.52C142 199.688 141.136 198.84 140.128 197.992ZM149.344 212.424H153.024L153.408 210.824C152.976 210.856 152.352 210.888 151.536 210.904C150.704 210.904 149.904 210.92 149.104 210.92C147.856 210.92 146.784 210.904 145.856 210.888C144.912 210.856 144.208 210.728 143.728 210.504C143.36 210.296 142.992 209.976 142.624 209.56L142.464 209.4V203.24H138.784V204.776H140.88V209.256C140.24 209.608 139.536 210.392 138.768 211.608L139.984 212.76C140.784 211.368 141.328 210.68 141.648 210.68C141.824 210.68 142.016 210.808 142.24 211.064C142.72 211.576 143.28 211.944 143.92 212.136C144.592 212.296 145.44 212.376 146.48 212.392C147.504 212.408 148.464 212.424 149.344 212.424ZM147.536 203V203.8H145.632V205.112H147.536V205.928H145.856V209.384H149.312L149.584 210.424H151.408C152.368 210.424 152.864 209.928 152.864 208.968V201.592H150.912C151.168 201.272 151.392 200.904 151.616 200.52L151.024 200.312H153.184V198.856H149.088C148.944 198.472 148.8 198.12 148.672 197.8L146.96 198.088C147.088 198.312 147.232 198.568 147.376 198.856H143.216V200.312H145.776L144.944 200.616C145.216 200.92 145.456 201.24 145.664 201.592H143.632V210.328H145.088V203H147.536ZM149.888 200.312C149.696 200.744 149.472 201.176 149.216 201.592H147.264C147.056 201.112 146.832 200.696 146.592 200.312H149.888ZM150.592 209.064V205.928H148.944V205.112H150.832V203.8H148.944V203H151.392V208.648C151.392 208.936 151.248 209.08 150.96 209.08L150.592 209.064ZM149.296 208.184H147.152V207.128H149.296V208.184ZM161.392 197.816C159.536 199.928 157.216 201.704 154.416 203.128L155.312 204.76C156.176 204.28 156.992 203.768 157.76 203.24V204.36H166.24V203.256C166.976 203.784 167.776 204.28 168.624 204.728L169.536 203.112C166.912 201.832 164.608 200.056 162.608 197.816H161.392ZM158.448 202.744C159.808 201.72 160.992 200.584 162 199.336C163.04 200.6 164.224 201.736 165.536 202.744H158.448ZM167.28 205.928H156.72V212.648H158.336V211.832H165.664V212.648H167.28V205.928ZM158.336 210.248V207.496H165.664V210.248H158.336ZM174 197.816C173.248 200.248 172.096 202.36 170.528 204.152L171.072 205.896C171.536 205.4 171.968 204.888 172.384 204.376V212.696H174.048V201.88C174.64 200.824 175.12 199.704 175.504 198.52L174 197.816ZM184.992 198.328H175.568V212.648H177.056V211.752H183.488V212.648H184.992V198.328ZM177.056 210.264V199.768H183.488V210.264H177.056ZM177.536 201.976V203.384H179.584V204.904H178.08V209.624H182.56V204.904H181.008V203.384H183.04V201.976H181.008V200.392H179.584V201.976H177.536ZM181.264 208.36H179.376V206.168H181.264V208.36ZM194.784 197.88H193.088C193.088 198.488 193.072 199.32 193.072 200.392C192.944 204.984 190.752 208.568 186.464 211.128L187.488 212.632C190.816 210.488 193.008 207.784 194.064 204.52C195.296 207.896 197.408 210.584 200.4 212.6L201.52 211.128C197.888 208.904 195.6 205.688 194.672 201.48C194.736 200.488 194.784 199.288 194.784 197.88ZM91.6173 222.456H89.1853C89.4733 221.72 89.7133 220.904 89.8893 220.04L88.2093 219.816C88.0813 220.728 87.8733 221.608 87.5853 222.456H86.0493V234.136H87.6493V232.872H90.0173V233.672H91.6173V222.456ZM87.6493 231.336V228.312H90.0173V231.336H87.6493ZM87.6493 226.824V224.024H90.0173V226.824H87.6493ZM94.5293 226.344L93.1693 227.192C94.1613 228.472 94.9613 229.64 95.5533 230.696L96.8973 229.768C96.3373 228.776 95.5533 227.64 94.5293 226.344ZM99.8573 222.456H94.9933C95.2333 221.688 95.4413 220.872 95.6013 220.008L93.9533 219.8C93.5693 221.992 92.8653 223.848 91.8093 225.352L92.8173 226.68C93.4093 225.912 93.9213 225.048 94.3533 224.088H98.2253C98.1933 228.616 98.1453 231.256 98.0493 232.024C97.9533 232.648 97.6173 232.968 97.0413 232.968C96.5133 232.968 95.8893 232.936 95.1853 232.888L95.5853 234.408C96.4173 234.472 96.9933 234.504 97.3133 234.504C98.6893 234.504 99.4573 233.944 99.6173 232.824C99.7773 231.512 99.8573 228.056 99.8573 222.456ZM102.065 221.576V233H103.937V221.576H102.065ZM106.175 221.576V233H110.351C112.207 233 113.599 232.488 114.559 231.464C115.471 230.488 115.935 229.096 115.935 227.288C115.935 225.464 115.471 224.072 114.559 223.112C113.599 222.088 112.207 221.576 110.351 221.576H106.175ZM108.047 223.176H109.999C111.423 223.176 112.463 223.496 113.119 224.152C113.759 224.792 114.079 225.848 114.079 227.288C114.079 228.696 113.759 229.736 113.119 230.408C112.463 231.064 111.423 231.4 109.999 231.4H108.047V223.176ZM117.69 221.576V233H119.562V228.616H122.394C125.178 228.616 126.57 227.432 126.57 225.08C126.57 222.744 125.178 221.576 122.426 221.576H117.69ZM119.562 223.176H122.282C123.098 223.176 123.706 223.32 124.09 223.624C124.474 223.912 124.682 224.392 124.682 225.08C124.682 225.768 124.49 226.264 124.106 226.568C123.722 226.856 123.114 227.016 122.282 227.016H119.562V223.176ZM129.743 233.768H131.679V234.424H133.279V228.712H128.143V234.648H129.743V233.768ZM131.679 232.248H129.743V230.232H131.679V232.248ZM127.631 221.704V223.24H133.807V221.704H131.695C131.503 221.128 131.263 220.504 130.943 219.816L129.343 220.248C129.599 220.728 129.855 221.208 130.079 221.704H127.631ZM128.255 224.104V225.56H133.167V224.104H128.255ZM128.255 226.328V227.8H133.167V226.328H128.255ZM137.311 219.88V224.968H134.031V226.568H137.311V234.664H138.959V226.568H142.447V224.968H138.959V219.88H137.311ZM156.367 224.76V223.256H158.015V222.104H156.367V220.552H151.855V219.832H150.223V220.552H145.871V221.608H150.319V222.184H144.159V223.176H150.319V223.752H145.887V224.76H150.223V225.32H145.375V226.296H150.223V226.856H144.207V227.976H157.967V226.856H151.855V226.296H156.783V225.32H151.855V224.76H156.367ZM151.759 221.608H154.799V222.184H151.759V221.608ZM151.759 223.176H154.799V223.752H151.759V223.176ZM145.615 228.472V232.584H156.463V228.472H145.615ZM154.895 231.624H151.823V230.904H154.895V231.624ZM150.255 231.624H147.183V230.904H150.255V231.624ZM147.183 230.104V229.4H150.255V230.104H147.183ZM151.823 229.4H154.895V230.104H151.823V229.4ZM143.903 233.16V234.408H158.175V233.16H143.903ZM163.055 230.568C162.431 230.568 161.903 230.76 161.471 231.176C161.023 231.592 160.815 232.104 160.815 232.728C160.815 233.336 161.023 233.864 161.471 234.28C161.903 234.68 162.431 234.888 163.055 234.888C163.663 234.888 164.191 234.68 164.639 234.264C165.071 233.848 165.295 233.336 165.295 232.728C165.295 232.12 165.071 231.608 164.639 231.192C164.191 230.776 163.663 230.568 163.055 230.568ZM163.055 231.688C163.343 231.688 163.583 231.784 163.807 231.992C164.015 232.184 164.127 232.44 164.127 232.728C164.127 233.016 164.015 233.256 163.807 233.464C163.583 233.656 163.343 233.768 163.055 233.768C162.767 233.768 162.511 233.656 162.303 233.464C162.079 233.256 161.983 233.016 161.983 232.728C161.983 232.44 162.079 232.184 162.303 231.992C162.511 231.784 162.767 231.688 163.055 231.688Z" fill="white"/>
</svg>
