<svg width="178" height="178" viewBox="0 0 178 178" fill="none" xmlns="http://www.w3.org/2000/svg">
<g filter="url(#filter0_d)">
<path d="M89 170C135.944 170 174 131.944 174 85C174 38.0558 135.944 0 89 0C42.0558 0 4 38.0558 4 85C4 131.944 42.0558 170 89 170Z" fill="#4DA583"/>
<path d="M129.379 58.6221H127.215V56.8101C127.215 55.5843 126.728 54.4087 125.862 53.5414C124.996 52.6741 123.821 52.1859 122.595 52.1841C121.369 52.1859 120.194 52.6741 119.328 53.5414C118.461 54.4086 117.975 55.5842 117.974 56.8101V58.6221H116.888V56.8101C116.887 55.5853 116.401 54.4108 115.535 53.5441C114.67 52.6775 113.496 52.1895 112.271 52.1871C111.047 52.19 109.873 52.6783 109.008 53.5449C108.144 54.4115 107.658 55.5857 107.657 56.8101V58.6221H106.567V56.8101C106.566 55.5848 106.08 54.4099 105.214 53.5431C104.348 52.6764 103.173 52.1887 101.948 52.1871C100.723 52.1887 99.5478 52.6763 98.6815 53.543C97.8152 54.4097 97.3281 55.5847 97.327 56.8101V58.6221H96.244V56.8101C96.2432 55.584 95.756 54.4082 94.8893 53.5409C94.0225 52.6737 92.8471 52.1857 91.621 52.1841C90.3954 52.1862 89.2207 52.6745 88.3547 53.5418C87.4888 54.4091 87.0023 55.5845 87.002 56.8101V58.6221H85.919V56.8101C85.9179 55.5845 85.4307 54.4094 84.5641 53.5426C83.6976 52.6759 82.5226 52.1884 81.297 52.1871C80.0724 52.1895 78.8987 52.6776 78.0335 53.5442C77.1683 54.4109 76.6823 55.5855 76.682 56.8101V58.6221H75.592V56.8101C75.5917 55.5855 75.1057 54.4109 74.2405 53.5442C73.3753 52.6776 72.2016 52.1895 70.977 52.1871C69.7517 52.1889 68.5773 52.6767 67.7112 53.5434C66.845 54.41 66.3581 55.5848 66.357 56.8101V58.6221H65.271V56.8101C65.271 55.5844 64.7846 54.4088 63.9186 53.5415C63.0525 52.6741 61.8777 52.1859 60.652 52.1841C59.4268 52.1862 58.2525 52.6746 57.3872 53.542C56.5218 54.4094 56.0362 55.5849 56.037 56.8101V58.6221H53.867C53.6369 58.6226 53.4164 58.7144 53.2538 58.8773C53.0913 59.0402 53 59.261 53 59.4911V116.318C53 116.548 53.0913 116.769 53.2538 116.932C53.4164 117.095 53.6369 117.187 53.867 117.187H129.379C129.493 117.187 129.606 117.164 129.711 117.121C129.816 117.077 129.912 117.013 129.992 116.932C130.073 116.851 130.137 116.756 130.18 116.65C130.224 116.545 130.246 116.432 130.246 116.318V59.4911C130.246 59.3771 130.224 59.2642 130.18 59.1588C130.137 59.0535 130.073 58.9577 129.992 58.877C129.912 58.7963 129.816 58.7323 129.711 58.6885C129.606 58.6448 129.493 58.6222 129.379 58.6221V58.6221ZM54.736 73.1291H128.509V115.449H54.736V73.1291ZM63.536 60.8421C63.5365 61.6068 63.2337 62.3405 62.694 62.8823C62.1543 63.4241 61.4217 63.7297 60.657 63.7321C60.5431 63.732 60.4302 63.7543 60.3249 63.7978C60.2196 63.8413 60.1239 63.9051 60.0433 63.9857C59.9627 64.0662 59.8987 64.1618 59.8551 64.2671C59.8115 64.3723 59.789 64.4851 59.789 64.5991C59.789 64.8294 59.8804 65.0503 60.0432 65.2132C60.2059 65.3761 60.4267 65.4678 60.657 65.4681C61.8817 65.4649 63.0552 64.9761 63.92 64.1089C64.7848 63.2416 65.2703 62.0668 65.27 60.8421V60.3591H73.857V60.8411C73.8575 61.6058 73.5547 62.3395 73.015 62.8813C72.4753 63.4231 71.7427 63.7287 70.978 63.7311C70.864 63.731 70.7511 63.7533 70.6458 63.7968C70.5404 63.8403 70.4446 63.9041 70.3639 63.9846C70.2832 64.0651 70.2192 64.1607 70.1755 64.266C70.1317 64.3712 70.1091 64.4841 70.109 64.5981C70.1093 64.8285 70.2009 65.0494 70.3638 65.2123C70.5267 65.3752 70.7476 65.4668 70.978 65.4671C72.2031 65.4644 73.377 64.9759 74.2423 64.1086C75.1075 63.2413 75.5933 62.0662 75.593 60.8411V60.3591H84.182V60.8411C84.1828 61.6059 83.8801 62.3398 83.3403 62.8816C82.8005 63.4235 82.0678 63.729 81.303 63.7311C81.0731 63.7313 80.8528 63.8228 80.6902 63.9853C80.5277 64.1478 80.4363 64.3682 80.436 64.5981C80.436 64.8282 80.5273 65.0489 80.6898 65.2119C80.8524 65.3748 81.0729 65.4666 81.303 65.4671C82.5282 65.4644 83.7022 64.9759 84.5676 64.1086C85.433 63.2414 85.919 62.0662 85.919 60.8411V60.3591H94.506V60.8411C94.506 61.6065 94.2023 62.3407 93.6617 62.8825C93.121 63.4243 92.3874 63.7295 91.622 63.7311C91.3921 63.7313 91.1718 63.8228 91.0092 63.9853C90.8467 64.1478 90.7553 64.3682 90.755 64.5981C90.755 64.8282 90.8463 65.0489 91.0088 65.2119C91.1714 65.3748 91.3919 65.4666 91.622 65.4671C92.848 65.4652 94.0233 64.9772 94.89 64.1099C95.7566 63.2427 96.2439 62.0671 96.245 60.8411V60.3591H104.832V60.8411C104.832 61.6061 104.528 62.3398 103.988 62.8815C103.448 63.4232 102.715 63.7287 101.95 63.7311C101.836 63.731 101.723 63.7533 101.618 63.7968C101.512 63.8403 101.417 63.9041 101.336 63.9846C101.255 64.0651 101.191 64.1607 101.147 64.266C101.104 64.3712 101.081 64.4841 101.081 64.5981C101.081 64.8285 101.173 65.0494 101.336 65.2123C101.499 65.3752 101.72 65.4668 101.95 65.4671C103.175 65.4642 104.348 64.9756 105.214 64.1086C106.079 63.2416 106.565 62.0669 106.565 60.8421V60.3591H115.157V60.8411C115.158 61.6056 114.855 62.3392 114.315 62.881C113.776 63.4227 113.044 63.7284 112.279 63.7311C112.165 63.7311 112.052 63.7535 111.947 63.7972C111.842 63.8408 111.746 63.9047 111.665 63.9853C111.585 64.0659 111.521 64.1616 111.477 64.2669C111.433 64.3722 111.411 64.4851 111.411 64.5991C111.411 64.7131 111.433 64.8259 111.477 64.9313C111.521 65.0366 111.585 65.1322 111.665 65.2129C111.746 65.2935 111.842 65.3574 111.947 65.401C112.052 65.4446 112.165 65.4671 112.279 65.4671C113.503 65.4631 114.675 64.9741 115.539 64.1071C116.403 63.2401 116.888 62.066 116.888 60.8421V60.3591H125.479V60.8411C125.479 61.6065 125.175 62.3407 124.635 62.8825C124.094 63.4243 123.36 63.7295 122.595 63.7311C122.481 63.7311 122.368 63.7535 122.263 63.7972C122.158 63.8408 122.062 63.9047 121.981 63.9853C121.901 64.0659 121.837 64.1616 121.793 64.2669C121.749 64.3722 121.727 64.4851 121.727 64.5991C121.727 64.7131 121.749 64.8259 121.793 64.9313C121.837 65.0366 121.901 65.1322 121.981 65.2129C122.062 65.2935 122.158 65.3574 122.263 65.401C122.368 65.4446 122.481 65.4671 122.595 65.4671C123.821 65.465 124.995 64.9767 125.862 64.1095C126.728 63.2422 127.214 62.0668 127.215 60.8411V60.3591H128.509V71.3931H54.736V60.3591H63.536V60.8421ZM125.481 58.6221H119.71V56.8101C119.71 56.0446 120.013 55.3102 120.554 54.7684C121.095 54.2265 121.828 53.9214 122.594 53.9201C123.36 53.9211 124.094 54.2261 124.635 54.768C125.176 55.3099 125.479 56.0444 125.479 56.8101L125.481 58.6221ZM115.157 58.6221H109.392V56.8101C109.392 56.0446 109.695 55.3102 110.236 54.7684C110.777 54.2265 111.51 53.9214 112.276 53.9201C113.041 53.9217 113.774 54.227 114.315 54.7688C114.855 55.3107 115.158 56.0449 115.157 56.8101V58.6221ZM104.833 58.6221H99.064V56.8101C99.0637 56.0446 99.3673 55.3102 99.908 54.7684C100.449 54.2265 101.182 53.9214 101.948 53.9201C102.713 53.9222 103.446 54.2276 103.986 54.7694C104.527 55.3111 104.83 56.045 104.83 56.8101L104.833 58.6221ZM94.508 58.6221H88.742V56.8101C88.7417 56.0449 89.045 55.3109 89.5853 54.7691C90.1256 54.2273 90.8588 53.9219 91.624 53.9201C92.389 53.9222 93.1219 54.2276 93.662 54.7694C94.2021 55.3112 94.5053 56.0451 94.505 56.8101L94.508 58.6221ZM84.184 58.6221H78.421V56.8101C78.4207 56.0446 78.7243 55.3102 79.265 54.7684C79.8058 54.2265 80.5395 53.9214 81.305 53.9201C82.0693 53.923 82.8012 54.2289 83.3404 54.7706C83.8795 55.3124 84.1818 56.0458 84.181 56.8101L84.184 58.6221ZM73.859 58.6221H68.094V56.8101C68.0943 56.0444 68.3983 55.3101 68.9393 54.7682C69.4804 54.2264 70.2143 53.9214 70.98 53.9201C71.7445 53.9227 72.4767 54.2285 73.016 54.7703C73.5554 55.312 73.8578 56.0456 73.857 56.8101L73.859 58.6221ZM63.537 58.6221H57.776V56.8101C57.7765 56.0456 58.08 55.3125 58.62 54.7714C59.1601 54.2302 59.8925 53.9252 60.657 53.9231C61.4209 53.9257 62.1527 54.2311 62.692 54.7722C63.2312 55.3133 63.534 56.0461 63.534 56.8101L63.537 58.6221Z" fill="white"/>
<path d="M122.042 88.2026H102.504C102.285 88.2029 102.076 88.2898 101.921 88.4443C101.767 88.5987 101.68 88.8082 101.68 89.0266V108.959C101.679 109.178 101.766 109.388 101.921 109.543C102.075 109.698 102.285 109.785 102.504 109.786H122.042C122.261 109.786 122.471 109.699 122.626 109.543C122.782 109.388 122.869 109.178 122.869 108.959V89.0266C122.868 88.8077 122.781 88.598 122.626 88.4435C122.471 88.289 122.261 88.2024 122.042 88.2026V88.2026ZM121.218 108.134H103.331V89.8536H121.218V108.134Z" fill="white"/>
<path d="M110.493 104.343C110.847 104.404 111.206 104.435 111.565 104.435C112.842 104.436 114.087 104.039 115.128 103.299C115.797 102.829 116.365 102.23 116.801 101.538C117.237 100.846 117.531 100.075 117.666 99.2682C117.685 99.1612 117.682 99.0515 117.658 98.9455C117.634 98.8396 117.589 98.7395 117.526 98.6512C117.464 98.5629 117.385 98.4878 117.294 98.4304C117.203 98.3731 117.101 98.3346 116.995 98.3172C116.78 98.2782 116.559 98.3256 116.379 98.4492C116.289 98.5117 116.212 98.5918 116.154 98.6846C116.096 98.7774 116.056 98.8809 116.039 98.9892C115.94 99.5818 115.724 100.149 115.404 100.657C115.084 101.166 114.666 101.606 114.174 101.951C113.686 102.298 113.135 102.544 112.551 102.676C111.967 102.807 111.363 102.821 110.774 102.717C110.185 102.618 109.621 102.402 109.115 102.083C108.609 101.765 108.172 101.349 107.828 100.86C107.481 100.373 107.234 99.8211 107.101 99.2376C106.968 98.654 106.952 98.0499 107.054 97.4602C107.258 96.2683 107.927 95.2061 108.914 94.5065C109.9 93.8069 111.123 93.527 112.316 93.7282C112.533 93.7651 112.755 93.7148 112.935 93.5882C113.023 93.526 113.098 93.4468 113.156 93.3553C113.213 93.2638 113.251 93.1617 113.269 93.0552C113.306 92.8386 113.256 92.616 113.13 92.4362C113.067 92.3479 112.987 92.2729 112.895 92.2156C112.803 92.1582 112.701 92.1197 112.594 92.1022C110.971 91.8278 109.306 92.2079 107.962 93.1592C106.619 94.1104 105.708 95.5552 105.428 97.1772C105.287 97.9811 105.308 98.8049 105.489 99.6007C105.669 100.397 106.006 101.149 106.48 101.813C106.948 102.479 107.544 103.046 108.233 103.48C108.922 103.914 109.69 104.208 110.493 104.343" fill="white"/>
<path d="M110.88 96.1441C110.73 95.9857 110.522 95.8934 110.304 95.8874C110.085 95.8814 109.873 95.9622 109.713 96.1121C109.634 96.1871 109.57 96.2771 109.525 96.3771C109.481 96.477 109.457 96.5848 109.454 96.6941C109.451 96.8022 109.47 96.9099 109.509 97.0107C109.548 97.1115 109.607 97.2034 109.682 97.2811L111.682 99.3811C111.827 99.533 112.023 99.6246 112.232 99.6374C112.441 99.6502 112.647 99.5833 112.808 99.4501L119.181 94.1641C119.266 94.0948 119.335 94.0094 119.385 93.9129C119.436 93.8164 119.466 93.7107 119.475 93.6021C119.486 93.4947 119.475 93.3861 119.443 93.283C119.411 93.1799 119.358 93.0843 119.288 93.0021C119.221 92.9176 119.137 92.8475 119.041 92.796C118.946 92.7445 118.841 92.7126 118.733 92.7021C118.625 92.6908 118.515 92.7015 118.41 92.7337C118.306 92.7658 118.209 92.8187 118.125 92.8891L112.344 97.6861L110.88 96.1441Z" fill="white"/>
<path d="M65.3167 76.1245H59.8397C59.6204 76.1245 59.41 76.2116 59.2549 76.3667C59.0998 76.5218 59.0127 76.7322 59.0127 76.9515V82.4355C59.0127 82.5441 59.0341 82.6517 59.0756 82.752C59.1172 82.8523 59.1781 82.9435 59.2549 83.0203C59.3317 83.0971 59.4229 83.158 59.5232 83.1996C59.6236 83.2411 59.7311 83.2625 59.8397 83.2625H65.3167C65.4253 83.2625 65.5328 83.2411 65.6332 83.1996C65.7335 83.158 65.8247 83.0971 65.9015 83.0203C65.9783 82.9435 66.0392 82.8523 66.0807 82.752C66.1223 82.6517 66.1437 82.5441 66.1437 82.4355V76.9515C66.1437 76.8429 66.1223 76.7354 66.0807 76.635C66.0392 76.5347 65.9783 76.4435 65.9015 76.3667C65.8247 76.2899 65.7335 76.229 65.6332 76.1875C65.5328 76.1459 65.4253 76.1245 65.3167 76.1245V76.1245ZM60.6637 77.7765H64.4927V81.6085H60.6637V77.7765Z" fill="white"/>
<path d="M75.1429 76.1245H69.6609C69.5525 76.1246 69.4451 76.1461 69.3449 76.1878C69.2448 76.2294 69.1538 76.2904 69.0772 76.3671C69.0006 76.4439 68.9398 76.5351 68.8984 76.6353C68.857 76.7356 68.8358 76.843 68.8359 76.9515V82.4355C68.8358 82.544 68.857 82.6514 68.8984 82.7517C68.9398 82.8519 69.0006 82.9431 69.0772 83.0199C69.1538 83.0967 69.2448 83.1576 69.3449 83.1993C69.4451 83.2409 69.5525 83.2624 69.6609 83.2625H75.1429C75.2515 83.2625 75.3591 83.2411 75.4594 83.1996C75.5598 83.158 75.6509 83.0971 75.7277 83.0203C75.8045 82.9435 75.8654 82.8523 75.907 82.752C75.9485 82.6517 75.9699 82.5441 75.9699 82.4355V76.9515C75.9699 76.7322 75.8828 76.5218 75.7277 76.3667C75.5726 76.2116 75.3623 76.1245 75.1429 76.1245V76.1245ZM70.4869 77.7765H74.3189V81.6085H70.4869V77.7765Z" fill="white"/>
<path d="M84.6234 76.1245H79.1404C78.9214 76.125 78.7116 76.2124 78.5569 76.3674C78.4023 76.5225 78.3154 76.7325 78.3154 76.9515V82.4355C78.3154 82.6545 78.4023 82.8645 78.5569 83.0196C78.7116 83.1746 78.9214 83.262 79.1404 83.2625H84.6234C84.8423 83.262 85.0521 83.1746 85.2066 83.0195C85.3611 82.8645 85.4477 82.6544 85.4474 82.4355V76.9515C85.4477 76.7326 85.3611 76.5226 85.2066 76.3675C85.0521 76.2124 84.8423 76.125 84.6234 76.1245V76.1245ZM83.7974 81.6095H79.9664V77.7785H83.7974V81.6095Z" fill="white"/>
<path d="M94.1039 76.1245H88.6229C88.4036 76.1245 88.1932 76.2116 88.0381 76.3667C87.883 76.5218 87.7959 76.7322 87.7959 76.9515V82.4355C87.7959 82.5441 87.8173 82.6517 87.8589 82.752C87.9004 82.8523 87.9613 82.9435 88.0381 83.0203C88.1149 83.0971 88.2061 83.158 88.3064 83.1996C88.4068 83.2411 88.5143 83.2625 88.6229 83.2625H94.1039C94.2124 83.2624 94.3198 83.2409 94.4199 83.1993C94.5201 83.1576 94.6111 83.0967 94.6877 83.0199C94.7643 82.9431 94.825 82.8519 94.8664 82.7517C94.9078 82.6514 94.929 82.544 94.9289 82.4355V76.9515C94.929 76.843 94.9078 76.7356 94.8664 76.6353C94.825 76.5351 94.7643 76.4439 94.6877 76.3671C94.6111 76.2904 94.5201 76.2294 94.4199 76.1878C94.3198 76.1461 94.2124 76.1246 94.1039 76.1245V76.1245ZM93.2779 81.6095H89.4499V77.7785H93.2779V81.6095Z" fill="white"/>
<path d="M65.3167 85.9341H59.8397C59.6208 85.9338 59.4107 86.0205 59.2557 86.175C59.1006 86.3295 59.0132 86.5392 59.0127 86.7581V92.2441C59.0132 92.463 59.1006 92.6727 59.2557 92.8272C59.4107 92.9817 59.6208 93.0683 59.8397 93.0681H65.3167C65.5356 93.0683 65.7456 92.9817 65.9007 92.8272C66.0558 92.6727 66.1432 92.463 66.1437 92.2441V86.7581C66.1432 86.5392 66.0558 86.3295 65.9007 86.175C65.7456 86.0205 65.5356 85.9338 65.3167 85.9341V85.9341ZM60.6637 87.5851H64.4927V91.4171H60.6637V87.5851Z" fill="white"/>
<path d="M75.1429 85.9341H69.6609C69.4423 85.9341 69.2326 86.0209 69.0779 86.1754C68.9232 86.3299 68.8362 86.5395 68.8359 86.7581V92.2441C68.8362 92.4627 68.9232 92.6723 69.0779 92.8268C69.2326 92.9813 69.4423 93.0681 69.6609 93.0681H75.1429C75.3618 93.0683 75.5719 92.9817 75.7269 92.8272C75.882 92.6727 75.9694 92.463 75.9699 92.2441V86.7581C75.9694 86.5392 75.882 86.3295 75.7269 86.175C75.5719 86.0205 75.3618 85.9338 75.1429 85.9341V85.9341ZM70.4869 87.5851H74.3189V91.4171H70.4869V87.5851Z" fill="white"/>
<path d="M84.6234 85.9341H79.1404C78.9219 85.9343 78.7123 86.0212 78.5577 86.1757C78.4031 86.3301 78.316 86.5395 78.3154 86.7581V92.2441C78.316 92.4626 78.4031 92.6721 78.5577 92.8265C78.7123 92.981 78.9219 93.0678 79.1404 93.0681H84.6234C84.8419 93.0678 85.0513 92.9809 85.2058 92.8264C85.3603 92.672 85.4472 92.4625 85.4474 92.2441V86.7581C85.4472 86.5396 85.3603 86.3302 85.2058 86.1757C85.0513 86.0212 84.8419 85.9343 84.6234 85.9341V85.9341ZM83.7974 91.4171H79.9664V87.5851H83.7974V91.4171Z" fill="white"/>
<path d="M94.1039 85.9341H88.6229C88.404 85.9338 88.194 86.0205 88.0389 86.175C87.8838 86.3295 87.7964 86.5392 87.7959 86.7581V92.2441C87.7964 92.463 87.8838 92.6727 88.0389 92.8272C88.194 92.9817 88.404 93.0683 88.6229 93.0681H94.1039C94.3225 93.0681 94.5322 92.9813 94.6869 92.8268C94.8416 92.6723 94.9286 92.4627 94.9289 92.2441V86.7581C94.9286 86.5395 94.8416 86.3299 94.6869 86.1754C94.5322 86.0209 94.3225 85.9341 94.1039 85.9341V85.9341ZM93.2779 91.4171H89.4499V87.5851H93.2779V91.4171Z" fill="white"/>
<path d="M65.3167 95.7407H59.8397C59.6209 95.7407 59.411 95.8274 59.256 95.9819C59.101 96.1363 59.0135 96.3459 59.0127 96.5647V102.051C59.0128 102.159 59.0343 102.267 59.076 102.367C59.1176 102.467 59.1785 102.558 59.2553 102.635C59.3321 102.711 59.4233 102.772 59.5235 102.813C59.6238 102.855 59.7312 102.876 59.8397 102.876H65.3167C65.4252 102.876 65.5326 102.855 65.6329 102.813C65.7331 102.772 65.8243 102.711 65.9011 102.635C65.9779 102.558 66.0388 102.467 66.0804 102.367C66.1221 102.267 66.1436 102.159 66.1437 102.051V96.5647C66.1429 96.3459 66.0554 96.1363 65.9004 95.9819C65.7454 95.8274 65.5355 95.7407 65.3167 95.7407V95.7407ZM60.6637 97.3917H64.4927V101.226H60.6637V97.3917Z" fill="white"/>
<path d="M75.1429 95.7407H69.6609C69.4424 95.741 69.2329 95.8279 69.0782 95.9823C68.9236 96.1367 68.8365 96.3462 68.8359 96.5647V102.051C68.8359 102.27 68.9229 102.479 69.0776 102.634C69.2323 102.789 69.4421 102.876 69.6609 102.876H75.1429C75.2514 102.876 75.3588 102.855 75.4591 102.813C75.5594 102.772 75.6505 102.711 75.7273 102.635C75.8041 102.558 75.865 102.467 75.9067 102.367C75.9483 102.267 75.9698 102.159 75.9699 102.051V96.5647C75.9691 96.3459 75.8817 96.1363 75.7267 95.9819C75.5717 95.8274 75.3618 95.7407 75.1429 95.7407V95.7407ZM70.4869 97.3917H74.3189V101.226H70.4869V97.3917Z" fill="white"/>
<path d="M84.6234 95.7407H79.1404C78.922 95.7412 78.7126 95.8282 78.558 95.9826C78.4034 96.137 78.3162 96.3463 78.3154 96.5647V102.051C78.3157 102.269 78.4027 102.479 78.5574 102.634C78.712 102.788 78.9217 102.875 79.1404 102.876H84.6234C84.8421 102.875 85.0516 102.788 85.2061 102.634C85.3606 102.479 85.4474 102.269 85.4474 102.051V96.5647C85.4472 96.3463 85.3603 96.1368 85.2058 95.9824C85.0513 95.8279 84.8419 95.741 84.6234 95.7407V95.7407ZM83.7974 101.226H79.9664V97.3917H83.7974V101.226Z" fill="white"/>
<path d="M94.1039 95.7407H88.6229C88.4041 95.7407 88.1942 95.8274 88.0392 95.9819C87.8842 96.1363 87.7967 96.3459 87.7959 96.5647V102.051C87.796 102.159 87.8175 102.267 87.8592 102.367C87.9008 102.467 87.9617 102.558 88.0385 102.635C88.1153 102.711 88.2065 102.772 88.3067 102.813C88.407 102.855 88.5144 102.876 88.6229 102.876H94.1039C94.3227 102.876 94.5325 102.789 94.6873 102.634C94.842 102.479 94.9289 102.27 94.9289 102.051V96.5647C94.9284 96.3462 94.8412 96.1367 94.6866 95.9823C94.532 95.8279 94.3224 95.741 94.1039 95.7407V95.7407ZM93.2779 101.226H89.4499V97.3917H93.2779V101.226Z" fill="white"/>
<path d="M65.3167 105.804H59.8397C59.6204 105.804 59.41 105.891 59.2549 106.046C59.0998 106.202 59.0127 106.412 59.0127 106.631V112.104C59.0127 112.324 59.0998 112.534 59.2549 112.689C59.41 112.844 59.6204 112.931 59.8397 112.931H65.3167C65.4253 112.931 65.5328 112.91 65.6332 112.868C65.7335 112.827 65.8247 112.766 65.9015 112.689C65.9783 112.612 66.0392 112.521 66.0807 112.421C66.1223 112.32 66.1437 112.213 66.1437 112.104V106.631C66.1437 106.523 66.1223 106.415 66.0807 106.315C66.0392 106.214 65.9783 106.123 65.9015 106.046C65.8247 105.97 65.7335 105.909 65.6332 105.867C65.5328 105.826 65.4253 105.804 65.3167 105.804V105.804ZM60.6637 107.456H64.4927V111.279H60.6637V107.456Z" fill="white"/>
<path d="M75.1429 105.804H69.6609C69.5525 105.804 69.4451 105.826 69.3449 105.867C69.2448 105.909 69.1538 105.97 69.0772 106.047C69.0006 106.124 68.9398 106.215 68.8984 106.315C68.857 106.415 68.8358 106.523 68.8359 106.631V112.104C68.8358 112.213 68.857 112.32 68.8984 112.42C68.9398 112.521 69.0006 112.612 69.0772 112.689C69.1538 112.765 69.2448 112.826 69.3449 112.868C69.4451 112.91 69.5525 112.931 69.6609 112.931H75.1429C75.3623 112.931 75.5726 112.844 75.7277 112.689C75.8828 112.534 75.9699 112.324 75.9699 112.104V106.631C75.9699 106.412 75.8828 106.202 75.7277 106.046C75.5726 105.891 75.3623 105.804 75.1429 105.804V105.804ZM70.4869 107.456H74.3189V111.279H70.4869V107.456Z" fill="white"/>
<path d="M84.6234 105.804H79.1404C78.9214 105.805 78.7116 105.892 78.5569 106.047C78.4023 106.202 78.3154 106.412 78.3154 106.631V112.104C78.3154 112.323 78.4023 112.533 78.5569 112.688C78.7116 112.843 78.9214 112.931 79.1404 112.931H84.6234C84.7319 112.931 84.8393 112.91 84.9395 112.868C85.0396 112.826 85.1306 112.765 85.2072 112.689C85.2838 112.612 85.3445 112.521 85.3859 112.42C85.4273 112.32 85.4486 112.213 85.4484 112.104V106.631C85.4486 106.523 85.4273 106.415 85.3859 106.315C85.3445 106.215 85.2838 106.124 85.2072 106.047C85.1306 105.97 85.0396 105.909 84.9395 105.867C84.8393 105.826 84.7319 105.804 84.6234 105.804V105.804ZM83.7974 111.279H79.9664V107.456H83.7974V111.279Z" fill="white"/>
<path d="M94.1039 105.804H88.6229C88.4036 105.804 88.1932 105.891 88.0381 106.046C87.883 106.202 87.7959 106.412 87.7959 106.631V112.104C87.7959 112.324 87.883 112.534 88.0381 112.689C88.1932 112.844 88.4036 112.931 88.6229 112.931H94.1039C94.2125 112.931 94.3199 112.91 94.4202 112.868C94.5205 112.827 94.6116 112.766 94.6883 112.689C94.765 112.612 94.8259 112.521 94.8673 112.421C94.9088 112.32 94.93 112.213 94.9299 112.104V106.631C94.93 106.523 94.9088 106.415 94.8673 106.315C94.8259 106.214 94.765 106.123 94.6883 106.046C94.6116 105.97 94.5205 105.909 94.4202 105.867C94.3199 105.826 94.2125 105.804 94.1039 105.804V105.804ZM93.2779 111.279H89.4499V107.456H93.2779V111.279Z" fill="white"/>
</g>
<defs>
<filter id="filter0_d" x="0" y="0" width="178" height="178" filterUnits="userSpaceOnUse" color-interpolation-filters="sRGB">
<feFlood flood-opacity="0" result="BackgroundImageFix"/>
<feColorMatrix in="SourceAlpha" type="matrix" values="0 0 0 0 0 0 0 0 0 0 0 0 0 0 0 0 0 0 127 0"/>
<feOffset dy="4"/>
<feGaussianBlur stdDeviation="2"/>
<feColorMatrix type="matrix" values="0 0 0 0 0 0 0 0 0 0 0 0 0 0 0 0 0 0 0.25 0"/>
<feBlend mode="normal" in2="BackgroundImageFix" result="effect1_dropShadow"/>
<feBlend mode="normal" in="SourceGraphic" in2="effect1_dropShadow" result="shape"/>
</filter>
</defs>
</svg>
