<svg width="178" height="178" viewBox="0 0 178 178" fill="none" xmlns="http://www.w3.org/2000/svg">
<g filter="url(#filter0_d)">
<path d="M89 170C135.944 170 174 131.944 174 85C174 38.0558 135.944 0 89 0C42.0558 0 4 38.0558 4 85C4 131.944 42.0558 170 89 170Z" fill="#B688C4"/>
<path d="M125.328 83.357L115.98 81.948C115.712 80.4702 115.324 79.0167 114.82 77.602L118.626 74.566H124.405C124.523 74.566 124.64 74.5427 124.749 74.4975C124.859 74.4522 124.958 74.3859 125.041 74.3024C125.125 74.2188 125.191 74.1196 125.237 74.0104C125.282 73.9012 125.305 73.7842 125.305 73.666V47.787C125.305 47.5483 125.21 47.3193 125.041 47.1506C124.873 46.9818 124.644 46.887 124.405 46.887H85.8601C85.6214 46.887 85.3925 46.9818 85.2237 47.1506C85.0549 47.3193 84.9601 47.5483 84.9601 47.787V54.587L84.1601 59.903C82.6797 60.1716 81.2238 60.5613 79.8071 61.068L73.9221 53.668C73.7887 53.4983 73.5985 53.3828 73.3865 53.3427C73.1745 53.3026 72.9551 53.3407 72.7691 53.45L68.2761 56.045C68.0901 56.1529 67.9489 56.3239 67.8781 56.527C67.8073 56.7301 67.8115 56.9518 67.8901 57.152L71.3461 65.959C70.206 66.9339 69.1431 67.9958 68.1671 69.135L59.3581 65.676C59.1578 65.5982 58.9363 65.5947 58.7336 65.6661C58.531 65.7374 58.3605 65.8789 58.2531 66.065L55.6581 70.565C55.5513 70.7512 55.5146 70.9694 55.5546 71.1802C55.5946 71.3911 55.7086 71.5808 55.8761 71.715L63.2761 77.603C62.7705 79.0154 62.3815 80.4669 62.1131 81.943L52.7641 83.352C52.551 83.3838 52.3564 83.491 52.2156 83.6542C52.0749 83.8173 51.9973 84.0255 51.9971 84.241V89.432C51.9991 89.6466 52.077 89.8536 52.217 90.0163C52.357 90.1791 52.5501 90.287 52.7621 90.321L62.1121 91.721C62.3788 93.1993 62.7678 94.653 63.2751 96.067L55.8751 101.96C55.7068 102.094 55.5923 102.285 55.5523 102.496C55.5123 102.708 55.5495 102.926 55.6571 103.113L58.2521 107.607C58.3588 107.796 58.5302 107.94 58.7347 108.013C58.9392 108.085 59.1631 108.081 59.3651 108.002L68.1721 104.536C69.1448 105.679 70.2071 106.742 71.3491 107.716L67.8941 116.516C67.8155 116.716 67.8113 116.938 67.8821 117.141C67.9529 117.344 68.0941 117.515 68.2801 117.623L72.7731 120.223C72.9603 120.329 73.179 120.365 73.3902 120.324C73.6013 120.284 73.7913 120.169 73.9261 120.002L79.8131 112.611C81.2294 113.116 82.685 113.503 84.1651 113.768L85.5651 123.115C85.5969 123.328 85.7043 123.523 85.8676 123.664C86.031 123.804 86.2394 123.882 86.4551 123.882H91.6451C91.8605 123.883 92.0691 123.807 92.2325 123.666C92.3958 123.526 92.503 123.331 92.5341 123.118L93.9411 113.768C95.4199 113.504 96.8742 113.117 98.2891 112.612L104.176 120.002C104.311 120.169 104.5 120.283 104.711 120.322C104.922 120.362 105.14 120.325 105.326 120.218L109.826 117.618C110.012 117.51 110.153 117.339 110.224 117.136C110.295 116.933 110.291 116.711 110.212 116.511L106.747 107.711C107.896 106.739 108.962 105.675 109.936 104.528L118.729 107.985C118.929 108.064 119.151 108.068 119.355 107.997C119.558 107.927 119.729 107.785 119.837 107.599L122.437 103.113C122.545 102.926 122.582 102.708 122.542 102.496C122.502 102.285 122.387 102.094 122.219 101.96L114.831 96.067C115.334 94.6522 115.721 93.1987 115.988 91.721L125.335 90.321C125.547 90.287 125.74 90.1791 125.88 90.0163C126.02 89.8536 126.098 89.6466 126.1 89.432V84.246C126.1 84.0308 126.023 83.8228 125.882 83.6597C125.742 83.4967 125.548 83.3892 125.335 83.357H125.328ZM114.313 90.802C114.034 92.5964 113.565 94.356 112.913 96.051C112.843 96.2286 112.832 96.4242 112.881 96.6087C112.931 96.7932 113.039 96.9567 113.189 97.075L120.483 102.894L118.661 106.039L109.982 102.629C109.804 102.559 109.608 102.547 109.423 102.595C109.238 102.644 109.073 102.75 108.952 102.899C107.811 104.312 106.522 105.599 105.107 106.739C104.956 106.858 104.848 107.023 104.799 107.209C104.749 107.395 104.761 107.592 104.833 107.77L108.254 116.457L105.097 118.279L99.2831 110.985C99.164 110.835 99 110.727 98.8151 110.678C98.6302 110.628 98.4342 110.639 98.2561 110.709C96.5619 111.363 94.802 111.833 93.0071 112.109C92.8177 112.138 92.6426 112.227 92.5073 112.363C92.3721 112.499 92.2837 112.674 92.2551 112.864L90.8681 122.094H87.2251L85.8471 112.866C85.8203 112.675 85.733 112.498 85.598 112.36C85.463 112.223 85.2874 112.132 85.0971 112.102C83.2993 111.825 81.5366 111.356 79.8391 110.702C79.6616 110.63 79.4656 110.618 79.2808 110.668C79.0959 110.718 78.9324 110.827 78.8151 110.978L73.0081 118.272L69.8531 116.45L73.2641 107.763C73.3344 107.584 73.3458 107.388 73.2967 107.203C73.2476 107.017 73.1405 106.852 72.9911 106.732C71.5796 105.588 70.2913 104.299 69.1471 102.888C69.0279 102.739 68.8639 102.633 68.6794 102.585C68.4949 102.536 68.2997 102.549 68.1231 102.621L59.4321 106.039L57.6071 102.892L64.9071 97.076C65.0567 96.9567 65.1645 96.7928 65.2146 96.6081C65.2648 96.4234 65.2548 96.2276 65.1861 96.049C64.5323 94.3549 64.061 92.596 63.7801 90.802C63.7509 90.613 63.6622 90.4382 63.527 90.303C63.3918 90.1678 63.217 90.0792 63.0281 90.05L53.7971 88.662V85.02L63.0271 83.63C63.2156 83.6009 63.3901 83.5127 63.5252 83.3781C63.6604 83.2435 63.7493 83.0694 63.7791 82.881C64.0607 81.0851 64.5334 79.3244 65.1891 77.629C65.259 77.4503 65.2695 77.2539 65.2188 77.0689C65.1682 76.8838 65.0592 76.7201 64.9081 76.602L57.6071 70.802L59.4291 67.647L68.1181 71.059C68.2955 71.1282 68.4903 71.1394 68.6745 71.0909C68.8587 71.0423 69.0228 70.9366 69.1431 70.789C70.2914 69.3799 71.5804 68.0916 72.9901 66.944C73.1382 66.8235 73.2441 66.6591 73.2927 66.4745C73.3412 66.2899 73.3298 66.0947 73.2601 65.917L69.8491 57.229L73.0041 55.407L78.8111 62.707C78.9292 62.8572 79.0925 62.9655 79.2769 63.0159C79.4612 63.0663 79.6569 63.0562 79.8351 62.987C81.4922 62.35 83.2106 61.8859 84.9631 61.602V73.279C82.0508 74.1601 79.499 75.9542 77.6842 78.3963C75.8694 80.8385 74.8877 83.7993 74.8841 86.842C74.887 90.5981 76.3796 94.1997 79.0346 96.8567C81.6895 99.5137 85.29 101.009 89.0461 101.015C92.8037 101.011 96.4062 99.5161 99.0632 96.8591C101.72 94.2021 103.215 90.5996 103.219 86.842C103.211 84.0132 102.349 81.2528 100.746 78.922L107.031 74.569H115.745L113.197 76.602C113.048 76.7211 112.94 76.8846 112.89 77.0689C112.84 77.2532 112.85 77.4486 112.918 77.627C113.571 79.3216 114.04 81.0813 114.318 82.876C114.347 83.0651 114.436 83.24 114.572 83.3748C114.707 83.5097 114.883 83.5974 115.072 83.625L124.3 85.015V88.662L115.07 90.052C114.881 90.08 114.706 90.1678 114.571 90.3026C114.435 90.4374 114.347 90.6121 114.318 90.801L114.313 90.802ZM90.9181 74.569V84.021C90.9178 84.186 90.9629 84.3478 91.0485 84.4889C91.134 84.63 91.2567 84.7449 91.4031 84.821C91.5312 84.8866 91.6731 84.9209 91.8171 84.921C92.0002 84.9213 92.1789 84.8643 92.3281 84.758L99.2741 79.942C100.666 81.9744 101.415 84.3785 101.423 86.842C101.419 90.1231 100.114 93.2686 97.7934 95.5884C95.473 97.9082 92.3272 99.2128 89.0461 99.216C85.7665 99.2112 82.6227 97.9057 80.3044 95.586C77.9862 93.2662 76.6827 90.1216 76.6801 86.842C76.6826 83.8308 77.7823 80.9238 79.7733 78.6648C81.7643 76.4059 84.5101 74.9498 87.4971 74.569H90.9181ZM123.518 72.769H106.749C106.566 72.7694 106.387 72.8252 106.236 72.929L92.7071 82.302V73.668C92.7071 73.5498 92.6838 73.4327 92.6386 73.3235C92.5933 73.2144 92.527 73.1151 92.4435 73.0316C92.3599 72.948 92.2607 72.8817 92.1515 72.8365C92.0423 72.7912 91.9253 72.768 91.8071 72.768H86.7571V48.686H123.508L123.518 72.769Z" fill="white"/>
</g>
<defs>
<filter id="filter0_d" x="0" y="0" width="178" height="178" filterUnits="userSpaceOnUse" color-interpolation-filters="sRGB">
<feFlood flood-opacity="0" result="BackgroundImageFix"/>
<feColorMatrix in="SourceAlpha" type="matrix" values="0 0 0 0 0 0 0 0 0 0 0 0 0 0 0 0 0 0 127 0"/>
<feOffset dy="4"/>
<feGaussianBlur stdDeviation="2"/>
<feColorMatrix type="matrix" values="0 0 0 0 0 0 0 0 0 0 0 0 0 0 0 0 0 0 0.25 0"/>
<feBlend mode="normal" in2="BackgroundImageFix" result="effect1_dropShadow"/>
<feBlend mode="normal" in="SourceGraphic" in2="effect1_dropShadow" result="shape"/>
</filter>
</defs>
</svg>
