<svg width="260" height="260" viewBox="0 0 260 260" fill="none" xmlns="http://www.w3.org/2000/svg">
<path d="M130 260C201.797 260 260 201.797 260 130C260 58.203 201.797 0 130 0C58.203 0 0 58.203 0 130C0 201.797 58.203 260 130 260Z" fill="#B688C4"/>
<path d="M166.331 110.47L156.983 109.061C156.715 107.583 156.327 106.13 155.823 104.715L159.629 101.679H165.408C165.526 101.679 165.643 101.656 165.752 101.61C165.862 101.565 165.961 101.499 166.044 101.415C166.128 101.332 166.194 101.233 166.239 101.123C166.285 101.014 166.308 100.897 166.308 100.779V74.9C166.308 74.6613 166.213 74.4324 166.044 74.2636C165.876 74.0948 165.647 74 165.408 74H126.863C126.624 74 126.395 74.0948 126.227 74.2636C126.058 74.4324 125.963 74.6613 125.963 74.9V81.7L125.163 87.016C123.683 87.2847 122.227 87.6743 120.81 88.181L114.925 80.781C114.792 80.6114 114.601 80.4958 114.389 80.4557C114.177 80.4156 113.958 80.4537 113.772 80.563L109.279 83.158C109.093 83.266 108.952 83.437 108.881 83.64C108.81 83.8431 108.814 84.0648 108.893 84.265L112.349 93.072C111.209 94.047 110.146 95.1088 109.17 96.248L100.361 92.789C100.161 92.7113 99.9392 92.7078 99.7365 92.7791C99.5339 92.8504 99.3634 92.9919 99.256 93.178L96.661 97.678C96.5542 97.8642 96.5175 98.0824 96.5575 98.2933C96.5975 98.5041 96.7115 98.6938 96.879 98.828L104.279 104.716C103.773 106.128 103.384 107.58 103.116 109.056L93.767 110.465C93.5539 110.497 93.3593 110.604 93.2186 110.767C93.0778 110.93 93.0003 111.139 93 111.354V116.545C93.002 116.76 93.0799 116.967 93.2199 117.129C93.36 117.292 93.553 117.4 93.765 117.434L103.115 118.834C103.382 120.312 103.771 121.766 104.278 123.18L96.878 129.073C96.7098 129.207 96.5953 129.398 96.5553 129.609C96.5153 129.821 96.5524 130.04 96.66 130.226L99.255 134.72C99.3617 134.909 99.5331 135.053 99.7376 135.126C99.9422 135.198 100.166 135.194 100.368 135.115L109.175 131.649C110.148 132.792 111.21 133.855 112.352 134.829L108.897 143.629C108.818 143.829 108.814 144.051 108.885 144.254C108.956 144.457 109.097 144.628 109.283 144.736L113.776 147.336C113.963 147.442 114.182 147.478 114.393 147.437C114.604 147.397 114.794 147.283 114.929 147.115L120.816 139.724C122.232 140.229 123.688 140.616 125.168 140.881L126.568 150.228C126.6 150.441 126.707 150.636 126.871 150.777C127.034 150.918 127.242 150.995 127.458 150.995H132.648C132.863 150.996 133.072 150.92 133.235 150.779C133.399 150.639 133.506 150.444 133.537 150.231L134.944 140.881C136.423 140.617 137.877 140.23 139.292 139.725L145.179 147.115C145.313 147.282 145.503 147.396 145.714 147.435C145.925 147.475 146.143 147.438 146.329 147.331L150.829 144.731C151.015 144.623 151.156 144.452 151.227 144.249C151.298 144.046 151.294 143.824 151.215 143.624L147.75 134.824C148.899 133.852 149.965 132.788 150.939 131.641L159.732 135.098C159.932 135.177 160.154 135.181 160.358 135.11C160.561 135.04 160.732 134.898 160.84 134.712L163.44 130.226C163.548 130.04 163.585 129.821 163.545 129.609C163.505 129.398 163.39 129.207 163.222 129.073L155.834 123.18C156.337 121.765 156.724 120.312 156.991 118.834L166.338 117.434C166.55 117.4 166.743 117.292 166.883 117.129C167.023 116.967 167.101 116.76 167.103 116.545V111.359C167.103 111.144 167.026 110.936 166.885 110.773C166.745 110.61 166.551 110.502 166.338 110.47H166.331ZM155.316 117.915C155.037 119.709 154.568 121.469 153.916 123.164C153.846 123.342 153.835 123.537 153.884 123.722C153.934 123.906 154.042 124.07 154.192 124.188L161.486 130.007L159.664 133.152L150.985 129.742C150.807 129.672 150.611 129.66 150.426 129.708C150.241 129.757 150.076 129.863 149.955 130.012C148.814 131.425 147.525 132.712 146.11 133.852C145.959 133.971 145.851 134.136 145.802 134.322C145.752 134.508 145.764 134.705 145.836 134.883L149.257 143.57L146.1 145.392L140.286 138.098C140.167 137.948 140.003 137.84 139.818 137.791C139.633 137.741 139.437 137.752 139.259 137.822C137.565 138.476 135.805 138.946 134.01 139.222C133.821 139.251 133.646 139.34 133.51 139.476C133.375 139.612 133.287 139.787 133.258 139.977L131.871 149.207H128.228L126.85 139.979C126.823 139.788 126.736 139.611 126.601 139.473C126.466 139.336 126.29 139.245 126.1 139.215C124.302 138.938 122.539 138.469 120.842 137.815C120.665 137.743 120.469 137.731 120.284 137.781C120.099 137.831 119.935 137.94 119.818 138.091L114.011 145.385L110.856 143.563L114.267 134.876C114.337 134.697 114.349 134.501 114.3 134.316C114.251 134.13 114.143 133.965 113.994 133.845C112.583 132.701 111.294 131.412 110.15 130.001C110.031 129.852 109.867 129.746 109.682 129.698C109.498 129.649 109.303 129.662 109.126 129.734L100.435 133.152L98.61 130.005L105.91 124.189C106.06 124.07 106.167 123.906 106.218 123.721C106.268 123.536 106.258 123.341 106.189 123.162C105.535 121.468 105.064 119.709 104.783 117.915C104.754 117.726 104.665 117.551 104.53 117.416C104.395 117.281 104.22 117.192 104.031 117.163L94.8 115.775V112.133L104.03 110.743C104.219 110.714 104.393 110.626 104.528 110.491C104.663 110.357 104.752 110.182 104.782 109.994C105.064 108.198 105.536 106.437 106.192 104.742C106.262 104.563 106.272 104.367 106.222 104.182C106.171 103.997 106.062 103.833 105.911 103.715L98.61 97.915L100.432 94.76L109.121 98.172C109.298 98.2412 109.493 98.2524 109.677 98.2039C109.862 98.1554 110.026 98.0497 110.146 97.902C111.294 96.4929 112.583 95.2046 113.993 94.057C114.141 93.9366 114.247 93.7722 114.296 93.5876C114.344 93.403 114.333 93.2077 114.263 93.03L110.852 84.342L114.007 82.52L119.814 89.82C119.932 89.9702 120.095 90.0785 120.28 90.1289C120.464 90.1793 120.66 90.1692 120.838 90.1C122.495 89.463 124.214 88.9989 125.966 88.715V100.392C123.054 101.273 120.502 103.067 118.687 105.509C116.872 107.952 115.891 110.912 115.887 113.955C115.89 117.711 117.383 121.313 120.038 123.97C122.692 126.627 126.293 128.122 130.049 128.128C133.807 128.124 137.409 126.629 140.066 123.972C142.723 121.315 144.218 117.713 144.222 113.955C144.214 111.126 143.352 108.366 141.749 106.035L148.034 101.682H156.748L154.2 103.715C154.051 103.834 153.943 103.998 153.893 104.182C153.843 104.366 153.853 104.562 153.921 104.74C154.574 106.435 155.043 108.194 155.321 109.989C155.35 110.178 155.439 110.353 155.574 110.488C155.71 110.623 155.886 110.71 156.075 110.738L165.303 112.128V115.775L156.073 117.165C155.884 117.193 155.709 117.281 155.574 117.416C155.438 117.55 155.35 117.725 155.321 117.914L155.316 117.915ZM131.921 101.682V111.134C131.921 111.299 131.966 111.461 132.051 111.602C132.137 111.743 132.26 111.858 132.406 111.934C132.534 112 132.676 112.034 132.82 112.034C133.003 112.034 133.182 111.977 133.331 111.871L140.277 107.055C141.669 109.087 142.418 111.492 142.426 113.955C142.422 117.236 141.117 120.382 138.796 122.701C136.476 125.021 133.33 126.326 130.049 126.329C126.769 126.324 123.626 125.019 121.307 122.699C118.989 120.379 117.686 117.235 117.683 113.955C117.686 110.944 118.785 108.037 120.776 105.778C122.767 103.519 125.513 102.063 128.5 101.682H131.921ZM164.521 99.882H147.752C147.569 99.8825 147.39 99.9382 147.239 100.042L133.71 109.415V100.781C133.71 100.663 133.687 100.546 133.641 100.437C133.596 100.327 133.53 100.228 133.446 100.145C133.363 100.061 133.264 99.9947 133.154 99.9495C133.045 99.9043 132.928 99.881 132.81 99.881H127.76V75.799H164.511L164.521 99.882Z" fill="white"/>
<path d="M65.078 35.598V37.71H65.848V50.272L64.682 50.448L65.254 52.736C66.706 52.428 68.092 52.076 69.456 51.724V55.068H71.612V51.086C71.876 50.998 72.14 50.932 72.426 50.844V48.622L71.612 48.886V37.71H72.228V35.598H65.078ZM68.004 49.854V46.84H69.456V49.502C68.972 49.634 68.488 49.744 68.004 49.854ZM68.004 44.772V42.33H69.456V44.772H68.004ZM68.004 40.262V37.71H69.456V40.262H68.004ZM78.696 44.156H72.954V53.638H74.868V52.538H78.3C77.948 52.934 77.574 53.33 77.178 53.704L78.718 55.046C79.488 54.276 80.236 53.396 80.94 52.428C81.116 52.978 81.336 53.484 81.6 53.924C82.062 54.672 82.568 55.046 83.118 55.046C84.13 55.046 84.834 53.704 85.208 51.042L83.536 49.854C83.382 51.526 83.206 52.384 82.986 52.428C82.722 52.296 82.502 51.592 82.304 50.316C83.25 48.6 84.086 46.664 84.834 44.464L83.008 43.716C82.7 44.728 82.348 45.696 81.952 46.642C81.908 45.652 81.864 44.464 81.82 43.1H84.856V41.12H81.798C81.754 39.338 81.754 37.314 81.754 35.026H79.774C79.774 37.27 79.774 39.294 79.818 41.12H78.322C78.52 40.504 78.696 39.844 78.828 39.14L76.914 38.898C76.804 39.646 76.65 40.394 76.43 41.12H75.55C75.374 40.306 75.198 39.58 75.022 38.942L73.086 39.228C73.306 39.822 73.482 40.46 73.658 41.12H72.272V43.1H79.862C79.95 46.202 80.082 48.446 80.302 49.81C79.818 50.602 79.268 51.35 78.696 52.054V44.156ZM74.868 50.778V49.128H76.782V50.778H74.868ZM74.868 47.434V45.916H76.782V47.434H74.868ZM83.624 36.038L81.996 36.566C82.458 37.754 82.832 39.008 83.14 40.328L84.768 39.91C84.438 38.458 84.064 37.16 83.624 36.038ZM76.54 35.07L74.362 35.422C74.516 35.818 74.67 36.236 74.824 36.72H72.602V38.524H79.158V36.72H76.936C76.804 36.104 76.672 35.554 76.54 35.07ZM90.334 47.94H94.646V49.37H90.334V47.94ZM94.646 46.048H90.334V44.53H94.646V46.048ZM90.334 51.262H94.646V52.274C94.646 52.846 94.382 53.154 93.898 53.154L92.358 53.044L92.93 55.178H94.624C96.12 55.178 96.868 54.364 96.868 52.758V42.55H88.112V55.332H90.334V51.262ZM104.304 44.75C105.118 44.75 105.734 44.574 106.13 44.244C106.526 43.892 106.812 42.77 106.988 40.922L104.854 40.218C104.81 41.406 104.7 42.11 104.546 42.352C104.392 42.572 104.172 42.682 103.864 42.682H101.356C100.828 42.682 100.586 42.308 100.586 41.604V39.602C102.896 39.25 104.942 38.876 106.746 38.48L105.998 36.456C104.59 36.83 102.786 37.182 100.586 37.534V35.026H98.32V42.066C98.32 43.848 99.112 44.75 100.718 44.75H104.304ZM100.586 49.854C102.786 49.634 104.832 49.282 106.746 48.776L105.998 46.73C104.414 47.214 102.61 47.566 100.586 47.786V45.476H98.32V52.868C98.32 54.254 99.112 54.958 100.696 54.958H104.304C105.118 54.958 105.712 54.782 106.108 54.452C106.504 54.1 106.812 53 106.988 51.13L104.898 50.47C104.832 51.658 104.722 52.362 104.546 52.604C104.414 52.824 104.172 52.934 103.864 52.934H101.334C100.828 52.934 100.586 52.736 100.586 52.362V49.854ZM95.306 36.456L93.546 37.578C93.942 38.172 94.338 38.744 94.69 39.316C93.062 39.492 91.522 39.646 90.07 39.734C91.192 38.656 92.182 37.27 93.062 35.554L90.862 34.894C90.202 36.258 89.234 37.732 87.914 39.272C87.628 39.536 87.276 39.712 86.88 39.844L87.496 41.758C90.642 41.582 93.37 41.296 95.658 40.944C95.9 41.406 96.142 41.868 96.362 42.308L98.254 40.966C97.55 39.69 96.582 38.194 95.306 36.456ZM108.902 37.468V39.58H116.558V37.468H113.83C113.61 36.676 113.324 35.818 112.972 34.872L110.794 35.466C111.102 36.126 111.388 36.786 111.652 37.468H108.902ZM109.716 40.79V42.77H115.744V40.79H109.716ZM109.716 43.87V45.85H115.744V43.87H109.716ZM115.942 47.148H109.496V55.156H111.652V53.99H115.942V52.978L116.91 54.584C118.934 53 120.43 51.042 121.42 48.688V55.266H123.62V48.556C124.478 50.734 125.864 52.736 127.8 54.584L129.296 52.714C127.448 51.394 126.106 49.92 125.27 48.27H128.57V46.114H123.62V44.618H127.8V35.642H117.24V44.618H121.42V46.114H116.558V48.27H119.814C118.934 49.92 117.636 51.306 115.942 52.45V47.148ZM111.652 51.966V49.172H113.808V51.966H111.652ZM125.666 42.616H123.62V41.054H125.666V42.616ZM121.42 42.616H119.396V41.054H121.42V42.616ZM119.396 39.206V37.666H121.42V39.206H119.396ZM123.62 37.666H125.666V39.206H123.62V37.666ZM140.01 35.62V42.396H149.888V35.62H140.01ZM147.666 40.372H142.254V37.644H147.666V40.372ZM139.416 43.98V46.048H143.662V48.116H139.922V50.162H143.662V52.406H138.58V54.562H151.054V52.406H145.994V50.162H149.844V48.116H145.994V46.048H150.526V43.98H139.416ZM131.188 40.724V42.902H133.894C133.19 45.014 132.09 46.906 130.616 48.578L131.628 51.152C132.64 49.678 133.476 48.072 134.158 46.312V55.2H136.336V45.96C136.798 46.664 137.348 47.544 137.986 48.6L139.284 46.642C138.294 45.586 137.304 44.64 136.336 43.76V42.902H138.734V40.724H136.336V37.908C137.348 37.732 138.338 37.512 139.284 37.248L138.47 35.092C136.336 35.752 133.916 36.17 131.21 36.39L131.672 38.546C132.508 38.458 133.344 38.37 134.158 38.26V40.724H131.188ZM162.23 35.62V48.27H164.298C163.946 50.646 162.56 52.318 160.096 53.33L161.306 55.266C164.342 53.814 166.058 51.482 166.41 48.27H167.466V53.066C167.466 54.32 168.214 54.958 169.754 54.958H170.766C171.822 54.87 172.526 54.606 172.834 54.166C173.142 53.704 173.318 52.406 173.318 50.25L171.36 49.546C171.36 50.58 171.316 51.394 171.272 51.988C171.228 52.56 171.03 52.868 170.656 52.912H169.842C169.688 52.89 169.622 52.802 169.622 52.626V48.27H171.8V35.62H162.23ZM169.71 46.378H164.342V44.552H169.71V46.378ZM164.342 42.748V40.966H169.71V42.748H164.342ZM164.342 39.162V37.512H169.71V39.162H164.342ZM153.474 38.282V40.482H156.444V43.65H153.188V45.828H156.312C155.96 49.282 154.772 51.878 152.792 53.616L154.464 55.09C156.136 53.594 157.324 51.592 158.006 49.062C158.732 49.854 159.612 50.932 160.646 52.296L161.922 50.338C160.734 49.084 159.568 47.94 158.424 46.928L158.556 45.828H161.526V43.65H158.688V40.482H161.218V38.282H158.688V34.916H156.444V38.282H153.474ZM192.304 41.67V39.602H194.57V38.018H192.304V35.884H186.1V34.894H183.856V35.884H177.872V37.336H183.988V38.128H175.518V39.492H183.988V40.284H177.894V41.67H183.856V42.44H177.19V43.782H183.856V44.552H175.584V46.092H194.504V44.552H186.1V43.782H192.876V42.44H186.1V41.67H192.304ZM185.968 37.336H190.148V38.128H185.968V37.336ZM185.968 39.492H190.148V40.284H185.968V39.492ZM177.52 46.774V52.428H192.436V46.774H177.52ZM190.28 51.108H186.056V50.118H190.28V51.108ZM183.9 51.108H179.676V50.118H183.9V51.108ZM179.676 49.018V48.05H183.9V49.018H179.676ZM186.056 48.05H190.28V49.018H186.056V48.05ZM175.166 53.22V54.936H194.79V53.22H175.166Z" fill="white"/>
<path d="M47.6693 165.992L46.5333 167.064C47.6853 167.992 48.5813 168.872 49.2053 169.672L50.3733 168.52C49.6373 167.688 48.7253 166.84 47.6693 165.992ZM56.7893 180.44H60.4693L60.8533 178.84C60.4053 178.872 59.7813 178.904 58.9813 178.92C58.1653 178.936 57.3653 178.952 56.5653 178.952C55.3173 178.952 54.2293 178.936 53.3013 178.92C52.3573 178.888 51.6533 178.76 51.1893 178.52C50.8053 178.296 50.4373 177.96 50.0693 177.512C50.0053 177.448 49.9573 177.384 49.8933 177.336V171.24H46.2293V172.776H48.3413V177.16C47.7013 177.512 46.9973 178.328 46.1973 179.608L47.4293 180.76C48.2293 179.32 48.7733 178.6 49.0933 178.6C49.2693 178.6 49.4613 178.728 49.6853 179.016C50.1653 179.56 50.7253 179.928 51.3653 180.12C52.0373 180.296 52.8853 180.392 53.9253 180.408C54.9493 180.424 55.9093 180.44 56.7893 180.44ZM56.3413 169.912C57.3013 171.128 58.5493 172.088 60.0853 172.808L60.8053 171.448C59.5893 171 58.5973 170.488 57.8453 169.912H60.0053V168.472H56.2933V167.688C57.4453 167.576 58.4693 167.416 59.3813 167.208L58.6453 165.944C56.6293 166.36 54.1813 166.584 51.3013 166.584L51.7493 167.88C52.7733 167.88 53.7653 167.848 54.6933 167.8V168.472H50.9813V169.912H53.1253C52.4533 170.536 51.5093 171.08 50.2773 171.528L51.0933 172.888C52.6933 172.088 53.8613 171.096 54.6293 169.912H54.6933V171.992H56.2933V169.912H56.3413ZM52.0213 172.44V173.912H53.2533C52.9973 175.32 52.1013 176.312 50.5653 176.92L51.4453 178.328C53.4133 177.4 54.5333 175.928 54.7893 173.912H56.5493C56.4053 174.488 56.2293 175.032 56.0373 175.544H58.3733C58.2613 176.28 58.1013 176.712 57.9093 176.84C57.6693 177 57.3173 177.08 56.8693 177.08C56.5173 177.08 56.0053 177.016 55.3173 176.92L55.7973 178.424C56.5973 178.424 57.2533 178.408 57.7813 178.408C58.3893 178.376 58.8693 178.184 59.1893 177.848C59.5093 177.496 59.7493 176.568 59.9093 175.048V174.248H57.9093C58.0213 173.928 58.1333 173.56 58.2293 173.176V172.44H52.0213ZM63.5733 165.992L62.4533 167.064C63.5413 167.992 64.3893 168.872 64.9973 169.672L66.1493 168.52C65.4453 167.688 64.5813 166.84 63.5733 165.992ZM72.7893 180.424H76.4693L76.8693 178.824C76.4213 178.856 75.7973 178.888 74.9813 178.904C74.1493 178.904 73.3493 178.92 72.5493 178.92C71.2693 178.92 70.1493 178.904 69.1893 178.888C68.2293 178.856 67.5093 178.728 67.0293 178.504C66.6293 178.296 66.2453 177.976 65.8613 177.56C65.7973 177.496 65.7333 177.448 65.6693 177.384V171.24H62.1493V172.776H64.1013V177.272C63.4933 177.64 62.8373 178.424 62.1333 179.608L63.3493 180.76C64.0853 179.368 64.5813 178.68 64.8533 178.68C65.0453 178.68 65.2533 178.808 65.4773 179.064C65.9573 179.576 66.5173 179.944 67.1893 180.136C67.8933 180.296 68.7733 180.376 69.8453 180.392C70.9013 180.408 71.8933 180.424 72.7893 180.424ZM75.3013 166.248H67.8453V170.952H66.7893V178.152H68.3893V172.392H74.8213V176.568C74.8213 176.856 74.6453 177.016 74.3093 177.016L73.0453 176.952L73.3973 178.328H74.7573C75.8613 178.328 76.4213 177.848 76.4213 176.92V170.952H75.3013V166.248ZM69.4133 170.952V169.848H70.9653V170.952H69.4133ZM69.4133 168.568V167.672H73.7493V170.952H72.3733V168.568H69.4133ZM69.3013 173.08V176.68H73.8293V173.08H69.3013ZM72.4533 175.416H70.6933V174.264H72.4533V175.416ZM81.4453 165.816C80.6933 168.248 79.5413 170.36 77.9733 172.152L78.5173 173.896C78.9813 173.4 79.4133 172.888 79.8293 172.376V180.696H81.4933V169.88C82.0853 168.824 82.5653 167.704 82.9493 166.52L81.4453 165.816ZM92.4373 166.328H83.0133V180.648H84.5013V179.752H90.9333V180.648H92.4373V166.328ZM84.5013 178.264V167.768H90.9333V178.264H84.5013ZM84.9813 169.976V171.384H87.0293V172.904H85.5253V177.624H90.0053V172.904H88.4533V171.384H90.4853V169.976H88.4533V168.392H87.0293V169.976H84.9813ZM88.7093 176.36H86.8213V174.168H88.7093V176.36ZM102.229 165.88H100.533C100.533 166.488 100.517 167.32 100.517 168.392C100.389 172.984 98.1973 176.568 93.9093 179.128L94.9333 180.632C98.2613 178.488 100.453 175.784 101.509 172.52C102.741 175.896 104.853 178.584 107.845 180.6L108.965 179.128C105.333 176.904 103.045 173.688 102.117 169.48C102.181 168.488 102.229 167.288 102.229 165.88ZM110.565 167.576V179H112.437V167.576H110.565ZM114.675 167.576V179H118.851C120.707 179 122.099 178.488 123.059 177.464C123.971 176.488 124.435 175.096 124.435 173.288C124.435 171.464 123.971 170.072 123.059 169.112C122.099 168.088 120.707 167.576 118.851 167.576H114.675ZM116.547 169.176H118.499C119.923 169.176 120.963 169.496 121.619 170.152C122.259 170.792 122.579 171.848 122.579 173.288C122.579 174.696 122.259 175.736 121.619 176.408C120.963 177.064 119.923 177.4 118.499 177.4H116.547V169.176ZM126.19 167.576V179H128.062V174.616H130.894C133.678 174.616 135.07 173.432 135.07 171.08C135.07 168.744 133.678 167.576 130.926 167.576H126.19ZM128.062 169.176H130.782C131.598 169.176 132.206 169.32 132.59 169.624C132.974 169.912 133.182 170.392 133.182 171.08C133.182 171.768 132.99 172.264 132.606 172.568C132.222 172.856 131.614 173.016 130.782 173.016H128.062V169.176ZM138.243 179.768H140.179V180.424H141.779V174.712H136.643V180.648H138.243V179.768ZM140.179 178.248H138.243V176.232H140.179V178.248ZM136.131 167.704V169.24H142.307V167.704H140.195C140.003 167.128 139.763 166.504 139.443 165.816L137.843 166.248C138.099 166.728 138.355 167.208 138.579 167.704H136.131ZM136.755 170.104V171.56H141.667V170.104H136.755ZM136.755 172.328V173.8H141.667V172.328H136.755ZM145.811 165.88V170.968H142.531V172.568H145.811V180.664H147.459V172.568H150.947V170.968H147.459V165.88H145.811ZM164.867 170.76V169.256H166.515V168.104H164.867V166.552H160.355V165.832H158.723V166.552H154.371V167.608H158.819V168.184H152.659V169.176H158.819V169.752H154.387V170.76H158.723V171.32H153.875V172.296H158.723V172.856H152.707V173.976H166.467V172.856H160.355V172.296H165.283V171.32H160.355V170.76H164.867ZM160.259 167.608H163.299V168.184H160.259V167.608ZM160.259 169.176H163.299V169.752H160.259V169.176ZM154.115 174.472V178.584H164.963V174.472H154.115ZM163.395 177.624H160.323V176.904H163.395V177.624ZM158.755 177.624H155.683V176.904H158.755V177.624ZM155.683 176.104V175.4H158.755V176.104H155.683ZM160.323 175.4H163.395V176.104H160.323V175.4ZM152.403 179.16V180.408H166.675V179.16H152.403ZM174.643 170.344C173.971 172.568 172.787 174.312 171.059 175.592V170.344H174.643ZM171.059 175.768L171.955 177.064C173.635 175.816 174.819 174.104 175.507 171.928C176.547 174.36 177.779 176.024 179.203 176.952L180.147 175.752V178.248C180.147 178.696 179.955 178.92 179.587 178.92L177.235 178.84L177.651 180.408H180.115C181.251 180.408 181.827 179.8 181.827 178.6V168.744H175.907C175.299 167.336 174.659 166.328 173.955 165.752L172.563 166.664C173.187 167.16 173.731 167.848 174.195 168.744H169.379V180.536H171.059V175.768ZM180.147 175.592C178.707 174.536 177.491 172.776 176.531 170.344H180.147V175.592ZM192.035 165.768L190.227 166.056C190.403 166.376 190.563 166.712 190.723 167.064H184.755V170.264H186.387V168.6H196.723V170.184H198.355V167.064H192.499C192.339 166.584 192.195 166.152 192.035 165.768ZM190.963 170.904C189.379 172.568 187.139 173.928 184.227 174.952L185.107 176.296C185.635 176.104 186.163 175.88 186.691 175.656V180.68H188.323V180.136H194.963V180.68H196.579V175.736C197.011 175.928 197.475 176.104 197.987 176.296L198.867 174.952C195.699 173.8 193.475 172.44 192.179 170.904H190.963ZM188.323 178.632V176.552H194.963V178.632H188.323ZM187.859 175.08C189.267 174.312 190.515 173.4 191.571 172.328C192.483 173.352 193.699 174.264 195.235 175.08H187.859ZM193.603 168.904L192.547 169.944C194.595 171.032 196.195 172.056 197.315 173L198.467 171.864C197.155 170.872 195.523 169.896 193.603 168.904ZM189.475 168.904C188.147 169.992 186.515 170.952 184.563 171.752L185.539 173.048C187.523 172.152 189.203 171.096 190.563 169.88L189.475 168.904ZM202.659 176.584C202.259 176.584 201.939 176.696 201.699 176.936C201.443 177.16 201.315 177.464 201.315 177.848C201.315 178.2 201.427 178.504 201.667 178.744C201.907 178.984 202.195 179.112 202.547 179.112C202.723 179.112 202.851 179.08 202.947 179.048C202.947 179.432 202.819 179.8 202.531 180.184C202.227 180.536 201.859 180.792 201.427 180.952V182.008C202.259 181.768 202.931 181.336 203.427 180.712C203.907 180.072 204.163 179.336 204.163 178.488C204.163 177.928 204.019 177.464 203.747 177.112C203.459 176.76 203.091 176.584 202.659 176.584ZM60.772 194.584V198.776H65.652V199.4H60.468V200.472H65.652V201.144H59.284V202.392H73.716V201.144H67.316V200.472H72.564V199.4H67.316V198.776H72.26V194.584H60.772ZM70.676 197.816H67.316V197.128H70.676V197.816ZM65.652 197.816H62.356V197.128H65.652V197.816ZM62.356 196.232V195.56H65.652V196.232H62.356ZM67.316 195.56H70.676V196.232H67.316V195.56ZM61.124 188.088V192.2H71.924V188.088H61.124ZM70.324 191.272H62.724V190.616H70.324V191.272ZM62.724 189.688V189.032H70.324V189.688H62.724ZM59.284 192.808V193.992H73.716V192.808H59.284ZM81.172 187.704C81.076 188.168 80.932 188.616 80.772 189.048H77.524V196.584H75.732V198.12H84.308C82.484 199.336 79.668 200.264 75.828 200.936L76.58 202.44C79.716 201.896 82.404 200.968 84.644 199.64C84.884 199.48 85.124 199.336 85.364 199.176V200.744C85.364 201.032 85.236 201.192 84.996 201.192L83.396 201.112L83.812 202.696H85.524C86.516 202.696 87.012 202.168 87.012 201.112V197.848C88.132 196.808 89.06 195.592 89.828 194.2L88.404 193.304C88.084 194.136 87.62 194.92 87.012 195.672V189.048H82.548C82.708 188.696 82.836 188.328 82.932 187.944L81.172 187.704ZM79.188 196.584V195.416H85.364V196.584H79.188ZM79.188 194.008V192.984H85.364V194.008H79.188ZM79.188 191.592V190.52H85.364V191.592H79.188ZM97.316 194.008C96.644 194.328 95.956 194.632 95.284 194.904V192.232H97.188V190.616H95.284V187.928H93.588V190.616H91.252V192.232H93.588V195.496C92.724 195.752 91.86 195.976 90.996 196.152L91.412 197.752C92.148 197.544 92.868 197.32 93.588 197.096V200.456C93.588 200.808 93.396 201 93.028 201C92.58 201 92.084 200.968 91.572 200.904L91.956 202.52H93.604C94.724 202.52 95.284 201.976 95.284 200.888V196.504C95.972 196.248 96.644 195.96 97.316 195.672V194.008ZM97.524 188.92V190.552H101.604V200.344C101.604 200.76 101.428 200.968 101.108 200.968C100.324 200.968 99.492 200.936 98.628 200.872L98.996 202.488H101.7C102.756 202.488 103.3 201.912 103.3 200.776V190.552H105.716V188.92H97.524ZM108.724 187.912L107.588 188.984C108.74 189.944 109.636 190.84 110.26 191.672L111.428 190.52C110.692 189.656 109.78 188.776 108.724 187.912ZM117.844 202.408H121.508L121.924 200.76C121.476 200.792 120.852 200.824 120.036 200.856C119.204 200.856 118.404 200.872 117.604 200.872C116.356 200.872 115.284 200.856 114.356 200.84C113.412 200.808 112.708 200.68 112.228 200.44C111.86 200.232 111.492 199.912 111.124 199.496L110.948 199.32V193.24H107.284V194.776H109.396V199.16C108.756 199.512 108.052 200.328 107.252 201.608L108.484 202.76C109.284 201.32 109.828 200.6 110.148 200.6C110.324 200.6 110.516 200.728 110.74 201C111.22 201.544 111.78 201.912 112.42 202.104C113.092 202.264 113.94 202.36 114.98 202.376C116.004 202.392 116.964 202.408 117.844 202.408ZM114.116 191.16H116.164V192.728H111.764V194.248H121.684V192.728H117.748V191.16H120.852V189.624H117.748V187.88H116.164V189.624H114.724C114.836 189.288 114.948 188.936 115.044 188.584L113.524 188.248C113.204 189.496 112.676 190.68 111.924 191.768L113.284 192.632C113.572 192.168 113.86 191.672 114.116 191.16ZM113.028 195.144V199.976H120.548V195.144H113.028ZM118.948 198.424H114.628V196.68H118.948V198.424ZM126.5 187.816C125.748 190.248 124.596 192.36 123.028 194.152L123.572 195.896C124.036 195.4 124.468 194.888 124.884 194.376V202.696H126.548V191.88C127.14 190.824 127.62 189.704 128.004 188.52L126.5 187.816ZM137.492 188.328H128.068V202.648H129.556V201.752H135.988V202.648H137.492V188.328ZM129.556 200.264V189.768H135.988V200.264H129.556ZM130.036 191.976V193.384H132.084V194.904H130.58V199.624H135.06V194.904H133.508V193.384H135.54V191.976H133.508V190.392H132.084V191.976H130.036ZM133.764 198.36H131.876V196.168H133.764V198.36ZM147.284 187.88H145.588C145.588 188.488 145.572 189.32 145.572 190.392C145.444 194.984 143.252 198.568 138.964 201.128L139.988 202.632C143.316 200.488 145.508 197.784 146.564 194.52C147.796 197.896 149.908 200.584 152.9 202.6L154.02 201.128C150.388 198.904 148.1 195.688 147.172 191.48C147.236 190.488 147.284 189.288 147.284 187.88ZM156.82 190.584V195.432H161.668V196.152C159.796 196.2 157.892 196.248 155.956 196.28L156.276 197.592C159.22 197.496 162.084 197.4 164.852 197.288V198.216H155.332V199.576H158.804L158.18 200.184C159.188 200.888 159.972 201.544 160.516 202.168L161.652 201.016C161.108 200.536 160.468 200.056 159.716 199.576H164.852V200.76C164.852 201.048 164.676 201.208 164.356 201.208C163.876 201.208 163.364 201.176 162.82 201.112L163.156 202.616H164.884C165.956 202.616 166.5 202.12 166.5 201.16V199.576H169.668V198.216H166.5V197.208L167.684 197.16C167.892 197.448 168.084 197.72 168.26 197.992L169.364 197.24C169.028 196.712 168.564 196.104 167.956 195.432H168.18V190.584H163.332V189.96H169.508V188.68H163.332V187.816H161.668V188.68H155.492V189.96H161.668V190.584H156.82ZM166.74 195.976L163.332 196.104V195.432H166.916L166.5 195.688L166.74 195.976ZM166.564 194.216H163.332V193.512H166.564V194.216ZM161.668 194.216H158.436V193.512H161.668V194.216ZM158.436 192.408V191.704H161.668V192.408H158.436ZM163.332 191.704H166.564V192.408H163.332V191.704ZM178.756 191.32V192.008C178.404 192.104 178.052 192.184 177.7 192.264L177.908 191.768C177.204 191.48 176.484 191.256 175.716 191.08H183.748C182.948 191.368 182.068 191.56 181.108 191.656L181.204 192.104C180.948 192.056 180.66 192.024 180.372 191.992V191.32H178.756ZM184.58 191.08H185.444V188.072H172.068V194.456C172.052 197.208 171.716 199.464 171.044 201.208L172.468 202.488C172.884 201.288 173.204 199.96 173.412 198.504L173.876 199.272C174.292 199.08 174.692 198.888 175.076 198.68V200.648H178.388V201.112C177.012 201.176 175.604 201.224 174.196 201.256L174.5 202.44C177.06 202.312 179.476 202.168 181.764 201.976C181.812 202.088 181.86 202.216 181.924 202.36L182.276 202.232L182.388 202.664C182.772 202.712 183.06 202.744 183.236 202.744C184.436 202.744 185.108 202.296 185.268 201.4C185.412 200.792 185.492 199.24 185.492 196.712H177.428L177.684 196.36H184.756V193.912L185.156 194.008L185.604 192.92C184.708 192.696 183.796 192.52 182.852 192.36C183.572 192.2 184.244 192.024 184.852 191.8L184.58 191.08ZM182.964 201.448C182.82 201.192 182.644 200.936 182.452 200.648H183.092V198.264H179.86V197.848H183.956C183.924 199.496 183.876 200.456 183.796 200.744C183.716 201.208 183.444 201.448 182.996 201.448H182.964ZM178.388 197.848V198.264H175.732C175.924 198.136 176.116 197.992 176.308 197.848H178.388ZM184.548 193.864H175.316C176.5 193.64 177.652 193.368 178.756 193.08V193.624H180.372V193.032C181.78 193.24 183.172 193.512 184.548 193.864ZM176.836 192.456C175.844 192.648 174.852 192.808 173.86 192.92L174.164 194.072C174.26 194.04 174.356 194.024 174.468 194.024V196.36H175.86C175.316 196.92 174.532 197.4 173.508 197.784C173.62 196.744 173.684 195.64 173.684 194.456V191.08H174.836L174.436 191.88C175.252 192.024 176.052 192.216 176.836 192.456ZM183.124 195.448H181.668V194.792H183.124V195.448ZM180.196 195.448H178.916V194.792H180.196V195.448ZM177.396 195.448H176.1V194.792H177.396V195.448ZM181.236 200.968C180.788 201 180.324 201.016 179.86 201.048V200.648H181.044C181.108 200.744 181.172 200.84 181.236 200.968ZM181.62 199.704H179.86V199.208H181.62V199.704ZM178.388 199.704H176.548V199.208H178.388V199.704ZM183.812 189.24V189.96H173.684V189.24H183.812ZM193.172 190.456H190.74C191.028 189.72 191.268 188.904 191.444 188.04L189.764 187.816C189.636 188.728 189.428 189.608 189.14 190.456H187.604V202.136H189.204V200.872H191.572V201.672H193.172V190.456ZM189.204 199.336V196.312H191.572V199.336H189.204ZM189.204 194.824V192.024H191.572V194.824H189.204ZM196.084 194.344L194.724 195.192C195.716 196.472 196.516 197.64 197.108 198.696L198.452 197.768C197.892 196.776 197.108 195.64 196.084 194.344ZM201.412 190.456H196.548C196.788 189.688 196.996 188.872 197.156 188.008L195.508 187.8C195.124 189.992 194.42 191.848 193.364 193.352L194.372 194.68C194.964 193.912 195.476 193.048 195.908 192.088H199.78C199.748 196.616 199.7 199.256 199.604 200.024C199.508 200.648 199.172 200.968 198.596 200.968C198.068 200.968 197.444 200.936 196.74 200.888L197.14 202.408C197.972 202.472 198.548 202.504 198.868 202.504C200.244 202.504 201.012 201.944 201.172 200.824C201.332 199.512 201.412 196.056 201.412 190.456ZM75.284 210.344V211.88H75.844V221.016L74.996 221.144L75.412 222.808C76.468 222.584 77.476 222.328 78.468 222.072V224.504H80.036V221.608C80.228 221.544 80.42 221.496 80.628 221.432V219.816L80.036 220.008V211.88H80.484V210.344H75.284ZM77.412 220.712V218.52H78.468V220.456C78.116 220.552 77.764 220.632 77.412 220.712ZM77.412 217.016V215.24H78.468V217.016H77.412ZM77.412 213.736V211.88H78.468V213.736H77.412ZM85.188 216.568H81.012V223.464H82.404V222.664H84.9C84.644 222.952 84.372 223.24 84.084 223.512L85.204 224.488C85.764 223.928 86.308 223.288 86.82 222.584C86.948 222.984 87.108 223.352 87.3 223.672C87.636 224.216 88.004 224.488 88.404 224.488C89.14 224.488 89.652 223.512 89.924 221.576L88.708 220.712C88.596 221.928 88.468 222.552 88.308 222.584C88.116 222.488 87.956 221.976 87.812 221.048C88.5 219.8 89.108 218.392 89.652 216.792L88.324 216.248C88.1 216.984 87.844 217.688 87.556 218.376C87.524 217.656 87.492 216.792 87.46 215.8H89.668V214.36H87.444C87.412 213.064 87.412 211.592 87.412 209.928H85.972C85.972 211.56 85.972 213.032 86.004 214.36H84.916C85.06 213.912 85.188 213.432 85.284 212.92L83.892 212.744C83.812 213.288 83.7 213.832 83.54 214.36H82.9C82.772 213.768 82.644 213.24 82.516 212.776L81.108 212.984C81.268 213.416 81.396 213.88 81.524 214.36H80.516V215.8H86.036C86.1 218.056 86.196 219.688 86.356 220.68C86.004 221.256 85.604 221.8 85.188 222.312V216.568ZM82.404 221.384V220.184H83.796V221.384H82.404ZM82.404 218.952V217.848H83.796V218.952H82.404ZM88.772 210.664L87.588 211.048C87.924 211.912 88.196 212.824 88.42 213.784L89.604 213.48C89.364 212.424 89.092 211.48 88.772 210.664ZM83.62 209.96L82.036 210.216C82.148 210.504 82.26 210.808 82.372 211.16H80.756V212.472H85.524V211.16H83.908C83.812 210.712 83.716 210.312 83.62 209.96ZM93.652 219.32H96.788V220.36H93.652V219.32ZM96.788 217.944H93.652V216.84H96.788V217.944ZM93.652 221.736H96.788V222.472C96.788 222.888 96.596 223.112 96.244 223.112L95.124 223.032L95.54 224.584H96.772C97.86 224.584 98.404 223.992 98.404 222.824V215.4H92.036V224.696H93.652V221.736ZM103.812 217C104.404 217 104.852 216.872 105.14 216.632C105.428 216.376 105.636 215.56 105.764 214.216L104.212 213.704C104.18 214.568 104.1 215.08 103.988 215.256C103.876 215.416 103.716 215.496 103.492 215.496H101.668C101.284 215.496 101.108 215.224 101.108 214.712V213.256C102.788 213 104.276 212.728 105.588 212.44L105.044 210.968C104.02 211.24 102.708 211.496 101.108 211.752V209.928H99.46V215.048C99.46 216.344 100.036 217 101.204 217H103.812ZM101.108 220.712C102.708 220.552 104.196 220.296 105.588 219.928L105.044 218.44C103.892 218.792 102.58 219.048 101.108 219.208V217.528H99.46V222.904C99.46 223.912 100.036 224.424 101.188 224.424H103.812C104.404 224.424 104.836 224.296 105.124 224.056C105.412 223.8 105.636 223 105.764 221.64L104.244 221.16C104.196 222.024 104.116 222.536 103.988 222.712C103.892 222.872 103.716 222.952 103.492 222.952H101.652C101.284 222.952 101.108 222.808 101.108 222.536V220.712ZM97.268 210.968L95.988 211.784C96.276 212.216 96.564 212.632 96.82 213.048C95.636 213.176 94.516 213.288 93.46 213.352C94.276 212.568 94.996 211.56 95.636 210.312L94.036 209.832C93.556 210.824 92.852 211.896 91.892 213.016C91.684 213.208 91.428 213.336 91.14 213.432L91.588 214.824C93.876 214.696 95.86 214.488 97.524 214.232C97.7 214.568 97.876 214.904 98.036 215.224L99.412 214.248C98.9 213.32 98.196 212.232 97.268 210.968ZM107.156 211.704V213.24H112.724V211.704H110.74C110.58 211.128 110.372 210.504 110.116 209.816L108.532 210.248C108.756 210.728 108.964 211.208 109.156 211.704H107.156ZM107.748 214.12V215.56H112.132V214.12H107.748ZM107.748 216.36V217.8H112.132V216.36H107.748ZM112.276 218.744H107.588V224.568H109.156V223.72H112.276V222.984L112.98 224.152C114.452 223 115.54 221.576 116.26 219.864V224.648H117.86V219.768C118.484 221.352 119.492 222.808 120.9 224.152L121.988 222.792C120.644 221.832 119.668 220.76 119.06 219.56H121.46V217.992H117.86V216.904H120.9V210.376H113.22V216.904H116.26V217.992H112.724V219.56H115.092C114.452 220.76 113.508 221.768 112.276 222.6V218.744ZM109.156 222.248V220.216H110.724V222.248H109.156ZM119.348 215.448H117.86V214.312H119.348V215.448ZM116.26 215.448H114.788V214.312H116.26V215.448ZM114.788 212.968V211.848H116.26V212.968H114.788ZM117.86 211.848H119.348V212.968H117.86V211.848ZM129.78 210.36V215.288H136.964V210.36H129.78ZM135.348 213.816H131.412V211.832H135.348V213.816ZM129.348 216.44V217.944H132.436V219.448H129.716V220.936H132.436V222.568H128.74V224.136H137.812V222.568H134.132V220.936H136.932V219.448H134.132V217.944H137.428V216.44H129.348ZM123.364 214.072V215.656H125.332C124.82 217.192 124.02 218.568 122.948 219.784L123.684 221.656C124.42 220.584 125.028 219.416 125.524 218.136V224.6H127.108V217.88C127.444 218.392 127.844 219.032 128.308 219.8L129.252 218.376C128.532 217.608 127.812 216.92 127.108 216.28V215.656H128.852V214.072H127.108V212.024C127.844 211.896 128.564 211.736 129.252 211.544L128.66 209.976C127.108 210.456 125.348 210.76 123.38 210.92L123.716 212.488C124.324 212.424 124.932 212.36 125.524 212.28V214.072H123.364ZM153.46 212.712L150.068 213.752V209.864H148.468V214.248L146.66 214.808V211.496H145.028V215.304L144.004 215.624V217.256L145.028 216.952V222.504C145.028 223.752 145.652 224.376 146.9 224.376H151.972C152.58 224.376 153.028 224.216 153.332 223.912C153.652 223.608 153.876 222.6 154.004 220.904L152.452 220.424C152.404 221.576 152.308 222.264 152.18 222.488C152.068 222.712 151.892 222.824 151.652 222.824H147.412C146.9 222.824 146.66 222.6 146.66 222.168V216.456L148.468 215.912V221.224H150.068V215.432L151.86 214.904C151.844 216.648 151.812 217.656 151.78 217.928C151.716 218.248 151.572 218.408 151.316 218.408C151.06 218.408 150.756 218.392 150.42 218.376L150.9 220.008H150.964C152.26 220.008 152.996 219.64 153.188 218.92C153.364 218.184 153.46 216.12 153.46 212.712ZM144.18 219.432C143.62 219.688 143.06 219.944 142.484 220.168V215.56H143.972V213.928H142.484V209.928H140.836V213.928H139.188V215.56H140.836V220.712C140.228 220.888 139.604 221.032 138.98 221.16L139.412 222.872C141.108 222.392 142.692 221.8 144.18 221.096V219.432ZM161.748 214.936V215.512H157.78V216.6H161.748V217.096H158.404V222.216H166.66V217.096H163.284V216.6H167.268V215.512H163.284V214.936H165.972V212.36H159.076V214.936H161.748ZM169.268 210.376H155.764V224.728H157.3V224.104H167.732V224.68H169.268V210.376ZM157.3 222.76V211.784H167.732V222.76H157.3ZM165.268 221.224H159.796V218.056H165.268V221.224ZM160.532 218.584V220.696H164.532V218.584H160.532ZM163.364 219.992H161.7V219.272H163.364V219.992ZM164.564 214.024H160.484V213.304H164.564V214.024ZM174.5 220.568C173.876 220.568 173.348 220.76 172.916 221.176C172.468 221.592 172.26 222.104 172.26 222.728C172.26 223.336 172.468 223.864 172.916 224.28C173.348 224.68 173.876 224.888 174.5 224.888C175.108 224.888 175.636 224.68 176.084 224.264C176.516 223.848 176.74 223.336 176.74 222.728C176.74 222.12 176.516 221.608 176.084 221.192C175.636 220.776 175.108 220.568 174.5 220.568ZM174.5 221.688C174.788 221.688 175.028 221.784 175.252 221.992C175.46 222.184 175.572 222.44 175.572 222.728C175.572 223.016 175.46 223.256 175.252 223.464C175.028 223.656 174.788 223.768 174.5 223.768C174.212 223.768 173.956 223.656 173.748 223.464C173.524 223.256 173.428 223.016 173.428 222.728C173.428 222.44 173.524 222.184 173.748 221.992C173.956 221.784 174.212 221.688 174.5 221.688Z" fill="white"/>
</svg>
