<svg width="60" height="60" viewBox="0 0 60 60" fill="none" xmlns="http://www.w3.org/2000/svg">
<path d="M30 60C46.5685 60 60 46.5685 60 30C60 13.4315 46.5685 0 30 0C13.4315 0 0 13.4315 0 30C0 46.5685 13.4315 60 30 60Z" fill="#4DA554"/>
<path d="M30.0928 28.7627L37.9368 21.2167C38.0745 21.0804 38.2605 21.004 38.4543 21.004C38.648 21.004 38.834 21.0804 38.9718 21.2167C39.0395 21.2836 39.0933 21.3633 39.13 21.4512C39.1667 21.5391 39.1855 21.6334 39.1855 21.7287C39.1855 21.8239 39.1667 21.9182 39.13 22.0061C39.0933 22.094 39.0395 22.1737 38.9718 22.2407L30.6118 30.5167C30.474 30.6529 30.288 30.7293 30.0943 30.7293C29.9005 30.7293 29.7145 30.6529 29.5768 30.5167L21.2158 22.2367C21.1479 22.1698 21.094 22.0901 21.0573 22.0022C21.0205 21.9143 21.0016 21.8199 21.0016 21.7247C21.0016 21.6294 21.0205 21.535 21.0573 21.4472C21.094 21.3593 21.1479 21.2795 21.2158 21.2127C21.3535 21.0764 21.5395 21 21.7333 21C21.927 21 22.113 21.0764 22.2508 21.2127L30.0928 28.7627V28.7627Z" fill="white"/>
<path d="M30.0928 35.6167L37.9368 28.0707C38.0745 27.9344 38.2605 27.858 38.4543 27.858C38.648 27.858 38.834 27.9344 38.9718 28.0707C39.0395 28.1376 39.0933 28.2174 39.13 28.3052C39.1667 28.3931 39.1855 28.4874 39.1855 28.5827C39.1855 28.6779 39.1667 28.7722 39.13 28.8601C39.0933 28.948 39.0395 29.0277 38.9718 29.0947L30.6118 37.3707C30.474 37.5069 30.288 37.5833 30.0943 37.5833C29.9005 37.5833 29.7145 37.5069 29.5768 37.3707L21.2158 29.0907C21.1479 29.0238 21.094 28.9441 21.0573 28.8562C21.0205 28.7683 21.0016 28.6739 21.0016 28.5787C21.0016 28.4834 21.0205 28.3891 21.0573 28.3012C21.094 28.2133 21.1479 28.1336 21.2158 28.0667C21.3535 27.9304 21.5395 27.854 21.7333 27.854C21.927 27.854 22.113 27.9304 22.2508 28.0667L30.0928 35.6167V35.6167Z" fill="white"/>
</svg>
