<svg id="圖層_1" data-name="圖層 1" 
    xmlns="http://www.w3.org/2000/svg" viewBox="0 0 163 138">
    <defs>
        <style>.cls-1{fill:#009688;}.cls-2{isolation:isolate;}.cls-3{fill:#fff;}</style>
    </defs>
    <title>色塊</title>
    <path id="Path_90" data-name="Path 90" class="cls-1" d="M95.23,134.84l63.2-36.49A6.91,6.91,0,0,0,161,88.91c-.09-.15-.18-.3-.28-.44A202.79,202.79,0,0,0,8.56.66,6.91,6.91,0,0,0,1.14,7c0,.17,0,.34,0,.51v73A19.2,19.2,0,0,0,16.27,99.21,106.17,106.17,0,0,1,71.39,131,19.27,19.27,0,0,0,95.23,134.84Z"/>
    <g id="R" class="cls-2">
        <g class="cls-2">
            <path class="cls-3" d="M50.53,96.43V45.5H72.17q8.16,0,11.86,1.37A11.67,11.67,0,0,1,90,51.75a14.67,14.67,0,0,1,2.22,8,13.57,13.57,0,0,1-3.37,9.47Q85.44,73,78.74,74a24,24,0,0,1,5.5,4.27,58.13,58.13,0,0,1,5.86,8.27l6.22,9.94H84L76.58,85.34a70.33,70.33,0,0,0-5.42-7.48,7.84,7.84,0,0,0-3.09-2.12,17,17,0,0,0-5.18-.57H60.81V96.43ZM60.81,67h7.61q7.39,0,9.24-.63a5.51,5.51,0,0,0,2.88-2.15,6.62,6.62,0,0,0,1-3.83,6.1,6.1,0,0,0-1.38-4.15,6.24,6.24,0,0,0-3.87-2c-.83-.12-3.34-.18-7.5-.18h-8Z"/>
        </g>
    </g>
</svg>