<svg width="341" height="381" viewBox="0 0 341 381" fill="none" xmlns="http://www.w3.org/2000/svg">
<path d="M37.5945 266.651V105.421L176.547 24.7955L315.472 105.421V266.651L176.547 347.276L37.5945 266.651Z" stroke="#138675"/>
<path d="M37.7313 266.31V266.576L37.9596 266.708L176.319 346.982L176.547 347.114L176.775 346.982L315.107 266.708L315.335 266.576V266.31V105.761V105.496L315.107 105.364L176.775 25.0889L176.547 24.9567L176.319 25.0888L37.9596 105.364L37.7313 105.496V105.761V266.31ZM37.5945 266.651V105.421L176.547 24.7955L315.472 105.421V266.651L176.547 347.276L37.5945 266.651Z" stroke="#138675"/>
<path d="M57.6494 255.473V117.663L176.547 48.7576L295.381 117.663V255.473L176.547 324.378L57.6494 255.473Z" stroke="#138675"/>
<path d="M57.7862 255.132V255.398L58.0147 255.53L176.319 324.094L176.547 324.226L176.775 324.094L295.016 255.53L295.244 255.398V255.132V118.004V117.739L295.016 117.606L176.775 49.0511L176.547 48.9191L176.319 49.051L58.0147 117.606L57.7862 117.739V118.004V255.132ZM57.6494 255.473V117.663L176.547 48.7576L295.381 117.663V255.473L176.547 324.378L57.6494 255.473Z" stroke="#138675"/>
<path d="M76.8835 244.653V129.3L176.547 71.6549L276.147 129.3V244.653L176.547 302.334L76.8835 244.653Z" stroke="#138675"/>
<path d="M77.0203 244.312V244.577L77.2493 244.709L176.32 302.041L176.547 302.173L176.774 302.041L275.817 244.709L276.046 244.577V244.312V129.65V129.385L275.817 129.252L176.774 71.9117L176.547 71.7801L176.32 71.9117L77.2493 129.252L77.0203 129.385V129.65V244.312ZM76.8835 244.653V129.3L176.547 71.6549L276.147 129.3V244.653L176.547 302.334L76.8835 244.653Z" stroke="#138675"/>
<path d="M96.2362 232.583L96.2089 139.791L176.547 93.4055L256.849 139.791V232.584L176.547 278.969L96.2362 232.583Z" stroke="#138675"/>
<path d="M96.3457 232.235V232.501L96.5746 232.633L176.32 278.676L176.547 278.807L176.774 278.676L256.483 232.633L256.712 232.501V232.235V140.14V139.874L256.483 139.741L176.774 93.6707L176.547 93.5395L176.32 93.6707L96.5746 139.741L96.3457 139.874V140.14V232.235ZM96.2089 232.574V139.791L176.547 93.4055L256.849 139.791V232.575L176.547 278.969L96.2089 232.574Z" stroke="#138675"/>
<path d="M116.446 221.572L116.41 151.371L176.547 116.267L236.657 151.371V221.572L176.547 256.676L116.446 221.572Z" stroke="#138675"/>
<path d="M116.583 220.772H116.446V151.371L176.547 116.267L236.657 151.371V221.572L176.547 256.676L116.446 221.572V221.437L116.774 221.627L176.318 256.382L176.547 256.516L176.776 256.382L236.293 221.627L236.52 221.495V221.231V151.712V151.448L236.293 151.316L176.776 116.561L176.547 116.427L176.318 116.561L116.81 151.316L116.583 151.448V151.712V220.772Z" stroke="#138675"/>
<path d="M137.34 208.926L137.304 163.164L176.547 140.22L215.727 163.164V208.972L176.547 231.833L137.34 208.926Z" stroke="#138675"/>
<path d="M137.468 163.432V208.395L137.331 208.578V163.164L176.547 140.22L215.727 163.164V208.963L176.547 231.833L137.331 208.889V208.785L137.668 208.982L176.318 231.54L176.547 231.673L176.776 231.539L215.39 208.981L215.617 208.849V208.585V163.469V163.204L215.39 163.072L176.776 140.477L176.547 140.343L176.318 140.477L137.695 163.035L137.468 163.167V163.432Z" stroke="#138675"/>
<path d="M156.939 197.509V174.544L176.547 163.1L196.155 174.544V197.509L176.547 208.963L156.939 197.509Z" stroke="#138675"/>
<path d="M157.067 197.149H157.341L157.13 197.388L157.158 197.425L157.438 197.801L156.939 197.509V174.544L176.547 163.09L196.155 174.544V197.509L176.547 208.963L157.979 198.117V197.925L176.318 208.624L176.547 208.757L176.776 208.623L195.791 197.509L196.018 197.377V197.113V174.894V174.63L195.791 174.497L176.776 163.42L176.547 163.287L176.318 163.421L157.294 174.535L157.067 174.667V174.931V197.149Z" stroke="#138675"/>
<path d="M177.774 6.14234L177.633 5.87759H177.333H174.896H174.396V6.37759V10.1007H174.021V0.661377H176.956C178.054 0.661377 178.819 0.913458 179.324 1.34454L179.324 1.34455L179.326 1.34593C179.819 1.76423 180.096 2.38801 180.096 3.30179C180.096 3.85631 179.949 4.31722 179.665 4.70637L179.665 4.70637L179.663 4.70942C179.38 5.10351 178.979 5.40844 178.436 5.61682L177.901 5.82219L178.177 6.32459L180.254 10.1007H179.885L177.774 6.14234ZM174.396 5.25198V5.75198H174.896H176.998C177.765 5.75198 178.433 5.55103 178.946 5.09643C179.47 4.6372 179.721 4.02093 179.721 3.30179C179.721 2.55355 179.495 1.90798 178.979 1.44589C178.477 0.991783 177.789 0.799497 176.994 0.794246V0.794236H176.991H174.896H174.396V1.29424V5.25198Z" fill="#138675" stroke="#138675"/>
<path d="M172.636 375.365C171.463 375.026 170.608 374.61 170.071 374.117C169.539 373.621 169.273 373.009 169.273 372.282C169.273 371.459 169.599 370.781 170.25 370.246C170.905 369.706 171.755 369.436 172.801 369.436C173.513 369.436 174.147 369.574 174.702 369.851C175.263 370.129 175.695 370.511 175.999 370.999C176.308 371.486 176.462 372.019 176.462 372.597H175.087C175.087 371.967 174.888 371.471 174.489 371.113C174.09 370.75 173.527 370.568 172.801 370.568C172.126 370.568 171.599 370.719 171.218 371.02C170.843 371.316 170.656 371.73 170.656 372.261C170.656 372.685 170.833 373.047 171.19 373.343C171.551 373.634 172.161 373.902 173.021 374.147C173.886 374.39 174.56 374.66 175.044 374.956C175.534 375.248 175.895 375.589 176.128 375.982C176.365 376.374 176.484 376.835 176.484 377.365C176.484 378.211 176.156 378.89 175.5 379.401C174.845 379.908 173.969 380.161 172.872 380.161C172.159 380.161 171.494 380.026 170.876 379.753C170.259 379.476 169.782 379.098 169.444 378.621C169.112 378.142 168.946 377.6 168.946 376.992H170.321C170.321 377.624 170.551 378.123 171.012 378.491C171.477 378.855 172.097 379.036 172.872 379.036C173.593 379.036 174.147 378.888 174.532 378.591C174.916 378.295 175.109 377.891 175.109 377.38C175.109 376.869 174.93 376.474 174.574 376.197C174.218 375.915 173.572 375.638 172.636 375.365Z" fill="#138675"/>
<path d="M9.82184 105.45C9.69361 106.554 9.2875 107.407 8.6035 108.009C7.92424 108.607 7.01935 108.905 5.88884 108.905C4.66329 108.905 3.68006 108.463 2.93906 107.579C2.2028 106.694 1.83472 105.511 1.83472 104.03V103.026C1.83472 102.056 2.00572 101.203 2.34772 100.467C2.69446 99.7305 3.18375 99.1661 3.81549 98.7743C4.44724 98.3778 5.17875 98.1796 6.00995 98.1796C7.11192 98.1796 7.99547 98.4898 8.6605 99.1111C9.32544 99.7278 9.71258 100.584 9.82184 101.678H8.44672C8.32798 100.847 8.06906 100.244 7.67006 99.871C7.27581 99.4984 6.7225 99.3121 6.00995 99.3121C5.13598 99.3121 4.44961 99.6369 3.95083 100.288C3.4568 100.937 3.20983 101.862 3.20983 103.062V104.073C3.20983 105.206 3.44495 106.107 3.91517 106.776C4.38549 107.445 5.04332 107.78 5.88884 107.78C6.64881 107.78 7.23075 107.607 7.6345 107.263C8.04298 106.915 8.31375 106.31 8.44672 105.45H9.82184Z" fill="#138675"/>
<path d="M6.57752 268.588H2.08162V272.288H7.30429V273.414H0.713623V262.974H7.23306V264.107H2.08162V267.463H6.57752V268.588Z" fill="#138675"/>
<path d="M337.296 107.707H335.928V97.2674H337.296V107.707Z" fill="#138675"/>
<path d="M338.32 271.744H333.973L332.997 274.469H331.586L335.547 264.03H336.745L340.714 274.469H339.309L338.32 271.744ZM334.386 270.612H337.913L336.146 265.729L334.386 270.612Z" fill="#138675"/>
</svg>
