<svg id="圖層_1" data-name="圖層 1" 
    xmlns="http://www.w3.org/2000/svg" viewBox="0 0 443 443">

    <g >
        <polygon points="202.82 210.5 202.82 232.07 221.5 242.85 240.18 232.07 240.18 210.5 221.5 199.72 202.82 210.5"/>
        <polygon points="183.84 199.35 183.84 242.85 221.5 264.59 259.16 242.85 259.16 199.35 221.5 177.61 183.84 199.35"/>
        <polygon points="164.21 188.84 164.21 255 221.5 288.07 278.79 255 278.79 188.84 221.5 155.77 164.21 188.84"/>
        <polygon points="145.17 177.72 145.17 265.87 221.5 309.94 297.83 265.87 297.83 177.72 221.5 133.66 145.17 177.72"/>
        <polygon points="126.73 167.34 126.73 276.77 221.5 331.49 316.27 276.77 316.27 167.34 221.5 112.62 126.73 167.34"/>
        <polygon points="108.58 156.78 108.58 287.16 221.5 352.35 334.42 287.16 334.42 156.78 221.5 91.59 108.58 156.78"/>
        <polygon points="89.03 145.02 89.03 297.98 221.5 374.47 353.98 297.98 353.98 145.02 221.5 68.53 89.03 145.02"/>
    </g>
</svg>