<svg width="350" height="380" viewBox="0 0 350 380" fill="none" xmlns="http://www.w3.org/2000/svg">
<path d="M335.471 116.281H333.167V98.8059H335.471V116.281Z" fill="#F46F18"/>
<path d="M177.81 18.4393H170.488L168.844 23H166.468L173.141 5.52516H175.157L181.842 23H179.478L177.81 18.4393ZM171.185 16.5429H177.126L174.149 8.36962L171.185 16.5429Z" fill="#F46F18"/>
<path d="M174.569 370.813H170.464V377.883H168.148V360.408H173.933C175.901 360.408 177.414 360.856 178.47 361.752C179.534 362.648 180.066 363.952 180.066 365.665C180.066 366.753 179.77 367.701 179.178 368.509C178.594 369.317 177.778 369.921 176.729 370.321L180.834 377.739V377.883H178.362L174.569 370.813ZM170.464 368.929H174.005C175.149 368.929 176.057 368.633 176.729 368.041C177.41 367.449 177.75 366.657 177.75 365.665C177.75 364.584 177.426 363.756 176.777 363.18C176.137 362.604 175.209 362.312 173.993 362.304H170.464V368.929Z" fill="#F46F18"/>
<path d="M5.79694 111.785L6.133 114.09L6.62508 112.013L10.0816 99.8193H12.026L15.3985 112.013L15.8786 114.126L16.2506 111.773L18.9631 99.8193H21.2795L17.0428 117.294H14.9424L11.3418 104.56L11.0658 103.228L10.7898 104.56L7.05715 117.294H4.95681L0.732119 99.8193H3.03649L5.79694 111.785Z" fill="#F46F18"/>
<path d="M10.1766 267.684C8.2003 267.116 6.76006 266.419 5.85592 265.595C4.95977 264.763 4.5117 263.739 4.5117 262.523C4.5117 261.147 5.05979 260.01 6.15596 259.114C7.26014 258.21 8.69238 257.758 10.4527 257.758C11.6529 257.758 12.721 257.99 13.6572 258.454C14.6013 258.918 15.3295 259.558 15.8415 260.374C16.3616 261.191 16.6217 262.083 16.6217 263.051H14.3053C14.3053 261.995 13.9692 261.167 13.2971 260.566C12.625 259.958 11.6769 259.654 10.4527 259.654C9.31648 259.654 8.42833 259.906 7.78823 260.41C7.15613 260.907 6.84008 261.599 6.84008 262.487C6.84008 263.199 7.14012 263.803 7.74022 264.299C8.34832 264.787 9.37649 265.235 10.8247 265.643C12.281 266.051 13.4171 266.503 14.2333 267C15.0574 267.488 15.6655 268.06 16.0576 268.716C16.4576 269.372 16.6577 270.144 16.6577 271.032C16.6577 272.448 16.1056 273.585 15.0014 274.441C13.8972 275.289 12.421 275.713 10.5727 275.713C9.37249 275.713 8.25231 275.485 7.21214 275.029C6.17197 274.565 5.36784 273.933 4.79974 273.133C4.23965 272.332 3.95961 271.424 3.95961 270.408H6.27598C6.27598 271.464 6.66405 272.3 7.44017 272.916C8.2243 273.525 9.26847 273.829 10.5727 273.829C11.7889 273.829 12.721 273.581 13.3691 273.085C14.0172 272.588 14.3413 271.912 14.3413 271.056C14.3413 270.2 14.0412 269.54 13.4411 269.076C12.8411 268.604 11.7529 268.14 10.1766 267.684Z" fill="#F46F18"/>
<path d="M327.999 269.417H323.894V276.486H321.578V259.011H327.363C329.331 259.011 330.844 259.46 331.9 260.356C332.964 261.252 333.496 262.556 333.496 264.268C333.496 265.357 333.2 266.305 332.608 267.113C332.024 267.921 331.208 268.525 330.159 268.925L334.264 276.342V276.486H331.792L327.999 269.417ZM323.894 267.533H327.435C328.579 267.533 329.487 267.237 330.159 266.645C330.84 266.053 331.18 265.261 331.18 264.268C331.18 263.188 330.856 262.36 330.207 261.784C329.567 261.208 328.639 260.916 327.423 260.908H323.894V267.533ZM341.597 274.914C342.389 274.914 343.082 274.674 343.674 274.194C344.266 273.714 344.594 273.114 344.658 272.394H346.758C346.718 273.138 346.462 273.846 345.99 274.518C345.518 275.19 344.886 275.726 344.094 276.126C343.31 276.526 342.477 276.726 341.597 276.726C339.829 276.726 338.421 276.138 337.373 274.962C336.332 273.778 335.812 272.162 335.812 270.113V269.741C335.812 268.477 336.044 267.353 336.509 266.369C336.973 265.385 337.637 264.62 338.501 264.076C339.373 263.532 340.401 263.26 341.585 263.26C343.042 263.26 344.25 263.696 345.21 264.568C346.178 265.441 346.694 266.573 346.758 267.965H344.658C344.594 267.125 344.274 266.437 343.698 265.901C343.13 265.357 342.425 265.084 341.585 265.084C340.457 265.084 339.581 265.493 338.957 266.309C338.341 267.117 338.033 268.289 338.033 269.825V270.245C338.033 271.742 338.341 272.894 338.957 273.702C339.573 274.51 340.453 274.914 341.597 274.914Z" fill="#F46F18"/>
<path d="M38.8934 269.802V115.672L174.629 38.5836L310.373 115.672V269.802L174.629 346.89L38.8934 269.802Z" stroke="#F46F18" stroke-width="2"/>
<path d="M58.5704 259.071V127.425L174.629 61.5874L290.696 127.425V259.071L174.629 324.909L58.5704 259.071Z" stroke="#F46F18" stroke-width="2"/>
<path d="M77.4028 248.677V138.599L174.629 83.5343L271.828 138.598V248.677L174.629 303.75L77.4028 248.677Z" stroke="#F46F18" stroke-width="2"/>
<path d="M96.3934 237.096V148.716L174.629 104.494L252.873 148.716V237.096L174.629 281.318L96.3934 237.096Z" stroke="#F46F18" stroke-width="2"/>
<path d="M116.211 226.533V159.781L174.629 126.401L233.055 159.781V226.533L174.629 259.913L116.211 226.533Z" stroke="#F46F18" stroke-width="2"/>
<path d="M136.706 214.39V171.067L174.629 149.396L212.551 171.067V214.39L174.629 236.052L136.706 214.39Z" stroke="#F46F18" stroke-width="2"/>
<path d="M155.943 203.39V182.031L174.629 171.344L193.323 182.032V203.39L174.629 214.078L155.943 203.39Z" stroke="#F46F18" stroke-width="2"/>
</svg>
