<svg width="211" height="156" viewBox="0 0 211 156" fill="none" xmlns="http://www.w3.org/2000/svg">
<path d="M105.94 0C97.2626 11.067 86.1802 20.0138 73.5324 26.1627C60.8846 32.3116 47.0032 35.5012 32.94 35.49H32.64L0 95.67L32.59 155.09H32.94C68.0163 155.11 102.551 146.436 133.455 129.844C164.359 113.252 190.668 89.2583 210.03 60.01L141.82 58.52L105.94 0Z" fill="#E8893A"/>
<path d="M24.1313 95.22V79.4719H30.8237C32.5067 79.4719 33.7277 79.6152 34.4868 79.9016C35.2531 80.1809 35.8654 80.6822 36.3237 81.4055C36.7821 82.1288 37.0112 82.956 37.0112 83.887C37.0112 85.0686 36.6639 86.0461 35.9692 86.8196C35.2746 87.5859 34.2362 88.0693 32.854 88.2698C33.5415 88.6708 34.1073 89.1112 34.5513 89.5911C35.0024 90.0709 35.6076 90.9231 36.3667 92.1477L38.2896 95.22H34.4868L32.188 91.7932C31.3716 90.5686 30.813 89.7987 30.5122 89.4836C30.2114 89.1614 29.8927 88.943 29.5562 88.8284C29.2196 88.7066 28.686 88.6458 27.9556 88.6458H27.311V95.22H24.1313ZM27.311 86.1321H29.6636C31.189 86.1321 32.1414 86.0676 32.521 85.9387C32.9006 85.8098 33.1978 85.5878 33.4126 85.2727C33.6274 84.9576 33.7349 84.5637 33.7349 84.0911C33.7349 83.5611 33.5916 83.135 33.3052 82.8127C33.0259 82.4833 32.6284 82.2756 32.1128 82.1897C31.855 82.1539 31.0815 82.136 29.7925 82.136H27.311V86.1321ZM46.604 91.5891L49.6118 92.094C49.2251 93.1969 48.6128 94.0383 47.7749 94.6184C46.9442 95.1913 45.9022 95.4778 44.6489 95.4778C42.6652 95.4778 41.1971 94.8297 40.2446 93.5334C39.4927 92.495 39.1167 91.1845 39.1167 89.6018C39.1167 87.7112 39.6108 86.2323 40.5991 85.1653C41.5874 84.0911 42.8371 83.554 44.3481 83.554C46.0454 83.554 47.3846 84.1161 48.3657 85.2405C49.3468 86.3577 49.8159 88.0728 49.7729 90.386H42.2104C42.2319 91.2812 42.4754 91.9794 42.9409 92.4807C43.4064 92.9749 43.9865 93.2219 44.6812 93.2219C45.1538 93.2219 45.5513 93.093 45.8735 92.8352C46.1958 92.5774 46.4393 92.162 46.604 91.5891ZM46.7759 88.5383C46.7544 87.6646 46.5288 87.0022 46.0991 86.551C45.6694 86.0927 45.1466 85.8635 44.5308 85.8635C43.8719 85.8635 43.3276 86.1034 42.8979 86.5833C42.4683 87.0631 42.257 87.7148 42.2642 88.5383H46.7759ZM62.1909 87.1848L59.2153 87.7219C59.1151 87.1275 58.8859 86.6799 58.5278 86.3792C58.1769 86.0784 57.7186 85.928 57.1528 85.928C56.4009 85.928 55.7993 86.1894 55.3481 86.7122C54.9041 87.2278 54.6821 88.0943 54.6821 89.3118C54.6821 90.6653 54.9077 91.6213 55.3589 92.1799C55.8172 92.7385 56.4295 93.0178 57.1958 93.0178C57.7687 93.0178 58.2378 92.8567 58.603 92.5344C58.9683 92.205 59.2261 91.6428 59.3765 90.8479L62.3413 91.3528C62.0334 92.7135 61.4425 93.7411 60.5688 94.4358C59.6951 95.1305 58.5243 95.4778 57.0562 95.4778C55.3875 95.4778 54.0555 94.9514 53.0601 93.8987C52.0718 92.8459 51.5776 91.3886 51.5776 89.5266C51.5776 87.6431 52.0754 86.1786 53.0708 85.1331C54.0662 84.0803 55.4126 83.554 57.1099 83.554C58.4992 83.554 59.6021 83.8547 60.4185 84.4563C61.242 85.0507 61.8328 85.9602 62.1909 87.1848ZM63.7915 89.3547C63.7915 88.3521 64.0386 87.3818 64.5327 86.4436C65.0269 85.5055 65.7251 84.7893 66.6274 84.2952C67.5369 83.801 68.5503 83.554 69.6675 83.554C71.3934 83.554 72.8078 84.1161 73.9106 85.2405C75.0135 86.3577 75.5649 87.7721 75.5649 89.4836C75.5649 91.2096 75.0063 92.6418 73.8892 93.7805C72.7791 94.912 71.3791 95.4778 69.689 95.4778C68.6434 95.4778 67.6444 95.2415 66.6919 94.7688C65.7466 94.2961 65.0269 93.6051 64.5327 92.6956C64.0386 91.7789 63.7915 90.6653 63.7915 89.3547ZM66.8853 89.5159C66.8853 90.6474 67.1538 91.5139 67.6909 92.1155C68.228 92.717 68.8905 93.0178 69.6782 93.0178C70.466 93.0178 71.1248 92.717 71.6548 92.1155C72.1919 91.5139 72.4604 90.6402 72.4604 89.4944C72.4604 88.3772 72.1919 87.5178 71.6548 86.9163C71.1248 86.3147 70.466 86.0139 69.6782 86.0139C68.8905 86.0139 68.228 86.3147 67.6909 86.9163C67.1538 87.5178 66.8853 88.3844 66.8853 89.5159ZM77.6597 95.9719L81.1079 96.3909C81.1652 96.7919 81.2977 97.0676 81.5054 97.218C81.7918 97.4329 82.243 97.5403 82.8589 97.5403C83.6466 97.5403 84.2375 97.4221 84.6313 97.1858C84.8963 97.0282 85.0968 96.774 85.2329 96.4231C85.326 96.1724 85.3726 95.7105 85.3726 95.0374V93.3723C84.4702 94.6041 83.3315 95.22 81.9565 95.22C80.424 95.22 79.2101 94.5719 78.3149 93.2756C77.6131 92.2515 77.2622 90.9768 77.2622 89.4514C77.2622 87.5393 77.7205 86.0784 78.6372 85.0686C79.561 84.0588 80.7069 83.554 82.0747 83.554C83.4855 83.554 84.6493 84.1734 85.5659 85.4124V83.8118H88.3911V94.0491C88.3911 95.3954 88.2801 96.4016 88.0581 97.0676C87.8361 97.7336 87.5246 98.2564 87.1235 98.636C86.7225 99.0155 86.1854 99.3127 85.5122 99.5276C84.8462 99.7424 84.0011 99.8499 82.9771 99.8499C81.0435 99.8499 79.672 99.5168 78.8628 98.8508C78.0535 98.192 77.6489 97.3541 77.6489 96.3372C77.6489 96.2369 77.6525 96.1152 77.6597 95.9719ZM80.356 89.2795C80.356 90.4898 80.5887 91.3778 81.0542 91.9436C81.5269 92.5022 82.1069 92.7815 82.7944 92.7815C83.5321 92.7815 84.1551 92.495 84.6636 91.9221C85.172 91.342 85.4263 90.4862 85.4263 89.3547C85.4263 88.1731 85.1828 87.2958 84.6958 86.7229C84.2088 86.15 83.5929 85.8635 82.8481 85.8635C82.1248 85.8635 81.5269 86.1464 81.0542 86.7122C80.5887 87.2708 80.356 88.1265 80.356 89.2795ZM101.765 95.22H98.7466V89.3977C98.7466 88.1659 98.6821 87.371 98.5532 87.0129C98.4243 86.6477 98.2131 86.3648 97.9194 86.1643C97.633 85.9638 97.2856 85.8635 96.8774 85.8635C96.3547 85.8635 95.8856 86.0068 95.4702 86.2932C95.0549 86.5797 94.7684 86.9592 94.6108 87.4319C94.4604 87.9045 94.3853 88.7782 94.3853 90.053V95.22H91.3667V83.8118H94.1704V85.4875C95.1659 84.1985 96.4191 83.554 97.9302 83.554C98.5962 83.554 99.2049 83.6757 99.7563 83.9192C100.308 84.1555 100.723 84.4599 101.002 84.8323C101.289 85.2047 101.486 85.6272 101.593 86.0999C101.708 86.5725 101.765 87.2493 101.765 88.1301V95.22ZM104.837 82.2649V79.4719H107.856V82.2649H104.837ZM104.837 95.22V83.8118H107.856V95.22H104.837ZM116.192 83.8118V86.218H114.129V90.8157C114.129 91.7467 114.147 92.2909 114.183 92.4485C114.226 92.5989 114.316 92.7242 114.452 92.8245C114.595 92.9247 114.767 92.9749 114.967 92.9749C115.247 92.9749 115.651 92.8782 116.181 92.6848L116.439 95.0266C115.737 95.3274 114.942 95.4778 114.054 95.4778C113.51 95.4778 113.019 95.3883 112.583 95.2092C112.146 95.023 111.823 94.7867 111.616 94.5002C111.415 94.2066 111.276 93.8127 111.197 93.3186C111.132 92.9677 111.1 92.2587 111.1 91.1917V86.218H109.714V83.8118H111.1V81.5452L114.129 79.7834V83.8118H116.192ZM118.287 82.2649V79.4719H121.305V82.2649H118.287ZM118.287 95.22V83.8118H121.305V95.22H118.287ZM123.711 89.3547C123.711 88.3521 123.958 87.3818 124.453 86.4436C124.947 85.5055 125.645 84.7893 126.547 84.2952C127.457 83.801 128.47 83.554 129.587 83.554C131.313 83.554 132.728 84.1161 133.831 85.2405C134.933 86.3577 135.485 87.7721 135.485 89.4836C135.485 91.2096 134.926 92.6418 133.809 93.7805C132.699 94.912 131.299 95.4778 129.609 95.4778C128.563 95.4778 127.564 95.2415 126.612 94.7688C125.667 94.2961 124.947 93.6051 124.453 92.6956C123.958 91.7789 123.711 90.6653 123.711 89.3547ZM126.805 89.5159C126.805 90.6474 127.074 91.5139 127.611 92.1155C128.148 92.717 128.81 93.0178 129.598 93.0178C130.386 93.0178 131.045 92.717 131.575 92.1155C132.112 91.5139 132.38 90.6402 132.38 89.4944C132.38 88.3772 132.112 87.5178 131.575 86.9163C131.045 86.3147 130.386 86.0139 129.598 86.0139C128.81 86.0139 128.148 86.3147 127.611 86.9163C127.074 87.5178 126.805 88.3844 126.805 89.5159ZM148.236 95.22H145.217V89.3977C145.217 88.1659 145.153 87.371 145.024 87.0129C144.895 86.6477 144.684 86.3648 144.39 86.1643C144.104 85.9638 143.756 85.8635 143.348 85.8635C142.825 85.8635 142.356 86.0068 141.941 86.2932C141.526 86.5797 141.239 86.9592 141.082 87.4319C140.931 87.9045 140.856 88.7782 140.856 90.053V95.22H137.837V83.8118H140.641V85.4875C141.637 84.1985 142.89 83.554 144.401 83.554C145.067 83.554 145.676 83.6757 146.227 83.9192C146.778 84.1555 147.194 84.4599 147.473 84.8323C147.76 85.2047 147.957 85.6272 148.064 86.0999C148.179 86.5725 148.236 87.2493 148.236 88.1301V95.22Z" fill="white"/>
</svg>
