<svg width="342" height="313" viewBox="0 0 342 313" fill="none" xmlns="http://www.w3.org/2000/svg">
<path d="M174.073 279.94C173.371 279.94 172.697 279.661 172.2 279.164C171.703 278.667 171.423 277.993 171.423 277.29V176.81L214.063 270.67C214.227 270.989 214.324 271.338 214.348 271.696C214.373 272.053 214.325 272.412 214.207 272.751C214.089 273.089 213.903 273.4 213.662 273.665C213.42 273.929 213.127 274.142 212.801 274.291C212.475 274.439 212.122 274.519 211.763 274.527C211.405 274.535 211.049 274.47 210.716 274.337C210.384 274.203 210.082 274.003 209.828 273.749C209.575 273.495 209.376 273.193 209.243 272.86V272.86L176.723 201.28V277.28C176.726 277.629 176.659 277.976 176.527 278.299C176.395 278.622 176.2 278.916 175.954 279.163C175.707 279.411 175.414 279.607 175.091 279.74C174.769 279.873 174.423 279.941 174.073 279.94V279.94Z" fill="#64452D"/>
<path d="M142.904 274.41C142.556 274.413 142.212 274.347 141.891 274.216C141.57 274.085 141.277 273.891 141.031 273.647C140.785 273.402 140.589 273.112 140.456 272.791C140.322 272.471 140.254 272.127 140.254 271.78C140.256 271.456 140.313 271.135 140.424 270.83L171.594 188.11C171.842 187.447 172.343 186.91 172.987 186.616C173.631 186.323 174.365 186.297 175.029 186.545C175.692 186.793 176.229 187.294 176.522 187.938C176.816 188.583 176.842 189.317 176.594 189.98L145.384 272.7C145.194 273.204 144.855 273.638 144.411 273.944C143.968 274.249 143.442 274.412 142.904 274.41V274.41Z" fill="#64452D"/>
<path d="M174.053 241.17L149.953 232.92L151.663 227.92L174.093 235.6L197.393 227.9L199.053 232.9L174.053 241.17Z" fill="#64452D"/>
<path d="M295.654 202.77H52.5035L42.0835 6.95L306.083 0L295.654 202.77Z" fill="#755640"/>
<path d="M62.3835 192.35L53.0635 17.09L295.063 10.72L285.733 192.35H62.3835Z" fill="#F6F2E1"/>
<path d="M114.622 42.2235L88.4344 46.2122L92.7483 74.5355L118.936 70.5469L114.622 42.2235Z" fill="#F6F2E1"/>
<path d="M112.974 41.0453L86.7856 45.0339L91.0995 73.3573L117.287 69.3687L112.974 41.0453Z" fill="#9F8ED7"/>
<path d="M112.965 41.0448L86.7772 45.0334L87.5015 49.7886L113.689 45.8L112.965 41.0448Z" fill="#867AB9"/>
<path d="M237.695 140.844L232.388 164.526L254.285 169.433L259.592 145.75L237.695 140.844Z" fill="#F6F2E1"/>
<path d="M236.793 139.443L231.476 163.133L253.381 168.05L258.698 144.359L236.793 139.443Z" fill="#9F8ED7"/>
<path d="M236.801 139.447L235.911 143.418L257.807 148.328L258.697 144.357L236.801 139.447Z" fill="#867AB9"/>
<path d="M81.4935 137.04L81.2835 141.84L80.2235 165.66L106.684 166.84L107.964 138.21L81.4935 137.04Z" fill="#F6F2E1"/>
<path d="M271.714 38.02L248.113 26.02L245.934 30.3L235.094 51.54L258.694 63.54L269.534 42.3L271.714 38.02Z" fill="#F6F2E1"/>
<path d="M248.108 24.8108L235.101 50.3381L258.704 62.3643L271.711 36.837L248.108 24.8108Z" fill="#93B0E5"/>
<path d="M248.118 24.7968L245.933 29.0818L269.532 41.1162L271.717 36.8312L248.118 24.7968Z" fill="#7D9DDA"/>
<path d="M265.978 53.9402L245.072 61.7859L253.561 84.4055L274.467 76.5599L265.978 53.9402Z" fill="#F6F2E1"/>
<path d="M265.043 53.4705L244.137 61.3162L252.625 83.9358L273.532 76.0901L265.043 53.4705Z" fill="#C8C762"/>
<path d="M265.034 53.4734L244.127 61.3191L245.55 65.1109L266.457 57.2652L265.034 53.4734Z" fill="#B0B35E"/>
<path d="M80.3133 135.732L79.0436 164.354L105.508 165.528L106.777 136.906L80.3133 135.732Z" fill="#F8D777"/>
<path d="M80.3221 135.734L80.1106 140.54L106.575 141.705L106.786 136.899L80.3221 135.734Z" fill="#F6C951"/>
<path d="M333.364 284.04C333.211 284.833 333.255 285.652 333.492 286.424C333.729 287.197 334.152 287.899 334.724 288.47C334.724 288.47 328.924 294.79 322.094 295.3C318.222 295.693 314.34 294.662 311.174 292.4C311.174 292.4 319.364 288.3 320.554 284.89C321.744 281.48 333.364 284.04 333.364 284.04Z" fill="#E7BC94"/>
<path d="M334.724 288.47C336.394 289.47 335.604 296.78 335.604 296.78C335.604 296.78 318.664 304.67 309.914 303.37C301.164 302.07 300.574 297.73 303.254 295.99C305.934 294.25 312.984 291.42 312.984 291.42L315.694 288.03C316.268 288.009 316.84 288.105 317.376 288.311C317.912 288.518 318.401 288.83 318.814 289.23C320.404 290.63 318.444 292.88 318.444 292.88C321.024 292.968 323.606 292.722 326.124 292.15C329.132 291.287 332.022 290.051 334.724 288.47V288.47Z" fill="#4A3E36"/>
<path d="M301.364 277.83C301.223 278.582 301.267 279.357 301.491 280.089C301.716 280.82 302.115 281.486 302.654 282.03C302.654 282.03 297.164 288.03 290.704 288.48C287.045 288.852 283.376 287.878 280.384 285.74C280.384 285.74 288.134 281.87 289.254 278.64C290.374 275.41 301.364 277.83 301.364 277.83Z" fill="#E7BC94"/>
<path d="M302.654 282.02C304.234 283.02 303.484 289.88 303.484 289.88C303.484 289.88 287.484 297.34 279.184 296.11C270.884 294.88 270.354 290.78 272.884 289.11C275.853 287.468 278.926 286.022 282.084 284.78L284.654 281.58C285.205 281.553 285.757 281.64 286.273 281.836C286.789 282.032 287.259 282.333 287.654 282.72C289.154 284.04 287.304 286.16 287.304 286.16C289.74 286.25 292.177 286.021 294.554 285.48C297.386 284.667 300.107 283.504 302.654 282.02Z" fill="#4A3E36"/>
<path d="M332.063 217.95C329.063 207.83 328.543 175.3 328.243 164.1C327.943 152.9 327.643 148.93 326.593 143.25L299.703 132.45L279.243 147.31C279.243 147.31 278.643 173.69 278.823 180.21C279.003 186.73 279.083 217.33 281.033 222.98C282.983 228.63 282.983 231.66 282.773 238.39C282.573 244.49 283.623 272.02 283.823 277.09C283.835 277.341 283.913 277.585 284.05 277.796C284.187 278.007 284.378 278.178 284.603 278.29C291.363 281.58 299.893 280.05 302.603 279.43C302.869 279.363 303.108 279.216 303.287 279.008C303.466 278.801 303.577 278.543 303.603 278.27C304.423 271.78 305.723 248.63 305.933 241.43C306.143 233.83 303.763 230.36 302.243 225.15C301.243 221.61 302.663 193.15 302.743 179.15C305.563 194.75 311.403 226.83 312.233 229.29C313.313 232.55 315.043 236.89 315.913 249.69C316.683 261.04 317.283 280.23 317.413 284.45C317.414 284.706 317.488 284.957 317.626 285.173C317.764 285.389 317.961 285.562 318.193 285.67C323.143 287.81 331.553 286.2 334.443 285.54C334.734 285.477 334.996 285.321 335.189 285.095C335.382 284.869 335.496 284.587 335.513 284.29C335.723 280.29 336.513 265.15 337.143 250.86C337.943 234.22 335.053 228.07 332.063 217.95Z" fill="#758FE3"/>
<g opacity="0.5">
<path opacity="0.5" d="M294.033 217.95C296.193 224.43 296.264 280.27 296.264 280.27C298.41 280.162 300.544 279.878 302.643 279.42C302.909 279.355 303.147 279.21 303.326 279.004C303.505 278.798 303.616 278.542 303.643 278.27C304.463 271.78 305.763 248.62 305.973 241.43C306.183 233.83 303.803 230.36 302.283 225.14C301.283 221.61 302.703 193.14 302.783 179.14L302.223 146.27L295.053 148.99C295.053 148.99 291.873 211.47 294.033 217.95Z" fill="#5874CB"/>
</g>
<g opacity="0.5">
<path opacity="0.5" d="M324.433 217.95C328.563 229.36 328.913 276.95 327.793 286.57C330.054 286.37 332.299 286.019 334.513 285.52C334.805 285.459 335.067 285.303 335.261 285.077C335.454 284.851 335.568 284.567 335.583 284.27C335.793 280.27 336.583 265.13 337.213 250.84C337.943 234.22 335.053 228.07 332.063 217.95C329.073 207.83 328.543 175.3 328.243 164.1C327.943 152.9 327.393 152.33 327.373 146.18L304.453 133.6C301.367 134.249 298.239 134.69 295.093 134.92L292.393 135.2L285.313 145C297.403 151.46 316.313 148.1 316.313 148.1C316.313 148.1 320.023 205.73 324.433 217.95Z" fill="#5874CB"/>
</g>
<path d="M286.684 39.8501C285.041 51.3688 284.706 63.0361 285.684 74.6301L311.134 72.2501L302.934 39.8501H286.684Z" fill="#80432B"/>
<path d="M297.464 67.25C295.464 67.53 290.044 68.25 286.734 69.56C283.424 70.87 280.534 74.19 277.634 83.46C275.944 88.87 274.634 94.13 273.864 97.57C273.304 100.02 270.544 114.99 270.544 114.99L302.814 115.99V72.99L297.464 67.25Z" fill="#DB4B51"/>
<path d="M297.464 67.25C295.464 67.53 290.044 68.25 286.734 69.56C283.734 70.76 281.004 73.72 278.344 81.37L278.643 81.86C281.503 77.04 285.594 73.79 287.764 72.86C290.717 71.9206 293.722 71.1494 296.764 70.55L298.534 68.38L297.464 67.25Z" fill="#C73D42"/>
<path d="M297.604 62.3299C298.484 64.3299 297.464 67.9699 296.604 69.2699C295.744 70.5699 296.314 75.3499 301.964 76.3599C307.614 77.3699 311.364 75.3599 313.254 73.0299C315.144 70.6999 313.254 55.2299 313.254 55.2299L308.184 52.1499L297.604 62.3299Z" fill="#E7BC94"/>
<path d="M281.724 100.15C281.044 94.1501 285.454 83.5901 285.454 83.5901C285.454 83.5901 283.454 95.9901 285.454 100.7L281.724 100.15Z" fill="#C73D42"/>
<g opacity="0.5">
<path opacity="0.5" d="M314.023 64.88C313.923 62.46 313.724 60 313.544 58.16C312.217 57.4219 310.837 56.7868 309.414 56.26C309.414 56.26 306.604 56.32 303.684 56.46L297.604 62.32C298.003 63.5177 298.055 64.804 297.754 66.03C297.834 66.05 307.313 67.95 314.023 64.88Z" fill="#DEAC80"/>
</g>
<path d="M311.414 48.83C313.174 53.22 310.834 57.89 306.744 60.83C302.654 63.77 297.984 65.83 295.344 63.17C292.704 60.51 289.414 56.09 289.414 53.17C289.414 50.25 286.004 50.03 286.874 43.9C287.744 37.77 291.874 33.68 294.184 33.09C296.494 32.5 310.534 38.93 310.534 38.93L311.414 48.83Z" fill="#E7BC94"/>
<path d="M292.814 33.7199C293.044 35.0499 291.384 39.7199 288.634 43.0699C285.884 46.4199 288.744 50.0699 286.734 53.3499C284.724 56.6299 290.334 66.9499 286.734 70.8599C283.134 74.7699 279.653 74.9199 278.643 81.8599C278.643 81.8599 275.644 75.3499 277.784 70.4299C279.924 65.5099 282.404 62.9099 280.234 58.4299C278.064 53.9499 277.484 46.7099 279.944 44.0999C282.404 41.4899 285.104 35.4199 284.944 31.7999C284.784 28.1799 292.274 20.0799 296.624 23.1199L292.814 33.7199Z" fill="#965C44"/>
<path d="M325.834 103.86C323.164 113.56 323.344 118.86 325.254 124.99C326.894 130.31 327.794 143.09 328.254 146.66C328.319 147.162 328.23 147.673 327.997 148.123C327.765 148.573 327.401 148.942 326.954 149.18C324.054 150.79 316.564 153.85 301.574 153.85C285.674 153.85 280.674 149.3 279.254 147.31C278.904 146.802 278.761 146.18 278.854 145.57C279.254 142.73 280.574 126.31 280.854 122.64C281.224 118.29 287.574 89.0599 287.574 89.0599L297.184 73.5599L318.434 64.3599L327.124 68.9799L325.834 103.86Z" fill="#DB4B51"/>
<path d="M289.934 101.13C289.574 99.8799 288.054 97.0599 286.034 97.1299C284.087 97.2413 282.164 97.6077 280.314 98.2199C279.444 98.5799 277.924 100.83 277.924 100.83L289.934 101.13Z" fill="#E7BC94"/>
<path d="M278.724 120.51C277.634 121.73 275.604 121.81 273.514 121.23C271.424 120.65 270.324 116.05 270.514 114.98C270.704 113.91 274.364 107.26 274.364 107.26L278.724 120.51Z" fill="#E7BC94"/>
<path d="M298.864 101.26L307.744 127.75C307.775 127.839 307.788 127.932 307.782 128.026C307.776 128.12 307.751 128.211 307.709 128.295C307.667 128.379 307.609 128.454 307.537 128.515C307.466 128.576 307.383 128.622 307.294 128.65C307.211 128.665 307.126 128.665 307.044 128.65L282.164 127.6C282.018 127.596 281.877 127.548 281.759 127.463C281.641 127.377 281.552 127.257 281.504 127.12L272.984 101.12C272.954 101.031 272.942 100.938 272.948 100.844C272.955 100.751 272.98 100.66 273.022 100.577C273.063 100.493 273.121 100.418 273.192 100.357C273.263 100.296 273.345 100.249 273.434 100.22C273.516 100.206 273.601 100.206 273.684 100.22L298.204 100.85C298.341 100.848 298.477 100.886 298.594 100.958C298.711 101.031 298.804 101.136 298.864 101.26V101.26Z" fill="#C2C5D3"/>
<path d="M328.244 146.66C327.794 143.09 326.894 130.31 325.244 124.99C323.334 118.81 323.154 113.56 325.824 103.86C324.014 98.0899 322.494 85.9099 322.494 85.9099C322.494 85.9099 317.274 108.15 317.974 114.97C318.674 121.79 319.434 151.79 319.434 151.97C322.04 151.37 324.56 150.443 326.934 149.21C327.386 148.969 327.754 148.596 327.988 148.14C328.223 147.684 328.312 147.168 328.244 146.66V146.66Z" fill="#C73D42"/>
<path d="M298.414 101.82L307.314 128.3C307.343 128.389 307.355 128.484 307.347 128.577C307.34 128.671 307.314 128.763 307.272 128.846C307.229 128.93 307.17 129.004 307.098 129.065C307.026 129.126 306.943 129.172 306.854 129.2C306.771 129.214 306.686 129.214 306.604 129.2L281.714 128.12C281.57 128.112 281.433 128.06 281.319 127.973C281.204 127.886 281.119 127.766 281.074 127.63L272.544 101.63C272.487 101.448 272.505 101.252 272.593 101.083C272.681 100.914 272.832 100.788 273.014 100.73C273.089 100.715 273.168 100.715 273.244 100.73L297.764 101.36C297.906 101.362 298.044 101.406 298.16 101.489C298.276 101.571 298.365 101.686 298.414 101.82Z" fill="#D9DEEB"/>
<g opacity="0.5">
<path opacity="0.5" d="M307.314 128.3L298.414 101.82C298.368 101.68 298.28 101.558 298.162 101.47C298.043 101.382 297.901 101.333 297.754 101.33H296.754C298.894 109.76 304.294 126.24 304.004 126.59C303.714 126.94 285.004 126.66 280.704 126.59L281.064 127.67C281.108 127.807 281.193 127.927 281.307 128.015C281.422 128.102 281.56 128.153 281.704 128.16L306.584 129.24C306.763 129.244 306.938 129.18 307.073 129.062C307.208 128.943 307.294 128.779 307.314 128.6C307.329 128.501 307.329 128.4 307.314 128.3Z" fill="#C2C5D3"/>
</g>
<path d="M322.504 116.02C319.604 116.1 313.704 117.49 311.614 117.63C309.524 117.77 306.794 116.12 305.434 114.52C304.585 113.437 303.354 112.722 301.994 112.52L303.184 116.05C303.184 116.05 302.314 116.05 299.054 116.05C295.794 116.05 293.434 113.36 292.944 113.98C292.454 114.6 293.434 118.7 294.054 119.61C294.674 120.52 298.054 121.41 299.464 121.83C300.874 122.25 305.844 121.69 307.654 121.83C309.464 121.97 320.134 124.54 325.254 125.03C330.374 125.52 329.474 118.78 329.474 118.78L322.504 116.02Z" fill="#E7BC94"/>
<path d="M327.134 68.98C333.504 71.59 335.534 74.34 337.554 80.56C339.574 86.78 341.024 108.35 341.464 114.28C341.904 120.21 341.464 122.97 340.164 123.54C338.864 124.11 334.084 125.43 325.264 124.99C325.264 124.99 327.264 117.76 322.504 115.99C322.504 115.99 328.004 115.41 330.034 115.99C328.075 111.133 326.405 106.164 325.034 101.11L327.134 68.98Z" fill="#DB4B51"/>
<path d="M292.814 33.72C292.254 38.02 303.344 41.82 307.714 44.64C311.354 46.99 306.864 58.41 312.014 61.74C317.164 65.07 308.614 69.56 312.014 75.21C315.414 80.86 310.924 85.91 310.924 85.91C310.924 85.91 318.734 83.31 318.924 78.53C319.114 73.75 320.804 66.37 327.164 68.98C327.164 68.98 328.764 60.87 325.584 57.83C322.404 54.79 320.514 47.12 322.254 44.83C323.994 42.54 320.514 31.52 316.314 31.83C312.114 32.14 309.654 18.23 296.634 23.15L292.814 33.72Z" fill="#965C44"/>
<path d="M290.214 112.78C290.449 113.357 290.446 114.004 290.206 114.579C289.967 115.154 289.509 115.611 288.934 115.85L288.814 115.9C288.096 116.103 287.328 116.018 286.672 115.664C286.017 115.309 285.526 114.712 285.304 114C285.182 113.678 285.133 113.334 285.159 112.992C285.185 112.649 285.286 112.316 285.455 112.017C285.624 111.717 285.856 111.459 286.136 111.259C286.416 111.059 286.736 110.923 287.074 110.86C287.737 110.775 288.41 110.919 288.981 111.268C289.552 111.617 289.987 112.15 290.214 112.78V112.78Z" fill="white"/>
<g opacity="0.3">
<path opacity="0.3" d="M289.934 101.13L278.734 120.5L280.014 124.42L292.184 101.19L289.934 101.13Z" fill="white"/>
</g>
<g opacity="0.3">
<path opacity="0.3" d="M295.083 101.26L284.604 128.26L288.604 128.44L296.724 101.29L295.083 101.26Z" fill="white"/>
</g>
<path d="M338.314 83.6001C338.314 83.6701 339.844 117.94 339.144 119.6C338.444 121.26 329.934 124.02 325.674 122.21C325.624 123.13 325.494 124.043 325.284 124.94C334.114 125.38 338.884 124.07 340.184 123.49C341.484 122.91 341.924 120.16 341.484 114.23C341.084 109.1 339.924 91.9801 338.314 83.6001Z" fill="#C73D42"/>
<g opacity="0.5">
<g opacity="0.5">
<path opacity="0.5" d="M288.634 43.07L289.104 42.46C288.919 42.6403 288.761 42.8457 288.634 43.07V43.07Z" fill="#80432B"/>
</g>
</g>
<g opacity="0.5">
<path opacity="0.5" d="M322.213 44.8101C318.023 47.1401 323.443 59.3801 316.623 58.4401C307.863 57.2401 311.273 50.3301 308.823 46.1901C310.243 50.1901 307.613 58.8901 312.013 61.7401C317.143 65.0701 308.613 69.5601 312.013 75.2101C315.413 80.8601 310.923 85.9101 310.923 85.9101C310.923 85.9101 318.733 83.3101 318.923 78.5301C319.113 73.7501 320.803 66.3701 327.173 68.9801C327.173 68.9801 328.773 60.8701 325.583 57.8301C322.393 54.7901 320.473 47.1201 322.213 44.8101Z" fill="#80432B"/>
</g>
<g opacity="0.5">
<g opacity="0.5">
<path opacity="0.5" d="M286.314 55.1499C284.064 62.6299 278.644 56.3799 278.374 49.8699C278.389 52.8196 279.027 55.7328 280.244 58.4199C282.424 62.9099 279.964 65.5099 277.794 70.4199C275.624 75.3299 278.654 81.8499 278.654 81.8499C279.654 74.9099 283.144 74.7599 286.744 70.8499C289.824 67.5099 286.134 59.4699 286.314 55.1499Z" fill="#80432B"/>
</g>
</g>
<path d="M124.744 67.5998C127.744 67.4898 127.434 68.7398 133.454 65.7798C139.474 62.8198 141.324 62.3598 143.004 62.4298C144.684 62.4998 148.864 60.0898 150.004 59.5898C151.144 59.0898 155.234 57.3398 155.704 57.8298C156.174 58.3198 156.964 60.3098 154.704 61.6198C152.444 62.9298 152.204 62.3398 150.604 63.7598C149.004 65.1798 147.054 66.2798 146.964 66.7598C146.874 67.2398 149.964 70.3898 149.534 71.4598C149.104 72.5298 143.594 77.2398 139.464 77.0598C135.334 76.8798 136.054 76.4398 132.184 76.6598C129.383 76.886 126.603 77.3138 123.864 77.9398L124.744 67.5998Z" fill="#E7BC94"/>
<path d="M128.414 66.3198L98.9935 71.6598C91.8935 68.5898 72.6135 48.3598 65.5135 47.8098C63.2835 47.6298 56.8635 47.9498 53.9735 48.9098C56.0535 56.2298 58.0435 64.3098 63.9735 68.9798L69.4635 73.3098C75.3035 74.9898 92.0535 89.0498 98.1435 87.7498C103.364 86.6198 130.144 79.5098 130.144 79.5098C133.854 72.6598 128.414 66.3198 128.414 66.3198Z" fill="#5E5046"/>
<path d="M25.4435 299.25C15.1435 297.91 16.7135 292.96 18.4435 290.99C20.1735 289.02 24.6835 283.13 25.4435 279.99C26.2035 276.85 44.7835 278.15 44.7835 278.15C44.7835 278.15 45.6535 285.39 44.7835 286.42C43.9135 287.45 41.7835 287.32 41.4135 288.56C41.0435 289.8 35.5535 300.6 25.4435 299.25Z" fill="#522F17"/>
<path d="M79.5735 276.66C85.2235 280.71 91.8335 287.51 95.9735 288.96C100.113 290.41 101.483 292.43 100.103 295.76C98.7235 299.09 90.4635 299.67 85.9135 299.23C81.3635 298.79 77.3635 294.31 75.0235 292.87C72.6835 291.43 68.9635 294.17 66.4835 291.7C64.0035 289.23 64.4135 286.06 64.1335 283.03C63.8535 280 79.5735 276.66 79.5735 276.66Z" fill="#522F17"/>
<path d="M43.8235 168.38C43.8235 168.38 62.4535 283.18 62.8235 284.87C63.1935 286.56 81.8235 280.62 83.8835 278.07C83.8835 278.07 75.3835 210.07 74.5735 205.37C73.7635 200.67 70.1135 139.12 66.4735 124.37C66.4735 124.37 27.2035 128.37 17.4735 127.53C17.4735 127.53 17.0735 172.6 20.3035 194.28C23.5335 215.96 23.9535 278.03 24.3635 279.73C24.7735 281.43 44.6035 282.29 45.8235 280.16C47.0435 278.03 43.8235 168.38 43.8235 168.38Z" fill="#C2C5D3"/>
<path d="M17.4935 157.07L30.3135 158.73C30.5435 160.02 32.7335 268.26 33.1635 281.35C28.6235 281.12 24.5635 280.53 24.3835 279.77C23.9835 278.07 23.5735 216 20.3835 194.32C19.6935 189.99 17.8835 162.71 17.4935 157.07Z" fill="#DBDEE6"/>
<path d="M52.8435 158.31L74.9635 282.31C69.3135 284.31 63.0935 285.83 62.8635 284.85C62.5535 283.54 48.9235 200.6 43.8635 168.35L42.9435 158.75L52.8435 158.31Z" fill="#DBDEE6"/>
<path d="M48.3135 47.2999C53.0235 47.7699 64.8035 48.4299 67.0035 49.7399C69.2035 51.0499 73.2935 52.9799 70.3835 64.9799C69.2735 69.5799 69.0235 99.2199 70.1235 109.66C71.2235 120.1 76.8535 155.6 76.8535 155.6C76.8535 155.6 39.4835 162.08 14.8535 156.5C14.8535 156.5 11.8535 103.9 11.3735 100.23C10.8935 96.5599 9.13348 82.5999 9.13348 82.5999C9.13348 82.5999 5.21348 88.5999 2.38348 86.5999C2.38348 86.5999 8.25348 56.8399 9.97348 54.4699C11.6935 52.0999 31.3735 43.9199 31.3735 43.9199L48.3135 47.2999Z" fill="#5E5046"/>
<g opacity="0.5">
<g opacity="0.5">
<path opacity="0.5" d="M5.38348 82.3299C5.38348 82.3299 10.5435 78.6899 11.7535 74.5099C20.1535 69.5999 22.7535 72.5099 22.7535 72.5099C22.4035 74.5099 20.9635 76.7299 22.3735 90.4399C24.6535 112.55 30.9335 140.69 35.2335 158.72C28.3645 158.65 21.5187 157.91 14.7935 156.51C14.7935 156.51 14.5035 151.04 14.0835 143.41C14.0035 141.88 13.9135 140.27 13.8235 138.6C13.6835 136.09 13.5335 133.44 13.3835 130.75C13.2335 128.06 13.0835 125.32 12.9235 122.63C12.8735 121.73 12.8235 120.83 12.7735 119.96C12.1135 108.46 11.5135 101.73 11.3135 100.24C10.8635 96.5999 9.13348 82.5999 9.13348 82.5999C8.71568 82.6532 8.29461 82.6766 7.87349 82.6699C7.62349 82.6699 7.33348 82.6699 7.02348 82.6699C5.92348 82.5699 6.14348 82.1899 7.47348 81.4699C10.1635 79.9699 5.54348 82.4399 5.38348 82.3299Z" fill="#4A3E36"/>
</g>
</g>
<path d="M14.6035 103.66C15.7441 111.016 16.4122 118.438 16.6035 125.88C17.0535 137.74 17.5035 144.45 21.5235 148.7C25.5435 152.95 24.8835 154.97 27.3435 159.9C29.8035 164.83 30.0635 166.28 29.1435 167.06C28.2235 167.84 25.8035 166.28 24.9535 164.51C24.1035 162.74 22.1035 157.37 22.1035 157.37C22.1035 157.37 23.5735 163.73 23.7035 164.97C23.8335 166.21 28.0935 169.49 28.2235 171.25C28.3535 173.01 24.0435 171.91 22.1035 171.72C20.1635 171.53 14.6435 169.22 13.5635 167.39C12.4835 165.56 12.3835 160.52 12.1835 156.2C11.7482 151.411 10.9594 146.662 9.8235 141.99C9.2335 139.57 5.5735 120.4 4.5235 113.12C3.4735 105.84 2.7735 100.06 2.7735 100.06L14.6035 103.66Z" fill="#E7BC94"/>
<path d="M23.6835 150.44C18.7862 151.877 13.8029 153.002 8.76348 153.81C8.76348 153.81 1.18348 110.6 0.0934796 104.6C-0.99652 98.5998 7.78348 61.1698 8.87348 57.5998C9.96348 54.0298 14.6235 50.9198 20.3935 48.3398L24.3135 70.9298C24.3135 70.9298 17.7135 97.5398 17.4335 102.16C17.1535 106.78 23.6835 150.44 23.6835 150.44Z" fill="#5E5046"/>
<g opacity="0.5">
<g opacity="0.5">
<path opacity="0.5" d="M52.8435 86.9199L65.5835 157.16L70.3135 156.6L52.8435 86.9199Z" fill="#4A3E36"/>
</g>
</g>
<path d="M29.0735 42.7898C29.0735 42.7898 10.9135 50.4198 9.9835 54.4698C9.0535 58.5198 9.2535 74.3998 10.5135 86.4198C11.7735 98.4398 14.4435 77.2298 22.8135 77.1598C31.1835 77.0898 52.3135 90.7698 52.3135 90.7698L67.9035 78.8798C67.9035 78.8798 71.0135 53.0298 69.6435 50.3798C68.2735 47.7298 65.5135 47.7998 54.3135 44.5998C43.9735 41.6698 50.7035 43.5998 50.7035 43.5998L29.0735 42.7898Z" fill="#5E5046"/>
<path d="M57.6635 47.2998L49.5535 68.4798L31.1535 41.8298L47.3735 52.8298L57.6635 47.2998Z" fill="#F6F2E1"/>
<path d="M54.3135 44.5998C54.3135 44.5998 49.3835 51.5998 48.1035 53.6598C48.1035 53.6598 38.1035 47.0498 36.1035 40.7598L38.8635 32.2598L54.3135 44.5998Z" fill="#E7BC94"/>
<path d="M48.1035 53.6998L43.5435 60.9498L29.0635 42.7898L35.4535 39.7898L48.1035 53.6998Z" fill="#F6F2E1"/>
<path d="M38.9735 30.9199L56.7435 41.7699C56.7435 41.7699 53.0135 46.0499 52.2735 47.2999C48.2735 45.8799 42.4135 40.9999 41.3835 39.8899C40.1126 38.2593 39.1532 36.4084 38.5535 34.4299L38.9735 30.9199Z" fill="#E7BC94"/>
<g opacity="0.3">
<g opacity="0.3">
<path opacity="0.3" d="M38.9735 30.9199L56.7435 41.7699C56.7435 41.7699 53.0135 46.0499 52.2735 47.2999C48.2735 45.8799 42.4135 40.9999 41.3835 39.8899C40.1126 38.2593 39.1532 36.4084 38.5535 34.4299L38.9735 30.9199Z" fill="#E7BC94"/>
</g>
</g>
<path d="M57.9535 12.3C60.8635 15.42 61.0735 19.75 61.5035 21.66C61.9335 23.57 63.8435 27.66 63.3535 31.31C62.8635 34.96 61.1635 42.31 57.4935 43.4C53.8235 44.49 46.4935 41.61 44.6935 41.15C42.8935 40.69 39.6935 37.9 38.6935 34.67C38.0595 34.4156 37.4742 34.0536 36.9635 33.6C35.4666 32.3034 34.1929 30.7697 33.1935 29.06C32.5935 27.78 32.4135 26.13 34.1935 26.27C35.9735 26.41 37.6235 28.66 37.6235 28.66C37.6235 28.66 37.9335 18.99 42.8135 15.73C47.6935 12.47 55.9235 10.12 57.9535 12.3Z" fill="#E7BC94"/>
<path d="M58.6435 13.4498C59.2308 12.2316 59.438 10.8649 59.2383 9.52735C59.0386 8.1898 58.4411 6.94327 57.5235 5.94979C54.1735 2.28979 48.0235 1.4498 42.9835 2.5798C36.3135 4.0798 29.5435 11.5998 29.6435 16.9198C29.7535 22.3798 31.4035 23.1598 33.2835 26.6398C33.2835 26.6398 35.4535 24.8498 38.8235 30.3498H40.0635C40.0635 30.3498 39.6935 19.0298 47.3135 14.8098C54.9335 10.5898 57.4835 11.8698 58.6435 13.4498Z" fill="#4A3E36"/>
<path d="M58.6435 13.4499C58.6435 13.4499 62.5235 8.91988 59.1035 2.04988C59.1035 2.04988 56.1835 4.10989 49.8735 1.91989C43.5635 -0.270114 35.6935 6.77989 35.6935 6.77989L40.6935 16.0499C40.6935 16.0499 53.6935 8.55989 55.5335 9.78989C56.8339 10.7587 57.8973 12.0102 58.6435 13.4499V13.4499Z" fill="#4A3E36"/>
<path d="M48.1035 53.6899L53.9735 60.2299L60.5635 46.3199L54.6635 44.1399C54.6635 44.1399 50.0835 50.4599 48.1035 53.6899Z" fill="#F6F2E1"/>
<path d="M48.1035 53.6998L43.5435 60.9498L29.0635 42.7898L35.4535 39.7898L48.1035 53.6998Z" fill="#F5EAE0"/>
<path d="M48.1035 53.6899L53.9735 60.2299L60.5635 46.3199L54.6635 44.1399C54.6635 44.1399 50.0835 50.4599 48.1035 53.6899Z" fill="#F5EAE0"/>
<path d="M98.1135 87.7499C103.334 86.6299 130.114 79.5099 130.114 79.5099C131.093 77.759 131.544 75.7619 131.414 73.7599C125.984 75.0799 98.8535 81.5899 96.9935 81.1099C94.9235 80.5599 69.4635 63.45 69.4635 63.45V73.31C75.3135 74.99 92.0235 89.0499 98.1135 87.7499Z" fill="#4A3E36"/>
<g opacity="0.5">
<g opacity="0.5">
<path opacity="0.5" d="M196.908 54.3429L161.654 60.2803L161.91 61.7989L197.164 55.8615L196.908 54.3429Z" fill="#755640"/>
</g>
<g opacity="0.5">
<path opacity="0.5" d="M194.15 51.4162L161.085 56.9849L161.341 58.5035L194.406 52.9348L194.15 51.4162Z" fill="#755640"/>
</g>
<g opacity="0.5">
<path opacity="0.5" d="M195.789 47.7606L160.535 53.698L160.791 55.2166L196.045 49.2792L195.789 47.7606Z" fill="#755640"/>
</g>
<g opacity="0.5">
<path opacity="0.5" d="M195.234 44.4532L161.943 50.0601L162.199 51.5787L195.49 45.9718L195.234 44.4532Z" fill="#755640"/>
</g>
<g opacity="0.5">
<path opacity="0.5" d="M190.672 41.8228L159.442 47.0825L159.698 48.6011L190.928 43.3414L190.672 41.8228Z" fill="#755640"/>
</g>
</g>
<g opacity="0.5">
<g opacity="0.5">
<path opacity="0.5" d="M225.245 123.13L195.733 128.198L195.995 129.722L225.507 124.655L225.245 123.13Z" fill="#755640"/>
</g>
<g opacity="0.5">
<path opacity="0.5" d="M224.951 119.818L199.105 124.171L199.361 125.69L225.207 121.337L224.951 119.818Z" fill="#755640"/>
</g>
<g opacity="0.5">
<path opacity="0.5" d="M220.11 117.254L192.913 121.835L193.169 123.353L220.366 118.773L220.11 117.254Z" fill="#755640"/>
</g>
<g opacity="0.5">
<path opacity="0.5" d="M223.851 113.229L192.365 118.532L192.621 120.05L224.107 114.747L223.851 113.229Z" fill="#755640"/>
</g>
</g>
<path d="M242.313 303.08C242.113 305.9 242.203 308.19 241.643 309.2C241.083 310.21 230.643 310.55 228.643 309.2C226.643 307.85 226.703 305.56 223.493 304.46C220.283 303.36 218.433 304.04 215.863 300.23C213.293 296.42 213.863 294.23 216.543 293.23C219.223 292.23 225.363 293.7 226.193 294.38C227.023 295.06 242.313 303.08 242.313 303.08Z" fill="#5874CB"/>
<path d="M209.183 305.18C208.973 308 209.073 310.28 208.523 311.3C207.973 312.32 197.523 312.66 195.463 311.3C193.403 309.94 193.533 307.66 190.313 306.56C187.093 305.46 185.263 306.14 182.683 302.33C180.103 298.52 181.123 296.48 183.783 295.47C186.443 294.46 192.543 296.06 193.373 296.74C194.203 297.42 209.183 305.18 209.183 305.18Z" fill="#5874CB"/>
<path d="M233.833 169.51C236.233 178.51 235.323 197.11 235.033 204.91C234.743 212.71 236.153 238.79 236.863 241.47C239.522 251.903 241.615 262.472 243.133 273.13C244.333 280.93 244.963 300.81 242.863 302.92C240.763 305.03 227.863 303.52 225.463 299.02C223.063 294.52 223.673 270.69 220.683 259.29C217.693 247.89 216.433 244.61 215.833 238.29C215.233 231.97 211.523 205.39 211.523 205.39C211.523 205.39 207.733 235.27 208.333 241.87C208.933 248.47 211.003 256.31 211.003 270.41C211.003 284.51 210.463 304.12 210.463 305.33C210.463 306.54 206.303 309.05 199.843 306.96C193.383 304.87 192.163 303.22 192.163 301.72C192.163 300.22 192.103 265.61 190.603 257.81C189.103 250.01 187.933 245.5 187.933 238.28C187.933 231.06 185.433 182.06 185.453 172.91C185.483 165.33 233.833 169.51 233.833 169.51Z" fill="#5E5046"/>
<path d="M242.863 302.92C244.963 300.81 244.323 280.92 243.123 273.13C241.614 262.471 239.524 251.902 236.863 241.47C236.153 238.79 234.733 212.71 235.023 204.91C235.313 197.11 236.224 178.51 233.824 169.51H233.454L200.083 179.76C201.703 187.4 198.993 236.97 200.083 248.63C201.033 258.78 204.683 294.34 204.433 307.79C208.193 307.79 210.433 306.25 210.433 305.37C210.433 304.16 210.973 284.55 210.973 270.45C210.973 256.35 208.893 248.51 208.303 241.91C207.713 235.31 211.484 205.42 211.484 205.42C215.748 206.967 220.222 207.861 224.753 208.07C224.753 208.07 227.383 239.88 229.753 245.17C232.123 250.46 240.844 293.67 238.354 303.87C240.504 303.87 242.213 303.6 242.863 302.92Z" fill="#4A3E36"/>
<path d="M175.234 137.92C180.164 135.64 190.234 128.19 190.234 128.19L188.014 111.91L175.234 137.92Z" fill="#B0B35E"/>
<path d="M211.513 205.39C211.513 205.39 214.513 189.12 213.883 179.39L223.623 177.74L224.923 209.63L222.023 218.72L211.513 205.39Z" fill="#5E5046"/>
<path d="M221.533 78.3199C224.233 81.0199 233.673 80.5599 236.383 89.1199C239.093 97.6799 237.723 108.92 234.123 119.26C230.523 129.6 229.623 142.66 232.323 153.01C235.023 163.36 236.373 171.91 235.923 173.26C235.473 174.61 221.523 183.16 203.923 180.46C186.323 177.76 183.313 170.11 183.313 170.11C183.313 170.11 186.463 149.87 187.813 143.11C189.163 136.35 188.263 119.71 188.263 119.71C188.263 119.71 178.683 135.29 175.263 137.92C170.853 141.31 163.813 137.42 162.763 133.67C161.713 129.92 163.063 125.42 165.463 121.82C167.863 118.22 173.633 108.24 176.103 101.49C178.573 94.7399 179.703 87.0899 187.583 85.2899C195.463 83.4899 199.583 81.0199 200.113 79.6699C200.643 78.3199 203.113 75.3899 211.663 75.3899C220.213 75.3899 221.533 78.3199 221.533 78.3199Z" fill="#C8C762"/>
<g opacity="0.5">
<path opacity="0.5" d="M236.383 89.12C233.683 80.57 224.233 81.02 221.533 78.32C221.533 78.32 220.173 75.39 211.633 75.39C209.635 75.3626 207.64 75.5775 205.693 76.03C200.833 80.03 196.583 83.84 196.583 83.84C205.983 90.48 223.583 92.37 224.783 91.84L225.993 91.34C224.783 91.85 220.413 126.24 221.993 134.39C223.573 142.54 225.673 168.13 223.313 169.46C221.133 170.69 201.223 173.46 184.023 165.21C183.553 168.12 183.243 170.09 183.243 170.09C183.243 170.09 186.403 177.74 203.943 180.44C221.483 183.14 235.443 174.59 235.943 173.24C236.443 171.89 235.043 163.34 232.343 152.99C229.643 142.64 230.543 129.59 234.143 119.24C237.743 108.89 239.073 97.66 236.383 89.12ZM226.243 91.26H226.353H226.243Z" fill="#B0B35E"/>
</g>
<path d="M206.313 35.67C215.513 34.67 223.413 39.67 226.023 51.36C228.633 63.05 228.433 72.68 231.023 78.52C231.023 78.52 226.193 86.52 210.703 86.16C195.213 85.8 190.193 80.32 190.193 80.32C190.193 80.32 192.003 66.02 191.803 60.51C191.603 55 189.013 37.48 206.313 35.67Z" fill="#DF803F"/>
<path d="M231.053 78.52C228.433 72.68 228.643 63.03 226.053 51.36C224.783 45.68 222.233 41.61 218.913 39.02C231.573 53.79 205.493 75.76 191.913 60.51C192.113 66.03 190.303 80.33 190.303 80.33C190.303 80.33 195.303 85.76 210.813 86.16C226.323 86.56 231.053 78.52 231.053 78.52Z" fill="#D47637"/>
</svg>
