<svg width="133" height="202" viewBox="0 0 133 202" fill="none" xmlns="http://www.w3.org/2000/svg">
<path d="M5.60001 60.23C11.0222 73.4112 13.3373 87.6636 12.3662 101.883C11.3951 116.103 7.16381 129.908 0 142.23L35.32 199.79L104.05 201.29C121.516 170.8 131.156 136.457 132.107 101.331C133.058 66.205 125.291 31.3908 109.5 0L74.06 58.4L5.60001 60.23Z" fill="#A0B854"/>
<path d="M24.9214 120.16V104.412H31.6138C33.2967 104.412 34.5177 104.555 35.2769 104.842C36.0431 105.121 36.6554 105.622 37.1138 106.345C37.5721 107.069 37.8013 107.896 37.8013 108.827C37.8013 110.009 37.4539 110.986 36.7593 111.76C36.0646 112.526 35.0262 113.009 33.644 113.21C34.3315 113.611 34.8973 114.051 35.3413 114.531C35.7925 115.011 36.3976 115.863 37.1567 117.088L39.0796 120.16H35.2769L32.978 116.733C32.1616 115.509 31.603 114.739 31.3022 114.424C31.0015 114.101 30.6828 113.883 30.3462 113.768C30.0096 113.647 29.4761 113.586 28.7456 113.586H28.1011V120.16H24.9214ZM28.1011 111.072H30.4536C31.979 111.072 32.9315 111.008 33.311 110.879C33.6906 110.75 33.9878 110.528 34.2026 110.213C34.4175 109.898 34.5249 109.504 34.5249 109.031C34.5249 108.501 34.3817 108.075 34.0952 107.753C33.8159 107.423 33.4185 107.216 32.9028 107.13C32.645 107.094 31.8716 107.076 30.5825 107.076H28.1011V111.072ZM47.394 116.529L50.4019 117.034C50.0151 118.137 49.4028 118.978 48.5649 119.558C47.7342 120.131 46.6922 120.418 45.439 120.418C43.4552 120.418 41.9871 119.77 41.0347 118.473C40.2827 117.435 39.9067 116.124 39.9067 114.542C39.9067 112.651 40.4009 111.172 41.3892 110.105C42.3774 109.031 43.6271 108.494 45.1382 108.494C46.8354 108.494 48.1746 109.056 49.1558 110.18C50.1369 111.298 50.606 113.013 50.563 115.326H43.0005C43.022 116.221 43.2655 116.919 43.731 117.421C44.1965 117.915 44.7765 118.162 45.4712 118.162C45.9438 118.162 46.3413 118.033 46.6636 117.775C46.9858 117.517 47.2293 117.102 47.394 116.529ZM47.5659 113.478C47.5444 112.605 47.3188 111.942 46.8892 111.491C46.4595 111.033 45.9367 110.803 45.3208 110.803C44.6619 110.803 44.1177 111.043 43.688 111.523C43.2583 112.003 43.047 112.655 43.0542 113.478H47.5659ZM53.0337 120.16V104.412H56.0522V120.16H53.0337ZM61.4126 112.232L58.6733 111.738C58.9813 110.635 59.5112 109.819 60.2632 109.289C61.0151 108.759 62.1323 108.494 63.6147 108.494C64.9611 108.494 65.9637 108.655 66.6226 108.977C67.2814 109.292 67.7433 109.697 68.0083 110.191C68.2804 110.678 68.4165 111.577 68.4165 112.887L68.3843 116.411C68.3843 117.413 68.4308 118.155 68.5239 118.635C68.6242 119.107 68.8068 119.616 69.0718 120.16H66.0854C66.0067 119.959 65.91 119.662 65.7954 119.268C65.7453 119.089 65.7095 118.971 65.688 118.914C65.1724 119.415 64.6209 119.791 64.0337 120.042C63.4465 120.292 62.8198 120.418 62.1538 120.418C60.9793 120.418 60.0519 120.099 59.3716 119.462C58.6984 118.824 58.3618 118.019 58.3618 117.045C58.3618 116.4 58.5158 115.827 58.8237 115.326C59.1317 114.817 59.5614 114.431 60.1128 114.166C60.6714 113.894 61.4735 113.657 62.519 113.457C63.9299 113.192 64.9074 112.945 65.4517 112.716V112.415C65.4517 111.835 65.3084 111.423 65.022 111.179C64.7355 110.929 64.1948 110.803 63.3999 110.803C62.8628 110.803 62.4438 110.911 62.1431 111.126C61.8423 111.333 61.5988 111.702 61.4126 112.232ZM65.4517 114.681C65.0649 114.81 64.4526 114.964 63.6147 115.143C62.7769 115.322 62.229 115.498 61.9712 115.67C61.5773 115.949 61.3804 116.303 61.3804 116.733C61.3804 117.156 61.5379 117.521 61.853 117.829C62.1681 118.137 62.5692 118.291 63.0562 118.291C63.6004 118.291 64.1196 118.112 64.6138 117.754C64.979 117.482 65.2189 117.149 65.3335 116.755C65.4123 116.497 65.4517 116.006 65.4517 115.283V114.681ZM76.6343 108.752V111.158H74.5718V115.756C74.5718 116.687 74.5897 117.231 74.6255 117.388C74.6685 117.539 74.758 117.664 74.894 117.764C75.0373 117.865 75.2091 117.915 75.4097 117.915C75.689 117.915 76.0936 117.818 76.6235 117.625L76.8813 119.967C76.1795 120.267 75.3846 120.418 74.4966 120.418C73.9523 120.418 73.4618 120.328 73.0249 120.149C72.5881 119.963 72.2658 119.727 72.0581 119.44C71.8576 119.147 71.7179 118.753 71.6392 118.259C71.5747 117.908 71.5425 117.199 71.5425 116.132V111.158H70.1567V108.752H71.5425V106.485L74.5718 104.723V108.752H76.6343ZM78.729 107.205V104.412H81.7476V107.205H78.729ZM78.729 120.16V108.752H81.7476V120.16H78.729ZM84.1538 114.295C84.1538 113.292 84.4009 112.322 84.895 111.384C85.3892 110.445 86.0874 109.729 86.9897 109.235C87.8993 108.741 88.9126 108.494 90.0298 108.494C91.7557 108.494 93.1701 109.056 94.2729 110.18C95.3758 111.298 95.9272 112.712 95.9272 114.424C95.9272 116.149 95.3687 117.582 94.2515 118.72C93.1414 119.852 91.7414 120.418 90.0513 120.418C89.0057 120.418 88.0067 120.181 87.0542 119.709C86.1089 119.236 85.3892 118.545 84.895 117.635C84.4009 116.719 84.1538 115.605 84.1538 114.295ZM87.2476 114.456C87.2476 115.587 87.5161 116.454 88.0532 117.055C88.5903 117.657 89.2528 117.958 90.0405 117.958C90.8283 117.958 91.4871 117.657 92.0171 117.055C92.5542 116.454 92.8228 115.58 92.8228 114.434C92.8228 113.317 92.5542 112.458 92.0171 111.856C91.4871 111.255 90.8283 110.954 90.0405 110.954C89.2528 110.954 88.5903 111.255 88.0532 111.856C87.5161 112.458 87.2476 113.324 87.2476 114.456ZM108.678 120.16H105.66V114.338C105.66 113.106 105.595 112.311 105.466 111.953C105.337 111.588 105.126 111.305 104.833 111.104C104.546 110.904 104.199 110.803 103.791 110.803C103.268 110.803 102.799 110.947 102.383 111.233C101.968 111.52 101.681 111.899 101.524 112.372C101.374 112.844 101.298 113.718 101.298 114.993V120.16H98.2798V108.752H101.083V110.427C102.079 109.138 103.332 108.494 104.843 108.494C105.509 108.494 106.118 108.616 106.669 108.859C107.221 109.095 107.636 109.4 107.916 109.772C108.202 110.145 108.399 110.567 108.506 111.04C108.621 111.512 108.678 112.189 108.678 113.07V120.16Z" fill="white"/>
<path d="M23.8257 138.905L26.855 138.443C26.9839 139.03 27.2453 139.478 27.6392 139.786C28.033 140.087 28.5845 140.237 29.2935 140.237C30.0741 140.237 30.6613 140.094 31.0552 139.807C31.3201 139.607 31.4526 139.338 31.4526 139.002C31.4526 138.773 31.381 138.583 31.2378 138.432C31.0874 138.289 30.7508 138.157 30.228 138.035C27.7931 137.498 26.2498 137.007 25.5981 136.563C24.6958 135.947 24.2446 135.092 24.2446 133.996C24.2446 133.008 24.6349 132.177 25.4155 131.504C26.1961 130.83 27.4064 130.494 29.0464 130.494C30.6076 130.494 31.7677 130.748 32.5269 131.257C33.286 131.765 33.8088 132.517 34.0952 133.512L31.2485 134.039C31.1268 133.595 30.894 133.255 30.5503 133.018C30.2137 132.782 29.7303 132.664 29.1001 132.664C28.3052 132.664 27.7358 132.775 27.3921 132.997C27.1629 133.154 27.0483 133.358 27.0483 133.609C27.0483 133.824 27.1486 134.007 27.3491 134.157C27.6213 134.358 28.5594 134.64 30.1636 135.006C31.7749 135.371 32.8993 135.818 33.5366 136.348C34.1668 136.885 34.4819 137.634 34.4819 138.594C34.4819 139.639 34.0451 140.538 33.1714 141.29C32.2977 142.042 31.005 142.418 29.2935 142.418C27.7394 142.418 26.5076 142.103 25.5981 141.472C24.6958 140.842 24.105 139.986 23.8257 138.905ZM40.1431 126.412V132.202C41.117 131.063 42.2808 130.494 43.6343 130.494C44.3289 130.494 44.9556 130.623 45.5142 130.881C46.0728 131.138 46.4917 131.468 46.771 131.869C47.0575 132.27 47.2508 132.714 47.3511 133.201C47.4585 133.688 47.5122 134.443 47.5122 135.468V142.16H44.4937V136.134C44.4937 134.938 44.4364 134.178 44.3218 133.856C44.2072 133.534 44.0031 133.28 43.7095 133.094C43.423 132.9 43.0614 132.803 42.6245 132.803C42.1232 132.803 41.6756 132.925 41.2817 133.169C40.8879 133.412 40.5978 133.781 40.4116 134.275C40.2326 134.762 40.1431 135.485 40.1431 136.445V142.16H37.1245V126.412H40.1431ZM50.5845 129.205V126.412H53.603V129.205H50.5845ZM50.5845 142.16V130.752H53.603V142.16H50.5845ZM56.6216 130.752H59.436V132.427C59.8013 131.855 60.2954 131.389 60.9185 131.031C61.5415 130.673 62.2326 130.494 62.9917 130.494C64.3166 130.494 65.4409 131.013 66.3647 132.052C67.2886 133.09 67.7505 134.537 67.7505 136.391C67.7505 138.296 67.285 139.779 66.354 140.839C65.423 141.891 64.2951 142.418 62.9702 142.418C62.34 142.418 61.7671 142.292 61.2515 142.042C60.743 141.791 60.2059 141.361 59.6401 140.753V146.5H56.6216V130.752ZM59.6079 136.262C59.6079 137.544 59.8621 138.493 60.3706 139.109C60.8791 139.718 61.4985 140.022 62.229 140.022C62.9308 140.022 63.5145 139.743 63.98 139.184C64.4455 138.619 64.6782 137.695 64.6782 136.413C64.6782 135.217 64.4383 134.329 63.9585 133.749C63.4787 133.169 62.8843 132.879 62.1753 132.879C61.4377 132.879 60.8254 133.165 60.3384 133.738C59.8514 134.304 59.6079 135.145 59.6079 136.262ZM69.0933 138.905L72.1226 138.443C72.2515 139.03 72.5129 139.478 72.9067 139.786C73.3006 140.087 73.8521 140.237 74.561 140.237C75.3416 140.237 75.9289 140.094 76.3228 139.807C76.5877 139.607 76.7202 139.338 76.7202 139.002C76.7202 138.773 76.6486 138.583 76.5054 138.432C76.355 138.289 76.0184 138.157 75.4956 138.035C73.0607 137.498 71.5174 137.007 70.8657 136.563C69.9634 135.947 69.5122 135.092 69.5122 133.996C69.5122 133.008 69.9025 132.177 70.6831 131.504C71.4637 130.83 72.674 130.494 74.314 130.494C75.8752 130.494 77.0353 130.748 77.7944 131.257C78.5535 131.765 79.0763 132.517 79.3628 133.512L76.5161 134.039C76.3944 133.595 76.1616 133.255 75.8179 133.018C75.4813 132.782 74.9979 132.664 74.3677 132.664C73.5728 132.664 73.0034 132.775 72.6597 132.997C72.4305 133.154 72.3159 133.358 72.3159 133.609C72.3159 133.824 72.4162 134.007 72.6167 134.157C72.8888 134.358 73.827 134.64 75.4312 135.006C77.0425 135.371 78.1668 135.818 78.8042 136.348C79.4344 136.885 79.7495 137.634 79.7495 138.594C79.7495 139.639 79.3127 140.538 78.439 141.29C77.5653 142.042 76.2726 142.418 74.561 142.418C73.007 142.418 71.7752 142.103 70.8657 141.472C69.9634 140.842 69.3726 139.986 69.0933 138.905Z" fill="white"/>
</svg>
