<svg width="304" height="294" viewBox="0 0 304 294" fill="none" xmlns="http://www.w3.org/2000/svg">
<path d="M201.712 230.383C198.502 222.073 192.522 214.843 189.632 214.273C186.742 213.703 183.682 215.273 183.542 217.873C183.536 223.071 184.719 228.202 187.002 232.873C189.942 238.763 201.712 230.383 201.712 230.383Z" fill="#BC573F"/>
<path d="M201.712 230.383C200.929 228.379 200.004 226.434 198.942 224.563C198.942 224.563 192.102 230.263 189.402 229.963C186.702 229.663 183.942 223.143 184.482 215.753C183.929 216.331 183.596 217.085 183.542 217.883C183.536 223.081 184.719 228.212 187.002 232.883C187.225 233.332 187.542 233.728 187.932 234.043C189.562 234.043 192.562 233.613 196.642 233.343C198.411 232.498 200.107 231.508 201.712 230.383V230.383Z" fill="#A84734"/>
<path d="M199.402 231.793C197.502 226.863 193.942 222.563 192.232 222.223C190.522 221.883 188.702 222.803 188.612 224.373C188.611 227.451 189.316 230.489 190.672 233.253C192.412 236.773 199.402 231.793 199.402 231.793Z" fill="#E7BC94"/>
<path d="M196.552 226.413C194.322 228.033 191.112 230.113 189.442 229.953C189.743 231.09 190.155 232.196 190.672 233.253C190.799 233.448 190.958 233.62 191.142 233.763C192.662 233.623 194.492 233.443 196.652 233.303C197.382 232.973 198.062 232.603 198.652 232.303C199.072 232.043 199.372 231.833 199.372 231.833C198.639 229.926 197.693 228.108 196.552 226.413V226.413Z" fill="#DEAC80"/>
<path d="M71.972 103.443C79.532 105.243 87.552 104.143 89.262 102.033C90.972 99.9229 91.262 96.5129 89.362 94.9629C85.6796 92.2069 81.3645 90.419 76.812 89.7629C71.142 89.0129 71.972 103.443 71.972 103.443Z" fill="#5E5046"/>
<path d="M71.972 103.443C73.7924 103.871 75.6456 104.145 77.512 104.263C77.512 104.263 76.412 95.4428 77.852 93.3428C79.292 91.2428 85.332 92.4528 90.512 96.9028C90.3552 96.1486 89.9546 95.4669 89.372 94.9628C85.6882 92.2027 81.3688 90.4145 76.812 89.7628C76.3828 89.7024 75.9453 89.754 75.542 89.9128C74.832 91.2928 73.762 94.0328 72.112 97.6128C71.9303 99.5506 71.8835 101.499 71.972 103.443Z" fill="#4A3E36"/>
<path d="M72.042 100.733C76.522 101.813 81.282 101.153 82.302 99.9028C83.322 98.6528 83.472 96.6228 82.362 95.7028C80.1736 94.0638 77.6083 93.0013 74.902 92.6128C71.492 92.1728 72.042 100.733 72.042 100.733Z" fill="#E7BC94"/>
<path d="M77.232 101.303C77.042 98.5528 76.962 94.7228 77.842 93.4028C76.8697 93.0528 75.8647 92.8015 74.842 92.6528C74.6418 92.6554 74.4442 92.6996 74.262 92.7828C73.682 94.1228 72.982 95.7828 72.102 97.6528C72.032 98.4528 71.982 99.2128 71.952 99.9228C71.952 100.413 71.952 100.773 71.952 100.773C73.6799 101.188 75.4561 101.366 77.232 101.303Z" fill="#DEAC80"/>
<path d="M66.152 134.663C73.282 137.733 81.382 138.013 83.432 136.223C85.482 134.433 86.322 131.123 84.742 129.273C81.5796 125.932 77.6338 123.434 73.262 122.003C67.792 120.303 66.152 134.663 66.152 134.663Z" fill="#5E5046"/>
<path d="M66.152 134.663C67.8707 135.394 69.6467 135.983 71.462 136.423C71.462 136.423 71.882 127.543 73.672 125.713C75.462 123.883 81.192 126.123 85.532 131.393C85.5121 130.618 85.2341 129.872 84.742 129.273C81.5796 125.932 77.6338 123.434 73.262 122.003C72.8466 121.88 72.4083 121.856 71.982 121.933C71.042 123.183 69.522 125.693 67.282 128.933C66.7806 130.816 66.4032 132.73 66.152 134.663V134.663Z" fill="#4A3E36"/>
<path d="M66.6219 131.993C70.8619 133.813 75.6219 133.993 76.8819 132.923C78.1419 131.853 78.6019 129.923 77.6619 128.793C75.7846 126.809 73.4398 125.327 70.8419 124.483C67.6019 123.473 66.6219 131.993 66.6219 131.993Z" fill="#E7BC94"/>
<path d="M71.702 133.403C71.982 130.663 72.562 126.883 73.702 125.733C72.8106 125.221 71.869 124.802 70.892 124.483C70.694 124.443 70.49 124.443 70.292 124.483C69.492 125.713 68.522 127.203 67.342 128.913C67.122 129.683 66.952 130.433 66.802 131.133C66.722 131.623 66.672 131.983 66.672 131.983C68.2787 132.676 69.9701 133.153 71.702 133.403V133.403Z" fill="#DEAC80"/>
<path d="M177.562 245.143C169.862 240.653 160.672 238.743 158.072 240.143C155.472 241.543 154.022 244.613 155.562 246.753C158.78 250.806 162.886 254.066 167.562 256.283C173.602 259.033 177.562 245.143 177.562 245.143Z" fill="#BC573F"/>
<path d="M177.562 245.143C175.702 244.06 173.763 243.117 171.762 242.323C171.762 242.323 169.982 251.033 167.692 252.493C165.402 253.953 159.162 250.573 154.972 244.493C154.891 245.29 155.1 246.089 155.562 246.743C158.785 250.791 162.889 254.051 167.562 256.273C168.018 256.481 168.511 256.594 169.012 256.603C170.262 255.603 172.362 253.373 175.382 250.603C176.255 248.845 176.984 247.019 177.562 245.143Z" fill="#A84734"/>
<path d="M176.632 247.683C172.062 245.023 166.632 243.883 165.062 244.683C163.492 245.483 162.662 247.333 163.572 248.613C165.495 251.019 167.945 252.952 170.732 254.263C174.282 255.933 176.632 247.683 176.632 247.683Z" fill="#E7BC94"/>
<path d="M171.042 245.303C170.322 247.963 169.112 251.593 167.702 252.513C168.646 253.201 169.65 253.804 170.702 254.313C170.923 254.39 171.158 254.424 171.392 254.413C172.492 253.363 173.812 252.083 175.392 250.613C175.742 249.893 176.052 249.193 176.332 248.533L176.592 247.713C174.839 246.703 172.977 245.895 171.042 245.303Z" fill="#DEAC80"/>
<path d="M58.102 205.753C58.722 202.403 61.012 191.373 62.882 189.523C64.752 187.673 71.102 186.753 73.102 190.433C75.102 194.113 74.102 210.873 74.102 210.873L58.102 205.753Z" fill="#755640"/>
<path d="M61.482 199.383C61.482 199.383 62.482 192.613 64.572 188.533C63.9514 188.758 63.3783 189.097 62.882 189.533C61.012 191.383 58.722 202.413 58.102 205.763L74.102 210.893C74.102 210.893 74.332 207.023 74.352 202.593C70.692 200.303 61.482 199.383 61.482 199.383Z" fill="#64452D"/>
<path d="M93.572 221.473C95.802 218.903 103.362 210.543 105.912 209.893C108.462 209.243 114.402 211.673 114.262 215.893C114.122 220.113 104.772 234.033 104.772 234.033L93.572 221.473Z" fill="#755640"/>
<path d="M99.702 217.693C99.702 217.693 103.972 212.353 107.852 209.903C107.211 209.778 106.553 209.778 105.912 209.903C103.362 210.553 95.802 218.903 93.572 221.483L104.772 234.003C104.772 234.003 106.922 230.773 109.182 227.003C107.172 223.173 99.702 217.693 99.702 217.693Z" fill="#64452D"/>
<path d="M195.682 76.4429C195.682 79.8529 195.622 91.1129 194.142 93.3029C192.662 95.4929 186.622 97.6029 183.952 94.3829C181.282 91.1629 178.952 74.5229 178.952 74.5229L195.682 76.4429Z" fill="#755640"/>
<path d="M193.602 83.3029C193.602 83.3029 193.962 90.133 192.682 94.543C193.242 94.225 193.738 93.8043 194.142 93.3029C195.622 91.1129 195.722 79.8529 195.682 76.4429L179.042 74.5229C179.042 74.5229 179.582 78.363 180.422 82.713C184.382 84.213 193.602 83.3029 193.602 83.3029Z" fill="#64452D"/>
<path d="M169.162 79.3629C168.432 82.6929 165.762 93.6329 163.822 95.4229C161.882 97.2129 155.522 97.9029 153.652 94.1629C151.782 90.4229 153.352 73.6829 153.352 73.6829L169.162 79.3629Z" fill="#755640"/>
<path d="M165.572 85.6029C165.572 85.6029 164.372 92.3328 162.112 96.3428C162.734 96.1454 163.314 95.8334 163.822 95.4229C165.762 93.6329 168.422 82.6929 169.162 79.3629L153.352 73.6829C153.352 73.6829 152.992 77.5529 152.822 81.9729C156.392 84.3529 165.572 85.6029 165.572 85.6029Z" fill="#64452D"/>
<path d="M251.142 184.703C248.662 187.033 240.282 194.563 237.682 194.953C235.082 195.343 229.422 192.313 229.992 188.173C230.562 184.033 241.292 171.103 241.292 171.103L251.142 184.703Z" fill="#5E5046"/>
<path d="M244.662 187.823C244.662 187.823 239.862 192.713 235.752 194.743C236.375 194.938 237.031 195.01 237.682 194.953C240.282 194.563 248.682 187.033 251.142 184.703L241.282 171.103C241.282 171.103 238.812 174.103 236.172 177.643C237.782 181.613 244.662 187.823 244.662 187.823Z" fill="#4A3E36"/>
<path d="M236.132 155.583C232.732 155.753 221.472 156.043 219.232 154.643C216.992 153.243 214.662 147.283 217.792 144.503C220.922 141.723 237.462 138.843 237.462 138.843L236.132 155.583Z" fill="#5E5046"/>
<path d="M229.172 153.753C229.172 153.753 222.362 154.363 217.912 153.243C218.261 153.794 218.713 154.272 219.242 154.653C221.482 156.053 232.742 155.753 236.142 155.583L237.472 138.843C237.472 138.843 233.652 139.513 229.332 140.503C227.972 144.573 229.172 153.753 229.172 153.753Z" fill="#4A3E36"/>
<path d="M170.892 142.083C164.892 145.903 164.302 147.083 162.612 149.353C160.922 151.623 158.752 155.353 154.492 158.933C151.933 160.9 149.86 163.428 148.432 166.323C147.752 167.593 146.432 171.423 145.022 170.493C143.612 169.563 145.022 165.593 145.742 164.023C146.567 162.417 147.513 160.876 148.572 159.413C148.572 159.413 144.632 163.603 143.132 165.133C141.632 166.663 137.812 165.293 139.792 162.673C139.792 162.673 137.292 162.383 136.862 161.373C136.432 160.363 136.592 159.423 137.112 157.963C136.686 157.522 136.401 156.964 136.294 156.36C136.187 155.756 136.263 155.134 136.512 154.573C136.512 154.573 135.602 152.393 136.352 150.833C137.102 149.273 141.082 146.833 141.852 146.413C142.622 145.993 148.852 143.843 150.402 143.173C152.07 142.448 153.631 141.5 155.042 140.353C155.976 139.163 157.061 138.1 158.272 137.193C159.942 136.083 163.122 133.273 163.122 133.273L170.892 142.083Z" fill="#E7BC94"/>
<path d="M138.602 162.413C138.757 161.796 139.046 161.22 139.449 160.728C139.852 160.235 140.358 159.838 140.932 159.563C142.722 158.563 146.392 155.913 146.392 155.913L139.792 162.673C139.379 162.699 138.966 162.609 138.602 162.413Z" fill="#DEAC80"/>
<path d="M143.962 152.303C143.962 152.303 138.322 156.773 137.112 157.963C136.864 157.687 136.662 157.373 136.512 157.033C138.212 155.733 143.962 152.303 143.962 152.303Z" fill="#DEAC80"/>
<path d="M142.772 149.403C142.772 149.403 140.572 151.303 139.132 152.403C137.692 153.503 136.512 154.583 136.512 154.583C136.512 154.583 136.372 154.183 136.242 153.653C138.202 152.163 142.772 149.403 142.772 149.403Z" fill="#DEAC80"/>
<path d="M299.042 140.763L234.342 158.833C234.342 158.833 240.982 185.433 255.632 188.833C255.632 188.833 267.202 200.213 277.522 196.993C283.591 195.153 289.286 192.251 294.342 188.423C300.382 183.753 307.842 173.713 299.042 140.763Z" fill="#755640"/>
<path d="M198.662 105.193C197.192 105.983 166.992 128.833 158.822 134.033C159.222 136.513 165.632 145.733 169.432 148.483C171.152 146.834 173.024 145.351 175.022 144.053C179.862 140.883 205.312 123.933 206.372 123.213C207.432 122.493 212.372 123.473 219.032 124.213C224.342 124.763 233.832 126.613 233.832 126.613C227.112 138.553 234.352 158.883 234.352 158.883L299.042 140.763C289.482 108.033 274.512 103.763 266.952 102.983C259.392 102.203 229.952 101.393 224.952 101.563C214.202 101.933 204.532 102.013 198.662 105.193Z" fill="#755640"/>
<path d="M265.902 169.863C263.382 169.583 252.612 168.453 249.052 158.253C248.566 158.374 248.06 158.383 247.57 158.281C247.08 158.179 246.619 157.968 246.222 157.663C245.062 156.663 241.602 155.943 241.062 154.073C240.522 152.203 244.062 149.433 244.342 148.393C244.479 148.05 244.689 147.74 244.956 147.484C245.223 147.229 245.543 147.034 245.892 146.913C245.892 146.913 243.952 133.143 258.112 128.693L268.782 166.593L265.902 169.863Z" fill="#E7BC94"/>
<path d="M260.802 125.203C259.902 124.073 262.462 124.273 264.982 122.623C267.502 120.973 271.522 120.203 272.612 122.803C273.702 125.403 260.802 125.203 260.802 125.203Z" fill="#E7BC94"/>
<path d="M270.532 171.663C269.872 172.273 270.302 173.863 273.262 173.363C276.222 172.863 283.422 174.643 283.142 170.363C282.862 166.083 270.532 171.663 270.532 171.663Z" fill="#E7BC94"/>
<path d="M264.902 164.893C266.002 168.893 263.812 171.273 267.762 172.033C271.712 172.793 286.292 172.513 294.402 163.033C302.512 153.553 301.202 139.683 297.292 132.783C293.382 125.883 289.292 123.843 284.442 122.853C279.592 121.863 269.682 122.033 262.922 124.493C257.172 126.593 255.292 128.163 255.472 130.013C255.652 131.863 250.002 138.483 254.202 151.013C257.522 160.913 264.292 162.693 264.902 164.893Z" fill="#2F3034"/>
<path d="M266.592 165.453C266.357 165.57 266.142 165.722 265.952 165.903C265.465 166.332 265.029 166.815 264.652 167.343C264.092 168.136 263.72 169.045 263.562 170.003C263.49 168.979 263.654 167.953 264.042 167.003C264.316 166.334 264.669 165.7 265.092 165.113C265.294 164.812 265.536 164.539 265.812 164.303L266.592 165.453Z" fill="#2F3034"/>
<path d="M293.142 132.833C296.532 141.133 295.042 157.133 286.912 164.403C278.782 171.673 265.842 171.193 265.252 167.903C265.252 170.103 264.932 171.493 267.752 172.043C271.692 172.803 286.282 172.513 294.392 163.043C302.502 153.573 301.192 139.683 297.292 132.783C293.392 125.883 289.292 123.843 284.432 122.863C283.468 122.686 282.492 122.579 281.512 122.543C283.812 122.863 289.732 124.483 293.142 132.833Z" fill="#0B0D15"/>
<path d="M266.532 165.603C266.037 165.554 265.546 165.47 265.062 165.353C263.766 165.039 262.52 164.544 261.362 163.883C257.897 161.924 255.192 158.856 253.682 155.173C252.265 151.544 251.74 147.627 252.152 143.753C252.242 142.483 252.412 141.221 252.662 139.973L252.912 138.563L252.722 139.993C252.521 141.24 252.404 142.5 252.372 143.763C252.123 147.572 252.791 151.386 254.322 154.883C255.882 158.317 258.562 161.12 261.922 162.833C262.986 163.392 264.124 163.796 265.302 164.033C265.753 164.128 266.211 164.188 266.672 164.213L266.532 165.603Z" fill="#2F3034"/>
<path d="M279.932 193.553C268.742 196.463 260.262 183.823 260.262 183.823C260.262 183.823 239.942 179.073 235.162 158.613C230.382 138.153 242.092 122.233 242.092 122.233C242.092 122.233 210.542 117.033 206.652 117.373C202.932 117.703 173.792 139.853 166.232 145.433C167.191 146.557 168.263 147.579 169.432 148.483C171.146 146.832 173.015 145.348 175.012 144.053C179.852 140.883 205.302 123.933 206.362 123.213C207.422 122.493 212.362 123.473 219.022 124.213C224.332 124.763 233.822 126.613 233.822 126.613C227.102 138.553 234.342 158.883 234.342 158.883C234.342 158.883 240.982 185.483 255.622 188.823C255.622 188.823 267.202 200.213 277.522 196.993C283.588 195.153 289.28 192.251 294.332 188.423C297.003 186.413 299.113 183.751 300.462 180.693C300.222 180.903 290.972 190.683 279.932 193.553Z" fill="#64452D"/>
<path d="M158.702 161.533C158.702 161.533 153.392 154.653 145.232 155.223C137.072 155.793 137.482 161.123 137.482 161.123L156.622 167.893L159.302 164.713L158.702 161.533Z" fill="#DEAC80"/>
<path d="M128.112 155.703C130.442 155.823 136.262 154.453 139.112 153.843C141.962 153.233 142.902 151.943 146.812 152.393C149.519 152.594 152.178 153.219 154.692 154.243C155.762 154.843 157.182 155.363 158.602 156.133C160.022 156.903 160.602 158.523 157.462 158.593C155.505 158.534 153.58 158.082 151.802 157.263C150.422 156.723 146.572 157.463 144.542 158.083C142.512 158.703 141.242 159.303 143.042 160.033C144.842 160.763 149.402 162.033 151.332 162.933C153.262 163.833 156.332 165.813 156.332 165.813C156.332 165.813 157.442 163.693 158.042 163.493C157.66 162.405 157.445 161.265 157.402 160.113C157.462 158.743 159.452 157.403 160.072 159.443C160.692 161.483 161.612 164.653 161.432 165.443C161.252 166.233 158.132 170.373 157.892 170.743C157.652 171.113 153.842 171.273 152.422 171.743C151.002 172.213 147.652 173.083 146.742 172.923C145.832 172.763 142.042 170.833 139.562 169.923C137.082 169.013 132.102 167.983 129.132 168.303L128.112 155.703Z" fill="#E7BC94"/>
<path d="M51.492 136.983C57.912 139.523 66.792 138.803 70.492 130.203C74.192 121.603 70.942 113.943 72.602 106.803C74.262 99.6629 79.772 86.6829 74.732 77.5329C71.732 72.1229 67.542 71.5329 60.802 69.9629L51.492 136.983Z" fill="#E18E4F"/>
<path d="M121.042 169.723C124.752 169.463 127.512 169.113 129.242 168.903C129.242 168.903 131.682 156.453 128.242 154.683C128.242 154.683 119.962 153.963 115.922 153.043C107.592 151.043 92.922 148.223 84.222 149.683L56.542 138.433L59.912 112.113L8.80202 102.183C7.39202 107.753 7.22201 123.873 10.292 133.753C13.362 143.633 23.392 155.853 44.192 161.293C64.992 166.733 79.532 169.443 81.852 169.843C84.172 170.243 105.622 170.173 114.342 170.023C116.702 170.023 118.702 169.883 120.542 169.763L121.042 169.723Z" fill="#E18E4F"/>
<path d="M35.282 56.573C22.932 61.413 13.812 76.573 8.802 102.183L59.912 112.113L65.572 72.453C65.572 72.453 61.432 64.133 54.212 59.383C48.362 55.533 39.812 54.803 35.282 56.573Z" fill="#E18E4F"/>
<path d="M59.912 112.113C55.982 123.113 44.342 129.113 33.912 125.383C23.482 121.653 18.262 109.703 22.202 98.653C26.142 87.603 37.772 81.653 48.202 85.383C58.632 89.113 63.852 101.063 59.912 112.113Z" fill="#CE8047"/>
<path d="M55.402 111.303C55.942 110.053 54.402 108.843 54.112 107.653C54.021 107.313 53.8388 107.003 53.5851 106.758C53.3314 106.513 53.0157 106.342 52.672 106.263C53.4214 104.652 53.9043 102.929 54.102 101.163C54.202 98.8632 53.102 95.4432 51.412 92.3832C49.9474 89.579 47.8188 87.1758 45.212 85.3832C42.022 82.9332 42.332 82.6532 42.212 81.3232C42.092 79.9932 39.762 78.7232 38.972 78.0032C38.182 77.2832 33.512 73.9232 31.282 77.0032C29.052 80.0832 17.372 117.003 17.482 117.823C17.6465 118.506 18.0399 119.111 18.5967 119.539C19.1536 119.967 19.8402 120.19 20.542 120.173C22.612 120.313 27.442 121.843 27.902 120.013C30.5207 120.923 33.2964 121.294 36.062 121.103C41.062 120.863 47.872 117.843 49.782 113.723C50.1127 113.906 50.4872 113.994 50.8646 113.978C51.2421 113.962 51.6079 113.843 51.922 113.633C53.042 112.843 54.622 113.093 55.402 111.303Z" fill="#E7BC94"/>
<path d="M52.982 91.9331C56.742 94.5031 56.772 97.0331 55.472 101.113C54.9513 102.966 54.2303 104.756 53.322 106.453C53.2707 108.115 52.9324 109.756 52.322 111.303C51.9318 112.374 51.2702 113.325 50.402 114.063C50.0145 115.725 49.3593 117.312 48.462 118.763C48.122 119.403 47.782 120.033 47.462 120.653C46.712 122.253 45.342 124.233 43.942 124.593C43.7142 124.658 43.4745 124.672 43.2408 124.632C43.0071 124.592 42.7854 124.5 42.592 124.363L43.352 123.303C43.352 123.303 43.452 123.363 43.612 123.303C44.242 123.133 45.392 121.953 46.282 120.063C46.582 119.423 46.932 118.773 47.282 118.123C48.1587 116.733 48.7754 115.194 49.102 113.583V113.183L49.472 113.033C50.2226 112.453 50.7775 111.658 51.062 110.753C51.6379 109.336 51.9693 107.831 52.042 106.303V106.103L52.162 105.923C53.0619 104.293 53.7636 102.56 54.252 100.763C55.572 96.6231 55.162 95.0431 52.252 93.0631L52.982 91.9331Z" fill="#0B0D15"/>
<path d="M46.862 93.3031C49.272 96.0631 50.662 100.533 47.142 107.143C43.622 113.753 46.242 123.273 50.652 123.373C50.652 123.373 45.772 124.033 44.122 118.253C44.122 118.253 41.882 125.373 48.332 127.403C47.7171 127.633 47.0603 127.73 46.4051 127.687C45.75 127.644 45.1115 127.462 44.532 127.153C42.532 126.153 41.532 127.713 38.532 126.643C36.7323 125.983 35.2471 124.669 34.372 122.963C34.372 122.963 34.792 127.183 38.622 128.323C38.622 128.323 36.532 129.323 32.862 127.593C29.192 125.863 24.782 125.333 19.862 123.793C14.942 122.253 7.61201 119.253 4.30201 114.013C0.992011 108.773 -1.69799 103.143 1.30201 94.7632C3.05095 89.8385 6.17417 85.5181 10.302 82.3131C10.302 82.3131 9.30201 78.8131 13.232 76.3131C17.162 73.8131 30.042 73.1831 41.782 78.3131C53.522 83.4431 54.502 91.3132 54.292 96.2432C54.302 96.2032 52.742 90.4731 46.862 93.3031Z" fill="#BC573F"/>
<path d="M1.24198 108.093C-2.05802 98.9631 9.90199 84.6131 16.042 87.6931C22.182 90.7731 19.502 94.1931 19.502 94.1931C19.502 94.1931 28.872 88.0531 39.712 95.9431C50.552 103.833 42.312 111.253 44.112 118.213C45.762 123.993 50.642 123.333 50.642 123.333C46.232 123.233 43.642 113.733 47.132 107.113C50.622 100.493 49.272 96.0231 46.862 93.2631C26.312 80.2631 10.312 82.2631 10.312 82.2631C6.18178 85.4699 3.05824 89.7943 1.31198 94.7231C-0.412812 99.0083 -0.437847 103.79 1.24198 108.093Z" fill="#A84734"/>
<path d="M13.242 76.2431C11.9301 77.0183 10.9454 78.2447 10.472 79.6931C12.982 75.0731 24.172 74.3631 28.082 77.6931C31.992 81.0231 33.732 78.6031 42.222 81.2731C50.712 83.9431 54.222 92.7831 54.302 96.1831C54.512 91.2431 53.532 83.4231 41.792 78.2531C30.052 73.0831 17.152 73.7231 13.242 76.2431Z" fill="#A84734"/>
<path d="M128.232 154.683C128.232 154.683 119.942 153.963 115.912 153.043C107.572 151.043 92.912 148.223 84.212 149.683L56.542 138.443V138.193C61.942 138.683 67.682 136.683 70.542 130.193C72.542 125.683 72.542 121.423 72.342 117.363C72.342 121.533 68.952 133.503 61.782 134.583C54.612 135.663 46.502 137.393 46.502 137.393C46.502 137.393 83.9019 155.573 84.9719 155.223C86.0419 154.873 111.852 155.013 129.912 158.013C129.672 156.433 129.172 155.163 128.232 154.683Z" fill="#CE8047"/>
<path d="M68.482 72.013C64.8171 70.6869 60.9386 70.0495 57.042 70.133C57.042 70.133 77.852 76.363 74.802 99.063C76.672 92.213 78.342 83.953 74.802 77.533C73.4721 74.9576 71.2128 72.9843 68.482 72.013Z" fill="#CE8047"/>
<path d="M51.972 202.693C49.7667 203.226 47.6918 204.198 45.872 205.553C45.872 205.553 35.342 201.003 24.782 209.773C14.222 218.543 24.042 238.303 24.042 238.303C24.042 238.303 30.682 250.303 37.772 255.303C44.862 260.303 55.332 263.913 55.972 263.103C56.612 262.293 86.412 213.933 86.412 213.933C86.412 213.933 66.972 198.853 51.972 202.693Z" fill="#F8D777"/>
<path d="M154.642 159.883C153.822 159.943 153.012 160.003 152.212 160.023C146.972 160.133 141.772 159.453 136.552 160.023C138.332 162.893 138.932 165.583 139.612 166.943C140.672 169.093 140.062 176.633 139.432 178.633C143.312 179.263 149.432 177.973 153.252 179.003C153.512 177.393 153.692 176.123 153.722 175.433C153.912 171.643 154.632 169.753 154.172 165.433C153.941 163.571 154.102 161.68 154.642 159.883V159.883Z" fill="#E7BC94"/>
<path d="M154.042 207.553C154.112 205.403 153.602 183.963 153.412 176.553C149.461 176.231 145.495 176.114 141.532 176.203C141.532 176.303 141.532 176.443 141.472 176.513C141.012 177.733 135.662 208.713 133.682 211.253C131.702 213.793 110.422 234.663 110.422 234.663C110.422 234.663 105.272 226.073 99.042 221.943C94.962 219.233 91.842 217.143 86.392 213.943C84.392 212.743 81.942 211.383 79.062 209.783L77.232 213.303C75.432 216.713 73.642 220.123 71.832 223.523C68.212 230.323 64.512 237.093 60.572 243.723C56.632 250.353 52.492 256.603 48.062 262.783L47.932 262.953C56.932 268.133 74.492 278.023 77.932 278.743C82.552 279.743 103.492 281.053 110.322 274.423C117.152 267.793 126.592 256.263 130.022 252.083C133.452 247.903 146.022 233.523 150.592 226.553C155.162 219.583 154.042 210.223 154.042 207.553Z" fill="#F8D777"/>
<path d="M51.942 237.043C57.402 233.783 62.422 233.113 66.242 234.123C68.0914 234.536 69.8891 235.153 71.602 235.963C71.602 235.963 75.002 233.963 76.162 234.343C77.322 234.723 77.442 238.023 76.882 239.243C76.882 239.243 86.162 246.703 82.762 255.473L76.882 268.423L44.392 253.663L51.942 237.043Z" fill="#E7BC94"/>
<path d="M45.8719 241.543C45.2519 241.083 43.1119 241.883 40.8119 244.373C38.5119 246.863 37.4219 249.613 38.9119 251.173C40.4019 252.733 45.8719 241.543 45.8719 241.543Z" fill="#E7BC94"/>
<path d="M82.6219 266.173C82.6219 266.173 84.3519 267.543 82.2419 272.173C80.1319 276.803 77.1819 276.503 76.2919 275.173C75.4019 273.843 82.6219 266.173 82.6219 266.173Z" fill="#E7BC94"/>
<path d="M54.412 235.733C54.412 235.733 51.472 239.193 51.332 242.523C51.332 242.523 58.942 236.253 68.792 243.083C68.792 243.083 61.792 241.673 60.212 243.173C60.212 243.173 76.492 244.963 77.732 257.473C76.9449 256.132 75.83 255.014 74.492 254.223C74.492 254.223 76.942 258.583 76.992 261.693C76.992 261.693 80.632 258.643 83.512 251.623C83.512 251.623 86.392 257.863 82.622 266.173C78.852 274.483 71.042 283.883 63.912 286.303C56.782 288.723 45.512 282.063 41.652 278.553C37.792 275.043 31.512 263.923 38.222 252.383C44.932 240.843 49.702 237.363 54.412 235.733Z" fill="#7C472F"/>
<path d="M47.522 282.573C45.4313 281.42 43.4644 280.057 41.652 278.503C37.802 274.973 31.512 263.873 38.222 252.333C44.932 240.793 49.702 237.333 54.412 235.733C54.412 235.733 51.472 239.193 51.332 242.523C51.332 242.523 58.942 236.253 68.792 243.083C68.792 243.083 61.792 241.673 60.212 243.173C61.3977 243.324 62.5708 243.561 63.722 243.883C60.212 243.173 41.552 248.243 42.062 265.273C42.5516 263.435 43.4758 261.742 44.7567 260.335C46.0375 258.929 47.6375 257.852 49.422 257.193C49.422 257.193 38.752 272.443 47.522 282.573Z" fill="#673624"/>
<path d="M79.782 264.303C72.562 276.643 64.582 279.933 64.582 279.933C78.962 266.433 74.492 254.233 74.492 254.233C74.492 254.233 76.932 258.593 76.992 261.703C76.992 261.703 80.632 258.653 83.502 251.633C83.502 251.633 86.392 257.873 82.622 266.183C80.8035 270.085 78.4876 273.735 75.732 277.043C80.282 268.913 79.782 264.303 79.782 264.303Z" fill="#673624"/>
<path d="M133.722 211.213L139.922 171.893C139.922 171.893 147.922 169.093 154.652 171.743C154.652 171.743 155.782 207.293 153.652 213.313C151.522 219.333 145.012 219.213 145.012 219.213L133.722 211.213Z" fill="#F8D777"/>
<path d="M138.042 215.193C139.182 213.103 142.142 179.243 143.272 171.073C142.143 171.272 141.027 171.543 139.932 171.883V171.883L133.732 211.203C131.732 213.763 110.472 234.613 110.472 234.613C110.472 234.613 105.322 226.023 99.092 221.893C95.002 219.183 91.892 217.093 86.432 213.893C86.432 213.893 66.982 198.823 51.982 202.663C50.0462 203.15 48.2069 203.962 46.542 205.063C45.542 205.963 43.802 209.063 43.202 209.933C50.0838 208.083 57.2879 207.767 64.3052 209.008C71.3225 210.249 77.9816 213.016 83.812 217.113C103.622 231.113 108.012 244.053 108.012 244.053C108.012 244.053 136.722 217.663 138.042 215.193Z" fill="#F6C951"/>
<path d="M43.192 209.953L48.412 204.033C47.5221 204.464 46.6721 204.972 45.872 205.553C45.872 205.553 35.342 201.003 24.782 209.773C21.032 212.893 19.872 217.393 19.912 221.893C23.402 205.513 40.572 208.373 43.192 209.953Z" fill="#F6C951"/>
<path d="M154.722 167.623C154.722 167.623 151.072 164.463 146.782 164.623C146.782 164.623 142.952 154.423 154.932 152.423C154.932 152.423 160.042 155.423 161.572 156.473C163.102 157.523 154.722 167.623 154.722 167.623Z" fill="#E7BC94"/>
<path d="M172.592 246.463C167.222 255.383 168.452 263.233 168.452 263.233C168.452 263.233 158.372 266.693 162.082 277.133C165.792 287.573 173.182 293.363 180.492 293.593C187.802 293.823 200.092 289.333 213.432 281.383C213.432 281.383 200.912 247.213 199.352 247.323C197.792 247.433 172.592 246.463 172.592 246.463Z" fill="#758FE3"/>
<path d="M154.292 169.043C152.612 168.043 154.072 156.393 161.242 154.713C161.242 154.713 202.242 175.173 205.392 178.983C206.392 180.143 221.662 197.463 232.602 217.523C242.422 235.523 241.342 252.703 238.792 258.523C233.482 270.663 218.672 278.013 218.672 278.013L202.532 244.013C202.532 244.013 169.162 254.303 169.972 252.103C176.222 235.023 195.082 228.703 203.752 225.593C208.752 223.783 208.932 223.233 207.032 220.213C201.442 211.313 191.972 194.463 191.232 193.343C190.272 191.913 154.292 169.043 154.292 169.043Z" fill="#758FE3"/>
<path d="M165.502 281.153C160.302 269.623 173.122 265.973 173.122 265.973C172.602 257.973 177.722 240.113 189.282 234.863C200.842 229.613 216.402 227.233 215.842 224.863C215.282 222.493 199.572 195.383 195.142 188.563C190.992 182.143 165.422 169.113 154.002 163.883C153.482 166.403 153.602 168.583 154.292 169.003C154.292 169.003 190.292 191.873 191.222 193.303C191.962 194.433 201.432 211.303 207.032 220.173C208.932 223.173 208.772 223.743 203.742 225.553C196.112 228.293 180.562 233.553 172.742 246.433H172.622C167.262 255.343 168.492 263.193 168.492 263.193C168.492 263.193 158.412 266.653 162.122 277.093C165.832 287.533 173.222 293.313 180.532 293.553C180.492 293.603 170.702 292.683 165.502 281.153Z" fill="#5874CB"/>
<path d="M183.042 234.563C182.042 235.463 182.842 237.253 182.622 238.483C182.561 238.835 182.596 239.197 182.723 239.531C182.849 239.865 183.063 240.159 183.342 240.383C181.942 241.533 180.74 242.905 179.782 244.443C178.672 246.503 178.172 250.133 178.382 253.683C178.483 256.905 179.372 260.054 180.972 262.853C182.822 266.503 182.412 266.623 181.972 267.853C181.532 269.083 183.072 271.323 183.492 272.333C183.912 273.343 186.702 278.483 190.092 276.663C193.482 274.843 220.492 246.073 220.742 245.293C220.886 244.595 220.79 243.869 220.468 243.234C220.147 242.598 219.619 242.09 218.972 241.793C217.132 240.793 213.372 237.233 212.152 238.693C210.152 236.706 207.771 235.145 205.152 234.103C200.512 232.103 192.892 231.893 189.312 234.823C189.091 234.508 188.787 234.261 188.434 234.109C188.081 233.957 187.692 233.906 187.312 233.963C185.972 234.203 184.602 233.303 183.042 234.563Z" fill="#E7BC94"/>
<path d="M210.312 281.373C204.542 284.693 196.482 282.123 190.082 276.713C185.364 272.535 181.748 267.26 179.552 261.353C178.812 259.083 181.552 255.973 182.232 253.573C182.912 251.173 184.012 243.993 190.582 239.843C197.152 235.693 204.042 237.303 206.432 236.703C208.822 236.103 210.262 236.603 213.612 239.193C216.962 241.783 221.812 245.853 224.232 250.743C226.652 255.633 228.182 261.293 226.292 265.003C226.292 265.003 230.812 264.243 232.752 269.273C234.692 274.303 231.382 279.873 224.532 284.463C218.942 288.213 211.322 287.793 210.312 281.373Z" fill="#DF803F"/>
<path d="M182.752 254.133C182.726 253.61 182.726 253.086 182.752 252.563C182.81 251.184 183.004 249.814 183.332 248.473C184.27 244.351 186.731 240.737 190.222 238.353C192.061 237.123 194.118 236.254 196.282 235.793C198.352 235.353 200.282 235.273 201.932 235.033C203.786 234.886 205.563 234.224 207.062 233.123C206.666 233.442 206.24 233.723 205.792 233.963C204.601 234.6 203.309 235.027 201.972 235.223C200.332 235.533 198.382 235.693 196.382 236.223C194.301 236.754 192.337 237.67 190.592 238.923C187.367 241.305 185.166 244.821 184.432 248.763C184.041 250.521 183.923 252.329 184.082 254.123L182.752 254.133Z" fill="#DF803F"/>
<path d="M183.042 256.213C183.142 255.708 183.202 255.197 183.222 254.683C183.302 253.753 183.222 252.313 183.382 250.553C183.502 248.5 184.195 246.522 185.382 244.843C186.791 243.023 188.561 241.515 190.582 240.413C191.58 239.819 192.635 239.326 193.732 238.943C194.832 238.633 195.912 238.423 196.962 238.193C198.87 237.803 200.756 237.312 202.612 236.723C204.462 236.21 206.172 235.283 207.612 234.013C206.22 235.332 204.549 236.32 202.722 236.903C200.883 237.572 199.006 238.133 197.102 238.583C196.102 238.853 194.972 239.103 193.922 239.443C192.868 239.839 191.862 240.353 190.922 240.973C189.036 242.085 187.402 243.577 186.122 245.353C185.111 246.93 184.564 248.76 184.542 250.633C184.482 252.293 184.542 253.713 184.542 254.773C184.534 255.309 184.49 255.843 184.412 256.373L183.042 256.213Z" fill="#DF803F"/>
<path d="M214.042 276.723C215.592 269.283 226.292 265.003 226.292 265.003C217.772 264.763 215.782 274.893 204.572 275.253C193.362 275.613 182.972 259.253 183.242 250.463H183.042C182.662 251.763 182.402 252.863 182.192 253.563C181.472 255.963 178.772 259.073 179.512 261.343C181.703 267.255 185.32 272.535 190.042 276.713C196.442 282.123 204.502 284.713 210.262 281.373C211.262 287.793 218.902 288.213 224.492 284.463C229.242 281.273 232.232 277.623 233.012 274.003C227.282 281.873 212.512 284.133 214.042 276.723Z" fill="#D47637"/>
<path d="M133.482 75.6029C130.619 78.41 128.445 81.8412 127.128 85.6282C125.811 89.4151 125.388 93.4553 125.892 97.4329C125.892 97.4329 129.892 110.433 131.352 119.073C132.812 127.713 133.252 131.073 136.262 135.503C139.272 139.933 138.962 141.033 143.262 143.503C147.562 145.973 150.542 146.563 151.902 148.243C153.262 149.923 153.902 151.293 155.142 152.643C156.382 153.993 156.262 156.483 156.932 157.583C157.602 158.683 157.672 159.323 156.932 159.933C156.192 160.543 154.672 159.933 154.672 159.933C154.335 160.454 153.813 160.829 153.212 160.983C152.551 161.153 151.853 161.118 151.212 160.883C151.212 160.883 150.762 163.263 147.632 163.123C147.632 163.123 146.012 165.853 143.332 164.353C143.332 164.353 143.582 164.753 141.762 165.453C139.942 166.153 137.572 163.143 136.532 161.893C135.492 160.643 135.322 161.093 133.672 158.583C132.022 156.073 130.222 154.203 129.522 152.373C128.822 150.543 129.042 148.273 127.842 146.663C126.642 145.053 113.742 120.523 109.782 112.303C105.822 104.083 103.782 99.2329 103.922 96.3029C104.062 93.3729 105.702 91.1029 109.922 86.1629C114.142 81.2229 119.362 73.7029 119.362 73.7029L133.482 75.6029Z" fill="#E7BC94"/>
<path d="M155.042 158.083C154.922 157.623 153.312 154.813 152.872 153.913C152.064 152.533 151.086 151.26 149.962 150.123C149.031 149.282 148.143 148.394 147.302 147.463C147.891 147.99 148.527 148.462 149.202 148.873C150.401 149.641 151.454 150.616 152.312 151.753C153.795 153.788 154.974 156.028 155.812 158.403C156.222 159.823 156.912 159.933 156.912 159.933C156.152 160.553 154.662 159.933 154.662 159.933C155.024 159.389 155.16 158.725 155.042 158.083V158.083Z" fill="#DEAC80"/>
<path d="M151.822 161.053C151.615 161.016 151.411 160.963 151.212 160.893C150.453 159.84 149.869 158.672 149.482 157.433C149.302 157.003 149.612 156.903 149.732 156.813C149.852 156.723 151.212 160.893 151.822 161.053Z" fill="#DEAC80"/>
<path d="M145.302 159.513C145.592 159.363 146.942 162.313 148.212 163.103C148.019 163.113 147.825 163.113 147.632 163.103C146.939 162.532 146.339 161.857 145.852 161.103C145.202 160.103 145.042 159.673 145.302 159.513Z" fill="#DEAC80"/>
<path d="M142.042 162.503C142.403 163.173 142.843 163.797 143.352 164.363C143.352 164.363 143.412 164.473 143.222 164.673C142.222 163.953 140.812 161.863 141.072 161.673C141.332 161.483 141.642 161.673 142.042 162.503Z" fill="#DEAC80"/>
<path opacity="0.4" d="M149.842 150.613C150.312 151.183 150.382 151.613 149.372 152.613C148.362 153.613 148.142 153.243 147.372 154.103C146.602 154.963 145.872 156.103 144.732 156.153C143.592 156.203 143.102 156.913 142.232 157.793C141.362 158.673 140.462 158.273 139.922 158.843C139.125 159.671 138.146 160.301 137.062 160.683C136.062 160.903 134.992 157.893 134.502 155.863C134.012 153.833 139.762 147.623 142.232 147.333C144.702 147.043 148.412 148.853 149.842 150.613Z" fill="url(#paint0_linear)"/>
<path d="M105.042 100.573C105.862 102.573 126.482 100.673 127.242 97.5729C127.392 96.9729 125.862 95.5729 126.662 93.5729C130.042 85.3029 139.242 68.8729 139.242 68.8729C139.242 68.8729 148.812 76.8729 156.182 78.0529C161.022 78.8529 164.722 79.4829 171.002 80.1729C174.302 80.5229 178.322 80.8929 183.602 81.3229C198.912 82.5329 209.772 72.1329 209.772 72.1329C213.978 72.5035 218.207 71.744 222.022 69.9329C225.702 68.0829 228.152 66.4029 229.512 58.2129C231.762 44.7329 229.582 39.5329 220.972 32.2629C212.172 24.8229 203.312 20.9629 192.652 18.2629C192.652 18.2629 156.932 16.4929 152.322 17.4929C147.712 18.4929 128.042 25.8129 124.522 34.6629C121.002 43.5129 116.522 54.6629 115.122 59.9229C113.722 65.1829 106.982 82.0729 104.452 90.0029C102.282 96.8629 103.982 98.1029 105.042 100.573Z" fill="#9F8ED7"/>
<path d="M194.872 40.973C193.782 43.163 189.172 52.533 178.772 52.373C178.714 52.8523 178.551 53.3129 178.295 53.7224C178.04 54.1319 177.697 54.4803 177.292 54.743C175.972 55.443 174.202 58.343 172.292 58.213C170.382 58.083 169.082 53.983 168.242 53.363C167.977 53.1233 167.766 52.8299 167.623 52.5023C167.479 52.1748 167.408 51.8205 167.412 51.463C167.412 51.463 154.312 48.643 154.982 34.353L192.872 37.303L194.872 40.973Z" fill="#E7BC94"/>
<path d="M152.742 30.753C151.422 31.193 152.442 28.943 151.792 26.113C151.142 23.283 151.792 19.383 154.502 19.273C157.212 19.163 152.742 30.753 152.742 30.753Z" fill="#E7BC94"/>
<path d="M198.042 37.3729C198.362 38.1729 199.952 38.3129 200.492 35.4729C201.032 32.6329 205.022 26.7029 201.052 25.5329C197.082 24.3629 198.042 37.3729 198.042 37.3729Z" fill="#E7BC94"/>
<path d="M190.042 40.233C194.042 40.563 195.452 43.333 197.462 40.013C199.472 36.693 204.052 23.403 198.172 12.903C192.292 2.40295 179.292 -0.997043 171.742 0.242957C164.192 1.48296 160.992 4.49295 158.482 8.58295C155.972 12.673 153.252 22.713 152.822 28.583C152.392 34.453 153.822 39.683 155.592 40.143C157.362 40.603 160.222 37.473 162.592 37.833C164.962 38.193 166.502 44.413 173.922 45.293C183.912 46.473 187.842 40.053 190.042 40.233Z" fill="#C7A153"/>
<path d="M170.392 4.01301C179.042 3.70301 193.042 10.363 196.902 20.143C200.762 29.923 196.052 41.473 192.902 40.903C194.902 41.643 196.042 42.383 197.482 40.003C199.482 36.693 204.072 23.393 198.192 12.903C192.312 2.41301 179.302 -0.99699 171.762 0.24301C164.222 1.48301 161.012 4.49301 158.502 8.58301C158.03 9.40304 157.609 10.2513 157.242 11.123C158.272 9.15301 161.702 4.30301 170.392 4.01301Z" fill="#B28D47"/>
<path d="M210.042 61.0429C210.042 61.0429 193.502 78.1029 173.952 75.9729C154.402 73.8429 138.402 55.9729 138.402 55.9729C138.402 55.9729 119.762 89.7129 120.972 96.4029L126.522 95.2429C126.409 94.6893 126.465 94.1146 126.682 93.5929C130.042 85.3029 139.242 68.8729 139.242 68.8729C139.242 68.8729 148.822 76.8729 156.242 78.0529C161.072 78.8529 164.772 79.4829 171.052 80.1629C174.362 80.5229 178.382 80.8929 183.662 81.3229C198.972 82.5329 209.832 72.1329 209.832 72.1329L210.042 61.0429Z" fill="#867AB9"/>
<path d="M126.192 94.3031C127.722 93.9731 128.012 100.393 127.502 101.553C126.992 102.713 107.572 107.823 106.702 106.743C105.832 105.663 102.412 97.9031 103.342 96.7431C104.272 95.5831 113.582 94.6631 116.342 94.4931C119.102 94.3231 126.192 94.3031 126.192 94.3031Z" fill="#9F8ED7"/>
<path opacity="0.3" d="M126.192 94.3031C127.722 93.9731 128.012 100.393 127.502 101.553C126.992 102.713 107.572 107.823 106.702 106.743C105.832 105.663 102.412 97.9031 103.342 96.7431C104.272 95.5831 113.582 94.6631 116.342 94.4931C119.102 94.3231 126.192 94.3031 126.192 94.3031Z" fill="#867AB9"/>
<path d="M127.502 101.533C128.012 100.383 127.722 93.963 126.192 94.283C126.192 94.283 123.192 94.2831 120.412 94.3531C120.222 96.9831 123.352 101.773 124.172 102.983C126.042 102.363 127.382 101.833 127.502 101.533Z" fill="#867AB9"/>
<path d="M229.512 58.2229C229.922 55.8423 230.173 53.437 230.262 51.0229C229.692 54.8229 227.862 64.0929 223.522 65.2729C218.052 66.7729 212.962 65.3729 209.992 61.0529C209.992 61.0529 208.892 68.7229 208.262 73.4129C209.262 72.6529 209.772 72.1429 209.772 72.1429C213.982 72.5124 218.214 71.753 222.032 69.9429C225.702 68.0829 228.152 66.4129 229.512 58.2229Z" fill="#867AB9"/>
<defs>
<linearGradient id="paint0_linear" x1="406.638" y1="10.9889" x2="413.512" y2="6.30282" gradientUnits="userSpaceOnUse">
<stop stop-color="#D2A67F"/>
<stop offset="1" stop-color="#E7BC94"/>
</linearGradient>
</defs>
</svg>
