<svg width="350" height="380" viewBox="0 0 350 380" fill="none" xmlns="http://www.w3.org/2000/svg">
<path d="M337.346 116.281H335.042V98.8059H337.346V116.281Z" fill="#8BB032"/>
<path d="M178.751 18.4393H171.43L169.785 23H167.409L174.082 5.52516H176.098L182.783 23H180.419L178.751 18.4393ZM172.126 16.5429H178.067L175.09 8.36962L172.126 16.5429Z" fill="#8BB032"/>
<path d="M175.51 370.813H171.406V377.883H169.089V360.408H174.874C176.843 360.408 178.355 360.856 179.411 361.752C180.475 362.648 181.007 363.952 181.007 365.665C181.007 366.753 180.711 367.701 180.119 368.509C179.535 369.317 178.719 369.921 177.671 370.321L181.775 377.739V377.883H179.303L175.51 370.813ZM171.406 368.929H174.946C176.09 368.929 176.999 368.633 177.671 368.041C178.351 367.449 178.691 366.657 178.691 365.665C178.691 364.584 178.367 363.756 177.719 363.18C177.079 362.604 176.15 362.312 174.934 362.304H171.406V368.929Z" fill="#8BB032"/>
<path d="M5.79694 111.785L6.133 114.09L6.62508 112.013L10.0816 99.8193H12.026L15.3985 112.013L15.8786 114.126L16.2506 111.773L18.9631 99.8193H21.2795L17.0428 117.294H14.9424L11.3418 104.56L11.0658 103.228L10.7898 104.56L7.05715 117.294H4.95681L0.732119 99.8193H3.03649L5.79694 111.785Z" fill="#8BB032"/>
<path d="M10.1936 267.684C8.21726 267.116 6.77703 266.419 5.87288 265.595C4.97674 264.763 4.52866 263.739 4.52866 262.523C4.52866 261.147 5.07675 260.01 6.17293 259.114C7.27711 258.21 8.70934 257.758 10.4696 257.758C11.6698 257.758 12.738 257.99 13.6742 258.454C14.6183 258.918 15.3464 259.558 15.8585 260.374C16.3786 261.191 16.6386 262.083 16.6386 263.051H14.3223C14.3223 261.995 13.9862 261.167 13.3141 260.566C12.642 259.958 11.6938 259.654 10.4696 259.654C9.33345 259.654 8.4453 259.906 7.8052 260.41C7.17309 260.907 6.85704 261.599 6.85704 262.487C6.85704 263.199 7.15709 263.803 7.75719 264.299C8.36529 264.787 9.39346 265.235 10.8417 265.643C12.2979 266.051 13.4341 266.503 14.2502 267C15.0744 267.488 15.6825 268.06 16.0745 268.716C16.4746 269.372 16.6746 270.144 16.6746 271.032C16.6746 272.448 16.1226 273.585 15.0184 274.441C13.9142 275.289 12.438 275.713 10.5897 275.713C9.38946 275.713 8.26927 275.485 7.2291 275.029C6.18893 274.565 5.3848 273.933 4.81671 273.133C4.25662 272.332 3.97657 271.424 3.97657 270.408H6.29295C6.29295 271.464 6.68101 272.3 7.45714 272.916C8.24127 273.525 9.28544 273.829 10.5897 273.829C11.8058 273.829 12.738 273.581 13.3861 273.085C14.0342 272.588 14.3583 271.912 14.3583 271.056C14.3583 270.2 14.0582 269.54 13.4581 269.076C12.858 268.604 11.7698 268.14 10.1936 267.684Z" fill="#8BB032"/>
<path d="M329.81 269.417H325.705V276.486H323.389V259.011H329.174C331.142 259.011 332.654 259.46 333.71 260.356C334.774 261.252 335.307 262.556 335.307 264.268C335.307 265.357 335.011 266.305 334.418 267.113C333.834 267.921 333.018 268.525 331.97 268.925L336.075 276.342V276.486H333.602L329.81 269.417ZM325.705 267.533H329.246C330.39 267.533 331.298 267.237 331.97 266.645C332.65 266.053 332.99 265.261 332.99 264.268C332.99 263.188 332.666 262.36 332.018 261.784C331.378 261.208 330.45 260.916 329.234 260.908H325.705V267.533ZM343.408 274.914C344.2 274.914 344.892 274.674 345.484 274.194C346.076 273.714 346.404 273.114 346.468 272.394H348.569C348.529 273.138 348.273 273.846 347.801 274.518C347.329 275.19 346.696 275.726 345.904 276.126C345.12 276.526 344.288 276.726 343.408 276.726C341.64 276.726 340.231 276.138 339.183 274.962C338.143 273.778 337.623 272.162 337.623 270.113V269.741C337.623 268.477 337.855 267.353 338.319 266.369C338.783 265.385 339.447 264.62 340.311 264.076C341.184 263.532 342.212 263.26 343.396 263.26C344.852 263.26 346.06 263.696 347.02 264.568C347.989 265.441 348.505 266.573 348.569 267.965H346.468C346.404 267.125 346.084 266.437 345.508 265.901C344.94 265.357 344.236 265.084 343.396 265.084C342.268 265.084 341.392 265.493 340.767 266.309C340.151 267.117 339.843 268.289 339.843 269.825V270.245C339.843 271.742 340.151 272.894 340.767 273.702C341.384 274.51 342.264 274.914 343.408 274.914Z" fill="#8BB032"/>
<path d="M39.1082 269.801V115.673L175.618 38.582L312.137 115.673V269.801L175.618 346.892L39.1082 269.801Z" stroke="#8BB032" stroke-width="2"/>
<path d="M58.8965 259.069V127.427L175.618 61.5859L292.348 127.427V259.069L175.618 324.91L58.8965 259.069Z" stroke="#8BB032" stroke-width="2"/>
<path d="M77.8357 248.675V138.6L175.618 83.5327L273.374 138.6V248.675L175.618 303.751L77.8357 248.675Z" stroke="#8BB032" stroke-width="2"/>
<path d="M96.934 237.095V148.717L175.618 104.492L254.311 148.717V237.095L175.618 281.32L96.934 237.095Z" stroke="#8BB032" stroke-width="2"/>
<path d="M116.864 226.531V159.783L175.618 126.399L234.381 159.783V226.531L175.618 259.915L116.864 226.531Z" stroke="#8BB032" stroke-width="2"/>
<path d="M137.475 214.388V171.068L175.618 149.395L213.761 171.068V214.388L175.618 236.053L137.475 214.388Z" stroke="#8BB032" stroke-width="2"/>
<path d="M156.821 203.389V182.033L175.618 171.342L194.424 182.033V203.389L175.618 214.08L156.821 203.389Z" stroke="#8BB032" stroke-width="2"/>
</svg>
