<svg width="333" height="326" viewBox="0 0 333 326" fill="none" xmlns="http://www.w3.org/2000/svg">
<path d="M167.748 26.971C167.397 26.7164 166.923 26.7164 166.572 26.971L21.7823 132.171C21.4318 132.426 21.2852 132.877 21.4191 133.289L76.7191 303.499C76.8529 303.911 77.2369 304.19 77.6701 304.19H256.64C257.073 304.19 257.457 303.911 257.591 303.499L312.901 133.289C313.035 132.877 312.888 132.426 312.538 132.171L167.748 26.971Z" stroke="#E21900" stroke-width="2" stroke-miterlimit="10" stroke-linejoin="round"/>
<path d="M167.748 49.551C167.397 49.2963 166.923 49.2963 166.572 49.551L42.6122 139.611C42.2617 139.866 42.115 140.317 42.2489 140.729L89.5989 286.459C89.7328 286.871 90.1167 287.15 90.55 287.15H243.77C244.203 287.15 244.587 286.871 244.721 286.459L292.071 140.729C292.205 140.317 292.058 139.866 291.708 139.611L167.748 49.551Z" stroke="#E21900" stroke-width="2" stroke-miterlimit="10" stroke-linejoin="round"/>
<path d="M167.748 71.2709C167.397 71.0163 166.923 71.0163 166.572 71.2709L63.5721 146.101C63.2217 146.356 63.075 146.807 63.2088 147.219L102.549 268.309C102.683 268.721 103.067 269 103.5 269H230.82C231.253 269 231.637 268.721 231.771 268.309L271.111 147.219C271.245 146.807 271.098 146.356 270.748 146.101L167.748 71.2709Z" stroke="#E21900" stroke-width="2" stroke-miterlimit="10" stroke-linejoin="round"/>
<path d="M167.748 91.7509C167.397 91.4963 166.923 91.4963 166.572 91.7509L83.6422 152.001C83.2917 152.256 83.145 152.707 83.2789 153.119L114.959 250.599C115.093 251.011 115.477 251.29 115.91 251.29H218.41C218.843 251.29 219.227 251.011 219.361 250.599L251.031 153.119C251.165 152.707 251.018 152.256 250.668 152.001L167.748 91.7509Z" stroke="#E21900" stroke-width="2" stroke-miterlimit="10" stroke-linejoin="round"/>
<path d="M167.748 114.541C167.397 114.286 166.923 114.286 166.572 114.541L104.702 159.491C104.352 159.746 104.205 160.197 104.339 160.609L127.969 233.329C128.103 233.741 128.487 234.02 128.92 234.02H205.39C205.823 234.02 206.207 233.741 206.341 233.329L229.971 160.609C230.105 160.197 229.958 159.746 229.608 159.491L167.748 114.541Z" stroke="#E21900" stroke-width="2" stroke-miterlimit="10" stroke-linejoin="round"/>
<path d="M167.748 136.081C167.397 135.826 166.923 135.826 166.572 136.081L125.342 166.031C124.992 166.286 124.845 166.737 124.979 167.149L140.729 215.629C140.863 216.041 141.247 216.32 141.68 216.32H192.64C193.073 216.32 193.457 216.041 193.591 215.629L209.341 167.149C209.475 166.737 209.328 166.286 208.978 166.031L167.748 136.081Z" stroke="#E21900" stroke-width="2" stroke-miterlimit="10" stroke-linejoin="round"/>
<path d="M167.748 157.591C167.397 157.336 166.923 157.336 166.572 157.591L145.732 172.741C145.382 172.996 145.235 173.447 145.369 173.859L153.329 198.359C153.463 198.771 153.847 199.05 154.28 199.05H180.04C180.473 199.05 180.857 198.771 180.991 198.359L188.951 173.859C189.085 173.447 188.938 172.996 188.588 172.741L167.748 157.591Z" stroke="#E21900" stroke-width="2" stroke-miterlimit="10" stroke-linejoin="round"/>
<path d="M161.67 18V4.17035H166.434C167.51 4.17035 168.331 4.23639 168.897 4.36846C169.689 4.55084 170.365 4.88102 170.925 5.35898C171.654 5.97531 172.198 6.76459 172.557 7.72682C172.922 8.68275 173.104 9.77705 173.104 11.0097C173.104 12.06 172.981 12.9908 172.736 13.8021C172.491 14.6133 172.176 15.2863 171.793 15.8208C171.409 16.3491 170.988 16.7673 170.529 17.0755C170.076 17.3774 169.525 17.6069 168.878 17.7642C168.236 17.9214 167.497 18 166.661 18H161.67ZM163.501 16.368H166.453C167.365 16.368 168.079 16.2831 168.595 16.1133C169.117 15.9435 169.532 15.7045 169.84 15.3963C170.274 14.9624 170.61 14.3806 170.849 13.6511C171.095 12.9153 171.217 12.0254 171.217 10.9814C171.217 9.53492 170.978 8.4249 170.5 7.65135C170.029 6.8715 169.453 6.34951 168.774 6.08537C168.283 5.8967 167.494 5.80236 166.406 5.80236H163.501V16.368Z" fill="#E21900"/>
<path d="M62.6787 320.88V307.05H68.8106C70.0432 307.05 70.9803 307.176 71.6218 307.428C72.2633 307.673 72.7758 308.11 73.1594 308.739C73.5431 309.368 73.7349 310.063 73.7349 310.824C73.7349 311.805 73.4173 312.632 72.7821 313.305C72.1469 313.978 71.1658 314.405 69.8388 314.588C70.3231 314.82 70.691 315.05 70.9425 315.276C71.4771 315.767 71.9834 316.38 72.4614 317.116L74.8669 320.88H72.5651L70.735 318.003C70.2004 317.173 69.7602 316.537 69.4143 316.097C69.0684 315.657 68.7571 315.349 68.4804 315.173C68.21 314.997 67.9332 314.874 67.6502 314.805C67.4427 314.761 67.1031 314.739 66.6314 314.739H64.5088V320.88H62.6787ZM64.5088 313.154H68.4426C69.2791 313.154 69.9332 313.069 70.4048 312.899C70.8765 312.723 71.235 312.446 71.4803 312.069C71.7255 311.685 71.8482 311.27 71.8482 310.824C71.8482 310.17 71.6092 309.632 71.1312 309.211C70.6595 308.789 69.9111 308.579 68.886 308.579H64.5088V313.154Z" fill="#E21900"/>
<path d="M1.49051 117.67V103.84H6.70729C7.62549 103.84 8.32672 103.884 8.81098 103.972C9.4902 104.086 10.0594 104.303 10.5185 104.623C10.9776 104.938 11.3455 105.381 11.6222 105.954C11.9052 106.526 12.0467 107.155 12.0467 107.84C12.0467 109.016 11.6725 110.013 10.9241 110.831C10.1757 111.642 8.82355 112.048 6.86766 112.048H3.32062V117.67H1.49051ZM3.32062 110.416H6.89596C8.0783 110.416 8.91789 110.195 9.41473 109.755C9.91156 109.315 10.16 108.696 10.16 107.897C10.16 107.318 10.0122 106.825 9.7166 106.416C9.4273 106.001 9.04367 105.727 8.5657 105.595C8.25754 105.513 7.68838 105.472 6.85822 105.472H3.32062V110.416ZM13.7542 113.227L15.4805 113.076C15.5623 113.768 15.751 114.337 16.0465 114.783C16.3484 115.224 16.8138 115.582 17.4427 115.859C18.0716 116.129 18.7791 116.264 19.5653 116.264C20.2634 116.264 20.8797 116.161 21.4143 115.953C21.9488 115.746 22.345 115.463 22.6029 115.104C22.867 114.739 22.9991 114.343 22.9991 113.915C22.9991 113.482 22.8733 113.104 22.6218 112.783C22.3702 112.456 21.9551 112.183 21.3765 111.963C21.0055 111.818 20.1847 111.595 18.9144 111.293C17.644 110.985 16.7541 110.695 16.2446 110.425C15.5843 110.079 15.0906 109.651 14.7636 109.142C14.4428 108.626 14.2825 108.051 14.2825 107.416C14.2825 106.718 14.4806 106.067 14.8768 105.463C15.273 104.853 15.8516 104.391 16.6126 104.076C17.3735 103.762 18.2194 103.605 19.1502 103.605C20.1753 103.605 21.0778 103.771 21.8576 104.105C22.6438 104.432 23.2475 104.916 23.6689 105.557C24.0903 106.199 24.3167 106.925 24.3481 107.736L22.5935 107.869C22.4991 106.994 22.1784 106.334 21.6312 105.887C21.0904 105.441 20.2885 105.218 19.2257 105.218C18.1188 105.218 17.3106 105.422 16.8012 105.831C16.2981 106.233 16.0465 106.721 16.0465 107.293C16.0465 107.79 16.2258 108.199 16.5843 108.519C16.9364 108.84 17.8546 109.17 19.3389 109.51C20.8294 109.843 21.8513 110.136 22.4048 110.387C23.2098 110.758 23.8041 111.23 24.1877 111.802C24.5714 112.368 24.7632 113.022 24.7632 113.765C24.7632 114.5 24.5525 115.195 24.1311 115.849C23.7098 116.497 23.1029 117.003 22.3104 117.368C21.5243 117.727 20.6376 117.906 19.6502 117.906C18.3987 117.906 17.3484 117.724 16.4994 117.359C15.6566 116.994 14.9931 116.447 14.5089 115.717C14.0309 114.981 13.7793 114.151 13.7542 113.227ZM26.6405 113.227L28.3668 113.076C28.4486 113.768 28.6372 114.337 28.9328 114.783C29.2347 115.224 29.7001 115.582 30.329 115.859C30.9579 116.129 31.6654 116.264 32.4516 116.264C33.1496 116.264 33.766 116.161 34.3005 115.953C34.8351 115.746 35.2313 115.463 35.4892 115.104C35.7533 114.739 35.8854 114.343 35.8854 113.915C35.8854 113.482 35.7596 113.104 35.508 112.783C35.2565 112.456 34.8414 112.183 34.2628 111.963C33.8918 111.818 33.071 111.595 31.8006 111.293C30.5303 110.985 29.6404 110.695 29.1309 110.425C28.4706 110.079 27.9769 109.651 27.6499 109.142C27.3291 108.626 27.1687 108.051 27.1687 107.416C27.1687 106.718 27.3669 106.067 27.7631 105.463C28.1593 104.853 28.7379 104.391 29.4988 104.076C30.2598 103.762 31.1057 103.605 32.0365 103.605C33.0616 103.605 33.9641 103.771 34.7439 104.105C35.5301 104.432 36.1338 104.916 36.5552 105.557C36.9765 106.199 37.2029 106.925 37.2344 107.736L35.4797 107.869C35.3854 106.994 35.0647 106.334 34.5175 105.887C33.9767 105.441 33.1748 105.218 32.112 105.218C31.0051 105.218 30.1969 105.422 29.6875 105.831C29.1844 106.233 28.9328 106.721 28.9328 107.293C28.9328 107.79 29.1121 108.199 29.4705 108.519C29.8227 108.84 30.7409 109.17 32.2252 109.51C33.7157 109.843 34.7376 110.136 35.2911 110.387C36.0961 110.758 36.6904 111.23 37.074 111.802C37.4577 112.368 37.6495 113.022 37.6495 113.765C37.6495 114.5 37.4388 115.195 37.0174 115.849C36.5961 116.497 35.9892 117.003 35.1967 117.368C34.4106 117.727 33.5238 117.906 32.5365 117.906C31.2849 117.906 30.2347 117.724 29.3856 117.359C28.5429 116.994 27.8794 116.447 27.3952 115.717C26.9172 114.981 26.6656 114.151 26.6405 113.227Z" fill="#E21900"/>
<path d="M315.042 117.67V103.84H316.872V117.67H315.042ZM319.485 113.227L321.211 113.076C321.293 113.768 321.482 114.337 321.777 114.783C322.079 115.224 322.545 115.582 323.174 115.859C323.802 116.129 324.51 116.264 325.296 116.264C325.994 116.264 326.611 116.161 327.145 115.953C327.68 115.746 328.076 115.463 328.334 115.104C328.598 114.739 328.73 114.343 328.73 113.915C328.73 113.482 328.604 113.104 328.353 112.783C328.101 112.456 327.686 112.183 327.107 111.963C326.736 111.818 325.916 111.595 324.645 111.293C323.375 110.985 322.485 110.695 321.975 110.425C321.315 110.079 320.821 109.651 320.494 109.142C320.174 108.626 320.013 108.051 320.013 107.416C320.013 106.718 320.211 106.067 320.608 105.463C321.004 104.853 321.582 104.391 322.343 104.076C323.104 103.762 323.95 103.605 324.881 103.605C325.906 103.605 326.809 103.771 327.588 104.105C328.375 104.432 328.978 104.916 329.4 105.557C329.821 106.199 330.048 106.925 330.079 107.736L328.324 107.869C328.23 106.994 327.909 106.334 327.362 105.887C326.821 105.441 326.019 105.218 324.957 105.218C323.85 105.218 323.041 105.422 322.532 105.831C322.029 106.233 321.777 106.721 321.777 107.293C321.777 107.79 321.957 108.199 322.315 108.519C322.667 108.84 323.585 109.17 325.07 109.51C326.56 109.843 327.582 110.136 328.136 110.387C328.941 110.758 329.535 111.23 329.919 111.802C330.302 112.368 330.494 113.022 330.494 113.765C330.494 114.5 330.283 115.195 329.862 115.849C329.441 116.497 328.834 117.003 328.041 117.368C327.255 117.727 326.368 117.906 325.381 117.906C324.13 117.906 323.079 117.724 322.23 117.359C321.387 116.994 320.724 116.447 320.24 115.717C319.762 114.981 319.51 114.151 319.485 113.227Z" fill="#E21900"/>
<path d="M269.679 317.295H263.924L262.632 320.88H260.764L266.009 307.145H267.594L272.849 320.88H270.99L269.679 317.295ZM264.472 315.805H269.141L266.802 309.38L264.472 315.805Z" fill="#E21900"/>
</svg>
