<svg width="249" height="322" viewBox="0 0 249 322" fill="none" xmlns="http://www.w3.org/2000/svg">
<path d="M44.45 201C45.56 205.06 48.33 221.73 46.45 224.32C44.57 226.91 40.1 238 42.36 256.1C44.62 274.2 44.9 284.5 44.15 289.02C43.47 293.09 41.06 298.24 41.73 301.21C42.4 304.18 58.01 314.67 68.56 312.45C68.56 312.45 63.56 309.15 57.64 301.5C51.37 293.35 55.81 271.9 56.94 263.59C58.07 255.28 67.25 228.24 66.39 222.25C65.53 216.26 65.53 211.58 64.06 183.61L44.45 201Z" fill="#E7BC94"/>
<path d="M42.19 296.3C41.0839 297.974 40.3353 299.859 39.9911 301.836C39.647 303.813 39.7147 305.84 40.19 307.79C41.0961 311.275 41.6423 314.844 41.82 318.44C41.8587 319.383 42.26 320.274 42.94 320.928C43.6201 321.582 44.5265 321.948 45.47 321.95H66.53C73.62 321.95 76.67 319.32 75.26 316.55C74.35 314.71 70.6 312.77 67.95 311.61C67.91 311.61 57 316.1 42.19 296.3Z" fill="#5874CB"/>
<path d="M38.46 185.49C43.46 203.29 46.53 213.36 44.53 217.49C42.93 220.76 38.8 233.98 38.53 266.28C38.46 274.54 36.39 286.78 37.34 297.19C44.3212 300.771 52.3203 301.848 60 300.24C60 300.24 58.49 253.64 63.39 238.65C68.29 223.66 69.77 205.07 68.78 182.73C68.4 174.35 68.98 158.73 63.68 159.91C54.85 161.81 38.46 185.49 38.46 185.49Z" fill="#C2C5D3"/>
<path d="M34.27 191.13C34.2 195.42 34.79 218.02 32.27 220.01C29.75 222 22.13 231.58 19.2 249.94C16.27 268.3 14.05 279.21 12.2 283C10.27 287 5.97004 290.74 5.79004 293.83C5.61004 296.92 17.89 311.6 28.79 312.43C26.4717 308.358 24.4659 304.116 22.79 299.74C18.93 290.09 27.86 269.18 31.29 261.38C34.72 253.58 51.87 228.16 52.71 222.06C53.55 215.96 59.71 192.92 59.71 192.92L34.27 191.13Z" fill="#E7BC94"/>
<path d="M7.62999 289.14C6.0662 290.464 4.7914 292.095 3.88479 293.932C2.97819 295.769 2.45917 297.774 2.35999 299.82C2.24004 303.5 1.75092 307.158 0.899989 310.74C0.673886 311.654 0.809858 312.62 1.27948 313.437C1.74911 314.253 2.51604 314.856 3.41999 315.12L24.08 321.12C31 323.12 34.72 321.42 34.15 318.34C33.76 316.27 30.67 313.34 28.39 311.42C28.39 311.42 16.47 312.7 7.62999 289.14Z" fill="#758FE3"/>
<path d="M31.29 162.52C31.71 181 33.71 214.43 29.55 220.01C22.86 229.01 21.43 235.39 11.97 270.5C10.58 275.62 5.87001 285.92 4.26001 292.14C10.1232 297.348 17.5959 300.388 25.43 300.75C25.43 300.75 36.38 256.44 44.86 243.14C53.34 229.84 57.56 210.85 62.16 188.96C63.16 183.96 66.62 166.96 64.42 163.61C56.91 152.26 31.29 162.52 31.29 162.52Z" fill="#DBDEE6"/>
<path d="M39.48 244.09C38.97 250.21 38.61 257.51 38.54 266.26C38.48 274.52 36.41 286.75 37.36 297.17C41.0137 299.064 44.9817 300.277 49.07 300.75L49.15 258.98C49.15 258.98 52.23 237.3 55.08 211.09L39.48 244.09Z" fill="#DBDEE6"/>
<path opacity="0.5" d="M41.61 227.76C39.34 230.36 21.48 281.55 15.51 298.76C18.6886 299.952 22.0377 300.627 25.43 300.76C25.43 300.76 36.38 256.44 44.86 243.14C53.34 229.84 57.57 210.85 62.16 188.97C63.16 183.97 66.62 166.97 64.42 163.62C64.1511 163.269 63.8605 162.935 63.55 162.62L50.93 164.8C47.43 196.17 44.33 224.64 41.61 227.76Z" fill="#C2C5D3"/>
<path d="M184.52 158.27C184.08 161.5 182.63 170.45 184.52 173.12C186.41 175.79 191.61 181.12 193.45 180.67C195.29 180.22 193.98 159.67 193.98 159.67L184.52 158.27Z" fill="#E7BC94"/>
<path d="M187.66 101.3L183.57 160.67C183.57 160.67 188.95 166.37 194.46 164.33L187.66 101.3Z" fill="#B0B35E"/>
<path d="M120.77 114.78C119.06 115.78 112.89 115.46 112.89 115.46C112.89 115.46 111.41 121.77 112.56 124.1C112.56 124.1 118.8 124.24 120.64 124.9C122.48 125.56 120.77 114.78 120.77 114.78Z" fill="#E7BC94"/>
<path d="M127 129.36C125.08 129.99 124.2 129.29 124.2 129.29C124.2 129.29 121.48 129.86 121.2 128.14C121.2 128.14 119.2 128.46 118.98 126.01C118.98 126.01 117.66 125.13 117.86 124.23C118.06 123.33 118.58 122.87 120.13 122.36C121.68 121.85 126.64 114.24 127.35 113.52C128.06 112.8 131.18 111.52 132.35 111.25C133.52 110.98 138.35 114.5 144.76 114.25C144.76 114.25 147.21 116.76 146.1 122.16C146.1 122.16 140.86 122.07 138.15 125.55C135.44 129.03 127 129.36 127 129.36Z" fill="#E7BC94"/>
<path opacity="0.2" d="M127 129.36C125.08 129.99 124.2 129.29 124.2 129.29C124.2 129.29 121.48 129.86 121.2 128.14C121.2 128.14 119.2 128.46 118.98 126.01C118.98 126.01 117.66 125.13 117.86 124.23C118.06 123.33 118.58 122.87 120.13 122.36C121.68 121.85 126.64 114.24 127.35 113.52C128.06 112.8 131.18 111.52 132.35 111.25C133.52 110.98 138.35 114.5 144.76 114.25C144.76 114.25 147.21 116.76 146.1 122.16C146.1 122.16 140.86 122.07 138.15 125.55C135.44 129.03 127 129.36 127 129.36Z" fill="#E7BC94"/>
<path d="M119.06 115.79C121.5 114.85 124.25 111.18 125.7 111.32C127.15 111.46 127.7 111.99 128.95 112.26C130.048 112.396 131.116 112.714 132.11 113.2C133.26 113.84 135.05 114.76 134.98 115.2C134.91 115.64 131.89 116.89 128.18 115.36C127.432 115.942 126.628 116.448 125.78 116.87C125.78 116.87 126.31 120.72 120.1 122.37C120.1 122.36 116.21 118.16 119.06 115.79Z" fill="#E7BC94"/>
<path d="M126.29 130.12C125.29 129.91 125.36 128.85 126.41 127.59C127.46 126.33 128.97 123.51 130.7 124.44C130.7 124.44 131.85 122.03 133.63 122.44C133.63 122.44 135.05 119.34 137.15 121.31C137.15 121.31 138.71 120.4 139.26 121.47C139.81 122.54 137.8 126.25 137.09 127.36C136.4 128.118 135.466 128.61 134.45 128.75C134.45 128.75 133.79 129.75 131.37 129.54C130.973 129.933 130.457 130.182 129.902 130.247C129.347 130.313 128.787 130.19 128.31 129.9C128.012 130.087 127.675 130.204 127.325 130.242C126.975 130.28 126.621 130.238 126.29 130.12V130.12Z" fill="#E7BC94"/>
<path d="M112.15 114.69H115.15C115.15 114.69 115.51 122.8 114.67 125.17C113.48 125.156 112.302 124.933 111.19 124.51C110.19 123.93 112.15 114.69 112.15 114.69Z" fill="#F6F2E1"/>
<path d="M111.62 125.52C111.62 125.52 113.55 116.77 112.62 113.42C112.62 113.42 84.62 108.83 78.3 106.34C78.3 106.34 64.16 84.34 58.21 77.6C53.4 72.14 45.4 64.01 37.55 69.31C29.7 74.61 40.2699 89.55 52.7899 102.12C65.3099 114.69 71.05 119.63 74.47 120.64C77.89 121.65 111.62 125.52 111.62 125.52Z" fill="#758FE3"/>
<path d="M112.56 120C109.38 119.67 78.6199 116.23 75.7299 115.55C71.2599 114.49 46.4199 94.04 39.1799 85.68C43.1464 91.6043 47.7176 97.1005 52.8199 102.08C65.3399 114.65 71.0799 119.6 74.4999 120.61C77.9199 121.62 111.62 125.49 111.62 125.49C111.828 123.643 112.142 121.81 112.56 120V120Z" fill="#5874CB"/>
<path d="M144.55 110.18L140.72 111.53C140.72 111.53 143.43 121.82 145.58 124.3L150.83 122.38L144.55 110.18Z" fill="#F6F2E1"/>
<path d="M200.05 301.82C201.8 303.48 217.61 300.82 218.31 302.76C219.01 304.7 220.21 310.24 218.99 313.25C218.99 313.25 219.73 313.93 219.15 315.49C218.57 317.05 214.6 317.6 209.48 317.74C204.36 317.88 173.75 321.46 172 316.09C171.4 314.25 170.5 310.28 174.29 310.69C178.08 311.1 186.77 308.97 188.78 307.85C190.79 306.73 195.1 304.85 196.87 303.24C198.64 301.63 199.33 301.17 200.05 301.82Z" fill="#4A3E36"/>
<path d="M228.79 304.69C230.55 306.46 246.03 304.14 246.79 306.2C247.55 308.26 248.88 314 247.79 317.08C248.04 317.407 248.193 317.798 248.234 318.207C248.275 318.617 248.2 319.03 248.02 319.4C247.51 321 243.61 321.45 238.58 321.4C233.55 321.35 203.23 323.8 201.58 318.61C200.96 316.69 199.93 312.61 203.67 313.1C207.41 313.59 215.99 311.66 217.93 310.55C219.87 309.44 224.06 307.61 225.77 306.02C227.48 304.43 228.06 304 228.79 304.69Z" fill="#5E5046"/>
<path d="M226.25 140.58C226.35 151 222.25 173.1 221.96 175.58C221.67 178.06 220.87 195.84 221.74 214.58C222.61 233.32 221.38 286.67 220.05 304.24C220.05 304.24 212.12 307.4 196.71 302.71C196.71 302.71 200.71 247.56 197.9 231.77C195.09 215.98 191.52 155.15 191.08 139.77L226.25 140.58Z" fill="#4B4A7D"/>
<path d="M232.34 144.14C237.41 159.83 233.34 171.89 233.34 174.42C233.34 176.95 235.51 199.13 238.81 217.54C242.11 235.95 246.76 289.02 247.73 306.62C247.73 306.62 240.41 308.78 224.55 306.62C224.55 306.62 222.35 253.55 217.48 238.39C212.61 223.23 198.11 154.95 195.66 139.79L232.34 144.14Z" fill="#5D6094"/>
<path opacity="0.5" d="M247.72 306.62C246.72 289.02 242.1 235.95 238.79 217.54C235.48 199.13 233.32 176.93 233.32 174.42C233.32 171.91 237.41 159.83 232.32 144.14L228.02 143.63L215.31 158.27C217.67 167.12 227.22 220.69 228.13 222.56C228.97 224.27 236.56 296.17 237.75 307.56C241.099 307.654 244.447 307.338 247.72 306.62Z" fill="#4B4A7D"/>
<path opacity="0.5" d="M199.75 149.81L191.31 146C192.25 167.37 195.31 217.7 197.9 231.85C200.74 247.63 196.71 302.78 196.71 302.78C200.614 303.992 204.637 304.784 208.71 305.14V244C208.71 244 206.95 194.95 203.02 176.74L199.75 149.81Z" fill="#5D6094"/>
<path d="M183.9 26.26C184.84 25.17 186.5 23.12 185.67 21.26C185.16 20.17 184.94 20.49 185.86 17.32C187.47 11.55 193.09 9.57998 194.1 8.53998L194.66 9.67998C196.16 6.99998 198.05 4.88998 200.49 4.47998C205.93 3.57998 213.88 8.79998 217.38 12.48C220.88 16.16 217.06 23.29 213.07 30.66C210.19 35.91 212.85 40.52 213.39 41.93C212.16 42.35 200.39 53.81 200.39 53.81C199.516 52.0138 198.742 50.1711 198.07 48.29C197.85 47.63 197.22 47.53 196.75 46.7C196.28 45.87 196.44 44.06 195.95 43.3L195.65 42.88C194.637 42.6103 193.586 42.5089 192.54 42.58C190.77 42.64 187.38 43.29 186.13 42.31C184.88 41.33 185.68 38.63 185.61 37.93C185.54 37.23 184.69 37.29 183.97 36.55C183.25 35.81 184.39 34.72 184.39 34.72C184.08 34.42 183.07 33.35 183.64 32.86C184.39 32.22 185.44 31.42 183.04 30.1C180.88 29 182.46 28 183.9 26.26Z" fill="#E7BC94"/>
<path d="M220.16 16C217.78 8.62 212.76 1.28 204.16 0.999996C195.56 0.719996 192.28 5.28 187 3C187 3 182 9.51 188.12 13.26C188.94 14.26 191.12 15.26 196.93 14.88C202.22 14.52 201.81 23.11 202.62 25.41C203.51 27.94 202.99 19.08 208 20.77C211.7 22.02 209.76 27.95 208.62 30.84C207.76 33.03 211.62 36.92 211.62 36.92L211.49 38.92L216.24 33.6C216.24 33.6 222.56 23.4 220.16 16Z" fill="#AB864E"/>
<path opacity="0.3" d="M216.2 33.52C216.2 33.52 222.56 23.4 220.2 16.01C219.615 14.2529 218.879 12.5498 218 10.92C218 11.07 217.91 15.12 215.78 16.62C213.65 18.12 209.94 19.85 200.34 16.62V16.69C202 19.26 202.02 23.79 202.58 25.37C203.47 27.9 202.95 19.04 207.96 20.73C211.66 21.98 209.72 27.92 208.58 30.8C207.72 33 211.58 36.88 211.58 36.88L211.45 38.88L216.2 33.52Z" fill="#AB864E"/>
<path d="M214.7 38.84L215.32 40.15C220.69 42.66 230.63 53.81 230.92 66.35C231.08 73.04 230.66 88.9 231.29 105.54C231.82 119.6 232.95 127.66 234.39 134.96C235.67 141.46 237.93 156.96 237.93 156.96C237.93 156.96 228.51 162.55 208.93 162.53C192.81 162.53 190.07 160.89 190.07 160.89C190.07 160.89 187.69 112.47 187.69 101.33C187.69 79.39 189.03 72.68 195.86 58.78C196.61 57.14 214.25 37.89 214.7 38.84Z" fill="#C8C762"/>
<g opacity="0.3">
<path opacity="0.3" d="M207 32.2C207 32.2 208.4 39.35 196.29 44.41C196.248 44.0371 196.139 43.6748 195.97 43.34L195.68 42.92C194.663 42.6508 193.609 42.5495 192.56 42.62C192.56 42.62 206.13 39.31 207 32.2Z" fill="#E7BC94"/>
</g>
<path d="M187.77 107.3C187.88 111.36 188.06 116.55 188.29 122.11C195.84 114.3 216.29 92.11 223.53 74.42C227.12 65.57 200.59 93.2 187.77 107.3Z" fill="#B0B35E"/>
<path d="M218.34 44.41C213.9 45.33 202.86 52.8 197.99 64.5C194.26 73.5 180.61 93.85 180.61 93.85L143.35 109.38C144.157 114.559 145.902 119.547 148.5 124.1C148.5 124.1 182.15 114.4 186.5 113.59C192.13 112.53 225.72 72.38 225.72 72.38L218.34 44.41Z" fill="#C8C762"/>
<path d="M213.54 36.49C213.54 36.49 201.19 41.4 196.54 52.07C196.23 52.77 196.61 57.14 195.83 58.75C194.216 61.9561 192.777 65.2477 191.52 68.61C194.55 62.6703 198.197 57.0661 202.4 51.89C206.185 47.4348 210.531 43.4887 215.33 40.15C215.33 40.15 213.8 36.91 213.54 36.49Z" fill="#F6F2E1"/>
<path d="M62.78 22.14C64.6 23.3 66.57 26.75 67 29.7C67.43 32.65 67.21 32.89 66.77 33.87C66.05 35.52 67.77 36.87 68.67 37.87C70.06 39.38 71.78 40.57 69.8 41.64C67.58 42.84 68.33 43.71 69.06 44.3C69.6 44.74 68.7 45.7 68.43 45.98C68.43 45.98 69.56 46.98 68.88 47.62C68.2 48.26 67.39 48.25 67.37 48.88C67.35 49.51 68.18 51.93 67.02 52.88C65.86 53.83 62.7 53.23 61.02 53.2C58.9893 53.2637 57.0386 54.0067 55.48 55.31C54.67 56.06 55.91 57.46 55.22 58.12C51.76 61.46 47.48 62.34 42.22 55.79C40.22 53.32 43.07 46.88 43.22 46.7C43.37 46.52 54.48 30.8 54.48 30.8L62.78 22.14Z" fill="#E7BC94"/>
<path d="M35.63 50C35.63 50 41.81 51.58 41.63 54.22C41.29 58.63 38.63 65.98 37.28 66.16C35.06 66.45 65.39 81.62 61.34 75.16C58.14 70.02 58.73 68.26 56.54 62.4C56.19 61.4 54.54 59.61 55.24 58.06C59.86 47.3 63.31 26.9 63.31 26.9L54.42 22.19C54.42 22.19 31.42 33.68 31.93 33.78C32.44 33.88 35.63 50 35.63 50Z" fill="#E7BC94"/>
<path d="M63.93 23.17C63.71 20.71 57.36 13.9 48.13 13.48C38.9 13.06 32.66 17.87 29.13 27.96C29.13 27.96 27.13 33.96 28.88 39.27C30.33 43.9 34.88 49.17 38.32 52.48C39.5659 53.6599 40.5622 55.0779 41.25 56.65C42.92 56.37 48.76 48.33 48.47 45.47C48.4 44.95 46.41 47.57 46.15 45.24C46.0364 44.3853 45.7478 43.5631 45.3022 42.825C44.8566 42.0869 44.2635 41.4486 43.56 40.95C43.157 40.4026 42.9177 39.7521 42.8699 39.0741C42.8221 38.3961 42.9678 37.7185 43.29 37.12C44.41 35.01 47.29 35.4 48 36.06C48.71 36.72 49.6 37.74 49.6 37.74C49.6 37.74 52.32 36.18 52.6 34.65C52.88 33.12 52.5 30.48 54.26 29.86C56.6073 29.127 58.7931 27.9527 60.7 26.4C61.8899 25.4429 62.9729 24.36 63.93 23.17V23.17Z" fill="#755640"/>
<path d="M61 53.15C61 53.15 53.55 53.45 57.1 63.66C60.65 73.87 42.51 61.58 42.51 61.58L53.42 49.72L61 53.15Z" fill="#E7BC94"/>
<g opacity="0.3">
<g opacity="0.3">
<path opacity="0.3" d="M51 47.35C50.4 51.84 56.76 56 56.77 56.01C57.1674 55.2272 57.7545 54.5563 58.4776 54.0585C59.2007 53.5607 60.0369 53.2518 60.91 53.16H61C61.36 53.16 61.81 53.16 62.29 53.24C51.6 52.51 51 47.94 51 47.35Z" fill="#E7BC94"/>
</g>
</g>
<path d="M33.22 22.27C32.48 17.86 30.22 15.05 26.36 16C22.5 16.95 18.29 19.26 17.77 26.29C17.21 33.95 25.91 37.95 29.51 33.15C31.7441 29.9438 33.0299 26.1732 33.22 22.27V22.27Z" fill="#755640"/>
<path d="M48.45 45.47C48.38 44.95 46.45 47.57 46.13 45.24C46.0198 44.3856 45.7326 43.5637 45.2866 42.8267C44.8406 42.0897 44.2457 41.4539 43.54 40.96C43.1372 40.4106 42.8982 39.7585 42.8504 39.079C42.8026 38.3995 42.9481 37.7203 43.27 37.12C27.05 42.69 31.88 23.86 31.88 23.86C30.3511 26.1129 28.5055 28.1337 26.4 29.86C23.7 31.77 17.87 26.33 19.28 20.86C18.3822 22.5113 17.8662 24.3429 17.77 26.22C17.27 33.07 24.15 36.94 28.19 34.22C28.157 35.8881 28.383 37.5512 28.86 39.15C30.31 43.78 34.86 49.05 38.31 52.36C39.5486 53.544 40.541 54.9611 41.23 56.53C42.91 56.37 48.75 48.33 48.45 45.47Z" fill="#64452D"/>
<path d="M69.91 130.63C51.82 130.63 44.5 92.03 44.5 92.03L69.89 116.29C69.71 118.73 69.77 124 69.91 130.63Z" fill="url(#paint0_linear)"/>
<path d="M39.73 60.25L40.66 55.51C40.66 55.51 52.3 59.71 55.52 62.09C58.74 64.47 58.42 68.66 58.42 68.66L39.73 60.25Z" fill="#F6F2E1"/>
<path d="M30.5999 135.16C30.2499 142.79 28.0499 162.22 27.3699 170.48C27.4999 170.53 37.2799 174.3 70.2999 173C70.2999 171.19 70.2999 169.3 70.2999 167.2C70.2999 149.41 69.8199 120.28 69.9199 115.71C70.6699 80 58.3999 68.66 58.3999 68.66L40.8499 59.47C40.8499 59.47 26.5199 67.56 27.1499 94.35C27.3999 104.26 31.4699 115.66 30.5999 135.16Z" fill="#758FE3"/>
<path d="M27.37 170.48C27.5 170.53 37.28 174.3 70.3 173C70.3 171.19 70.3 169.3 70.3 167.2C70.3 164.46 70.3 161.42 70.24 158.27L47.56 154.46C47.56 154.46 41.68 108.46 44.48 98.59C44.48 98.59 36.6 97.84 27.38 97.88C28.27 107.02 31.38 117.88 30.58 135.16C30.25 142.79 28.05 162.23 27.37 170.48Z" fill="#5874CB"/>
<path d="M17.7853 155.012L13.4146 184.682C13.3912 184.84 13.5008 184.988 13.6592 185.011L56.121 191.266C56.2794 191.289 56.4268 191.18 56.4501 191.021L60.8208 161.352C60.8442 161.193 60.7346 161.046 60.5762 161.022L18.1144 154.767C17.956 154.744 17.8086 154.854 17.7853 155.012Z" fill="#DB4B51"/>
<path d="M17.7656 154.997L15.9563 167.295C15.933 167.453 16.0425 167.6 16.201 167.624L58.6638 173.871C58.8223 173.895 58.9696 173.785 58.9929 173.627L60.8023 161.329C60.8256 161.171 60.7161 161.023 60.5576 161L18.0948 154.752C17.9363 154.729 17.789 154.838 17.7656 154.997Z" fill="#C73D42"/>
<path d="M38.58 62.09C28.16 67.69 26.3399 86.46 24.3299 109.22C22.3199 131.98 22.05 131.68 24.51 142.41C26.97 153.14 33.4 174.08 32.66 177.67C31.92 181.26 31.3899 187.67 35.5299 189.67C41.0599 192.33 48.3199 191.08 47.1199 189.88C45.6699 188.43 43.23 185.65 43.02 184C42.89 183 47.84 189 48.69 187.28C48.2703 186.376 47.7682 185.512 47.19 184.7C46.01 182.7 44.6399 180.31 43.8399 179.76C42.6535 179.009 41.6316 178.026 40.8358 176.869C40.04 175.712 39.4869 174.406 39.21 173.03C38.3 169.63 36.88 139.08 35.6 132.03L47.5299 87.21C47.5299 87.21 53.4399 71.23 38.58 62.09Z" fill="#E7BC94"/>
<path d="M30.05 172.87L30.18 175C30.18 175 39.06 175.46 41.45 173.93L40.66 170.93L30.05 172.87Z" fill="#F6F2E1"/>
<path d="M29.19 173.05C29.19 173.05 37.19 173.57 41.78 171.82C41.78 171.82 38.54 136.82 36.24 129.62C36.24 129.62 48.24 89.97 49.08 81.55C49.92 73.13 44.3 61.92 39.72 60.25C39.72 60.25 29.54 63.31 24.99 86.46C20.44 109.61 19.48 125.82 19.83 128.37C20.18 130.92 29.19 173.05 29.19 173.05Z" fill="#758FE3"/>
<defs>
<linearGradient id="paint0_linear" x1="1247.37" y1="99.8495" x2="1272.65" y2="99.8495" gradientUnits="userSpaceOnUse">
<stop stop-color="#3379BC"/>
<stop offset="1" stop-color="#22579C"/>
</linearGradient>
</defs>
</svg>
