<svg width="152" height="238" viewBox="0 0 152 238" fill="none" xmlns="http://www.w3.org/2000/svg">
<path d="M124.604 12.86C122.198 13.8546 120.015 15.3208 118.184 17.1722C116.353 19.0236 114.912 21.2227 113.944 23.64C113.6 24.4562 113.045 25.1664 112.336 25.6978C111.628 26.2293 110.791 26.5629 109.911 26.6647C109.031 26.7664 108.14 26.6325 107.328 26.2768C106.517 25.921 105.815 25.3562 105.294 24.64L87.4239 0C11.1739 55.41 -17.3061 152.1 10.3439 237.13L39.2539 227.73C40.0999 227.461 40.8588 226.971 41.4527 226.311C42.0467 225.651 42.4542 224.845 42.6334 223.975C42.8126 223.106 42.757 222.204 42.4724 221.363C42.1878 220.522 41.6844 219.772 41.0139 219.19C38.3385 216.947 36.3116 214.028 35.1434 210.738C33.9751 207.448 33.708 203.905 34.3696 200.477C35.0312 197.048 36.5976 193.859 38.9063 191.24C41.2151 188.621 44.1822 186.666 47.5004 185.579C50.8185 184.493 54.3669 184.313 57.7779 185.059C61.1888 185.805 64.3383 187.449 66.8999 189.822C69.4615 192.194 71.3421 195.209 72.3468 198.553C73.3515 201.897 73.4437 205.448 72.6139 208.84C72.3898 209.709 72.4035 210.622 72.6537 211.483C72.9038 212.345 73.3812 213.123 74.0357 213.737C74.6902 214.35 75.4977 214.777 76.3736 214.971C77.2495 215.165 78.1615 215.12 79.0139 214.84L106.134 206.03C98.8967 183.656 98.9153 159.567 106.187 137.204C113.459 114.841 127.612 95.3485 146.624 81.51L129.864 58.44C129.475 57.9086 129.195 57.3057 129.04 56.6659C128.885 56.0261 128.858 55.3619 128.96 54.7115C129.062 54.0611 129.292 53.4373 129.636 52.8759C129.98 52.3145 130.431 51.8265 130.964 51.44C131.717 50.8877 132.612 50.5616 133.544 50.5C136.374 50.2933 139.125 49.4745 141.607 48.1002C144.089 46.7258 146.243 44.8287 147.919 42.5401C149.596 40.2514 150.756 37.6259 151.318 34.845C151.881 32.0641 151.832 29.1943 151.176 26.4339C150.521 23.6736 149.273 21.0886 147.52 18.8578C145.767 16.627 143.55 14.8036 141.023 13.5137C138.496 12.2238 135.719 11.4982 132.884 11.3871C130.049 11.2759 127.224 11.7819 124.604 12.87V12.86Z" fill="url(#paint0_linear)"/>
<path d="M22.4587 114.49V100.174H28.5427C30.0727 100.174 31.1827 100.304 31.8728 100.564C32.5694 100.818 33.1261 101.274 33.5427 101.931C33.9594 102.589 34.1677 103.341 34.1677 104.187C34.1677 105.261 33.852 106.15 33.2205 106.853C32.5889 107.55 31.6449 107.989 30.3884 108.172C31.0134 108.536 31.5278 108.937 31.9314 109.373C32.3416 109.809 32.8917 110.584 33.5818 111.697L35.3298 114.49H31.8728L29.783 111.375C29.0408 110.261 28.533 109.562 28.2595 109.275C27.9861 108.982 27.6964 108.784 27.3904 108.679C27.0844 108.569 26.5994 108.513 25.9353 108.513H25.3494V114.49H22.4587ZM25.3494 106.228H27.488C28.8748 106.228 29.7406 106.17 30.0857 106.052C30.4307 105.935 30.7009 105.733 30.8962 105.447C31.0916 105.161 31.1892 104.802 31.1892 104.373C31.1892 103.891 31.059 103.504 30.7986 103.211C30.5447 102.911 30.1833 102.722 29.7146 102.644C29.4802 102.612 28.7771 102.595 27.6052 102.595H25.3494V106.228ZM42.8884 111.189L45.6228 111.648C45.2712 112.651 44.7146 113.416 43.9529 113.943C43.1977 114.464 42.2504 114.724 41.1111 114.724C39.3077 114.724 37.9731 114.135 37.1072 112.957C36.4236 112.013 36.0818 110.821 36.0818 109.383C36.0818 107.664 36.531 106.319 37.4294 105.349C38.3279 104.373 39.4639 103.885 40.8376 103.885C42.3806 103.885 43.5981 104.396 44.49 105.418C45.3819 106.433 45.8083 107.993 45.7693 110.095H38.8943C38.9138 110.909 39.1352 111.544 39.5583 112C39.9815 112.449 40.5089 112.674 41.1404 112.674C41.5701 112.674 41.9314 112.556 42.2244 112.322C42.5173 112.088 42.7387 111.71 42.8884 111.189ZM43.0447 108.416C43.0251 107.622 42.8201 107.019 42.4294 106.609C42.0388 106.192 41.5636 105.984 41.0037 105.984C40.4047 105.984 39.9099 106.202 39.5193 106.638C39.1287 107.075 38.9366 107.667 38.9431 108.416H43.0447ZM47.0486 111.531L49.8025 111.111C49.9197 111.645 50.1573 112.052 50.5154 112.332C50.8735 112.605 51.3748 112.742 52.0193 112.742C52.7289 112.742 53.2628 112.612 53.6208 112.351C53.8617 112.169 53.9822 111.925 53.9822 111.619C53.9822 111.411 53.9171 111.238 53.7869 111.101C53.6501 110.971 53.3442 110.851 52.8689 110.74C50.6554 110.252 49.2524 109.806 48.6599 109.402C47.8396 108.842 47.4294 108.064 47.4294 107.068C47.4294 106.17 47.7843 105.414 48.4939 104.802C49.2035 104.191 50.3038 103.885 51.7947 103.885C53.2139 103.885 54.2686 104.116 54.9587 104.578C55.6488 105.04 56.1241 105.724 56.3845 106.629L53.7966 107.107C53.686 106.704 53.4744 106.394 53.1619 106.179C52.8559 105.965 52.4164 105.857 51.8435 105.857C51.1208 105.857 50.6033 105.958 50.2908 106.16C50.0824 106.303 49.9783 106.489 49.9783 106.717C49.9783 106.912 50.0694 107.078 50.2517 107.215C50.4991 107.397 51.352 107.654 52.8103 107.986C54.2751 108.318 55.2973 108.725 55.8767 109.207C56.4496 109.695 56.7361 110.375 56.7361 111.248C56.7361 112.198 56.3389 113.015 55.5447 113.699C54.7504 114.383 53.5753 114.724 52.0193 114.724C50.6065 114.724 49.4867 114.438 48.6599 113.865C47.8396 113.292 47.3025 112.514 47.0486 111.531ZM59.0701 104.119H61.6287V105.642C61.9607 105.122 62.4099 104.698 62.9763 104.373C63.5427 104.047 64.171 103.885 64.8611 103.885C66.0655 103.885 67.0876 104.357 67.9275 105.301C68.7673 106.245 69.1873 107.56 69.1873 109.246C69.1873 110.978 68.7641 112.325 67.9177 113.289C67.0714 114.246 66.046 114.724 64.8416 114.724C64.2686 114.724 63.7478 114.61 63.2791 114.383C62.8168 114.155 62.3285 113.764 61.8142 113.211V118.435H59.0701V104.119ZM61.7849 109.129C61.7849 110.294 62.016 111.157 62.4783 111.717C62.9405 112.27 63.5037 112.547 64.1677 112.547C64.8057 112.547 65.3363 112.293 65.7595 111.785C66.1827 111.271 66.3943 110.431 66.3943 109.265C66.3943 108.178 66.1762 107.371 65.74 106.844C65.3038 106.316 64.7634 106.052 64.1189 106.052C63.4483 106.052 62.8917 106.313 62.449 106.834C62.0063 107.348 61.7849 108.113 61.7849 109.129ZM70.74 109.158C70.74 108.247 70.9646 107.364 71.4138 106.511C71.863 105.659 72.4978 105.008 73.3181 104.558C74.1449 104.109 75.0662 103.885 76.0818 103.885C77.6508 103.885 78.9366 104.396 79.9392 105.418C80.9418 106.433 81.4431 107.719 81.4431 109.275C81.4431 110.844 80.9353 112.146 79.9197 113.181C78.9106 114.21 77.6378 114.724 76.1013 114.724C75.1508 114.724 74.2426 114.51 73.3767 114.08C72.5173 113.65 71.863 113.022 71.4138 112.195C70.9646 111.362 70.74 110.349 70.74 109.158ZM73.5525 109.304C73.5525 110.333 73.7966 111.121 74.2849 111.668C74.7732 112.215 75.3754 112.488 76.0916 112.488C76.8077 112.488 77.4067 112.215 77.8884 111.668C78.3767 111.121 78.6208 110.327 78.6208 109.285C78.6208 108.269 78.3767 107.488 77.8884 106.941C77.4067 106.394 76.8077 106.121 76.0916 106.121C75.3754 106.121 74.7732 106.394 74.2849 106.941C73.7966 107.488 73.5525 108.276 73.5525 109.304ZM93.0349 114.49H90.2908V109.197C90.2908 108.077 90.2322 107.355 90.115 107.029C89.9978 106.697 89.8057 106.44 89.5388 106.258C89.2784 106.075 88.9626 105.984 88.5916 105.984C88.1163 105.984 87.6899 106.114 87.3123 106.375C86.9347 106.635 86.6742 106.98 86.531 107.41C86.3943 107.84 86.3259 108.634 86.3259 109.793V114.49H83.5818V104.119H86.1306V105.642C87.0356 104.47 88.1749 103.885 89.5486 103.885C90.1541 103.885 90.7074 103.995 91.2087 104.217C91.71 104.431 92.0876 104.708 92.3416 105.047C92.602 105.385 92.781 105.769 92.8787 106.199C92.9828 106.629 93.0349 107.244 93.0349 108.045V114.49ZM95.5154 110.672V107.927H100.906V110.672H95.5154Z" fill="white"/>
<path d="M21.4626 139.811L24.2166 139.391C24.3337 139.925 24.5714 140.332 24.9294 140.612C25.2875 140.885 25.7888 141.022 26.4333 141.022C27.143 141.022 27.6768 140.892 28.0349 140.631C28.2758 140.449 28.3962 140.205 28.3962 139.899C28.3962 139.691 28.3311 139.518 28.2009 139.381C28.0642 139.251 27.7582 139.131 27.283 139.02C25.0694 138.532 23.6664 138.086 23.074 137.682C22.2537 137.122 21.8435 136.344 21.8435 135.348C21.8435 134.45 22.1983 133.694 22.908 133.083C23.6176 132.471 24.7179 132.165 26.2087 132.165C27.628 132.165 28.6827 132.396 29.3728 132.858C30.0629 133.32 30.5382 134.004 30.7986 134.909L28.2107 135.387C28.1 134.984 27.8884 134.674 27.5759 134.459C27.2699 134.245 26.8305 134.137 26.2576 134.137C25.5349 134.137 25.0173 134.238 24.7048 134.44C24.4965 134.583 24.3923 134.769 24.3923 134.997C24.3923 135.192 24.4835 135.358 24.6658 135.495C24.9132 135.677 25.766 135.934 27.2244 136.266C28.6892 136.598 29.7113 137.005 30.2908 137.487C30.8637 137.975 31.1501 138.655 31.1501 139.528C31.1501 140.478 30.753 141.295 29.9587 141.979C29.1645 142.663 27.9893 143.004 26.4333 143.004C25.0206 143.004 23.9008 142.718 23.074 142.145C22.2537 141.572 21.7166 140.794 21.4626 139.811ZM33.5623 130.993V128.454H36.3064V130.993H33.5623ZM33.5623 142.77V132.399H36.3064V142.77H33.5623ZM39.0115 142.77V128.454H41.7556V133.61C42.602 132.646 43.6046 132.165 44.7634 132.165C46.0264 132.165 47.0714 132.624 47.8982 133.542C48.725 134.453 49.1384 135.765 49.1384 137.477C49.1384 139.248 48.7153 140.612 47.8689 141.569C47.0291 142.526 46.0069 143.004 44.8025 143.004C44.21 143.004 43.6241 142.858 43.0447 142.565C42.4718 142.265 41.977 141.826 41.5603 141.247V142.77H39.0115ZM41.7361 137.36C41.7361 138.434 41.9054 139.228 42.2439 139.743C42.7192 140.472 43.3507 140.836 44.1384 140.836C44.7439 140.836 45.2582 140.579 45.6814 140.065C46.1111 139.544 46.3259 138.727 46.3259 137.614C46.3259 136.429 46.1111 135.576 45.6814 135.055C45.2517 134.528 44.7016 134.264 44.031 134.264C43.3735 134.264 42.8266 134.521 42.3904 135.036C41.9542 135.543 41.7361 136.318 41.7361 137.36ZM51.3552 130.993V128.454H54.0994V130.993H51.3552ZM51.3552 142.77V132.399H54.0994V142.77H51.3552ZM56.9216 142.77V128.454H59.6658V142.77H56.9216ZM62.488 130.993V128.454H65.2322V130.993H62.488ZM62.488 142.77V132.399H65.2322V142.77H62.488ZM72.8103 132.399V134.586H70.9353V138.766C70.9353 139.612 70.9516 140.107 70.9841 140.25C71.0232 140.387 71.1046 140.501 71.2283 140.592C71.3585 140.683 71.5147 140.729 71.697 140.729C71.9509 140.729 72.3188 140.641 72.8005 140.465L73.0349 142.594C72.3969 142.868 71.6742 143.004 70.8669 143.004C70.3722 143.004 69.9262 142.923 69.5291 142.76C69.1319 142.591 68.8389 142.376 68.6501 142.116C68.4679 141.849 68.3409 141.491 68.2693 141.042C68.2107 140.722 68.1814 140.078 68.1814 139.108V134.586H66.9216V132.399H68.1814V130.338L70.9353 128.737V132.399H72.8103ZM73.4158 132.399H76.3357L78.8162 139.762L81.238 132.399H84.0798L80.4177 142.379L79.7634 144.186C79.5225 144.792 79.2914 145.254 79.0701 145.573C78.8552 145.892 78.6046 146.149 78.3181 146.344C78.0382 146.546 77.6899 146.702 77.2732 146.813C76.863 146.924 76.3975 146.979 75.8767 146.979C75.3494 146.979 74.8318 146.924 74.324 146.813L74.0798 144.665C74.5095 144.749 74.8969 144.792 75.2419 144.792C75.88 144.792 76.352 144.603 76.658 144.225C76.9639 143.854 77.1983 143.379 77.3611 142.799L73.4158 132.399Z" fill="white"/>
<defs>
<linearGradient id="paint0_linear" x1="109.222" y1="108.962" x2="362.528" y2="108.962" gradientUnits="userSpaceOnUse">
<stop stop-color="#E95940"/>
<stop offset="1" stop-color="#EE857C"/>
</linearGradient>
</defs>
</svg>
