<svg width="443" height="443" viewBox="0 0 443 443" fill="none" xmlns="http://www.w3.org/2000/svg">
<g opacity="0.8">
<g opacity="0.8">
<path opacity="0.8" d="M443 221.5C443 343.65 343.65 443 221.5 443C99.35 443 0 343.64 0 221.5C0 99.36 99.36 0 221.5 0C343.64 0 443 99.35 443 221.5ZM402 221.5C402 122 321 41 221.5 41C122 41 41 122 41 221.5C41 321 122 402 221.5 402C321 402 402 321 402 221.5Z" fill="white"/>
</g>
</g>
<g opacity="0.8">
<path opacity="0.8" d="M279 267.94L260.59 251.07C257.95 256.289 253.462 260.339 248 262.43L264.63 281.43C265.527 282.436 266.614 283.254 267.828 283.84C269.042 284.425 270.36 284.766 271.705 284.842C273.051 284.918 274.398 284.728 275.67 284.284C276.943 283.839 278.115 283.148 279.12 282.25V282.25L279.33 282.05C280.251 281.108 280.974 279.991 281.456 278.766C281.938 277.54 282.171 276.23 282.139 274.913C282.107 273.597 281.812 272.299 281.272 271.098C280.731 269.897 279.955 268.817 278.99 267.92L279 267.94Z" fill="white"/>
<path opacity="0.8" d="M265.9 224.28H264.53C262.586 224.552 260.607 224.385 258.736 223.791C256.865 223.198 255.151 222.193 253.72 220.85L252.55 219.72L252.18 221.33C250.248 229.989 245.269 237.666 238.15 242.962C231.031 248.257 222.247 250.818 213.397 250.177C204.548 249.537 196.224 245.738 189.941 239.473C183.659 233.208 179.837 224.894 179.172 216.047C178.507 207.2 181.043 198.408 186.318 191.274C191.594 184.141 199.257 179.14 207.911 177.184C216.565 175.228 225.634 176.447 233.464 180.619C241.295 184.79 247.365 191.637 250.57 199.91V200.25L253.57 201.86L254.05 201.45C256.625 199.255 259.954 198.15 263.33 198.37H264.69L264.25 197.1C261.071 187.523 255.123 179.104 247.158 172.909C239.193 166.714 229.569 163.021 219.504 162.297C209.439 161.573 199.386 163.852 190.616 168.844C181.847 173.836 174.755 181.317 170.239 190.341C165.723 199.365 163.986 209.525 165.246 219.537C166.507 229.549 170.709 238.962 177.321 246.584C183.933 254.207 192.658 259.697 202.391 262.359C212.124 265.021 222.429 264.736 232 261.54C234.342 260.758 236.624 259.809 238.83 258.7V258.7C238.83 258.7 242.56 261.7 249.54 257.16C252.351 255.349 254.8 253.029 256.76 250.32C257.891 249.204 258.619 247.744 258.829 246.169C259.039 244.594 258.719 242.993 257.92 241.62C261.352 236.629 263.846 231.055 265.28 225.17L265.9 224.28Z" fill="white"/>
<path opacity="0.8" d="M281.09 173.39C279.137 173.351 277.213 173.87 275.544 174.887C273.876 175.903 272.532 177.374 271.67 179.127C270.808 180.88 270.464 182.843 270.678 184.785C270.893 186.727 271.656 188.567 272.88 190.09L265.83 199.74V199.91C263.741 199.384 261.55 199.423 259.481 200.024C257.413 200.625 255.541 201.766 254.06 203.33L240.61 196.33V195.06C240.423 191.643 238.934 188.428 236.449 186.075C233.964 183.722 230.672 182.411 227.25 182.411C223.828 182.411 220.536 183.722 218.051 186.075C215.566 188.428 214.077 191.643 213.89 195.06C213.898 197.956 214.861 200.767 216.63 203.06L212.28 209.9L213.07 210.42C213.793 210.842 214.444 211.375 215 212C214.163 211.612 213.293 211.301 212.4 211.07C208.725 210.108 204.841 210.32 201.292 211.676C197.743 213.031 194.707 215.463 192.609 218.63C190.511 221.797 189.456 225.54 189.592 229.337C189.727 233.133 191.047 236.792 193.365 239.802C195.684 242.811 198.886 245.019 202.522 246.118C206.159 247.217 210.048 247.151 213.645 245.93C217.242 244.708 220.367 242.393 222.583 239.307C224.798 236.221 225.993 232.519 226 228.72C226.036 224.032 224.242 219.516 221 216.13L225.45 208.13C227.496 208.446 229.588 208.269 231.552 207.613C233.516 206.957 235.294 205.842 236.74 204.36L250.74 211.86C250.781 215.043 252.085 218.079 254.364 220.3C256.644 222.521 259.712 223.746 262.895 223.705C266.078 223.664 269.114 222.36 271.335 220.081C273.556 217.801 274.781 214.733 274.74 211.55C274.827 209.668 274.463 207.793 273.68 206.08L281.2 194.08C283.95 194.08 286.588 192.987 288.533 191.043C290.477 189.098 291.57 186.46 291.57 183.71C291.57 180.96 290.477 178.322 288.533 176.377C286.588 174.433 283.95 173.34 281.2 173.34L281.09 173.39Z" fill="white"/>
</g>
</svg>
