<svg id="圖層_1" data-name="圖層 1" xmlns="http://www.w3.org/2000/svg" viewBox="0 0 443 443"><defs><style>.cls-1{fill:#009688;}.cls-2{fill:#094d72;}.cls-3{fill:#ffa000;}.cls-4{fill:#ef5350;}.cls-5{fill:#8e24aa;}.cls-6{fill:#64cacf;}.cls-7{isolation:isolate;}.cls-8{fill:#fff;}</style></defs><path id="Path_90" data-name="Path 90" class="cls-1" d="M324.27,152.91l63.2-36.49A6.9,6.9,0,0,0,390,107c-.09-.16-.18-.3-.28-.45A202.78,202.78,0,0,0,237.6,18.74a6.91,6.91,0,0,0-7.42,6.37c0,.16,0,.33,0,.5v73a19.19,19.19,0,0,0,15.15,18.69,106.26,106.26,0,0,1,55.12,31.8A19.27,19.27,0,0,0,324.27,152.91Z"/><path id="Path_91" data-name="Path 91" class="cls-2" d="M230.16,343.62v73a6.91,6.91,0,0,0,6.93,6.9l.51,0a202.79,202.79,0,0,0,152.11-87.81,6.91,6.91,0,0,0-1.79-9.6l-.45-.28-63.2-36.49a19.28,19.28,0,0,0-23.84,3.83,106.26,106.26,0,0,1-55.12,31.8A19.2,19.2,0,0,0,230.16,343.62Z"/><path id="Path_92" data-name="Path 92" class="cls-3" d="M115.77,221.11a106.25,106.25,0,0,1,4.83-31.77,19.3,19.3,0,0,0-8.6-22.59L48.82,130.27a6.91,6.91,0,0,0-9.43,2.53,4,4,0,0,0-.24.46,203.33,203.33,0,0,0,0,175.7,6.9,6.9,0,0,0,9.21,3.22,4,4,0,0,0,.46-.24L112,275.47a19.3,19.3,0,0,0,8.6-22.59A106.34,106.34,0,0,1,115.77,221.11Z"/><path id="Path_93" data-name="Path 93" class="cls-4" d="M120,289.3l-63.2,36.49a6.9,6.9,0,0,0-2.52,9.43,4.92,4.92,0,0,0,.28.45,202.79,202.79,0,0,0,152.11,87.81,6.91,6.91,0,0,0,7.42-6.37c0-.17,0-.34,0-.51v-73A19.2,19.2,0,0,0,199,324.93a106.24,106.24,0,0,1-55.12-31.79A19.27,19.27,0,0,0,120,289.3Z"/><path id="Path_94" data-name="Path 94" class="cls-5" d="M328.54,221.11a106.22,106.22,0,0,1-4.82,31.76,19.31,19.31,0,0,0,8.59,22.6l63.19,36.47a6.9,6.9,0,0,0,9.43-2.53l.24-.45a203.33,203.33,0,0,0,0-175.7A6.91,6.91,0,0,0,396,130l-.45.24-63.19,36.48a19.3,19.3,0,0,0-8.59,22.59A106.28,106.28,0,0,1,328.54,221.11Z"/><path id="Path_95" data-name="Path 95" class="cls-6" d="M214.15,98.59v-73a6.9,6.9,0,0,0-6.93-6.89,4.35,4.35,0,0,0-.51,0A202.78,202.78,0,0,0,54.6,106.54a6.92,6.92,0,0,0,1.79,9.61c.15.09.3.19.45.27L120,152.91a19.27,19.27,0,0,0,23.84-3.83A106.26,106.26,0,0,1,199,117.28,19.18,19.18,0,0,0,214.15,98.59Z"/><g id="R" class="cls-7"><g class="cls-7"><path class="cls-8" d="M279.57,114.5V63.57h21.64q8.16,0,11.87,1.37A11.78,11.78,0,0,1,319,69.82a14.71,14.71,0,0,1,2.22,8,13.59,13.59,0,0,1-3.37,9.47q-3.36,3.74-10.07,4.7a24,24,0,0,1,5.5,4.28,58.13,58.13,0,0,1,5.86,8.27l6.22,9.93h-12.3l-7.44-11.08a70.86,70.86,0,0,0-5.42-7.49,8,8,0,0,0-3.09-2.12,17,17,0,0,0-5.18-.57h-2.08V114.5Zm10.28-29.39h7.61q7.4,0,9.24-.62a5.52,5.52,0,0,0,2.88-2.16,6.59,6.59,0,0,0,1.05-3.82,6.08,6.08,0,0,0-1.38-4.15,6.25,6.25,0,0,0-3.87-2c-.83-.11-3.34-.17-7.5-.17h-8Z"/></g></g><g id="I" class="cls-7"><g class="cls-7"><path class="cls-8" d="M371.12,245.93V195h10.29v50.93Z"/></g></g><g id="A" class="cls-7"><g class="cls-7"><path class="cls-8" d="M325.46,379.35H314.27l-4.44-11.57H289.47l-4.21,11.57h-10.9l19.83-50.94h10.88ZM306.53,359.2l-7-18.9-6.88,18.9Z"/></g></g><g id="S" class="cls-7"><g class="cls-7"><path class="cls-8" d="M121.77,362.77l10-1q.9,5,3.67,7.4a11,11,0,0,0,7.45,2.36q5,0,7.49-2.1a6.27,6.27,0,0,0,2.51-4.91,4.63,4.63,0,0,0-1.06-3.08,8.53,8.53,0,0,0-3.7-2.21c-1.2-.41-3.95-1.15-8.23-2.22-5.51-1.37-9.38-3-11.6-5a13.23,13.23,0,0,1-4.69-10.25,13.06,13.06,0,0,1,2.2-7.27,13.79,13.79,0,0,1,6.36-5.16,25.5,25.5,0,0,1,10-1.78q9.6,0,14.44,4.21A14.82,14.82,0,0,1,161.73,343l-10.29.45c-.44-2.61-1.38-4.5-2.83-5.64s-3.62-1.72-6.51-1.72a11.73,11.73,0,0,0-7,1.84,3.71,3.71,0,0,0-1.63,3.16,3.9,3.9,0,0,0,1.53,3.09q1.94,1.64,9.45,3.41a50.07,50.07,0,0,1,11.1,3.66,14.38,14.38,0,0,1,5.63,5.18,15.18,15.18,0,0,1,2,8.11,15,15,0,0,1-2.43,8.2,14.63,14.63,0,0,1-6.88,5.68,28.87,28.87,0,0,1-11.09,1.86q-9.66,0-14.83-4.47T121.77,362.77Z"/></g></g><g id="C" class="cls-7"><g class="cls-7"><path class="cls-8" d="M77.91,227.21l10,3.16q-2.3,8.34-7.62,12.39t-13.53,4a21.9,21.9,0,0,1-16.68-6.93q-6.54-6.93-6.53-19,0-12.72,6.56-19.75t17.27-7q9.34,0,15.18,5.53A20,20,0,0,1,87.74,209l-10.18,2.43a10.54,10.54,0,0,0-10.73-8.55A11.59,11.59,0,0,0,57.64,207q-3.53,4.06-3.53,13.17,0,9.65,3.48,13.75a11.25,11.25,0,0,0,9,4.1,10.33,10.33,0,0,0,7-2.6Q76.63,232.8,77.91,227.21Z"/></g></g><g id="E" class="cls-7"><g class="cls-7"><path class="cls-8" d="M125.37,110.55V59.62h37.76v8.62H135.65V79.53h25.57v8.58H135.65V102h28.46v8.58Z"/></g></g></svg>