<svg width="443" height="443" viewBox="0 0 443 443" fill="none" xmlns="http://www.w3.org/2000/svg">
<g >
<g >
<path  d="M441 221.5C441 342.545 342.545 441 221.5 441C100.455 441 2 342.535 2 221.5C2 100.465 100.465 2 221.5 2C342.535 2 441 100.455 441 221.5ZM404 221.5C404 120.895 322.105 39 221.5 39C120.895 39 39 120.895 39 221.5C39 322.105 120.895 404 221.5 404C322.105 404 404 322.105 404 221.5Z"  stroke-width="4"/>
</g>
</g>
<g >
<path  d="M277.649 269.415L277.655 269.41C278.412 270.12 279.022 270.973 279.448 271.919C279.879 272.877 280.114 273.911 280.14 274.962C280.165 276.011 279.98 277.056 279.595 278.033C279.214 279 278.646 279.882 277.923 280.628L277.765 280.779C276.961 281.492 276.025 282.041 275.01 282.396C273.986 282.754 272.901 282.907 271.818 282.845C270.735 282.784 269.674 282.51 268.697 282.038C267.722 281.568 266.85 280.912 266.128 280.105L251.286 263.147C255.277 261.09 258.657 258.015 261.082 254.234L277.649 269.415Z"  stroke-width="4"/>
<path  d="M239.344 244.566C246.383 239.33 251.438 231.884 253.718 223.447C255.052 224.432 256.542 225.194 258.131 225.698C259.672 226.187 261.278 226.424 262.887 226.406C261.466 231.425 259.232 236.182 256.272 240.487L255.554 241.531L256.192 242.626C256.768 243.616 256.998 244.769 256.847 245.904C256.696 247.039 256.171 248.092 255.356 248.896L255.237 249.013L255.14 249.148C253.325 251.656 251.059 253.803 248.457 255.479L248.45 255.483C245.283 257.543 243.054 257.773 241.769 257.643C241.108 257.576 240.637 257.409 240.355 257.28C240.214 257.215 240.12 257.159 240.073 257.13C240.05 257.115 240.039 257.108 240.041 257.109L240.053 257.117L240.066 257.127L240.074 257.134L240.079 257.138L240.081 257.14C240.082 257.141 240.083 257.142 238.83 258.7L237.931 256.913C235.812 257.979 233.618 258.892 231.367 259.643L231.367 259.643C222.171 262.714 212.27 262.988 202.919 260.43C193.567 257.872 185.185 252.597 178.832 245.274C172.479 237.95 168.442 228.906 167.23 219.287C166.019 209.668 167.689 199.906 172.028 191.236C176.367 182.566 183.18 175.378 191.606 170.582C200.031 165.786 209.69 163.597 219.36 164.292C229.031 164.987 238.277 168.535 245.93 174.488C253.199 180.142 258.72 187.723 261.873 196.355C258.779 196.481 255.792 197.563 253.329 199.461L252.333 198.926C248.929 190.323 242.576 183.207 234.405 178.853C226.151 174.456 216.592 173.172 207.47 175.233C198.348 177.295 190.271 182.566 184.71 190.085C179.15 197.604 176.476 206.871 177.177 216.197C177.878 225.523 181.907 234.286 188.529 240.889C195.151 247.493 203.925 251.497 213.253 252.172C222.581 252.847 231.84 250.148 239.344 244.566Z"  stroke-width="4"/>
<path  d="M281.05 175.39L281.504 175.399L281.611 175.35C283.681 175.452 285.646 176.319 287.118 177.792C288.688 179.361 289.57 181.49 289.57 183.71C289.57 185.93 288.688 188.059 287.118 189.629C285.549 191.198 283.42 192.08 281.2 192.08H280.093L279.505 193.018L271.985 205.018L271.413 205.931L271.861 206.912C272.512 208.336 272.814 209.894 272.742 211.458L272.739 211.517L272.74 211.576C272.774 214.228 271.754 216.785 269.903 218.685C268.051 220.584 265.521 221.671 262.869 221.705C260.217 221.739 257.66 220.719 255.76 218.868C253.861 217.016 252.774 214.486 252.74 211.834L252.725 210.654L251.684 210.097L237.684 202.597L236.359 201.887L235.308 202.963C234.085 204.217 232.58 205.161 230.918 205.716C229.257 206.271 227.487 206.421 225.755 206.153L224.379 205.941L223.702 207.158L219.252 215.158L218.535 216.448L219.556 217.513C222.438 220.523 224.032 224.538 224 228.705H224L224 228.716C223.994 232.098 222.93 235.393 220.958 238.14C218.986 240.887 216.204 242.949 213.002 244.036C209.8 245.123 206.338 245.182 203.101 244.204C199.864 243.226 197.014 241.259 194.95 238.581C192.886 235.902 191.711 232.645 191.59 229.265C191.47 225.886 192.409 222.553 194.277 219.734C196.144 216.915 198.847 214.751 202.006 213.544C205.165 212.337 208.622 212.149 211.894 213.005L211.9 213.007C212.676 213.207 213.432 213.477 214.158 213.814L216.495 210.671C216.049 210.171 215.556 209.717 215.021 209.317L218.318 204.133L219.071 202.949L218.214 201.838C216.726 199.909 215.91 197.547 215.89 195.112C216.063 192.227 217.327 189.515 219.426 187.527C221.54 185.526 224.34 184.411 227.25 184.411C230.16 184.411 232.96 185.526 235.074 187.527C237.175 189.516 238.439 192.23 238.61 195.117V196.33V197.544L239.687 198.104L253.137 205.104L254.475 205.8L255.512 204.706C256.749 203.4 258.312 202.447 260.039 201.945C261.767 201.443 263.597 201.41 265.341 201.849L267.83 202.477V200.393L274.495 191.27L275.399 190.032L274.439 188.837C273.454 187.611 272.839 186.129 272.666 184.565C272.494 183.002 272.771 181.421 273.465 180.009C274.159 178.598 275.241 177.413 276.585 176.595C277.928 175.777 279.477 175.358 281.05 175.39Z"  stroke-width="4"/>
</g>
</svg>
