<svg id="圖層_1" data-name="圖層 1" xmlns="http://www.w3.org/2000/svg" viewBox="0 0 443 443"><defs><style>.cls-1{opacity:0.8;}.cls-2{fill:#fff;}.cls-3{fill:#009688;}.cls-4{fill:#094d72;}.cls-5{fill:#ffa000;}.cls-6{fill:#ef5350;}.cls-7{fill:#8e24aa;}.cls-8{fill:#64cacf;}.cls-9{isolation:isolate;}</style></defs><g id="Group_10" data-name="Group 10" class="cls-1"><g id="Group_9" data-name="Group 9"><path id="Path_149" data-name="Path 149" class="cls-2" d="M443,221.5C443,343.65,343.65,443,221.5,443S0,343.64,0,221.5,99.36,0,221.5,0,443,99.35,443,221.5Zm-41,0C402,122,321,41,221.5,41S41,122,41,221.5,122,402,221.5,402,402,321,402,221.5Z"/></g></g><path id="Path_90" data-name="Path 90" class="cls-3" d="M325.5,152.1l63.95-36.93a7,7,0,0,0,2.55-9.55c-.09-.15-.18-.3-.28-.45A205.23,205.23,0,0,0,237.8,16.32a7,7,0,0,0-7.52,6.44c0,.18,0,.35,0,.52V97.13A19.43,19.43,0,0,0,245.6,116a107.48,107.48,0,0,1,55.77,32.17A19.52,19.52,0,0,0,325.5,152.1Z"/><path id="Path_91" data-name="Path 91" class="cls-4" d="M230.26,345.08v73.85a7,7,0,0,0,7,7l.52,0A205.23,205.23,0,0,0,391.72,337a7,7,0,0,0-1.82-9.72c-.15-.1-.3-.2-.45-.28L325.5,290.11A19.52,19.52,0,0,0,301.37,294a107.48,107.48,0,0,1-55.77,32.17A19.43,19.43,0,0,0,230.26,345.08Z"/><path id="Path_92" data-name="Path 92" class="cls-5" d="M114.51,221.1A107.75,107.75,0,0,1,119.39,189a19.51,19.51,0,0,0-8.69-22.86L46.76,129.18a7,7,0,0,0-9.54,2.57c-.09.15-.17.3-.25.46A205.72,205.72,0,0,0,37,310a7,7,0,0,0,9.33,3.26,4,4,0,0,0,.46-.24l63.94-36.91a19.51,19.51,0,0,0,8.69-22.86A107.76,107.76,0,0,1,114.51,221.1Z"/><path id="Path_93" data-name="Path 93" class="cls-6" d="M118.83,290.11,54.87,327a7,7,0,0,0-2.54,9.55c.09.15.18.3.28.45a205.2,205.2,0,0,0,153.92,88.86,7,7,0,0,0,7.51-6.45,4.35,4.35,0,0,0,0-.51V345.08a19.41,19.41,0,0,0-15.33-18.91A107.59,107.59,0,0,1,143,294,19.5,19.5,0,0,0,118.83,290.11Z"/><path id="Path_94" data-name="Path 94" class="cls-7" d="M329.82,221.1a107.86,107.86,0,0,1-4.88,32.15,19.52,19.52,0,0,0,8.69,22.86L397.57,313a7,7,0,0,0,9.54-2.56,4,4,0,0,0,.24-.46,205.66,205.66,0,0,0,0-177.79,7,7,0,0,0-9.32-3.27l-.46.24L333.63,166.1A19.51,19.51,0,0,0,324.94,189,107.75,107.75,0,0,1,329.82,221.1Z"/><path id="Path_95" data-name="Path 95" class="cls-8" d="M214.07,97.13V23.28a7,7,0,0,0-7-7,4.43,4.43,0,0,0-.52,0A205.19,205.19,0,0,0,52.61,105.17a7,7,0,0,0,1.82,9.72c.14.1.29.19.44.28l64,36.93A19.52,19.52,0,0,0,143,148.21,107.44,107.44,0,0,1,198.73,116,19.43,19.43,0,0,0,214.07,97.13Z"/><g id="R" class="cls-9"><g class="cls-9"><path class="cls-2" d="M280.26,113.23V61.69h21.9q8.26,0,12,1.39a11.82,11.82,0,0,1,6,4.94,14.82,14.82,0,0,1,2.25,8.12A13.79,13.79,0,0,1,319,85.72q-3.4,3.78-10.19,4.76a24.33,24.33,0,0,1,5.57,4.33,59.11,59.11,0,0,1,5.92,8.36l6.29,10.06H314.15L306.63,102a71.93,71.93,0,0,0-5.49-7.57A8,8,0,0,0,298,92.29a17.38,17.38,0,0,0-5.24-.58h-2.11v21.52Zm10.4-29.74h7.7c5,0,8.11-.22,9.36-.64a5.58,5.58,0,0,0,2.91-2.18,6.65,6.65,0,0,0,1.06-3.86,6.18,6.18,0,0,0-1.39-4.21,6.4,6.4,0,0,0-3.92-2c-.84-.11-3.38-.17-7.59-.17h-8.13Z"/></g></g><g id="I" class="cls-9"><g class="cls-9"><path class="cls-2" d="M372.91,246.23V194.69h10.4v51.54Z"/></g></g><g id="A" class="cls-9"><g class="cls-9"><path class="cls-2" d="M326.7,381.23H315.38l-4.5-11.71h-20.6L286,381.23H275l20.07-51.54h11Zm-19.16-20.39-7.1-19.13-7,19.13Z"/></g></g><g id="S" class="cls-9"><g class="cls-9"><path class="cls-2" d="M120.59,364.46l10.12-1q.91,5.1,3.71,7.49a11.18,11.18,0,0,0,7.54,2.39q5,0,7.58-2.12a6.34,6.34,0,0,0,2.55-5,4.67,4.67,0,0,0-1.08-3.11,8.46,8.46,0,0,0-3.74-2.23q-1.83-.63-8.33-2.25c-5.58-1.39-9.49-3.08-11.74-5.1a13.4,13.4,0,0,1-4.75-10.37,13.25,13.25,0,0,1,2.23-7.37,14.07,14.07,0,0,1,6.44-5.22,25.87,25.87,0,0,1,10.14-1.79q9.7,0,14.61,4.25A15,15,0,0,1,161,344.42l-10.41.46c-.45-2.65-1.4-4.56-2.87-5.72s-3.66-1.74-6.59-1.74a11.84,11.84,0,0,0-7.1,1.87,3.74,3.74,0,0,0-1.65,3.2,3.92,3.92,0,0,0,1.55,3.12c1.31,1.11,4.5,2.25,9.56,3.45a50,50,0,0,1,11.23,3.71,14.44,14.44,0,0,1,5.7,5.24,16.24,16.24,0,0,1-.41,16.5,14.71,14.71,0,0,1-7,5.75,29.26,29.26,0,0,1-11.21,1.88q-9.78,0-15-4.52T120.59,364.46Z"/></g></g><g id="C" class="cls-9"><g class="cls-9"><path class="cls-2" d="M76.2,227.28l10.09,3.2Q84,238.91,78.57,243t-13.69,4.1a22.18,22.18,0,0,1-16.88-7q-6.6-7-6.6-19.17,0-12.87,6.64-20t17.47-7.12q9.46,0,15.37,5.59a20.34,20.34,0,0,1,5.27,9.49l-10.3,2.46A10.66,10.66,0,0,0,65,202.7a11.72,11.72,0,0,0-9.3,4.12q-3.57,4.11-3.57,13.32,0,9.78,3.51,13.92a11.41,11.41,0,0,0,9.14,4.15,10.45,10.45,0,0,0,7.14-2.63Q74.9,232.94,76.2,227.28Z"/></g></g><g id="E" class="cls-9"><g class="cls-9"><path class="cls-2" d="M124.22,109.23V57.69h38.22v8.72H134.63V77.83H160.5v8.69H134.63v14h28.79v8.69Z"/></g></g><g id="Group_681" data-name="Group 681" class="cls-1"><path id="Path_1033" data-name="Path 1033" class="cls-2" d="M279,267.94l-18.41-16.87A23.54,23.54,0,0,1,248,262.43l16.63,19a10.26,10.26,0,0,0,14.49.82h0l.21-.2a9.87,9.87,0,0,0-.34-14.13Z"/><path id="Path_1034" data-name="Path 1034" class="cls-2" d="M265.9,224.28h-1.37a13.14,13.14,0,0,1-10.81-3.43l-1.17-1.13-.37,1.61a37,37,0,1,1-1.61-21.42v.34l3,1.61.48-.41a13,13,0,0,1,9.28-3.08h1.36l-.44-1.27A51,51,0,1,0,232,261.54a51.5,51.5,0,0,0,6.83-2.84h0s3.73,3,10.71-1.54a26.87,26.87,0,0,0,7.22-6.84,7.16,7.16,0,0,0,1.16-8.7,49.86,49.86,0,0,0,7.36-16.45Z"/><path id="Path_1035" data-name="Path 1035" class="cls-2" d="M281.09,173.39a10.27,10.27,0,0,0-8.21,16.7l-7.05,9.65v.17a12.13,12.13,0,0,0-11.77,3.42l-13.45-7v-1.27a13.38,13.38,0,0,0-26.72,0,13.16,13.16,0,0,0,2.74,8l-4.35,6.84.79.52A7.93,7.93,0,0,1,215,212a15.21,15.21,0,0,0-2.6-.93A18.21,18.21,0,1,0,226,228.72,18,18,0,0,0,221,216.13l4.45-8a13,13,0,0,0,11.29-3.77l14,7.5a12,12,0,0,0,24-.31,11.84,11.84,0,0,0-1.06-5.47l7.52-12h0a10.37,10.37,0,0,0,0-20.74Z"/></g></svg>