<svg id="圖層_1" data-name="圖層 1" xmlns="http://www.w3.org/2000/svg" xmlns:xlink="http://www.w3.org/1999/xlink" viewBox="0 0 443 443"><defs><style>.cls-1{fill:#7f8f25;}.cls-2{fill:#7b3804;}.cls-3{fill:#a55016;}.cls-4{fill:#151823;}.cls-5{fill:#cc9483;}.cls-6{fill:#d8a798;}.cls-7{fill:#ccd0d6;}.cls-8{fill:#bfbfcb;}.cls-9{fill:#7d88a0;}.cls-10{fill:#441800;}.cls-11{fill:#282a35;}.cls-12{fill:#91a842;}.cls-13{fill:#2543bf;}.cls-14{fill:#10228c;}.cls-15{fill:#af6a3c;}.cls-16{fill:#ddac9e;}.cls-17{fill:#ff8c03;}.cls-18{fill:#f8b306;}.cls-19{fill:#ffbc8a;}.cls-20{fill:url(#未命名漸層_6);}.cls-21,.cls-23{fill:#363636;}.cls-21{opacity:0.54;}.cls-21,.cls-23,.cls-26{isolation:isolate;}.cls-22{fill:#a7aebc;}.cls-23{opacity:0.52;}.cls-24{fill:#c7c6cc;}.cls-25{fill:url(#未命名漸層_5);}.cls-26{opacity:0.67;fill:url(#未命名漸層_3);}.cls-27{fill:#964711;}.cls-28{fill:#a5957c;}.cls-29{fill:#fff;}.cls-30{fill:url(#未命名漸層_2);}</style><linearGradient id="未命名漸層_6" x1="1394.44" y1="-2433.04" x2="1394.98" y2="-2433.03" gradientTransform="matrix(19.02, 0, 0, -22.23, -24683.7, -53906.44)" gradientUnits="userSpaceOnUse"><stop offset="0.18" stop-color="#545454"/><stop offset="0.2" stop-color="#454545"/><stop offset="0.26" stop-color="#212121"/><stop offset="0.3"/><stop offset="0.33"/><stop offset="0.55"/><stop offset="0.57" stop-color="#0b0b0b"/><stop offset="0.63" stop-color="#323232"/><stop offset="0.68" stop-color="#4b4b4b"/><stop offset="0.71" stop-color="#545454"/></linearGradient><linearGradient id="未命名漸層_5" x1="1258.36" y1="-3838.08" x2="1258.36" y2="-3840.91" gradientTransform="matrix(11.62, 0, 0, -2.34, -14502, -8390.44)" gradientUnits="userSpaceOnUse"><stop offset="0" stop-color="#bdbdbd"/><stop offset="0.16" stop-color="#b8b8b8"/><stop offset="0.34" stop-color="#aaa"/><stop offset="0.47" stop-color="#9c9c9c"/><stop offset="0.93" stop-color="#afafaf"/></linearGradient><linearGradient id="未命名漸層_3" x1="1317.97" y1="-3635.39" x2="1317.39" y2="-3632.63" gradientTransform="matrix(14.71, 0, 0, -2.74, -18751.49, -9306.82)" gradientUnits="userSpaceOnUse"><stop offset="0" stop-color="#d6d6d6"/><stop offset="0.65" stop-color="#c7c7c7"/><stop offset="0.72" stop-color="#c2c2c2"/><stop offset="0.8" stop-color="#b3b3b3"/><stop offset="0.88" stop-color="#9b9b9b"/><stop offset="0.97" stop-color="#7a7a7a"/><stop offset="1" stop-color="#707070"/></linearGradient><linearGradient id="未命名漸層_2" x1="1362.93" y1="-2381.17" x2="1362.92" y2="-2380.09" gradientTransform="matrix(145.82, 0, 0, -35.48, -198446.15, -84231.05)" gradientUnits="userSpaceOnUse"><stop offset="0" stop-color="#fff"/><stop offset="0.64" stop-color="#ababab"/></linearGradient></defs><g id="Group_1099" data-name="Group 1099"><g id="Group_1082" data-name="Group 1082"><path id="Path_1982" data-name="Path 1982" class="cls-1" d="M101.11,141.27c-5-2.89-38.31,36.7-40.22,47.83-1.23,7.31,6.62,18.6,13.06,19.5,5.24.73,14.79-7.12,14.79-7.12s-1-4.2,4.26-12.83l10-12.54Z"/><g id="Group_1053" data-name="Group 1053"><path id="Path_1983" data-name="Path 1983" class="cls-2" d="M51.92,256.12l13-8H202.61l9,8v3.13H53Z"/><path id="Path_1984" data-name="Path 1984" class="cls-2" d="M65.2,347.65l-5.36-.18L73,258.53l12,.27Z"/><path id="Path_1985" data-name="Path 1985" class="cls-2" d="M202.77,340.87l5.44-.73-8.05-87.53L188,254.08Z"/><rect id="Rectangle_199" data-name="Rectangle 199" class="cls-3" x="51.92" y="256.12" width="159.67" height="7.16"/></g><path id="Path_1986" data-name="Path 1986" class="cls-4" d="M105.55,218.41C89.37,231,92.92,244.64,91.41,254.09s26.17,7.19,26.17,7.19l20.27-4.23c5.56,0,17.74,3.8,25.32,3.8s25.63,1.34,24.12-6.54-12.14-33.6-19.72-35.7S105.55,218.41,105.55,218.41Z"/><g id="Group_1059" data-name="Group 1059"><g id="Group_1054" data-name="Group 1054"><path id="Path_1987" data-name="Path 1987" class="cls-5" d="M124.62,144.69l-12.33-12.44s6.37,0,9.67-4.75c1.47-3.39,2.1-2.76,2-8l21.76-1.62c.41,12.6,6.7,13.21,6.7,13.21l-3.1,16.54Z"/></g><g id="Group_1058" data-name="Group 1058"><g id="Group_1056" data-name="Group 1056"><g id="Group_1055" data-name="Group 1055"><path id="Path_1988" data-name="Path 1988" class="cls-6" d="M119.22,112.35c.28,6.42.5,13.18,3.68,16.87,1.9,2.22,8.37,6.7,10.22,7,4,.57,8.92-3,13.18-6.73,3.43-3.05,1.3-6.48,3.14-13.94,2.62-10.55-.33-22.45-13.74-23C115.19,91.74,118.72,101.59,119.22,112.35Z"/></g></g><path id="Path_1989" data-name="Path 1989" class="cls-6" d="M120.41,107c-1.69-.24-6.17-1.08-6.37,1.22s4.78,11.46,6.57,11.33S120.41,107,120.41,107Z"/><path id="Path_1990" data-name="Path 1990" class="cls-6" d="M150.14,108.24c2.47-1,4.64-.28,3.24,2.9s-4.8,9-5.41,8S150.14,108.24,150.14,108.24Z"/><g id="Group_1057" data-name="Group 1057"><path id="Path_1991" data-name="Path 1991" class="cls-7" d="M139.91,101.45c9-4.09,11.68,2.8,8.63,10.16a23.92,23.92,0,0,0,3.9-3.89s.12-.72,1.41-6.44c.88-3.81-6.51-18.88-15.1-14.39S139.91,101.45,139.91,101.45Z"/><path id="Path_1992" data-name="Path 1992" class="cls-8" d="M145.11,100.86c-2,2.14-9.67,6.07-12.28,4.14-4.4-3.25-10.27-5.3-11.31-3.93-2.52,3.34-1,11.25-1,11.25l-2.36-4a2.1,2.1,0,0,0-2.25-1.54c-.62.09.66-1.45.39-9.38-.29-8.65,15.83-15.8,21-13.1,3.82,2,7.24,2,7.36,6.18S145.11,100.86,145.11,100.86Z"/><path id="Path_1993" data-name="Path 1993" class="cls-7" d="M139.29,102.36c-5.23.33-2.22-1.39-8.82-2.45-4-.65-6.3,3.11-6.3,3.11s4-6.72,9.34-4,6.43.71,6.43.71-9.87-4.42-13.78-.26a8.39,8.39,0,0,1,11.45-3.08l0,0c1-.07-4.48-2.62-5.38-2.1,1.4-2,9.79-3.7,12.42.44s.85,4.84-.55,5.67A35.7,35.7,0,0,1,139.29,102.36Z"/></g></g></g><path id="Path_1994" data-name="Path 1994" class="cls-1" d="M166.12,138c-11.13-4.38-15.21-6.36-15.21-6.36s.88,3.95-5.87,9a15.87,15.87,0,0,1-9.69,3.32c-15-.86-15.65-12.68-15.65-12.68s-3.5,1.59-17.83,6.73c-5.43,2-1.91,6.43-2.35,12.64-.33,4.78-.4,24.06.9,29.3s1.85,19,1.21,28.47c-.35,5.27,68.74,5.24,68.87,3.89C172.79,186.94,173.17,140.75,166.12,138Z"/><g id="Group_1061" data-name="Group 1061"><path id="Path_1995" data-name="Path 1995" class="cls-4" d="M182.49,319.65c-1.46,6.82-5.76,2.47-16,1.5s-16.53-1.34-16.05-9.62,10.7-17.15,18.48-14.71S182.49,319.65,182.49,319.65Z"/><g id="Group_1060" data-name="Group 1060"><path id="Path_1996" data-name="Path 1996" class="cls-4" d="M132.46,347.51c-1.15.59-1,7.16.63,8.87,2.45,2.61,12.94,5.06,22.44-.21,8.37-4.65,7.28-4.11,15.78-5.91,2-.43,4.65-10.11,1.16-11.5C170.22,337.85,134.23,346.64,132.46,347.51Z"/><path id="Path_1997" data-name="Path 1997" class="cls-9" d="M158.89,294.43c1.28,9.58-1.26,22.72-4.84,32.77-1.63,4.57-4.89,8.36-5.6,11.12-2.32,8.82,3.49,9.78,3.49,9.78s19.3-3,20.06-5.07c2.74-7.39-1.47-7.79-1.27-10.34.75-9.84,3-26.12,3-29.35C173.68,298.23,158.89,294.43,158.89,294.43Z"/><path id="Path_1998" data-name="Path 1998" class="cls-10" d="M151.36,329c-3.7,4.64-3,4.35-6.44,7.14,0,0-10.33,7.47-11.71,9.79s-2.69,9,7.91,9.18c5.23.11,12.54-2.57,19.16-5.7,5.05-2.39,9.75-4.35,12.19-5.22,1.3-.47-5.9,2.71-9.5-3.33,0,0,7.37-6.29-2.38-12C156.66,326.45,151.36,329,151.36,329Z"/></g><path id="Path_1999" data-name="Path 1999" class="cls-11" d="M160.66,216.53c-7.3,3.42-10.94,9.5-10.94,12.9s1.34,10,1.81,14.4-.6,64.67-1.08,69.53c1.22-8.52,9-7.79,9-7.79s10.46-66.66,7.53-75.9S160.66,216.53,160.66,216.53Z"/><path id="Path_2000" data-name="Path 2000" class="cls-4" d="M159.94,219c-4.87-5.11,21.89-6.32,27,15.58,3.3,14.15-1.46,72.24-5.1,86.85-8-14.61-22.38-15.82-26.77-13.38C157.74,273.46,166.5,225.86,159.94,219Z"/></g><g id="Group_1064" data-name="Group 1064"><path id="Path_2001" data-name="Path 2001" class="cls-4" d="M95.43,320.17c1.5,6.81,5.69,2.75,16.19,1.78s17-1.34,16.49-9.6-11-17.16-19-14.73S95.43,320.17,95.43,320.17Z"/><g id="Group_1063" data-name="Group 1063"><g id="Group_1062" data-name="Group 1062"><path id="Path_2002" data-name="Path 2002" class="cls-4" d="M133.42,345.55c2.46,2.61.84,10.52-1.25,11.55s-10.11,3.45-19.16.32-6.49-5.55-14.88-8.71c-2-.74-3.6-8.79-.32-10.6C105.25,334,133.42,345.55,133.42,345.55Z"/><path id="Path_2003" data-name="Path 2003" class="cls-9" d="M115.91,292c-1.25,9.35.81,22.95,3,33.56,1.08,5.2,8.26,16.3,9,19.21,1.56,5.95-9.71,13.61-23.22.42-1.09-1.06-4.19-.85-5.28-2.32-1.2-1.62,1.24-10.66,1.06-13.08-.76-9.84-1.58-22-1.58-25.49C98.92,299.19,115.91,292,115.91,292Z"/><path id="Path_2004" data-name="Path 2004" class="cls-10" d="M121.31,329.73c3.7,4.64,2.09,3.65,4.52,6.8,0,0,5.42,5.27,6.82,7.59s6.8,12.52-10.93,11.09c-5.58-.45-8-2.6-14.09-6.66a31.68,31.68,0,0,0-9.18-4.43c-1.32-.46,6.37,3.51,10-2.53,0,0-7.8-6.42,1.94-12.16C114.3,327.1,121.31,329.73,121.31,329.73Z"/></g></g><path id="Path_2005" data-name="Path 2005" class="cls-11" d="M116.12,218.32c7.17,1.25,12.25,8.84,12.25,12.23s-1.1,9.4-1.6,13.78.63,64.65,1.12,69.51c-1.24-8.51-9.24-7.78-9.24-7.78s-10.75-66.65-7.74-75.9S116.12,218.32,116.12,218.32Z"/><path id="Path_2006" data-name="Path 2006" class="cls-4" d="M117.6,220.84c5-5.11-21.77-5.22-27,16.67-3.4,14.16,1.34,69.77,5.09,84.37,8.25-14.6,23-15.81,27.48-13.38C117.82,275.72,110.86,227.73,117.6,220.84Z"/></g><path id="Path_2007" data-name="Path 2007" class="cls-12" d="M102,155.81c-.08,4.48.66,17.54-.92,21.23s-8.74,12.64-9.92,12.19-11.3-1.69-15.91.44,5-4.92,9.42-4.18c-4.88-.22-7.1.17-8.08-.06-1.58-.35,4.06-1.2,7.14-1.63s6.35-5.08,11.57-15.54S102,155.81,102,155.81Z"/><g id="Group_1065" data-name="Group 1065"><path id="Path_2008" data-name="Path 2008" class="cls-1" d="M162.3,138.5c8.31-4.35,17.84,19,34.2,35.28,8.8,8.78,7.08,17.1-.14,26.55-1.81,2.39-18.4-1.44-18.4-1.44l-4.39-15.08L163.25,171.1Z"/><path id="Path_2009" data-name="Path 2009" class="cls-12" d="M163.7,138.48c9.8-1,16.17,15,19.19,17.79s8.5,13.52,11.63,15.7c2.82,2,5.25,4.42,4,4.35s-9.81-5.86-14.25-2.43c-4.91,3.79-7,4.27-3.48,1.28a47.31,47.31,0,0,1,6.82-4.76S176.18,174,178,172.6c2.16-1.6,3.68-5.17,3-5.94s-14.65-20.85-17.12-20.24S163.7,138.48,163.7,138.48Z"/></g><g id="Group_1067" data-name="Group 1067"><path id="Path_2010" data-name="Path 2010" class="cls-13" d="M109.66,136.42c-1.45,4.38,7.55,36.75,7.55,36.75L107,169.46s-3-26.65-2-31S109.66,136.42,109.66,136.42Z"/><path id="Path_2011" data-name="Path 2011" class="cls-13" d="M106.74,165.62c6.33,4.38,40.16,13.14,54.52-1.94,10,34,9.15,31.1,10.7,39.42,1.15,6.2,10,9.49,11.19,13.38,0,0,10,13.75,8.89,44s3.28,33.22,3.28,33.22-44.17-10.22-51.46-6.57c-2.32,1.16-10.11,3.65-18.86,5.47-2.34.49-4.42-.26-6.94,0-4.06.43-6.91.17-11,.49-1.48.12-3,1.49-4.38,1.58-12.26.84-15.39-2.91-15-4.26,1.83-5.83-4.86-53.29-1.58-59.49s9.61-15.21,11.07-19.59.62-4.5.62-4.5,8-24.82,8.39-31S106.74,165.62,106.74,165.62Z"/><path id="Path_2012" data-name="Path 2012" class="cls-14" d="M93.85,229.86s18.61-8.4,35-2.19,21.9-.36,33.21-2.19,18.25,1.1,20.44,3.29-5.1-7.3-10.58-11.32-21.54,3.29-32.49,2.19-20.43-5.84-36.14-.36C99.32,220.67,93.85,229.86,93.85,229.86Z"/><path id="Path_2013" data-name="Path 2013" class="cls-13" d="M155,134.41c1.46.55,5.47,3.84,5.47,3.84s1.83,26.28-.91,32.3-6.21.55-6.21.55a286.39,286.39,0,0,0,2.74-30.66A17.71,17.71,0,0,0,155,134.41Z"/><g id="Group_1066" data-name="Group 1066"><path id="Path_2014" data-name="Path 2014" class="cls-14" d="M107.54,165.08c-.37,7.3,1.79,35.84,4.45,37s6.44,5.77,13,8.32,10.86-1.71,9.73,1.22c-.61,1.58-6.93,5.84-15.69,4.38s-11.68-.49-15.34,2.8S100.79,224,99,228s-1.09,47.81,1.46,57.3l2.55,9.5s-9.12.72-10.94-.37-6.94.37-9.13,1.1-3.64-2.92-3.64-2.92,4.37-60.6,6.56-68.26,12.05-12.17,12.41-16.91,0-9.73,2.19-12.29S107.54,165.08,107.54,165.08Z"/><path id="Path_2015" data-name="Path 2015" class="cls-14" d="M117.46,243.73c.72,8.77-.25,48.92-.25,48.92s5.35,1.46,7.54.24S117.46,243.73,117.46,243.73Z"/><path id="Path_2016" data-name="Path 2016" class="cls-14" d="M159.92,236.07c2.55,2.92,1.46,51.46,1.46,51.46S153,285,149,285.71s8.39-36.5,6.93-44.89S159.92,236.07,159.92,236.07Z"/></g></g><path id="Path_2017" data-name="Path 2017" class="cls-6" d="M164.49,198.7c-1.22-.73-8-1.47-9.39-2.16a10.72,10.72,0,0,1-4.22-4.12c-.42-.84-2.17,2.23-.87,4.17a30.16,30.16,0,0,0,3.29,3.58s-3.52,3.15-5.21,3.85a39.85,39.85,0,0,1-5.9,2.11c-1.15.32-.28,2.22,4.28,1.11a18.81,18.81,0,0,0,3.92-1.31c.2-.09-.9,1-3.22,1.58s-5.94.71-6.1,1.69c-.26,1.6,4.06,1.75,6.48,1.4S152,210,152,210s-3,.66-5,.95-4.8.12-4.14,1.59,3.87,1.25,5.64,1,5.06-.61,5.06-.61a36.59,36.59,0,0,1-4.52,1.31c-1.3.2-5.23-.52-4.16.68s4.69,1.41,7.44.8c3.52-.8,13.77-3.54,15.93-5.64,0,0,24.89-1.06,29.52-10.39-1.6-14.34-7.3-12.5-14.07-9.74S164.49,198.7,164.49,198.7Z"/><g id="Group_1069" data-name="Group 1069"><path id="Path_2018" data-name="Path 2018" class="cls-11" d="M131.51,201.35l1.51,1.46s-1.94,6.87-4.58,9.43c-2,1.91-9.68,6.47-10.87,11.86-.68,3.11-.12,4.87.86,3.78s20.92-22.15,18.73-28.48c-.32-.92-4.68-.91-4.68-.91Z"/><g id="Group_1068" data-name="Group 1068"><path id="Path_2019" data-name="Path 2019" class="cls-15" d="M121.85,229.86c7.55-7.27,13.6-7.89,13.6-7.89l7-2.07a57.51,57.51,0,0,1,3.56-13.07c1.46-3.29,6.08-4.63,7.33-4.74,1.63-.16-.91-5.85-6.61-8.89s-10,3-11.42,9.11-2.71,10.25-8.53,13.4A14.58,14.58,0,0,0,119,227.34C118.73,230.59,121.85,229.86,121.85,229.86Z"/><path id="Path_2020" data-name="Path 2020" class="cls-15" d="M136.22,221.46c3.83-.44,7.12,1.18,8.94-1.14s-.42-2.32-1.24-3.36a4.61,4.61,0,0,0-4.81-1C137.42,216.63,136.22,221.46,136.22,221.46Z"/><path id="Path_2021" data-name="Path 2021" class="cls-4" d="M119.14,227.4c.26-3.25,2.72-8.79,8.54-11.94s6.45-6.52,8.63-12.4a18.13,18.13,0,0,1,9.93-10.15c-1-.52-4.7-3.24-4.7-3.24s-9,7.21-9.3,9.31c1.48,1.37,2.32,2.34,2.32,2.34s-2.57,9.19-5,11-13.75,10-11.66,15.9c.94,2.63,3.37,1.52,4.12,1.74C122,229.92,118.89,230.66,119.14,227.4Z"/></g></g><path id="Path_2022" data-name="Path 2022" class="cls-16" d="M102.43,190.1c-2,0-13-.92-21-4.56-3.19-1.46-14.11,6.32-9.73,13.62s8.64,6.27,12.65,5.36,12.41-2.2,14.23-2S102.43,190.1,102.43,190.1Z"/><path id="Path_2023" data-name="Path 2023" class="cls-6" d="M108.73,189c1.29-.1,8.13,3.94,8.88,4.32s1.34.74-.73,1.4-9.13-2.11-9.36-3.17S108.73,189,108.73,189Z"/><g id="Group_1080" data-name="Group 1080"><g id="Group_1079" data-name="Group 1079"><path id="Path_2024" data-name="Path 2024" class="cls-9" d="M130.61,186.48a4,4,0,0,0-4.4-3.28,4.24,4.24,0,0,0-1.91,1.13c-.43.39-1.16,1.22-1.45,1.18a.9.9,0,0,1-.58-.43,24.82,24.82,0,0,1,2.59-2.43,4.45,4.45,0,0,1,5.1,1.56,7,7,0,0,1,1,2Z"/><path id="Path_2025" data-name="Path 2025" class="cls-9" d="M118.67,182a1.28,1.28,0,0,1-.29-.32c-.07-.2.08-.3.66-.93s1.8-2.32,1.8-2.32c.51-.66.2-1.22-.27-1.68a5.2,5.2,0,0,0-3.32-1.27,36.2,36.2,0,0,0-6.06.53c-.2,0-1.26-.06-1.26-.06l-.06-.24c0-.15.2-.09.29-.15s-.43,0-.27-.39c0-.14.24.08,1.07,0,.56,0,1.25-.27,2.62-.35,4.61-.23,6.31.16,7.46,1.16s1,1.58-1.33,4.44a8.22,8.22,0,0,0-.82,1c-.13.21-.1.29,0,.34S118.67,182,118.67,182Z"/><g id="Group_1076" data-name="Group 1076"><g id="Group_1071" data-name="Group 1071"><path id="Path_2026" data-name="Path 2026" class="cls-17" d="M88.19,214.27c.28-.16,2.49-1.77,2.49-1.77,1.2-.84,2.29-2.33,5.82-6.57,3.83-4.61,10.29-10.92,14.09-15,5.5-5.84,5.66-6.58,6.25-7.29a10.3,10.3,0,0,1,2.19-2l.07,0,3.67,3.25,0,.08a10.79,10.79,0,0,1-1.72,2.41c-.63.66-1.44.83-6.52,7-3.51,4.27-8.92,11.51-13,15.9-3.75,4.06-5.1,5.34-5.76,6.63,0,0-1.31,2.4-1.43,2.7a1.37,1.37,0,0,1-1.77.76,1.39,1.39,0,0,1-.43-.28L88,216.5a1.35,1.35,0,0,1-.2-1.9A1.4,1.4,0,0,1,88.19,214.27Z"/><g id="Group_1070" data-name="Group 1070"><path id="Path_2027" data-name="Path 2027" class="cls-18" d="M92.5,212.52a270.44,270.44,0,0,1,18.57-20.74c6-6.06,7.54-8.06,7.54-8.06l.65-1.7,3.19,2.81-1.6.85s-2.15,1.59-7.38,8.3a274,274,0,0,1-18.12,21.14c-1.81,1.78-1.58,3.6-2.66,3.25a10.33,10.33,0,0,1-3.15-2.77C89.29,214.92,91,214.55,92.5,212.52Z"/><path id="Path_2028" data-name="Path 2028" class="cls-19" d="M118.65,183.75l.64-1.7,3.19,2.81-1.6.85Z"/></g></g><g id="Group_1075" data-name="Group 1075"><g id="Group_1074" data-name="Group 1074"><g id="Group_1073" data-name="Group 1073"><g id="Group_1072" data-name="Group 1072"><path id="Path_2029" data-name="Path 2029" class="cls-4" d="M106.52,204.46c-1.74,2.16-3.47,4.21-5,5.87-3.76,4-5.1,5.33-5.76,6.62,0,0-1.31,2.4-1.43,2.7a1.36,1.36,0,0,1-1.77.76,1.39,1.39,0,0,1-.43-.28L88,216.5a1.34,1.34,0,0,1-.21-1.89,1.32,1.32,0,0,1,.4-.34c.28-.16,2.49-1.77,2.49-1.77,1.2-.84,2.29-2.33,5.82-6.57,1.91-2.3,4.46-5,7-7.65a15.93,15.93,0,0,0,.83,2.5A15.5,15.5,0,0,0,106.52,204.46Z"/></g></g></g><path id="Path_2030" data-name="Path 2030" class="cls-20" d="M106.51,204.45c-.15-.1,0,0-.11-.12-1.75,2.15-3.55,4.16-5.07,5.83-3.75,4.06-5,5.33-5.74,6.61,0,0-1.35,2.34-1.5,2.65a1.41,1.41,0,0,1-1.88.7,1.22,1.22,0,0,1-.29-.17l.19.17a1.36,1.36,0,0,0,1.92,0,1.23,1.23,0,0,0,.28-.43c.12-.3,1.43-2.69,1.43-2.69.67-1.3,2-2.58,5.76-6.64C103,208.66,104.77,206.6,106.51,204.45ZM88,216.5l.2.18a1.41,1.41,0,0,1,0-2,1.78,1.78,0,0,1,.26-.22c.28-.19,2.44-1.82,2.44-1.82,1.17-.86,2.31-2.34,5.85-6.57,1.88-2.25,4.37-4.92,6.87-7.53a1.28,1.28,0,0,1,0-.27c-2.57,2.64-5.12,5.36-7,7.66-3.53,4.24-4.63,5.73-5.83,6.56,0,0-2.19,1.61-2.48,1.77a1.35,1.35,0,0,0-.52,1.85A1.23,1.23,0,0,0,88,216.5Z"/></g><path id="Path_2031" data-name="Path 2031" class="cls-4" d="M107.35,203.4c.39-.44.34-.4.93-1.15a13.74,13.74,0,0,1-2-3.56,13.89,13.89,0,0,1-.74-2.43c-.78.81-.91.91-1,1a15.53,15.53,0,0,0,.78,2.51A14.74,14.74,0,0,0,107.35,203.4Z"/></g><g id="Group_1078" data-name="Group 1078"><g id="Group_1077" data-name="Group 1077"><path id="Path_2032" data-name="Path 2032" class="cls-9" d="M136.46,184l-3.8,4.33a1.26,1.26,0,0,0,.58,0,14.47,14.47,0,0,0,3.28-3.65A1.48,1.48,0,0,0,136.46,184Z"/><path id="Path_2033" data-name="Path 2033" class="cls-21" d="M136,184.46a.88.88,0,0,1-.15,1.09.83.83,0,0,0-.06-.86Z"/><path id="Path_2034" data-name="Path 2034" class="cls-21" d="M133.09,187.81c.06,0,.48.32,1.07-.3a.83.83,0,0,1-.87.05Z"/></g><path id="Path_2035" data-name="Path 2035" class="cls-22" d="M130.61,186.48l2.06,1.81,3.8-4.34-2.05-1.81Z"/><path id="Path_2036" data-name="Path 2036" class="cls-9" d="M130.92,186.24c-.16,0-.38-1.35-1.19-2.2a4.51,4.51,0,0,0-1.91-1.22,13.75,13.75,0,0,0-2.1-.44s2.25-1.33,2.73-1.15,1.14.49,3.34,2.92l.52.68C132.41,184.93,131.7,186.21,130.92,186.24Z"/><path id="Path_2037" data-name="Path 2037" class="cls-9" d="M134.42,182.14c-.22-.2-1.18.09-2.21-.71a4.11,4.11,0,0,1-1.47-1.8c-.26-.77-.36-1.46-.43-1.58a1.39,1.39,0,0,0-.23-.31s-.77,2-.54,2.42A8.09,8.09,0,0,0,132.8,183a6,6,0,0,0,.84.3C133.78,183.27,134.84,182.52,134.42,182.14Z"/><path id="Path_2038" data-name="Path 2038" class="cls-23" d="M130,178.42a7.87,7.87,0,0,0-.25,1.87,6.18,6.18,0,0,0,3.16,2.67,4.75,4.75,0,0,0,.8.28.8.8,0,0,0,.22-.13c-.24-.05-.77-.23-.77-.23A4.7,4.7,0,0,1,130,178.42Z"/><path id="Path_2039" data-name="Path 2039" class="cls-9" d="M130,178.36c-.28-.31-2.67-3-4.87-3.76a17.06,17.06,0,0,0-10.62-1,32.68,32.68,0,0,0-4.63,1.55c-.12-.09,1.08-.73,3.52-1.45a17.18,17.18,0,0,1,11.72.45,13.68,13.68,0,0,1,5.05,3.66Z"/><path id="Path_2040" data-name="Path 2040" class="cls-22" d="M129.76,180.22a6,6,0,0,0,3,2.71c.64.27,1,.3,1,.35h0a3.48,3.48,0,0,1-.63,1,3.67,3.67,0,0,1-.82.7h0s-.06,0-.65-.75a23.08,23.08,0,0,0-1.88-1.82,7.75,7.75,0,0,0-1.86-1.09S129,180.67,129.76,180.22Z"/><path id="Path_2041" data-name="Path 2041" class="cls-24" d="M118.54,181.78c.06.09,4,3.48,4.1,3.54s.29.19.9-.46a14.53,14.53,0,0,1,4.8-3.45c1.62-.6,1.65-.76,1.65-.76a7.93,7.93,0,0,1,.1-2.57,15.4,15.4,0,0,0-9.59-5,23.86,23.86,0,0,0-4.78.21,20.44,20.44,0,0,0-3.54.91c-.4.17-1.65.57-1.86.7s-.28.16-.41.25a4,4,0,0,0,1.24.08,26.06,26.06,0,0,1,6-.38c2.62.28,3.26.82,3.62,1.17a1.56,1.56,0,0,1,.5,2.08s-1.2,1.68-1.55,2.12-1,1.16-1.1,1.22A.39.39,0,0,0,118.54,181.78Z"/><path id="Path_2042" data-name="Path 2042" class="cls-25" d="M111.08,175.08a9.32,9.32,0,0,1-1.06,0c-.1,0-.15.1-.13.13a3.67,3.67,0,0,0,1.24.06,26.26,26.26,0,0,1,6.07-.37c2.65.27,3.29.81,3.65,1.16a2.2,2.2,0,0,1,.65,1,1.91,1.91,0,0,0-.7-1.13c-.36-.35-1-.89-3.64-1.16A25.77,25.77,0,0,0,111.08,175.08Z"/><path id="Path_2043" data-name="Path 2043" class="cls-26" d="M122.07,175.73c-.78-.94-2.65-2.1-7.58-1.14-2.54.35-3.36.5-3.36.5l-1.14,0s4.37-2,7.86-2a14.36,14.36,0,0,1,5.33.63c.94.36,1.53,2,1.53,2Z"/></g></g></g><g id="Group_1081" data-name="Group 1081"><path id="Path_2044" data-name="Path 2044" class="cls-6" d="M93.24,199.64c1.52.94,6.1,4,6.75,4.37,4.91,2.7,7.07,2.4,8.72,1.94s1.47-1.06,2.2-1.13c2.22-.22,2.59-2.68,2.9-2.8,2.27-.87,1.45-3.66,1.45-3.66,2.4-3,1.13-3.4,1.13-3.4s-5.21-2-7.38-3.78c-1.29-1.08,1.3-1.1.17-1.88-.47-.32-8.59.45-11.17,1.44Z"/></g></g><g id="Group_1098" data-name="Group 1098"><rect id="Rectangle_200" data-name="Rectangle 200" class="cls-2" x="234.55" y="229" width="7.02" height="106.37"/><rect id="Rectangle_201" data-name="Rectangle 201" class="cls-2" x="317.93" y="229.26" width="7.03" height="106.37"/><path id="Path_2045" data-name="Path 2045" class="cls-27" d="M365.64,303.79l-44.79-10H237.66l42,13.51Z"/><path id="Path_2046" data-name="Path 2046" class="cls-3" d="M234.3,241.92,278,251.66l1.54-33.36-45.26-4.72Z"/><rect id="Rectangle_202" data-name="Rectangle 202" class="cls-2" x="278.18" y="302.96" width="87.45" height="10.66"/><path id="Path_2047" data-name="Path 2047" class="cls-2" d="M238,303.79l39.58,9.72v-10L238,293.84Z"/><g id="Group_1088" data-name="Group 1088"><g id="Group_1084" data-name="Group 1084"><rect id="Rectangle_203" data-name="Rectangle 203" class="cls-22" x="340.72" y="281.21" width="6.28" height="18.98"/><path id="Path_2048" data-name="Path 2048" class="cls-22" d="M340.72,281.18c0,.23,1.41.41,3.13.41s3.14-.18,3.14-.41-1.39-.41-3.14-.41S340.72,281,340.72,281.18Z"/><g id="Group_1083" data-name="Group 1083"><rect id="Rectangle_204" data-name="Rectangle 204" class="cls-22" x="342.86" y="279.94" width="2.01" height="1.14"/><rect id="Rectangle_205" data-name="Rectangle 205" class="cls-22" x="342.64" y="278.99" width="2.44" height="1.29"/></g></g><path id="Path_2049" data-name="Path 2049" class="cls-28" d="M325.41,279.14l4.37-3.75a.45.45,0,0,1-.35-.45v-1.46a.44.44,0,0,1,.44-.46h.64l.67-1.55a.42.42,0,0,1,.45-.36h.47a.42.42,0,0,1,.46.36l.61,1.55h.61a.45.45,0,0,1,.46.46v1.46a.45.45,0,0,1-.43.45l4.37,3.75h0a.94.94,0,0,1,.21.58V299.8a.93.93,0,0,1-.92.92H326.21a.92.92,0,0,1-.92-.92V279.72A1.17,1.17,0,0,1,325.41,279.14Z"/><g id="Group_1085" data-name="Group 1085"><path id="Path_2050" data-name="Path 2050" class="cls-13" d="M314.94,300.34c0,.25.29.46.63.46h6.2c.35,0,.62-.21.62-.46v-23c0-.25-.27-.45-.62-.45h-6.2c-.34,0-.63.2-.63.45Z"/><path id="Path_2051" data-name="Path 2051" class="cls-22" d="M315.05,277.21h7.25c.29,0-.83-.74-.83-.74a1.5,1.5,0,0,0-.51-.15l-4.78,0a1.24,1.24,0,0,0-.51.13S314.77,277.21,315.05,277.21Z"/><rect id="Rectangle_206" data-name="Rectangle 206" class="cls-22" x="317.52" y="275.43" width="2.12" height="1.18"/><path id="Rectangle_207" data-name="Rectangle 207" class="cls-13" d="M317.3,273.48H320a.13.13,0,0,1,.13.13h0v2.27a.13.13,0,0,1-.13.13H317.3a.13.13,0,0,1-.13-.13h0v-2.27A.13.13,0,0,1,317.3,273.48Z"/></g><g id="Group_1086" data-name="Group 1086"><path id="Path_2052" data-name="Path 2052" class="cls-14" d="M306.21,300.34c0,.25.29.46.64.46H313c.35,0,.64-.21.64-.46v-23c0-.25-.29-.45-.64-.45h-6.19c-.35,0-.64.2-.64.45Z"/><path id="Path_2053" data-name="Path 2053" class="cls-22" d="M306.32,277.21h7.26c.27,0-.83-.74-.83-.74a1.86,1.86,0,0,0-.51-.15l-4.78,0a1.33,1.33,0,0,0-.52.13S306,277.21,306.32,277.21Z"/><rect id="Rectangle_208" data-name="Rectangle 208" class="cls-22" x="308.79" y="275.43" width="2.11" height="1.18"/><path id="Rectangle_209" data-name="Rectangle 209" class="cls-13" d="M308.58,273.48h2.74a.13.13,0,0,1,.13.13h0v2.27a.13.13,0,0,1-.13.13h-2.74a.13.13,0,0,1-.13-.13h0v-2.27A.13.13,0,0,1,308.58,273.48Z"/></g><g id="Group_1087" data-name="Group 1087"><path id="Path_2054" data-name="Path 2054" class="cls-22" d="M289.27,285.33c3.56,0,6.43.35,6.43.77V301H282.84V286.1C282.84,285.68,285.72,285.33,289.27,285.33Z"/><path id="Path_2055" data-name="Path 2055" class="cls-22" d="M294.11,286.84a41.07,41.07,0,0,1-4.84.25h0a41.3,41.3,0,0,1-4.84-.25h0c-1.24-.22-2-.2-2.19-.81h0c.2-.63.95-.6,2.19-.83h0a43.56,43.56,0,0,1,4.84-.23h0a43.45,43.45,0,0,1,4.84.23h0c1.25.23,2,.2,2.2.83h0C296.12,286.65,295.36,286.62,294.11,286.84Zm1.37-.72a1.76,1.76,0,0,0,.3-.1h0a24.17,24.17,0,0,0-6.51-.6h0a42.39,42.39,0,0,0-4.78.24h0a8.79,8.79,0,0,0-1.43.27h0a.88.88,0,0,0-.3.1h0a25.41,25.41,0,0,0,6.5.6h0a42.27,42.27,0,0,0,4.78-.25h0a7.66,7.66,0,0,0,1.43-.26Z"/><path id="Path_2056" data-name="Path 2056" class="cls-29" d="M284,295.33v-4.26c1.59.14,3.4.24,5.34.24s3.64-.09,5.19-.24v4.23a51.68,51.68,0,0,1-5.43.26C287.27,295.56,285.54,295.48,284,295.33Z"/></g></g><g id="Group_1091" data-name="Group 1091"><g id="Group_1090" data-name="Group 1090"><rect id="Rectangle_210" data-name="Rectangle 210" class="cls-22" x="265.42" y="278.06" width="5.79" height="17.48"/><path id="Path_2057" data-name="Path 2057" class="cls-22" d="M265.42,278c0,.2,1.3.37,2.9.37s2.88-.17,2.88-.37-1.29-.38-2.88-.38S265.42,277.83,265.42,278Z"/><g id="Group_1089" data-name="Group 1089"><rect id="Rectangle_211" data-name="Rectangle 211" class="cls-22" x="267.39" y="276.89" width="1.85" height="1.06"/><rect id="Rectangle_212" data-name="Rectangle 212" class="cls-22" x="267.19" y="276.02" width="2.25" height="1.19"/></g></g><path id="Path_2058" data-name="Path 2058" class="cls-22" d="M251.32,276.16l4-3.46a.43.43,0,0,1-.34-.42V271a.41.41,0,0,1,.42-.43H256l.63-1.43a.37.37,0,0,1,.41-.33h.43a.37.37,0,0,1,.41.33l.56,1.43H259a.42.42,0,0,1,.42.43v1.33a.43.43,0,0,1-.41.42l4,3.45h0a.86.86,0,0,1,.19.53v18.5a.84.84,0,0,1-.85.84H252.07a.84.84,0,0,1-.84-.84v-18.5A1,1,0,0,1,251.32,276.16Z"/></g><path id="Path_2059" data-name="Path 2059" class="cls-2" d="M275,253l96.9-1.46V221.35H275Z"/><g id="Group_1092" data-name="Group 1092"><rect id="Rectangle_213" data-name="Rectangle 213" class="cls-2" x="363.45" y="237.42" width="8.42" height="115.67"/><rect id="Rectangle_214" data-name="Rectangle 214" class="cls-2" x="274.97" y="237.42" width="8.41" height="115.67"/></g><path id="Path_2060" data-name="Path 2060" class="cls-30" d="M226,216.33l48.41,35.49,97.42-1.46V225.43H276.74Z"/><g id="Group_1093" data-name="Group 1093"><path id="Path_2061" data-name="Path 2061" class="cls-27" d="M268.33,216.51v3.06l122.75-1.71v-3.45l-72.48-7.95H215.21Z"/><path id="Path_2062" data-name="Path 2062" class="cls-2" d="M267.61,230l123.47-1.46V214.79l-123.47,1.46Z"/><path id="Path_2063" data-name="Path 2063" class="cls-3" d="M215.47,218.55l53.15,11.73V215.74l-53.15-9.28Z"/></g><g id="Group_1094" data-name="Group 1094"><path id="Path_2064" data-name="Path 2064" class="cls-11" d="M317.8,158.09c-2.82-1.46-5.57-.32-3.83-2s12.28-2,16.29-2.09,8.12-1.56,8.21-.37a4.76,4.76,0,0,1-1.64,3.37C336.28,157.22,317.8,158.09,317.8,158.09Z"/><path id="Path_2065" data-name="Path 2065" class="cls-4" d="M295.8,211.25c0-1.47-1.46-5.36,3.4-5.84s11.77-1.62,15.82-5.6c5.56-5.47,5.05-17.95,2.86-29.62-.33-1.19-1.27-5.08-1.65-6.15-.88-2.49-1.71-5.65-2.81-7.27,6.33,1,22.22-.71,25.14-3.15-.58,7.43-.37,18.93-1.16,25.87-1.23,10.78-2.71,15.63-1.1,18.86,1.53,3-.18,13.2-1.09,14-1.07.92-8.4.31-8.88.18-3-.76-.08-4.34-5.6-1.88-8.76,3.89-12.65,3.16-18.49,2.68S295.8,211.25,295.8,211.25Z"/><path id="Path_2066" data-name="Path 2066" class="cls-11" d="M298.53,205.77c-.36,2.56,6,1.76,6,1.76s15.29-1.76,17.89-9.54c4-12.05-3.86-40.7-6.15-40.4a3.62,3.62,0,0,1-2.13-.25s10.15,22.21,3.4,39.91C314.47,205.41,298.53,205.77,298.53,205.77Z"/></g><g id="Group_1095" data-name="Group 1095"><path id="Path_2067" data-name="Path 2067" class="cls-11" d="M341.53,158.09c-2.83-1.46-5.57-.32-3.83-2S350,154.13,354,154s8.13-1.56,8.22-.37a4.74,4.74,0,0,1-1.65,3.37C360,157.22,341.53,158.09,341.53,158.09Z"/><path id="Path_2068" data-name="Path 2068" class="cls-4" d="M319.52,211.25c0-1.47-1.46-5.36,3.41-5.84s11.77-1.62,15.82-5.6c5.57-5.47,5.05-17.95,2.86-29.62-.33-1.19-1.27-5.08-1.64-6.15-.88-2.49-1.71-5.65-2.82-7.27,6.32,1,22.22-.71,25.14-3.15-.57,7.43-.37,18.93-1.16,25.87-1.22,10.78-2.71,15.63-1.09,18.86,1.52,3-.18,13.2-1.1,14s-8.4.31-8.88.18c-3-.76-.08-4.34-5.6-1.88-8.76,3.89-12.66,3.16-18.5,2.68S319.52,211.25,319.52,211.25Z"/><path id="Path_2069" data-name="Path 2069" class="cls-11" d="M322.26,205.77c-.37,2.56,6,1.76,6,1.76s15.29-1.76,17.89-9.54c4-12.05-3.86-40.7-6.14-40.4a3.66,3.66,0,0,1-2.14-.25s10.15,22.21,3.42,39.91C338.2,205.41,322.26,205.77,322.26,205.77Z"/></g><g id="Group_1097" data-name="Group 1097"><path id="Path_2070" data-name="Path 2070" class="cls-4" d="M284.55,209.91l-.92.49-6.94-1.46,5.48-4.5Z"/><path id="Path_2071" data-name="Path 2071" class="cls-11" d="M249.6,204.77c-.85,1.94-.34,3.29,1,4s18.56,3.59,21.72,3.47,3.77-1.12,5.72-2.59,5-2.37,5.47-1.88.12,2.61.12,2.61l6.81-1a31.27,31.27,0,0,0,.62-4.2c-.13-3.4-38.08-1.46-39.67-.85S249.6,204.77,249.6,204.77Z"/><g id="Group_1096" data-name="Group 1096"><path id="Path_2072" data-name="Path 2072" class="cls-11" d="M288.62,187.76c-1.7-1.21-9.49-2.66-13.87-1.21s-3.89,1.7-4.62,4.13-3.9,5.12-5.6,8.28S288.62,187.76,288.62,187.76Z"/><path id="Path_2073" data-name="Path 2073" class="cls-4" d="M249.93,206.51c1,2.43,22.39,5.35,25.3,3.4a18.32,18.32,0,0,1,9.25-3.4,18.24,18.24,0,0,0,5.6-1.22s2.19-7.55.24-10.95a8.82,8.82,0,0,1-.48-7.06s-11.69-1.22-13.63,1.21-9.25,11.2-13.14,11.69-9.74.48-11.68,1.45S249.93,206.51,249.93,206.51Z"/><path id="Path_2074" data-name="Path 2074" class="cls-4" d="M267.39,199.38a52.13,52.13,0,0,0,8.51-6.51c.13-2.19-2.36-4.62-4.55-1.94a95,95,0,0,1-10,10C260.67,201.37,263.77,201.4,267.39,199.38Z"/></g></g></g></g></svg>