<svg id="圖層_1" data-name="圖層 1" xmlns="http://www.w3.org/2000/svg" viewBox="0 0 163 138"><defs><style>.cls-1{fill:#ef5350;}.cls-2{isolation:isolate;}.cls-3{fill:#fff;}</style></defs><title>色塊</title><path id="Path_93" data-name="Path 93" class="cls-1" d="M67.77,3.16,4.57,39.65a6.91,6.91,0,0,0-2.52,9.44c.09.15.18.3.28.44a202.79,202.79,0,0,0,152.11,87.81,6.91,6.91,0,0,0,7.42-6.37c0-.17,0-.34,0-.51v-73a19.2,19.2,0,0,0-15.15-18.69A106.24,106.24,0,0,1,91.61,7,19.27,19.27,0,0,0,67.77,3.16Z"/><g id="S" class="cls-2"><g class="cls-2"><path class="cls-3" d="M69.51,76.63l10-1q.9,5,3.67,7.4a11,11,0,0,0,7.45,2.36q5,0,7.49-2.1a6.27,6.27,0,0,0,2.51-4.91,4.63,4.63,0,0,0-1.06-3.08,8.43,8.43,0,0,0-3.7-2.2c-1.2-.42-4-1.16-8.23-2.23q-8.26-2-11.6-5a13.22,13.22,0,0,1-4.69-10.24,13.09,13.09,0,0,1,2.2-7.28,13.79,13.79,0,0,1,6.36-5.16,25.51,25.51,0,0,1,10-1.77q9.6,0,14.44,4.2a14.82,14.82,0,0,1,5.09,11.22l-10.29.45c-.44-2.61-1.38-4.5-2.83-5.64s-3.62-1.72-6.51-1.72a11.73,11.73,0,0,0-7,1.84,3.71,3.71,0,0,0-1.63,3.16A3.89,3.89,0,0,0,82.71,58q1.94,1.64,9.45,3.41a50.07,50.07,0,0,1,11.1,3.66,14.45,14.45,0,0,1,5.63,5.18,15.18,15.18,0,0,1,2,8.11,15,15,0,0,1-2.43,8.2,14.63,14.63,0,0,1-6.88,5.68,28.87,28.87,0,0,1-11.09,1.86q-9.66,0-14.83-4.46T69.51,76.63Z"/></g></g></svg>