<svg width="351" height="329" viewBox="0 0 351 329" fill="none" xmlns="http://www.w3.org/2000/svg">
<path d="M94.31 139.73L90.36 0.459991L283.66 1.83999L275.27 139.73H94.31Z" fill="#A39484"/>
<path d="M94.16 4.17999L97.9 136H271.8L279.73 5.47999L94.16 4.17999Z" fill="#F8F3E0"/>
<path d="M135.68 78.54V101.71L114.82 91.71C112.654 96.2389 112.018 101.349 113.009 106.271C114.001 111.193 116.565 115.659 120.316 118.996C124.067 122.333 128.801 124.36 133.804 124.772C138.808 125.184 143.81 123.958 148.056 121.279C152.302 118.601 155.562 114.614 157.345 109.921C159.128 105.228 159.336 100.082 157.94 95.2598C156.543 90.4375 153.617 86.2 149.602 83.186C145.586 80.172 140.7 78.5449 135.68 78.55V78.54Z" fill="#B0B54F"/>
<path d="M133.39 98V74.84C129.023 74.843 124.746 76.08 121.052 78.4084C117.358 80.7368 114.397 84.0617 112.51 88L133.39 98Z" fill="#FFD765"/>
<path d="M110.94 21.17L114 63.05H121.06V21.17H110.94Z" fill="#EF384C"/>
<path d="M123.84 13.55L126.08 63.05H133.47V13.55H123.84Z" fill="#8F78D6"/>
<path d="M137.25 34.73L138.43 63.05H144.91L145.91 34.73H137.25Z" fill="#FFD765"/>
<path d="M148 24.87L149.2 63.05H155.76L156.76 24.87H148Z" fill="#A8CDF7"/>
<path d="M176.08 13.05H171.32V17.81H176.08V13.05Z" fill="#EF384C"/>
<path d="M176.08 30.82H171.32V35.58H176.08V30.82Z" fill="#8F78D6"/>
<path d="M176.08 48.59H171.32V53.35H176.08V48.59Z" fill="#FFC92E"/>
<path d="M176.08 66.37H171.32V71.13H176.08V66.37Z" fill="#A8CDF7"/>
<path d="M211.3 22.53H180.81V24.53H211.3V22.53Z" fill="#BBAFA3"/>
<path d="M230.25 13.05H180.81V15.05H230.25V13.05Z" fill="#BBAFA3"/>
<path d="M220.77 17.79H184.74V19.79H220.77V17.79Z" fill="#BBAFA3"/>
<path d="M230.26 22.53H218.39V24.53H230.26V22.53Z" fill="#BBAFA3"/>
<path d="M211.3 40.17H192.61V42.17H211.3V40.17Z" fill="#BBAFA3"/>
<path d="M230.25 30.68H180.81V32.68H230.25V30.68Z" fill="#BBAFA3"/>
<path d="M220.77 35.42H180.81V37.42H220.77V35.42Z" fill="#BBAFA3"/>
<path d="M230.26 40.17H218.39V42.17H230.26V40.17Z" fill="#BBAFA3"/>
<path d="M211.3 58.08H180.81V60.08H211.3V58.08Z" fill="#BBAFA3"/>
<path d="M230.25 48.59H180.81V50.59H230.25V48.59Z" fill="#BBAFA3"/>
<path d="M220.77 53.34H184.74V55.34H220.77V53.34Z" fill="#BBAFA3"/>
<path d="M230.26 58.08H218.39V60.08H230.26V58.08Z" fill="#BBAFA3"/>
<path d="M203.44 75.85H180.81V77.85H203.44V75.85Z" fill="#BBAFA3"/>
<path d="M230.25 71.11H180.81V73.11H230.25V71.11Z" fill="#BBAFA3"/>
<path d="M230.25 75.85H210.52V77.85H230.25V75.85Z" fill="#BBAFA3"/>
<path d="M196.05 66.37H180.81V68.37H196.05V66.37Z" fill="#BBAFA3"/>
<path d="M230.25 66.37H199.86V68.37H230.25V66.37Z" fill="#BBAFA3"/>
<path d="M220.77 89.68H171.33V93.51H220.77V89.68Z" fill="#BBAFA3"/>
<path d="M201.83 110.53H171.34V112.53H201.83V110.53Z" fill="#BBAFA3"/>
<path d="M220.78 101.04H171.34V103.04H220.78V101.04Z" fill="#BBAFA3"/>
<path d="M211.3 105.78H175.26V107.78H211.3V105.78Z" fill="#BBAFA3"/>
<path d="M220.78 110.53H208.91V112.53H220.78V110.53Z" fill="#BBAFA3"/>
<path d="M220.77 117.3H178.87V119.3H220.77V117.3Z" fill="#BBAFA3"/>
<path d="M263.83 13.05H248.54V32.68H263.83V13.05Z" fill="#FFD765"/>
<path d="M263.83 32.35H248.54V66.37H263.83V32.35Z" fill="#C9C94F"/>
<path d="M263.83 66.37H248.54V81.66H263.83V66.37Z" fill="#8F78D6"/>
<path d="M263.83 81.66H248.54V119.3H263.83V81.66Z" fill="#A8CDF7"/>
<path d="M167.1 88.54C164.92 87.23 159.15 85.67 157.69 83.62C156.579 82.0713 155.312 80.6406 153.91 79.35C152.07 77.49 151.38 74.45 149.85 74.49C148.32 74.53 149.1 77.94 150.19 79.17C151.28 80.4 152.29 82.48 151.6 82.61C149.932 82.7544 148.252 82.6872 146.6 82.41C145.06 82.03 138.12 79.98 137.26 80.82C136.4 81.66 137.16 82.52 138.36 83.13C139.56 83.74 145.22 84.87 145.59 85.13C143.958 84.9523 142.347 84.6174 140.78 84.13C138.78 83.58 137.01 83.48 137.1 84.79C137.22 86.35 141.99 87.36 142.1 87.79C142.21 88.22 142.98 90.29 144.3 90.45C144.3 90.45 145.37 92.4 146.69 92.54C148.351 92.5587 149.995 92.8807 151.54 93.49C152.94 94.12 155.19 93.84 156.99 93.7C157.65 93.65 162.7 96.85 163.17 96.89C165.61 97.16 167.1 88.54 167.1 88.54Z" fill="#F0BB8F"/>
<path d="M265.6 266.74C265.71 269.01 268.53 271.3 270.49 273.36C272.45 275.42 272.99 276.73 270.92 279.36C268.85 281.99 259.92 282.48 256.39 281.04C254 280.04 251.7 271.22 249.86 270.67C248.02 270.12 247.51 270.38 247.16 268.57C246.98 266.634 246.98 264.686 247.16 262.75L265.6 266.74Z" fill="#4C3E35"/>
<path d="M228.48 261.62C228.77 263.13 229.48 265.04 227.81 266.41C226.545 267.524 224.925 268.152 223.24 268.18C221.94 268.18 221.74 270.64 219.68 272.55C217.62 274.46 215.45 275.84 210.87 276.25C206.29 276.66 202.26 275.84 201.78 275.36C201.3 274.88 200.83 270.98 201.78 269.62C202.73 268.26 207.11 266.82 207.86 266C209.193 264.624 210.237 262.996 210.93 261.21C211.42 259.44 228.48 261.62 228.48 261.62Z" fill="#4C3E35"/>
<path d="M253.75 131.23C254.4 137.23 256.43 161.23 257.93 175.76C259.15 187.56 262.09 207.71 262.09 211.07C262.09 214.43 267.09 265.65 267.09 265.65C267.09 265.65 266.55 267.46 263.31 266.53C257.64 264.9 249.65 266.69 247.04 267.06C244.43 267.43 246.43 242.79 243.04 224.51C239.65 206.23 228.86 159.2 228.86 159.2C228.86 159.2 228.12 195.4 228.86 203.98C229.6 212.56 229.98 259.77 229.61 260.89C229.24 262.01 224.38 262.38 221.39 261.27C218.4 260.16 209.46 262.2 208.89 261.45C208.32 260.7 209.46 247.64 210.39 240.36C211.32 233.08 209.9 213.31 208.74 207.71C207.58 202.11 206.28 182.71 205.91 176.37C205.54 170.03 205.28 131.23 205.28 131.23H253.75Z" fill="#6F8FEA"/>
<path d="M221.29 255.83C220.84 257.03 208.62 260.97 208.84 257.52C208.673 258.826 208.697 260.15 208.91 261.45C209.47 262.2 218.43 260.15 221.41 261.27C224.39 262.39 229.25 262.01 229.63 260.89C230.01 259.77 229.63 212.56 228.88 203.99C228.13 195.42 228.88 159.2 228.88 159.2L227.5 131.2H215.9C215.9 131.2 216.04 173.2 217.62 185.86C219.2 198.52 221.74 254.63 221.29 255.83Z" fill="#5273D2"/>
<path d="M263.3 266.53C266.54 267.46 267.08 265.65 267.08 265.65C267.08 265.65 262.08 214.44 262.08 211.07C262.08 207.7 259.14 187.56 257.92 175.76C256.41 161.19 254.39 137.19 253.73 131.23H240.63C242.23 142.05 252.63 207.79 253.93 213.63C255.37 219.96 258.06 262.11 258.06 262.11C253.958 262.375 249.875 262.876 245.83 263.61C246.07 265.84 246.42 267.15 247.03 267.07C249.64 266.69 257.63 264.9 263.3 266.53Z" fill="#5273D2"/>
<path d="M314.56 143.05C314.48 142.32 306.84 135.55 306.96 135.39C307.08 135.23 309.03 136.79 311.76 138.85C314.49 140.91 315.2 141.15 315.48 139.85C315.76 138.55 309.29 133.78 307.81 132.32C306.33 130.86 304.37 128.68 304.81 127.88C305.25 127.08 307.1 128.03 309.4 128.58C311.7 129.13 313.09 128 313.22 127.36C313.35 126.72 309.79 125.91 307.13 124.81C304.47 123.71 303.31 123.81 300.8 123.81C299.524 123.794 298.26 123.565 297.06 123.13C296.11 122.66 295.17 122.13 294.36 121.7C291.87 120.22 274.63 100.8 274.63 100.8C273.853 100.597 273.06 100.463 272.26 100.4C266.63 99.9 260.5 102.4 259.46 104.93C261.14 107.87 279.14 120.63 286 125.07C287.081 125.857 288.086 126.744 289 127.72C290 128.82 291.09 128.78 292.57 130.4C292.701 130.555 292.821 130.719 292.93 130.89C293.93 132.52 295.93 136.08 297.28 136.89C299.143 138.018 300.808 139.443 302.21 141.11C304.21 143.39 306.48 145.52 307.38 144.77C308.03 144.23 305.38 141.1 304.09 139.7C308.09 144.11 310.54 145.79 311.53 144.53C311.99 143.94 304.58 137.09 304.9 136.97C305.22 136.85 311.61 143.84 313.05 144.42C314.17 144.93 314.64 143.78 314.56 143.05Z" fill="#F0BB8F"/>
<path d="M234 47.19C233.26 51.75 237.83 54.7 241.63 55.97C245.43 57.24 255.63 55.46 259.63 61.8C263.63 68.14 271.3 97.09 273.58 99.37C275.86 101.65 296.25 120.59 296.25 120.59C296.25 120.59 294.91 129.83 288.05 132.59C288.05 132.59 262.16 110.76 259.37 106.7C256.58 102.64 250.49 86.4 250.49 86.4C250.49 86.4 251 100.86 251.76 106.4C252.52 111.94 256.29 127.34 253.76 131.15C253.76 131.15 228.09 142.76 205.31 131.15C204.36 123.349 204.36 115.461 205.31 107.66C205.92 103.03 204.86 92.18 204.86 92.18C204.86 92.18 190.07 109.53 187.79 109C185.51 108.47 171.36 105 162.98 99.12C162.98 99.12 161.55 90.85 166.31 88L184.31 93.31C184.2 94.1 194.46 80.51 196.25 71.67C196.818 69.3409 197.929 67.1796 199.494 65.3631C201.058 63.5467 203.031 62.1268 205.25 61.22C210.25 59.22 215.25 58.43 217.91 54.98C220.57 51.53 234 47.19 234 47.19Z" fill="#614F45"/>
<path d="M210.48 30.72C211.02 33.49 211.57 38.32 213.34 40.22C215.11 42.12 217.62 35.65 217.62 35.65C217.62 35.65 214.42 29.65 214.05 29.65C213.68 29.65 210.48 30.72 210.48 30.72Z" fill="#B38644"/>
<path d="M238.05 54.3C235.49 52.71 233.45 50.3 233.96 47.19C233.96 47.19 220.48 51.54 217.84 55C217.498 55.4501 217.109 55.8625 216.68 56.23C216.68 56.23 219.8 61.81 225.76 61.23C231.72 60.65 238.06 54.33 238.06 54.33L238.05 54.3Z" fill="#4C3E35"/>
<path d="M212.42 31.1C211.58 32.85 213.27 37.1 212.85 38.26C212.43 39.42 212.38 44.52 214.33 48.49C216.28 52.46 226.76 52.24 226.76 52.24L231.76 49.43L234.5 41.67L235.56 30.11L227 25.27L212.42 31.1Z" fill="#F0BB8F"/>
<path d="M228 25.85C227.5 30.08 233.72 34.68 233.1 36.55C232.48 38.42 233.23 42.77 231.1 46.26C228.97 49.75 226.3 49 226.3 49C226.3 49 223.67 45.3 220.19 45.68C216.71 46.06 217.55 47.9 216.43 48.68C216.111 48.8885 215.731 48.9849 215.351 48.9541C214.971 48.9234 214.612 48.7671 214.33 48.51C214.207 48.9318 214.17 49.3741 214.221 49.8105C214.273 50.2469 214.412 50.6685 214.63 51.05C216.04 53.3916 217.785 55.5141 219.81 57.35C222.81 60.13 227.27 57.35 229.01 56.23C230.75 55.11 236.38 48.33 236.88 45.8C237.154 44.2113 236.956 42.5772 236.31 41.1C237.15 39.7098 237.679 38.1541 237.86 36.54C238.21 33.72 238.91 29.86 237.01 26.54C235.11 23.22 231.11 21.27 228.86 22.11L228 25.85Z" fill="#B38644"/>
<path d="M228 27C227.547 27.3244 227.029 27.5476 226.482 27.6546C225.935 27.7615 225.372 27.7498 224.83 27.62C222.93 27.2 222.83 32.19 216.54 32.96C210.25 33.73 205.65 26.33 205.65 26.33C205.65 26.33 211.41 27.33 213.24 24.46C215.07 21.59 218.15 18.21 223.91 19.05C229.67 19.89 228.83 22.14 228.83 22.14L228 27Z" fill="#B38644"/>
<path d="M234.06 39.23C234.06 38.39 233.61 35.56 234.81 35.14C236.01 34.72 235.17 38.61 235.17 40.04C235.17 41.47 235.8 42.69 235.11 43.34C234.42 43.99 233.94 42.65 234 42C234.06 41.08 234.08 40.16 234.06 39.23Z" fill="#F0BB8F"/>
<path d="M220.65 47.21C221.594 47.2597 222.508 47.5578 223.3 48.074C224.092 48.5902 224.734 49.3064 225.16 50.15C225.46 51.01 223.85 51.15 221.74 51.44C219.29 51.73 217.45 50.83 217.32 50.34C217.283 49.963 217.32 49.5824 217.43 49.2199C217.54 48.8575 217.721 48.5203 217.961 48.2277C218.202 47.935 218.498 47.6928 218.832 47.5147C219.167 47.3367 219.533 47.2263 219.91 47.19C220.156 47.1616 220.406 47.1684 220.65 47.21V47.21Z" fill="#F0BB8F"/>
<path d="M204.63 78.19C204.63 78.19 189.63 104.35 187.99 105.08C186.35 105.81 164.24 97.36 163.12 96.96L162.8 97.13C162.8 98.31 162.97 99.13 162.97 99.13C171.35 104.96 185.5 108.49 187.79 109C190.08 109.51 204.85 92.25 204.85 92.25L204.63 78.19Z" fill="#4C3E35"/>
<path d="M265.72 104.33C263.09 100.21 250.48 72.12 250.48 72.12V86.43C250.48 86.43 256.57 102.67 259.36 106.73C262.15 110.79 288 132.62 288 132.62C289.487 132.004 290.817 131.06 291.89 129.86C288.21 126.46 268.11 108.05 265.72 104.33Z" fill="#4C3E35"/>
<path d="M251.07 98.58C251.43 105.64 250.92 115.31 244.82 117.31C238.24 119.46 227.59 120.13 223.82 119.31C223.82 119.31 227.66 122.31 243.14 121.44C258.62 120.57 231.54 135.23 205.14 125.54L204.7 125.39C204.9 128.97 205.23 131.23 205.23 131.23C228 142.84 253.67 131.23 253.67 131.23C256.21 127.42 252.44 112.06 251.67 106.48C251.49 104.57 251.26 101.63 251.07 98.58Z" fill="#4C3E35"/>
<path d="M287.62 246.84H240.13L236.54 207.75H284L287.62 246.84Z" fill="#585A88"/>
<path d="M289.25 244H241.76L238.63 209.6H286.11L289.25 244Z" fill="white"/>
<path opacity="0.5" d="M289.25 244H241.76L238.63 209.6H286.11L289.25 244Z" fill="#C7E1FF"/>
<path d="M285.53 212.42L288.41 244H289.25L286.11 209.6H238.63L238.88 212.43L285.53 212.42Z" fill="#A8CDF7"/>
<path d="M275.78 179.31C275.78 179.31 275.54 185.42 273.95 188.71L270.4 201.27L281.2 204.64V183.32L275.78 179.31Z" fill="#FFC191"/>
<path d="M286.62 179.31C286.62 179.31 286.87 185.42 288.46 188.71L291.8 200.37L281.2 204.63V183.32L286.62 179.31Z" fill="#FFC191"/>
<path d="M275.52 182.26C275.63 181.34 275.71 180.55 275.74 180.02L275.8 179.34L281.2 183.34L286.35 179.52L286.65 179.68C286.738 181.147 286.902 182.609 287.14 184.06L287.38 185.32C287.38 185.32 286.53 187.19 282.17 187.19C278.21 187.17 275.52 182.26 275.52 182.26Z" fill="#F09F5B"/>
<path d="M290.39 178.36C290.39 178.36 291.74 177.11 291.88 176.49L290.88 176.09L290.39 178.36Z" fill="#622818"/>
<path d="M272.24 178.36C272.24 178.36 270.88 177.11 270.75 176.49L271.75 176.09L272.24 178.36Z" fill="#622818"/>
<path d="M293 169.67C293 169.67 294.71 162.14 292.71 157.94C290.54 153.43 287.3 150.84 281.36 150.84C275.42 150.84 272.17 153.43 270.01 157.94C268.01 162.14 269.72 169.67 269.72 169.67C267.02 169.12 267.52 172.15 268.37 173.52C268.884 174.286 269.269 175.13 269.51 176.02C269.541 176.238 269.635 176.443 269.78 176.609C269.926 176.774 270.117 176.894 270.329 176.952C270.542 177.01 270.767 177.005 270.977 176.938C271.187 176.87 271.372 176.742 271.51 176.57C272.33 178.88 272.9 179.43 276.13 182.49C278.95 185.13 279.94 185.11 281.36 185.11C282.78 185.11 283.74 185.11 286.59 182.49C289.82 179.44 290.39 178.89 291.2 176.57C291.399 176.803 291.683 176.947 291.988 176.971C292.294 176.995 292.596 176.898 292.83 176.7C293.028 176.521 293.161 176.282 293.21 176.02C293.45 175.131 293.831 174.287 294.34 173.52C295.14 172.15 295.64 169.12 293 169.67Z" fill="#FFC191"/>
<path d="M289.05 150.84C287.183 149.811 285.086 149.272 282.955 149.272C280.824 149.272 278.727 149.811 276.86 150.84C263.15 152.4 267.95 170.11 267.95 170.11C268.16 169.877 268.435 169.711 268.739 169.633C269.043 169.555 269.363 169.567 269.66 169.67C269.48 168.39 271.03 166.82 273.46 164.98C274.969 163.793 276.142 162.231 276.86 160.45C277.783 161.991 279.02 163.321 280.489 164.354C281.958 165.388 283.628 166.102 285.39 166.45C291.49 167.69 292.76 168.57 292.95 169.71C293.247 169.607 293.567 169.595 293.871 169.673C294.175 169.751 294.45 169.917 294.66 170.15C294.66 170.15 298.37 155.82 289.05 150.84Z" fill="#7C3322"/>
<path d="M272.2 178.29C272.2 178.29 270.84 177.09 270.7 176.52L271.7 176.14L272.2 178.29Z" fill="#622818"/>
<path d="M290.34 178.29C290.34 178.29 291.69 177.09 291.83 176.52L290.83 176.14L290.34 178.29Z" fill="#622818"/>
<path d="M273.53 152.12C275.409 151.134 277.498 150.62 279.62 150.62C281.741 150.62 283.831 151.134 285.71 152.12C299.43 153.59 294.63 170.46 294.63 170.46C294.416 170.231 294.141 170.07 293.837 169.995C293.534 169.921 293.215 169.936 292.92 170.04C293.1 168.81 291.55 167.32 289.12 165.57C287.623 164.461 286.45 162.973 285.72 161.26C284.767 162.742 283.517 164.011 282.049 164.985C280.581 165.959 278.926 166.618 277.19 166.92C271.09 168.11 269.81 168.92 269.63 170.04C269.334 169.934 269.013 169.918 268.707 169.992C268.401 170.067 268.124 170.23 267.91 170.46V170.46C267.91 170.46 264.21 156.86 273.53 152.12Z" fill="#7C3322"/>
<path d="M274.73 186.54C274.309 187.352 273.709 188.057 272.974 188.601C272.239 189.145 271.389 189.514 270.49 189.68C267.16 190.52 267.13 199.43 267.13 199.43L272.23 218.32L280.31 222.65V190.77L274.73 186.54Z" fill="#FFC191"/>
<path d="M285.9 186.54C286.321 187.352 286.921 188.057 287.656 188.601C288.391 189.145 289.241 189.514 290.14 189.68C293.46 190.52 293.48 199.43 293.48 199.43L288.38 218.32L280.31 222.65V190.77L285.9 186.54Z" fill="#FFC191"/>
<path d="M301.65 239.63C300.842 234.653 300.418 229.622 300.38 224.58V224.15C300.38 223.61 300.48 221.27 300.49 218.45L301.82 224.92C301.82 224.92 318.37 226.2 318.37 225.99C318.37 221.71 314.37 211.2 312.7 204.64C310.44 195.56 309.02 193.13 300.2 191.97C297.271 191.584 294.394 190.877 291.62 189.86V189.86L290.96 189.69C291.96 193.12 268.81 193.19 269.83 189.69C269.43 189.78 268.83 189.97 268.22 190.17C264.71 191.07 254.53 189.65 252.48 199.33C251.2 205.42 245.21 224.17 245.21 232.02C248.06 234.38 258.55 224.83 261.7 226.81C262.196 225.754 262.553 224.638 262.76 223.49C262.91 226.09 256.37 258.61 253.76 262.59C251.15 266.57 250.87 272.18 251.65 276.59C252.43 281 254.08 282.28 259.31 284.17L281.11 283.41C281.11 283.41 306.29 284.16 308.29 280.41C310.71 275.88 310.38 265.78 307.76 261.16C304.92 256.24 301.65 239.63 301.65 239.63Z" fill="#EF384C"/>
<path d="M288.67 158.35C285.222 157.821 281.7 158.049 278.35 159.02C274.65 160.18 270.87 166.58 269.54 169.02L269.68 169.71C269.517 169.695 269.353 169.695 269.19 169.71L269 170C270.18 171.46 271.41 176.62 271.41 176.62C272.23 178.93 272.8 179.48 276.03 182.54C278.85 185.18 279.84 185.15 281.26 185.15C282.68 185.15 283.64 185.15 286.49 182.54C289.72 179.49 290.29 178.94 291.1 176.62C291.16 176.678 291.227 176.729 291.3 176.77C292.119 174.512 292.653 172.16 292.89 169.77C294.11 157.51 289.27 158.58 288.67 158.35Z" fill="#7C3322"/>
<path d="M293.7 169.29C293.7 169.29 295.56 161.29 293.4 156.88C291.05 152.1 287.54 149.36 281.1 149.36C274.66 149.36 271.1 152.1 268.8 156.88C266.62 161.31 268.48 169.29 268.48 169.29C265.56 168.7 266.11 171.91 267.02 173.36C267.583 174.164 267.999 175.061 268.25 176.01C268.313 176.337 268.503 176.626 268.779 176.813C269.054 177.001 269.392 177.072 269.72 177.01C269.991 176.958 270.237 176.817 270.42 176.61C271.3 179.05 271.93 179.61 275.42 182.86C278.47 185.67 279.54 185.64 281.08 185.64C282.62 185.64 283.66 185.64 286.75 182.86C290.25 179.64 290.86 179.05 291.75 176.61C291.859 176.733 291.992 176.834 292.14 176.905C292.289 176.977 292.45 177.019 292.614 177.028C292.779 177.037 292.943 177.014 293.099 176.959C293.254 176.905 293.397 176.82 293.52 176.71C293.721 176.528 293.858 176.286 293.91 176.02C294.175 175.076 294.591 174.182 295.14 173.37C296.07 171.91 296.62 168.7 293.7 169.29Z" fill="#965438"/>
<path opacity="0.5" d="M311.3 199.7C311.21 199.42 311.12 199.17 311.02 198.92C309.84 195.92 308.36 194.22 305.56 193.16C308.85 197.47 308.3 208.57 308.3 208.57C308.3 208.57 271.82 211.35 249.36 211.37C247.36 218.82 245.23 227.37 245.23 232.09C246.23 232.94 248.29 232.23 250.61 231.09C253.51 227.33 256.67 223.19 258.3 223.55C259.746 223.808 261.211 223.942 262.68 223.95C262.68 223.82 262.75 223.69 262.77 223.57C262.78 223.69 262.78 223.81 262.77 223.93C270.29 224.1 283.77 223.15 300.39 224.77V224.58V224.14C300.39 223.61 300.49 221.27 300.5 218.44L301.83 224.91L304.15 225.09C308.863 225.36 313.587 225.36 318.3 225.09C317.87 220.39 314.24 210.8 312.7 204.63C312.26 202.9 311.85 201.39 311.42 200.07C311.39 199.94 311.35 199.83 311.3 199.7Z" fill="#D9293C"/>
<path d="M281.09 149.36C271.45 150.36 264.49 152.95 262.79 178.3L262.08 186.55C262.08 186.55 266.86 190.97 280.31 190.77C293.76 190.57 298.59 186.55 298.59 186.55C298.59 186.55 303.37 148.35 281.09 149.36Z" fill="#614F45"/>
<path opacity="0.5" d="M300.22 192C297.29 191.619 294.412 190.911 291.64 189.89V189.89L290.99 189.72C291.99 193.15 268.83 193.22 269.86 189.72C269.46 189.81 268.86 190 268.24 190.2C267.604 190.341 266.959 190.438 266.31 190.49C271.16 195 286 199.92 300.22 192Z" fill="#D9293C"/>
<path d="M298.58 186.55C298.58 186.55 302.67 153.83 285.58 149.78C291.18 154.16 292.58 163.78 288.73 174.35C284.05 187.09 267.73 185.04 262.96 176.12C262.89 176.84 262.83 177.53 262.77 178.3L262.06 186.55C262.06 186.55 266.84 190.97 280.29 190.77C293.74 190.57 298.58 186.55 298.58 186.55Z" fill="#4C3E35"/>
<path d="M338.09 263.66C320.34 241.11 320.35 192.74 284.68 192.74C245.9 192.74 249.44 241.46 231.27 263.66C218.13 279.72 208.66 318.6 241.85 327.17C250.57 329.43 270.66 328.23 284.68 328.17C298.7 328.11 318.79 329.39 327.51 327.17C360.7 318.6 352 281.3 338.09 263.66Z" fill="#C9C94F"/>
<path opacity="0.6" d="M294.37 194.14C310.88 221.21 315.23 264.2 292.77 279.3C268.29 295.76 230.85 284.3 225.41 272.91C216.19 291.39 214 320 241.85 327.17C250.57 329.43 270.66 328.23 284.68 328.17C298.7 328.11 318.79 329.39 327.51 327.17C360.71 318.6 351.97 281.3 338.09 263.66C322.12 243.37 320.51 202.2 294.37 194.14Z" fill="#B0B54F"/>
<path d="M252.64 328.54C243.47 325.42 244.93 311.66 244.93 311.66C244.93 311.66 246.38 323.16 255.77 325.83C255.77 325.83 253.89 321.67 254.94 318.33C254.94 318.33 256.31 326.1 268.03 328.47L252.64 328.54Z" fill="#B0B54F"/>
<path d="M307.48 327.09C310.19 325 312.69 315.41 312.69 315.41C311.441 319.017 309.019 322.102 305.81 324.17C309.81 317.91 308.94 297.9 308.94 297.9C308.1 311.45 303.94 323.34 296.62 328.38C304.22 328.53 312.16 328.67 318.57 328.31C322.7 326.63 322.9 321.67 322.9 321.67C321.054 323.876 318.648 325.544 315.934 326.498C313.221 327.451 310.3 327.656 307.48 327.09Z" fill="#B0B54F"/>
<path d="M332.52 254.83C332.52 254.83 334.58 271.01 320.62 277.05C320.62 277.05 327.29 277.05 335.62 265.67C335.62 265.67 336.46 272.67 333.54 274.76C333.54 274.76 337.21 271.96 338.09 263.66L332.52 254.83Z" fill="#B0B54F"/>
<path opacity="0.6" d="M239.32 249.58C238.32 252.01 237.19 254.35 235.98 256.58L236.09 256.78C241.09 264.96 261.25 263.95 261.25 263.95C261.25 263.95 243.89 260.54 239.32 249.58Z" fill="#B0B54F"/>
<path d="M71.73 251.61L79.46 212.61H129.8L124.7 251.61H71.73Z" fill="#585A88"/>
<path d="M80.72 214.16H128.05L123.35 250.08H73.6L80.72 214.16Z" fill="white"/>
<path opacity="0.5" d="M80.72 214.16H128.05L123.35 250.08H73.6L80.72 214.16Z" fill="#C7E1FF"/>
<path d="M113.49 234.88H122.17L120.71 244.51H112L113.49 234.88Z" fill="#A8CDF7"/>
<path d="M102 253.69L86.39 245.75L89.52 235.48L100.77 241.41L102 253.69Z" fill="#B0B54F"/>
<path opacity="0.5" d="M127.62 217.46L128.05 214.16H80.72L80.06 217.46H127.62Z" fill="#A8CDF7"/>
<path d="M84.19 154.63C85.123 158.003 85.5079 161.505 85.33 165C84.8406 166.034 84.6567 167.185 84.8 168.32C85.01 170.08 85.95 172.04 83.15 177.02C80.35 182 82.32 182.93 79.15 183.34C75.98 183.75 69 179.51 69 179.51L66.83 158.36L84.19 154.63Z" fill="#F0BB8F"/>
<path d="M74.93 182.48C74.11 184.48 76.09 187.59 76.09 187.59C76.09 187.59 57.09 186.87 55.58 184.78C54.07 182.69 55.58 179.24 55.58 179.24L72.3 177.7L74.93 182.48Z" fill="#F0BB8F"/>
<path d="M78.37 169.85C78.19 169.58 79.19 165.43 76.37 164.85C73.55 164.27 73.03 166.85 73.57 169.28C74.11 171.71 76.12 172.17 75.88 174.61C75.64 177.05 73.39 178.31 71.88 180.48C70.37 182.65 56.53 181.48 54.99 180.48C53.45 179.48 54.09 175.78 52.19 172.8C49.0813 167.867 47.9426 161.944 49 156.21C49.6553 152.492 51.5294 149.098 54.3268 146.563C57.1242 144.029 60.6858 142.497 64.45 142.21C71.77 141.85 79.45 147.14 81.73 147.99C85.39 149.36 84.94 148.72 85.39 149.36C85.84 150 86.91 155.54 84.39 157.26C81.87 158.98 79.46 160.91 79.39 162.53C79.32 164.15 79.65 168.58 79.65 168.58L78.37 169.85Z" fill="#52380F"/>
<path d="M49.58 187.59C52.48 184.71 51.21 182.14 53.27 181.74C55.33 181.34 69.67 182.58 72.75 183.74C75.83 184.9 76.52 186.1 78.04 188.98C79.56 191.86 88.57 194.58 91.28 194.92C93.99 195.26 96.71 195.26 98.57 199.67C100.43 204.08 112.66 238.67 113 240.74C113.34 242.81 114 250.24 112 251.94C110 253.64 104.37 254.82 102 253.64C99.63 252.46 91.14 240.4 91.14 240.4C91.14 240.4 95.38 256.52 95.21 258.56C95.04 260.6 79.94 269.41 59.91 269.76C39.88 270.11 40.23 266.7 40.23 266.7C40.23 266.7 38.37 231.24 34.46 223.77C30.55 216.3 28.53 211.56 29.71 204.43C30.89 197.3 32.94 195.77 34.46 195.43C35.98 195.09 47.54 189.62 49.58 187.59Z" fill="#C9C94F"/>
<path d="M112 252C113.06 251.12 113.37 248.68 113.4 246.25C111.95 246.35 108.24 246.57 107.4 246.25C106.4 245.79 87.74 217.51 87.74 217.51L91.1 240.51C91.1 240.51 99.58 252.56 101.96 253.75C104.34 254.94 109.94 253.69 112 252Z" fill="#B0B54F"/>
<path d="M93 257.08C98.9229 254.421 104.985 252.085 111.16 250.08C113.1 249.65 119.3 249.08 120.49 250.08C121.68 251.08 127.28 256.7 127.11 259.25C126.94 261.8 126.67 272.1 117.89 285.46L87.77 283.7V256.32L93 257.08Z" fill="#4C3E35"/>
<path d="M80.81 147.55C77.81 146.05 71 141.89 64.47 142.21C60.7059 142.497 57.1443 144.029 54.3468 146.563C51.5494 149.098 49.6753 152.492 49.02 156.21C48.87 157.12 48.76 158.02 48.7 158.94C49.7 166.62 59.99 170.26 66.78 166.48C73.57 162.7 73.08 156.32 78.45 153.25C82.07 151.18 81.54 148.85 80.81 147.55Z" fill="#5A3E10"/>
<path d="M23.73 192.86C-3.75999 200.78 -7.68999 280 16.67 311.07C26.53 323.65 33.97 323.69 46.32 324.12C67.78 324.86 80.24 324.29 96.23 324.65C123.09 325.26 147.31 327.24 152.45 319.65C158.45 310.76 159.95 283.65 138.71 270.27C117.47 256.89 95.59 250.15 83.71 235.52C71.83 220.89 58.31 182.88 23.73 192.86Z" fill="#A98AF4"/>
<path opacity="0.5" d="M102.43 304.58C60.26 296.46 22.04 275.88 12.06 202.08C-4.28001 225.64 -3.67001 285.08 16.67 311.08C26.53 323.66 33.97 323.71 46.32 324.13C67.78 324.87 80.24 324.3 96.23 324.66C123.09 325.27 147.31 327.25 152.45 319.66C155.45 315.25 157.31 306.38 155.84 296.91C155.84 296.91 144.59 312.7 102.43 304.58Z" fill="#8F78D6"/>
<path d="M46.32 324.11C35.18 312.72 29.62 289.88 29.62 289.88C29.62 289.88 31.62 315.33 40.73 323.88L46.32 324.11Z" fill="#8F78D6"/>
<path d="M44.83 309.3C44.83 309.3 42.53 318.93 46.32 324.11H53.61C53.61 324.11 47.47 324.72 44.83 309.3Z" fill="#8F78D6"/>
<path d="M40.73 323.88C40.73 323.88 32 316.29 29.62 310.74C29.62 310.74 33.02 320.15 36.48 323.5C37.84 323.68 39.26 323.8 40.73 323.88Z" fill="#8F78D6"/>
<path opacity="0.5" d="M100.5 268.47C100.5 268.47 99.21 251.73 96.5 248C96.5 248 101.5 250.71 103.99 254.56C103.587 252.972 102.911 251.466 101.99 250.11C97.5828 247.602 93.4182 244.689 89.55 241.41C97.26 250.49 100.5 268.47 100.5 268.47Z" fill="#8F78D6"/>
<path d="M108.16 314.82C108.19 314.635 108.21 314.448 108.22 314.26C108.22 314.26 108.2 314.47 108.16 314.82Z" fill="#8F78D6"/>
<path d="M114.78 323.62C118.99 319.85 119.1 311.75 119.1 311.75C116.237 317.179 111.368 321.276 105.53 323.17C107.19 322.02 107.95 316.57 108.16 314.82C107.93 316.23 106.79 320.2 101.08 324.77C109.25 324.99 117.55 325.27 125.2 325.33C127.066 323.884 128.549 322.002 129.52 319.85C123.55 325.34 114.78 323.62 114.78 323.62Z" fill="#8F78D6"/>
<path d="M115.53 222.48H124.22L122.76 232.12H114L115.53 222.48Z" fill="#A8CDF7"/>
</svg>
