<svg width="380" height="289" viewBox="0 0 380 289" fill="none" xmlns="http://www.w3.org/2000/svg">
<path d="M332.35 190.408H322.33V261.678H332.35V190.408Z" fill="#9AA1A7"/>
<path d="M363.41 171.318H357.86V191.148H363.41V171.318Z" fill="#9AA1A7"/>
<path d="M365.541 68.797L353.611 170.047C353.465 171.286 354.352 172.409 355.591 172.555L364.311 173.583C365.551 173.729 366.674 172.842 366.82 171.603L378.75 70.3533C378.896 69.1137 378.01 67.9904 376.77 67.8444L368.05 66.8169C366.811 66.6709 365.687 67.5574 365.541 68.797Z" fill="#191919"/>
<path d="M370.24 70.5377C369.747 70.5323 369.271 70.7212 368.915 71.0635C368.56 71.4059 368.353 71.8743 368.34 72.3677L357.21 166.998C357.108 167.48 357.2 167.983 357.466 168.398C357.732 168.813 358.15 169.108 358.63 169.218V169.218C359.124 169.221 359.599 169.031 359.956 168.69C360.312 168.348 360.522 167.881 360.54 167.388L371.68 72.7577C371.776 72.2731 371.679 71.7703 371.41 71.3558C371.141 70.9414 370.722 70.648 370.24 70.5377Z" fill="#303030"/>
<path d="M307.4 269.968C307.402 271.124 307.061 272.254 306.42 273.216C305.779 274.178 304.867 274.928 303.799 275.371C302.732 275.815 301.557 275.931 300.423 275.706C299.289 275.481 298.248 274.925 297.43 274.107C296.613 273.29 296.057 272.248 295.832 271.115C295.607 269.981 295.723 268.806 296.166 267.738C296.61 266.671 297.36 265.759 298.322 265.118C299.284 264.477 300.414 264.136 301.57 264.138C303.116 264.138 304.599 264.752 305.692 265.845C306.786 266.939 307.4 268.422 307.4 269.968V269.968Z" fill="#303030"/>
<path d="M360.29 269.968C360.292 271.124 359.951 272.254 359.31 273.216C358.669 274.178 357.757 274.928 356.69 275.371C355.622 275.815 354.447 275.931 353.313 275.706C352.179 275.481 351.138 274.925 350.321 274.107C349.503 273.29 348.947 272.248 348.722 271.115C348.497 269.981 348.613 268.806 349.057 267.738C349.5 266.671 350.25 265.759 351.212 265.118C352.174 264.477 353.304 264.136 354.46 264.138C356.005 264.143 357.485 264.759 358.577 265.851C359.669 266.943 360.285 268.423 360.29 269.968V269.968Z" fill="#303030"/>
<path d="M294.54 261.708H360.14C360.67 261.708 361.179 261.918 361.554 262.293C361.929 262.668 362.14 263.177 362.14 263.708V266.578H292.51V263.708C292.51 263.177 292.721 262.668 293.096 262.293C293.471 261.918 293.98 261.708 294.51 261.708H294.54Z" fill="#9AA1A7"/>
<path d="M330.74 196.628H328.22V261.678H330.74V196.628Z" fill="#9AA1A7"/>
<path d="M307.37 160.348H304.19V181.228H307.37V160.348Z" fill="#9AA1A7"/>
<path d="M347.45 160.348H344.27V181.228H347.45V160.348Z" fill="#9AA1A7"/>
<path d="M297.23 154.538H352.05C352.554 154.538 353.037 154.738 353.394 155.094C353.75 155.45 353.95 155.934 353.95 156.438V163.768C353.95 164.017 353.901 164.264 353.805 164.495C353.71 164.725 353.57 164.935 353.394 165.111C353.217 165.288 353.008 165.427 352.777 165.523C352.547 165.618 352.3 165.668 352.05 165.668H297.23C296.726 165.668 296.243 165.467 295.887 165.111C295.53 164.755 295.33 164.272 295.33 163.768V163.768V156.438C295.33 155.934 295.53 155.45 295.887 155.094C296.243 154.738 296.726 154.538 297.23 154.538Z" fill="#191919"/>
<path d="M292.06 179.228H363.35C364.093 179.228 364.805 179.523 365.33 180.048C365.855 180.573 366.15 181.285 366.15 182.028V197.438C366.15 197.805 366.078 198.169 365.937 198.509C365.796 198.849 365.59 199.157 365.33 199.417C365.07 199.677 364.761 199.884 364.422 200.024C364.082 200.165 363.718 200.238 363.35 200.238H292.06C291.692 200.238 291.328 200.165 290.988 200.024C290.649 199.884 290.34 199.677 290.08 199.417C289.82 199.157 289.614 198.849 289.473 198.509C289.332 198.169 289.26 197.805 289.26 197.438V182.028C289.26 181.285 289.555 180.573 290.08 180.048C290.605 179.523 291.317 179.228 292.06 179.228Z" fill="#191919"/>
<path d="M40.9101 180.328H30.8101V188.228H40.9101V180.328Z" fill="#9AA1A7"/>
<path d="M51.77 195.838H41.74V267.108H51.77V195.838Z" fill="#9AA1A7"/>
<path d="M66.6899 275.388C66.688 276.543 67.0288 277.673 67.6693 278.635C68.3098 279.597 69.2212 280.347 70.2881 280.79C71.3551 281.234 72.5296 281.351 73.6631 281.127C74.7966 280.902 75.8382 280.347 76.6559 279.531C77.4736 278.714 78.0308 277.674 78.257 276.541C78.4831 275.407 78.3681 274.233 77.9264 273.165C77.4846 272.097 76.7361 271.185 75.7755 270.543C74.8149 269.9 73.6854 269.558 72.53 269.558C70.9828 269.558 69.4989 270.172 68.404 271.265C67.3091 272.358 66.6926 273.84 66.6899 275.388V275.388Z" fill="#303030"/>
<path d="M13.8101 275.388C13.8081 276.543 14.1489 277.673 14.7894 278.635C15.4299 279.597 16.3413 280.347 17.4083 280.79C18.4752 281.234 19.6497 281.351 20.7833 281.127C21.9168 280.902 22.9583 280.347 23.776 279.531C24.5938 278.714 25.151 277.674 25.3771 276.541C25.6033 275.408 25.4882 274.233 25.0465 273.165C24.6048 272.097 23.8562 271.185 22.8956 270.543C21.935 269.9 20.8055 269.558 19.6501 269.558C18.8836 269.556 18.1244 269.706 17.416 269.999C16.7075 270.291 16.0636 270.72 15.5212 271.262C14.9787 271.803 14.5484 272.446 14.2548 273.154C13.9612 273.862 13.8101 274.621 13.8101 275.388V275.388Z" fill="#303030"/>
<path d="M11.88 272.008H81.55C81.55 271.363 81.4229 270.725 81.1761 270.13C80.9292 269.535 80.5674 268.994 80.1113 268.539C79.6552 268.084 79.1139 267.723 78.5182 267.478C77.9226 267.232 77.2843 267.106 76.64 267.108H16.88C16.2282 267.094 15.5802 267.211 14.9741 267.452C14.368 267.692 13.816 268.051 13.3504 268.507C12.8847 268.963 12.5148 269.508 12.2623 270.109C12.0098 270.71 11.8799 271.356 11.88 272.008V272.008Z" fill="#9AA1A7"/>
<path d="M45.88 202.048H43.36V267.108H45.88V202.048Z" fill="#9AA1A7"/>
<path d="M82.8901 187.818H10.6201C9.34428 187.818 8.31006 188.852 8.31006 190.128V199.888C8.31006 201.163 9.34428 202.198 10.6201 202.198H82.8901C84.1658 202.198 85.2001 201.163 85.2001 199.888V190.128C85.2001 188.852 84.1658 187.818 82.8901 187.818Z" fill="#303030"/>
<path d="M51.75 181.208H19.12C15.5119 181.197 12.0548 179.758 9.50443 177.206C6.95405 174.654 5.51792 171.196 5.51001 167.588V122.508C5.52849 114.577 8.68638 106.977 14.2932 101.368C19.9 95.7592 27.4995 92.5988 35.43 92.5776C43.3623 92.5961 50.9643 95.7554 56.5733 101.364C62.1823 106.973 65.3415 114.575 65.36 122.508V167.598C65.3495 171.204 63.9122 174.66 61.3621 177.21C58.812 179.76 55.3564 181.197 51.75 181.208Z" fill="#191919"/>
<path d="M25.8 97.7876H53.11C55.6747 97.7876 58.1343 98.8064 59.9477 100.62C61.7612 102.433 62.78 104.893 62.78 107.458V171.598C62.78 172.175 62.6662 172.748 62.4451 173.281C62.224 173.815 61.8998 174.3 61.4913 174.709C61.0827 175.117 60.5976 175.442 60.0638 175.663C59.53 175.884 58.9578 175.998 58.38 175.998H20.53C19.3631 175.998 18.2439 175.534 17.4187 174.709C16.5936 173.884 16.13 172.765 16.13 171.598V171.598V107.458C16.13 104.893 17.1488 102.433 18.9623 100.62C20.7758 98.8064 23.2354 97.7876 25.8 97.7876V97.7876Z" fill="#303030"/>
<path d="M176.72 111.928C176.555 111.626 176.517 111.272 176.612 110.942C176.708 110.613 176.93 110.334 177.23 110.168L182.12 107.498C182.424 107.333 182.781 107.296 183.112 107.393C183.444 107.491 183.723 107.715 183.89 108.018V108.018C183.973 108.166 184.025 108.33 184.045 108.5C184.064 108.669 184.049 108.84 184.002 109.004C183.954 109.168 183.875 109.32 183.768 109.453C183.662 109.586 183.53 109.696 183.38 109.778L178.5 112.458C178.193 112.622 177.834 112.658 177.501 112.559C177.168 112.459 176.887 112.233 176.72 111.928Z" fill="#F1A782"/>
<path d="M175.33 109.908C175.165 109.606 175.127 109.252 175.222 108.922C175.318 108.593 175.54 108.314 175.84 108.148L180.72 105.478C181.025 105.313 181.383 105.275 181.717 105.372C182.05 105.47 182.331 105.694 182.5 105.998V105.998C182.583 106.146 182.635 106.31 182.655 106.479C182.674 106.649 182.659 106.82 182.612 106.984C182.564 107.147 182.485 107.3 182.378 107.433C182.272 107.566 182.14 107.676 181.99 107.758L177.11 110.438C176.803 110.601 176.444 110.638 176.111 110.539C175.778 110.439 175.497 110.213 175.33 109.908V109.908Z" fill="#F1A782"/>
<path d="M174.1 107.858C173.935 107.556 173.897 107.202 173.992 106.872C174.088 106.543 174.31 106.264 174.61 106.098L179.49 103.428C179.641 103.343 179.807 103.29 179.978 103.27C180.15 103.251 180.323 103.266 180.489 103.314C180.655 103.363 180.809 103.444 180.943 103.552C181.077 103.661 181.188 103.795 181.27 103.948V103.948C181.353 104.096 181.405 104.26 181.425 104.43C181.444 104.599 181.429 104.77 181.382 104.934C181.334 105.097 181.255 105.25 181.148 105.383C181.042 105.516 180.91 105.626 180.76 105.708L175.88 108.378C175.574 108.542 175.216 108.58 174.883 108.483C174.55 108.385 174.269 108.161 174.1 107.858V107.858Z" fill="#F1A782"/>
<path d="M173.1 105.768C172.935 105.467 172.897 105.112 172.992 104.783C173.088 104.453 173.31 104.174 173.61 104.008L178.49 101.328C178.797 101.164 179.156 101.128 179.489 101.227C179.822 101.326 180.103 101.553 180.27 101.858V101.858C180.435 102.159 180.473 102.513 180.378 102.843C180.282 103.173 180.06 103.451 179.76 103.618L174.88 106.288C174.729 106.371 174.563 106.423 174.392 106.442C174.221 106.46 174.047 106.445 173.882 106.397C173.717 106.349 173.563 106.268 173.428 106.16C173.294 106.052 173.183 105.919 173.1 105.768V105.768Z" fill="#F1A782"/>
<path d="M191.14 97.8276C191.14 97.8276 181.93 98.5876 180.26 99.2476C178.59 99.9076 173.18 104.388 173.18 104.388C173.18 104.388 176.18 105.388 176.77 106.928C177.36 108.468 178.49 112.458 178.49 112.458C178.49 112.458 184.44 111.008 186.84 109.458C188.428 108.42 189.908 107.228 191.26 105.898L191.14 97.8276Z" fill="#F1A782"/>
<path d="M187.88 109.598L194.45 105.778L190.57 96.0476L182.64 98.2776L187.88 109.598Z" fill="#E2F1FD"/>
<path d="M257.16 55.7076C262.51 59.5176 260.96 65.0776 256.88 70.0876C252.8 75.0976 226.63 96.4076 224.54 96.3976C222.45 96.3876 215.54 89.9476 216.4 87.0776C217.26 84.2076 236.22 61.8676 240.3 58.3276C244.38 54.7876 250.88 51.2476 257.16 55.7076Z" fill="#191919"/>
<path d="M264.37 21.5076C264.37 21.5076 269.75 39.6676 271.03 40.2876C276.011 42.7974 280.451 46.2593 284.1 50.4776C288.29 55.6376 286.87 80.9276 287.1 90.0876C287.33 99.2476 294.71 111.648 298.1 119.818C301.49 127.988 277.36 144.938 276.38 145.188C275.4 145.438 264.79 139.528 262.46 137.188C260.13 134.848 256.32 112.628 254.93 107.068C253.54 101.508 247.4 82.3576 246.83 81.1476C243.04 73.0576 243.56 65.8076 243.44 63.9276C243.32 62.0476 242.44 59.0576 243.08 57.6876C244.31 54.9476 253.55 49.4376 253.43 48.2476C253.31 47.0576 250.7 30.7976 250.7 30.7976L264.37 21.5076Z" fill="#F4BE9A"/>
<path d="M271.03 40.2876L257.32 53.9276L253.44 48.2276C253.44 48.2276 243.9 55.0276 243.1 57.6576C242.3 60.2876 242.88 65.4076 242.89 67.3676C242.9 69.3276 244.75 77.8976 247.31 85.0876C248.81 89.2976 250.12 95.0276 252.61 102.218C254.74 108.368 257.96 124.218 257.96 124.218C257.96 124.218 264.02 122.978 273.22 120.218C283.87 117.008 295.93 114.018 296.31 113.498C297.97 111.278 289.31 93.9176 289.26 91.9876C289.21 90.0576 287.26 56.3576 286.45 52.1176C285.64 47.8776 282.38 45.7976 279.25 43.9276C276.624 42.4721 273.873 41.2539 271.03 40.2876V40.2876Z" fill="#D0DFFB"/>
<path d="M277.01 42.7078C277.01 42.7078 272.01 46.8578 270.2 52.4378C265.34 67.4378 282.06 83.2378 273.2 88.0378C259.12 95.7078 262.41 99.6478 262.47 102.708C262.479 107.866 262.201 113.02 261.64 118.148L295.54 114.148C300.07 113.928 289.47 95.4378 289.18 90.5278C287.97 69.5278 286.82 54.2678 286.12 50.8678C285.16 46.2278 277.01 42.7078 277.01 42.7078Z" fill="#BCD0FA"/>
<path d="M251.88 37.8177L266.71 27.8977L269.51 37.4477L265.25 41.7477L251.88 37.8177Z" fill="#F1A782"/>
<path d="M244.35 6.54762C248.07 2.19762 259.99 -2.83238 267.02 4.54762C274.05 11.9276 272.38 20.2676 269.7 25.6276C267.62 29.8076 265.4 32.2476 260.76 35.0476C259.81 35.6176 250.92 38.2876 249.03 37.8876C247.74 37.6176 245.69 28.6876 245.33 28.7776C244.99 28.7814 244.658 28.6808 244.377 28.4895C244.096 28.2981 243.881 28.0252 243.76 27.7076C243.55 26.6476 243.92 20.0076 243.58 19.3576C243.24 18.7076 240.08 11.5276 244.35 6.54762Z" fill="#F4BE9A"/>
<path d="M242.32 10.8777C242.32 10.8777 248.76 6.14767 258.32 12.9477C260.38 14.4177 257.75 22.0177 258.32 22.5977C258.89 23.1777 264.51 16.5177 264.32 17.3577C262.83 25.9777 266.11 30.2277 266.87 30.1877C269.19 30.0577 274.87 17.4677 270.2 8.40767C265.53 -0.652334 255.25 -0.362334 252.88 0.407666C250.51 1.17767 243.25 2.70767 242.32 10.8777Z" fill="#82402C"/>
<path d="M260.6 18.8077C260.11 21.5477 260.16 25.1577 261.6 25.4077C263.04 25.6577 264.68 23.6477 265.17 20.8977C265.66 18.1477 264.85 15.7277 263.37 15.4777C261.89 15.2277 261.08 16.0577 260.6 18.8077Z" fill="#F4BE9A"/>
<path d="M281.21 275.088H270.47V277.098H281.21V275.088Z" fill="#191919"/>
<path d="M281.01 261.118C282.377 263.422 283.23 265.994 283.51 268.658C283.68 270.778 282.41 275.238 281.02 275.238C276.642 275.206 272.267 275.45 267.92 275.968C263.73 276.538 262.16 278.968 251.45 278.918C248.32 278.918 242.64 278.718 242.8 277.448C242.96 276.178 253.08 273.868 256.35 270.858C264.59 263.258 270.09 261.418 270.09 261.418C270.09 261.418 280.72 260.708 281.01 261.118Z" fill="#0F0D0D"/>
<path d="M289.52 124.708C289.52 124.708 290.22 129.058 290.88 135.288C291.54 141.518 285.5 161.488 283.38 177.188C281.26 192.888 279.93 196.058 280.46 199.758C280.99 203.458 285.65 218.488 285.06 228.478C284.47 238.468 282.46 264.588 282.46 264.588C279.869 265.608 277.138 266.228 274.36 266.428C269.21 266.928 265.64 262.488 265.64 262.488C265.64 262.488 261.5 204.128 260.84 197.968C260.42 193.968 257.16 166.478 256.17 144.068C255.85 136.858 256.67 120.178 256.66 117.198C256.65 115.108 289.52 124.708 289.52 124.708Z" fill="#191919"/>
<path d="M304.38 279.778L314.96 277.908L314.6 275.908L304.02 277.708L304.38 279.778Z" fill="#191919"/>
<path d="M311.7 261.808C313.464 263.929 314.765 266.395 315.52 269.048C316.07 271.168 315.64 275.928 314.27 276.168C309.948 276.882 305.678 277.884 301.49 279.168C297.49 280.468 294.13 285.098 285.81 285.028C282.68 285.028 276.57 285.088 276.81 283.778C277.32 280.558 286.54 279.608 289.2 275.988C295.95 266.818 301.03 263.988 301.03 263.988C301.03 263.988 311.34 261.448 311.7 261.808Z" fill="#191919"/>
<path d="M295.88 114.528C295.88 114.528 300.49 123.378 301.28 131.078C301.92 137.308 301.46 148.948 301.16 164.788C300.86 180.628 302.34 195.138 303.3 198.788C304.26 202.438 311 217.438 311.56 227.428C312.12 237.418 313.56 262.808 313.56 262.808C310.735 264.459 307.672 265.667 304.48 266.388C301.701 267.096 298.763 266.839 296.15 265.658C296.15 265.658 283.43 208.268 280.45 202.828C275.71 194.138 271.81 165.468 266.98 146.178C265.03 138.388 257.93 120.078 257.93 120.078L295.88 114.528Z" fill="#303030"/>
<path d="M257.08 49.9276L257.32 53.9276L264.56 46.7976L257.08 49.9276Z" fill="#BCD0FA"/>
<path d="M257.32 53.9276L254.8 49.5276L253.16 51.6276L257.32 53.9276Z" fill="#BCD0FA"/>
<path d="M258.88 51.4078L253.64 51.2378L254.38 56.2378L257.2 56.4278L258.88 51.4078Z" fill="#303030"/>
<path d="M257.19 56.3877C257.19 56.3877 255.72 69.9677 256.71 80.0777C257.7 90.1877 260.34 121.908 260.34 121.908L256.6 129.408L252.75 122.258C252.75 122.258 252.54 91.0178 252.57 79.8978C252.709 71.9695 253.31 64.0561 254.37 56.1978L257.19 56.3877Z" fill="#303030"/>
<path d="M271.03 40.2876C271.03 40.2876 262.14 54.3676 258.87 64.6176C255.6 74.8676 253.63 84.7076 253.63 84.7076L260.34 145.208C268.57 145.098 276.785 144.487 284.94 143.378C291.513 142.446 297.965 140.8 304.18 138.468C303.415 133.321 302.353 128.222 301 123.198C298.05 112.198 293.47 98.0976 292.69 92.5776C291.31 82.7376 290.08 53.5776 285.85 48.0276C281.62 42.4776 271.03 40.2876 271.03 40.2876Z" fill="#303030"/>
<path d="M251.51 49.0176C251.51 49.0176 250.15 62.8176 250.73 70.0176C251.314 75.4864 252.317 80.9023 253.73 86.2176L260.32 145.218L251.51 141.708C251.51 141.708 242.51 75.8076 242.13 68.0576C241.75 60.3076 241.73 57.5776 242.92 56.1676C244.11 54.7576 251.51 49.0176 251.51 49.0176Z" fill="#191919"/>
<path d="M280.77 47.0076C286.87 47.7076 285.36 79.2376 282.66 91.3776C279.96 103.518 260.34 145.188 260.34 145.188C260.34 145.188 252.42 89.0076 253.75 86.1876C254.8 83.9676 258.2 76.2876 260.34 70.6776C264.8 59.0376 273.27 46.1476 280.77 47.0076Z" fill="#191919"/>
<path d="M254.8 49.5176L252.32 54.3576L250.73 50.2476L252.94 46.7476L254.8 49.5176Z" fill="#E2F1FD"/>
<path d="M278.88 46.6276C285.19 47.2276 286.55 52.8976 285.52 59.3776C284.49 65.8576 272.97 99.8276 271.21 100.888C269.45 101.948 258.85 100.068 258.21 97.1076C257.57 94.1476 265.1 63.1676 266.81 57.9876C268.52 52.8076 271.5 45.9276 278.88 46.6276Z" fill="#303030"/>
<path d="M186.61 109.528C185.058 110.429 183.411 111.157 181.7 111.698C181.39 111.798 180.98 112.118 180.7 112.218C180.42 112.318 179.94 112.278 179.7 112.348C179.46 112.418 179.31 112.608 179.1 112.678C178.89 112.748 178.35 112.618 178.1 112.678C177.85 112.738 177.44 112.998 177.22 113.088C176.37 113.418 176.22 112.818 175.91 112.898C175.503 113.047 175.08 113.148 174.65 113.198C173.85 113.198 170.93 111.198 170.58 110.698C170.23 110.198 167.64 108.128 167.8 107.818C167.96 107.508 169.16 107.018 170.7 107.978C172.24 108.938 174.17 110.028 173.9 109.728C173.261 108.712 172.744 107.624 172.36 106.488C172.2 105.908 172.78 105.618 173.28 105.578C173.57 105.578 174.86 106.648 174.86 106.648C174.86 106.648 175.22 105.488 175.48 105.448C176.36 105.308 177.06 106.448 177.4 106.708C177.74 106.968 177.6 105.538 177.99 105.518C179.44 105.448 180.55 108.828 181.84 108.148C182.43 107.808 185.58 107.708 186.61 109.528Z" fill="#F1A782"/>
<path d="M242.88 136.288C242.88 136.288 242.61 141.488 239.44 142.468C236.27 143.448 232.72 141.468 231.79 141.258C227.99 140.258 223.94 143.258 221.57 143.118C219.2 142.978 219.03 141.458 219.88 141.238C224.63 139.958 227.15 137.688 229.32 137.398C231.49 137.108 239.1 133.768 239.1 133.768L242.88 136.288Z" fill="#F4BE9A"/>
<path d="M243.27 140.098L247.15 134.098L239.02 128.328L235.15 134.328L243.27 140.098Z" fill="#E2F1FD"/>
<path d="M273.5 40.7077L269.5 37.4177L257.08 49.9277L260.69 54.5577L273.5 40.7077Z" fill="#E2F1FD"/>
<path d="M230.99 84.2678C228.86 77.5278 215.09 82.3678 208.59 85.3878C202.09 88.4078 183.59 97.4678 183.59 97.4678L189.16 109.328C201.209 105.927 213.004 101.687 224.46 96.6378C226.32 95.8078 233.16 91.1378 230.99 84.2678Z" fill="#191919"/>
<path d="M270.19 91.9977C276.07 95.6277 267.02 110.728 262.72 116.398C258.42 122.068 245.31 139.028 245.31 139.028L235.14 131.968C235.14 131.968 245.01 113.368 256.08 97.1077C257.22 95.4277 264.21 88.2977 270.19 91.9977Z" fill="#303030"/>
<path d="M146.99 135.328C146.99 135.328 146.9 140.138 149.99 141.248C153.08 142.358 156.76 140.768 157.7 140.618C161.56 139.978 165.39 142.978 167.77 142.978C170.15 142.978 170.42 141.608 169.59 141.348C164.93 139.868 162.59 137.618 160.44 137.208C158.29 136.798 150.93 133.208 150.93 133.208L146.99 135.328Z" fill="#F4BE9A"/>
<path d="M147.55 138.518C147.55 138.518 149.14 141.638 151.05 142.578C152.96 143.518 155.59 142.438 157.3 143.028C159.01 143.618 158.71 142.578 158.61 142.298C158.51 142.018 156.39 141.298 155.49 140.858C154.59 140.418 151.6 136.708 147.55 138.518Z" fill="#F4BE9A"/>
<path d="M129.97 94.2177C135.81 90.6277 142.27 103.278 145.12 109.608C147.97 115.938 154.36 135.208 154.36 135.208L147.66 138.648C139.707 128.958 132.746 118.496 126.88 107.418C126 105.708 124.03 97.8677 129.97 94.2177Z" fill="#BCD0FA"/>
<path d="M152.8 128.988L155.7 135.078L146.7 139.808L143.21 133.808L152.8 128.988Z" fill="#E2F1FD"/>
<path d="M121.8 53.8176C115.24 54.0076 113.44 59.4976 114.05 65.9376C114.66 72.3776 124.57 104.628 126.3 105.778C128.03 106.928 137.39 105.428 138.3 102.548C139.21 99.6676 134.92 70.9776 133.51 65.7676C132.1 60.5576 129.49 53.5976 121.8 53.8176Z" fill="#BCD0FA"/>
<path d="M108.14 22.4177C108.14 22.4177 103.14 40.6877 101.89 41.3377C96.9636 43.9502 92.5977 47.504 89.0399 51.7977C84.9599 57.0477 86.9199 82.2977 86.9099 91.4577C86.8999 100.618 79.7699 113.178 76.5099 121.458C73.2499 129.738 97.7799 146.128 98.7699 146.358C99.7599 146.588 110.23 140.458 112.51 138.038C114.79 135.618 118.13 113.348 119.4 107.768C120.67 102.188 126.4 82.8977 126.94 81.6777C130.56 73.5077 129.88 66.2577 129.94 64.3777C130 62.4977 130.8 59.4977 130.16 58.1377C128.87 55.4277 119.51 50.1377 119.61 48.9277C119.71 47.7177 121.97 31.4077 121.97 31.4077L108.14 22.4177Z" fill="#F4BE9A"/>
<path d="M101.88 41.3376L115.88 54.7076L119.63 48.9176C119.63 48.9176 129.32 55.5176 130.17 58.1276C131.02 60.7376 130.55 65.8776 130.59 67.8276C130.63 69.7776 128.95 78.3977 126.59 85.6477C125.18 89.8877 123.99 95.6476 121.66 102.878C119.66 109.078 116.78 124.978 116.78 124.978C116.78 124.978 110.69 123.858 101.43 121.278C90.72 118.278 78.6 115.558 78.21 115.048C76.51 112.868 84.76 95.3276 84.8 93.3876C84.84 91.4476 86.02 57.7276 86.8 53.4676C87.58 49.2076 90.73 47.0576 93.8 45.1276C96.3737 43.6236 99.078 42.3552 101.88 41.3376V41.3376Z" fill="#D0DFFB"/>
<path d="M91.33 46.7075C91.33 46.7075 102.6 46.7075 104.52 52.2175C109.7 67.1275 107.98 70.5375 116.9 75.1575C131.17 82.5375 118.31 102.448 118.31 105.498C118.27 109.92 117.919 114.334 117.26 118.708L78.97 115.708C74.43 115.578 84.64 96.8675 84.82 91.9575C85.58 70.9575 86.15 55.5975 87.03 52.2375C87.91 48.8775 91.33 46.7075 91.33 46.7075Z" fill="#BCD0FA"/>
<path d="M121.03 38.4477L105.98 28.8477L103.39 38.4477L107.75 42.6577L121.03 38.4477Z" fill="#F1A782"/>
<path d="M127.88 7.02753C124.06 2.75753 112.04 -1.97247 105.17 5.52753C98.3 13.0275 100.17 21.3575 102.93 26.6575C105.11 30.7975 107.37 33.1875 112.08 35.8875C113.08 36.4375 121.98 38.8875 123.86 38.4775C125.15 38.1775 127.01 29.2175 127.37 29.2775C127.71 29.2749 128.041 29.1681 128.318 28.9713C128.595 28.7746 128.805 28.4975 128.92 28.1775C129.1 27.1175 128.59 20.4875 128.92 19.8275C129.25 19.1675 132.22 11.9175 127.88 7.02753Z" fill="#F4BE9A"/>
<path d="M129.97 11.3176C129.97 11.3176 123.42 6.72761 113.97 13.7276C111.97 15.2376 114.73 22.7876 114.2 23.3776C113.67 23.9676 107.88 17.3776 108.05 18.2676C109.72 26.8476 106.53 31.1676 105.77 31.1376C103.44 31.0676 94.48 18.1376 98.96 9.03761C103.44 -0.0623865 116.04 -0.502387 118.42 0.247613C120.8 0.997613 135.3 0.797612 129.97 11.3176Z" fill="#82402C"/>
<path d="M111.88 19.6277C112.43 22.3677 112.45 25.9777 110.97 26.2577C109.49 26.5377 107.85 24.5577 107.3 21.8277C106.75 19.0977 107.51 16.6477 108.99 16.3577C110.47 16.0677 111.32 16.8977 111.88 19.6277Z" fill="#F4BE9A"/>
<path d="M103.51 276.288H92.77V278.298H103.51V276.288Z" fill="#191919"/>
<path d="M93.19 262.168C91.8231 264.471 90.9703 267.044 90.69 269.708C90.52 271.828 91.78 276.288 93.17 276.288C97.551 276.256 101.93 276.5 106.28 277.018C110.47 277.588 112.04 280.018 122.75 279.968C125.88 279.968 131.56 279.768 131.39 278.498C131.22 277.228 121.11 274.918 117.85 271.908C109.6 264.308 104.11 262.468 104.11 262.468C104.11 262.468 93.48 261.768 93.19 262.168Z" fill="#0F0D0D"/>
<path d="M84.6799 125.708C84.6799 125.708 83.9799 130.058 83.3299 136.298C82.6799 142.538 88.6999 162.488 90.8299 178.188C92.9599 193.888 94.2799 197.058 93.7499 200.768C93.2199 204.478 88.5599 219.488 89.1499 229.478C89.7399 239.468 91.7499 265.598 91.7499 265.598C94.343 266.61 97.0735 267.227 99.8499 267.428C105 267.928 108.57 263.498 108.57 263.498C108.57 263.498 112.71 205.128 113.37 198.968C113.79 194.968 117.05 167.488 118.04 145.068C118.37 137.848 117.54 121.178 117.55 118.198C117.55 116.158 84.6799 125.708 84.6799 125.708Z" fill="#191919"/>
<path d="M89.1 281.998L78.38 281.328L78.51 279.258L89.23 279.928L89.1 281.998Z" fill="#191919"/>
<path d="M79.88 264.708C78.3559 267.005 77.3336 269.598 76.88 272.318C76.57 274.488 77.53 279.168 78.88 279.258C83.2429 279.497 87.5855 280.022 91.88 280.828C96.02 281.668 97.42 284.248 108.12 284.898C111.24 285.088 116.92 285.238 116.84 283.898C116.76 282.558 106.84 279.568 103.76 276.268C96.03 267.908 90.67 265.678 90.67 265.678C90.67 265.678 80.19 264.338 79.88 264.708Z" fill="#191919"/>
<path d="M78.0199 115.578C78.0199 115.578 74.4699 124.908 74.5699 132.638C74.6499 138.908 76.4499 150.418 78.5699 166.108C80.6899 181.798 80.8999 196.398 80.3699 200.108C79.8399 203.818 74.8799 219.528 75.4699 229.518C76.0599 239.508 78.7699 264.158 78.7699 264.158C81.1595 266.014 84.0351 267.139 87.0499 267.398C89.8924 267.775 92.779 267.179 95.2399 265.708C95.2399 265.708 101.24 207.238 103.56 201.478C107.26 192.298 107.82 163.378 110.39 143.658C111.39 135.658 116.27 118.238 116.27 118.238L78.0199 115.578Z" fill="#303030"/>
<path d="M116.04 50.7075L115.89 54.7075L108.5 47.7075L116.04 50.7075Z" fill="#BCD0FA"/>
<path d="M115.88 54.7076L118.3 50.2476L119.99 52.3176L115.88 54.7076Z" fill="#BCD0FA"/>
<path d="M114.29 52.1877L119.52 51.9177L118.88 56.9177L116.07 57.1577L114.29 52.1877Z" fill="#303030"/>
<path d="M99.4299 41.8275L103.43 38.4575L116.04 50.7075L112.53 55.4075L99.4299 41.8275Z" fill="#E2F1FD"/>
<path d="M118.31 50.2177L120.9 54.9977L122.4 50.8577L120.12 47.3977L118.31 50.2177Z" fill="#E2F1FD"/>
<path d="M77.8799 115.358C77.8799 115.358 88.9699 116.098 99.9699 116.528C110.97 116.958 117.6 117.248 117.6 117.248L117.66 121.608C117.66 121.608 106.38 121.858 94.7699 121.158C83.3099 120.468 76.7699 119.458 76.7699 119.458L77.8799 115.358Z" fill="#371D1E"/>
<path d="M116.95 117.148H112.96C112.651 117.148 112.4 117.398 112.4 117.708V121.638C112.4 121.947 112.651 122.198 112.96 122.198H116.95C117.259 122.198 117.51 121.947 117.51 121.638V117.708C117.51 117.398 117.259 117.148 116.95 117.148Z" fill="#6A3022"/>
<path d="M116.07 57.1377C116.07 57.1377 117.83 70.6877 117.07 80.8077C116.31 90.9277 115.6 122.598 115.6 122.598L119.5 130.018L123.2 122.788C123.2 122.788 121.48 91.6577 121.2 80.5377C120.894 72.613 120.126 64.713 118.9 56.8777L116.07 57.1377Z" fill="#303030"/>
<path d="M177.25 112.077C177.429 111.808 177.495 111.48 177.435 111.162C177.376 110.845 177.194 110.563 176.93 110.377L172.58 107.377C172.309 107.2 171.98 107.135 171.663 107.197C171.345 107.258 171.064 107.442 170.88 107.707V107.707C170.7 107.977 170.633 108.307 170.695 108.625C170.757 108.944 170.942 109.225 171.21 109.407L175.55 112.407C175.82 112.585 176.149 112.65 176.467 112.588C176.785 112.527 177.066 112.343 177.25 112.077V112.077Z" fill="#F1A782"/>
<path d="M178.73 110.298C178.91 110.028 178.977 109.698 178.915 109.38C178.853 109.061 178.668 108.78 178.4 108.598L174.06 105.598C173.928 105.505 173.779 105.44 173.621 105.406C173.464 105.372 173.301 105.37 173.143 105.4C172.984 105.43 172.833 105.491 172.699 105.58C172.565 105.669 172.449 105.784 172.36 105.918C172.18 106.187 172.113 106.517 172.175 106.836C172.237 107.154 172.422 107.435 172.69 107.618L177.03 110.618C177.299 110.796 177.627 110.863 177.945 110.803C178.262 110.743 178.544 110.562 178.73 110.298V110.298Z" fill="#F1A782"/>
<path d="M180.06 108.488C180.238 108.217 180.303 107.888 180.241 107.57C180.179 107.253 179.996 106.972 179.73 106.788L175.39 103.788C175.119 103.607 174.787 103.54 174.467 103.602C174.147 103.664 173.864 103.849 173.68 104.118V104.118C173.5 104.387 173.433 104.717 173.495 105.035C173.557 105.354 173.742 105.635 174.01 105.818L178.34 108.818C178.612 109 178.944 109.068 179.265 109.009C179.587 108.949 179.872 108.765 180.06 108.498V108.488Z" fill="#F1A782"/>
<path d="M181.18 106.608C181.36 106.338 181.427 106.008 181.365 105.69C181.303 105.371 181.118 105.09 180.85 104.908L176.52 101.908C176.387 101.815 176.237 101.75 176.079 101.716C175.921 101.682 175.757 101.68 175.598 101.709C175.439 101.739 175.287 101.8 175.152 101.889C175.017 101.978 174.9 102.093 174.81 102.228C174.629 102.496 174.561 102.825 174.621 103.143C174.681 103.462 174.864 103.743 175.13 103.928L179.47 106.928C179.74 107.109 180.071 107.178 180.39 107.118C180.71 107.058 180.994 106.875 181.18 106.608V106.608Z" fill="#F1A782"/>
<path d="M164.98 97.4675C164.98 97.4675 173.53 99.0375 175.04 99.8175C176.55 100.598 181.22 105.308 181.22 105.308C181.22 105.308 178.31 106.008 177.64 107.368C176.97 108.728 175.54 112.368 175.54 112.368C175.54 112.368 170.11 110.448 167.99 108.808C166.591 107.689 165.311 106.429 164.17 105.048L164.98 97.4675Z" fill="#F1A782"/>
<path d="M90.72 50.0676C85.52 54.0676 87.29 59.5676 91.56 64.4276C95.83 69.2876 122.8 89.5576 124.89 89.4276C126.98 89.2976 133.65 82.6376 132.66 79.7976C131.67 76.9576 111.38 56.2276 107.18 52.8476C102.98 49.4676 96.81 45.3776 90.72 50.0676Z" fill="#D0DFFB"/>
<path d="M120.94 80.5776C117.45 86.8076 130.42 93.7276 137.15 96.3776C143.88 99.0276 164.28 106.078 164.28 106.078L167.58 97.6576C167.58 97.6576 152.29 88.3176 134.58 79.2076C130.25 77.0176 124.5 74.2376 120.94 80.5776Z" fill="#D0DFFB"/>
<path d="M163.119 94.4851L158.354 104.311L164.833 107.452L169.598 97.6267L163.119 94.4851Z" fill="#E2F1FD"/>
<path d="M137.29 143.357H127.98V285.207H137.29V143.357Z" fill="#7B848C"/>
<path d="M246.86 143.357H237.55V285.207H246.86V143.357Z" fill="#7B848C"/>
<path d="M245.31 145.968H129.28V276.188H245.31V145.968Z" fill="#7B848C"/>
<path d="M246.7 161.588L127.98 163.888V156.228L246.7 156.308V161.588Z" fill="#B8B8BC"/>
<path d="M258.6 142.978H116.75V156.388H258.6V142.978Z" fill="#9AA1A7"/>
<path d="M2.17004 246.778H58.88C59.1453 246.778 59.3996 246.883 59.5872 247.07C59.7747 247.258 59.88 247.512 59.88 247.778V287.478C59.88 287.743 59.7747 287.997 59.5872 288.185C59.3996 288.372 59.1453 288.478 58.88 288.478H2.17004C1.90483 288.478 1.65047 288.372 1.46294 288.185C1.2754 287.997 1.17004 287.743 1.17004 287.478V247.708C1.18779 247.455 1.30093 247.218 1.48658 247.045C1.67222 246.873 1.91652 246.777 2.17004 246.778V246.778Z" fill="#353432"/>
<path d="M19.79 245.188C19.2754 245.156 18.7641 245.289 18.33 245.568C17.8992 245.786 17.4229 245.899 16.94 245.898H15.29C14.69 245.898 14.87 246.758 14.87 246.758H20.42C20.4997 246.647 20.5558 246.521 20.5849 246.387C20.614 246.254 20.6154 246.116 20.5892 245.982C20.563 245.848 20.5096 245.721 20.4323 245.608C20.3551 245.496 20.2556 245.4 20.14 245.328C20.0366 245.253 19.9164 245.205 19.79 245.188V245.188Z" fill="#353432"/>
<path d="M58.64 247.608H2.45C1.80022 247.608 1.17706 247.866 0.717595 248.325C0.25813 248.785 4.1463e-06 249.408 4.1463e-06 250.058V250.058V256.058C-0.00130977 257.642 0.309663 259.212 0.915146 260.676C1.52063 262.14 2.40875 263.471 3.52876 264.592C4.64876 265.713 5.97869 266.602 7.44253 267.209C8.90637 267.815 10.4754 268.128 12.06 268.128H49.06C52.2594 268.128 55.328 266.857 57.5912 264.596C59.8545 262.335 61.1274 259.267 61.13 256.068V256.068V250.068C61.13 249.745 61.0663 249.426 60.9426 249.128C60.8188 248.83 60.6374 248.559 60.4089 248.332C60.1803 248.104 59.9091 247.924 59.6106 247.801C59.3122 247.679 58.9926 247.616 58.67 247.618L58.64 247.608Z" fill="#242321"/>
<path d="M58.64 246.778H2.45C1.80022 246.778 1.17706 247.036 0.717595 247.495C0.25813 247.955 4.1463e-06 248.578 4.1463e-06 249.228V255.228C-0.00130977 256.812 0.309663 258.381 0.915146 259.846C1.52063 261.31 2.40875 262.641 3.52876 263.762C4.64876 264.883 5.97869 265.772 7.44253 266.379C8.90637 266.985 10.4754 267.298 12.06 267.298H49.06C52.2594 267.298 55.328 266.027 57.5912 263.766C59.8545 261.504 61.1274 258.437 61.13 255.238V255.238V249.238C61.13 248.912 61.0654 248.59 60.9399 248.289C60.8144 247.989 60.6305 247.716 60.3989 247.487C60.1673 247.259 59.8926 247.078 59.5906 246.956C59.2887 246.834 58.9656 246.774 58.64 246.778V246.778Z" fill="#4C4B49"/>
<path d="M21.28 241.968H19.08C19.0192 241.966 18.9588 241.977 18.9023 242C18.8459 242.023 18.7947 242.056 18.7517 242.099C18.7087 242.142 18.6749 242.194 18.6522 242.25C18.6296 242.306 18.6186 242.367 18.62 242.428C18.62 242.55 18.6684 242.667 18.7547 242.753C18.841 242.839 18.958 242.888 19.08 242.888H21.28C21.402 242.888 21.519 242.839 21.6053 242.753C21.6915 242.667 21.74 242.55 21.74 242.428C21.7414 242.367 21.7304 242.306 21.7078 242.25C21.6851 242.194 21.6513 242.142 21.6083 242.099C21.5653 242.056 21.514 242.023 21.4576 242C21.4012 241.977 21.3408 241.966 21.28 241.968V241.968Z" fill="#353432"/>
<path d="M19.6 241.578C19.4302 241.578 19.2674 241.645 19.1474 241.765C19.0274 241.885 18.96 242.048 18.96 242.218V245.898C18.96 246.067 19.0274 246.23 19.1474 246.35C19.2674 246.47 19.4302 246.538 19.6 246.538C19.7706 246.538 19.9345 246.471 20.0561 246.351C20.1777 246.231 20.2473 246.068 20.25 245.898V242.218C20.2473 242.047 20.1777 241.884 20.0561 241.764C19.9345 241.645 19.7706 241.578 19.6 241.578V241.578Z" fill="#F3B351"/>
<path d="M19.88 241.638C19.912 241.714 19.9289 241.795 19.93 241.878V245.548C19.9327 245.63 19.919 245.713 19.8898 245.79C19.8606 245.868 19.8164 245.939 19.7597 245.999C19.7031 246.059 19.6351 246.108 19.5596 246.142C19.4842 246.176 19.4027 246.195 19.32 246.198C19.2052 246.197 19.0922 246.17 18.99 246.118C19.0427 246.261 19.145 246.381 19.2784 246.455C19.4117 246.53 19.5674 246.554 19.7171 246.524C19.8669 246.494 20.0009 246.411 20.095 246.291C20.189 246.17 20.2369 246.02 20.23 245.868V242.198C20.2303 242.081 20.1977 241.966 20.1357 241.867C20.0738 241.768 19.9852 241.689 19.88 241.638V241.638Z" fill="#E78F44"/>
<path d="M45.88 245.908H44.24C43.7571 245.909 43.2808 245.796 42.85 245.578C42.416 245.299 41.9046 245.166 41.39 245.198C41.2551 245.222 41.1267 245.274 41.0128 245.351C40.8989 245.427 40.8019 245.526 40.7278 245.641C40.6537 245.756 40.6042 245.886 40.5822 246.021C40.5602 246.156 40.5662 246.295 40.6 246.428C40.6289 246.555 40.6797 246.677 40.75 246.788H46.31C46.31 246.788 46.5 245.908 45.88 245.908Z" fill="#353432"/>
<path d="M42.1 241.968H39.88C39.758 241.968 39.641 242.016 39.5548 242.102C39.4685 242.189 39.42 242.306 39.42 242.428C39.4226 242.549 39.4719 242.664 39.5576 242.75C39.6433 242.836 39.7588 242.885 39.88 242.888H42.08C42.203 242.888 42.321 242.84 42.4089 242.754C42.4968 242.668 42.5474 242.551 42.55 242.428C42.5501 242.366 42.5378 242.306 42.5141 242.249C42.4904 242.193 42.4556 242.142 42.4118 242.099C42.368 242.056 42.3161 242.022 42.2591 242C42.2022 241.977 42.1413 241.966 42.08 241.968H42.1Z" fill="#353432"/>
<path d="M41.5701 241.578C41.4003 241.578 41.2375 241.645 41.1175 241.765C40.9975 241.885 40.9301 242.048 40.9301 242.218V245.898C40.9497 246.055 41.026 246.2 41.1448 246.304C41.2636 246.409 41.4166 246.467 41.5751 246.467C41.7335 246.467 41.8865 246.409 42.0053 246.304C42.1241 246.2 42.2004 246.055 42.22 245.898V245.898V242.218C42.2174 242.047 42.1478 241.884 42.0262 241.764C41.9046 241.645 41.7407 241.578 41.5701 241.578Z" fill="#F3B351"/>
<path d="M41.23 245.548V241.878C41.236 241.796 41.2528 241.715 41.28 241.638C41.1759 241.689 41.0886 241.769 41.0284 241.868C40.9682 241.967 40.9375 242.082 40.9399 242.198V245.868C40.9357 246.019 40.9855 246.168 41.0804 246.286C41.1753 246.404 41.3091 246.485 41.4581 246.514C41.607 246.543 41.7614 246.518 41.8936 246.443C42.0258 246.369 42.1273 246.25 42.18 246.108C42.0825 246.179 41.9666 246.221 41.846 246.228C41.7255 246.236 41.6054 246.208 41.5 246.149C41.3946 246.09 41.3084 246.002 41.2517 245.895C41.195 245.789 41.1701 245.668 41.18 245.548H41.23Z" fill="#E78F44"/>
<path d="M40.2101 240.128C33.7968 239.298 27.3033 239.298 20.8901 240.128C20.6298 240.158 20.3919 240.289 20.2273 240.493C20.0627 240.697 19.9847 240.957 20.0101 241.218V241.218L20.2201 242.698C20.2597 242.954 20.3977 243.186 20.6049 243.342C20.8121 243.499 21.0722 243.569 21.3301 243.538C27.4513 242.747 33.6488 242.747 39.7701 243.538C40.0265 243.569 40.2852 243.501 40.4922 243.346C40.6991 243.191 40.8381 242.963 40.8801 242.708C40.9601 242.218 41.0301 241.708 41.1001 241.228C41.1283 240.967 41.053 240.705 40.8902 240.5C40.7275 240.294 40.4904 240.16 40.2301 240.128H40.2101Z" fill="#353432"/>
<path d="M27.08 270.398C27.08 271.008 27.3223 271.593 27.7536 272.024C28.1849 272.455 28.77 272.698 29.38 272.698H31.72C32.33 272.698 32.915 272.455 33.3463 272.024C33.7776 271.593 34.02 271.008 34.02 270.398V262.508H27.08V270.398Z" fill="#E78F44"/>
<path d="M28.23 269.608C28.23 269.952 28.3669 270.283 28.6107 270.527C28.8545 270.771 29.1852 270.908 29.53 270.908H31.37C31.7148 270.908 32.0454 270.771 32.2892 270.527C32.533 270.283 32.67 269.952 32.67 269.608V264.078H28.23V269.608Z" fill="#F3B351"/>
<path d="M34.6401 261.368H26.2801C26.0923 261.368 25.9401 261.52 25.9401 261.708V264.688C25.9401 264.875 26.0923 265.028 26.2801 265.028H34.6401C34.8278 265.028 34.9801 264.875 34.9801 264.688V261.708C34.9801 261.52 34.8278 261.368 34.6401 261.368Z" fill="#353432"/>
</svg>
