<svg width="171" height="166" viewBox="0 0 171 166" fill="none" xmlns="http://www.w3.org/2000/svg">
<path d="M170.91 44.93C157.105 42.9455 143.924 37.8756 132.347 30.0971C120.77 22.3187 111.095 12.0315 104.04 0L34.7 1.84003L0 59.01C17.4398 89.3125 42.0897 114.842 71.7624 133.333C101.435 151.824 135.213 162.705 170.1 165.01L137.7 106.14L170.91 44.93Z" fill="#E17569"/>
<path d="M36.4749 74.4961L39.5686 74.1953C39.7548 75.2337 40.1308 75.9964 40.6965 76.4834C41.2694 76.9704 42.0393 77.2139 43.0061 77.2139C44.0302 77.2139 44.8 76.999 45.3157 76.5693C45.8385 76.1325 46.0999 75.624 46.0999 75.0439C46.0999 74.6715 45.9889 74.3564 45.7668 74.0986C45.552 73.8337 45.1724 73.6045 44.6282 73.4111C44.2558 73.2822 43.4071 73.0531 42.0823 72.7236C40.3778 72.3011 39.1819 71.7819 38.4944 71.166C37.5276 70.2995 37.0442 69.2432 37.0442 67.9971C37.0442 67.195 37.2698 66.4466 37.7209 65.752C38.1793 65.0501 38.8346 64.5166 39.6868 64.1514C40.5461 63.7861 41.581 63.6035 42.7913 63.6035C44.7678 63.6035 46.2538 64.0368 47.2493 64.9033C48.2519 65.7699 48.7782 66.9264 48.8284 68.373L45.6487 68.5127C45.5126 67.7035 45.219 67.1234 44.7678 66.7725C44.3238 66.4144 43.6542 66.2354 42.759 66.2354C41.8352 66.2354 41.1119 66.4251 40.5891 66.8047C40.2525 67.0482 40.0842 67.374 40.0842 67.7822C40.0842 68.1546 40.2418 68.4733 40.5569 68.7383C40.9579 69.0749 41.9319 69.4258 43.4788 69.791C45.0256 70.1562 46.1679 70.5358 46.9055 70.9297C47.6503 71.3164 48.2304 71.8499 48.6458 72.5303C49.0683 73.2035 49.2795 74.0378 49.2795 75.0332C49.2795 75.9355 49.0289 76.7806 48.5276 77.5684C48.0263 78.3561 47.3173 78.9434 46.4006 79.3301C45.484 79.7096 44.3417 79.8994 42.9739 79.8994C40.983 79.8994 39.454 79.4411 38.387 78.5244C37.3199 77.6006 36.6825 76.2578 36.4749 74.4961ZM59.4417 79.6201V77.9121C59.0263 78.5208 58.4784 79.0007 57.7981 79.3516C57.1249 79.7025 56.4124 79.8779 55.6604 79.8779C54.8941 79.8779 54.2066 79.7096 53.5979 79.373C52.9892 79.0365 52.5487 78.5638 52.2766 77.9551C52.0045 77.3464 51.8684 76.5049 51.8684 75.4307V68.2119H54.887V73.4541C54.887 75.0583 54.9407 76.043 55.0481 76.4082C55.1627 76.7663 55.3668 77.0527 55.6604 77.2676C55.954 77.4753 56.3264 77.5791 56.7776 77.5791C57.2932 77.5791 57.7551 77.4395 58.1633 77.1602C58.5715 76.8737 58.8508 76.5228 59.0012 76.1074C59.1516 75.6849 59.2268 74.6572 59.2268 73.0244V68.2119H62.2454V79.6201H59.4417ZM65.2961 68.2119H68.1106V69.8877C68.4758 69.3148 68.97 68.8493 69.593 68.4912C70.2161 68.1331 70.9071 67.9541 71.6663 67.9541C72.9911 67.9541 74.1155 68.4733 75.0393 69.5117C75.9631 70.5501 76.425 71.9967 76.425 73.8516C76.425 75.7565 75.9596 77.2389 75.0286 78.2988C74.0976 79.3516 72.9696 79.8779 71.6448 79.8779C71.0146 79.8779 70.4417 79.7526 69.926 79.502C69.4176 79.2513 68.8805 78.8216 68.3147 78.2129V83.96H65.2961V68.2119ZM68.2825 73.7227C68.2825 75.0046 68.5367 75.9535 69.0452 76.5693C69.5536 77.1781 70.1731 77.4824 70.9036 77.4824C71.6054 77.4824 72.189 77.2031 72.6545 76.6445C73.12 76.0788 73.3528 75.1549 73.3528 73.873C73.3528 72.6771 73.1129 71.7891 72.6331 71.209C72.1532 70.6289 71.5588 70.3389 70.8499 70.3389C70.1122 70.3389 69.4999 70.6253 69.0129 71.1982C68.526 71.764 68.2825 72.6055 68.2825 73.7227ZM78.7454 68.2119H81.5598V69.8877C81.925 69.3148 82.4192 68.8493 83.0422 68.4912C83.6653 68.1331 84.3564 67.9541 85.1155 67.9541C86.4403 67.9541 87.5647 68.4733 88.4885 69.5117C89.4124 70.5501 89.8743 71.9967 89.8743 73.8516C89.8743 75.7565 89.4088 77.2389 88.4778 78.2988C87.5468 79.3516 86.4189 79.8779 85.094 79.8779C84.4638 79.8779 83.8909 79.7526 83.3752 79.502C82.8668 79.2513 82.3297 78.8216 81.7639 78.2129V83.96H78.7454V68.2119ZM81.7317 73.7227C81.7317 75.0046 81.9859 75.9535 82.4944 76.5693C83.0028 77.1781 83.6223 77.4824 84.3528 77.4824C85.0546 77.4824 85.6383 77.2031 86.1038 76.6445C86.5693 76.0788 86.802 75.1549 86.802 73.873C86.802 72.6771 86.5621 71.7891 86.0823 71.209C85.6025 70.6289 85.0081 70.3389 84.2991 70.3389C83.5614 70.3389 82.9491 70.6253 82.4622 71.1982C81.9752 71.764 81.7317 72.6055 81.7317 73.7227ZM91.5823 73.7549C91.5823 72.7523 91.8293 71.7819 92.3235 70.8438C92.8176 69.9056 93.5159 69.1895 94.4182 68.6953C95.3277 68.2012 96.3411 67.9541 97.4583 67.9541C99.1842 67.9541 100.599 68.5163 101.701 69.6406C102.804 70.7578 103.356 72.1722 103.356 73.8838C103.356 75.6097 102.797 77.042 101.68 78.1807C100.57 79.3122 99.1698 79.8779 97.4797 79.8779C96.4342 79.8779 95.4351 79.6416 94.4827 79.1689C93.5374 78.6963 92.8176 78.0052 92.3235 77.0957C91.8293 76.179 91.5823 75.0654 91.5823 73.7549ZM94.676 73.916C94.676 75.0475 94.9446 75.9141 95.4817 76.5156C96.0188 77.1172 96.6812 77.418 97.469 77.418C98.2568 77.418 98.9156 77.1172 99.4456 76.5156C99.9827 75.9141 100.251 75.0404 100.251 73.8945C100.251 72.7773 99.9827 71.918 99.4456 71.3164C98.9156 70.7148 98.2568 70.4141 97.469 70.4141C96.6812 70.4141 96.0188 70.7148 95.4817 71.3164C94.9446 71.918 94.676 72.7845 94.676 73.916ZM108.619 79.6201H105.601V68.2119H108.405V69.834C108.884 69.0677 109.314 68.5628 109.694 68.3193C110.08 68.0758 110.517 67.9541 111.004 67.9541C111.692 67.9541 112.354 68.1439 112.991 68.5234L112.057 71.1553C111.548 70.8258 111.076 70.6611 110.639 70.6611C110.216 70.6611 109.858 70.7793 109.565 71.0156C109.271 71.2448 109.038 71.6637 108.866 72.2725C108.702 72.8812 108.619 74.1559 108.619 76.0967V79.6201ZM119.533 68.2119V70.6182H117.471V75.2158C117.471 76.1468 117.489 76.6911 117.525 76.8486C117.568 76.999 117.657 77.1243 117.793 77.2246C117.936 77.3249 118.108 77.375 118.309 77.375C118.588 77.375 118.993 77.2783 119.523 77.085L119.781 79.4268C119.079 79.7275 118.284 79.8779 117.396 79.8779C116.851 79.8779 116.361 79.7884 115.924 79.6094C115.487 79.4232 115.165 79.1868 114.957 78.9004C114.757 78.6068 114.617 78.2129 114.538 77.7188C114.474 77.3678 114.442 76.6589 114.442 75.5918V70.6182H113.056V68.2119H114.442V65.9453L117.471 64.1836V68.2119H119.533Z" fill="white"/>
</svg>
