<svg width="353" height="380" viewBox="0 0 353 380" fill="none" xmlns="http://www.w3.org/2000/svg">
<path d="M340.199 116.281H337.895V98.8059H340.199V116.281Z" fill="#EB5651"/>
<path d="M180.183 18.4393H172.862L171.217 23H168.841L175.514 5.52516H177.53L184.216 23H181.851L180.183 18.4393ZM173.558 16.5429H179.499L176.522 8.36962L173.558 16.5429Z" fill="#EB5651"/>
<path d="M176.942 370.813H172.838V377.883H170.521V360.408H176.306C178.275 360.408 179.787 360.856 180.843 361.752C181.907 362.648 182.439 363.952 182.439 365.665C182.439 366.753 182.143 367.701 181.551 368.509C180.967 369.317 180.151 369.921 179.103 370.321L183.207 377.739V377.883H180.735L176.942 370.813ZM172.838 368.929H176.378C177.522 368.929 178.431 368.633 179.103 368.041C179.783 367.449 180.123 366.657 180.123 365.665C180.123 364.584 179.799 363.756 179.151 363.18C178.511 362.604 177.582 362.312 176.366 362.304H172.838V368.929Z" fill="#EB5651"/>
<path d="M5.79694 111.785L6.133 114.09L6.62508 112.013L10.0816 99.8193H12.026L15.3985 112.013L15.8786 114.126L16.2506 111.773L18.9631 99.8193H21.2795L17.0428 117.294H14.9424L11.3418 104.56L11.0658 103.228L10.7898 104.56L7.05715 117.294H4.95681L0.732119 99.8193H3.03649L5.79694 111.785Z" fill="#EB5651"/>
<path d="M10.2195 267.684C8.2432 267.116 6.80297 266.419 5.89882 265.595C5.00268 264.763 4.5546 263.739 4.5546 262.523C4.5546 261.147 5.10269 260.01 6.19887 259.114C7.30305 258.21 8.73528 257.758 10.4956 257.758C11.6958 257.758 12.7639 257.99 13.7001 258.454C14.6442 258.918 15.3724 259.558 15.8844 260.374C16.4045 261.191 16.6646 262.083 16.6646 263.051H14.3482C14.3482 261.995 14.0121 261.167 13.34 260.566C12.6679 259.958 11.7198 259.654 10.4956 259.654C9.35939 259.654 8.47124 259.906 7.83114 260.41C7.19903 260.907 6.88298 261.599 6.88298 262.487C6.88298 263.199 7.18303 263.803 7.78313 264.299C8.39123 264.787 9.4194 265.235 10.8676 265.643C12.3239 266.051 13.4601 266.503 14.2762 267C15.1003 267.488 15.7084 268.06 16.1005 268.716C16.5005 269.372 16.7006 270.144 16.7006 271.032C16.7006 272.448 16.1485 273.585 15.0443 274.441C13.9401 275.289 12.4639 275.713 10.6156 275.713C9.4154 275.713 8.29521 275.485 7.25504 275.029C6.21487 274.565 5.41074 273.933 4.84265 273.133C4.28256 272.332 4.00251 271.424 4.00251 270.408H6.31889C6.31889 271.464 6.70695 272.3 7.48308 272.916C8.26721 273.525 9.31138 273.829 10.6156 273.829C11.8318 273.829 12.7639 273.581 13.412 273.085C14.0602 272.588 14.3842 271.912 14.3842 271.056C14.3842 270.2 14.0842 269.54 13.4841 269.076C12.884 268.604 11.7958 268.14 10.2195 267.684Z" fill="#EB5651"/>
<path d="M332.564 269.417H328.46V276.486H326.143V259.011H331.928C333.897 259.011 335.409 259.46 336.465 260.356C337.529 261.252 338.061 262.556 338.061 264.268C338.061 265.357 337.765 266.305 337.173 267.113C336.589 267.921 335.773 268.525 334.725 268.925L338.829 276.342V276.486H336.357L332.564 269.417ZM328.46 267.533H332C333.144 267.533 334.053 267.237 334.725 266.645C335.405 266.053 335.745 265.261 335.745 264.268C335.745 263.188 335.421 262.36 334.773 261.784C334.133 261.208 333.204 260.916 331.988 260.908H328.46V267.533ZM346.163 274.914C346.955 274.914 347.647 274.674 348.239 274.194C348.831 273.714 349.159 273.114 349.223 272.394H351.323C351.283 273.138 351.027 273.846 350.555 274.518C350.083 275.19 349.451 275.726 348.659 276.126C347.875 276.526 347.043 276.726 346.163 276.726C344.394 276.726 342.986 276.138 341.938 274.962C340.898 273.778 340.378 272.162 340.378 270.113V269.741C340.378 268.477 340.61 267.353 341.074 266.369C341.538 265.385 342.202 264.62 343.066 264.076C343.938 263.532 344.966 263.26 346.151 263.26C347.607 263.26 348.815 263.696 349.775 264.568C350.743 265.441 351.259 266.573 351.323 267.965H349.223C349.159 267.125 348.839 266.437 348.263 265.901C347.695 265.357 346.991 265.084 346.151 265.084C345.022 265.084 344.146 265.493 343.522 266.309C342.906 267.117 342.598 268.289 342.598 269.825V270.245C342.598 271.742 342.906 272.894 343.522 273.702C344.138 274.51 345.018 274.914 346.163 274.914Z" fill="#EB5651"/>
<path d="M39.4348 269.798V115.676L177.123 38.5797L314.821 115.676V269.798L177.123 346.894L39.4348 269.798Z" stroke="#EB5651" stroke-width="2"/>
<path d="M59.3928 259.067V127.429L177.123 61.5835L294.863 127.429V259.067L177.123 324.913L59.3928 259.067Z" stroke="#EB5651" stroke-width="2"/>
<path d="M78.4943 248.673V138.603L177.123 83.5304L275.726 138.603V248.673L177.123 303.754L78.4943 248.673Z" stroke="#EB5651" stroke-width="2"/>
<path d="M97.7562 237.092V148.72L177.123 104.49L256.499 148.72V237.092L177.123 281.322L97.7562 237.092Z" stroke="#EB5651" stroke-width="2"/>
<path d="M117.857 226.529V159.785L177.123 126.397L236.399 159.785V226.529L177.123 259.917L117.857 226.529Z" stroke="#EB5651" stroke-width="2"/>
<path d="M138.645 214.385V171.071L177.123 149.392L215.602 171.071V214.385L177.123 236.056L138.645 214.385Z" stroke="#EB5651" stroke-width="2"/>
<path d="M158.156 203.386V182.036L177.123 171.34L196.099 182.036V203.386L177.123 214.082L158.156 203.386Z" stroke="#EB5651" stroke-width="2"/>
</svg>
