<svg width="209" height="157" viewBox="0 0 209 157" fill="none" xmlns="http://www.w3.org/2000/svg">
<path d="M103.07 156.41C111.555 145.178 122.488 136.027 135.038 129.651C147.588 123.274 161.425 119.841 175.5 119.61L208.16 59.4L175.57 0C140.75 0.228238 106.521 9.02181 75.9022 25.6051C45.2836 42.1883 19.2164 66.0516 0 95.09L66.34 96.51L103.07 156.41Z" fill="#79C3D0"/>
<path d="M63.825 63.48L60.0652 47.7319H63.3201L65.6941 58.5493L68.573 47.7319H72.3542L75.115 58.7319L77.532 47.7319H80.7332L76.9089 63.48H73.5359L70.3992 51.7065L67.2732 63.48H63.825ZM81.238 57.6147C81.238 56.6121 81.4851 55.6418 81.9792 54.7036C82.4734 53.7655 83.1716 53.0493 84.074 52.5552C84.9835 52.061 85.9968 51.814 87.114 51.814C88.8399 51.814 90.2543 52.3761 91.3572 53.5005C92.46 54.6177 93.0115 56.0321 93.0115 57.7437C93.0115 59.4696 92.4529 60.9019 91.3357 62.0405C90.2257 63.172 88.8256 63.7378 87.1355 63.7378C86.0899 63.7378 85.0909 63.5015 84.1384 63.0288C83.1931 62.5562 82.4734 61.8651 81.9792 60.9556C81.4851 60.0389 81.238 58.9253 81.238 57.6147ZM84.3318 57.7759C84.3318 58.9074 84.6003 59.7739 85.1375 60.3755C85.6746 60.9771 86.337 61.2778 87.1248 61.2778C87.9125 61.2778 88.5714 60.9771 89.1013 60.3755C89.6384 59.7739 89.907 58.9002 89.907 57.7544C89.907 56.6372 89.6384 55.7778 89.1013 55.1763C88.5714 54.5747 87.9125 54.2739 87.1248 54.2739C86.337 54.2739 85.6746 54.5747 85.1375 55.1763C84.6003 55.7778 84.3318 56.6444 84.3318 57.7759ZM98.2751 63.48H95.2566V52.0718H98.0603V53.6938C98.5401 52.9276 98.9698 52.4227 99.3494 52.1792C99.7361 51.9357 100.173 51.814 100.66 51.814C101.347 51.814 102.01 52.0037 102.647 52.3833L101.713 55.0151C101.204 54.6857 100.732 54.521 100.295 54.521C99.8722 54.521 99.5141 54.6392 99.2205 54.8755C98.9268 55.1047 98.6941 55.5236 98.5222 56.1323C98.3575 56.741 98.2751 58.0158 98.2751 59.9565V63.48ZM103.85 63.48V47.7319H106.869V56.0894L110.403 52.0718H114.12L110.22 56.2397L114.399 63.48H111.144L108.276 58.356L106.869 59.8276V63.48H103.85ZM116.204 50.5249V47.7319H119.222V50.5249H116.204ZM116.204 63.48V52.0718H119.222V63.48H116.204ZM132.704 63.48H129.685V57.6577C129.685 56.4259 129.621 55.631 129.492 55.2729C129.363 54.9077 129.152 54.6248 128.858 54.4243C128.572 54.2238 128.224 54.1235 127.816 54.1235C127.293 54.1235 126.824 54.2668 126.409 54.5532C125.994 54.8397 125.707 55.2192 125.55 55.6919C125.399 56.1646 125.324 57.0382 125.324 58.313V63.48H122.305V52.0718H125.109V53.7476C126.105 52.4585 127.358 51.814 128.869 51.814C129.535 51.814 130.144 51.9357 130.695 52.1792C131.247 52.4155 131.662 52.7199 131.941 53.0923C132.228 53.4647 132.425 53.8872 132.532 54.3599C132.647 54.8325 132.704 55.5093 132.704 56.3901V63.48ZM135.497 64.2319L138.945 64.6509C139.002 65.0519 139.135 65.3276 139.343 65.478C139.629 65.6929 140.08 65.8003 140.696 65.8003C141.484 65.8003 142.075 65.6821 142.469 65.4458C142.733 65.2882 142.934 65.034 143.07 64.6831C143.163 64.4325 143.21 63.9705 143.21 63.2974V61.6323C142.307 62.8641 141.169 63.48 139.794 63.48C138.261 63.48 137.047 62.8319 136.152 61.5356C135.45 60.5116 135.099 59.2368 135.099 57.7114C135.099 55.7993 135.558 54.3384 136.474 53.3286C137.398 52.3188 138.544 51.814 139.912 51.814C141.323 51.814 142.486 52.4334 143.403 53.6724V52.0718H146.228V62.3091C146.228 63.6554 146.117 64.6616 145.895 65.3276C145.673 65.9937 145.362 66.5164 144.961 66.896C144.56 67.2756 144.023 67.5728 143.349 67.7876C142.683 68.0024 141.838 68.1099 140.814 68.1099C138.881 68.1099 137.509 67.7769 136.7 67.1108C135.891 66.452 135.486 65.6141 135.486 64.5972C135.486 64.4969 135.49 64.3752 135.497 64.2319ZM138.193 57.5396C138.193 58.7498 138.426 59.6379 138.891 60.2036C139.364 60.7622 139.944 61.0415 140.632 61.0415C141.369 61.0415 141.992 60.755 142.501 60.1821C143.009 59.6021 143.263 58.7463 143.263 57.6147C143.263 56.4331 143.02 55.5558 142.533 54.9829C142.046 54.41 141.43 54.1235 140.685 54.1235C139.962 54.1235 139.364 54.4064 138.891 54.9722C138.426 55.5308 138.193 56.3866 138.193 57.5396Z" fill="white"/>
<path d="M71.6667 79.6899L74.7498 80.6675C74.2771 82.3862 73.4893 83.6646 72.3865 84.5024C71.2908 85.3332 69.8979 85.7485 68.2078 85.7485C66.1166 85.7485 64.3979 85.036 63.0515 83.6108C61.7052 82.1785 61.032 80.2235 61.032 77.7456C61.032 75.1245 61.7087 73.0907 63.0623 71.644C64.4158 70.1903 66.1954 69.4634 68.4011 69.4634C70.3276 69.4634 71.8923 70.0327 73.0955 71.1714C73.8116 71.8446 74.3487 72.8114 74.7068 74.0718L71.5593 74.8237C71.3731 74.0073 70.9828 73.3628 70.3884 72.8901C69.8012 72.4175 69.085 72.1812 68.24 72.1812C67.0727 72.1812 66.1238 72.6001 65.3933 73.438C64.67 74.2759 64.3083 75.633 64.3083 77.5093C64.3083 79.5002 64.6664 80.9181 65.3826 81.7632C66.0987 82.6082 67.0297 83.0308 68.1755 83.0308C69.0206 83.0308 69.7475 82.7622 70.3562 82.2251C70.9649 81.688 71.4018 80.8429 71.6667 79.6899ZM76.7693 79.6147C76.7693 78.6121 77.0164 77.6418 77.5105 76.7036C78.0046 75.7655 78.7029 75.0493 79.6052 74.5552C80.5147 74.061 81.5281 73.814 82.6453 73.814C84.3712 73.814 85.7856 74.3761 86.8884 75.5005C87.9913 76.6177 88.5427 78.0321 88.5427 79.7437C88.5427 81.4696 87.9841 82.9019 86.8669 84.0405C85.7569 85.172 84.3569 85.7378 82.6667 85.7378C81.6212 85.7378 80.6222 85.5015 79.6697 85.0288C78.7244 84.5562 78.0046 83.8651 77.5105 82.9556C77.0164 82.0389 76.7693 80.9253 76.7693 79.6147ZM79.863 79.7759C79.863 80.9074 80.1316 81.7739 80.6687 82.3755C81.2058 82.9771 81.8682 83.2778 82.656 83.2778C83.4438 83.2778 84.1026 82.9771 84.6326 82.3755C85.1697 81.7739 85.4382 80.9002 85.4382 79.7544C85.4382 78.6372 85.1697 77.7778 84.6326 77.1763C84.1026 76.5747 83.4438 76.2739 82.656 76.2739C81.8682 76.2739 81.2058 76.5747 80.6687 77.1763C80.1316 77.7778 79.863 78.6444 79.863 79.7759ZM101.294 85.48H98.2751V79.6577C98.2751 78.4259 98.2107 77.631 98.0818 77.2729C97.9529 76.9077 97.7416 76.6248 97.448 76.4243C97.1615 76.2238 96.8142 76.1235 96.406 76.1235C95.8832 76.1235 95.4141 76.2668 94.9988 76.5532C94.5834 76.8397 94.297 77.2192 94.1394 77.6919C93.989 78.1646 93.9138 79.0382 93.9138 80.313V85.48H90.8953V74.0718H93.699V75.7476C94.6944 74.4585 95.9477 73.814 97.4587 73.814C98.1248 73.814 98.7335 73.9357 99.2849 74.1792C99.8363 74.4155 100.252 74.7199 100.531 75.0923C100.817 75.4647 101.014 75.8872 101.122 76.3599C101.236 76.8325 101.294 77.5093 101.294 78.3901V85.48ZM114.829 85.48H112.025V83.8042C111.56 84.4559 111.008 84.9429 110.371 85.2651C109.741 85.5802 109.103 85.7378 108.459 85.7378C107.148 85.7378 106.024 85.2114 105.086 84.1587C104.155 83.0988 103.689 81.6235 103.689 79.7329C103.689 77.7993 104.144 76.3312 105.053 75.3286C105.963 74.3188 107.112 73.814 108.502 73.814C109.776 73.814 110.879 74.3439 111.81 75.4038V69.7319H114.829V85.48ZM106.772 79.5288C106.772 80.7463 106.941 81.6271 107.277 82.1714C107.764 82.9591 108.444 83.353 109.318 83.353C110.013 83.353 110.604 83.0594 111.091 82.4722C111.578 81.8778 111.821 80.9933 111.821 79.8188C111.821 78.5083 111.585 77.5666 111.112 76.9937C110.639 76.4136 110.034 76.1235 109.297 76.1235C108.58 76.1235 107.979 76.41 107.492 76.9829C107.012 77.5487 106.772 78.3973 106.772 79.5288ZM117.815 72.5249V69.7319H120.834V72.5249H117.815ZM117.815 85.48V74.0718H120.834V85.48H117.815ZM129.17 74.0718V76.478H127.107V81.0757C127.107 82.0067 127.125 82.5509 127.161 82.7085C127.204 82.8589 127.293 82.9842 127.429 83.0845C127.573 83.1847 127.745 83.2349 127.945 83.2349C128.224 83.2349 128.629 83.1382 129.159 82.9448L129.417 85.2866C128.715 85.5874 127.92 85.7378 127.032 85.7378C126.488 85.7378 125.997 85.6483 125.56 85.4692C125.123 85.283 124.801 85.0467 124.594 84.7603C124.393 84.4666 124.253 84.0728 124.175 83.5786C124.11 83.2277 124.078 82.5187 124.078 81.4517V76.478H122.692V74.0718H124.078V71.8052L127.107 70.0435V74.0718H129.17ZM131.264 72.5249V69.7319H134.283V72.5249H131.264ZM131.264 85.48V74.0718H134.283V85.48H131.264ZM136.689 79.6147C136.689 78.6121 136.936 77.6418 137.43 76.7036C137.925 75.7655 138.623 75.0493 139.525 74.5552C140.435 74.061 141.448 73.814 142.565 73.814C144.291 73.814 145.705 74.3761 146.808 75.5005C147.911 76.6177 148.463 78.0321 148.463 79.7437C148.463 81.4696 147.904 82.9019 146.787 84.0405C145.677 85.172 144.277 85.7378 142.587 85.7378C141.541 85.7378 140.542 85.5015 139.59 85.0288C138.644 84.5562 137.925 83.8651 137.43 82.9556C136.936 82.0389 136.689 80.9253 136.689 79.6147ZM139.783 79.7759C139.783 80.9074 140.052 81.7739 140.589 82.3755C141.126 82.9771 141.788 83.2778 142.576 83.2778C143.364 83.2778 144.023 82.9771 144.552 82.3755C145.09 81.7739 145.358 80.9002 145.358 79.7544C145.358 78.6372 145.09 77.7778 144.552 77.1763C144.023 76.5747 143.364 76.2739 142.576 76.2739C141.788 76.2739 141.126 76.5747 140.589 77.1763C140.052 77.7778 139.783 78.6444 139.783 79.7759ZM161.214 85.48H158.195V79.6577C158.195 78.4259 158.131 77.631 158.002 77.2729C157.873 76.9077 157.662 76.6248 157.368 76.4243C157.081 76.2238 156.734 76.1235 156.326 76.1235C155.803 76.1235 155.334 76.2668 154.919 76.5532C154.503 76.8397 154.217 77.2192 154.059 77.6919C153.909 78.1646 153.834 79.0382 153.834 80.313V85.48H150.815V74.0718H153.619V75.7476C154.614 74.4585 155.868 73.814 157.379 73.814C158.045 73.814 158.653 73.9357 159.205 74.1792C159.756 74.4155 160.172 74.7199 160.451 75.0923C160.737 75.4647 160.934 75.8872 161.042 76.3599C161.156 76.8325 161.214 77.5093 161.214 78.3901V85.48ZM163.222 82.2251L166.252 81.7632C166.381 82.3504 166.642 82.798 167.036 83.106C167.43 83.4067 167.981 83.5571 168.69 83.5571C169.471 83.5571 170.058 83.4139 170.452 83.1274C170.717 82.9269 170.849 82.6584 170.849 82.3218C170.849 82.0926 170.778 81.9028 170.635 81.7524C170.484 81.6092 170.148 81.4767 169.625 81.355C167.19 80.8179 165.647 80.3273 164.995 79.8833C164.093 79.2674 163.641 78.4116 163.641 77.3159C163.641 76.3276 164.032 75.4969 164.812 74.8237C165.593 74.1506 166.803 73.814 168.443 73.814C170.004 73.814 171.164 74.0682 171.924 74.5767C172.683 75.0851 173.205 75.8371 173.492 76.8325L170.645 77.3589C170.524 76.9149 170.291 76.5747 169.947 76.3384C169.61 76.1021 169.127 75.9839 168.497 75.9839C167.702 75.9839 167.133 76.0949 166.789 76.3169C166.56 76.4744 166.445 76.6785 166.445 76.9292C166.445 77.144 166.545 77.3267 166.746 77.4771C167.018 77.6776 167.956 77.9604 169.56 78.3257C171.172 78.6909 172.296 79.1385 172.933 79.6685C173.564 80.2056 173.879 80.9539 173.879 81.9136C173.879 82.9591 173.442 83.8579 172.568 84.6099C171.694 85.3618 170.402 85.7378 168.69 85.7378C167.136 85.7378 165.904 85.4227 164.995 84.7925C164.093 84.1623 163.502 83.3065 163.222 82.2251Z" fill="white"/>
</svg>
