<svg width="310" height="310" viewBox="0 0 310 310" fill="none" xmlns="http://www.w3.org/2000/svg">
<path d="M277.532 269.069C277.599 269.133 277.668 269.192 277.741 269.246C279.747 271.232 281.369 273.603 282.516 276.232C283.708 278.968 284.36 281.926 284.43 284.931C284.5 287.936 283.987 290.923 282.922 293.716C281.863 296.495 280.281 299.023 278.272 301.154L277.82 301.599C275.61 303.631 273.039 305.192 270.256 306.197C267.461 307.206 264.503 307.635 261.551 307.463C258.598 307.29 255.705 306.518 253.035 305.189C250.369 303.861 247.977 302.001 245.997 299.712C245.994 299.709 245.992 299.706 245.989 299.703L207.508 254.293C219.022 248.943 228.603 239.988 234.896 228.716L277.532 269.069Z" fill="#103C5F" stroke="black" stroke-width="5" stroke-linejoin="round"/>
<path d="M216.003 150.389C219.705 153.882 224.105 156.51 228.9 158.081C233.462 159.576 238.272 160.08 243.026 159.564C239.553 173.796 233.653 187.275 225.602 199.367C225.08 200.15 225.043 201.16 225.505 201.98C227.194 204.976 227.873 208.476 227.428 211.925C226.983 215.374 225.441 218.559 223.061 220.983C222.965 221.081 222.877 221.187 222.798 221.3C218.179 227.893 212.413 233.534 205.798 237.935L205.789 237.941C197.647 243.411 191.769 244.154 188.134 243.758C186.293 243.557 184.945 243.056 184.089 242.635C183.659 242.424 183.352 242.231 183.168 242.106C183.076 242.043 183.015 241.997 182.985 241.974C182.977 241.968 182.971 241.963 182.967 241.96C182.443 241.515 181.758 241.306 181.074 241.382L180.708 241.423C180.402 241.456 180.105 241.547 179.831 241.689C174.544 244.435 169.073 246.784 163.461 248.719L163.46 248.72C140.528 256.629 115.843 257.334 92.5242 250.746C69.2047 244.158 48.289 230.57 32.4306 211.687C16.5715 192.804 6.48513 169.476 3.45911 144.654C0.433067 119.832 4.6051 94.6434 15.4419 72.2785C26.2784 49.9144 43.2882 31.3862 64.3071 19.0281C85.3249 6.6707 109.412 1.0346 133.522 2.82497C157.632 4.61536 180.694 13.753 199.79 29.0933C218.868 44.4192 233.13 65.2497 240.765 88.9607C232.005 88.4555 223.4 91.4283 216.711 97.2516L212.113 94.7029C212.093 94.6305 212.07 94.5589 212.044 94.4883C204 73.0383 188.753 55.2678 169.063 44.4334C149.37 33.5978 126.554 30.4283 104.779 35.5115C83.0052 40.5943 63.7438 53.5846 50.4934 72.0913C37.2443 90.5962 30.8814 113.39 32.55 136.32C34.2187 159.25 43.8099 180.811 59.5948 197.07C75.3815 213.329 96.314 223.202 118.582 224.867C140.851 226.531 162.947 219.873 180.843 206.125C198.638 192.454 211.098 172.682 216.003 150.389Z" fill="#103C5F" stroke="black" stroke-width="5" stroke-linejoin="round"/>
<path d="M284.312 30.8593C284.59 30.865 284.867 30.8242 285.131 30.7391C290.989 30.8714 296.597 33.3325 300.774 37.6467C305.072 42.0858 307.5 48.1232 307.5 54.4348C307.5 60.7463 305.072 66.7838 300.774 71.2229C296.479 75.6592 290.671 78.136 284.632 78.136C283.758 78.136 282.948 78.5922 282.495 79.3392L264.099 109.659C263.675 110.358 263.619 111.22 263.95 111.968C265.709 115.941 266.527 120.294 266.332 124.665C266.331 124.683 266.33 124.701 266.33 124.719C266.329 124.749 266.329 124.778 266.329 124.808C266.422 132.212 263.662 139.335 258.681 144.615C253.702 149.891 246.916 152.893 239.82 152.988C232.724 153.083 225.866 150.263 220.758 145.122C215.648 139.979 212.711 132.932 212.619 125.528C212.607 124.63 212.115 123.807 211.329 123.372L177.081 104.422C176.083 103.87 174.837 104.064 174.053 104.893C170.79 108.349 166.781 110.942 162.364 112.466C157.947 113.989 153.245 114.4 148.646 113.667C147.596 113.499 146.556 114.014 146.051 114.95L135.166 135.163C134.658 136.104 134.806 137.264 135.533 138.048C143.025 146.127 147.182 156.922 147.098 168.14L147.098 168.154C147.082 177.25 144.312 186.105 139.186 193.48C134.061 200.854 126.841 206.374 118.547 209.283C110.255 212.191 101.292 212.348 92.9102 209.732C84.5271 207.115 77.1319 201.852 71.7689 194.663C66.405 187.473 63.3461 178.721 63.0317 169.631C62.7174 160.541 65.164 151.584 70.0194 144.014C74.8742 136.445 81.8899 130.648 90.0734 127.419C98.3873 124.139 106.216 123.124 114.564 125.38C115.655 125.675 116.807 125.202 117.376 124.227L128.836 104.585C129.341 103.718 129.28 102.633 128.679 101.829C124.692 96.4905 122.508 89.9361 122.474 83.1749C122.915 75.182 126.295 67.68 131.901 62.198C137.521 56.7024 144.949 53.6534 152.656 53.6534C160.362 53.6534 167.791 56.7024 173.411 62.198C179.018 67.6811 182.398 75.185 182.838 83.1796V86.321C182.838 87.2413 183.344 88.0872 184.154 88.523L217.057 106.209C218.064 106.751 219.31 106.54 220.083 105.697C223.407 102.073 227.598 99.4362 232.221 98.0489C236.843 96.6618 241.737 96.5712 246.403 97.7857C247.152 97.9807 247.95 97.8177 248.562 97.3443C249.064 96.9564 249.395 96.396 249.498 95.7804L266.32 71.9984C266.956 71.0991 266.929 69.8894 266.253 69.0198C263.549 65.5435 261.855 61.3343 261.379 56.8846C260.904 52.4347 261.668 47.9399 263.576 43.9297C265.485 39.9201 268.455 36.568 272.128 34.2575C275.801 31.9475 280.027 30.7716 284.312 30.8593Z" fill="#F78F08" stroke="black" stroke-width="5" stroke-linejoin="round"/>
</svg>
