<svg width="310" height="310" viewBox="0 0 310 310" fill="none" xmlns="http://www.w3.org/2000/svg">
<mask id="path-1-inside-1" fill="white">
<path d="M279.25 267.253L234.214 224.629C227.757 237.816 216.778 248.048 203.416 253.332L244.097 301.338C246.293 303.878 248.951 305.947 251.921 307.427C254.891 308.906 258.113 309.766 261.405 309.959C264.697 310.151 267.993 309.672 271.105 308.548C274.218 307.424 277.085 305.678 279.544 303.41L280.058 302.904C282.31 300.524 284.078 297.703 285.259 294.606C286.439 291.509 287.007 288.2 286.929 284.872C286.852 281.545 286.13 278.268 284.807 275.233C283.484 272.199 281.586 269.468 279.226 267.203L279.25 267.253Z"/>
</mask>
<path d="M279.25 267.253L234.214 224.629C227.757 237.816 216.778 248.048 203.416 253.332L244.097 301.338C246.293 303.878 248.951 305.947 251.921 307.427C254.891 308.906 258.113 309.766 261.405 309.959C264.697 310.151 267.993 309.672 271.105 308.548C274.218 307.424 277.085 305.678 279.544 303.41L280.058 302.904C282.31 300.524 284.078 297.703 285.259 294.606C286.439 291.509 287.007 288.2 286.929 284.872C286.852 281.545 286.13 278.268 284.807 275.233C283.484 272.199 281.586 269.468 279.226 267.203L279.25 267.253Z" stroke="black" stroke-width="10" stroke-linejoin="round" mask="url(#path-1-inside-1)"/>
<mask id="path-2-inside-2" fill="white">
<path d="M246.45 156.55L243.853 156.94C239.098 157.627 234.255 157.205 229.679 155.705C225.103 154.206 220.91 151.666 217.409 148.274L214.546 145.419L213.641 149.487C208.916 171.366 196.735 190.763 179.32 204.142C161.906 217.521 140.416 223.991 118.768 222.373C97.1209 220.756 76.7569 211.157 61.3884 195.328C46.0199 179.499 36.6702 158.493 35.0434 136.139C33.4167 113.784 39.6212 91.5709 52.5261 73.5467C65.431 55.5225 84.177 42.888 105.347 37.946C126.517 33.004 148.702 36.0837 167.857 46.6237C187.013 57.1637 201.864 74.4622 209.703 95.3661V96.2252L217.042 100.293L218.216 99.2571C224.514 93.7107 232.658 90.919 240.917 91.4751H244.244L243.168 88.2663C235.392 64.0686 220.841 42.7973 201.356 27.1443C181.871 11.4913 158.328 2.16019 133.707 0.331833C109.086 -1.49652 84.4925 4.26002 63.04 16.873C41.5875 29.486 24.2397 48.3885 13.1921 71.1884C2.14452 93.9883 -2.10633 119.661 0.977485 144.957C4.0613 170.253 14.3412 194.035 30.5162 213.295C46.6912 232.554 68.0343 246.425 91.8445 253.152C115.655 259.878 140.862 259.158 164.276 251.083C170.004 249.108 175.588 246.71 180.984 243.907L181.35 243.867C181.35 243.867 190.108 251.487 207.183 240.016C214.06 235.441 220.05 229.58 224.845 222.734C227.613 219.915 229.394 216.225 229.908 212.245C230.421 208.265 229.639 204.222 227.683 200.752C236.079 188.142 242.18 174.058 245.687 159.189L246.45 156.55Z"/>
</mask>
<path d="M246.45 156.55L243.853 156.94C239.098 157.627 234.255 157.205 229.679 155.705C225.103 154.206 220.91 151.666 217.409 148.274L214.546 145.419L213.641 149.487C208.916 171.366 196.735 190.763 179.32 204.142C161.906 217.521 140.416 223.991 118.768 222.373C97.1209 220.756 76.7569 211.157 61.3884 195.328C46.0199 179.499 36.6702 158.493 35.0434 136.139C33.4167 113.784 39.6212 91.5709 52.5261 73.5467C65.431 55.5225 84.177 42.888 105.347 37.946C126.517 33.004 148.702 36.0837 167.857 46.6237C187.013 57.1637 201.864 74.4622 209.703 95.3661V96.2252L217.042 100.293L218.216 99.2571C224.514 93.7107 232.658 90.919 240.917 91.4751H244.244L243.168 88.2663C235.392 64.0686 220.841 42.7973 201.356 27.1443C181.871 11.4913 158.328 2.16019 133.707 0.331833C109.086 -1.49652 84.4925 4.26002 63.04 16.873C41.5875 29.486 24.2397 48.3885 13.1921 71.1884C2.14452 93.9883 -2.10633 119.661 0.977485 144.957C4.0613 170.253 14.3412 194.035 30.5162 213.295C46.6912 232.554 68.0343 246.425 91.8445 253.152C115.655 259.878 140.862 259.158 164.276 251.083C170.004 249.108 175.588 246.71 180.984 243.907L181.35 243.867C181.35 243.867 190.108 251.487 207.183 240.016C214.06 235.441 220.05 229.58 224.845 222.734C227.613 219.915 229.394 216.225 229.908 212.245C230.421 208.265 229.639 204.222 227.683 200.752C236.079 188.142 242.18 174.058 245.687 159.189L246.45 156.55Z" stroke="black" stroke-width="10" stroke-linejoin="round" mask="url(#path-2-inside-2)"/>
<mask id="path-3-inside-3" fill="white">
<path d="M270.797 32.1413C274.879 29.5738 279.585 28.262 284.363 28.3599L284.632 28.2335C291.36 28.2335 297.812 30.994 302.57 35.9077C307.327 40.8214 310 47.4858 310 54.4348C310 61.3838 307.327 68.0482 302.57 72.9618C297.812 77.8755 291.36 80.636 284.632 80.636L266.236 110.956C268.153 115.284 269.042 120.022 268.829 124.776C268.93 132.818 265.933 140.571 260.499 146.33C255.065 152.09 247.639 155.384 239.853 155.488C232.068 155.592 224.561 152.497 218.985 146.884C213.408 141.272 210.219 133.601 210.119 125.56L175.871 106.61C172.334 110.354 167.983 113.172 163.179 114.829C158.375 116.486 153.258 116.934 148.252 116.135L137.367 136.348C145.299 144.902 149.687 156.315 149.598 168.159C149.581 177.757 146.658 187.11 141.239 194.907C135.819 202.704 128.174 208.556 119.375 211.642C110.575 214.728 101.061 214.895 92.1653 212.118C83.2695 209.341 75.4372 203.761 69.765 196.158C64.0928 188.555 60.8649 179.31 60.5332 169.717C60.2015 160.125 62.7826 150.666 67.9151 142.664C73.0476 134.662 80.4745 128.519 89.1559 125.094C97.8372 121.669 106.226 120.537 115.217 122.967L126.676 103.325C122.35 97.5326 119.994 90.428 119.974 83.1121C120.431 74.4789 124.074 66.3549 130.153 60.4105C136.232 54.4662 144.285 51.1534 152.656 51.1534C161.027 51.1534 169.08 54.4662 175.159 60.4105C181.238 66.3549 184.88 74.4789 185.338 83.1121V86.321L218.24 104.007C221.864 100.056 226.442 97.1731 231.502 95.6544C236.562 94.1358 241.923 94.0363 247.033 95.3663V94.9368L264.279 70.5547C261.286 66.7066 259.418 62.0565 258.893 57.1502C258.369 52.2439 259.21 47.285 261.319 42.8552C263.427 38.4255 266.715 34.7088 270.797 32.1413Z"/>
</mask>
<path d="M270.797 32.1413C274.879 29.5738 279.585 28.262 284.363 28.3599L284.632 28.2335C291.36 28.2335 297.812 30.994 302.57 35.9077C307.327 40.8214 310 47.4858 310 54.4348C310 61.3838 307.327 68.0482 302.57 72.9618C297.812 77.8755 291.36 80.636 284.632 80.636L266.236 110.956C268.153 115.284 269.042 120.022 268.829 124.776C268.93 132.818 265.933 140.571 260.499 146.33C255.065 152.09 247.639 155.384 239.853 155.488C232.068 155.592 224.561 152.497 218.985 146.884C213.408 141.272 210.219 133.601 210.119 125.56L175.871 106.61C172.334 110.354 167.983 113.172 163.179 114.829C158.375 116.486 153.258 116.934 148.252 116.135L137.367 136.348C145.299 144.902 149.687 156.315 149.598 168.159C149.581 177.757 146.658 187.11 141.239 194.907C135.819 202.704 128.174 208.556 119.375 211.642C110.575 214.728 101.061 214.895 92.1653 212.118C83.2695 209.341 75.4372 203.761 69.765 196.158C64.0928 188.555 60.8649 179.31 60.5332 169.717C60.2015 160.125 62.7826 150.666 67.9151 142.664C73.0476 134.662 80.4745 128.519 89.1559 125.094C97.8372 121.669 106.226 120.537 115.217 122.967L126.676 103.325C122.35 97.5326 119.994 90.428 119.974 83.1121C120.431 74.4789 124.074 66.3549 130.153 60.4105C136.232 54.4662 144.285 51.1534 152.656 51.1534C161.027 51.1534 169.08 54.4662 175.159 60.4105C181.238 66.3549 184.88 74.4789 185.338 83.1121V86.321L218.24 104.007C221.864 100.056 226.442 97.1731 231.502 95.6544C236.562 94.1358 241.923 94.0363 247.033 95.3663V94.9368L264.279 70.5547C261.286 66.7066 259.418 62.0565 258.893 57.1502C258.369 52.2439 259.21 47.285 261.319 42.8552C263.427 38.4255 266.715 34.7088 270.797 32.1413Z" stroke="black" stroke-width="10" stroke-linejoin="round" mask="url(#path-3-inside-3)"/>
</svg>
